<?xml version="1.0" standalone="no"?>
<!DOCTYPE svg PUBLIC "-//W3C//DTD SVG 1.1//EN" "http://www.w3.org/Graphics/SVG/1.1/DTD/svg11.dtd" >
<svg xmlns="http://www.w3.org/2000/svg" xmlns:xlink="http://www.w3.org/1999/xlink" version="1.1">
<metadata>
Created by FontForge 20170731 at Tue Jul 25 21:56:14 2017
 By Aleksey,,,
Copyright (c) 2016 by Connary Fagen. All rights reserved.
</metadata>
<defs>
<font id="AddingtonCF-Thin" horiz-adv-x="1011" >
  <font-face 
    font-family="Addington CF Thin"
    font-weight="265"
    font-stretch="normal"
    units-per-em="2048"
    panose-1="0 0 3 0 0 0 0 0 0 0"
    ascent="1638"
    descent="-410"
    x-height="901"
    cap-height="1290"
    bbox="-356 -590 2243 1829"
    underline-thickness="0"
    underline-position="0"
    unicode-range="U+0020-FB02"
  />
<missing-glyph horiz-adv-x="999" 
d="M186 1638h633v-1996h-633v1996zM666 1440v65h-330v-65h129v-76h-131v-66h332v66h-134v76h134zM532 1108v139h-198v-207h332v68h-134zM399 1180h66v-72h-66v72zM666 920v65h-332v-65h131v-74h-131v-66h198v140h134zM666 666v200h-66v-133h-266v-67h332zM666 397v226h-201
v-113h67v47h68v-94h-201v160h-65v-226h332zM666 51v225h-332v-225h332zM399 211h201v-94h-201v94zM666 -61v65h-332v-65h139l-139 -95v-65h332v65h-205l139 95h66z" />
    <glyph glyph-name="uniFB01" unicode="fi" horiz-adv-x="1187" 
d="M348 891v-10l223 18q-10 -31 -10 -82h-213v-676q0 -36 25.5 -59.5t57.5 -29.5q52 -8 95 -13q6 -1 31 -4v-35h-504v35q3 1 29.5 5t29.5 5t14.5 3.5t21 5.5t13.5 5q26 15 34 30q12 24 12 52v676h-154v39l154 31q6 232 153 377q145 145 379 145q258 0 258 -123h-2v-6
q0 -35 -26.5 -60.5t-63.5 -25.5q-36 0 -62 24t-28 60q0 76 -84 76q-166 0 -274 -121q-109 -121 -109 -342zM989 895v-754q0 -34 9 -52.5t34 -29.5q26 -12 37 -15q13 -3 55 -9v-35h-403v35q12 2 24.5 4.5t19.5 4t10 1.5q10 1 38 14q26 11 34.5 29t8.5 53v514q0 62 -25 90
t-110 39v31q72 12 120 38q47 25 105 81z" />
    <glyph glyph-name="uniFB02" unicode="fl" horiz-adv-x="1175" 
d="M965 1341v-1200q0 -30 13 -52q9 -16 35 -30q21 -12 49 -15q2 0 15 -2.5t24.5 -4.5t12.5 -2v-35h-432v35q5 0 28 4q17 3 32 6q49 18 52 21q42 32 37 75v1008q0 79 -63.5 124.5t-177.5 45.5q-117 0 -179 -65q-63 -66 -63 -250v-123l254 18q-10 -31 -10 -82h-244v-676
q0 -36 25.5 -59.5t57.5 -29.5q52 -8 95 -13q6 -1 31 -4v-35h-504v35q3 1 29.5 5t29.5 5t14.5 3.5t21 5.5t13.5 5q26 15 34 30q12 24 12 52v676h-154v39l154 31v4q0 253 125 381q124 127 338 127q133 0 295 -58z" />
    <glyph glyph-name="f_f.liga" unicode="ff" horiz-adv-x="1314" 
d="M1270 1430q131 0 176 -87q-6 -90 -82 -118q-21 54 -65.5 88.5t-98.5 34.5q-78 0 -135 -70t-57 -244v-129l223 6h6h10q-10 -30 -10 -80h-229v-690q0 -36 25.5 -59.5t57.5 -29.5q44 -7 95 -13q7 -1 31 -4v-35h-504v35q3 1 29 5t29 5q2 1 23 6t26 8q28 16 34 30q12 29 12 52
v690h-518v-690q0 -36 25.5 -59.5t57.5 -29.5q52 -8 95 -13q6 -1 31 -4v-35h-504v35q3 1 29.5 5t29.5 5t14.5 3.5t21 5.5t13.5 5q26 15 34 30q12 24 12 52v690h-154v39l154 31h2q12 225 121 346q108 121 270 121q122 0 166 -86q-6 -90 -80 -119q-16 53 -61 87t-103 34
q-68 0 -121 -68q-53 -70 -53 -243v-84l518 12v6q0 257 108 390t296 133z" />
    <glyph glyph-name="f_f_i.liga" unicode="ffi" horiz-adv-x="1857" 
d="M1401 1354q-162 0 -270 -117q-108 -116 -113 -332l227 6q-10 -30 -10 -80h-217v-690q0 -36 25.5 -59.5t57.5 -29.5q44 -7 95 -13q6 -1 31 -4v-35h-504v35q3 1 29 5t29 5q2 1 23 6t27 8q46 25 46 82v690h-529v-690q0 -36 25.5 -59.5t57.5 -29.5q52 -8 95 -13q6 -1 31 -4
v-35h-504v35q3 1 29.5 5t29.5 5t14.5 3.5t21 5.5t13.5 5q26 15 34 30q12 24 12 52v690h-154v39l154 31h2q12 226 119 347q106 120 266 120q122 0 166 -86q-6 -90 -80 -119q-16 52 -61 86.5t-103 34.5q-66 0 -117 -68q-51 -69 -51 -243v-84l529 14q10 222 156 365
q146 141 376 141q258 0 258 -123h-2v-6q0 -35 -26.5 -60.5t-63.5 -25.5q-36 0 -62 24t-28 60q0 76 -84 76zM1659 895v-754q0 -35 8.5 -53t33.5 -29q26 -12 38 -15q13 -3 55 -9v-35h-403v35q12 2 24.5 4.5t19.5 4t10 1.5q10 1 38 14q25 11 34 29.5t9 52.5v514q0 62 -25 90
t-110 39v31q72 12 120 38q45 25 105 81z" />
    <glyph glyph-name=".notdef" horiz-adv-x="999" 
d="M186 1638h633v-1996h-633v1996zM666 1440v65h-330v-65h129v-76h-131v-66h332v66h-134v76h134zM532 1108v139h-198v-207h332v68h-134zM399 1180h66v-72h-66v72zM666 920v65h-332v-65h131v-74h-131v-66h198v140h134zM666 666v200h-66v-133h-266v-67h332zM666 397v226h-201
v-113h67v47h68v-94h-201v160h-65v-226h332zM666 51v225h-332v-225h332zM399 211h201v-94h-201v94zM666 -61v65h-332v-65h139l-139 -95v-65h332v65h-205l139 95h66z" />
    <glyph glyph-name="glyph1" horiz-adv-x="0" 
 />
    <glyph glyph-name="glyph2" horiz-adv-x="681" 
 />
    <glyph glyph-name="space" unicode=" " horiz-adv-x="454" 
 />
    <glyph glyph-name="exclam" unicode="!" horiz-adv-x="419" 
d="M223 348h-28l-74 875q-10 115 88 115q98 -2 88 -115zM304 9q-32 -29 -75 -29t-73 29q-31 28 -31 71q0 44 31 72q30 28 73 28t75 -28q32 -29 32 -72q0 -42 -32 -71z" />
    <glyph glyph-name="quotedbl" unicode="&#x22;" horiz-adv-x="546" 
d="M158 795h-19l-55 393q-6 40 13.5 71t47.5 31q38 0 60 -30t16 -72zM399 795h-18l-55 393q-6 41 12.5 71.5t48.5 30.5q38 0 60 -30t16 -72z" />
    <glyph glyph-name="numbersign" unicode="#" horiz-adv-x="1163" 
d="M1079 954l-20 -84h-205l-96 -424h207l-23 -84h-205l-96 -423h-88l98 423h-276l-96 -423h-89l99 423h-205l22 84h201l99 424h-207l22 84h203l98 422h86l-96 -422h274l99 422h86l-97 -422h205zM395 446h275l98 424h-276z" />
    <glyph glyph-name="dollar" unicode="$" horiz-adv-x="1028" 
d="M934 362q0 -136 -114 -225q-114 -87 -277 -98v-166h-51v164q-181 5 -371 117l-17 235h41q35 -129 126 -213q92 -85 221 -86v526l-27 13q-68 32 -122 64q-48 29 -102 72q-110 89 -110 220q0 115 89 193q88 76 272 84v165h51v-165q93 -5 152 -23q25 -7 57 -21
q27 -12 83 -45q7 -4 14.5 -9t11 -7.5t5.5 -3.5l6 -240h-36q-33 119 -106 201t-187 94v-454q13 -5 30 -15q20 -9 38.5 -18t35 -17t21.5 -10q25 -12 90 -53q58 -37 92 -74q35 -40 59.5 -94.5t24.5 -110.5zM276 1022q0 -72 51.5 -128t164.5 -114v430q-102 -2 -159 -54t-57 -134
zM543 592v-500q101 12 165 78q64 65 64 158q0 87 -55 147t-174 117z" />
    <glyph glyph-name="percent" unicode="%" horiz-adv-x="1374" 
d="M1092 1290h114l-915 -1290h-98l821 1145q-87 -48 -188.5 -45t-200.5 57q12 -43 12 -96q0 -156 -95 -281q-96 -125 -231 -125q-95 0 -150 67q-57 66 -57 175q0 152 101 274q100 121 235 121q60 0 103 -26v2q69 -38 108 -56q41 -21 102 -43q53 -21 100 -23q162 -11 239 144
zM348 711q94 0 166 112q72 111 72 240q0 86 -35 133t-96 47q-66 0 -117 -61q-50 -60 -73 -143t-23 -160q0 -168 106 -168zM1073 633q92 0 144.5 -62t52.5 -170q0 -155 -95 -280q-96 -125 -231 -125q-95 0 -150 67q-57 66 -57 175q0 152 101 274q100 121 235 121zM981 51
q94 0 166 112q72 111 72 240q0 86 -35 133.5t-97 47.5q-98 0 -155 -118q-58 -117 -58 -247q2 -168 107 -168z" />
    <glyph glyph-name="ampersand" unicode="&#x26;" horiz-adv-x="1470" 
d="M973 197l55 -66q43 -51 165 -28q124 23 214 94v-41q-71 -79 -174 -128q-105 -51 -189 -48q-41 0 -71 29q-21 18 -27 25q-18 21 -31 39q-23 27 -32 40q-172 -133 -398 -133q-145 0 -278 102t-133 266q0 242 305 385q-66 109 -66 205q0 141 97 228q96 87 229 87
q95 0 163 -48q66 -48 66 -148q0 -199 -309 -371l10 -12l332 -393q113 155 113 266q0 71 -180 69v54h542v-54q-205 10 -223 -81q-50 -196 -180 -338zM596 1198q-162 0 -162 -199q0 -147 105 -286q121 84 169 169q50 88 50 158q0 69 -44.5 113.5t-117.5 44.5zM551 39
q129 0 270 147l-342 410q-50 61 -67 90q-176 -113 -176 -305q0 -153 101 -248q100 -94 214 -94z" />
    <glyph glyph-name="quotesingle" unicode="'" horiz-adv-x="305" 
d="M158 795h-19l-55 393q-6 40 13.5 71t47.5 31q38 0 60 -30t16 -72z" />
    <glyph glyph-name="parenleft" unicode="(" horiz-adv-x="577" 
d="M524 -303l-12 -23q-408 330 -408 932t408 932l23 -12q-305 -303 -299 -920q6 -621 288 -909z" />
    <glyph glyph-name="parenright" unicode=")" horiz-adv-x="577" 
d="M66 -326l-13 23q283 289 289 909q6 615 -299 920l23 12q408 -330 408 -932t-408 -932z" />
    <glyph glyph-name="asterisk" unicode="*" horiz-adv-x="782" 
d="M377 1079l-45 109q-22 46 0 75q22 27 59 27q39 0 60 -28.5t4 -73.5l-45 -109q-6 -14 -16.5 -14t-16.5 14zM301 1014l-115 22q-53 6 -66 43t9 62q19 35 49 37t74 -39l65 -97q12 -12 6 -22t-22 -6zM596 1036l-117 -22q-14 -2 -20 8t4 20l72 97q22 30 46.5 36.5t42 -4
t31.5 -30.5q19 -25 6 -62t-65 -43zM125 834q-19 25 -6 62q13 36 67 42l115 23q14 2 20.5 -8.5t-4.5 -20.5l-69 -96q-41 -39 -71 -37t-52 35zM655 834q-22 -33 -52 -35t-68 37l-72 96q-10 10 -4 20.5t20 8.5l117 -23q52 -6 65 -42q13 -37 -6 -62zM451 710q-21 -26 -60 -26
t-60 26q-22 25 1 76l41 109q6 14 18 14t19 -14l39 -109q23 -51 2 -76z" />
    <glyph glyph-name="plus" unicode="+" horiz-adv-x="1048" 
d="M561 551h342v-72h-342v-346h-72v346h-344v72h344v342h72v-342z" />
    <glyph glyph-name="comma" unicode="," horiz-adv-x="446" 
d="M102 -291l-18 31q66 30 107.5 78.5t48.5 95.5q6 12 3.5 22t-4 15.5t-9 10.5t-12 7.5t-13.5 5.5t-12 5q-58 34 -60 98q0 44 30.5 73t74.5 29q52 0 88 -41t36 -106q0 -91 -66 -186q-68 -93 -194 -138z" />
    <glyph glyph-name="hyphen" unicode="-" horiz-adv-x="815" 
d="M690 494h-565v49h565v-49z" />
    <glyph glyph-name="period" unicode="." horiz-adv-x="419" 
d="M284 9q-32 -29 -75 -29t-74 29q-31 28 -31 71q0 44 31 72t74 28t75 -28q31 -28 31 -72q0 -43 -31 -71z" />
    <glyph glyph-name="slash" unicode="/" horiz-adv-x="774" 
d="M133 -170l-70 29l642 1671l69 -29z" />
    <glyph glyph-name="zero" unicode="0" horiz-adv-x="1112" 
d="M545 -18q-183 0 -322 128q-139 127 -139 334q0 215 146 346q145 130 337 130q183 0 323 -128q138 -128 138 -335q0 -215 -145 -345t-338 -130zM569 41q121 0 212 96q91 95 91 289q0 192 -97 313t-232 121q-121 0 -212 -96q-91 -95 -91 -288t97 -314t232 -121z" />
    <glyph glyph-name="one" unicode="1" horiz-adv-x="710" 
d="M422 760v-619q0 -38 24.5 -61.5t57.5 -29.5q50 -8 96 -13q14 -2 16 -2v-35h-522v35q129 13 162 37q33 22 33 69v619q0 38 -24.5 61.5t-57.5 29.5q-50 8 -96 13q-14 2 -17 2v35h522v-35q-130 -13 -161 -37q-33 -23 -33 -69z" />
    <glyph glyph-name="two" unicode="2" horiz-adv-x="921" 
d="M719 0h-621l-14 39q19 15 134 107q90 72 150 124q31 27 116 112q128 132 128 249q0 73 -49 126q-50 54 -151 54q-174 0 -269 -156l-37 21q46 115 148 181q100 63 223 63q132 0 214 -70q83 -71 83 -178q0 -86 -66 -187q-24 -36 -70.5 -83.5t-86.5 -80.5q-37 -31 -93 -72
q-55 -39 -85 -58q-29 -19 -78 -48q-48 -29 -53 -34h309q103 0 157 25q55 24 89 108h41l-76 -265h-39z" />
    <glyph glyph-name="three" unicode="3" horiz-adv-x="954" 
d="M358 -389q-94 0 -176 26q-98 33 -98 111q0 33 20.5 50.5t49.5 17.5t59.5 -22t53.5 -55q22 -33 59 -55t80 -22q101 0 211 93q108 93 108 237q0 129 -93 197q-92 67 -218 67q-86 0 -187 -39l-20 47l147 70q154 72 221 130q66 58 66 150q0 85 -51 135t-152 50
q-168 0 -288 -148l-31 27q147 242 395 242q132 0 205 -71q72 -70 67 -190q-6 -172 -225 -301q132 -11 221 -85q90 -76 90 -224q0 -186 -148 -312t-366 -126z" />
    <glyph glyph-name="four" unicode="4" horiz-adv-x="1038" 
d="M954 63l-20 -73h-174v-207q0 -29 13 -53q6 -10 36 -29q6 -4 50 -15q3 -1 28 -6q20 -4 26 -4v-34h-450v34q7 0 27 4q22 4 27 6q44 11 50 15q30 19 36 29q13 24 13 53v207h-530l-23 33l672 909h25v-869h194zM616 690l-464 -627h464v627z" />
    <glyph glyph-name="five" unicode="5" horiz-adv-x="1013" 
d="M346 760l-123 -318q224 55 377 1q152 -54 228 -159q75 -106 75 -233q0 -179 -148 -309q-149 -131 -366 -131q-109 0 -208 32q-97 33 -97 105q0 33 23 50.5t55 17.5q31 0 65.5 -22t61.5 -55q26 -32 68 -54.5t87 -22.5q103 0 194 91t91 229q0 118 -64 213q-64 96 -185 141
q-119 45 -292 -2l-41 39l191 528h348q60 0 100 2q28 1 60 15q32 12 51 40h33l-60 -198h-524z" />
    <glyph glyph-name="six" unicode="6" horiz-adv-x="1126" 
d="M580 -25q-223 0 -350 160t-126 391q1 306 226 535q225 228 504 244l26 -43q-104 -10 -206.5 -64.5t-189.5 -146.5q-88 -94 -140 -239q-54 -146 -54 -320q0 -203 83 -331t222 -128q132 0 214 109q83 109 83 266q0 172 -115 268t-356 49v41q259 102 450 -4
q191 -107 191 -336q0 -190 -130 -320q-131 -131 -332 -131z" />
    <glyph glyph-name="seven" unicode="7" 
d="M219 901h717l22 -31q-398 -631 -544 -1259h-150q168 535 567 1149h-473q-45 0 -75 -2q-23 -2 -56 -15q-59 -23 -110 -129h-33l98 322h33z" />
    <glyph glyph-name="eight" unicode="8" horiz-adv-x="1116" 
d="M731 698q119 -41 200 -129q81 -89 81 -215q0 -161 -127 -273q-127 -114 -330 -114q-202 0 -327 101q-124 100 -124 264q0 229 256 350q-174 100 -174 285q0 134 100 228q100 95 271 95q167 0 262 -88q96 -88 96 -213q0 -167 -184 -291zM561 1241q-119 0 -171 -69
q-52 -70 -52 -166q0 -70 40 -134q41 -66 124 -94l153 -53q131 102 131 254q0 143 -87 217q-54 45 -138 45zM575 20q139 0 210 75t71 206q0 122 -62 184q-62 59 -206 109l-135 47q-13 8 -23 8q-184 -102 -184 -309q0 -136 84 -228q83 -92 245 -92z" />
    <glyph glyph-name="nine" unicode="9" horiz-adv-x="1126" 
d="M547 920q223 0 350 -160q127 -159 125 -391q-1 -307 -225 -535q-225 -228 -504 -244l-27 43q104 10 206.5 64.5t190.5 146.5q88 94 140 239q53 147 53 320q0 203 -83 331t-222 128q-131 0 -214 -108q-83 -110 -83 -267q0 -172 116 -268q115 -96 355 -49v-41
q-258 -102 -449 5q-192 106 -192 335q0 190 131 321q130 130 332 130z" />
    <glyph glyph-name="colon" unicode=":" horiz-adv-x="421" 
d="M284 709q-32 -29 -75 -29t-74 29q-31 28 -31 71q0 44 31 72q31 29 74.5 29t74.5 -29q31 -28 31 -72q0 -43 -31 -71zM286 9q-32 -29 -75 -29t-74 29q-31 28 -31 71q0 44 31 72t74 28t75 -28q31 -28 31 -72q0 -43 -31 -71z" />
    <glyph glyph-name="semicolon" unicode=";" horiz-adv-x="462" 
d="M347 707q-32 -29 -75 -29t-73 29q-31 28 -31 71q0 44 31 72q30 29 73 29t75 -29t32 -72q0 -42 -32 -71zM102 -291l-18 31q66 30 107.5 78.5t48.5 95.5q6 12 3.5 22t-4 15.5t-9 10.5t-12 7.5t-13.5 5.5t-12 5q-58 34 -60 98q0 44 30.5 73t74.5 29q52 0 88 -41t36 -106
q0 -91 -66 -186q-68 -93 -194 -138z" />
    <glyph glyph-name="less" unicode="&#x3c;" horiz-adv-x="1036" 
d="M891 205v-78q-402 220 -746 350v72q342 130 746 350v-78q-184 -109 -668 -307q29 -11 115 -47q138 -59 145 -62q9 -4 31.5 -14.5t47.5 -21.5l50 -22q152 -67 279 -142z" />
    <glyph glyph-name="equal" unicode="=" horiz-adv-x="1048" 
d="M903 664h-758v71h758v-71zM903 295h-758v72h758v-72z" />
    <glyph glyph-name="greater" unicode="&#x3e;" horiz-adv-x="1036" 
d="M145 127v78q121 72 279 142l50 22t47.5 21.5t31.5 14.5q23 10 146 62q83 35 114 47q-488 201 -668 307v78q402 -220 746 -350v-72q-344 -130 -746 -350z" />
    <glyph glyph-name="question" unicode="?" horiz-adv-x="882" 
d="M426 381h-33q-27 81 -14 133q12 53 54 119q42 64 86 119q45 55 79 131q35 79 35 155q0 106 -66 176q-67 70 -221 70q-66 0 -92 -65q-38 -92 -63 -128q-25 -34 -62 -34q-66 0 -66 67q0 98 135 161q133 63 281 63q161 0 241 -86q79 -85 79 -224q0 -89 -37.5 -166
t-98.5 -132q-38 -35 -112 -101q-132 -117 -125 -258zM491 4q-31 -29 -74.5 -29t-74.5 29q-31 28 -31 72t31 72t74 28t75 -28q31 -28 31 -72t-31 -72z" />
    <glyph glyph-name="at" unicode="@" horiz-adv-x="1646" 
d="M1208 211q-62 0 -121 25q-79 31 -79 133q-102 -152 -269 -152q-116 0 -184 74t-68 211q0 185 118 304q119 120 265 120q166 0 211 -170l29 143h102l-94 -483q-12 -73 21 -117.5t94 -44.5q79 0 158 102q79 100 79 275q0 265 -168 435q-169 169 -434 169q-279 0 -451 -193
q-173 -194 -173 -469q0 -282 166 -470q165 -189 430 -189q204 0 383 92l26 -31q-187 -115 -411 -114q-307 0 -520 207q-214 205 -214 505q0 301 218 514t536 213q291 0 488 -191q196 -190 196 -478q0 -199 -95 -309q-96 -111 -239 -111zM788 276q84 0 157 85t97 202l7 25
q6 39 6 76q0 98 -45 158.5t-125 60.5q-111 0 -184 -115q-74 -116 -74 -262q0 -110 45 -170t116 -60z" />
    <glyph glyph-name="A" unicode="A" horiz-adv-x="1431" 
d="M745 1305l498 -1151q29 -68 56 -85q24 -17 110 -34v-35h-473v35q64 13 72 15q44 13 52 23q31 33 3 81l-117 270h-559l-113 -274q-18 -40 -6 -60q1 -1 3 -5t3 -5.5t3.5 -4.5t4 -4t5 -3.5t7 -4t8.5 -3.5q28 -11 62 -18q9 -2 20.5 -4.5t14.5 -2.5v-35h-376v35q104 20 124 35
q29 20 50 77l479 1158h69zM659 1092l-249 -609h512z" />
    <glyph glyph-name="B" unicode="B" horiz-adv-x="1255" 
d="M815 676q346 -70 346 -328q0 -171 -140.5 -259.5t-412.5 -88.5h-545v35q103 19 132 41q39 33 38 121v897q0 53 -7.5 79t-34.5 43q-29 16 -42 21q-7 2 -69 14q-4 1 -9.5 2.5t-7.5 1.5v35h545q223 0 344 -78.5t121 -224.5q0 -231 -258 -311zM938 965q0 115 -86 189
q-85 73 -291 73q-101 -1 -136 -24q-34 -22 -34 -77v-424h207q340 1 340 263zM625 63q199 0 293 75t94 194q0 127 -110 219q-112 92 -343 92h-168v-424q0 -80 50 -118t184 -38z" />
    <glyph glyph-name="C" unicode="C" horiz-adv-x="1335" 
d="M784 -25q-298 0 -488 189q-192 188 -192 491q0 291 190 480q190 188 509 188q238 0 395 -94q7 -165 14 -277h-61q-34 153 -136 230.5t-253 77.5q-213 0 -344 -143q-131 -145 -131 -415q0 -284 167 -462q166 -177 404 -177q91 0 188 27q96 26 152 86l33 -35
q-67 -73 -184 -119q-120 -47 -263 -47z" />
    <glyph glyph-name="D" unicode="D" horiz-adv-x="1366" 
d="M63 1290h469q310 0 511 -145q104 -76 161.5 -202.5t57.5 -289.5q0 -224 -101 -375q-102 -151 -261 -214q-158 -64 -368 -64h-469v35q103 19 132 41q39 33 38 121v897q0 53 -7.5 79t-34.5 43q-29 16 -42 21q-7 2 -69 14q-4 1 -9.5 2.5t-7.5 1.5v35zM590 66q260 0 377 144
q116 145 116 423q0 283 -131 438q-130 154 -440 154h-121v-963q0 -109 42 -152q42 -44 157 -44z" />
    <glyph glyph-name="E" unicode="E" horiz-adv-x="1179" 
d="M1061 297h45l-84 -297h-959v35q103 19 132 41q39 33 38 121v897q0 53 -7.5 79t-34.5 43q-29 16 -42 21q-7 2 -69 14q-4 1 -9.5 2.5t-7.5 1.5v35h955l18 -280h-45q-13 116 -55 167q-41 50 -145 50h-207q-120 0 -157 -26q-36 -27 -36 -130v-389h182q176 0 226 35
q48 34 59 137h33v-405h-33q-11 103 -59 137q-50 35 -226 35h-182v-402q0 -102 36 -129t157 -27h164q122 0 189 51q67 49 124 183z" />
    <glyph glyph-name="F" unicode="F" horiz-adv-x="1087" 
d="M63 1290h932l19 -280h-45q-13 116 -55 167q-42 50 -146 50h-184q-120 0 -157 -26q-36 -27 -36 -130v-389h137q176 0 226 35q48 34 59 137h33v-405h-33q-11 103 -59 137q-50 35 -226 35h-137v-424q0 -52 8.5 -79t35.5 -43q28 -18 41 -22q7 -2 69 -14l16 -4v-35h-498v35
q103 19 132 41q39 33 38 121v897q0 53 -7.5 79t-34.5 43q-29 16 -42 21q-7 2 -69 14q-4 1 -9.5 2.5t-7.5 1.5v35z" />
    <glyph glyph-name="G" unicode="G" horiz-adv-x="1476" 
d="M856 -25q-354 0 -553 190q-199 189 -199 490q0 291 190 480q190 188 511 188q248 0 405 -94q7 -185 15 -277h-62q-35 153 -135.5 230.5t-251.5 77.5q-219 0 -354 -151t-135 -402q0 -293 166 -480q165 -188 454 -188q106 0 142 45t36 162v114q0 137 -44 179
q-43 40 -181 51v43h522v-43q-85 -11 -116 -40q-33 -30 -33 -108v-159q0 -34 4 -69.5t8.5 -56.5t10.5 -44t6 -25q-39 -45 -154 -79q-114 -34 -252 -34z" />
    <glyph glyph-name="H" unicode="H" horiz-adv-x="1404" 
d="M1341 1290v-35q-103 -19 -131 -41q-39 -33 -39 -120v-897q0 -52 8.5 -79t35.5 -43q27 -17 42 -22q8 -3 68 -14l16 -4v-35h-497v35q103 19 131 41q39 33 39 121v421h-623v-421q0 -52 8.5 -79t35.5 -43q28 -18 41 -22q7 -2 69 -14l16 -4v-35h-498v35q103 19 132 41
q39 33 38 121v897q0 53 -7.5 79t-34.5 43q-29 16 -42 21q-7 2 -69 14q-4 1 -9.5 2.5t-7.5 1.5v35h498v-35q-103 -19 -131 -41q-39 -33 -39 -120v-416h623v416q0 52 -8 78.5t-35 43.5q-29 16 -42 21q-7 2 -69 14l-16 4v35h497z" />
    <glyph glyph-name="I" unicode="I" horiz-adv-x="624" 
d="M561 0h-498v35q103 19 132 41q39 33 38 121v897q0 53 -7.5 79t-34.5 43q-29 16 -42 21q-7 2 -69 14q-4 1 -9.5 2.5t-7.5 1.5v35h498v-35q-103 -19 -131 -41q-39 -33 -39 -120v-897q0 -52 8.5 -79t35.5 -43q28 -18 41 -22q7 -2 69 -14l16 -4v-35z" />
    <glyph glyph-name="J" unicode="J" horiz-adv-x="626" 
d="M20 -379q-16 25 0 43q139 49 178 115q38 68 38 233v1082q0 53 -10 81t-40 44q-31 16 -50 21q-20 4 -81 15v35h508v-35q-103 -19 -131 -41q-39 -33 -39 -120v-1102q0 -172 -102 -256q-103 -83 -271 -115z" />
    <glyph glyph-name="K" unicode="K" horiz-adv-x="1353" 
d="M662 776l483 -665q20 -28 35 -43q11 -12 47 -23q33 -10 94 -10v-35h-328q0 57 -57 137l-379 537l-166 -162v-315q0 -52 8.5 -79t35.5 -43q28 -18 41 -22q7 -2 69 -14l16 -4v-35h-498v35q103 19 132 41q39 33 38 121v897q0 53 -7.5 79t-34.5 43q-29 16 -42 21q-7 2 -69 14
q-4 1 -9.5 2.5t-7.5 1.5v35h498v-35q-103 -19 -131 -41q-39 -33 -39 -120v-480l537 527q48 45 23.5 79.5t-107.5 34.5v35h434v-35q-57 0 -107.5 -17t-73.5 -37q-24 -20 -65 -60z" />
    <glyph glyph-name="L" unicode="L" horiz-adv-x="1161" 
d="M1026 0h-963v35q103 19 132 41q39 33 38 121v897q0 53 -7.5 79t-34.5 43q-29 16 -42 21q-7 2 -69 14q-4 1 -9.5 2.5t-7.5 1.5v35h547v-35q-3 0 -15.5 -2.5t-23.5 -4.5t-24.5 -4.5t-15.5 -2.5q-48 -8 -70 -22q-2 -1 -9.5 -6t-12 -8.5t-11.5 -9t-11.5 -11t-6.5 -10.5
q-19 -42 -19 -80v-877q0 -102 36 -129t157 -27h170q120 0 187 55q68 54 126 193h43z" />
    <glyph glyph-name="M" unicode="M" horiz-adv-x="1726" 
d="M1452 1094l43 -897q2 -54 12.5 -81.5t37.5 -43.5q32 -18 46 -22q17 -4 72 -15v-35h-498v35q105 19 133 41q43 33 39 121l-39 929l-442 -1126h-61l-451 1042l-39 -845q-2 -50 6.5 -78t37.5 -44q29 -17 49 -22q3 -1 73 -14q2 0 21 -4v-35h-429v35q104 20 130 41
q39 33 43 121l43 897q2 49 -6.5 77t-33.5 44q-24 16 -45 22q-22 7 -67 14q-2 0 -21 4v35h306q4 -26 63 -157l395 -914l353 914q50 133 55 157h342v-35q-105 -19 -133 -41q-39 -35 -35 -120z" />
    <glyph glyph-name="N" unicode="N" horiz-adv-x="1437" 
d="M944 1255v35h430v-35q-83 18 -128.5 -22.5t-45.5 -138.5v-1094h-67l-820 1090v-893q0 -51 9.5 -78.5t38.5 -43.5q28 -17 45 -22q6 -2 73 -14q5 -1 12 -3l7 -1v-35h-435v35q104 19 134 41q41 33 41 121v897q0 50 -9 77.5t-35 44.5q-29 17 -44 21q-5 1 -14 3t-25 5t-29 6
q-5 1 -12 3l-7 1v35h293l768 -1009v813q0 202 -180 161z" />
    <glyph glyph-name="O" unicode="O" horiz-adv-x="1503" 
d="M748 -25q-280 0 -462 194t-182 476q0 281 184 480q183 198 468 198q281 0 463 -194q182 -196 182 -474q0 -286 -184 -482q-185 -198 -469 -198zM782 39q184 0 315 152q130 151 130 403q0 286 -150 476q-151 190 -356 190q-181 0 -312 -152q-130 -151 -130 -401
q0 -288 149 -478q148 -190 354 -190z" />
    <glyph glyph-name="P" unicode="P" horiz-adv-x="1200" 
d="M561 0h-498v35q103 19 132 41q39 33 38 121v897q0 53 -7.5 79t-34.5 43q-29 16 -42 21q-7 2 -69 14q-4 1 -9.5 2.5t-7.5 1.5v35h457q596 0 596 -379q0 -199 -165 -302q-164 -103 -468 -103q-26 0 -24 32q0 31 24 31q459 0 459 330q0 157 -101.5 242.5t-299.5 85.5
q-85 0 -117.5 -22t-32.5 -72v-936q0 -52 8.5 -79t35.5 -43q28 -18 41 -22q7 -2 69 -14l16 -4v-35z" />
    <glyph glyph-name="Q" unicode="Q" horiz-adv-x="1449" 
d="M1573 -182q17 -2 23 -7.5t6 -23.5q-151 -145 -299 -145q-106 0 -242 82l-352 215q-52 32 -172 69h2q-199 63 -317 238q-118 173 -118 399q0 281 184 480q183 198 468 198q281 0 463 -194q182 -196 182 -474q0 -247 -142 -432q-143 -186 -374 -233q44 -17 94 -49l162 -109
q121 -84 237 -84q101 0 195 70zM279 707q0 -289 150 -478q148 -190 353 -190q184 0 315 152q130 151 130 403q0 286 -150 476q-151 190 -356 190q-182 0 -312 -151t-130 -402z" />
    <glyph glyph-name="R" unicode="R" horiz-adv-x="1310" 
d="M858 444l135 -206q51 -76 84 -117q34 -41 87 -71q52 -30 104 -13v-37q-56 -33 -109 -33q-101 0 -167 50q-70 51 -146 167l-168 252q-50 75 -113 107q-64 31 -174 35v-381q0 -52 8.5 -79t35.5 -43q28 -18 41 -22q7 -2 69 -14l16 -4v-35h-498v35q103 19 132 41
q39 33 38 121v897q0 53 -7.5 79t-34.5 43q-29 16 -42 21q-7 2 -69 14q-4 1 -9.5 2.5t-7.5 1.5v35h476q551 0 551 -354q0 -295 -394 -346q84 -22 162 -146zM557 1227q-100 0 -133 -21q-33 -22 -33 -73v-494h164q194 0 282.5 71t88.5 214q0 303 -369 303z" />
    <glyph glyph-name="S" unicode="S" horiz-adv-x="1028" 
d="M504 -25q-182 0 -383 129l-17 258h41q34 -142 130 -236q95 -93 227 -93q115 0 193 75q77 74 77 187q0 121 -91 199q-51 43 -92 67q-37 22 -124 66q-75 39 -122 69q-55 35 -103 79q-109 97 -109 243q0 131 96 218q95 87 287 87q83 0 167 -21q30 -8 63 -24q42 -22 47 -25
q10 -8 42 -28q8 -6 15.5 -11l12 -8t5.5 -4l6 -262h-36q-34 139 -118 234q-83 92 -214 92q-110 0 -168 -58q-60 -58 -60 -149q0 -93 72 -164t225 -147q79 -40 120 -66t108 -78q133 -105 133 -270q0 -160 -128 -259q-127 -100 -302 -100z" />
    <glyph glyph-name="T" unicode="T" horiz-adv-x="1243" 
d="M1069 1290l94 21l17 -353h-33q-22 149 -82 215q-58 64 -215 64h-152v-1040q0 -62 31 -110q11 -16 46 -26q36 -12 55 -15q31 -5 79 -11v-35h-579v35q41 5 80 11q18 3 54 15q35 10 46 26q31 48 31 110v1040h-142q-160 0 -220 -64q-61 -65 -83 -215h-33l17 353l94 -21h895z
" />
    <glyph glyph-name="U" unicode="U" horiz-adv-x="1445" 
d="M717 -25q-149 0 -261 59q-67 35 -118 92q-52 59 -83.5 159.5t-31.5 226.5v582q0 53 -7.5 79t-34.5 43q-29 16 -42 21q-7 2 -69 14q-4 1 -9.5 2.5t-7.5 1.5v35h500v-35q-103 -19 -131 -41q-39 -33 -39 -120v-605q0 -430 367 -430q140 0 249 74q62 42 96.5 125.5
t34.5 200.5v635q0 51 -8.5 78t-34.5 44q-29 17 -44 21q-5 1 -14 3t-25 5t-29 6q-5 1 -12 3l-7 1v35h439v-35q-114 -19 -142 -41q-43 -33 -43 -120v-594q0 -144 -42 -252t-117 -165q-141 -108 -334 -108z" />
    <glyph glyph-name="V" unicode="V" horiz-adv-x="1431" 
d="M1032 1255v35h377v-35q-102 -19 -125 -34q-30 -20 -49 -78l-479 -1157h-70l-498 1151q-29 68 -55 85q-27 16 -110 33v35h473v-35q-66 -13 -72 -15q-47 -14 -52 -22q-32 -37 -3 -81l403 -938l385 942q18 39 6 59q-1 2 -3.5 6t-3.5 6t-3.5 5t-5.5 5t-7 4.5t-10 4.5
q-35 11 -62 17q-9 2 -21 4.5t-15 2.5z" />
    <glyph glyph-name="W" unicode="W" horiz-adv-x="2039" 
d="M684 -16h-59l-432 1142q-26 66 -52 84q-29 17 -118 33v45h458v-45q-138 -33 -146 -41q-7 -7 23 -76l340 -913l254 733q35 97 -4 186t-143 113v45h276q0 -80 76 -284l291 -791l291 823q24 75 19 115t-43 59q-36 17 -138 33v45h440v-45q-69 -13 -87 -19q-21 -8 -43 -28
q-24 -24 -40 -70l-413 -1142h-60l-354 948z" />
    <glyph glyph-name="X" unicode="X" horiz-adv-x="1441" 
d="M793 690l352 -526q50 -73 93 -92q42 -20 161 -37v-35h-537v35q102 18 117 37q20 26 -23 90l-282 420l-287 -414q-42 -55 -37 -76q1 -4 1 -9.5t1.5 -9t7.5 -6.5q19 -13 33 -16q6 -2 22 -5q47 -8 58 -11v-35h-430v35q136 18 168 37q45 25 94 94l332 471l-320 477
q-57 82 -98 103t-151 38v35h520v-35q-67 -12 -89 -21q-24 -9 -26 -38q-2 -31 35 -82l248 -369l260 373q38 54 36 91q-1 12 -26 22q-23 9 -39 13q-21 5 -59 11v35h418v-35q-112 -17 -154 -37q-42 -22 -98 -100z" />
    <glyph glyph-name="Y" unicode="Y" horiz-adv-x="1318" 
d="M893 1255v35h393v-35q-82 -17 -108 -33q-27 -18 -72 -94l-361 -581v-340q0 -55 10.5 -82.5t41.5 -42.5q31 -16 53 -21q16 -5 86 -16v-45h-539v45q120 19 150 43q41 32 41 119v323l-377 598q-49 76 -73 94q-26 16 -105 33v35h469v-35q-82 -18 -113 -43t2 -84l320 -518
l313 518q21 37 23.5 56.5t-17.5 34.5q-24 13 -39 17q-28 7 -65 13q-22 5 -33 6z" />
    <glyph glyph-name="Z" unicode="Z" horiz-adv-x="1183" 
d="M1081 0h-995l-23 31l814 1216l-455 -8q-146 -1 -205 -63q-60 -63 -70 -207h-41v334l111 -13h895l-831 -1247l510 8q140 1 199 66q57 63 87 209h43q-39 -208 -39 -326z" />
    <glyph glyph-name="bracketleft" unicode="[" horiz-adv-x="538" 
d="M475 -309v-31l-330 10v1874l330 10v-30l-196 -25v-1784z" />
    <glyph glyph-name="backslash" unicode="\" horiz-adv-x="774" 
d="M70 1530l641 -1671l-70 -29l-641 1671z" />
    <glyph glyph-name="bracketright" unicode="]" horiz-adv-x="538" 
d="M393 -330l-330 -10v31l197 24v1784l-197 25v30l330 -10v-1874z" />
    <glyph glyph-name="asciicircum" unicode="^" horiz-adv-x="921" 
d="M461 1174l-330 -418l-27 18l357 549l358 -547l-26 -20z" />
    <glyph glyph-name="underscore" unicode="_" horiz-adv-x="1245" 
d="M1137 -96h-1033l5 55h1032z" />
    <glyph glyph-name="grave" unicode="`" horiz-adv-x="323" 
d="M299 1081l-29 -24q-8 11 -33 39l-20 22.5t-16 17.5q-6 7 -33 35t-34 35q-56 58 -101 88q11 24 53 55q41 29 72 29q70 -98 141 -297z" />
    <glyph glyph-name="a" unicode="a" 
d="M815 610v-430q0 -49 45 -58t109 28v-39q-35 -64 -135 -125q-66 0 -109 51q-43 50 -43 119q-188 -170 -373 -170q-110 0 -172.5 59.5t-62.5 157.5q0 117 92 176q93 59 285 113q128 33 168 50q47 20 63 54v27q0 129 -60 178q-61 49 -206 49q-71 0 -97 -62
q-46 -101 -65 -128q-22 -33 -59 -33q-68 0 -68 67q0 94 144 160q143 66 294 66q137 0 194 -74q56 -74 56 -236zM397 88q84 0 164 44q81 44 121 101v267l-229 -68q-132 -38 -181 -81q-51 -43 -51 -113q0 -80 51 -115q52 -35 125 -35z" />
    <glyph glyph-name="b" unicode="b" horiz-adv-x="1085" 
d="M518 -18q-155 0 -255 85q-101 86 -101 234v829q0 106 -150 130v30q132 28 242 117l41 -39v-645q51 84 146 141q95 56 204 56q150 0 253 -118t103 -317q0 -224 -139 -363q-140 -140 -344 -140zM512 41q144 0 250 92q104 92 104 283q0 177 -89 283q-89 104 -226 104
q-88 0 -155 -43q-68 -44 -101 -105v-379q0 -110 53.5 -172.5t163.5 -62.5z" />
    <glyph glyph-name="c" unicode="c" horiz-adv-x="972" 
d="M537 -18q-191 0 -321 126q-132 124 -132 332q0 213 134 347q133 133 335 133q134 0 226 -58q93 -58 93 -141q0 -40 -24 -62t-57 -22q-83 0 -117 133q-28 96 -135 96q-115 0 -212 -93q-98 -93 -98 -271q0 -180 107 -296t270 -116q174 0 258 133l29 -14q-38 -110 -133 -168
q-97 -59 -223 -59z" />
    <glyph glyph-name="d" unicode="d" horiz-adv-x="1112" 
d="M913 1368v-1198q0 -60 26 -91q26 -30 110 -44v-35h-258l16 186h-23q-129 -206 -333 -204q-156 0 -261 118q-106 116 -106 312q0 218 146 364q146 144 343 144q124 0 207 -62v272q0 60 -33.5 89.5t-119.5 40.5v30q148 32 245 117zM535 94q100 0 162 62q61 60 83 143v399
q-11 66 -68 115q-58 49 -159 49q-137 0 -237 -96q-101 -96 -101 -277q0 -177 95 -286q94 -109 225 -109z" />
    <glyph glyph-name="e" unicode="e" horiz-adv-x="983" 
d="M864 219l29 -16q-36 -105 -129 -163t-219 -58q-194 0 -327 127q-134 128 -134 334t124 342q125 135 320 135q81 0 151.5 -27.5t113.5 -71.5q41 -43 69 -96q45 -89 15 -207h-654v-8q0 -179 106 -298q105 -120 279 -120t256 127zM506 862q-104 0 -183 -75q-80 -77 -96 -212
h521q14 101 -50 194t-192 93z" />
    <glyph glyph-name="f" unicode="f" horiz-adv-x="655" 
d="M610 1430q131 0 176 -87q-6 -89 -81 -118q-21 54 -65.5 88.5t-98.5 34.5q-78 0 -135 -70q-58 -70 -58 -244v-139l230 16q-9 -28 -11 -80h-219v-690q0 -36 25.5 -59.5t57.5 -29.5q52 -8 95 -13q6 -1 31 -4v-35h-504v35q3 1 29.5 5t29.5 5t14.5 3.5t21 5.5t13.5 5
q26 15 34 30q12 24 12 52v690h-154v39l154 31v6q0 257 108 390q106 133 295 133z" />
    <glyph glyph-name="g" unicode="g" horiz-adv-x="995" 
d="M911 879v-84l-176 22q76 -79 76 -188q0 -128 -97 -207q-99 -81 -245 -82h-109q-35 0 -58 -23.5t-23 -60.5q0 -88 90 -98l235 -23q180 -17 240 -46q61 -30 61 -118q0 -154 -145 -253q-145 -98 -354 -103q-176 -2 -263 65q-90 68 -90 173q0 38 62 97q60 57 141 103
q-123 45 -123 142q0 30 58 91q56 61 104 87q-83 37 -129.5 104t-46.5 152q0 129 99 210t247 81q72 0 141 -23q51 -18 305 -18zM367 413q41 -24 98 -24t98 24q65 37 88 140q17 76 0 153q-23 103 -88 142q-41 24 -98 24t-98 -24q-65 -39 -88 -142q-19 -77 0 -153
q23 -103 88 -140zM588 8l-205 19q-89 8 -136 -44q-48 -51 -48 -122q0 -69 55 -124q56 -56 197 -56q163 0 240 69q75 70 75 160q0 56 -38 73q-40 18 -140 25z" />
    <glyph glyph-name="h" unicode="h" horiz-adv-x="1142" 
d="M954 604v-463q0 -35 9 -53t35 -29q27 -13 38 -14q3 0 10 -1.5t19.5 -4t24.5 -4.5v-35h-408v35q93 13 115 35q25 25 24 71v465q0 94 -46.5 148.5t-139.5 54.5q-165 0 -289 -147v-521q0 -35 8.5 -53t33.5 -29q26 -12 39 -15q14 -3 58 -9v-35h-422v35q8 0 53 9q28 3 49 15
q26 14 35 30q13 22 13 52v989q0 106 -150 130v30q142 32 242 117l41 -39v-645h2q146 197 361 197q135 0 190 -82t55 -234z" />
    <glyph glyph-name="i" unicode="i" horiz-adv-x="530" 
d="M312 1220q-29 -26 -64 -26t-63.5 25.5t-26.5 60.5q0 37 26.5 63.5t63.5 26.5t63.5 -26.5t26.5 -63.5q0 -34 -26 -60zM467 0h-404v35q12 2 24.5 4.5l20 4t10.5 1.5q10 1 38 14q25 11 34 29.5t9 52.5v514q0 61 -26 90q-25 28 -110 39v31q72 12 120 38q45 25 106 81l43 -39
v-754q0 -35 8.5 -53t33.5 -29q26 -12 38 -15q13 -3 55 -9v-35z" />
    <glyph glyph-name="j" unicode="j" horiz-adv-x="452" 
d="M238 1194q-36 0 -63.5 25.5t-27.5 60.5q0 36 27.5 63t63.5 27q37 0 64.5 -26.5t27.5 -63.5q0 -35 -27.5 -60.5t-64.5 -25.5zM8 -379q-8 8 -8 22.5t8 20.5q94 34 135 96t41 201v694q0 62 -25 90t-110 39v31q58 11 88 25q29 12 72 46q37 29 65 48l43 -39v-930
q0 -303 -309 -344z" />
    <glyph glyph-name="k" unicode="k" horiz-adv-x="1050" 
d="M553 575l336 -466q26 -36 57 -50q31 -15 94 -22v-37h-266q0 36 -37 98l-272 391l-119 -116v-232q0 -31 14 -52q10 -16 34 -30q22 -12 50 -15q2 0 15 -2.5t24.5 -4.5t12.5 -2v-35h-433v35q8 0 53 9q28 3 49 15q26 14 35 30q13 22 13 52v989q0 106 -150 130v30
q142 32 242 117l41 -39v-903l297 289q47 45 29 73.5t-97 36.5v37h388v-37q-135 -12 -215 -98z" />
    <glyph glyph-name="l" unicode="l" horiz-adv-x="559" 
d="M496 0h-433v35q8 0 53 9q28 3 49 15q26 14 35 30q13 22 13 52v989q0 106 -150 130v30q142 32 242 117l41 -39v-1227q0 -31 14 -52q10 -16 34 -30q22 -12 50 -15q2 0 15 -2.5t24.5 -4.5t12.5 -2v-35z" />
    <glyph glyph-name="m" unicode="m" horiz-adv-x="1622" 
d="M461 0h-408v35q39 5 59 9q15 3 39 15q22 11 29.5 29t7.5 53v535q0 62 -25 87q-26 26 -110 21v31q120 18 184 63q16 11 74 56l41 -39l-45 -172h17q64 86 152 143q86 54 171 54q86 0 142.5 -53.5t72.5 -143.5h23q125 197 307 197q119 0 180 -94q60 -94 60 -222v-463
q0 -35 7.5 -53t30.5 -29q22 -12 39 -15q15 -3 60 -9v-35h-414v35q49 6 65 9q17 3 41 15q22 11 29.5 29t7.5 53v463q0 93 -44 149t-128 56q-137 0 -249 -154v-514q0 -35 7.5 -53t30.5 -29q22 -12 40 -15t61 -9v-35h-414v35q45 6 63 9q17 3 41 15q22 11 29.5 29t7.5 53v463
q0 88 -45 147q-45 58 -123 58q-143 0 -253 -152v-516q0 -35 8.5 -53t33.5 -29q26 -12 39 -15q14 -3 58 -9v-35z" />
    <glyph glyph-name="n" unicode="n" horiz-adv-x="1118" 
d="M461 0h-408v35q12 2 24.5 4.5l20 4t10.5 1.5q10 1 38 14q25 11 33.5 29.5t8.5 52.5v514q0 62 -25 90t-110 39v31q120 18 184 63q16 11 74 56l41 -39l-45 -172h17q155 197 360 197q131 0 188.5 -79t57.5 -237v-463q0 -35 8.5 -53t34.5 -29q27 -13 38 -14q3 0 10 -1.5
t19.5 -4t24.5 -4.5v-35h-408v35q93 13 115 35q25 25 25 71v461q0 96 -47 151.5t-142 55.5q-161 0 -286 -152v-516q0 -35 8.5 -53t33.5 -29q26 -12 39 -15q14 -3 58 -9v-35z" />
    <glyph glyph-name="o" unicode="o" horiz-adv-x="1112" 
d="M545 -18q-183 0 -322 128q-139 127 -139 334q0 215 146 346q145 130 337 130q183 0 323 -128q138 -128 138 -335q0 -215 -145 -345t-338 -130zM569 41q121 0 212 96q91 95 91 289q0 192 -97 313t-232 121q-121 0 -212 -96q-91 -95 -91 -288t97 -314t232 -121z" />
    <glyph glyph-name="p" unicode="p" horiz-adv-x="1095" 
d="M670 920q145 0 250 -119q104 -119 104 -316q0 -224 -136 -363q-137 -140 -351 -140q-120 0 -205 53v-246q0 -66 34 -84q34 -19 130 -29v-34h-443v34q47 6 66 9q18 5 42 15q22 11 30 31.5t8 57.5v866q0 62 -28 90q-29 29 -118 39v31q100 16 151 42q48 25 105 77l41 -39
l-80 -231h39q50 103 144 179q95 77 217 77zM559 41q128 0 229 95q99 94 99 296q0 164 -75 268q-75 103 -204 103q-128 0 -202 -89t-74 -159v-233q0 -115 53 -198t174 -83z" />
    <glyph glyph-name="q" unicode="q" horiz-adv-x="1083" 
d="M897 901v-1118q0 -35 7.5 -53.5t29.5 -29.5q24 -11 39 -14q6 -1 25.5 -4t33.5 -6v-34h-444v34q111 11 143 26q33 16 33 81v375q-123 -176 -313 -176q-156 0 -261 118q-106 116 -106 312q0 224 153 366q151 142 384 142q124 0 206 -46zM535 90q160 0 229 162v450
q0 63 -64 111q-65 47 -157 47q-133 0 -230 -96q-98 -96 -98 -277q0 -177 95 -287t225 -110z" />
    <glyph glyph-name="r" unicode="r" horiz-adv-x="776" 
d="M483 0h-430v35q47 6 66 9q18 3 42 15q22 11 30 29.5t8 52.5v516q0 62 -28 90q-30 30 -118 37v31q106 17 152 41q47 24 104 78l41 -39l-69 -244h41q73 140 145 212q71 71 170 71q48 0 86 -16v-150q-84 23 -129 23q-120 0 -190 -79q-72 -80 -72 -208v-363q0 -40 18.5 -63.5
t45.5 -29.5q39 -7 87 -13v-35z" />
    <glyph glyph-name="s" unicode="s" horiz-adv-x="813" 
d="M377 -18q-97 0 -178 29q-85 29 -111 52l-4 185h47q62 -209 264 -209q92 0 145.5 42.5t53.5 121.5t-55 117q-30 21 -51 31q-13 6 -73 31q-58 22 -69 28q-114 46 -185 108q-71 60 -71 156q0 109 84 178q85 68 236 68q150 0 252 -78l-5 -183h-41q-56 203 -231 203
q-81 0 -126.5 -42t-45.5 -107q0 -69 49 -106q50 -37 156 -81q3 -1 18 -6.5t27 -10.5q9 -3 20.5 -7.5t19 -7.5l12.5 -5q80 -36 102 -51q62 -47 81 -76q31 -50 31 -112q0 -108 -96 -188q-97 -80 -256 -80z" />
    <glyph glyph-name="t" unicode="t" horiz-adv-x="647" 
d="M330 831v-610q0 -50 27 -77t71 -28q81 -1 166 31v-41q-74 -45 -258 -126q-51 0 -95 53t-44 117v681h-144v37q152 66 232 215h45v-194l250 31q-9 -28 -11 -89h-239z" />
    <glyph glyph-name="u" unicode="u" horiz-adv-x="1122" 
d="M438 -18q-260 0 -260 315v473q0 66 -56 82q-27 7 -69 14v35q147 -7 258 12v-610q0 -205 185 -205q165 0 305 115v557q0 66 -56 82q-27 7 -69 14v35q147 -7 258 12v-743q0 -60 26 -91t109 -44v-35h-260l12 158h-22q-182 -176 -361 -176z" />
    <glyph glyph-name="v" unicode="v" horiz-adv-x="1028" 
d="M684 866v35h324v-35q-70 -7 -93 -23t-49 -75l-323 -780h-56l-325 780q-27 61 -49 76q-25 15 -90 22v35h403v-35q-94 -13 -111 -35q-20 -23 -2 -63l246 -606l229 571q29 67 -11 104q-15 15 -58 23q-13 2 -35 6z" />
    <glyph glyph-name="w" unicode="w" horiz-adv-x="1595" 
d="M510 -12h-53l-293 790q-18 53 -44 68q-26 14 -97 20v35h405v-35q-95 -12 -111 -37q-12 -18 0 -51l215 -585l201 489q33 86 4 139q-9 23 -29 30.5t-73 14.5v35h258q0 -74 37 -158l211 -553l207 508q44 119 -30 148q-42 16 -108 20v35h363v-35q-69 -6 -94 -20
q-24 -14 -47 -68l-310 -790h-51l-274 700z" />
    <glyph glyph-name="x" unicode="x" horiz-adv-x="1069" 
d="M596 489l252 -364q33 -48 69 -65q36 -18 109 -25v-35h-436v35q39 5 71 16q18 6 22 15q14 22 -11 59l-180 262l-197 -262q-19 -27 -21 -41t16 -26q22 -12 30 -13q2 0 18 -3t31 -5q8 -2 10 -2v-35h-336v35q76 7 109 23q29 13 69 67l236 311l-232 336q-34 50 -67 69
q-35 18 -101 25v35h418v-35q-55 -7 -80 -24q-28 -19 4 -70l162 -233l176 233q40 54 4 72q-21 11 -88 22v35h326v-35q-68 -8 -97 -23q-32 -18 -71 -71z" />
    <glyph glyph-name="y" unicode="y" horiz-adv-x="1017" 
d="M678 866v35h317v-35q-67 -7 -91 -22q-22 -15 -48 -72l-369 -868q-9 -21 -39 -88q-12 -27 -45 -81q-66 -106 -159 -106q-60 0 -125 47v105q254 -11 307 123l53 125l-321 745q-22 55 -45 70q-25 15 -90 22v35h395v-35q-94 -13 -115 -37q-14 -20 -2 -55l246 -588l248 586
q8 28 7 44.5t-20 25.5q-31 15 -88 22q-14 2 -16 2z" />
    <glyph glyph-name="z" unicode="z" horiz-adv-x="907" 
d="M805 0h-719l-23 31l586 829l-291 -6q-172 -1 -192 -211h-39v270l121 -12h590l-602 -860l299 6q128 1 184 54q56 51 84 157h41q-39 -136 -39 -258z" />
    <glyph glyph-name="braceleft" unicode="{" horiz-adv-x="567" 
d="M504 -303l-17 -27q-138 52 -184 154q-47 105 -47 264v318q0 50 -11 79.5t-40 49.5q-37 23 -49 28q-6 2 -16 6t-26 10.5t-30 12.5v26q47 17 72 29q15 6 49 29q29 19 40 49t11 80v317q0 159 47 264q46 102 184 154l17 -27q-43 -19 -66.5 -51t-33.5 -90q-12 -69 -13 -107
q-2 -62 -2 -143v-266q0 -125 -55 -174q-56 -50 -158 -72v-10q103 -23 158 -72t55 -174v-266q0 -80 2 -142q1 -38 13 -107q10 -58 34 -90.5t66 -51.5z" />
    <glyph glyph-name="bar" unicode="|" horiz-adv-x="389" 
d="M223 -358h-57v1681h57v-1681z" />
    <glyph glyph-name="braceright" unicode="}" horiz-adv-x="567" 
d="M80 -330l-17 27q43 19 67.5 51.5t33.5 90.5q11 62 12 107q2 62 2 142v266q0 125 56 175q54 48 157 71v10q-101 22 -157 72t-56 174v266q0 81 -2 143q-1 45 -12 107q-9 58 -33.5 90t-67.5 51l17 27q138 -52 184 -154q47 -105 47 -264v-317q0 -50 11 -80t41 -49
q32 -23 49 -29q36 -15 71 -29v-26q-35 -13 -71 -28q-15 -7 -49 -29q-30 -20 -41 -50t-11 -79v-318q0 -159 -47 -264q-46 -102 -184 -154z" />
    <glyph glyph-name="asciitilde" unicode="~" horiz-adv-x="909" 
d="M600 401q-75 0 -131 35q-46 29 -100 70q-46 35 -97 35q-60 0 -94.5 -26t-34.5 -62h-34q-19 78 40 136t160 58q55 0 102.5 -20.5t78.5 -49.5q73 -71 147 -71q60 0 93.5 25.5t33.5 64.5h37q19 -78 -40 -136q-62 -59 -161 -59z" />
    <glyph glyph-name="exclamdown" unicode="&#xa1;" horiz-adv-x="419" 
d="M156 903q30 29 73 29t75 -29t32 -72q0 -42 -32 -71q-32 -28 -75 -28t-73 28q-31 28 -31 71q0 44 31 72zM121 -311l74 874h28l74 -874q10 -115 -88 -115t-88 115z" />
    <glyph glyph-name="cent" unicode="&#xa2;" horiz-adv-x="976" 
d="M864 223l29 -14q-38 -110 -133 -168q-97 -59 -223 -59q-76 0 -148 22l-35 -129h-47l39 145q-119 51 -190 161q-72 110 -72 259q0 213 134 347q133 133 335 133q23 0 39 -2l39 145h47l-41 -150q103 -18 170 -71q65 -54 65 -121q0 -40 -24 -62t-57 -22q-83 0 -117 133
q-17 54 -56 76l-192 -711q84 -45 180 -45q174 0 258 133zM229 502q0 -223 156 -340l190 700q-17 4 -36 4q-115 0 -212 -93q-98 -93 -98 -271z" />
    <glyph glyph-name="sterling" unicode="&#xa3;" horiz-adv-x="1187" 
d="M936 252l119 98q51 -39 51 -110q0 -95 -65 -166q-65 -69 -140 -97q-75 -26 -135 -26q-79 0 -207 83t-211 83q-137 0 -225 -127l-39 39q242 239 242 497v86h-197l8 62h189v108q0 257 121 390q120 133 323 133q166 0 211 -91q-6 -90 -82 -118q-19 52 -85 90q-65 37 -146 37
q-88 0 -138 -68q-51 -67 -51 -246v-235h395l-8 -62h-387v-86q0 -246 -129 -333q19 8 46.5 9t51 -1t25.5 -2q107 0 235 -76q127 -76 189 -76q80 0 80 84q0 62 -41 121z" />
    <glyph glyph-name="currency" unicode="&#xa4;" horiz-adv-x="1226" 
d="M1034 467q0 -165 -110 -287l112 -110l-30 -31l-111 111q-121 -111 -285 -111q-162 0 -280 108l-109 -108l-31 31l109 108q-109 121 -109 289q0 161 107 285l-107 104l31 33l107 -107q117 111 282 111q163 0 287 -113l109 109l30 -33l-108 -106q106 -122 106 -283z
M346 740q-110 -113 -110 -273q0 -159 110 -274q109 -115 266 -115t269 115q112 113 112 274t-111 273q-112 112 -269 112q-158 0 -267 -112z" />
    <glyph glyph-name="yen" unicode="&#xa5;" horiz-adv-x="1318" 
d="M893 1255v35h393v-35q-82 -17 -108 -33q-27 -18 -72 -94l-334 -538h279v-58h-306v-120h306v-58h-306v-147q0 -55 10.5 -82.5t41.5 -42.5q31 -16 53 -21q16 -5 86 -16v-45h-539v45q120 19 150 43q41 32 41 119v147h-328v58h328v118l-2 2h-326v58h291l-340 538
q-49 76 -73 94q-26 16 -105 33v35h469v-35q-82 -18 -113 -43t2 -84l320 -518l313 518q21 37 23.5 56.5t-17.5 34.5q-24 13 -39 17q-28 7 -65 13q-22 5 -33 6z" />
    <glyph glyph-name="brokenbar" unicode="&#xa6;" horiz-adv-x="389" 
d="M223 645h-57v678h57v-678zM223 -358h-57v677h57v-677z" />
    <glyph glyph-name="section" unicode="&#xa7;" horiz-adv-x="993" 
d="M659 170q187 -112 189 -264q0 -115 -86 -195t-260 -80q-70 0 -156 19q-24 5 -58 20q-32 15 -42 21l-38 24q-28 19 -30 21l-6 201h33q33 -100 112 -176q77 -76 195 -76q97 0 152 53q53 53 53 121q0 74 -64 131q-65 57 -207 135q-2 0 -45 24q-31 16 -51 28q-1 1 -8 5
t-17.5 10.5t-22.5 13.5q-40 22 -52 36q-12 12 -43 37q-14 11 -25.5 24t-17 21t-15 25t-14.5 25q-31 46 -31 122q0 104 67 180t177 106q-186 116 -186 267q0 113 86 194q86 80 254 80q117 5 222 -53q26 -14 48 -29q34 -23 35 -24l6 -201h-33q-33 100 -108 178q-76 78 -180 78
q-96 0 -147 -54q-52 -55 -52 -122q0 -72 62 -131t202 -131q2 -1 44 -24q16 -9 33.5 -19t19.5 -11q24 -15 49 -29q36 -23 51 -36q12 -14 44 -39q11 -10 19.5 -18.5t17 -20t12 -16t13 -20.5t11.5 -20q28 -47 28 -122q0 -104 -65 -181t-175 -108zM252 547q0 -100 73 -167
q73 -68 220 -144l45 -25q75 16 118.5 69t43.5 130q0 98 -73 165q-76 68 -220 146l-39 20q-77 -16 -122.5 -66.5t-45.5 -127.5z" />
    <glyph glyph-name="dieresis" unicode="&#xa8;" horiz-adv-x="575" 
d="M102 1192q-35 0 -57 22.5t-22 57.5q0 36 22.5 59t56.5 23q37 0 59.5 -22.5t22.5 -59.5q0 -35 -22.5 -57.5t-59.5 -22.5zM471 1192q-35 0 -57.5 22.5t-22.5 57.5q0 37 22.5 59.5t57.5 22.5q37 0 59.5 -22.5t22.5 -59.5q0 -35 -22.5 -57.5t-59.5 -22.5z" />
    <glyph glyph-name="copyright" unicode="&#xa9;" horiz-adv-x="1402" 
d="M702 51q-248 0 -423 175t-175 423q0 245 176 421q175 175 422 175q246 0 421 -175t175 -421q0 -248 -175 -423t-421 -175zM702 92q223 0 386 166t163 391q0 227 -161 391q-162 164 -388 164q-227 0 -389 -163q-163 -163 -163 -392q0 -230 163 -393q162 -164 389 -164z
M727 305q-155 0 -256 96q-100 94 -100 247q0 150 96 248q96 97 260 97q134 0 211 -49l8 -141h-33q-18 75 -71 115t-129 40q-113 0 -182 -74q-70 -74 -70 -210q0 -142 88 -230q89 -90 211 -90q117 0 172 58l18 -23q-80 -84 -223 -84z" />
    <glyph glyph-name="ordfeminine" unicode="&#xaa;" horiz-adv-x="706" 
d="M543 1102v-283q0 -27 27.5 -33t70.5 19v-27q-19 -42 -86 -80q-42 0 -69 32.5t-27 76.5q-118 -109 -242 -109q-69 0 -110 38.5t-41 101.5q0 90 108 139q38 14 133 45q121 34 142 55q5 6 10 21v8q0 82 -39 113.5t-133 31.5q-46 0 -62 -37q-44 -104 -80 -104q-43 0 -43 45
q0 61 91 103q90 42 190 42q86 0 123 -47t37 -151zM272 764q54 0 106 28q53 27 81 64v172l-148 -43q-85 -24 -118 -52.5t-33 -74.5q0 -45 32 -69.5t80 -24.5zM608 520h-506v33h506v-33z" />
    <glyph glyph-name="guillemotleft" unicode="&#xab;" horiz-adv-x="851" 
d="M418 193l-316 276l318 274l14 -24l-201 -250l201 -252zM729 193l-315 276l317 274l14 -24l-200 -250l200 -252z" />
    <glyph glyph-name="logicalnot" unicode="&#xac;" horiz-adv-x="1144" 
d="M145 735h854v-442h-71v371h-783v71z" />
    <glyph glyph-name="uni00AD" unicode="&#xad;" horiz-adv-x="815" 
d="M690 494h-565v49h565v-49z" />
    <glyph glyph-name="registered" unicode="&#xae;" horiz-adv-x="1402" 
d="M702 51q-248 0 -423 175t-175 423q0 245 176 421q175 175 422 175q246 0 421 -175t175 -421q0 -248 -175 -423t-421 -175zM702 92q223 0 386 166t163 391q0 227 -161 391q-162 164 -388 164q-227 0 -389 -163q-163 -163 -163 -392q0 -230 163 -393q162 -164 389 -164z
M948 317q-44 0 -74.5 23t-68.5 82l-82 123q-45 62 -72 73v21q96 0 146.5 36.5t50.5 100.5q0 67 -49.5 105.5t-139.5 38.5q-43 0 -59 -12t-16 -38v-438q0 -60 36 -68q9 -3 46 -8v-22h-242v22q36 4 48 8t23 19q11 17 11 49v426q0 28 -11.5 45.5t-23.5 20.5q-3 0 -9 1.5t-17 4
t-21 4.5v22h229q275 0 277 -170q0 -70 -54 -113q-57 -45 -131 -55l11 -8q3 -3 11.5 -11t17 -17t19.5 -22q21 -28 34 -50l36 -64q66 -101 109 -102v-20q-11 -7 -35 -7z" />
    <glyph glyph-name="overscore" unicode="&#xaf;" horiz-adv-x="628" 
d="M586 1243h-574l31 62h573z" />
    <glyph glyph-name="degree" unicode="&#xb0;" horiz-adv-x="747" 
d="M367 768q-105 0 -184 74q-79 73 -79 194q0 125 83 200t194 75q105 0 185 -74q79 -73 79 -195q0 -123 -84 -198q-85 -76 -194 -76zM383 811q62 0 111 55q49 53 49 162q0 106 -52 173t-126 67q-61 0 -110 -54q-50 -56 -50 -163q0 -105 53 -173q52 -67 125 -67z" />
    <glyph glyph-name="plusminus" unicode="&#xb1;" horiz-adv-x="1048" 
d="M561 1100v-342h342v-72h-342v-346h-72v346h-344v72h344v342h72zM903 27h-758v71h758v-71z" />
    <glyph glyph-name="uni00B2" unicode="&#xb2;" horiz-adv-x="573" 
d="M451 805h-361l-6 22q1 1 41 35q35 30 43 37q26 23 39 35q21 19 74 76q24 27 52 75q21 36 21 74q0 43 -25 70.5t-71 27.5q-84 0 -135 -86l-23 15q25 63 78.5 99t120.5 36q72 0 119 -41t47 -102q0 -46 -35 -98q-33 -50 -71 -82q-31 -26 -93 -73q-53 -39 -67 -51h135
q57 0 84 14t45 60h26z" />
    <glyph glyph-name="uni00B3" unicode="&#xb3;" horiz-adv-x="546" 
d="M225 786q-56 0 -98 16q-43 15 -43 46t35 31q17 0 52 -32t69 -32q48 0 86 34q39 35 39 91q0 53 -36 82t-93 29q-35 0 -74 -15l-10 25l63 24q68 26 94.5 47.5t26.5 57.5q0 66 -84 66q-85 -2 -131 -56l-21 17q66 96 189 96q60 0 97.5 -29t37.5 -76q0 -69 -115 -118
q64 -5 109 -35q45 -31 45 -92q0 -77 -70 -126q-71 -51 -168 -51z" />
    <glyph glyph-name="acute" unicode="&#xb4;" horiz-adv-x="311" 
d="M53 1057l-28 24q72 199 141 297q31 0 72 -29q42 -31 53 -55q-17 -12 -80 -65q-13 -12 -42 -42q-20 -21 -35 -39q-8 -9 -42 -48q-31 -35 -39 -43z" />
    <glyph glyph-name="paragraph" unicode="&#xb6;" horiz-adv-x="1316" 
d="M604 1290h649v-35q-103 -19 -131 -41q-39 -33 -39 -120v-1176q0 -124 -70 -200t-220 -76h-101v1491q0 50 -24 72t-84 22q-151 0 -243 -101q-91 -101 -91 -247t89 -238t251 -92q25 0 25 -32q-2 -32 -25 -32q-222 0 -374 112q-153 113 -153 294q0 182 154 291
q155 108 387 108zM920 -82v1215q0 96 -72 96q-70 0 -70 -96v-1438q95 5 120 74q22 62 22 149z" />
    <glyph glyph-name="middot" unicode="&#xb7;" horiz-adv-x="419" 
d="M304 537q-32 -29 -75 -29t-73 29q-31 28 -31 71q0 44 31 72q30 29 73 29t75 -29t32 -72q0 -42 -32 -71z" />
    <glyph glyph-name="cedilla" unicode="&#xb8;" horiz-adv-x="456" 
d="M137 -434l10 39q86 0 136.5 27t50.5 71q0 96 -217 96l102 201h76l-57 -113q90 0 144 -41t54 -108q0 -72 -69 -122q-71 -50 -230 -50z" />
    <glyph glyph-name="uni00B9" unicode="&#xb9;" horiz-adv-x="444" 
d="M350 815h-256v21q46 4 62 12.5t16 32.5v338q0 23 -7.5 29.5t-25.5 2.5l-41 -10v23l158 67l16 -12v-438q0 -24 16 -32.5t62 -12.5v-21z" />
    <glyph glyph-name="ordmasculine" unicode="&#xba;" horiz-adv-x="718" 
d="M570 780q-98 -84 -218 -84q-122 0 -210 82q-89 83 -89 215q0 139 96 223q94 84 218 84q122 0 210 -82q89 -83 89 -217q0 -137 -96 -221zM371 735q76 0 135 62t59 186q0 122 -62 199q-63 75 -151 75q-80 0 -139 -60q-59 -61 -59 -185q0 -123 65 -200t152 -77zM614 520
h-512v33h512v-33z" />
    <glyph glyph-name="guillemotright" unicode="&#xbb;" horiz-adv-x="851" 
d="M96 743l318 -274l-316 -276l-16 24l201 252l-201 250zM408 743l317 -274l-315 -276l-17 24l201 252l-201 250z" />
    <glyph glyph-name="onequarter" unicode="&#xbc;" horiz-adv-x="1228" 
d="M350 836v-21h-256v21q46 4 62 12.5t16 32.5v338q0 23 -7.5 29.5t-25.5 2.5l-41 -10v23l158 67l16 -12v-438q0 -24 16 -32.5t62 -12.5zM88 -10l885 1313h57l-885 -1313h-57zM1069 135v-69q0 -24 14.5 -32.5t61.5 -13.5v-20h-254v20q46 4 61 13t15 33v69h-222l-8 41
l238 328h94v-328h76l-8 -41h-68zM967 436l-189 -260h189v260z" />
    <glyph glyph-name="onehalf" unicode="&#xbd;" horiz-adv-x="1247" 
d="M350 815h-256v21q46 4 62 12.5t16 32.5v338q0 23 -7.5 29.5t-25.5 2.5l-41 -10v23l158 67l16 -12v-438q0 -24 16 -32.5t62 -12.5v-21zM145 -10h-57l885 1313h57zM1124 0h-360l-6 23q1 1 41 35q35 30 43 36q26 23 39 35q9 10 22.5 23t17.5 16q5 5 16.5 18t17.5 19
q10 11 18 21.5t11.5 16.5t11.5 19.5t11 17.5q21 36 21 74q0 43 -25 71t-71 28q-84 0 -135 -86l-23 14q25 63 78.5 99t120.5 36q72 0 119 -41t47 -102q0 -46 -35 -98q-34 -51 -72 -82q-31 -26 -93 -73q-50 -38 -67 -50h136q56 0 83 13q26 13 46 60h26z" />
    <glyph glyph-name="threequarters" unicode="&#xbe;" horiz-adv-x="1478" 
d="M463 963q0 -77 -69 -126q-71 -51 -169 -51q-56 0 -98 16q-43 15 -43 46t35 31q17 0 52 -32t69 -32q48 0 86 34q39 35 39 91q0 53 -36 82t-93 29q-35 0 -74 -15l-10 25l63 24q68 26 94.5 47.5t26.5 57.5q0 66 -84 66q-85 -2 -131 -56l-21 17q66 96 189 96q60 0 97.5 -29
t37.5 -76q0 -69 -115 -118q64 -5 109 -35q45 -31 45 -92zM240 -10l884 1313h58l-885 -1313h-57zM1319 135v-69q0 -24 14.5 -32.5t61.5 -13.5v-20h-254v20q46 4 61 13t15 33v69h-222l-8 41l238 328h94v-328h76l-9 -41h-67zM1217 436l-189 -260h189v260z" />
    <glyph glyph-name="questiondown" unicode="&#xbf;" horiz-adv-x="903" 
d="M413 903q31 29 74 29t74 -29q31 -28 31 -72q0 -43 -31 -71t-73.5 -28t-74.5 28q-32 29 -32 71q0 43 32 72zM477 526h33q27 -80 15 -133q-14 -55 -55 -118q-42 -66 -86 -119q-45 -56 -79 -131q-35 -79 -35 -156q0 -106 67 -176q66 -70 220 -70q67 0 92 66q39 95 64 127
q24 34 61 34q66 0 66 -67q0 -98 -134 -161q-136 -62 -282 -62q-161 0 -241 86q-79 85 -79 223q0 89 38 166.5t99 132.5q4 4 112 100q131 115 124 258z" />
    <glyph glyph-name="Agrave" unicode="&#xc0;" horiz-adv-x="1431" 
d="M729 1470l-29 -24q-8 10 -33 39l-20 22.5t-16 17.5q-5 6 -17.5 19.5t-28 29.5t-20.5 21q-67 65 -102 88q11 24 53 55q41 29 72 29q70 -97 141 -297zM745 1305l498 -1151q29 -68 56 -85q24 -17 110 -34v-35h-473v35q64 13 72 15q44 13 52 23q31 33 3 81l-117 270h-559
l-113 -274q-18 -40 -6 -60q1 -1 3 -5t3 -5.5t3.5 -4.5t4 -4t5 -3.5t7 -4t8.5 -3.5q28 -11 62 -18q9 -2 20.5 -4.5t14.5 -2.5v-35h-376v35q104 20 124 35q29 20 50 77l479 1158h69zM659 1092l-249 -609h512z" />
    <glyph glyph-name="Aacute" unicode="&#xc1;" horiz-adv-x="1431" 
d="M897 1683q-17 -12 -80 -65q-16 -14 -41 -42q-20 -21 -35 -39q-7 -9 -42 -48q-23 -26 -40 -43l-28 24q72 200 141 297q31 0 72 -29q42 -31 53 -55zM745 1305l498 -1151q29 -68 56 -85q24 -17 110 -34v-35h-473v35q64 13 72 15q44 13 52 23q31 33 3 81l-117 270h-559
l-113 -274q-18 -40 -6 -60q1 -1 3 -5t3 -5.5t3.5 -4.5t4 -4t5 -3.5t7 -4t8.5 -3.5q28 -11 62 -18q9 -2 20.5 -4.5t14.5 -2.5v-35h-376v35q104 20 124 35q29 20 50 77l479 1158h69zM659 1092l-249 -609h512z" />
    <glyph glyph-name="Acircumflex" unicode="&#xc2;" horiz-adv-x="1431" 
d="M944 1462l-252 201l-250 -201l-24 15l274 317l277 -315zM745 1305l498 -1151q29 -68 56 -85q24 -17 110 -34v-35h-473v35q64 13 72 15q44 13 52 23q31 33 3 81l-117 270h-559l-113 -274q-18 -40 -6 -60q1 -1 3 -5t3 -5.5t3.5 -4.5t4 -4t5 -3.5t7 -4t8.5 -3.5
q28 -11 62 -18q9 -2 20.5 -4.5t14.5 -2.5v-35h-376v35q104 20 124 35q29 20 50 77l479 1158h69zM659 1092l-249 -609h512z" />
    <glyph glyph-name="Atilde" unicode="&#xc3;" horiz-adv-x="1431" 
d="M414 1561h-31q-18 73 36 129q54 55 146 55q47 2 90.5 -20.5t71.5 -50t64 -50t69 -20.5q54 0 85.5 24.5t31.5 57.5h31q18 -74 -35 -130q-53 -57 -146 -57q-69 0 -119 35q-42 29 -89 71q-41 35 -89 35q-54 0 -85 -23t-31 -56zM745 1305l498 -1151q29 -68 56 -85
q24 -17 110 -34v-35h-473v35q64 13 72 15q44 13 52 23q31 33 3 81l-117 270h-559l-113 -274q-18 -40 -6 -60q1 -1 3 -5t3 -5.5t3.5 -4.5t4 -4t5 -3.5t7 -4t8.5 -3.5q28 -11 62 -18q9 -2 20.5 -4.5t14.5 -2.5v-35h-376v35q104 20 124 35q29 20 50 77l479 1158h69zM659 1092
l-249 -609h512z" />
    <glyph glyph-name="Adieresis" unicode="&#xc4;" horiz-adv-x="1431" 
d="M506 1581q-35 0 -57.5 22.5t-22.5 57.5q0 37 22.5 59.5t57.5 22.5q37 0 59.5 -22.5t22.5 -59.5q0 -35 -22.5 -57.5t-59.5 -22.5zM874 1581q-35 0 -57 22.5t-22 57.5q0 36 22.5 59t56.5 23q37 0 59.5 -22.5t22.5 -59.5q0 -35 -22.5 -57.5t-59.5 -22.5zM745 1305l498 -1151
q29 -68 56 -85q24 -17 110 -34v-35h-473v35q64 13 72 15q44 13 52 23q31 33 3 81l-117 270h-559l-113 -274q-18 -40 -6 -60q1 -1 3 -5t3 -5.5t3.5 -4.5t4 -4t5 -3.5t7 -4t8.5 -3.5q28 -11 62 -18q9 -2 20.5 -4.5t14.5 -2.5v-35h-376v35q104 20 124 35q29 20 50 77l479 1158
h69zM659 1092l-249 -609h512z" />
    <glyph glyph-name="Aring" unicode="&#xc5;" horiz-adv-x="1431" 
d="M810 1542q-48 -49 -117 -49q-70 0 -119 49q-50 50 -50 119t50 119q49 49 119 49q69 0 117 -49q48 -50 48 -119t-48 -119zM766 1737q-31 32 -73.5 32t-74.5 -32q-32 -33 -32 -76t32 -76t74.5 -33t73.5 33t31 76t-31 76zM745 1305l498 -1151q29 -68 56 -85q24 -17 110 -34
v-35h-473v35q64 13 72 15q44 13 52 23q31 33 3 81l-117 270h-559l-113 -274q-18 -40 -6 -60q1 -1 3 -5t3 -5.5t3.5 -4.5t4 -4t5 -3.5t7 -4t8.5 -3.5q28 -11 62 -18q9 -2 20.5 -4.5t14.5 -2.5v-35h-376v35q104 20 124 35q29 20 50 77l479 1158h69zM659 1092l-249 -609h512z
" />
    <glyph glyph-name="AE" unicode="&#xc6;" horiz-adv-x="1820" 
d="M1702 297h45l-84 -297h-958v35q103 19 131 41q39 33 38 121v256h-438l-164 -285q-30 -48 -21 -70q5 -12 7 -16t9 -10t19 -11q24 -9 29 -10q3 0 8 -1.5t14 -3.5t16 -3q11 -2 22.5 -5t13.5 -3v-35h-366v35q84 17 109 35q26 19 71 96l534 919h-2q68 116 -55 150
q-22 7 -115 20v35h1094l18 -280h-45q-13 116 -55 167q-41 50 -145 50h-207q-120 0 -157 -26q-36 -27 -36 -130v-389h182q176 0 226 35q48 34 59 137h33v-405h-33q-11 103 -59 137q-50 35 -226 35h-182v-402q0 -102 36 -129t157 -27h164q121 0 189 51q67 49 124 183z
M858 1186l-387 -674h403v582q0 60 -16 92z" />
    <glyph glyph-name="Ccedilla" unicode="&#xc7;" horiz-adv-x="1335" 
d="M784 -25h-12l-45 -88q90 0 144.5 -41t54.5 -108q0 -73 -70 -122q-71 -50 -229 -50l10 39q86 0 136 27t50 71q0 96 -217 96l92 181q-261 28 -428 213q-166 184 -166 462q0 291 190 480q190 188 509 188q238 0 395 -94q7 -165 14 -277h-61q-34 153 -136 230.5t-253 77.5
q-213 0 -344 -143q-131 -145 -131 -415q0 -284 167 -462q166 -177 404 -177q91 0 188 27q96 26 152 86l33 -35q-67 -73 -184 -119q-120 -47 -263 -47z" />
    <glyph glyph-name="Egrave" unicode="&#xc8;" horiz-adv-x="1179" 
d="M629 1470l-29 -24q-8 10 -33 39l-20 22.5t-16 17.5q-6 7 -33 35t-34 35q-56 59 -102 88q12 25 54 55q41 29 71 29q70 -96 142 -297zM1061 297h45l-84 -297h-959v35q103 19 132 41q39 33 38 121v897q0 53 -7.5 79t-34.5 43q-29 16 -42 21q-7 2 -69 14q-4 1 -9.5 2.5
t-7.5 1.5v35h955l18 -280h-45q-13 116 -55 167q-41 50 -145 50h-207q-120 0 -157 -26q-36 -27 -36 -130v-389h182q176 0 226 35q48 34 59 137h33v-405h-33q-11 103 -59 137q-50 35 -226 35h-182v-402q0 -102 36 -129t157 -27h164q122 0 189 51q67 49 124 183z" />
    <glyph glyph-name="Eacute" unicode="&#xc9;" horiz-adv-x="1179" 
d="M797 1683q-17 -12 -80 -65q-15 -12 -42 -42q-20 -21 -35 -39q-8 -9 -42 -48q-31 -35 -39 -43l-29 24q72 201 142 297q31 0 72 -29q42 -31 53 -55zM1061 297h45l-84 -297h-959v35q103 19 132 41q39 33 38 121v897q0 53 -7.5 79t-34.5 43q-29 16 -42 21q-7 2 -69 14
q-4 1 -9.5 2.5t-7.5 1.5v35h955l18 -280h-45q-13 116 -55 167q-41 50 -145 50h-207q-120 0 -157 -26q-36 -27 -36 -130v-389h182q176 0 226 35q48 34 59 137h33v-405h-33q-11 103 -59 137q-50 35 -226 35h-182v-402q0 -102 36 -129t157 -27h164q122 0 189 51q67 49 124 183z
" />
    <glyph glyph-name="Ecircumflex" unicode="&#xca;" horiz-adv-x="1179" 
d="M844 1462l-252 201l-250 -201l-25 15l275 317l276 -315zM1061 297h45l-84 -297h-959v35q103 19 132 41q39 33 38 121v897q0 53 -7.5 79t-34.5 43q-29 16 -42 21q-7 2 -69 14q-4 1 -9.5 2.5t-7.5 1.5v35h955l18 -280h-45q-13 116 -55 167q-41 50 -145 50h-207
q-120 0 -157 -26q-36 -27 -36 -130v-389h182q176 0 226 35q48 34 59 137h33v-405h-33q-11 103 -59 137q-50 35 -226 35h-182v-402q0 -102 36 -129t157 -27h164q122 0 189 51q67 49 124 183z" />
    <glyph glyph-name="Edieresis" unicode="&#xcb;" horiz-adv-x="1179" 
d="M408 1581q-35 0 -57.5 22.5t-22.5 57.5q0 37 22.5 59.5t57.5 22.5q37 0 59 -22.5t22 -59.5q0 -35 -22.5 -57.5t-58.5 -22.5zM776 1581q-35 0 -57.5 22.5t-22.5 57.5q0 37 22.5 59.5t57.5 22.5q37 0 59.5 -22.5t22.5 -59.5q0 -35 -22.5 -57.5t-59.5 -22.5zM1061 297h45
l-84 -297h-959v35q103 19 132 41q39 33 38 121v897q0 53 -7.5 79t-34.5 43q-29 16 -42 21q-7 2 -69 14q-4 1 -9.5 2.5t-7.5 1.5v35h955l18 -280h-45q-13 116 -55 167q-41 50 -145 50h-207q-120 0 -157 -26q-36 -27 -36 -130v-389h182q176 0 226 35q48 34 59 137h33v-405h-33
q-11 103 -59 137q-50 35 -226 35h-182v-402q0 -102 36 -129t157 -27h164q122 0 189 51q67 49 124 183z" />
    <glyph glyph-name="Igrave" unicode="&#xcc;" horiz-adv-x="624" 
d="M350 1470l-28 -24q-4 5 -34 39l-20 22.5t-16 17.5q-5 6 -17.5 19.5t-28 29.5t-20.5 21q-67 65 -102 88q11 24 53 55q41 29 72 29q71 -97 141 -297zM561 0h-498v35q103 19 132 41q39 33 38 121v897q0 53 -7.5 79t-34.5 43q-29 16 -42 21q-7 2 -69 14q-4 1 -9.5 2.5
t-7.5 1.5v35h498v-35q-103 -19 -131 -41q-39 -33 -39 -120v-897q0 -52 8.5 -79t35.5 -43q28 -18 41 -22q7 -2 69 -14l16 -4v-35z" />
    <glyph glyph-name="Iacute" unicode="&#xcd;" horiz-adv-x="624" 
d="M281 1446l-29 24q72 200 141 297q31 0 72 -29q42 -31 53 -55q-11 -8 -79 -65q-15 -12 -42 -42q-20 -21 -35 -39q-8 -9 -42 -48q-31 -35 -39 -43zM561 0h-498v35q103 19 132 41q39 33 38 121v897q0 53 -7.5 79t-34.5 43q-29 16 -42 21q-7 2 -69 14q-4 1 -9.5 2.5t-7.5 1.5
v35h498v-35q-103 -19 -131 -41q-39 -33 -39 -120v-897q0 -52 8.5 -79t35.5 -43q28 -18 41 -22q7 -2 69 -14l16 -4v-35z" />
    <glyph glyph-name="Icircumflex" unicode="&#xce;" horiz-adv-x="624" 
d="M39 1477l274 317l277 -315l-25 -17l-252 201l-250 -201zM561 0h-498v35q103 19 132 41q39 33 38 121v897q0 53 -7.5 79t-34.5 43q-29 16 -42 21q-7 2 -69 14q-4 1 -9.5 2.5t-7.5 1.5v35h498v-35q-103 -19 -131 -41q-39 -33 -39 -120v-897q0 -52 8.5 -79t35.5 -43
q28 -18 41 -22q7 -2 69 -14l16 -4v-35z" />
    <glyph glyph-name="Idieresis" unicode="&#xcf;" horiz-adv-x="624" 
d="M129 1581q-35 0 -57.5 22.5t-22.5 57.5q0 37 22.5 59.5t57.5 22.5q37 0 59.5 -22.5t22.5 -59.5q0 -35 -22.5 -57.5t-59.5 -22.5zM498 1581q-35 0 -57.5 22.5t-22.5 57.5q0 37 22.5 59.5t57.5 22.5q37 0 59.5 -22.5t22.5 -59.5q0 -35 -22.5 -57.5t-59.5 -22.5zM561 0h-498
v35q103 19 132 41q39 33 38 121v897q0 53 -7.5 79t-34.5 43q-29 16 -42 21q-7 2 -69 14q-4 1 -9.5 2.5t-7.5 1.5v35h498v-35q-103 -19 -131 -41q-39 -33 -39 -120v-897q0 -52 8.5 -79t35.5 -43q28 -18 41 -22q7 -2 69 -14l16 -4v-35z" />
    <glyph glyph-name="Eth" unicode="&#xd0;" horiz-adv-x="1388" 
d="M86 1290h469q311 0 510 -145q104 -76 161.5 -202.5t57.5 -289.5q0 -224 -101 -375t-260 -214q-158 -64 -368 -64h-469v35q103 19 131 41q39 33 39 121v413l-193 -6l21 66q103 -4 172 -4v428q0 53 -8 79t-35 43q-29 16 -42 21q-7 2 -69 14l-16 4v35zM612 66
q256 0 375 141.5t119 425.5q0 283 -131 438q-130 154 -440 154h-121v-561q130 0 264 6l-21 -66q-123 6 -243 6v-348q0 -109 42 -152q41 -44 156 -44z" />
    <glyph glyph-name="Ntilde" unicode="&#xd1;" horiz-adv-x="1437" 
d="M442 1561h-30q-18 73 36 129q54 55 146 55q47 2 90.5 -20.5t71.5 -50t64 -50t69 -20.5q54 0 85.5 24.5t31.5 57.5h30q18 -74 -35 -130q-53 -57 -145 -57q-39 -2 -75.5 12.5t-63.5 36t-52 43t-52.5 36t-53.5 13.5q-54 0 -85.5 -23t-31.5 -56zM944 1255v35h430v-35
q-83 18 -128.5 -22.5t-45.5 -138.5v-1094h-67l-820 1090v-893q0 -51 9.5 -78.5t38.5 -43.5q28 -17 45 -22q6 -2 73 -14q5 -1 12 -3l7 -1v-35h-435v35q104 19 134 41q41 33 41 121v897q0 50 -9 77.5t-35 44.5q-29 17 -44 21q-5 1 -14 3t-25 5t-29 6q-5 1 -12 3l-7 1v35h293
l768 -1009v813q0 202 -180 161z" />
    <glyph glyph-name="Ograve" unicode="&#xd2;" horiz-adv-x="1503" 
d="M788 1470l-28 -24q-4 5 -34 39l-20 22.5t-16 17.5q-5 6 -17.5 19.5t-28 29.5t-20.5 21q-69 67 -102 88q11 24 53 55q41 29 72 29q71 -97 141 -297zM748 -25q-280 0 -462 194t-182 476q0 281 184 480q183 198 468 198q281 0 463 -194q182 -196 182 -474q0 -286 -184 -482
q-185 -198 -469 -198zM782 39q184 0 315 152q130 151 130 403q0 286 -150 476q-151 190 -356 190q-181 0 -312 -152q-130 -151 -130 -401q0 -288 149 -478q148 -190 354 -190z" />
    <glyph glyph-name="Oacute" unicode="&#xd3;" horiz-adv-x="1503" 
d="M719 1446l-29 24q72 200 141 297q31 0 72 -29q42 -31 53 -55q-11 -8 -79 -65q-15 -12 -42 -42q-20 -21 -35 -39q-8 -9 -42 -48q-31 -35 -39 -43zM748 -25q-280 0 -462 194t-182 476q0 281 184 480q183 198 468 198q281 0 463 -194q182 -196 182 -474q0 -286 -184 -482
q-185 -198 -469 -198zM782 39q184 0 315 152q130 151 130 403q0 286 -150 476q-151 190 -356 190q-181 0 -312 -152q-130 -151 -130 -401q0 -288 149 -478q148 -190 354 -190z" />
    <glyph glyph-name="Ocircumflex" unicode="&#xd4;" horiz-adv-x="1503" 
d="M477 1477l275 317l276 -315l-24 -17l-252 201l-250 -201zM748 -25q-280 0 -462 194t-182 476q0 281 184 480q183 198 468 198q281 0 463 -194q182 -196 182 -474q0 -286 -184 -482q-185 -198 -469 -198zM782 39q184 0 315 152q130 151 130 403q0 286 -150 476
q-151 190 -356 190q-181 0 -312 -152q-130 -151 -130 -401q0 -288 149 -478q148 -190 354 -190z" />
    <glyph glyph-name="Otilde" unicode="&#xd5;" horiz-adv-x="1503" 
d="M887 1499q-39 -2 -75.5 12.5t-63.5 36t-52 43t-52.5 36t-53.5 13.5q-54 0 -85.5 -23.5t-31.5 -55.5h-31q-18 73 36 129q54 55 147 55q47 2 90.5 -20.5t71 -50t63.5 -50t70 -20.5q54 0 85 24.5t31 57.5h31q18 -74 -35 -130q-52 -57 -145 -57zM748 -25q-280 0 -462 194
t-182 476q0 281 184 480q183 198 468 198q281 0 463 -194q182 -196 182 -474q0 -286 -184 -482q-185 -198 -469 -198zM782 39q184 0 315 152q130 151 130 403q0 286 -150 476q-151 190 -356 190q-181 0 -312 -152q-130 -151 -130 -401q0 -288 149 -478q148 -190 354 -190z
" />
    <glyph glyph-name="Odieresis" unicode="&#xd6;" horiz-adv-x="1503" 
d="M567 1581q-35 0 -57.5 22.5t-22.5 57.5q0 37 22.5 59.5t57.5 22.5q37 0 59.5 -22.5t22.5 -59.5q0 -35 -22.5 -57.5t-59.5 -22.5zM936 1581q-35 0 -57.5 22.5t-22.5 57.5q0 37 22.5 59.5t57.5 22.5q37 0 59.5 -22.5t22.5 -59.5q0 -35 -22.5 -57.5t-59.5 -22.5zM748 -25
q-280 0 -462 194t-182 476q0 281 184 480q183 198 468 198q281 0 463 -194q182 -196 182 -474q0 -286 -184 -482q-185 -198 -469 -198zM782 39q184 0 315 152q130 151 130 403q0 286 -150 476q-151 190 -356 190q-181 0 -312 -152q-130 -151 -130 -401q0 -288 149 -478
q148 -190 354 -190z" />
    <glyph glyph-name="multiply" unicode="&#xd7;" horiz-adv-x="890" 
d="M694 817l51 -53l-247 -248l247 -250l-51 -53l-248 250l-249 -250l-52 53l248 250l-248 248l52 53l249 -250z" />
    <glyph glyph-name="Oslash" unicode="&#xd8;" horiz-adv-x="1503" 
d="M1237 1397l-115 -185q131 -92 205 -238q74 -148 74 -319q0 -286 -184 -482q-185 -198 -469 -198q-185 0 -340 95l-107 -170l-37 26l105 168q-125 92 -195 237q-70 143 -70 314q0 281 184 480q183 198 468 198q179 0 327 -86l117 186zM279 707q0 -302 163 -496l576 922
q-133 127 -297 127q-182 0 -312 -151t-130 -402zM782 39q184 0 315 152q130 151 130 403q0 309 -176 506l-578 -924q137 -137 309 -137z" />
    <glyph glyph-name="Ugrave" unicode="&#xd9;" horiz-adv-x="1445" 
d="M762 1470l-29 -24q-7 10 -33 39l-20 22.5t-16 17.5q-6 7 -33 35t-34 35q-56 58 -101 88q11 24 53 55q41 29 72 29q71 -97 141 -297zM717 -25q-149 0 -261 59q-67 35 -118 92q-52 59 -83.5 159.5t-31.5 226.5v582q0 53 -7.5 79t-34.5 43q-29 16 -42 21q-7 2 -69 14
q-4 1 -9.5 2.5t-7.5 1.5v35h500v-35q-103 -19 -131 -41q-39 -33 -39 -120v-605q0 -430 367 -430q140 0 249 74q62 42 96.5 125.5t34.5 200.5v635q0 51 -8.5 78t-34.5 44q-29 17 -44 21q-5 1 -14 3t-25 5t-29 6q-5 1 -12 3l-7 1v35h439v-35q-114 -19 -142 -41
q-43 -33 -43 -120v-594q0 -144 -42 -252t-117 -165q-141 -108 -334 -108z" />
    <glyph glyph-name="Uacute" unicode="&#xda;" horiz-adv-x="1445" 
d="M692 1446l-28 24q72 200 141 297q31 0 72 -29q42 -31 53 -55q-17 -12 -80 -65q-14 -12 -42 -42q-20 -21 -35 -39q-7 -9 -42 -48q-31 -35 -39 -43zM717 -25q-149 0 -261 59q-67 35 -118 92q-52 59 -83.5 159.5t-31.5 226.5v582q0 53 -7.5 79t-34.5 43q-29 16 -42 21
q-7 2 -69 14q-4 1 -9.5 2.5t-7.5 1.5v35h500v-35q-103 -19 -131 -41q-39 -33 -39 -120v-605q0 -430 367 -430q140 0 249 74q62 42 96.5 125.5t34.5 200.5v635q0 51 -8.5 78t-34.5 44q-29 17 -44 21q-5 1 -14 3t-25 5t-29 6q-5 1 -12 3l-7 1v35h439v-35q-114 -19 -142 -41
q-43 -33 -43 -120v-594q0 -144 -42 -252t-117 -165q-141 -108 -334 -108z" />
    <glyph glyph-name="Ucircumflex" unicode="&#xdb;" horiz-adv-x="1445" 
d="M451 1477l274 317l276 -315l-24 -17l-252 201l-250 -201zM717 -25q-149 0 -261 59q-67 35 -118 92q-52 59 -83.5 159.5t-31.5 226.5v582q0 53 -7.5 79t-34.5 43q-29 16 -42 21q-7 2 -69 14q-4 1 -9.5 2.5t-7.5 1.5v35h500v-35q-103 -19 -131 -41q-39 -33 -39 -120v-605
q0 -430 367 -430q140 0 249 74q62 42 96.5 125.5t34.5 200.5v635q0 51 -8.5 78t-34.5 44q-29 17 -44 21q-5 1 -14 3t-25 5t-29 6q-5 1 -12 3l-7 1v35h439v-35q-114 -19 -142 -41q-43 -33 -43 -120v-594q0 -144 -42 -252t-117 -165q-141 -108 -334 -108z" />
    <glyph glyph-name="Udieresis" unicode="&#xdc;" horiz-adv-x="1445" 
d="M541 1581q-35 0 -57.5 22.5t-22.5 57.5q0 37 22.5 59.5t57.5 22.5q37 0 59.5 -22.5t22.5 -59.5q0 -35 -22.5 -57.5t-59.5 -22.5zM909 1581q-35 0 -57.5 22.5t-22.5 57.5q0 37 22.5 59.5t57.5 22.5q37 0 59.5 -22.5t22.5 -59.5q0 -35 -22.5 -57.5t-59.5 -22.5zM717 -25
q-149 0 -261 59q-67 35 -118 92q-52 59 -83.5 159.5t-31.5 226.5v582q0 53 -7.5 79t-34.5 43q-29 16 -42 21q-7 2 -69 14q-4 1 -9.5 2.5t-7.5 1.5v35h500v-35q-103 -19 -131 -41q-39 -33 -39 -120v-605q0 -430 367 -430q140 0 249 74q62 42 96.5 125.5t34.5 200.5v635
q0 51 -8.5 78t-34.5 44q-29 17 -44 21q-5 1 -14 3t-25 5t-29 6q-5 1 -12 3l-7 1v35h439v-35q-114 -19 -142 -41q-43 -33 -43 -120v-594q0 -144 -42 -252t-117 -165q-141 -108 -334 -108z" />
    <glyph glyph-name="Yacute" unicode="&#xdd;" horiz-adv-x="1318" 
d="M866 1683q-11 -8 -79 -65q-15 -12 -42 -42q-20 -21 -35 -39q-8 -9 -42 -48q-31 -35 -39 -43l-29 24q72 200 141 297q31 0 72 -29q42 -31 53 -55zM893 1255v35h393v-35q-82 -17 -108 -33q-27 -18 -72 -94l-361 -581v-340q0 -55 10.5 -82.5t41.5 -42.5q31 -16 53 -21
q16 -5 86 -16v-45h-539v45q120 19 150 43q41 32 41 119v323l-377 598q-49 76 -73 94q-26 16 -105 33v35h469v-35q-82 -18 -113 -43t2 -84l320 -518l313 518q21 37 23.5 56.5t-17.5 34.5q-24 13 -39 17q-28 7 -65 13q-22 5 -33 6z" />
    <glyph glyph-name="Thorn" unicode="&#xde;" horiz-adv-x="1150" 
d="M1029 830q38 -81 38 -186q0 -106 -38 -187q-38 -80 -98 -127q-63 -47 -153 -77q-89 -29 -181 -40q-76 -9 -206 -14v-2q0 -52 8.5 -79t35.5 -43q28 -18 41 -22q7 -2 69 -14l16 -4v-35h-498v35q103 19 132 41q39 33 38 121v897q0 53 -7.5 79t-34.5 43q-29 16 -42 21
q-7 2 -69 14q-4 1 -9.5 2.5t-7.5 1.5v35h498v-35q-103 -19 -131 -41q-39 -33 -39 -120v-7q130 -5 206 -14q90 -11 181 -39q94 -31 153.5 -78.5t97.5 -125.5zM768 371q121 88 121 272q0 185 -121 273q-120 87 -377 104v-754q255 16 377 105z" />
    <glyph glyph-name="germandbls" unicode="&#xdf;" horiz-adv-x="1064" 
d="M571 -27q-76 0 -114 21.5t-37 64.5q0 27 20.5 45.5t48.5 18.5q42 0 120 -38t112 -38q52 0 111 46q59 47 59 108q0 98 -111 209l-223 227q20 23 49 53q39 40 51 54q19 22 37 46q26 33 33 54q7 17 18 53q9 33 9 66q0 137 -84 221q-52 51 -127 51q-95 0 -150 -69
q-57 -70 -57 -169v-997h-283v35q1 0 12.5 2t24.5 4.5t16 2.5q24 2 49 15q49 27 48 82v856q0 115 88 212q89 96 252 96q174 0 263 -89q89 -90 87 -215q0 -101 -75 -178q-36 -37 -63 -60q-30 -25 -70 -51q-49 -34 -50 -34l35 4l190 -193q154 -154 154 -258q0 -69 -75 -131
q-74 -60 -176 -94q-102 -33 -192 -33z" />
    <glyph glyph-name="agrave" unicode="&#xe0;" 
d="M522 1081l-28 -24q-4 5 -34 39l-20 22.5t-16 17.5q-5 6 -17.5 19.5t-28 29.5t-20.5 21q-67 65 -102 88q11 24 53 55q41 29 72 29q71 -98 141 -297zM815 610v-430q0 -49 45 -58t109 28v-39q-35 -64 -135 -125q-66 0 -109 51q-43 50 -43 119q-188 -170 -373 -170
q-110 0 -172.5 59.5t-62.5 157.5q0 117 92 176q93 59 285 113q128 33 168 50q47 20 63 54v27q0 129 -60 178q-61 49 -206 49q-71 0 -97 -62q-46 -101 -65 -128q-22 -33 -59 -33q-68 0 -68 67q0 94 144 160q143 66 294 66q137 0 194 -74q56 -74 56 -236zM397 88q84 0 164 44
q81 44 121 101v267l-229 -68q-132 -38 -181 -81q-51 -43 -51 -113q0 -80 51 -115q52 -35 125 -35z" />
    <glyph glyph-name="aacute" unicode="&#xe1;" 
d="M690 1294q-11 -8 -79 -65q-15 -12 -42 -42q-20 -21 -35 -39q-8 -9 -42 -48q-31 -35 -39 -43l-29 24q72 199 141 297q31 0 72 -29q42 -31 53 -55zM815 610v-430q0 -49 45 -58t109 28v-39q-35 -64 -135 -125q-66 0 -109 51q-43 50 -43 119q-188 -170 -373 -170
q-110 0 -172.5 59.5t-62.5 157.5q0 117 92 176q93 59 285 113q128 33 168 50q47 20 63 54v27q0 129 -60 178q-61 49 -206 49q-71 0 -97 -62q-46 -101 -65 -128q-22 -33 -59 -33q-68 0 -68 67q0 94 144 160q143 66 294 66q137 0 194 -74q56 -74 56 -236zM397 88q84 0 164 44
q81 44 121 101v267l-229 -68q-132 -38 -181 -81q-51 -43 -51 -113q0 -80 51 -115q52 -35 125 -35z" />
    <glyph glyph-name="acircumflex" unicode="&#xe2;" 
d="M737 1073l-252 201l-249 -201l-25 14l274 318l277 -315zM815 610v-430q0 -49 45 -58t109 28v-39q-35 -64 -135 -125q-66 0 -109 51q-43 50 -43 119q-188 -170 -373 -170q-110 0 -172.5 59.5t-62.5 157.5q0 117 92 176q93 59 285 113q128 33 168 50q47 20 63 54v27
q0 129 -60 178q-61 49 -206 49q-71 0 -97 -62q-46 -101 -65 -128q-22 -33 -59 -33q-68 0 -68 67q0 94 144 160q143 66 294 66q137 0 194 -74q56 -74 56 -236zM397 88q84 0 164 44q81 44 121 101v267l-229 -68q-132 -38 -181 -81q-51 -43 -51 -113q0 -80 51 -115
q52 -35 125 -35z" />
    <glyph glyph-name="atilde" unicode="&#xe3;" 
d="M207 1171h-31q-18 74 36 130q54 55 146 55q67 0 116 -35q48 -34 89 -71q41 -36 90 -36q54 0 85.5 25t31.5 57h31q18 -74 -35 -130t-145 -56q-48 -2 -93 20.5t-73.5 50t-63.5 50t-67 20.5q-54 0 -85.5 -23.5t-31.5 -56.5zM815 610v-430q0 -49 45 -58t109 28v-39
q-35 -64 -135 -125q-66 0 -109 51q-43 50 -43 119q-188 -170 -373 -170q-110 0 -172.5 59.5t-62.5 157.5q0 117 92 176q93 59 285 113q128 33 168 50q47 20 63 54v27q0 129 -60 178q-61 49 -206 49q-71 0 -97 -62q-46 -101 -65 -128q-22 -33 -59 -33q-68 0 -68 67
q0 94 144 160q143 66 294 66q137 0 194 -74q56 -74 56 -236zM397 88q84 0 164 44q81 44 121 101v267l-229 -68q-132 -38 -181 -81q-51 -43 -51 -113q0 -80 51 -115q52 -35 125 -35z" />
    <glyph glyph-name="adieresis" unicode="&#xe4;" 
d="M301 1192q-35 0 -57.5 22.5t-22.5 57.5q0 37 22.5 59.5t57.5 22.5q37 0 59.5 -22.5t22.5 -59.5q0 -35 -22.5 -57.5t-59.5 -22.5zM670 1192q-35 0 -57.5 22.5t-22.5 57.5q0 37 22.5 59.5t57.5 22.5q37 0 59.5 -22.5t22.5 -59.5q0 -35 -22.5 -57.5t-59.5 -22.5zM815 610
v-430q0 -49 45 -58t109 28v-39q-35 -64 -135 -125q-66 0 -109 51q-43 50 -43 119q-188 -170 -373 -170q-110 0 -172.5 59.5t-62.5 157.5q0 117 92 176q93 59 285 113q128 33 168 50q47 20 63 54v27q0 129 -60 178q-61 49 -206 49q-71 0 -97 -62q-46 -101 -65 -128
q-22 -33 -59 -33q-68 0 -68 67q0 94 144 160q143 66 294 66q137 0 194 -74q56 -74 56 -236zM397 88q84 0 164 44q81 44 121 101v267l-229 -68q-132 -38 -181 -81q-51 -43 -51 -113q0 -80 51 -115q52 -35 125 -35z" />
    <glyph glyph-name="aring" unicode="&#xe5;" 
d="M603 1153q-48 -49 -117 -49q-70 0 -119 49q-50 50 -50 119t50 119q49 49 119 49q69 0 117 -49t48 -119t-48 -119zM559 1348q-31 32 -74 32t-74 -32q-31 -33 -31 -76t31 -76q32 -33 74.5 -33t73.5 33t31 76t-31 76zM815 610v-430q0 -49 45 -58t109 28v-39
q-35 -64 -135 -125q-66 0 -109 51q-43 50 -43 119q-188 -170 -373 -170q-110 0 -172.5 59.5t-62.5 157.5q0 117 92 176q93 59 285 113q128 33 168 50q47 20 63 54v27q0 129 -60 178q-61 49 -206 49q-71 0 -97 -62q-46 -101 -65 -128q-22 -33 -59 -33q-68 0 -68 67
q0 94 144 160q143 66 294 66q137 0 194 -74q56 -74 56 -236zM397 88q84 0 164 44q81 44 121 101v267l-229 -68q-132 -38 -181 -81q-51 -43 -51 -113q0 -80 51 -115q52 -35 125 -35z" />
    <glyph glyph-name="ae" unicode="&#xe6;" horiz-adv-x="1570" 
d="M1454 219l29 -16q-36 -105 -129 -163t-219 -58q-140 0 -255 71t-167 195l14 -49q-205 -213 -418 -213q-110 0 -172.5 59.5t-62.5 157.5q0 117 92 176q93 59 285 113q128 33 168 50q47 20 63 54v27q0 129 -60 178q-61 49 -206 49q-71 0 -97 -62q-39 -93 -63 -127
q-25 -34 -61 -34q-68 0 -68 67q0 94 144 160q143 66 294 66q182 0 228 -142q129 141 325 142q81 0 151 -27.5t113 -71.5q40 -43 69 -96q47 -90 15 -207h-651v-16h-2q5 -177 109 -293q104 -117 276 -117q174 0 256 127zM1096 862q-104 0 -183 -75q-80 -77 -96 -212h520
q14 101 -50 194q-65 93 -191 93zM397 88q93 0 182 54q87 52 126 122q-31 78 -31 178q0 32 2 58l-223 -68q-132 -38 -181 -81q-51 -43 -51 -113q0 -80 51 -115q52 -35 125 -35z" />
    <glyph glyph-name="ccedilla" unicode="&#xe7;" horiz-adv-x="972" 
d="M864 223l29 -14q-35 -104 -128 -163q-92 -59 -218 -64l-47 -95q90 0 144 -41t54 -108q0 -72 -69 -122q-71 -50 -230 -50l11 39q86 0 136 27t50 71q0 96 -217 96l94 187q-168 20 -278 143q-111 123 -111 311q0 213 134 347q133 133 335 133q134 0 226 -58q93 -58 93 -141
q0 -40 -24 -62t-57 -22q-83 0 -117 133q-28 96 -135 96q-115 0 -212 -93q-98 -93 -98 -271q0 -180 107 -296t270 -116q174 0 258 133z" />
    <glyph glyph-name="egrave" unicode="&#xe8;" horiz-adv-x="983" 
d="M535 1081l-29 -24q-4 5 -34 39l-20 22.5t-16 17.5q-5 6 -17.5 19.5t-28 29.5t-20.5 21q-69 67 -102 88q11 24 53 55q41 29 72 29q70 -96 142 -297zM864 219l29 -16q-36 -105 -129 -163t-219 -58q-194 0 -327 127q-134 128 -134 334t124 342q125 135 320 135
q81 0 151.5 -27.5t113.5 -71.5q41 -43 69 -96q45 -89 15 -207h-654v-8q0 -179 106 -298q105 -120 279 -120t256 127zM506 862q-104 0 -183 -75q-80 -77 -96 -212h521q14 101 -50 194t-192 93z" />
    <glyph glyph-name="eacute" unicode="&#xe9;" horiz-adv-x="983" 
d="M702 1294q-11 -8 -79 -65q-15 -12 -42 -42q-20 -21 -35 -39q-8 -9 -42 -48q-31 -35 -39 -43l-29 24q72 201 142 297q31 0 72 -29q40 -30 52 -55zM864 219l29 -16q-36 -105 -129 -163t-219 -58q-194 0 -327 127q-134 128 -134 334t124 342q125 135 320 135
q81 0 151.5 -27.5t113.5 -71.5q41 -43 69 -96q45 -89 15 -207h-654v-8q0 -179 106 -298q105 -120 279 -120t256 127zM506 862q-104 0 -183 -75q-80 -77 -96 -212h521q14 101 -50 194t-192 93z" />
    <glyph glyph-name="ecircumflex" unicode="&#xea;" horiz-adv-x="983" 
d="M750 1073l-252 201l-250 -201l-25 14l275 318l276 -315zM864 219l29 -16q-36 -105 -129 -163t-219 -58q-194 0 -327 127q-134 128 -134 334t124 342q125 135 320 135q81 0 151.5 -27.5t113.5 -71.5q41 -43 69 -96q45 -89 15 -207h-654v-8q0 -179 106 -298
q105 -120 279 -120t256 127zM506 862q-104 0 -183 -75q-80 -77 -96 -212h521q14 101 -50 194t-192 93z" />
    <glyph glyph-name="edieresis" unicode="&#xeb;" horiz-adv-x="983" 
d="M313 1192q-35 0 -57.5 22.5t-22.5 57.5q0 36 23 59t57 23q37 0 59.5 -22.5t22.5 -59.5q0 -35 -22.5 -57.5t-59.5 -22.5zM682 1192q-35 0 -57.5 22.5t-22.5 57.5q0 37 22.5 59.5t57.5 22.5q37 0 59.5 -22.5t22.5 -59.5q0 -35 -22.5 -57.5t-59.5 -22.5zM864 219l29 -16
q-36 -105 -129 -163t-219 -58q-194 0 -327 127q-134 128 -134 334t124 342q125 135 320 135q81 0 151.5 -27.5t113.5 -71.5q41 -43 69 -96q45 -89 15 -207h-654v-8q0 -179 106 -298q105 -120 279 -120t256 127zM506 862q-104 0 -183 -75q-80 -77 -96 -212h521
q14 101 -50 194t-192 93z" />
    <glyph glyph-name="igrave" unicode="&#xec;" horiz-adv-x="530" 
d="M293 1081l-29 -24q-8 11 -33 39l-20 22.5t-16 17.5q-6 7 -33 35t-34 35q-56 58 -101 88q11 24 53 55q41 29 72 29q70 -98 141 -297zM467 0h-404v35q12 2 24.5 4.5l20 4t10.5 1.5q10 1 38 14q25 11 34 29.5t9 52.5v514q0 61 -26 90q-25 28 -110 39v31q58 11 88 25
q29 12 72 46q41 32 66 48l43 -39v-754q0 -35 8.5 -53t33.5 -29q26 -12 38 -15q13 -3 55 -9v-35z" />
    <glyph glyph-name="iacute" unicode="&#xed;" horiz-adv-x="530" 
d="M223 1057l-28 24q72 199 141 297q31 0 72 -29q42 -31 53 -55q-17 -12 -80 -65q-13 -12 -42 -42q-20 -21 -35 -39q-8 -9 -42 -48q-31 -35 -39 -43zM467 0h-404v35q12 2 24.5 4.5l20 4t10.5 1.5q10 1 38 14q25 11 34 29.5t9 52.5v514q0 61 -26 90q-25 28 -110 39v31
q58 11 88 25q29 12 72 46q41 32 66 48l43 -39v-754q0 -35 8.5 -53t33.5 -29q26 -12 38 -15q13 -3 55 -9v-35z" />
    <glyph glyph-name="icircumflex" unicode="&#xee;" horiz-adv-x="530" 
d="M-18 1087l274 318l276 -315l-24 -17l-252 201l-250 -201zM467 0h-404v35q12 2 24.5 4.5l20 4t10.5 1.5q10 1 38 14q25 11 34 29.5t9 52.5v514q0 61 -26 90q-25 28 -110 39v31q58 11 88 25q29 12 72 46q41 32 66 48l43 -39v-754q0 -35 8.5 -53t33.5 -29q26 -12 38 -15
q13 -3 55 -9v-35z" />
    <glyph glyph-name="idieresis" unicode="&#xef;" horiz-adv-x="530" 
d="M72 1192q-35 0 -57.5 22.5t-22.5 57.5q0 37 22.5 59.5t57.5 22.5q37 0 59.5 -22.5t22.5 -59.5q0 -35 -22.5 -57.5t-59.5 -22.5zM440 1192q-35 0 -57.5 22.5t-22.5 57.5q0 36 23 59t57 23q37 0 59.5 -22.5t22.5 -59.5q0 -35 -22.5 -57.5t-59.5 -22.5zM467 0h-404v35
q12 2 24.5 4.5l20 4t10.5 1.5q10 1 38 14q25 11 34 29.5t9 52.5v514q0 61 -26 90q-25 28 -110 39v31q58 11 88 25q29 12 72 46q41 32 66 48l43 -39v-754q0 -35 8.5 -53t33.5 -29q26 -12 38 -15q13 -3 55 -9v-35z" />
    <glyph glyph-name="eth" unicode="&#xf0;" horiz-adv-x="1124" 
d="M948 1184l-221 -68q131 -110 212 -265q80 -153 81 -325q0 -237 -134 -391q-134 -153 -349 -153q-185 0 -318 127q-135 127 -135 335q0 215 143 346q142 130 332 130q116 0 207 -41q-56 115 -143 202q-203 -67 -347 -125v64q140 39 310 94q-157 132 -336 148l24 43
q215 -12 412 -158q117 40 262 100v-63zM565 47q74 0 130 29t89 75q30 44 46 108q24 98 24 233q0 167 -94 264q-95 98 -225 98q-121 0 -208 -93t-87 -285q0 -193 94 -311t231 -118z" />
    <glyph glyph-name="ntilde" unicode="&#xf1;" horiz-adv-x="1118" 
d="M692 1110q-48 -2 -93 20.5t-73 50t-63.5 50t-67.5 20.5q-54 0 -85 -23.5t-31 -56.5h-31q-18 74 36 130q54 55 146 55q67 0 116 -35q48 -34 89 -71q41 -36 90 -36q54 0 85.5 25t31.5 57h30q18 -74 -35 -130t-145 -56zM461 0h-408v35q12 2 24.5 4.5l20 4t10.5 1.5
q10 1 38 14q25 11 33.5 29.5t8.5 52.5v514q0 62 -25 90t-110 39v31q120 18 184 63q16 11 74 56l41 -39l-45 -172h17q155 197 360 197q131 0 188.5 -79t57.5 -237v-463q0 -35 8.5 -53t34.5 -29q27 -13 38 -14q3 0 10 -1.5t19.5 -4t24.5 -4.5v-35h-408v35q93 13 115 35
q25 25 25 71v461q0 96 -47 151.5t-142 55.5q-161 0 -286 -152v-516q0 -35 8.5 -53t33.5 -29q26 -12 39 -15q14 -3 58 -9v-35z" />
    <glyph glyph-name="ograve" unicode="&#xf2;" horiz-adv-x="1112" 
d="M594 1081l-29 -24q-7 11 -33 39l-20 22.5t-16 17.5q-6 7 -33 35t-34 35q-56 58 -101 88q11 24 53 55q41 29 72 29q71 -98 141 -297zM545 -18q-183 0 -322 128q-139 127 -139 334q0 215 146 346q145 130 337 130q183 0 323 -128q138 -128 138 -335q0 -215 -145 -345
t-338 -130zM569 41q121 0 212 96q91 95 91 289q0 192 -97 313t-232 121q-121 0 -212 -96q-91 -95 -91 -288t97 -314t232 -121z" />
    <glyph glyph-name="oacute" unicode="&#xf3;" horiz-adv-x="1112" 
d="M524 1057l-28 24q72 199 141 297q31 0 72 -29q42 -31 53 -55q-17 -12 -80 -65q-14 -12 -42 -42q-20 -21 -35 -39q-7 -9 -42 -48q-31 -35 -39 -43zM545 -18q-183 0 -322 128q-139 127 -139 334q0 215 146 346q145 130 337 130q183 0 323 -128q138 -128 138 -335
q0 -215 -145 -345t-338 -130zM569 41q121 0 212 96q91 95 91 289q0 192 -97 313t-232 121q-121 0 -212 -96q-91 -95 -91 -288t97 -314t232 -121z" />
    <glyph glyph-name="ocircumflex" unicode="&#xf4;" horiz-adv-x="1112" 
d="M283 1087l274 318l277 -315l-25 -17l-252 201l-250 -201zM545 -18q-183 0 -322 128q-139 127 -139 334q0 215 146 346q145 130 337 130q183 0 323 -128q138 -128 138 -335q0 -215 -145 -345t-338 -130zM569 41q121 0 212 96q91 95 91 289q0 192 -97 313t-232 121
q-121 0 -212 -96q-91 -95 -91 -288t97 -314t232 -121z" />
    <glyph glyph-name="otilde" unicode="&#xf5;" horiz-adv-x="1112" 
d="M692 1110q-48 -2 -93 20.5t-73 50t-63.5 50t-67.5 20.5q-54 0 -85 -23.5t-31 -56.5h-31q-18 74 36 130q54 55 146 55q67 0 116 -35q48 -34 89 -71q41 -36 90 -36q54 0 85.5 25t31.5 57h30q18 -74 -35 -130t-145 -56zM545 -18q-183 0 -322 128q-139 127 -139 334
q0 215 146 346q145 130 337 130q183 0 323 -128q138 -128 138 -335q0 -215 -145 -345t-338 -130zM569 41q121 0 212 96q91 95 91 289q0 192 -97 313t-232 121q-121 0 -212 -96q-91 -95 -91 -288t97 -314t232 -121z" />
    <glyph glyph-name="odieresis" unicode="&#xf6;" horiz-adv-x="1112" 
d="M373 1192q-35 0 -57.5 22.5t-22.5 57.5q0 37 22.5 59.5t57.5 22.5q37 0 59.5 -22.5t22.5 -59.5q0 -35 -22.5 -57.5t-59.5 -22.5zM741 1192q-35 0 -57 22.5t-22 57.5q0 36 22.5 59t56.5 23q37 0 59.5 -22.5t22.5 -59.5q0 -35 -22.5 -57.5t-59.5 -22.5zM545 -18
q-183 0 -322 128q-139 127 -139 334q0 215 146 346q145 130 337 130q183 0 323 -128q138 -128 138 -335q0 -215 -145 -345t-338 -130zM569 41q121 0 212 96q91 95 91 289q0 192 -97 313t-232 121q-121 0 -212 -96q-91 -95 -91 -288t97 -314t232 -121z" />
    <glyph glyph-name="divide" unicode="&#xf7;" horiz-adv-x="1048" 
d="M571 783q-26 -31 -64.5 -13t-39.5 59q0 24 19.5 44t42.5 20t42 -20t19 -44q0 -27 -19 -46zM903 479h-758v72h758v-72zM571 157q-26 -32 -64.5 -14t-39.5 60q0 24 19.5 43.5t42.5 19.5t42 -19.5t19 -43.5q0 -27 -19 -46z" />
    <glyph glyph-name="oslash" unicode="&#xf8;" horiz-adv-x="1112" 
d="M913 977l-84 -135q199 -133 199 -385q0 -215 -145 -345t-338 -130q-116 0 -219 53l-86 -139l-37 30l82 133q-201 134 -201 385q0 215 146 346q145 130 337 130q120 0 221 -56l89 144zM240 475q0 -196 104 -321l391 626q-86 80 -192 80q-121 0 -212 -96q-91 -95 -91 -289z
M569 41q121 0 212 96q91 95 91 289q0 192 -102 319l-391 -626q84 -78 190 -78z" />
    <glyph glyph-name="ugrave" unicode="&#xf9;" horiz-adv-x="1122" 
d="M610 1081l-28 -24q-4 5 -34 39l-20 22.5t-16 17.5q-5 6 -17.5 19.5t-28 29.5t-20.5 21q-67 65 -102 88q11 24 53 55q41 29 72 29q71 -98 141 -297zM438 -18q-260 0 -260 315v473q0 66 -56 82q-27 7 -69 14v35q147 -7 258 12v-610q0 -205 185 -205q165 0 305 115v557
q0 66 -56 82q-27 7 -69 14v35q147 -7 258 12v-743q0 -60 26 -91t109 -44v-35h-260l12 158h-22q-182 -176 -361 -176z" />
    <glyph glyph-name="uacute" unicode="&#xfa;" horiz-adv-x="1122" 
d="M541 1057l-29 24q72 199 141 297q31 0 72 -29q42 -31 53 -55q-11 -8 -79 -65q-15 -12 -42 -42q-20 -21 -35 -39q-8 -9 -42 -48q-31 -35 -39 -43zM438 -18q-260 0 -260 315v473q0 66 -56 82q-27 7 -69 14v35q147 -7 258 12v-610q0 -205 185 -205q165 0 305 115v557
q0 66 -56 82q-27 7 -69 14v35q147 -7 258 12v-743q0 -60 26 -91t109 -44v-35h-260l12 158h-22q-182 -176 -361 -176z" />
    <glyph glyph-name="ucircumflex" unicode="&#xfb;" horiz-adv-x="1122" 
d="M299 1087l274 318l277 -315l-25 -17l-252 201l-249 -201zM438 -18q-260 0 -260 315v473q0 66 -56 82q-27 7 -69 14v35q147 -7 258 12v-610q0 -205 185 -205q165 0 305 115v557q0 66 -56 82q-27 7 -69 14v35q147 -7 258 12v-743q0 -60 26 -91t109 -44v-35h-260l12 158h-22
q-182 -176 -361 -176z" />
    <glyph glyph-name="udieresis" unicode="&#xfc;" horiz-adv-x="1122" 
d="M389 1192q-35 0 -57.5 22.5t-22.5 57.5q0 37 22.5 59.5t57.5 22.5q37 0 59.5 -22.5t22.5 -59.5q0 -35 -22.5 -57.5t-59.5 -22.5zM758 1192q-35 0 -57.5 22.5t-22.5 57.5q0 37 22.5 59.5t57.5 22.5q37 0 59.5 -22.5t22.5 -59.5q0 -35 -22.5 -57.5t-59.5 -22.5zM438 -18
q-260 0 -260 315v473q0 66 -56 82q-27 7 -69 14v35q147 -7 258 12v-610q0 -205 185 -205q165 0 305 115v557q0 66 -56 82q-27 7 -69 14v35q147 -7 258 12v-743q0 -60 26 -91t109 -44v-35h-260l12 158h-22q-182 -176 -361 -176z" />
    <glyph glyph-name="yacute" unicode="&#xfd;" horiz-adv-x="1017" 
d="M719 1294q-17 -12 -80 -65q-13 -12 -42 -42q-20 -21 -35 -39q-8 -9 -42 -48q-31 -35 -39 -43l-28 24q72 199 141 297q31 0 72 -29q42 -31 53 -55zM678 866v35h317v-35q-67 -7 -91 -22q-22 -15 -48 -72l-369 -868q-9 -21 -39 -88q-12 -27 -45 -81q-66 -106 -159 -106
q-60 0 -125 47v105q254 -11 307 123l53 125l-321 745q-22 55 -45 70q-25 15 -90 22v35h395v-35q-94 -13 -115 -37q-14 -20 -2 -55l246 -588l248 586q8 28 7 44.5t-20 25.5q-31 15 -88 22q-14 2 -16 2z" />
    <glyph glyph-name="thorn" unicode="&#xfe;" horiz-adv-x="1079" 
d="M643 920q147 0 250 -117q102 -117 102 -311q0 -227 -138 -368q-138 -142 -337 -142q-124 0 -219 67v-260q0 -66 34 -84q36 -19 130 -29v-34h-438v34q39 5 59 9q16 5 39 15q21 11 29 31.5t8 57.5v500h2q-2 16 -2 37v778q0 106 -150 129v31q143 32 248 116l41 -39v-622
q52 85 145 143q92 58 197 58zM524 43q126 0 233 91q107 92 107 276q0 172 -93 283q-93 110 -226 110q-81 0 -146 -44t-98 -104v-354q0 -110 55 -183q56 -75 168 -75z" />
    <glyph glyph-name="ydieresis" unicode="&#xff;" horiz-adv-x="1017" 
d="M330 1192q-35 0 -57.5 22.5t-22.5 57.5q0 37 22.5 59.5t57.5 22.5q37 0 59.5 -22.5t22.5 -59.5q0 -35 -22.5 -57.5t-59.5 -22.5zM698 1192q-35 0 -57.5 22.5t-22.5 57.5q0 36 23 59t57 23q37 0 59.5 -22.5t22.5 -59.5q0 -35 -22.5 -57.5t-59.5 -22.5zM678 866v35h317v-35
q-67 -7 -91 -22q-22 -15 -48 -72l-369 -868q-9 -21 -39 -88q-12 -27 -45 -81q-66 -106 -159 -106q-60 0 -125 47v105q254 -11 307 123l53 125l-321 745q-22 55 -45 70q-25 15 -90 22v35h395v-35q-94 -13 -115 -37q-14 -20 -2 -55l246 -588l248 586q8 28 7 44.5t-20 25.5
q-31 15 -88 22q-14 2 -16 2z" />
    <glyph glyph-name="Amacron" unicode="&#x100;" horiz-adv-x="1431" 
d="M422 1694h573l-30 -62h-574zM745 1305l498 -1151q29 -68 56 -85q24 -17 110 -34v-35h-473v35q64 13 72 15q44 13 52 23q31 33 3 81l-117 270h-559l-113 -274q-18 -40 -6 -60q1 -1 3 -5t3 -5.5t3.5 -4.5t4 -4t5 -3.5t7 -4t8.5 -3.5q28 -11 62 -18q9 -2 20.5 -4.5
t14.5 -2.5v-35h-376v35q104 20 124 35q29 20 50 77l479 1158h69zM659 1092l-249 -609h512z" />
    <glyph glyph-name="amacron" unicode="&#x101;" 
d="M215 1305h573l-30 -62h-574zM815 610v-430q0 -49 45 -58t109 28v-39q-35 -64 -135 -125q-66 0 -109 51q-43 50 -43 119q-188 -170 -373 -170q-110 0 -172.5 59.5t-62.5 157.5q0 117 92 176q93 59 285 113q128 33 168 50q47 20 63 54v27q0 129 -60 178q-61 49 -206 49
q-71 0 -97 -62q-46 -101 -65 -128q-22 -33 -59 -33q-68 0 -68 67q0 94 144 160q143 66 294 66q137 0 194 -74q56 -74 56 -236zM397 88q84 0 164 44q81 44 121 101v267l-229 -68q-132 -38 -181 -81q-51 -43 -51 -113q0 -80 51 -115q52 -35 125 -35z" />
    <glyph glyph-name="Abreve" unicode="&#x102;" horiz-adv-x="1431" 
d="M884 1604q-63 -70 -192 -70t-192 70q-64 68 -64 176h35q25 -133 221 -133q200 0 219 133h35q0 -105 -62 -176zM745 1305l498 -1151q29 -68 56 -85q24 -17 110 -34v-35h-473v35q64 13 72 15q44 13 52 23q31 33 3 81l-117 270h-559l-113 -274q-18 -40 -6 -60q1 -1 3 -5
t3 -5.5t3.5 -4.5t4 -4t5 -3.5t7 -4t8.5 -3.5q28 -11 62 -18q9 -2 20.5 -4.5t14.5 -2.5v-35h-376v35q104 20 124 35q29 20 50 77l479 1158h69zM659 1092l-249 -609h512z" />
    <glyph glyph-name="abreve" unicode="&#x103;" 
d="M677 1215q-63 -70 -192 -70t-192 70q-64 68 -64 176h35q25 -133 221 -134q199 0 220 134h34q0 -105 -62 -176zM815 610v-430q0 -49 45 -58t109 28v-39q-35 -64 -135 -125q-66 0 -109 51q-43 50 -43 119q-188 -170 -373 -170q-110 0 -172.5 59.5t-62.5 157.5q0 117 92 176
q93 59 285 113q128 33 168 50q47 20 63 54v27q0 129 -60 178q-61 49 -206 49q-71 0 -97 -62q-46 -101 -65 -128q-22 -33 -59 -33q-68 0 -68 67q0 94 144 160q143 66 294 66q137 0 194 -74q56 -74 56 -236zM397 88q84 0 164 44q81 44 121 101v267l-229 -68q-132 -38 -181 -81
q-51 -43 -51 -113q0 -80 51 -115q52 -35 125 -35z" />
    <glyph glyph-name="Aogonek" unicode="&#x104;" horiz-adv-x="1431" 
d="M1409 0h-209q-98 -56 -145 -104q-45 -47 -45 -113q0 -52 29 -81.5t75 -29.5q40 0 111 27v-33q-71 -74 -174 -74q-85 0 -135 42.5t-50 123.5q0 60 45 125l176 117h-151v35q64 13 72 15q44 13 52 23q31 33 3 81l-117 270h-559l-113 -274q-18 -40 -6 -60q1 -1 3 -5t3 -5.5
t3.5 -4.5t4 -4t5 -3.5t7 -4t8.5 -3.5q28 -11 62 -18q9 -2 20.5 -4.5t14.5 -2.5v-35h-376v35q104 20 124 35q29 20 50 77l479 1158h69l498 -1151q29 -68 56 -85q24 -17 110 -34v-35zM659 1092l-249 -609h512z" />
    <glyph glyph-name="aogonek" unicode="&#x105;" 
d="M815 610v-430q0 -49 45 -58t109 28v-39q-35 -64 -135 -125q-15 0 -27 2q-119 -80 -119 -172q0 -52 29.5 -81.5t75.5 -29.5q41 0 110 27v-33q-71 -74 -174 -74q-85 0 -134.5 42t-49.5 124q0 61 45 125l153 102q-61 51 -61 138q-188 -170 -373 -170q-110 0 -172.5 59.5
t-62.5 157.5q0 117 92 176q93 59 285 113q128 33 168 50q47 20 63 54v27q0 129 -60 178q-61 49 -206 49q-71 0 -97 -62q-46 -101 -65 -128q-22 -33 -59 -33q-68 0 -68 67q0 94 144 160q143 66 294 66q137 0 194 -74q56 -74 56 -236zM397 88q84 0 164 44q81 44 121 101v267
l-229 -68q-132 -38 -181 -81q-51 -43 -51 -113q0 -80 51 -115q52 -35 125 -35z" />
    <glyph glyph-name="Cacute" unicode="&#x106;" horiz-adv-x="1335" 
d="M713 1446l-29 24q72 200 141 297q31 0 72 -29q42 -31 53 -55q-11 -8 -79 -65q-15 -12 -42 -42q-20 -21 -35 -39q-8 -9 -42 -48q-31 -35 -39 -43zM784 -25q-298 0 -488 189q-192 188 -192 491q0 291 190 480q190 188 509 188q238 0 395 -94q7 -165 14 -277h-61
q-34 153 -136 230.5t-253 77.5q-213 0 -344 -143q-131 -145 -131 -415q0 -284 167 -462q166 -177 404 -177q91 0 188 27q96 26 152 86l33 -35q-67 -73 -184 -119q-120 -47 -263 -47z" />
    <glyph glyph-name="cacute" unicode="&#x107;" horiz-adv-x="972" 
d="M483 1057l-28 24q72 199 141 297q31 0 72 -29q42 -31 53 -55q-17 -12 -80 -65q-13 -12 -42 -42q-20 -21 -35 -39q-8 -9 -42 -48q-31 -35 -39 -43zM537 -18q-191 0 -321 126q-132 124 -132 332q0 213 134 347q133 133 335 133q134 0 226 -58q93 -58 93 -141q0 -40 -24 -62
t-57 -22q-83 0 -117 133q-28 96 -135 96q-115 0 -212 -93q-98 -93 -98 -271q0 -180 107 -296t270 -116q174 0 258 133l29 -14q-38 -110 -133 -168q-97 -59 -223 -59z" />
    <glyph glyph-name="Cdotaccent" unicode="&#x10a;" horiz-adv-x="1335" 
d="M745 1563q-36 0 -63 25.5t-27 60.5q0 36 28 63t62 27q37 0 65 -27t28 -63q0 -35 -28 -60.5t-65 -25.5zM784 -25q-298 0 -488 189q-192 188 -192 491q0 291 190 480q190 188 509 188q238 0 395 -94q7 -165 14 -277h-61q-34 153 -136 230.5t-253 77.5q-213 0 -344 -143
q-131 -145 -131 -415q0 -284 167 -462q166 -177 404 -177q91 0 188 27q96 26 152 86l33 -35q-67 -73 -184 -119q-120 -47 -263 -47z" />
    <glyph glyph-name="cdotaccent" unicode="&#x10b;" horiz-adv-x="972" 
d="M516 1174q-36 0 -63 25.5t-27 60.5q0 36 27 63t63 27q37 0 64.5 -27t27.5 -63q0 -35 -27.5 -60.5t-64.5 -25.5zM537 -18q-191 0 -321 126q-132 124 -132 332q0 213 134 347q133 133 335 133q134 0 226 -58q93 -58 93 -141q0 -40 -24 -62t-57 -22q-83 0 -117 133
q-28 96 -135 96q-115 0 -212 -93q-98 -93 -98 -271q0 -180 107 -296t270 -116q174 0 258 133l29 -14q-38 -110 -133 -168q-97 -59 -223 -59z" />
    <glyph glyph-name="Ccaron" unicode="&#x10c;" horiz-adv-x="1335" 
d="M1018 1780l-277 -316l-274 318l25 14l249 -201l252 201zM784 -25q-298 0 -488 189q-192 188 -192 491q0 291 190 480q190 188 509 188q238 0 395 -94q7 -165 14 -277h-61q-34 153 -136 230.5t-253 77.5q-213 0 -344 -143q-131 -145 -131 -415q0 -284 167 -462
q166 -177 404 -177q91 0 188 27q96 26 152 86l33 -35q-67 -73 -184 -119q-120 -47 -263 -47z" />
    <glyph glyph-name="ccaron" unicode="&#x10d;" horiz-adv-x="972" 
d="M788 1391l-276 -316l-274 318l24 14l250 -201l252 201zM537 -18q-191 0 -321 126q-132 124 -132 332q0 213 134 347q133 133 335 133q134 0 226 -58q93 -58 93 -141q0 -40 -24 -62t-57 -22q-83 0 -117 133q-28 96 -135 96q-115 0 -212 -93q-98 -93 -98 -271
q0 -180 107 -296t270 -116q174 0 258 133l29 -14q-38 -110 -133 -168q-97 -59 -223 -59z" />
    <glyph glyph-name="Dcaron" unicode="&#x10e;" horiz-adv-x="1366" 
d="M932 1796l24 -16l-276 -316l-274 318l24 14l250 -201zM63 1290h469q310 0 511 -145q104 -76 161.5 -202.5t57.5 -289.5q0 -224 -101 -375q-102 -151 -261 -214q-158 -64 -368 -64h-469v35q103 19 132 41q39 33 38 121v897q0 53 -7.5 79t-34.5 43q-29 16 -42 21
q-7 2 -69 14q-4 1 -9.5 2.5t-7.5 1.5v35zM590 66q260 0 377 144q116 145 116 423q0 283 -131 438q-130 154 -440 154h-121v-963q0 -109 42 -152q42 -44 157 -44z" />
    <glyph glyph-name="dcaron" unicode="&#x10f;" horiz-adv-x="1036" 
d="M913 1368v-1198q0 -60 26 -91q26 -30 110 -44v-35h-258l16 186h-23q-129 -206 -333 -204q-156 0 -261 118q-106 116 -106 312q0 218 146 364q146 144 343 144q124 0 207 -62v272q0 60 -33.5 89.5t-119.5 40.5v30q148 32 245 117zM958 1337q22 17 73 19q50 0 77 -21
q0 -121 -59 -321l-39 -4q-4 28 -9 86q-7 68 -10 88q-11 89 -33 153zM535 94q100 0 162 62q61 60 83 143v399q-11 66 -68 115q-58 49 -159 49q-137 0 -237 -96q-101 -96 -101 -277q0 -177 95 -286q94 -109 225 -109z" />
    <glyph glyph-name="Dcroat" unicode="&#x110;" horiz-adv-x="1388" 
d="M86 1290h469q311 0 510 -145q104 -76 161.5 -202.5t57.5 -289.5q0 -224 -101 -375t-260 -214q-158 -64 -368 -64h-469v35q103 19 131 41q39 33 39 121v413l-193 -6l21 66q103 -4 172 -4v428q0 53 -8 79t-35 43q-29 16 -42 21q-7 2 -69 14l-16 4v35zM612 66
q256 0 375 141.5t119 425.5q0 283 -131 438q-130 154 -440 154h-121v-561q130 0 264 6l-21 -66q-123 6 -243 6v-348q0 -109 42 -152q41 -44 156 -44z" />
    <glyph glyph-name="dslash" unicode="&#x111;" horiz-adv-x="1110" 
d="M913 1010v-840q0 -60 26 -91q26 -30 110 -44v-35h-258l16 186h-23q-129 -206 -333 -204q-156 0 -261 118q-106 116 -106 312q0 218 146 364q146 144 343 144q124 0 207 -62v154q-182 0 -366 -6l20 65q176 -6 346 -6v65q0 60 -33.5 89.5t-119.5 40.5v30q148 32 245 117
l41 -39v-301q12 1 58 2t57 2l-20 -65q-9 1 -47.5 2t-47.5 2zM535 94q100 0 162 62q61 60 83 143v399q-11 66 -68 115q-58 49 -159 49q-137 0 -237 -96q-101 -96 -101 -277q0 -177 95 -286q94 -109 225 -109z" />
    <glyph glyph-name="Emacron" unicode="&#x112;" horiz-adv-x="1179" 
d="M322 1694h573l-31 -62h-573zM1061 297h45l-84 -297h-959v35q103 19 132 41q39 33 38 121v897q0 53 -7.5 79t-34.5 43q-29 16 -42 21q-7 2 -69 14q-4 1 -9.5 2.5t-7.5 1.5v35h955l18 -280h-45q-13 116 -55 167q-41 50 -145 50h-207q-120 0 -157 -26q-36 -27 -36 -130v-389
h182q176 0 226 35q48 34 59 137h33v-405h-33q-11 103 -59 137q-50 35 -226 35h-182v-402q0 -102 36 -129t157 -27h164q122 0 189 51q67 49 124 183z" />
    <glyph glyph-name="emacron" unicode="&#x113;" horiz-adv-x="983" 
d="M227 1305h574l-31 -62h-573zM864 219l29 -16q-36 -105 -129 -163t-219 -58q-194 0 -327 127q-134 128 -134 334t124 342q125 135 320 135q81 0 151.5 -27.5t113.5 -71.5q41 -43 69 -96q45 -89 15 -207h-654v-8q0 -179 106 -298q105 -120 279 -120t256 127zM506 862
q-104 0 -183 -75q-80 -77 -96 -212h521q14 101 -50 194t-192 93z" />
    <glyph glyph-name="Edotaccent" unicode="&#x116;" horiz-adv-x="1179" 
d="M592 1563q-36 0 -63 25.5t-27 60.5q0 36 27 63t63 27q37 0 64.5 -26.5t27.5 -63.5q0 -35 -27.5 -60.5t-64.5 -25.5zM1061 297h45l-84 -297h-959v35q103 19 132 41q39 33 38 121v897q0 53 -7.5 79t-34.5 43q-29 16 -42 21q-7 2 -69 14q-4 1 -9.5 2.5t-7.5 1.5v35h955
l18 -280h-45q-13 116 -55 167q-41 50 -145 50h-207q-120 0 -157 -26q-36 -27 -36 -130v-389h182q176 0 226 35q48 34 59 137h33v-405h-33q-11 103 -59 137q-50 35 -226 35h-182v-402q0 -102 36 -129t157 -27h164q122 0 189 51q67 49 124 183z" />
    <glyph glyph-name="edotaccent" unicode="&#x117;" horiz-adv-x="983" 
d="M498 1174q-36 0 -63 25.5t-27 60.5q0 36 27 63t63 27q37 0 64.5 -27t27.5 -63q0 -35 -27.5 -60.5t-64.5 -25.5zM864 219l29 -16q-36 -105 -129 -163t-219 -58q-194 0 -327 127q-134 128 -134 334t124 342q125 135 320 135q81 0 151.5 -27.5t113.5 -71.5q41 -43 69 -96
q45 -89 15 -207h-654v-8q0 -179 106 -298q105 -120 279 -120t256 127zM506 862q-104 0 -183 -75q-80 -77 -96 -212h521q14 101 -50 194t-192 93z" />
    <glyph glyph-name="Eogonek" unicode="&#x118;" horiz-adv-x="1179" 
d="M1022 0h-70q-98 -56 -145 -104q-45 -46 -45 -113q0 -52 29 -81.5t75 -29.5q40 0 111 27v-33q-71 -74 -174 -74q-85 0 -135 42.5t-50 123.5q0 61 46 125l176 117h-777v35q103 19 132 41q39 33 38 121v897q0 53 -7.5 79t-34.5 43q-29 16 -42 21q-7 2 -69 14q-4 1 -9.5 2.5
t-7.5 1.5v35h955l18 -280h-45q-13 116 -55 167q-41 50 -145 50h-207q-120 0 -157 -26q-36 -27 -36 -130v-389h182q176 0 226 35q48 34 59 137h33v-405h-33q-11 103 -59 137q-50 35 -226 35h-182v-402q0 -102 36 -129t157 -27h164q122 0 189 51q67 49 124 183h45z" />
    <glyph glyph-name="eogonek" unicode="&#x119;" horiz-adv-x="983" 
d="M668 -2q-99 -58 -142 -104q-45 -46 -45 -111q0 -52 29.5 -81.5t75.5 -29.5q41 0 110 27v-33q-71 -74 -174 -74q-85 0 -134.5 42t-49.5 124q0 60 45 125l147 99q-189 5 -317 131q-129 127 -129 329q0 207 124 343q125 135 320 135q81 0 151.5 -27.5t113.5 -71.5
q41 -43 69 -96q45 -89 15 -207h-654v-8q0 -179 106 -298q105 -120 279 -120t256 127l29 -16q-55 -160 -225 -205zM506 862q-104 0 -183 -75q-80 -77 -96 -212h521q14 101 -50 194t-192 93z" />
    <glyph glyph-name="Ecaron" unicode="&#x11a;" horiz-adv-x="1179" 
d="M840 1796l24 -16l-276 -316l-275 318l25 14l250 -201zM1061 297h45l-84 -297h-959v35q103 19 132 41q39 33 38 121v897q0 53 -7.5 79t-34.5 43q-29 16 -42 21q-7 2 -69 14q-4 1 -9.5 2.5t-7.5 1.5v35h955l18 -280h-45q-13 116 -55 167q-41 50 -145 50h-207
q-120 0 -157 -26q-36 -27 -36 -130v-389h182q176 0 226 35q48 34 59 137h33v-405h-33q-11 103 -59 137q-50 35 -226 35h-182v-402q0 -102 36 -129t157 -27h164q122 0 189 51q67 49 124 183z" />
    <glyph glyph-name="ecaron" unicode="&#x11b;" horiz-adv-x="983" 
d="M745 1407l25 -16l-276 -316l-275 318l25 14l250 -201zM864 219l29 -16q-36 -105 -129 -163t-219 -58q-194 0 -327 127q-134 128 -134 334t124 342q125 135 320 135q81 0 151.5 -27.5t113.5 -71.5q41 -43 69 -96q45 -89 15 -207h-654v-8q0 -179 106 -298
q105 -120 279 -120t256 127zM506 862q-104 0 -183 -75q-80 -77 -96 -212h521q14 101 -50 194t-192 93z" />
    <glyph glyph-name="Gbreve" unicode="&#x11e;" horiz-adv-x="1476" 
d="M931 1604q-63 -70 -192 -70t-192 70q-64 68 -64 176h35q25 -133 221 -133q200 0 219 133h35q0 -105 -62 -176zM856 -25q-354 0 -553 190q-199 189 -199 490q0 291 190 480q190 188 511 188q248 0 405 -94q7 -185 15 -277h-62q-35 153 -135.5 230.5t-251.5 77.5
q-219 0 -354 -151t-135 -402q0 -293 166 -480q165 -188 454 -188q106 0 142 45t36 162v114q0 137 -44 179q-43 40 -181 51v43h522v-43q-85 -11 -116 -40q-33 -30 -33 -108v-159q0 -34 4 -69.5t8.5 -56.5t10.5 -44t6 -25q-39 -45 -154 -79q-114 -34 -252 -34z" />
    <glyph glyph-name="gbreve" unicode="&#x11f;" horiz-adv-x="995" 
d="M702 1215q-63 -70 -192 -70t-192 70q-64 68 -64 176h35q25 -133 221 -134q199 0 219 134h35q0 -105 -62 -176zM911 879v-84l-176 22q76 -79 76 -188q0 -128 -97 -207q-99 -81 -245 -82h-109q-35 0 -58 -23.5t-23 -60.5q0 -88 90 -98l235 -23q180 -17 240 -46
q61 -30 61 -118q0 -154 -145 -253q-145 -98 -354 -103q-176 -2 -263 65q-90 68 -90 173q0 38 62 97q60 57 141 103q-123 45 -123 142q0 30 58 91q56 61 104 87q-83 37 -129.5 104t-46.5 152q0 129 99 210t247 81q72 0 141 -23q51 -18 305 -18zM367 413q41 -24 98 -24t98 24
q65 37 88 140q17 76 0 153q-23 103 -88 142q-41 24 -98 24t-98 -24q-65 -39 -88 -142q-19 -77 0 -153q23 -103 88 -140zM588 8l-205 19q-89 8 -136 -44q-48 -51 -48 -122q0 -69 55 -124q56 -56 197 -56q163 0 240 69q75 70 75 160q0 56 -38 73q-40 18 -140 25z" />
    <glyph glyph-name="Gdotaccent" unicode="&#x120;" horiz-adv-x="1476" 
d="M739 1563q-36 0 -63 25.5t-27 60.5q0 36 28 63t62 27q37 0 64.5 -26.5t27.5 -63.5q0 -35 -27.5 -60.5t-64.5 -25.5zM856 -25q-354 0 -553 190q-199 189 -199 490q0 291 190 480q190 188 511 188q248 0 405 -94q7 -185 15 -277h-62q-35 153 -135.5 230.5t-251.5 77.5
q-219 0 -354 -151t-135 -402q0 -293 166 -480q165 -188 454 -188q106 0 142 45t36 162v114q0 137 -44 179q-43 40 -181 51v43h522v-43q-85 -11 -116 -40q-33 -30 -33 -108v-159q0 -34 4 -69.5t8.5 -56.5t10.5 -44t6 -25q-39 -45 -154 -79q-114 -34 -252 -34z" />
    <glyph glyph-name="gdotaccent" unicode="&#x121;" horiz-adv-x="995" 
d="M510 1174q-36 0 -63 25.5t-27 60.5q0 36 27 63t63 27q37 0 64.5 -27t27.5 -63q0 -35 -27.5 -60.5t-64.5 -25.5zM911 879v-84l-176 22q76 -79 76 -188q0 -128 -97 -207q-99 -81 -245 -82h-109q-35 0 -58 -23.5t-23 -60.5q0 -88 90 -98l235 -23q180 -17 240 -46
q61 -30 61 -118q0 -154 -145 -253q-145 -98 -354 -103q-176 -2 -263 65q-90 68 -90 173q0 38 62 97q60 57 141 103q-123 45 -123 142q0 30 58 91q56 61 104 87q-83 37 -129.5 104t-46.5 152q0 129 99 210t247 81q72 0 141 -23q51 -18 305 -18zM367 413q41 -24 98 -24t98 24
q65 37 88 140q17 76 0 153q-23 103 -88 142q-41 24 -98 24t-98 -24q-65 -39 -88 -142q-19 -77 0 -153q23 -103 88 -140zM588 8l-205 19q-89 8 -136 -44q-48 -51 -48 -122q0 -69 55 -124q56 -56 197 -56q163 0 240 69q75 70 75 160q0 56 -38 73q-40 18 -140 25z" />
    <glyph glyph-name="uni0122" unicode="&#x122;" horiz-adv-x="1476" 
d="M856 -25q-354 0 -553 190q-199 189 -199 490q0 291 190 480q190 188 511 188q248 0 405 -94q7 -185 15 -277h-62q-35 153 -135.5 230.5t-251.5 77.5q-219 0 -354 -151t-135 -402q0 -293 166 -480q165 -188 454 -188q106 0 142 45t36 162v114q0 137 -44 179
q-43 40 -181 51v43h522v-43q-85 -11 -116 -40q-33 -30 -33 -108v-159q0 -34 4 -69.5t8.5 -56.5t10.5 -44t6 -25q-39 -45 -154 -79q-114 -34 -252 -34zM612 -590l-18 31q66 30 107.5 78.5t48.5 95.5q8 30 -10 48q-11 8 -38 18q-59 35 -59 98q0 44 30.5 73t74.5 29
q52 0 88 -41t36 -106q0 -92 -66 -186q-68 -93 -194 -138z" />
    <glyph glyph-name="uni0123" unicode="&#x123;" horiz-adv-x="995" 
d="M406 1145q-52 0 -88.5 41t-36.5 106q0 92 67 186q66 93 193 138l18 -31q-66 -30 -107.5 -78.5t-48.5 -95.5q-8 -30 10 -48q7 -7 18 -10q1 0 9.5 -3.5t10.5 -3.5q59 -35 59 -99q0 -44 -30.5 -73t-73.5 -29zM911 879v-84l-176 22q76 -79 76 -188q0 -128 -97 -207
q-99 -81 -245 -82h-109q-35 0 -58 -23.5t-23 -60.5q0 -88 90 -98l235 -23q180 -17 240 -46q61 -30 61 -118q0 -154 -145 -253q-145 -98 -354 -103q-176 -2 -263 65q-90 68 -90 173q0 38 62 97q60 57 141 103q-123 45 -123 142q0 30 58 91q56 61 104 87q-83 37 -129.5 104
t-46.5 152q0 129 99 210t247 81q72 0 141 -23q51 -18 305 -18zM367 413q41 -24 98 -24t98 24q65 37 88 140q17 76 0 153q-23 103 -88 142q-41 24 -98 24t-98 -24q-65 -39 -88 -142q-19 -77 0 -153q23 -103 88 -140zM588 8l-205 19q-89 8 -136 -44q-48 -51 -48 -122
q0 -69 55 -124q56 -56 197 -56q163 0 240 69q75 70 75 160q0 56 -38 73q-40 18 -140 25z" />
    <glyph glyph-name="Hbar" unicode="&#x126;" horiz-adv-x="1404" 
d="M1341 1290v-35q-103 -19 -131 -41q-39 -33 -39 -120v-897q0 -52 8.5 -79t35.5 -43q27 -17 42 -22q8 -3 68 -14l16 -4v-35h-497v35q103 19 131 41q39 33 39 121v421h-623v-421q0 -52 8.5 -79t35.5 -43q28 -18 41 -22q7 -2 69 -14l16 -4v-35h-498v35q103 19 132 41
q39 33 38 121v645h-32v59h32v193q0 53 -7.5 79t-34.5 43q-29 16 -42 21q-7 2 -69 14q-4 1 -9.5 2.5t-7.5 1.5v35h498v-35q-103 -19 -131 -41q-39 -33 -39 -120v-193h623v193q0 52 -8 78.5t-35 43.5q-29 16 -42 21q-7 2 -69 14l-16 4v35h497zM391 842v-164h623v164h-623z" />
    <glyph glyph-name="hbar" unicode="&#x127;" horiz-adv-x="1175" 
d="M987 604v-463q0 -35 9 -53t35 -29q27 -13 37 -14q3 0 10 -1.5t19.5 -4t24.5 -4.5v-35h-407v35q94 13 114 35q25 25 25 71v465q0 94 -46.5 148.5t-139.5 54.5q-164 0 -289 -147v-521q0 -35 8.5 -53t33.5 -29q25 -12 39 -15t58 -9v-35h-422v35q1 0 12.5 2t24.5 4.5t16 2.5
q24 2 49 15q49 27 48 82v871l-183 -6l21 65q95 -4 162 -4v63q0 106 -150 130v30q142 32 242 117l41 -39v-303q151 0 299 6l-21 -65q-141 6 -278 6v-289h2q146 197 360 197q131 0 188.5 -79t57.5 -237z" />
    <glyph glyph-name="Imacron" unicode="&#x12a;" horiz-adv-x="624" 
d="M586 1632h-574l31 62h573zM561 0h-498v35q103 19 132 41q39 33 38 121v897q0 53 -7.5 79t-34.5 43q-29 16 -42 21q-7 2 -69 14q-4 1 -9.5 2.5t-7.5 1.5v35h498v-35q-103 -19 -131 -41q-39 -33 -39 -120v-897q0 -52 8.5 -79t35.5 -43q28 -18 41 -22q7 -2 69 -14l16 -4v-35
z" />
    <glyph glyph-name="imacron" unicode="&#x12b;" horiz-adv-x="530" 
d="M528 1243h-573l31 62h573zM467 0h-404v35q12 2 24.5 4.5l20 4t10.5 1.5q10 1 38 14q25 11 34 29.5t9 52.5v514q0 61 -26 90q-25 28 -110 39v31q58 11 88 25q29 12 72 46q41 32 66 48l43 -39v-754q0 -35 8.5 -53t33.5 -29q26 -12 38 -15q13 -3 55 -9v-35z" />
    <glyph glyph-name="Iogonek" unicode="&#x12e;" horiz-adv-x="624" 
d="M561 1290v-35q-103 -19 -131 -41q-39 -33 -39 -120v-897q0 -52 8.5 -79t35.5 -43q28 -18 41 -22q7 -2 69 -14l16 -4v-35h-170q-98 -56 -145 -104q-45 -46 -45 -113q0 -52 29 -81.5t75 -29.5q41 0 111 27v-33q-71 -74 -174 -74q-85 0 -135 42.5t-50 123.5q0 60 45 125
l177 117h-216v35q103 19 132 41q39 33 38 121v897q0 53 -7.5 79t-34.5 43q-29 16 -42 21q-7 2 -69 14q-4 1 -9.5 2.5t-7.5 1.5v35h498z" />
    <glyph glyph-name="iogonek" unicode="&#x12f;" horiz-adv-x="530" 
d="M256 1174q-36 0 -63 25.5t-27 60.5q0 36 27 63t63 27q37 0 64.5 -27t27.5 -63q0 -35 -27.5 -60.5t-64.5 -25.5zM467 0h-111q-98 -56 -145 -104q-45 -46 -45 -113q0 -52 29 -81.5t75 -29.5q40 0 111 27v-33q-71 -74 -174 -74q-85 0 -134.5 42t-49.5 124q0 60 45 125
l176 117h-181v35q12 2 24.5 4.5l20 4t10.5 1.5q10 1 38 14q25 11 34 29.5t9 52.5v514q0 61 -26 90q-25 28 -110 39v31q58 11 88 25q29 12 72 46q41 32 66 48l43 -39v-754q0 -42 20 -67l4 2v-6q20 -19 111 -35v-35z" />
    <glyph glyph-name="Idot" unicode="&#x130;" horiz-adv-x="624" 
d="M313 1563q-36 0 -63 25.5t-27 60.5q0 36 28 63t62 27q37 0 65 -27t28 -63q0 -35 -28 -60.5t-65 -25.5zM561 0h-498v35q103 19 132 41q39 33 38 121v897q0 53 -7.5 79t-34.5 43q-29 16 -42 21q-7 2 -69 14q-4 1 -9.5 2.5t-7.5 1.5v35h498v-35q-103 -19 -131 -41
q-39 -33 -39 -120v-897q0 -52 8.5 -79t35.5 -43q28 -18 41 -22q7 -2 69 -14l16 -4v-35z" />
    <glyph glyph-name="dotlessi" unicode="&#x131;" horiz-adv-x="530" 
d="M467 0h-404v35q12 2 24.5 4.5l20 4t10.5 1.5q10 1 38 14q25 11 34 29.5t9 52.5v514q0 61 -26 90q-25 28 -110 39v31q58 11 88 25q29 12 72 46q41 32 66 48l43 -39v-754q0 -35 8.5 -53t33.5 -29q26 -12 38 -15q13 -3 55 -9v-35z" />
    <glyph glyph-name="IJ" unicode="&#x132;" horiz-adv-x="1251" 
d="M561 0h-498v35q103 19 132 41q39 33 38 121v897q0 53 -7.5 79t-34.5 43q-29 16 -42 21q-7 2 -69 14q-4 1 -9.5 2.5t-7.5 1.5v35h498v-35q-103 -19 -131 -41q-39 -33 -39 -120v-897q0 -52 8.5 -79t35.5 -43q28 -18 41 -22q7 -2 69 -14l16 -4v-35zM645 -379q-16 25 0 43
q140 50 177 115q38 68 38 233v1082q0 53 -10 81t-40 44q-31 16 -50 21q-22 5 -80 15v35h508v-35q-103 -19 -131 -41q-39 -33 -39 -120v-1102q0 -172 -102 -256q-103 -83 -271 -115z" />
    <glyph glyph-name="ij" unicode="&#x133;" horiz-adv-x="983" 
d="M312 1220q-29 -26 -64 -26t-63.5 25.5t-26.5 60.5q0 37 26.5 63.5t63.5 26.5t63.5 -26.5t26.5 -63.5q0 -34 -26 -60zM768 1194q-36 0 -63 25.5t-27 60.5q0 36 27 63t63 27q37 0 64.5 -26.5t27.5 -63.5q0 -35 -27.5 -60.5t-64.5 -25.5zM467 0h-404v35q12 2 24.5 4.5l20 4
t10.5 1.5q10 1 38 14q25 11 34 29.5t9 52.5v514q0 61 -26 90q-25 28 -110 39v31q72 12 120 38q45 25 106 81l43 -39v-754q0 -35 8.5 -53t33.5 -29q26 -12 38 -15q13 -3 55 -9v-35zM539 -379q-8 8 -8.5 22.5t8.5 20.5q95 34 135 96q41 62 41 201v694q0 62 -25 90t-110 39v31
q58 11 88 25q28 13 71 46q41 32 66 48l43 -39v-930q0 -303 -309 -344z" />
    <glyph glyph-name="uni0136" unicode="&#x136;" horiz-adv-x="1353" 
d="M662 776l483 -665q20 -28 35 -43q11 -12 47 -23q33 -10 94 -10v-35h-328q0 57 -57 137l-379 537l-166 -162v-315q0 -52 8.5 -79t35.5 -43q28 -18 41 -22q7 -2 69 -14l16 -4v-35h-498v35q103 19 132 41q39 33 38 121v897q0 53 -7.5 79t-34.5 43q-29 16 -42 21q-7 2 -69 14
q-4 1 -9.5 2.5t-7.5 1.5v35h498v-35q-103 -19 -131 -41q-39 -33 -39 -120v-480l537 527q48 45 23.5 79.5t-107.5 34.5v35h434v-35q-57 0 -107.5 -17t-73.5 -37q-24 -20 -65 -60zM322 -119q52 0 88 -41t36 -106q0 -92 -66 -186q-68 -93 -194 -138l-18 31q66 30 107.5 78.5
t48.5 95.5q8 30 -10 48q-11 8 -38 18q-59 35 -59 98q0 44 30.5 73t74.5 29z" />
    <glyph glyph-name="uni0137" unicode="&#x137;" horiz-adv-x="1050" 
d="M553 575l336 -466q26 -36 57 -50q31 -15 94 -22v-37h-266q0 36 -37 98l-272 391l-119 -116v-232q0 -31 14 -52q10 -16 34 -30q22 -12 50 -15q2 0 15 -2.5t24.5 -4.5t12.5 -2v-35h-433v35q8 0 53 9q28 3 49 15q26 14 35 30q13 22 13 52v989q0 106 -150 130v30
q142 32 242 117l41 -39v-903l297 289q47 45 29 73.5t-97 36.5v37h388v-37q-135 -12 -215 -98zM535 -119q52 0 88 -41t36 -106q0 -92 -66 -186q-68 -93 -194 -138l-18 31q66 30 107.5 78.5t48.5 95.5q8 30 -10 48q-11 8 -38 18q-59 35 -59 98q0 44 30.5 73t74.5 29z" />
    <glyph glyph-name="Lacute" unicode="&#x139;" horiz-adv-x="1161" 
d="M268 1446l-28 24q72 200 141 297q31 0 72 -29q42 -31 53 -55q-17 -12 -80 -65q-14 -12 -42 -42q-20 -21 -35 -39q-7 -9 -42 -48q-31 -35 -39 -43zM1026 0h-963v35q103 19 132 41q39 33 38 121v897q0 53 -7.5 79t-34.5 43q-29 16 -42 21q-7 2 -69 14q-4 1 -9.5 2.5
t-7.5 1.5v35h547v-35q-3 0 -15.5 -2.5t-23.5 -4.5t-24.5 -4.5t-15.5 -2.5q-48 -8 -70 -22q-2 -1 -9.5 -6t-12 -8.5t-11.5 -9t-11.5 -11t-6.5 -10.5q-19 -42 -19 -80v-877q0 -102 36 -129t157 -27h170q120 0 187 55q68 54 126 193h43z" />
    <glyph glyph-name="lacute" unicode="&#x13a;" horiz-adv-x="559" 
d="M229 1454l-28 25q72 199 141 297q32 0 72 -30q41 -31 53 -54q-10 -7 -80 -66q-13 -12 -42 -42q-20 -21 -35 -39q-8 -9 -42 -48q-31 -35 -39 -43zM496 0h-433v35q8 0 53 9q28 3 49 15q26 14 35 30q13 22 13 52v989q0 106 -150 130v30q142 32 242 117l41 -39v-1227
q0 -31 14 -52q10 -16 34 -30q22 -12 50 -15q2 0 15 -2.5t24.5 -4.5t12.5 -2v-35z" />
    <glyph glyph-name="uni013B" unicode="&#x13b;" horiz-adv-x="1161" 
d="M1026 0h-963v35q103 19 132 41q39 33 38 121v897q0 53 -7.5 79t-34.5 43q-29 16 -42 21q-7 2 -69 14q-4 1 -9.5 2.5t-7.5 1.5v35h547v-35q-3 0 -15.5 -2.5t-23.5 -4.5t-24.5 -4.5t-15.5 -2.5q-48 -8 -70 -22q-2 -1 -9.5 -6t-12 -8.5t-11.5 -9t-11.5 -11t-6.5 -10.5
q-19 -42 -19 -80v-877q0 -102 36 -129t157 -27h170q120 0 187 55q68 54 126 193h43zM465 -590l-19 31q66 30 108 78.5t48 95.5q3 10 3.5 18.5t-2 14.5t-6 10.5t-9.5 8t-10.5 5.5t-12 5t-10.5 4q-59 35 -59 98q0 44 30.5 73t73.5 29q52 0 88.5 -41t36.5 -106q0 -92 -66 -186
q-68 -93 -194 -138z" />
    <glyph glyph-name="uni013C" unicode="&#x13c;" horiz-adv-x="559" 
d="M496 0h-433v35q8 0 53 9q28 3 49 15q26 14 35 30q13 22 13 52v989q0 106 -150 130v30q142 32 242 117l41 -39v-1227q0 -31 14 -52q10 -16 34 -30q22 -12 50 -15q2 0 15 -2.5t24.5 -4.5t12.5 -2v-35zM154 -590l-19 31q66 30 108 78.5t48 95.5q6 11 3.5 21.5t-3.5 16
t-9 10.5t-12.5 7.5t-13.5 6t-12 4.5q-58 34 -60 98q0 44 30.5 73t74.5 29q52 0 88.5 -41t36.5 -106q0 -92 -66 -186q-68 -93 -194 -138z" />
    <glyph glyph-name="Lcaron" unicode="&#x13d;" horiz-adv-x="1161" 
d="M1026 0h-963v35q103 19 132 41q39 33 38 121v897q0 53 -7.5 79t-34.5 43q-29 16 -42 21q-7 2 -69 14q-4 1 -9.5 2.5t-7.5 1.5v35h547v-35q-3 0 -15.5 -2.5t-23.5 -4.5t-24.5 -4.5t-15.5 -2.5q-48 -8 -70 -22q-2 -1 -9.5 -6t-12 -8.5t-11.5 -9t-11.5 -11t-6.5 -10.5
q-19 -42 -19 -80v-877q0 -102 36 -129t157 -27h170q120 0 187 55q68 54 126 193h43zM688 815l-18 31q66 30 107.5 78.5t47.5 95.5q2 7 2.5 13.5t0.5 11.5t-2.5 9.5t-3.5 7.5t-6 6t-7 4.5t-8 4t-7.5 3t-8 3t-7.5 2.5q-59 35 -59 99q0 44 30.5 73t73.5 29q52 0 88.5 -41
t36.5 -106q0 -92 -66 -185q-67 -94 -194 -139z" />
    <glyph glyph-name="lcaron" unicode="&#x13e;" horiz-adv-x="464" 
d="M496 0h-433v35q8 0 53 9q28 3 49 15q26 14 35 30q13 22 13 52v989q0 106 -150 130v30q142 32 242 117l41 -39v-1227q0 -31 14 -52q10 -16 34 -30q22 -12 50 -15q2 0 15 -2.5t24.5 -4.5t12.5 -2v-35zM477 1014l-39 -4q-4 28 -9 86q-4 56 -9 88q-12 93 -33 153q22 17 73 19
q50 0 77 -21q-1 -121 -60 -321z" />
    <glyph glyph-name="Ldot" unicode="&#x13f;" horiz-adv-x="1161" 
d="M1026 0h-963v35q103 19 132 41q39 33 38 121v897q0 53 -7.5 79t-34.5 43q-29 16 -42 21q-7 2 -69 14q-4 1 -9.5 2.5t-7.5 1.5v35h547v-35q-3 0 -15.5 -2.5t-23.5 -4.5t-24.5 -4.5t-15.5 -2.5q-48 -8 -70 -22q-2 -1 -9.5 -6t-12 -8.5t-11.5 -9t-11.5 -11t-6.5 -10.5
q-19 -42 -19 -80v-877q0 -102 36 -129t157 -27h170q120 0 187 55q68 54 126 193h43zM827 564q-31 -28 -74.5 -28t-74.5 28t-31 71q0 44 31 72q31 29 74.5 29t74.5 -29q31 -28 31 -72q0 -43 -31 -71z" />
    <glyph glyph-name="ldot" unicode="&#x140;" horiz-adv-x="573" 
d="M496 0h-433v35q8 0 53 9q28 3 49 15q26 14 35 30q13 22 13 52v989q0 106 -150 130v30q142 32 242 117l41 -39v-1227q0 -31 14 -52q10 -16 34 -30q22 -12 50 -15q2 0 15 -2.5t24.5 -4.5t12.5 -2v-35zM620 621q-32 -29 -75 -29t-74 29q-31 28 -31 71q0 44 31 72
q31 29 74 29t75 -29q31 -28 31 -72q0 -43 -31 -71z" />
    <glyph glyph-name="Lslash" unicode="&#x141;" horiz-adv-x="1183" 
d="M1090 309h43l-84 -309h-963v35q103 19 131 41q39 33 39 121v456q-47 -16 -193 -71v63q17 5 193 57v392q0 53 -8 79t-35 43q-29 16 -42 21q-7 2 -69 14l-16 4v35h547v-35q-2 0 -15.5 -2.5t-24.5 -4.5t-24.5 -4.5t-15.5 -2.5q-48 -9 -69 -22q-45 -29 -52 -45
q-18 -45 -18 -80v-340q128 42 321 118v-65q-276 -85 -321 -100v-490q0 -102 36 -129q34 -27 156 -27h170q120 0 187 55q69 55 127 193z" />
    <glyph glyph-name="lslash" unicode="&#x142;" horiz-adv-x="591" 
d="M379 702v-561q0 -30 13 -52q9 -16 35 -30q21 -12 49 -15q2 0 15 -2.5t24.5 -4.5t12.5 -2v-35h-432v35q1 0 12.5 2t24.5 4.5t16 2.5q24 2 49 15q49 27 48 82v516q-128 -47 -183 -73v59q147 47 183 57v430q0 106 -150 130v30q142 32 242 117l41 -39v-618q52 17 117 49v-60z
" />
    <glyph glyph-name="Nacute" unicode="&#x143;" horiz-adv-x="1437" 
d="M926 1683q-17 -12 -80 -65q-15 -12 -42 -42q-20 -21 -35 -39q-7 -9 -42 -48q-31 -35 -39 -43l-29 24q72 201 142 297q31 0 72 -29q42 -31 53 -55zM944 1255v35h430v-35q-83 18 -128.5 -22.5t-45.5 -138.5v-1094h-67l-820 1090v-893q0 -51 9.5 -78.5t38.5 -43.5
q28 -17 45 -22q6 -2 73 -14q5 -1 12 -3l7 -1v-35h-435v35q104 19 134 41q41 33 41 121v897q0 50 -9 77.5t-35 44.5q-29 17 -44 21q-5 1 -14 3t-25 5t-29 6q-5 1 -12 3l-7 1v35h293l768 -1009v813q0 202 -180 161z" />
    <glyph glyph-name="nacute" unicode="&#x144;" horiz-adv-x="1118" 
d="M524 1057l-28 24q72 199 141 297q31 0 72 -29q42 -31 53 -55q-17 -12 -80 -65q-14 -12 -42 -42q-20 -21 -35 -39q-7 -9 -42 -48q-31 -35 -39 -43zM461 0h-408v35q12 2 24.5 4.5l20 4t10.5 1.5q10 1 38 14q25 11 33.5 29.5t8.5 52.5v514q0 62 -25 90t-110 39v31
q120 18 184 63q16 11 74 56l41 -39l-45 -172h17q155 197 360 197q131 0 188.5 -79t57.5 -237v-463q0 -35 8.5 -53t34.5 -29q27 -13 38 -14q3 0 10 -1.5t19.5 -4t24.5 -4.5v-35h-408v35q93 13 115 35q25 25 25 71v461q0 96 -47 151.5t-142 55.5q-161 0 -286 -152v-516
q0 -35 8.5 -53t33.5 -29q26 -12 39 -15q14 -3 58 -9v-35z" />
    <glyph glyph-name="uni0145" unicode="&#x145;" horiz-adv-x="1437" 
d="M944 1255v35h430v-35q-83 18 -128.5 -22.5t-45.5 -138.5v-1094h-67l-820 1090v-893q0 -51 9.5 -78.5t38.5 -43.5q28 -17 45 -22q6 -2 73 -14q5 -1 12 -3l7 -1v-35h-435v35q104 19 134 41q41 33 41 121v897q0 50 -9 77.5t-35 44.5q-29 17 -44 21q-5 1 -14 3t-25 5t-29 6
q-5 1 -12 3l-7 1v35h293l768 -1009v813q0 202 -180 161zM729 -119q52 0 88.5 -41t36.5 -106q0 -92 -66 -186q-68 -93 -194 -138l-19 31q66 30 108 78.5t48 95.5q3 10 3.5 18.5t-2 14.5t-6 10.5t-9.5 8t-10.5 5.5t-12 5t-10.5 4q-59 35 -59 98q0 44 30.5 73t73.5 29z" />
    <glyph glyph-name="uni0146" unicode="&#x146;" horiz-adv-x="1118" 
d="M461 0h-408v35q12 2 24.5 4.5l20 4t10.5 1.5q10 1 38 14q25 11 33.5 29.5t8.5 52.5v514q0 62 -25 90t-110 39v31q120 18 184 63q16 11 74 56l41 -39l-45 -172h17q155 197 360 197q131 0 188.5 -79t57.5 -237v-463q0 -35 8.5 -53t34.5 -29q27 -13 38 -14q3 0 10 -1.5
t19.5 -4t24.5 -4.5v-35h-408v35q93 13 115 35q25 25 25 71v461q0 96 -47 151.5t-142 55.5q-161 0 -286 -152v-516q0 -35 8.5 -53t33.5 -29q26 -12 39 -15q14 -3 58 -9v-35zM430 -590l-18 31q66 30 107.5 78.5t47.5 95.5q8 31 -9 48q-7 7 -18 10q-2 0 -10 4t-10 4
q-59 35 -59 98q0 44 30.5 73t73.5 29q52 0 88.5 -41t36.5 -106q0 -92 -66 -186q-68 -93 -194 -138z" />
    <glyph glyph-name="Ncaron" unicode="&#x147;" horiz-adv-x="1437" 
d="M969 1796l24 -16l-276 -316l-275 318l25 14l250 -201zM944 1255v35h430v-35q-83 18 -128.5 -22.5t-45.5 -138.5v-1094h-67l-820 1090v-893q0 -51 9.5 -78.5t38.5 -43.5q28 -17 45 -22q6 -2 73 -14q5 -1 12 -3l7 -1v-35h-435v35q104 19 134 41q41 33 41 121v897
q0 50 -9 77.5t-35 44.5q-29 17 -44 21q-5 1 -14 3t-25 5t-29 6q-5 1 -12 3l-7 1v35h293l768 -1009v813q0 202 -180 161z" />
    <glyph glyph-name="ncaron" unicode="&#x148;" horiz-adv-x="1118" 
d="M829 1391l-276 -316l-274 318l24 14l250 -201l252 201zM461 0h-408v35q12 2 24.5 4.5l20 4t10.5 1.5q10 1 38 14q25 11 33.5 29.5t8.5 52.5v514q0 62 -25 90t-110 39v31q120 18 184 63q16 11 74 56l41 -39l-45 -172h17q155 197 360 197q131 0 188.5 -79t57.5 -237v-463
q0 -35 8.5 -53t34.5 -29q27 -13 38 -14q3 0 10 -1.5t19.5 -4t24.5 -4.5v-35h-408v35q93 13 115 35q25 25 25 71v461q0 96 -47 151.5t-142 55.5q-161 0 -286 -152v-516q0 -35 8.5 -53t33.5 -29q26 -12 39 -15q14 -3 58 -9v-35z" />
    <glyph glyph-name="Eng" unicode="&#x14a;" horiz-adv-x="1437" 
d="M944 1255v35h430v-35q-83 18 -128.5 -22.5t-45.5 -138.5v-1102q0 -172 -102 -256q-103 -83 -271 -115q-16 25 0 43q140 50 177 115q38 68 38 233v107l-729 971v-893q0 -51 9.5 -78.5t38.5 -43.5q28 -17 45 -22q6 -2 73 -14q5 -1 12 -3l7 -1v-35h-435v35q104 19 134 41
q41 33 41 121v897q0 50 -9 77.5t-35 44.5q-29 17 -44 21q-5 1 -14 3t-25 5t-29 6q-5 1 -12 3l-7 1v35h293l768 -1009v813q0 202 -180 161z" />
    <glyph glyph-name="eng" unicode="&#x14b;" horiz-adv-x="1054" 
d="M684 920q131 0 188.5 -79t57.5 -237v-639q0 -303 -309 -344q-8 8 -8.5 22.5t8.5 20.5q95 34 136 96q40 61 40 201v641q0 96 -47 151.5t-142 55.5q-161 0 -286 -152v-516q0 -35 8.5 -53t33.5 -29q26 -12 39 -15q14 -3 58 -9v-35h-408v35q12 2 24.5 4.5l20 4t10.5 1.5
q10 1 38 14q25 11 33.5 29.5t8.5 52.5v514q0 62 -25 90t-110 39v31q120 18 184 63q16 11 74 56l41 -39l-45 -172h17q153 197 360 197z" />
    <glyph glyph-name="Omacron" unicode="&#x14c;" horiz-adv-x="1503" 
d="M1024 1632h-573l30 62h574zM748 -25q-280 0 -462 194t-182 476q0 281 184 480q183 198 468 198q281 0 463 -194q182 -196 182 -474q0 -286 -184 -482q-185 -198 -469 -198zM782 39q184 0 315 152q130 151 130 403q0 286 -150 476q-151 190 -356 190q-181 0 -312 -152
q-130 -151 -130 -401q0 -288 149 -478q148 -190 354 -190z" />
    <glyph glyph-name="omacron" unicode="&#x14d;" horiz-adv-x="1112" 
d="M829 1243h-573l31 62h573zM545 -18q-183 0 -322 128q-139 127 -139 334q0 215 146 346q145 130 337 130q183 0 323 -128q138 -128 138 -335q0 -215 -145 -345t-338 -130zM569 41q121 0 212 96q91 95 91 289q0 192 -97 313t-232 121q-121 0 -212 -96q-91 -95 -91 -288
t97 -314t232 -121z" />
    <glyph glyph-name="Ohungarumlaut" unicode="&#x150;" horiz-adv-x="1503" 
d="M528 1446l-28 24q72 200 141 297q31 0 72 -29q42 -31 53 -55q-17 -12 -80 -65q-14 -12 -42 -42q-20 -21 -35 -39q-7 -9 -42 -48q-31 -35 -39 -43zM815 1446l-29 24q72 201 142 297q31 0 72 -29q39 -29 53 -55q-17 -12 -80 -65q-15 -12 -42 -42q-20 -21 -35 -39
q-8 -9 -42 -48q-31 -35 -39 -43zM748 -25q-280 0 -462 194t-182 476q0 281 184 480q183 198 468 198q281 0 463 -194q182 -196 182 -474q0 -286 -184 -482q-185 -198 -469 -198zM782 39q184 0 315 152q130 151 130 403q0 286 -150 476q-151 190 -356 190q-181 0 -312 -152
q-130 -151 -130 -401q0 -288 149 -478q148 -190 354 -190z" />
    <glyph glyph-name="ohungarumlaut" unicode="&#x151;" horiz-adv-x="1112" 
d="M334 1057l-29 24q72 199 141 297q31 0 72 -29q42 -31 53 -55q-11 -8 -79 -65q-15 -12 -42 -42q-20 -21 -35 -39q-7 -9 -42 -48q-31 -35 -39 -43zM621 1057l-29 24q72 199 141 297q31 0 72 -29q42 -31 53 -55q-11 -8 -79 -65q-15 -12 -42 -42q-20 -21 -35 -39
q-8 -9 -42 -48q-31 -35 -39 -43zM545 -18q-183 0 -322 128q-139 127 -139 334q0 215 146 346q145 130 337 130q183 0 323 -128q138 -128 138 -335q0 -215 -145 -345t-338 -130zM569 41q121 0 212 96q91 95 91 289q0 192 -97 313t-232 121q-121 0 -212 -96q-91 -95 -91 -288
t97 -314t232 -121z" />
    <glyph glyph-name="OE" unicode="&#x152;" horiz-adv-x="2084" 
d="M1966 297h45l-84 -297h-956q-88 -25 -226 -25q-281 0 -461 193q-180 192 -180 477q0 282 183 478q181 196 467 196q113 0 215 -35v6h954l19 -280h-46q-13 116 -55 167q-41 50 -145 50h-207q-120 0 -157 -26q-36 -27 -36 -130v-389h183q175 0 225 35q48 34 59 137h33v-405
h-33q-11 103 -59 137q-50 35 -225 35h-183v-402q0 -102 36 -129t157 -27h164q121 0 189 51q67 49 124 183zM281 707q0 -288 149 -478q148 -190 350 -190q98 0 198 61q100 60 161 168v711q-56 130 -169 203t-251 73q-182 0 -310 -149t-128 -399z" />
    <glyph glyph-name="oe" unicode="&#x153;" horiz-adv-x="1787" 
d="M1669 221l29 -16q-36 -105 -129 -163t-219 -58q-125 0 -229.5 56t-166.5 157q-66 -103 -177 -158q-111 -57 -232 -57q-183 0 -322 128q-139 127 -139 334q0 215 146 346q145 130 337 130q117 0 223 -55q103 -55 166 -154q58 99 156.5 155t220.5 56q81 0 151 -27.5
t113 -71.5q41 -43 69 -96q47 -90 15 -207h-653v-8q0 -179 106 -298q105 -120 279 -120t256 127zM1311 864q-103 0 -183 -75q-80 -77 -96 -211h520q14 101 -50 193q-65 93 -191 93zM569 41q121 0 212 96q91 95 91 289q0 192 -97 313t-232 121q-121 0 -212 -96
q-91 -95 -91 -288t97 -314t232 -121z" />
    <glyph glyph-name="Racute" unicode="&#x154;" horiz-adv-x="1310" 
d="M846 1683q-17 -12 -80 -65q-14 -12 -42 -42q-20 -21 -35 -39q-7 -9 -42 -48q-31 -35 -39 -43l-28 24q72 200 141 297q31 0 72 -29q42 -31 53 -55zM858 444l135 -206q51 -76 84 -117q34 -41 87 -71q52 -30 104 -13v-37q-56 -33 -109 -33q-101 0 -167 50q-70 51 -146 167
l-168 252q-50 75 -113 107q-64 31 -174 35v-381q0 -52 8.5 -79t35.5 -43q28 -18 41 -22q7 -2 69 -14l16 -4v-35h-498v35q103 19 132 41q39 33 38 121v897q0 53 -7.5 79t-34.5 43q-29 16 -42 21q-7 2 -69 14q-4 1 -9.5 2.5t-7.5 1.5v35h476q551 0 551 -354q0 -295 -394 -346
q84 -22 162 -146zM557 1227q-100 0 -133 -21q-33 -22 -33 -73v-494h164q194 0 282.5 71t88.5 214q0 303 -369 303z" />
    <glyph glyph-name="racute" unicode="&#x155;" horiz-adv-x="776" 
d="M354 1057l-28 24q72 199 141 297q31 0 72 -29q42 -31 53 -55q-17 -12 -80 -65q-14 -12 -42 -42q-20 -21 -35 -39q-7 -9 -42 -48q-31 -35 -39 -43zM483 0h-430v35q47 6 66 9q18 3 42 15q22 11 30 29.5t8 52.5v516q0 62 -28 90q-30 30 -118 37v31q106 17 152 41
q47 24 104 78l41 -39l-69 -244h41q73 140 145 212q71 71 170 71q48 0 86 -16v-150q-84 23 -129 23q-120 0 -190 -79q-72 -80 -72 -208v-363q0 -40 18.5 -63.5t45.5 -29.5q39 -7 87 -13v-35z" />
    <glyph glyph-name="uni0156" unicode="&#x156;" horiz-adv-x="1310" 
d="M858 444l135 -206q51 -76 84 -117q34 -41 87 -71q52 -30 104 -13v-37q-56 -33 -109 -33q-101 0 -167 50q-70 51 -146 167l-168 252q-50 75 -113 107q-64 31 -174 35v-381q0 -52 8.5 -79t35.5 -43q28 -18 41 -22q7 -2 69 -14l16 -4v-35h-498v35q103 19 132 41
q39 33 38 121v897q0 53 -7.5 79t-34.5 43q-29 16 -42 21q-7 2 -69 14q-4 1 -9.5 2.5t-7.5 1.5v35h476q551 0 551 -354q0 -295 -394 -346q84 -22 162 -146zM557 1227q-100 0 -133 -21q-33 -22 -33 -73v-494h164q194 0 282.5 71t88.5 214q0 303 -369 303zM664 -119
q52 0 88 -41t36 -106q0 -92 -66 -186q-68 -93 -194 -138l-18 31q66 30 107.5 78.5t48.5 95.5q8 30 -10 48q-11 8 -38 18q-59 35 -59 98q0 44 30.5 73t74.5 29z" />
    <glyph glyph-name="uni0157" unicode="&#x157;" horiz-adv-x="776" 
d="M483 0h-430v35q47 6 66 9q18 3 42 15q22 11 30 29.5t8 52.5v516q0 62 -28 90q-30 30 -118 37v31q106 17 152 41q47 24 104 78l41 -39l-69 -244h41q73 140 145 212q71 71 170 71q48 0 86 -16v-150q-84 23 -129 23q-120 0 -190 -79q-72 -80 -72 -208v-363q0 -40 18.5 -63.5
t45.5 -29.5q39 -7 87 -13v-35zM139 -590l-18 31q66 30 107.5 78.5t47.5 95.5q5 21 3 29.5t-12 18.5q-7 7 -18 10q-2 0 -10 4t-10 4q-59 35 -59 98q0 44 30.5 73t73.5 29q52 0 88.5 -41t36.5 -106q0 -92 -66 -186q-68 -93 -194 -138z" />
    <glyph glyph-name="Rcaron" unicode="&#x158;" horiz-adv-x="1310" 
d="M889 1796l24 -16l-276 -316l-275 318l25 14l250 -201zM858 444l135 -206q51 -76 84 -117q34 -41 87 -71q52 -30 104 -13v-37q-56 -33 -109 -33q-101 0 -167 50q-70 51 -146 167l-168 252q-50 75 -113 107q-64 31 -174 35v-381q0 -52 8.5 -79t35.5 -43q28 -18 41 -22
q7 -2 69 -14l16 -4v-35h-498v35q103 19 132 41q39 33 38 121v897q0 53 -7.5 79t-34.5 43q-29 16 -42 21q-7 2 -69 14q-4 1 -9.5 2.5t-7.5 1.5v35h476q551 0 551 -354q0 -295 -394 -346q84 -22 162 -146zM557 1227q-100 0 -133 -21q-33 -22 -33 -73v-494h164q194 0 282.5 71
t88.5 214q0 303 -369 303z" />
    <glyph glyph-name="rcaron" unicode="&#x159;" horiz-adv-x="776" 
d="M659 1391l-276 -316l-274 318l24 14l250 -201l252 201zM483 0h-430v35q47 6 66 9q18 3 42 15q22 11 30 29.5t8 52.5v516q0 62 -28 90q-30 30 -118 37v31q106 17 152 41q47 24 104 78l41 -39l-69 -244h41q73 140 145 212q71 71 170 71q48 0 86 -16v-150q-84 23 -129 23
q-120 0 -190 -79q-72 -80 -72 -208v-363q0 -40 18.5 -63.5t45.5 -29.5q39 -7 87 -13v-35z" />
    <glyph glyph-name="Sacute" unicode="&#x15a;" horiz-adv-x="1028" 
d="M481 1446l-28 24q72 200 141 297q31 0 72 -29q42 -31 53 -55q-17 -12 -80 -65q-13 -12 -42 -42q-20 -21 -35 -39q-8 -9 -42 -48q-31 -35 -39 -43zM504 -25q-182 0 -383 129l-17 258h41q34 -142 130 -236q95 -93 227 -93q115 0 193 75q77 74 77 187q0 121 -91 199
q-51 43 -92 67q-37 22 -124 66q-75 39 -122 69q-55 35 -103 79q-109 97 -109 243q0 131 96 218q95 87 287 87q83 0 167 -21q30 -8 63 -24q42 -22 47 -25q10 -8 42 -28q8 -6 15.5 -11l12 -8t5.5 -4l6 -262h-36q-34 139 -118 234q-83 92 -214 92q-110 0 -168 -58
q-60 -58 -60 -149q0 -93 72 -164t225 -147q79 -40 120 -66t108 -78q133 -105 133 -270q0 -160 -128 -259q-127 -100 -302 -100z" />
    <glyph glyph-name="sacute" unicode="&#x15b;" horiz-adv-x="813" 
d="M365 1057l-29 24q72 199 141 297q31 0 72 -29q42 -31 53 -55q-11 -8 -79 -65q-15 -12 -42 -42q-20 -21 -35 -39q-8 -9 -42 -48q-31 -35 -39 -43zM377 -18q-97 0 -178 29q-85 29 -111 52l-4 185h47q62 -209 264 -209q92 0 145.5 42.5t53.5 121.5t-55 117q-30 21 -51 31
q-13 6 -73 31q-58 22 -69 28q-114 46 -185 108q-71 60 -71 156q0 109 84 178q85 68 236 68q150 0 252 -78l-5 -183h-41q-56 203 -231 203q-81 0 -126.5 -42t-45.5 -107q0 -69 49 -106q50 -37 156 -81q3 -1 18 -6.5t27 -10.5q9 -3 20.5 -7.5t19 -7.5l12.5 -5q80 -36 102 -51
q62 -47 81 -76q31 -50 31 -112q0 -108 -96 -188q-97 -80 -256 -80z" />
    <glyph glyph-name="Scedilla" unicode="&#x15e;" horiz-adv-x="1028" 
d="M934 334q0 -141 -102 -237q-104 -98 -257 -117l-47 -93q90 0 144.5 -41t54.5 -108q0 -72 -69 -122q-71 -50 -230 -50l10 39q86 0 136.5 27t50.5 71q0 96 -217 96l90 176q-181 2 -377 129l-17 258h41q34 -142 130 -236q95 -93 227 -93q115 0 193 75q77 74 77 187
q0 121 -91 199q-51 43 -92 67q-37 22 -124 66q-75 39 -122 69q-55 35 -103 79q-109 97 -109 243q0 131 96 218q95 87 287 87q83 0 167 -21q30 -8 63 -24q42 -22 47 -25q10 -8 42 -28q8 -6 15.5 -11l12 -8t5.5 -4l6 -262h-36q-34 139 -118 234q-83 92 -214 92
q-110 0 -168 -58q-60 -58 -60 -149q0 -93 72 -164t225 -147q79 -40 120 -66t108 -78q133 -105 133 -270z" />
    <glyph glyph-name="scedilla" unicode="&#x15f;" horiz-adv-x="813" 
d="M729 250q0 -93 -74 -169q-75 -75 -202 -93l-52 -101q90 0 144.5 -41t54.5 -108q0 -72 -69 -122q-71 -50 -230 -50l10 39q86 0 136.5 27t50.5 71q0 96 -217 96l92 183q-95 0 -175 29q-84 29 -110 52l-4 185h47q62 -209 264 -209q92 0 145.5 42.5t53.5 121.5t-55 117
q-30 21 -51 31q-13 6 -73 31q-58 22 -69 28q-114 46 -185 108q-71 60 -71 156q0 109 84 178q85 68 236 68q150 0 252 -78l-5 -183h-41q-56 203 -231 203q-81 0 -126.5 -42t-45.5 -107q0 -69 49 -106q50 -37 156 -81q3 -1 18 -6.5t27 -10.5q9 -3 20.5 -7.5t19 -7.5l12.5 -5
q80 -36 102 -51q62 -47 81 -76q31 -50 31 -112z" />
    <glyph glyph-name="Scaron" unicode="&#x160;" horiz-adv-x="1028" 
d="M786 1780l-276 -316l-274 318l24 14l250 -201l252 201zM504 -25q-182 0 -383 129l-17 258h41q34 -142 130 -236q95 -93 227 -93q115 0 193 75q77 74 77 187q0 121 -91 199q-51 43 -92 67q-37 22 -124 66q-75 39 -122 69q-55 35 -103 79q-109 97 -109 243q0 131 96 218
q95 87 287 87q83 0 167 -21q30 -8 63 -24q42 -22 47 -25q10 -8 42 -28q8 -6 15.5 -11l12 -8t5.5 -4l6 -262h-36q-34 139 -118 234q-83 92 -214 92q-110 0 -168 -58q-60 -58 -60 -149q0 -93 72 -164t225 -147q79 -40 120 -66t108 -78q133 -105 133 -270q0 -160 -128 -259
q-127 -100 -302 -100z" />
    <glyph glyph-name="scaron" unicode="&#x161;" horiz-adv-x="813" 
d="M670 1391l-277 -316l-274 318l24 14l250 -201l252 201zM377 -18q-97 0 -178 29q-85 29 -111 52l-4 185h47q62 -209 264 -209q92 0 145.5 42.5t53.5 121.5t-55 117q-30 21 -51 31q-13 6 -73 31q-58 22 -69 28q-114 46 -185 108q-71 60 -71 156q0 109 84 178q85 68 236 68
q150 0 252 -78l-5 -183h-41q-56 203 -231 203q-81 0 -126.5 -42t-45.5 -107q0 -69 49 -106q50 -37 156 -81q3 -1 18 -6.5t27 -10.5q9 -3 20.5 -7.5t19 -7.5l12.5 -5q80 -36 102 -51q62 -47 81 -76q31 -50 31 -112q0 -108 -96 -188q-97 -80 -256 -80z" />
    <glyph glyph-name="uni0162" unicode="&#x162;" horiz-adv-x="1243" 
d="M1069 1290l94 21l17 -353h-33q-22 149 -82 215q-58 64 -215 64h-152v-1040q0 -62 31 -110q11 -16 46 -26q36 -12 55 -15q31 -5 79 -11v-35h-225l-57 -113q90 0 144 -41t54 -108q0 -72 -69 -122q-71 -50 -230 -50l11 39q86 0 136 27t50 71q0 96 -217 96l102 201h-278v35
q41 5 80 11q18 3 54 15q35 10 46 26q31 48 31 110v1040h-142q-160 0 -220 -64q-61 -65 -83 -215h-33l17 353l94 -21h895z" />
    <glyph glyph-name="uni0163" unicode="&#x163;" horiz-adv-x="591" 
d="M594 147v-41q-89 -53 -250 -122l-49 -97q90 0 144.5 -41t54.5 -108q0 -73 -70 -122q-71 -50 -229 -50l10 39q86 0 136 27t50 71q0 96 -217 96l102 201q-80 56 -79 150v681h-144v37q152 66 232 215h45v-194l250 31q-9 -28 -11 -89h-239v-610q0 -50 27 -77t71 -28
q81 -1 166 31z" />
    <glyph glyph-name="Tcaron" unicode="&#x164;" horiz-adv-x="1243" 
d="M870 1778l25 -17l-277 -315l-274 317l25 15l249 -201zM1069 1290l94 21l17 -353h-33q-22 149 -82 215q-58 64 -215 64h-152v-1040q0 -62 31 -110q11 -16 46 -26q36 -12 55 -15q31 -5 79 -11v-35h-579v35q41 5 80 11q18 3 54 15q35 10 46 26q31 48 31 110v1040h-142
q-160 0 -220 -64q-61 -65 -83 -215h-33l17 353l94 -21h895z" />
    <glyph glyph-name="tcaron" unicode="&#x165;" horiz-adv-x="581" 
d="M375 1001q-10 0 -19 17l6 282q12 48 33 52q57 0 45 -78l-55 -254q2 -2 -3 -10.5t-7 -8.5zM330 831v-610q0 -50 27 -77t71 -28q81 -1 166 31v-41q-74 -45 -258 -126q-51 0 -95 53t-44 117v681h-144v37q152 66 232 215h45v-194l250 31q-9 -28 -11 -89h-239z" />
    <glyph glyph-name="Tbar" unicode="&#x166;" horiz-adv-x="1243" 
d="M1069 1290l94 21l17 -353h-33q-22 149 -82 215q-58 64 -215 64h-152v-573l211 6l-20 -66l-191 6v-413q0 -62 31 -110q11 -16 46 -26q36 -12 55 -15q31 -5 79 -11v-35h-579v35q41 5 80 11q18 3 54 15q35 10 46 26q31 48 31 110v413q-123 0 -246 -6l20 66q2 0 226 -6v573
h-142q-160 0 -220 -64q-61 -65 -83 -215h-33l17 353l94 -21h895z" />
    <glyph glyph-name="tbar" unicode="&#x167;" horiz-adv-x="669" 
d="M352 520v-299q0 -49 27.5 -76.5t71.5 -28.5q80 -1 165 31v-41q-74 -45 -258 -126q-51 0 -95 53t-44 117v370h-166l21 64h145v247h-143v37q151 66 231 215h45v-194l250 31q-10 -30 -10 -89h-240v-247h209l-20 -64h-189z" />
    <glyph glyph-name="Umacron" unicode="&#x16a;" horiz-adv-x="1445" 
d="M997 1632h-573l31 62h573zM717 -25q-149 0 -261 59q-67 35 -118 92q-52 59 -83.5 159.5t-31.5 226.5v582q0 53 -7.5 79t-34.5 43q-29 16 -42 21q-7 2 -69 14q-4 1 -9.5 2.5t-7.5 1.5v35h500v-35q-103 -19 -131 -41q-39 -33 -39 -120v-605q0 -430 367 -430q140 0 249 74
q62 42 96.5 125.5t34.5 200.5v635q0 51 -8.5 78t-34.5 44q-29 17 -44 21q-5 1 -14 3t-25 5t-29 6q-5 1 -12 3l-7 1v35h439v-35q-114 -19 -142 -41q-43 -33 -43 -120v-594q0 -144 -42 -252t-117 -165q-141 -108 -334 -108z" />
    <glyph glyph-name="umacron" unicode="&#x16b;" horiz-adv-x="1122" 
d="M846 1243h-574l31 62h574zM438 -18q-260 0 -260 315v473q0 66 -56 82q-27 7 -69 14v35q147 -7 258 12v-610q0 -205 185 -205q165 0 305 115v557q0 66 -56 82q-27 7 -69 14v35q147 -7 258 12v-743q0 -60 26 -91t109 -44v-35h-260l12 158h-22q-182 -176 -361 -176z" />
    <glyph glyph-name="ubreve" unicode="&#x16d;" horiz-adv-x="1122" 
d="M765 1215q-63 -70 -192 -70t-192 70q-64 68 -64 176h35q25 -133 221 -134q199 0 220 134h34q0 -105 -62 -176zM438 -18q-260 0 -260 315v473q0 66 -56 82q-27 7 -69 14v35q147 -7 258 12v-610q0 -205 185 -205q165 0 305 115v557q0 66 -56 82q-27 7 -69 14v35
q147 -7 258 12v-743q0 -60 26 -91t109 -44v-35h-260l12 158h-22q-182 -176 -361 -176z" />
    <glyph glyph-name="Uring" unicode="&#x16e;" horiz-adv-x="1445" 
d="M843 1542q-48 -49 -118 -49t-119 49t-49 119t49 119t119 49t118 -49q48 -50 48 -119t-48 -119zM650 1585q32 -33 75 -33t74 33q30 33 30 76t-30 76q-31 32 -74 32t-75 -32q-32 -33 -32 -76t32 -76zM717 -25q-149 0 -261 59q-67 35 -118 92q-52 59 -83.5 159.5
t-31.5 226.5v582q0 53 -7.5 79t-34.5 43q-29 16 -42 21q-7 2 -69 14q-4 1 -9.5 2.5t-7.5 1.5v35h500v-35q-103 -19 -131 -41q-39 -33 -39 -120v-605q0 -430 367 -430q140 0 249 74q62 42 96.5 125.5t34.5 200.5v635q0 51 -8.5 78t-34.5 44q-29 17 -44 21q-5 1 -14 3t-25 5
t-29 6q-5 1 -12 3l-7 1v35h439v-35q-114 -19 -142 -41q-43 -33 -43 -120v-594q0 -144 -42 -252t-117 -165q-141 -108 -334 -108z" />
    <glyph glyph-name="uring" unicode="&#x16f;" horiz-adv-x="1122" 
d="M691 1153q-48 -49 -117 -49q-70 0 -119 49t-49 119t49 119t119 49q69 0 117 -49t48 -119t-48 -119zM499 1196q31 -33 74 -33t74 33t31 76t-31 76q-31 32 -74 32t-74 -32q-31 -33 -31 -76t31 -76zM438 -18q-260 0 -260 315v473q0 66 -56 82q-27 7 -69 14v35q147 -7 258 12
v-610q0 -205 185 -205q165 0 305 115v557q0 66 -56 82q-27 7 -69 14v35q147 -7 258 12v-743q0 -60 26 -91t109 -44v-35h-260l12 158h-22q-182 -176 -361 -176z" />
    <glyph glyph-name="Uhungarumlaut" unicode="&#x170;" horiz-adv-x="1445" 
d="M502 1446l-29 24q72 200 141 297q31 0 72 -29q42 -31 53 -55q-11 -8 -79 -65q-15 -12 -42 -42q-20 -21 -35 -39q-7 -9 -42 -48q-31 -35 -39 -43zM788 1446l-28 24q72 200 141 297q31 0 72 -29q42 -31 53 -55q-11 -8 -79 -65q-15 -12 -42 -42q-20 -21 -35 -39
q-2 -2 -7.5 -8.5t-15.5 -17.5l-20 -22q-31 -35 -39 -43zM717 -25q-149 0 -261 59q-67 35 -118 92q-52 59 -83.5 159.5t-31.5 226.5v582q0 53 -7.5 79t-34.5 43q-29 16 -42 21q-7 2 -69 14q-4 1 -9.5 2.5t-7.5 1.5v35h500v-35q-103 -19 -131 -41q-39 -33 -39 -120v-605
q0 -430 367 -430q140 0 249 74q62 42 96.5 125.5t34.5 200.5v635q0 51 -8.5 78t-34.5 44q-29 17 -44 21q-5 1 -14 3t-25 5t-29 6q-5 1 -12 3l-7 1v35h439v-35q-114 -19 -142 -41q-43 -33 -43 -120v-594q0 -144 -42 -252t-117 -165q-141 -108 -334 -108z" />
    <glyph glyph-name="uhungarumlaut" unicode="&#x171;" horiz-adv-x="1122" 
d="M350 1057l-28 24q72 199 141 297q31 0 72 -29q39 -29 53 -55q-17 -12 -80 -65q-14 -12 -42 -42q-20 -21 -35 -39q-7 -9 -42 -48q-31 -35 -39 -43zM637 1057l-29 24q72 201 142 297q31 0 72 -29q40 -30 52 -55q-11 -8 -79 -65q-15 -12 -42 -42q-20 -21 -35 -39
q-8 -9 -42 -48q-31 -35 -39 -43zM438 -18q-260 0 -260 315v473q0 66 -56 82q-27 7 -69 14v35q147 -7 258 12v-610q0 -205 185 -205q165 0 305 115v557q0 66 -56 82q-27 7 -69 14v35q147 -7 258 12v-743q0 -60 26 -91t109 -44v-35h-260l12 158h-22q-182 -176 -361 -176z" />
    <glyph glyph-name="Uogonek" unicode="&#x172;" horiz-adv-x="1398" 
d="M956 1255v35h439v-35q-114 -19 -142 -41q-43 -33 -43 -120v-594q0 -240 -105 -363q-106 -123 -271 -151q-166 -76 -166 -203q0 -52 29 -81.5t77 -29.5q38 0 109 27v-33q-71 -74 -172 -74q-85 0 -136 42.5t-51 123.5q0 57 47 125l140 92q-144 0 -258 61q-67 36 -117 92
q-51 59 -82 159.5t-31 224.5v582q0 53 -7.5 79t-34.5 43q-29 16 -42 21q-7 2 -69 14q-4 1 -9.5 2.5t-7.5 1.5v35h500v-35q-103 -19 -131 -41q-39 -33 -39 -120v-605q0 -430 367 -430q58 0 104 11l4 2v-2q272 62 272 389v635q0 51 -8.5 78t-34.5 44q-29 17 -44 21q-5 1 -14 3
t-25 5t-29 6q-5 1 -12 3z" />
    <glyph glyph-name="uogonek" unicode="&#x173;" horiz-adv-x="1122" 
d="M1069 0h-149q-98 -56 -145 -104q-46 -46 -46 -113q0 -52 29 -81.5t76 -29.5q41 0 110 27v-33q-71 -74 -174 -74q-85 0 -134.5 42t-49.5 124q0 60 45 125l178 119l12 156h-22q-181 -176 -361 -176q-260 0 -260 315v473q0 66 -56 82q-27 7 -69 14v35q147 -7 258 12v-610
q0 -205 185 -205q165 0 305 115v557q0 66 -56 82q-27 7 -69 14v35q147 -7 258 12v-743q0 -60 26 -91t109 -44v-35z" />
    <glyph glyph-name="Wcircumflex" unicode="&#x174;" horiz-adv-x="2039" 
d="M748 1477l274 317l276 -315l-24 -17l-252 201l-250 -201zM684 -16h-59l-432 1142q-26 66 -52 84q-29 17 -118 33v45h458v-45q-138 -33 -146 -41q-7 -7 23 -76l340 -913l254 733q35 97 -4 186t-143 113v45h276q0 -80 76 -284l291 -791l291 823q24 75 19 115t-43 59
q-36 17 -138 33v45h440v-45q-69 -13 -87 -19q-21 -8 -43 -28q-24 -24 -40 -70l-413 -1142h-60l-354 948z" />
    <glyph glyph-name="wcircumflex" unicode="&#x175;" horiz-adv-x="1595" 
d="M522 1087l275 318l276 -315l-24 -17l-252 201l-250 -201zM510 -12h-53l-293 790q-18 53 -44 68q-26 14 -97 20v35h405v-35q-95 -12 -111 -37q-12 -18 0 -51l215 -585l201 489q33 86 4 139q-9 23 -29 30.5t-73 14.5v35h258q0 -74 37 -158l211 -553l207 508q44 119 -30 148
q-42 16 -108 20v35h363v-35q-69 -6 -94 -20q-24 -14 -47 -68l-310 -790h-51l-274 700z" />
    <glyph glyph-name="Ycircumflex" unicode="&#x176;" horiz-adv-x="1318" 
d="M913 1462l-251 201l-250 -201l-25 15l275 317l276 -315zM893 1255v35h393v-35q-82 -17 -108 -33q-27 -18 -72 -94l-361 -581v-340q0 -55 10.5 -82.5t41.5 -42.5q31 -16 53 -21q16 -5 86 -16v-45h-539v45q120 19 150 43q41 32 41 119v323l-377 598q-49 76 -73 94
q-26 16 -105 33v35h469v-35q-82 -18 -113 -43t2 -84l320 -518l313 518q21 37 23.5 56.5t-17.5 34.5q-24 13 -39 17q-28 7 -65 13q-22 5 -33 6z" />
    <glyph glyph-name="ycircumflex" unicode="&#x177;" horiz-adv-x="1017" 
d="M766 1073l-252 201l-250 -201l-24 14l274 318l277 -315zM678 866v35h317v-35q-67 -7 -91 -22q-22 -15 -48 -72l-369 -868q-9 -21 -39 -88q-12 -27 -45 -81q-66 -106 -159 -106q-60 0 -125 47v105q254 -11 307 123l53 125l-321 745q-22 55 -45 70q-25 15 -90 22v35h395
v-35q-94 -13 -115 -37q-14 -20 -2 -55l246 -588l248 586q8 28 7 44.5t-20 25.5q-31 15 -88 22q-14 2 -16 2z" />
    <glyph glyph-name="Ydieresis" unicode="&#x178;" horiz-adv-x="1318" 
d="M477 1581q-35 0 -57.5 22.5t-22.5 57.5q0 37 22.5 59.5t57.5 22.5q37 0 59.5 -22.5t22.5 -59.5q0 -35 -22.5 -57.5t-59.5 -22.5zM846 1581q-35 0 -57.5 22.5t-22.5 57.5q0 37 22.5 59.5t57.5 22.5q37 0 59.5 -22.5t22.5 -59.5q0 -35 -22.5 -57.5t-59.5 -22.5zM893 1255
v35h393v-35q-82 -17 -108 -33q-27 -18 -72 -94l-361 -581v-340q0 -55 10.5 -82.5t41.5 -42.5q31 -16 53 -21q16 -5 86 -16v-45h-539v45q120 19 150 43q41 32 41 119v323l-377 598q-49 76 -73 94q-26 16 -105 33v35h469v-35q-82 -18 -113 -43t2 -84l320 -518l313 518
q21 37 23.5 56.5t-17.5 34.5q-24 13 -39 17q-28 7 -65 13q-22 5 -33 6z" />
    <glyph glyph-name="Zacute" unicode="&#x179;" horiz-adv-x="1183" 
d="M559 1446l-29 24q72 201 142 297q31 0 72 -29q39 -29 53 -55q-17 -12 -80 -65q-15 -12 -42 -42q-20 -21 -35 -39q-8 -9 -42 -48q-31 -35 -39 -43zM1081 0h-995l-23 31l814 1216l-455 -8q-146 -1 -205 -63q-60 -63 -70 -207h-41v334l111 -13h895l-831 -1247l510 8
q140 1 199 66q57 63 87 209h43q-39 -208 -39 -326z" />
    <glyph glyph-name="zacute" unicode="&#x17a;" horiz-adv-x="907" 
d="M424 1057l-29 24q72 201 142 297q31 0 72 -29q39 -29 53 -55q-17 -12 -80 -65q-15 -12 -42 -42q-20 -21 -35 -39q-7 -9 -42 -48q-31 -35 -39 -43zM805 0h-719l-23 31l586 829l-291 -6q-172 -1 -192 -211h-39v270l121 -12h590l-602 -860l299 6q128 1 184 54q56 51 84 157
h41q-39 -136 -39 -258z" />
    <glyph glyph-name="Zdotaccent" unicode="&#x17b;" horiz-adv-x="1183" 
d="M592 1563q-36 0 -63 25.5t-27 60.5q0 36 27 63t63 27q37 0 64.5 -26.5t27.5 -63.5q0 -35 -27.5 -60.5t-64.5 -25.5zM1081 0h-995l-23 31l814 1216l-455 -8q-146 -1 -205 -63q-60 -63 -70 -207h-41v334l111 -13h895l-831 -1247l510 8q140 1 199 66q57 63 87 209h43
q-39 -208 -39 -326z" />
    <glyph glyph-name="zdotaccent" unicode="&#x17c;" horiz-adv-x="907" 
d="M457 1174q-36 0 -63 25.5t-27 60.5q0 36 27 63t63 27q37 0 64.5 -27t27.5 -63q0 -35 -27.5 -60.5t-64.5 -25.5zM805 0h-719l-23 31l586 829l-291 -6q-172 -1 -192 -211h-39v270l121 -12h590l-602 -860l299 6q128 1 184 54q56 51 84 157h41q-39 -136 -39 -258z" />
    <glyph glyph-name="Zcaron" unicode="&#x17d;" horiz-adv-x="1183" 
d="M864 1780l-276 -316l-275 318l25 14l250 -201l252 201zM1081 0h-995l-23 31l814 1216l-455 -8q-146 -1 -205 -63q-60 -63 -70 -207h-41v334l111 -13h895l-831 -1247l510 8q140 1 199 66q57 63 87 209h43q-39 -208 -39 -326z" />
    <glyph glyph-name="zcaron" unicode="&#x17e;" horiz-adv-x="907" 
d="M729 1391l-276 -316l-275 318l25 14l250 -201l252 201zM805 0h-719l-23 31l586 829l-291 -6q-172 -1 -192 -211h-39v270l121 -12h590l-602 -860l299 6q128 1 184 54q56 51 84 157h41q-39 -136 -39 -258z" />
    <glyph glyph-name="florin" unicode="&#x192;" horiz-adv-x="1136" 
d="M1100 1403q137 0 170 -86q-23 -91 -99 -119q-16 57 -57 94t-94 37q-76 0 -142 -72q-68 -73 -87 -249l-15 -113l230 16q-9 -28 -11 -80h-227l-84 -686q-30 -252 -149 -377.5t-314 -125.5q-135 0 -168 86q19 89 99 118q16 -57 56 -94t93 -37q76 0 143 73q67 74 86 249
l97 794h-146v39l154 31q35 244 156 373t309 129z" />
    <glyph glyph-name="uni0218" unicode="&#x218;" horiz-adv-x="1028" 
d="M504 -25q-182 0 -383 129l-17 258h41q34 -142 130 -236q95 -93 227 -93q115 0 193 75q77 74 77 187q0 121 -91 199q-51 43 -92 67q-37 22 -124 66q-75 39 -122 69q-55 35 -103 79q-109 97 -109 243q0 131 96 218q95 87 287 87q83 0 167 -21q30 -8 63 -24q42 -22 47 -25
q10 -8 42 -28q8 -6 15.5 -11l12 -8t5.5 -4l6 -262h-36q-34 139 -118 234q-83 92 -214 92q-110 0 -168 -58q-60 -58 -60 -149q0 -93 72 -164t225 -147q79 -40 120 -66t108 -78q133 -105 133 -270q0 -160 -128 -259q-127 -100 -302 -100zM397 -590l-18 31q66 30 107.5 78.5
t48.5 95.5q8 30 -10 48q-7 7 -18 10q-2 0 -10 4t-10 4q-59 35 -59 98q0 44 30.5 73t73.5 29q52 0 88.5 -41t36.5 -106q0 -92 -66 -186q-68 -93 -194 -138z" />
    <glyph glyph-name="uni0219" unicode="&#x219;" horiz-adv-x="813" 
d="M377 -18q-97 0 -178 29q-85 29 -111 52l-4 185h47q62 -209 264 -209q92 0 145.5 42.5t53.5 121.5t-55 117q-30 21 -51 31q-13 6 -73 31q-58 22 -69 28q-114 46 -185 108q-71 60 -71 156q0 109 84 178q85 68 236 68q150 0 252 -78l-5 -183h-41q-56 203 -231 203
q-81 0 -126.5 -42t-45.5 -107q0 -69 49 -106q50 -37 156 -81q3 -1 18 -6.5t27 -10.5q9 -3 20.5 -7.5t19 -7.5l12.5 -5q80 -36 102 -51q62 -47 81 -76q31 -50 31 -112q0 -108 -96 -188q-97 -80 -256 -80zM270 -590l-18 31q66 30 107.5 78.5t48.5 95.5q8 30 -10 48
q-7 7 -18 10q-2 0 -10 4t-10 4q-59 35 -59 98q0 45 30 73.5t75 28.5q52 0 88 -41t36 -106q0 -92 -66 -186q-68 -93 -194 -138z" />
    <glyph glyph-name="uni021A" unicode="&#x21a;" horiz-adv-x="1243" 
d="M1069 1290l94 21l17 -353h-33q-22 149 -82 215q-58 64 -215 64h-152v-1040q0 -62 31 -110q11 -16 46 -26q36 -12 55 -15q31 -5 79 -11v-35h-579v35q41 5 80 11q18 3 54 15q35 10 46 26q31 48 31 110v1040h-142q-160 0 -220 -64q-61 -65 -83 -215h-33l17 353l94 -21h895z
M631 -119q52 0 88.5 -41t36.5 -106q0 -92 -66 -186q-68 -93 -194 -138l-19 31q66 30 108 78.5t48 95.5q6 11 3.5 21.5t-3.5 16t-9 10.5t-12.5 7.5t-13.5 6t-12 4.5q-58 34 -60 98q0 44 30.5 73t74.5 29z" />
    <glyph glyph-name="uni021B" unicode="&#x21b;" horiz-adv-x="591" 
d="M330 831v-610q0 -50 27 -77t71 -28q81 -1 166 31v-41q-74 -45 -258 -126q-51 0 -95 53t-44 117v681h-144v37q152 66 232 215h45v-194l250 31q-9 -28 -11 -89h-239zM311 -119q52 0 88.5 -41t36.5 -106q0 -92 -66 -186q-68 -93 -194 -138l-18 31q66 30 107.5 78.5
t47.5 95.5q8 31 -9 48q-7 7 -18 10q-2 0 -10 4t-10 4q-59 35 -59 98q0 44 30.5 73t73.5 29z" />
    <glyph glyph-name="uni0237" unicode="&#x237;" horiz-adv-x="442" 
d="M8 -379q-8 8 -8 22.5t8 20.5q114 34 146 90q30 56 30 221v680q0 62 -25 90t-110 39v31q58 11 88 25q29 12 72 46q37 29 65 48l43 -39v-930q0 -303 -309 -344z" />
    <glyph glyph-name="circumflex" unicode="&#x2c6;" horiz-adv-x="593" 
d="M23 1087l274 318l276 -315l-24 -17l-252 201l-250 -201z" />
    <glyph glyph-name="caron" unicode="&#x2c7;" horiz-adv-x="593" 
d="M573 1391l-276 -316l-274 318l24 14l250 -201l252 201z" />
    <glyph glyph-name="breve" unicode="&#x2d8;" horiz-adv-x="555" 
d="M470 1215q-61 -70 -191 -70q-129 0 -192 70q-64 68 -64 176h34q25 -132 222 -134q199 0 219 134h34q0 -105 -62 -176z" />
    <glyph glyph-name="dotaccent" unicode="&#x2d9;" horiz-adv-x="225" 
d="M113 1174q-36 0 -63 25.5t-27 60.5q0 36 27 63t63 27q37 0 64.5 -27t27.5 -63q0 -35 -27.5 -60.5t-64.5 -25.5z" />
    <glyph glyph-name="ring" unicode="&#x2da;" horiz-adv-x="378" 
d="M308 1153q-48 -49 -117 -49q-70 0 -119 49t-49 119t49 119t119 49q69 0 117 -49t48 -119t-48 -119zM116 1196q32 -33 74.5 -33t73.5 33t31 76t-31 76q-31 32 -73.5 32t-74.5 -32q-32 -33 -32 -76t32 -76z" />
    <glyph glyph-name="ogonek" unicode="&#x2db;" horiz-adv-x="403" 
d="M207 -375q-85 0 -134.5 42t-49.5 124q0 61 45 125l288 193v-76q-98 -56 -145 -104q-45 -47 -45 -113q0 -52 29 -81.5t75 -29.5q40 0 111 27v-33q-71 -74 -174 -74z" />
    <glyph glyph-name="tilde" unicode="&#x2dc;" horiz-adv-x="677" 
d="M471 1110q-48 -2 -93 20.5t-73 50t-63.5 50t-67.5 20.5q-54 0 -85.5 -23.5t-31.5 -56.5h-30q-18 74 36 130q54 55 146 55q67 0 116 -35q48 -34 89 -71q40 -36 90 -36q54 0 85.5 25t31.5 57h30q18 -74 -35 -130t-145 -56z" />
    <glyph glyph-name="hungarumlaut" unicode="&#x2dd;" horiz-adv-x="598" 
d="M51 1057l-28 24q72 199 141 297q31 0 72 -29q39 -29 53 -55q-17 -12 -80 -65q-13 -12 -42 -42q-20 -21 -35 -39q-8 -9 -42 -48q-31 -35 -39 -43zM338 1057l-29 24q72 201 142 297q31 0 72 -29q40 -30 52 -55q-11 -8 -79 -65q-15 -12 -42 -42q-20 -21 -35 -39
q-7 -9 -42 -48q-31 -35 -39 -43z" />
    <glyph glyph-name="acutecomb" unicode="&#x301;" horiz-adv-x="0" 
d="M-258 1057l-29 24q72 201 142 297q30 0 71 -29q41 -30 54 -55q-12 -8 -27 -20.5t-31.5 -26t-22.5 -18.5q-13 -12 -42 -42q-20 -23 -34 -39q-7 -9 -42 -48q-31 -35 -39 -43z" />
    <glyph glyph-name="uni0326" unicode="&#x326;" horiz-adv-x="0" 
d="M-268 -590l-19 31q66 30 108 78.5t48 95.5q6 11 3.5 21.5t-3.5 16t-9 10.5t-12.5 7.5t-13.5 6t-12 4.5q-58 34 -60 98q0 44 30.5 73t74.5 29q52 0 88.5 -41t36.5 -106q0 -92 -67 -186q-66 -93 -193 -138z" />
    <glyph glyph-name="uni0394" unicode="&#x394;" horiz-adv-x="1150" 
d="M1128 0h-1105l552 1298zM518 1026l-397 -917h782z" />
    <glyph glyph-name="uni03A9" unicode="&#x3a9;" horiz-adv-x="1519" 
d="M1374 205h41l-74 -205h-409v145q94 45 185 193q91 146 91 348q0 246 -128 401q-127 154 -320 154t-322 -154q-129 -155 -129 -401q0 -201 93 -347q92 -146 186 -194v-145h-410l-74 205h41q32 -41 74 -50q41 -10 131 -10h111q-133 67 -231 221q-99 152 -99 341
q0 229 176 414q175 184 453 184q276 0 451 -184t175 -414q0 -187 -98 -341q-97 -153 -229 -221h110q61 0 89 3q27 1 62 15q34 13 54 42z" />
    <glyph glyph-name="uni03BC" unicode="&#x3bc;" horiz-adv-x="1122" 
d="M934 913v-743q0 -60 26 -91t109 -44v-35h-260l12 158h-22q-181 -176 -361 -176q-189 0 -241 172v-29q0 -105 23.5 -185.5t56.5 -113.5l17 -17t16.5 -17t14 -15t13 -14.5t9.5 -12.5t7 -12.5t2 -9.5q0 -88 -69 -125q-63 -35 -105 12q-27 32 -26 88v647h22v420q0 66 -56 82
q-27 7 -69 14v35q147 -7 258 12v-610q0 -205 185 -205q165 0 305 115v557q0 66 -56 82q-27 7 -69 14v35q147 -7 258 12z" />
    <glyph glyph-name="pi" unicode="&#x3c0;" horiz-adv-x="1302" 
d="M1133 182q77 0 75 -98q0 -49 -41 -76.5t-112 -27.5q-223 0 -224 286v570h-325v-598q0 -118 -58 -183q-58 -67 -141 -67q-53 0 -121 24l-30 56q86 -20 152 22q65 41 65 148v598h-115q-65 0 -89 -50t-3 -133l-53 23q-41 94 -3 171t121 77h926v-88h-192v-707q0 -27 11 -49.5
t25 -22.5q29 0 45.5 18t19.5 45q3 26 20.5 44t46.5 18z" />
    <glyph glyph-name="Wgrave" unicode="&#x1e80;" horiz-adv-x="2039" 
d="M1059 1470l-29 -24q-8 10 -33 39l-20 22.5t-16 17.5q-6 7 -33 35t-34 35q-56 58 -101 88q11 24 53 55q41 29 72 29q70 -97 141 -297zM684 -16h-59l-432 1142q-26 66 -52 84q-29 17 -118 33v45h458v-45q-138 -33 -146 -41q-7 -7 23 -76l340 -913l254 733q35 97 -4 186
t-143 113v45h276q0 -80 76 -284l291 -791l291 823q24 75 19 115t-43 59q-36 17 -138 33v45h440v-45q-69 -13 -87 -19q-21 -8 -43 -28q-24 -24 -40 -70l-413 -1142h-60l-354 948z" />
    <glyph glyph-name="wgrave" unicode="&#x1e81;" horiz-adv-x="1595" 
d="M834 1081l-29 -24q-4 5 -34 39l-20 22.5t-16 17.5q-5 6 -17.5 19.5t-28 29.5t-20.5 21q-69 67 -102 88q12 25 54 55q41 29 71 29q70 -96 142 -297zM510 -12h-53l-293 790q-18 53 -44 68q-26 14 -97 20v35h405v-35q-95 -12 -111 -37q-12 -18 0 -51l215 -585l201 489
q33 86 4 139q-9 23 -29 30.5t-73 14.5v35h258q0 -74 37 -158l211 -553l207 508q44 119 -30 148q-42 16 -108 20v35h363v-35q-69 -6 -94 -20q-24 -14 -47 -68l-310 -790h-51l-274 700z" />
    <glyph glyph-name="Wacute" unicode="&#x1e82;" horiz-adv-x="2039" 
d="M989 1446l-28 24q72 200 141 297q31 0 72 -29q39 -29 53 -55q-17 -12 -80 -65q-13 -12 -42 -42q-20 -21 -35 -39q-8 -9 -42 -48q-31 -35 -39 -43zM684 -16h-59l-432 1142q-26 66 -52 84q-29 17 -118 33v45h458v-45q-138 -33 -146 -41q-7 -7 23 -76l340 -913l254 733
q35 97 -4 186t-143 113v45h276q0 -80 76 -284l291 -791l291 823q24 75 19 115t-43 59q-36 17 -138 33v45h440v-45q-69 -13 -87 -19q-21 -8 -43 -28q-24 -24 -40 -70l-413 -1142h-60l-354 948z" />
    <glyph glyph-name="wacute" unicode="&#x1e83;" horiz-adv-x="1595" 
d="M764 1057l-29 24q72 201 142 297q31 0 72 -29q40 -30 52 -55q-11 -8 -79 -65q-15 -12 -42 -42q-20 -21 -35 -39q-7 -9 -42 -48q-31 -35 -39 -43zM510 -12h-53l-293 790q-18 53 -44 68q-26 14 -97 20v35h405v-35q-95 -12 -111 -37q-12 -18 0 -51l215 -585l201 489
q33 86 4 139q-9 23 -29 30.5t-73 14.5v35h258q0 -74 37 -158l211 -553l207 508q44 119 -30 148q-42 16 -108 20v35h363v-35q-69 -6 -94 -20q-24 -14 -47 -68l-310 -790h-51l-274 700z" />
    <glyph glyph-name="Wdieresis" unicode="&#x1e84;" horiz-adv-x="2039" 
d="M838 1581q-35 0 -57.5 22.5t-22.5 57.5q0 37 22.5 59.5t57.5 22.5q37 0 59.5 -22.5t22.5 -59.5q0 -35 -22.5 -57.5t-59.5 -22.5zM1206 1581q-35 0 -57.5 22.5t-22.5 57.5q0 37 22.5 59.5t57.5 22.5q37 0 59.5 -22.5t22.5 -59.5q0 -35 -22.5 -57.5t-59.5 -22.5zM684 -16
h-59l-432 1142q-26 66 -52 84q-29 17 -118 33v45h458v-45q-138 -33 -146 -41q-7 -7 23 -76l340 -913l254 733q35 97 -4 186t-143 113v45h276q0 -80 76 -284l291 -791l291 823q24 75 19 115t-43 59q-36 17 -138 33v45h440v-45q-69 -13 -87 -19q-21 -8 -43 -28
q-24 -24 -40 -70l-413 -1142h-60l-354 948z" />
    <glyph glyph-name="wdieresis" unicode="&#x1e85;" horiz-adv-x="1595" 
d="M612 1192q-35 0 -57.5 22.5t-22.5 57.5q0 36 23 59t57 23q37 0 59.5 -22.5t22.5 -59.5q0 -35 -22.5 -57.5t-59.5 -22.5zM981 1192q-35 0 -57.5 22.5t-22.5 57.5q0 37 22.5 59.5t57.5 22.5q37 0 59.5 -22.5t22.5 -59.5q0 -35 -22.5 -57.5t-59.5 -22.5zM510 -12h-53
l-293 790q-18 53 -44 68q-26 14 -97 20v35h405v-35q-95 -12 -111 -37q-12 -18 0 -51l215 -585l201 489q33 86 4 139q-9 23 -29 30.5t-73 14.5v35h258q0 -74 37 -158l211 -553l207 508q44 119 -30 148q-42 16 -108 20v35h363v-35q-69 -6 -94 -20q-24 -14 -47 -68l-310 -790
h-51l-274 700z" />
    <glyph glyph-name="uni1E9E" unicode="&#x1e9e;" horiz-adv-x="1388" 
d="M1167 1178l-315 -478q193 -13 319 -106q123 -91 123 -262q0 -159 -106 -265q-106 -108 -301 -108q-139 0 -254 66q-5 118 -35 249h43q63 -147 116 -203q53 -57 128 -57q102 0 169 79q66 79 66 200q0 166 -129 262t-350 96l352 535q-125 41 -241 41q-138 0 -244 -89
q-58 -49 -91.5 -146.5t-33.5 -229.5v-565q0 -55 7.5 -82t32.5 -43q28 -18 44 -22t74 -15v-35h-488v35q103 19 131 41q39 33 39 121v542q0 165 47 285t129 177q148 104 324 104q236 0 444 -127z" />
    <glyph glyph-name="uni1EBC" unicode="&#x1ebc;" horiz-adv-x="1179" 
d="M313 1561h-30q-18 73 36 129q54 55 146 55q47 2 90.5 -20.5t71.5 -50t64 -50t69 -20.5q54 0 85.5 24.5t31.5 57.5h30q18 -74 -35 -130q-52 -57 -145 -57q-39 -2 -75.5 12.5t-63.5 36t-52 43t-52.5 36t-53.5 13.5q-54 0 -85.5 -23t-31.5 -56zM1061 297h45l-84 -297h-959
v35q103 19 132 41q39 33 38 121v897q0 53 -7.5 79t-34.5 43q-29 16 -42 21q-7 2 -69 14q-4 1 -9.5 2.5t-7.5 1.5v35h955l18 -280h-45q-13 116 -55 167q-41 50 -145 50h-207q-120 0 -157 -26q-36 -27 -36 -130v-389h182q176 0 226 35q48 34 59 137h33v-405h-33
q-11 103 -59 137q-50 35 -226 35h-182v-402q0 -102 36 -129t157 -27h164q122 0 189 51q67 49 124 183z" />
    <glyph glyph-name="uni1EBD" unicode="&#x1ebd;" horiz-adv-x="983" 
d="M219 1171h-31q-18 75 37 130q54 55 146 55q67 0 116 -35q48 -34 89 -71q40 -36 90 -36q54 0 85 24.5t31 57.5h31q18 -74 -35 -130t-145 -56q-48 -2 -93 20.5t-73.5 50t-63.5 50t-67 20.5q-54 0 -85.5 -23.5t-31.5 -56.5zM864 219l29 -16q-36 -105 -129 -163t-219 -58
q-194 0 -327 127q-134 128 -134 334t124 342q125 135 320 135q81 0 151.5 -27.5t113.5 -71.5q41 -43 69 -96q45 -89 15 -207h-654v-8q0 -179 106 -298q105 -120 279 -120t256 127zM506 862q-104 0 -183 -75q-80 -77 -96 -212h521q14 101 -50 194t-192 93z" />
    <glyph glyph-name="Ygrave" unicode="&#x1ef2;" horiz-adv-x="1318" 
d="M698 1470l-28 -24q-4 5 -34 39l-20 22.5t-16 17.5q-5 6 -17.5 19.5t-28 29.5t-20.5 21q-69 67 -102 88q11 24 53 55q41 29 72 29q71 -97 141 -297zM893 1255v35h393v-35q-82 -17 -108 -33q-27 -18 -72 -94l-361 -581v-340q0 -55 10.5 -82.5t41.5 -42.5q31 -16 53 -21
q16 -5 86 -16v-45h-539v45q120 19 150 43q41 32 41 119v323l-377 598q-49 76 -73 94q-26 16 -105 33v35h469v-35q-82 -18 -113 -43t2 -84l320 -518l313 518q21 37 23.5 56.5t-17.5 34.5q-24 13 -39 17q-28 7 -65 13q-22 5 -33 6z" />
    <glyph glyph-name="ygrave" unicode="&#x1ef3;" horiz-adv-x="1017" 
d="M551 1081l-29 -24q-8 11 -33 39l-20 22.5t-16 17.5q-6 7 -33 35t-34 35q-56 58 -101 88q11 24 53 55q41 29 72 29q70 -98 141 -297zM678 866v35h317v-35q-67 -7 -91 -22q-22 -15 -48 -72l-369 -868q-9 -21 -39 -88q-12 -27 -45 -81q-66 -106 -159 -106q-60 0 -125 47v105
q254 -11 307 123l53 125l-321 745q-22 55 -45 70q-25 15 -90 22v35h395v-35q-94 -13 -115 -37q-14 -20 -2 -55l246 -588l248 586q8 28 7 44.5t-20 25.5q-31 15 -88 22q-14 2 -16 2z" />
    <glyph glyph-name="endash" unicode="&#x2013;" horiz-adv-x="1366" 
d="M1262 510h-1158v33h1158v-33z" />
    <glyph glyph-name="emdash" unicode="&#x2014;" horiz-adv-x="1886" 
d="M1782 510h-1678v33h1678v-33z" />
    <glyph glyph-name="uni2015" unicode="&#x2015;" horiz-adv-x="1886" 
d="M1782 510h-1678v33h1678v-33z" />
    <glyph glyph-name="quoteleft" unicode="&#x2018;" horiz-adv-x="446" 
d="M344 1315l18 -31q-66 -30 -107.5 -78.5t-47.5 -95.5q-3 -10 -3.5 -18.5t2 -14.5t6 -10.5t9.5 -8t10.5 -5.5t12 -5t10.5 -4q59 -35 59 -98q0 -44 -30.5 -73t-73.5 -29q-52 0 -88.5 41t-36.5 106q0 92 67 186q66 93 193 138z" />
    <glyph glyph-name="quoteright" unicode="&#x2019;" horiz-adv-x="446" 
d="M102 854l-18 31q66 30 107.5 78.5t48.5 95.5q3 10 3.5 18.5t-2.5 14.5t-6 10.5t-10 8t-10.5 5.5t-12 4.5t-9.5 3.5q-59 34 -60 99q0 44 30.5 73t74.5 29q52 0 88 -41t36 -106q0 -92 -66 -185q-67 -94 -194 -139z" />
    <glyph glyph-name="quotesinglbase" unicode="&#x201a;" horiz-adv-x="446" 
d="M102 -291l-18 31q66 30 107.5 78.5t48.5 95.5q6 12 3.5 22t-4 15.5t-9 10.5t-12 7.5t-13.5 5.5t-12 5q-58 34 -60 98q0 44 30.5 73t74.5 29q52 0 88 -41t36 -106q0 -91 -66 -186q-68 -93 -194 -138z" />
    <glyph glyph-name="quotedblleft" unicode="&#x201c;" horiz-adv-x="796" 
d="M344 1315l18 -31q-66 -30 -107.5 -78.5t-47.5 -95.5q-3 -10 -3.5 -18.5t2 -14.5t6 -10.5t9.5 -8t10.5 -5.5t12 -5t10.5 -4q59 -35 59 -98q0 -44 -30.5 -73t-73.5 -29q-52 0 -88.5 41t-36.5 106q0 92 67 186q66 93 193 138zM694 1315l19 -31q-66 -30 -108 -78.5t-48 -95.5
q-6 -11 -3.5 -21.5t3.5 -16t9 -10.5t12.5 -7.5t13.5 -6t12 -4.5q58 -34 60 -98q0 -44 -30.5 -73t-74.5 -29q-52 0 -88.5 41t-36.5 106q0 92 67 186q66 93 193 138z" />
    <glyph glyph-name="quotedblright" unicode="&#x201d;" horiz-adv-x="796" 
d="M102 854l-18 31q66 30 107.5 78.5t48.5 95.5q3 10 3.5 18.5t-2.5 14.5t-6 10.5t-10 8t-10.5 5.5t-12 4.5t-9.5 3.5q-59 34 -60 99q0 44 30.5 73t74.5 29q52 0 88 -41t36 -106q0 -92 -66 -185q-67 -94 -194 -139zM453 854l-19 31q66 30 108 78.5t48 95.5q3 9 3.5 16.5
t-0.5 13t-5 10.5t-7 8t-9.5 6t-9.5 4.5t-10 3.5t-9 3q-59 34 -60 99q0 44 30.5 73t74.5 29q52 0 88.5 -41t36.5 -106q0 -92 -66 -185q-67 -94 -194 -139z" />
    <glyph glyph-name="quotedblbase" unicode="&#x201e;" horiz-adv-x="796" 
d="M102 -281l-18 31q66 30 107.5 78.5t48.5 95.5q3 10 3.5 18.5t-2.5 15t-5.5 10.5t-10.5 8t-10.5 5.5t-12.5 4.5l-9 4q-58 34 -60 98q0 44 30.5 73t74.5 29q53 0 88.5 -40.5t35.5 -106.5q0 -91 -66 -186q-68 -93 -194 -138zM453 -281l-19 31q66 30 108 78.5t48 95.5
q3 9 3 16.5t-0.5 13t-5 11t-6.5 8t-9.5 6t-9.5 4.5t-10 4l-9 3q-58 34 -60 98q0 44 30.5 73t74.5 29q53 0 89 -40.5t36 -106.5q0 -91 -66 -186q-68 -93 -194 -138z" />
    <glyph glyph-name="dagger" unicode="&#x2020;" horiz-adv-x="1048" 
d="M532 -2h-14l-74 684l66 121v115q-60 -1 -140 -47q-79 -46 -114 -46q-31 0 -60 32q-30 31 -30 75q0 42 30 73q28 31 60 31q33 0 113 -44t141 -44q2 53 -41 131q-43 79 -43 117q0 37 31 68q30 30 67 30q36 0 68 -30q31 -31 31 -68q0 -38 -42 -117t-40 -131q60 0 140 44
t112 44t62 -31t30 -73q0 -44 -30 -75q-30 -32 -62 -32q-33 0 -112 45q-80 45 -140 48v-115l65 -121z" />
    <glyph glyph-name="daggerdbl" unicode="&#x2021;" horiz-adv-x="1099" 
d="M592 41q-31 -31 -68 -31t-67 31q-31 31 -31 68t43 116q43 78 41 131q-62 0 -141 -45t-113 -45q-31 0 -60 32q-30 32 -30 75t30 75q28 31 60 31q34 0 114 -45q80 -46 140 -47v115l-66 160l66 141v115q-60 -1 -140 -47q-79 -46 -114 -46q-31 0 -60 32q-30 31 -30 75
q0 42 30 73q28 31 60 31q33 0 113 -44t141 -44q2 53 -41 131q-43 79 -43 117q0 37 31 68q30 30 67 30q36 0 68 -30q31 -31 31 -68q0 -38 -42 -117t-40 -131q60 0 140 44t112 44t62 -31t30 -73q0 -44 -30 -75q-30 -32 -62 -32q-33 0 -112 45q-80 45 -140 48v-115l65 -141
l-65 -160v-115q60 1 140 47q79 45 112 45q32 0 62 -31q30 -32 30 -75t-30 -75t-62 -32q-33 0 -112 45t-140 45q-2 -52 40 -131q42 -80 42 -116q0 -37 -31 -68z" />
    <glyph glyph-name="bullet" unicode="&#x2022;" horiz-adv-x="538" 
d="M371 461q-43 -43 -100 -43q-59 0 -102 43q-44 44 -44 103q0 58 44 102q43 43 102 43q57 0 100 -43t43 -102q0 -60 -43 -103z" />
    <glyph glyph-name="ellipsis" unicode="&#x2026;" horiz-adv-x="1138" 
d="M284 9q-32 -29 -75 -29t-74 29q-31 28 -31 71q0 44 31 72t74 28t75 -28q31 -28 31 -72q0 -43 -31 -71zM642 9q-32 -29 -75 -29t-73 29q-31 28 -31 71q0 44 31 72q30 28 73 28t75 -28q32 -29 32 -72q0 -42 -32 -71zM1003 9q-31 -29 -74.5 -29t-74.5 29q-31 28 -31 71
q0 44 31 72t74 28t75 -28q31 -28 31 -72q0 -43 -31 -71z" />
    <glyph glyph-name="perthousand" unicode="&#x2030;" horiz-adv-x="1961" 
d="M1092 1290h114l-915 -1290h-98l821 1145q-87 -48 -188.5 -45t-200.5 57q12 -43 12 -96q0 -156 -95 -281q-96 -125 -231 -125q-95 0 -150 67q-57 66 -57 175q0 152 101 274q100 121 235 121q60 0 103 -26v2q69 -38 108 -56q41 -21 102 -43q53 -21 100 -23q162 -11 239 144
zM348 711q94 0 166 112q72 111 72 240q0 86 -35 133t-96 47q-66 0 -117 -61q-50 -60 -73 -143t-23 -160q0 -168 106 -168zM1073 633q92 0 144.5 -62t52.5 -170q0 -155 -95 -280q-96 -125 -231 -125q-95 0 -150 67q-57 66 -57 175q0 152 101 274q100 121 235 121zM1661 633
q92 0 144.5 -62t52.5 -170q0 -155 -95 -280q-96 -125 -229 -125q-94 0 -151 67q-58 65 -58 175q0 152 101 274q100 121 235 121zM981 51q94 0 166 112q72 111 72 240q0 86 -35 133.5t-97 47.5q-98 0 -155 -118q-58 -117 -58 -247q2 -168 107 -168zM1569 51q97 0 167 111
q70 109 70 241q0 86 -34.5 133.5t-94.5 47.5q-98 0 -156 -118q-59 -120 -59 -247q2 -168 107 -168z" />
    <glyph glyph-name="guilsinglleft" unicode="&#x2039;" horiz-adv-x="538" 
d="M418 193l-316 276l318 274l14 -24l-201 -250l201 -252z" />
    <glyph glyph-name="guilsinglright" unicode="&#x203a;" horiz-adv-x="538" 
d="M94 743l318 -274l-316 -276l-16 24l201 252l-201 250z" />
    <glyph glyph-name="fraction" unicode="&#x2044;" horiz-adv-x="229" 
d="M-299 -10h-57l884 1313h58z" />
    <glyph glyph-name="Euro" unicode="&#x20ac;" horiz-adv-x="1536" 
d="M1399 176l33 -35q-67 -73 -184 -119q-120 -47 -263 -47q-261 0 -442 148q-182 146 -226 395h-213l11 51h194q-4 51 -4 86t4 82h-162l13 51h157q40 238 224 387q181 148 463 148q238 0 395 -94q7 -165 14 -277h-61q-34 153 -136 230.5t-253 77.5q-196 0 -323 -121
q-129 -123 -148 -351h477l-11 -51h-471v-35q0 -58 11 -133h426l-11 -51h-405q51 -209 204 -332q151 -123 347 -123q91 0 188 27q96 26 152 86z" />
    <glyph glyph-name="uni210D" unicode="&#x210d;" horiz-adv-x="1404" 
d="M1341 1290v-35q-103 -19 -131 -41q-39 -33 -39 -120v-897q0 -52 8.5 -79t35.5 -43q27 -17 42 -22q8 -3 68 -14l16 -4v-35h-1278v35q103 19 132 41q39 33 38 121v897q0 53 -7.5 79t-34.5 43q-29 16 -42 21q-7 2 -69 14q-4 1 -9.5 2.5t-7.5 1.5v35h1278zM848 1255
q-34 -6 -58 -11q-16 -3 -43 -15q-30 -12 -38 -26q-27 -45 -27 -109v-416h332v416q0 60 -27 109q-8 14 -37 26q-31 12 -43 15q-21 5 -59 11zM391 1094v-416h131v416q0 106 -65 135q-66 -29 -66 -135zM457 61q67 29 65 136v421h-131v-421q0 -107 66 -136zM848 35q38 6 59 11
q15 3 43 16q29 12 37 26q27 47 27 109v421h-332v-421q0 -66 27 -109q8 -14 38 -26q26 -12 43 -16q24 -5 58 -11z" />
    <glyph glyph-name="trademark" unicode="&#x2122;" horiz-adv-x="1630" 
d="M535 612h-338v35q84 7 102 25q18 16 18 65v512h-81q-74 0 -107 -34.5t-43 -116.5h-23l7 192h587l11 -192h-23q-13 82 -45 117q-31 34 -106 34h-84l2 -512q0 -55 21 -68q20 -14 87 -20q14 -2 15 -2v-35zM981 612h-246v35q68 8 82 25q15 17 17 65v434q0 58 -40 74
q-17 6 -49 12q-7 1 -12 3v30h180l244 -553l213 553h199v-30q-70 -13 -84 -31t-15 -58l5 -434q0 -33 3.5 -47.5t17.5 -22.5q15 -10 23 -12q11 -2 35 -6q10 -2 13 -2v-35h-285v35q66 7 80 25q16 17 16 65l2 449l-231 -574h-39l-233 529l-7 -404q0 -40 12 -55q2 -2 4.5 -6
t5.5 -6.5t8 -5.5q13 -6 28 -10q12 -3 15 -3q2 0 18.5 -2t19.5 -2v-35z" />
    <glyph glyph-name="oneeighth" unicode="&#x215b;" horiz-adv-x="1290" 
d="M350 836v-21h-256v21q46 4 62 12.5t16 32.5v338q0 23 -7.5 29.5t-25.5 2.5l-41 -10v23l158 67l16 -12v-438q0 -24 16 -32.5t62 -12.5zM88 -10l885 1313h57l-885 -1313h-57zM1075 270q111 -47 111 -137q0 -68 -58 -110q-58 -43 -151 -43q-87 0 -142 39q-57 37 -57 104
q0 84 90 129q-57 45 -57 110q0 57 48 98q47 40 124 40q73 0 116 -37q44 -38 44 -86q0 -60 -68 -107zM983 465q-43 0 -65.5 -20.5t-22.5 -53.5q0 -57 88 -88l53 -18q43 34 43 90q0 39 -24.5 64.5t-71.5 25.5zM983 14q106 0 107 88q0 34 -20 54q-22 19 -81 41l-55 20
q-20 6 -31 14q-59 -39 -59 -102q0 -52 37 -83.5t102 -31.5z" />
    <glyph glyph-name="threeeighths" unicode="&#x215c;" horiz-adv-x="1540" 
d="M463 963q0 -77 -69 -126q-71 -51 -169 -51q-56 0 -98 16q-43 15 -43 46t35 31q17 0 52 -32t69 -32q48 0 86 34q39 35 39 91q0 53 -36 82t-93 29q-35 0 -74 -15l-10 25l63 24q68 26 94.5 47.5t26.5 57.5q0 66 -84 66q-85 -2 -131 -56l-21 17q66 96 189 96q60 0 97.5 -29
t37.5 -76q0 -69 -115 -118q64 -5 109 -35q45 -31 45 -92zM262 -10l885 1313h57l-885 -1313h-57zM1348 270q112 -47 110 -137q0 -68 -58 -110q-58 -43 -151 -43q-87 0 -142 39q-56 38 -56 104q0 84 90 129q-56 45 -58 110q0 58 49 98q47 40 123 40q73 0 116 -37
q44 -38 44 -86q1 -60 -67 -107zM1255 465q-43 0 -65.5 -20.5t-22.5 -53.5q0 -57 88 -88l54 -18q43 34 43 90q0 39 -25 64.5t-72 25.5zM1255 14q106 0 107 88q0 35 -20 53t-80 42l-56 20q-18 6 -30 14q-58 -39 -60 -102q0 -52 37 -83.5t102 -31.5z" />
    <glyph glyph-name="fiveeighths" unicode="&#x215d;" horiz-adv-x="1499" 
d="M465 985q0 -81 -70 -133q-71 -53 -170 -53q-51 0 -96 15t-45 46t35 31q19 0 53 -32t72 -32q47 0 84 34t37 89q0 128 -232 115l-14 16l80 230h137q80 0 98 24h19l-35 -100h-209l-35 -102q167 10 230 -37q61 -48 61 -111zM219 -10l885 1313h57l-885 -1313h-57zM1305 270
q112 -47 110 -137q0 -68 -58 -110q-58 -43 -151 -43q-86 0 -142 39q-56 38 -56 104q0 84 90 129q-56 45 -58 110q0 58 49 98q47 40 123 40q73 0 116 -37q44 -38 44 -86q1 -60 -67 -107zM1212 465q-43 0 -65.5 -20.5t-22.5 -53.5q0 -57 88 -88l54 -18q43 34 43 90
q0 39 -25 64.5t-72 25.5zM1212 14q106 0 107 88q0 35 -20 53t-80 42l-56 20q-18 6 -30 14q-59 -39 -60 -102q0 -52 37 -83.5t102 -31.5z" />
    <glyph glyph-name="seveneighths" unicode="&#x215e;" horiz-adv-x="1417" 
d="M225 815h-67q58 193 215 436h-170q-30 0 -43.5 -3.5t-28.5 -15.5t-29 -40h-18l43 135l37 -8h272l10 -12q-164 -252 -221 -492zM168 -10l885 1313h57l-885 -1313h-57zM1253 270q111 -47 111 -137q0 -68 -58 -110q-58 -43 -151 -43q-87 0 -142 39q-57 38 -57 104
q0 84 91 129q-56 45 -58 110q0 57 48 98q47 40 124 40q73 0 116 -37q44 -38 44 -86q0 -60 -68 -107zM1161 465q-43 0 -65.5 -20.5t-22.5 -53.5q0 -57 88 -88l53 -18q43 34 43 90q0 39 -24.5 64.5t-71.5 25.5zM1161 14q106 0 107 88q0 34 -20 54q-22 19 -81 41l-55 20
q-20 6 -31 14q-59 -39 -59 -102q0 -52 37 -83.5t102 -31.5z" />
    <glyph glyph-name="partialdiff" unicode="&#x2202;" horiz-adv-x="1126" 
d="M567 -25q-201 0 -332 131t-131 320q0 230 192 336q190 106 449 4v-41q-240 47 -355 -49q-116 -96 -116 -268q0 -157 83 -266q82 -109 214 -109q139 0 223 128q83 128 83 331q0 173 -53 320q-54 146 -141 239q-177 187 -396 211l26 43q281 -17 504 -243q223 -228 225 -536
q2 -232 -125 -391q-127 -160 -350 -160z" />
    <glyph glyph-name="emptyset" unicode="&#x2205;" horiz-adv-x="1097" 
d="M1010 879l-115 -115q121 -133 121 -313q0 -196 -136 -332q-137 -137 -331 -137q-175 0 -309 116l-113 -112l-35 37l111 112q-121 130 -121 316q0 193 137 330t330 137q180 0 313 -121l113 114zM131 451q0 -163 109 -281l585 590q-121 106 -276 106q-173 0 -295 -121
q-123 -121 -123 -294zM549 33q172 0 294 122t122 296q0 157 -107 276l-584 -592q119 -102 275 -102z" />
    <glyph glyph-name="product" unicode="&#x220f;" horiz-adv-x="1241" 
d="M145 1638h951v-2048h-72v1977h-807v-1977h-72v2048z" />
    <glyph glyph-name="summation" unicode="&#x2211;" horiz-adv-x="1171" 
d="M145 1638h881v-71h-797l625 -955l-625 -950h797v-72h-881v72l594 952l-594 953v71z" />
    <glyph glyph-name="minus" unicode="&#x2212;" horiz-adv-x="1048" 
d="M903 479h-758v72h758v-72z" />
    <glyph glyph-name="radical" unicode="&#x221a;" horiz-adv-x="1415" 
d="M1227 1442l-647 -1823l-320 666q-40 86 -70 116t-106 58v55h186l330 -651l596 1777h199v-45q-91 -27 -116 -51q-27 -25 -52 -102z" />
    <glyph glyph-name="infinity" unicode="&#x221e;" horiz-adv-x="1382" 
d="M406 170q-135 0 -228 101q-94 100 -94 284q0 180 87 279q87 98 210 98q168 0 295 -193q103 189 297 191q137 0 231 -100t94 -285q0 -181 -88 -278q-88 -99 -211 -99q-168 0 -294 194q-107 -192 -299 -192zM362 317q72 0 133 50t95 145l51 152q-96 137 -252 137
q-97 0 -171 -54q-73 -55 -73 -188q0 -127 65 -184q64 -58 152 -58zM991 299q97 0 170 55q74 54 74 187q0 127 -64 184q-65 57 -153 57q-158 0 -227 -192l-54 -154q98 -137 254 -137z" />
    <glyph glyph-name="integral" unicode="&#x222b;" horiz-adv-x="1320" 
d="M221 -358q-135 0 -168 86q19 89 99 118q16 -55 56 -88.5t93 -33.5q78 0 144 69q66 72 85 244l103 844q32 257 155 389q123 133 312 133q137 0 170 -86q-23 -91 -99 -119q-16 55 -56 89t-95 34q-78 0 -143 -69q-67 -71 -86 -244l-107 -863q-30 -251 -149.5 -377
t-313.5 -126z" />
    <glyph glyph-name="approxequal" unicode="&#x2248;" horiz-adv-x="1079" 
d="M637 584q-81 0 -142 35q-59 33 -109 69q-49 35 -103 35q-67 0 -103.5 -25.5t-36.5 -62.5h-39q-22 78 43 136t175 58q58 0 109.5 -20.5t84.5 -49.5q81 -71 162 -71q65 0 101 25.5t36 64.5h39q22 -78 -42 -136q-65 -58 -175 -58zM637 236q-81 0 -142 35q-59 33 -109 69
q-49 35 -103 35q-67 0 -103.5 -25.5t-36.5 -62.5h-39q-22 78 43 136t175 58q58 0 109.5 -20.5t84.5 -49.5q81 -71 162 -71q65 0 101 25.5t36 64.5h39q22 -78 -42 -136q-65 -58 -175 -58z" />
    <glyph glyph-name="notequal" unicode="&#x2260;" horiz-adv-x="1048" 
d="M903 735v-71h-274l-123 -297h397v-72h-428l-123 -295h-80l123 295h-250v72h281l123 297h-404v71h435l116 281h80l-117 -281h244z" />
    <glyph glyph-name="lessequal" unicode="&#x2264;" horiz-adv-x="1036" 
d="M891 373v-78q-402 220 -746 350v72q342 130 746 350v-78q-184 -109 -668 -307q29 -11 115 -47q138 -59 145 -62q9 -4 31.5 -14.5t47.5 -21.5l50 -22q152 -67 279 -142zM891 98v-71h-758v71h758z" />
    <glyph glyph-name="greaterequal" unicode="&#x2265;" horiz-adv-x="1036" 
d="M145 295v78q121 72 279 142l50 22t47.5 21.5t31.5 14.5q23 10 146 62q83 35 114 47q-488 201 -668 307v78q402 -220 746 -350v-72q-344 -130 -746 -350zM903 27h-758v71h758v-71z" />
    <glyph glyph-name="lozenge" unicode="&#x25ca;" horiz-adv-x="1239" 
d="M1135 635l-517 -672l-514 672l514 674zM195 635l423 -553l426 553l-426 555z" />
    <glyph glyph-name="M.aalt" horiz-adv-x="1638" 
d="M1577 1290v-35q-103 -19 -129 -41q-39 -33 -39 -120v-897q0 -54 9 -82t37 -43q33 -18 47 -22q18 -5 73 -15v-35h-498v35q105 19 133 41q41 33 41 121l-2 913l-436 -1110h-61l-445 1030v-833q0 -51 9.5 -78.5t38.5 -43.5q28 -17 45 -22q6 -2 73 -14q5 -1 12 -3l7 -1v-35
h-429v35q104 19 134 41q39 33 39 121v897q0 50 -9 77.5t-35 44.5q-29 17 -43 21q-3 1 -67 14q-5 1 -12 3l-7 1v35h306q4 -26 63 -157l395 -916l353 916q50 133 55 157h342z" />
    <glyph glyph-name="W.aalt" horiz-adv-x="1910" 
d="M1513 1255v35h375v-35q-100 -19 -123 -34q-29 -19 -51 -78l-473 -1157h-74l-215 510l-209 -510h-69l-486 1151q-29 68 -55 85q-27 16 -110 33v35h1368v-35q-100 -19 -123 -34q-28 -19 -51 -78l-177 -434l213 -521l385 953q10 27 8 54q-1 16 -24 30q-9 6 -47 16
q-22 6 -62 14zM369 1137l387 -947l159 394l-233 553q-32 75 -62 95q-32 21 -118 21q-91 0 -126 -26.5t-7 -89.5zM1004 1253q-95 0 -132 -26.5t-8 -89.5l140 -338l137 342q26 60 -11 86t-126 26z" />
    <glyph glyph-name="i.aalt" horiz-adv-x="530" 
d="M256 1174q-36 0 -63 25.5t-27 60.5q0 36 27 63t63 27q37 0 64.5 -27t27.5 -63q0 -35 -27.5 -60.5t-64.5 -25.5zM467 0h-404v35q12 2 24.5 4.5l20 4t10.5 1.5q10 1 38 14q25 11 34 29.5t9 52.5v514q0 61 -26 90q-25 28 -110 39v31q58 11 88 25q29 12 72 46q41 32 66 48
l43 -39v-754q0 -35 8.5 -53t33.5 -29q26 -12 38 -15q13 -3 55 -9v-35z" />
    <glyph glyph-name="T_h.dlig" horiz-adv-x="2295" 
d="M2107 604v-463q0 -35 9 -53t35 -29q27 -13 38 -14q3 0 10 -1.5t19.5 -4t24.5 -4.5v-35h-408v35q93 13 115 35q25 25 24 71v465q0 94 -46.5 148.5t-139.5 54.5q-164 0 -289 -147v-521q0 -34 9 -52.5t34 -29.5q26 -12 38 -15q14 -3 58 -9v-35h-421v35q1 0 12.5 2t24.5 4.5
t15 2.5q27 3 49 15q26 14 35 30q13 22 13 52v817q0 150 -57 215q-58 64 -242 64h-299v-1040q0 -35 14 -88q2 -9 12 -18t23.5 -17.5t15.5 -9.5q7 -7 40 -13q38 -7 44 -8q37 -5 58 -8v-35h-572v35q18 2 37.5 5t21.5 3q3 0 9 1.5t16.5 3.5t18.5 3q33 6 40 13q8 6 27 18
q8 6 14 13t9.5 13t5.5 18.5t3 18.5t2.5 24.5t2.5 27.5v1040h-209q-160 0 -221 -64t-84 -215h-33l17 353l94 -21h1043q140 31 241 117l41 -39v-645h2q146 197 361 197q135 0 190 -82t55 -234z" />
    <glyph glyph-name="f_b.dlig" horiz-adv-x="1763" 
d="M1325 920q147 0 251 -117q103 -116 103 -311q0 -226 -140 -368q-139 -142 -345 -142q-152 0 -257 96q-106 96 -106 248v823q0 79 -63 124.5t-178 45.5q-117 0 -179 -65q-63 -66 -63 -250v-123l254 18q-10 -31 -10 -82h-244v-676q0 -36 25.5 -59.5t57.5 -29.5
q52 -8 95 -13q6 -1 31 -4v-35h-504v35q3 1 29.5 5t29.5 5t14.5 3.5t21 5.5t13.5 5q26 15 34 30q12 24 12 52v676h-154v39l154 31v4q0 253 125 381q124 127 338 127q130 0 301 -58v-622q51 84 146 143q94 58 208 58zM1208 43q126 0 233 91q107 92 107 276q0 173 -94 283
q-95 110 -227 110q-86 0 -153.5 -41.5t-102.5 -106.5v-354q0 -110 58 -183q59 -75 179 -75z" />
    <glyph glyph-name="f_h.dlig" horiz-adv-x="1744" 
d="M1546 604v-463q0 -45 25 -72q7 -10 35 -18q25 -7 38 -9q2 0 9.5 -1t18 -2.5t22.5 -3.5v-35h-418v35q42 6 55 9q12 3 39 15q26 11 34.5 29t8.5 53v465q0 94 -39.5 140.5t-132.5 46.5q-135 0 -276 -129v-523q0 -30 13 -52q9 -16 35 -30q21 -12 49 -15q2 0 15 -2.5
t24.5 -4.5t12.5 -2v-35h-432v35q5 0 28 4q17 3 32 6q49 18 52 21q42 32 37 75v1008q0 79 -63.5 124.5t-177.5 45.5q-117 0 -179 -65q-63 -66 -63 -250v-123l254 18q-10 -31 -10 -82h-244v-676q0 -36 25.5 -59.5t57.5 -29.5q52 -8 95 -13q6 -1 31 -4v-35h-504v35q3 1 29.5 5
t29.5 5t14.5 3.5t21 5.5t13.5 5q26 15 34 30q12 24 12 52v676h-154v39l154 31v4q0 253 125 381q124 127 338 127q133 0 295 -58v-614q65 66 106 100q39 33 105 63q64 30 137 30q131 0 182 -84t51 -232z" />
    <glyph glyph-name="f_j.dlig" horiz-adv-x="1120" 
d="M997 1286v-6q0 -35 -27.5 -60.5t-64.5 -25.5q-35 0 -61.5 24.5t-28.5 59.5q0 76 -84 76q-166 0 -274 -121q-109 -121 -109 -342v-10l213 18q-10 -31 -10 -82h-203v-676q0 -36 25.5 -59.5t57.5 -29.5q52 -8 95 -13q6 -1 31 -4v-35h-504v35q3 1 29.5 5t29.5 5t14.5 3.5
t21 5.5t13.5 5q26 15 34 30q12 24 12 52v676h-154v39l154 31q6 232 153 377q145 145 379 145q258 0 258 -123zM717 784v31q58 11 88 25q29 12 72 46q37 29 65 48l43 -39v-930q0 -303 -309 -344q-8 8 -8 22.5t8 20.5q94 34 135 96t41 201v694q0 62 -25 90t-110 39z" />
    <glyph glyph-name="f_k.dlig" horiz-adv-x="1667" 
d="M1171 575l334 -466q26 -36 57 -50q31 -15 97 -22v-37h-268q0 40 -37 98l-273 389l-116 -114v-232q0 -30 13 -52q9 -16 35 -30q21 -12 49 -15q2 0 15 -2.5t24.5 -4.5t12.5 -2v-35h-432v35q5 0 28 4q17 3 32 6q49 18 52 21q42 32 37 75v1008q0 79 -63.5 124.5t-177.5 45.5
q-117 0 -179 -65q-63 -66 -63 -250v-123l254 18q-10 -31 -10 -82h-244v-676q0 -36 25.5 -59.5t57.5 -29.5q52 -8 95 -13q6 -1 31 -4v-35h-504v35q3 1 29.5 5t29.5 5t14.5 3.5t21 5.5t13.5 5q26 15 34 30q12 24 12 52v676h-154v39l154 31v4q0 253 125 381q124 127 338 127
q133 0 295 -58v-876l295 289q46 45 28.5 73.5t-94.5 36.5v37h387v-37q-134 -12 -217 -98z" />
    <glyph glyph-name="t_t.dlig" horiz-adv-x="1271" 
d="M954 831v-610q0 -49 27.5 -76.5t71.5 -28.5q81 -1 166 31v-41q-73 -45 -258 -126q-51 0 -95 53q-45 53 -45 117v681h-491v-610q0 -67 47 -90t107 -9t110 46v-41q-72 -63 -258 -147q-51 0 -95 53t-44 117v681h-144v48q161 72 232 204h45v-202l348 -2l16 -2q137 63 215 206
h45v-194l250 31q-10 -30 -10 -89h-240z" />
    <glyph glyph-name="zero.lnum" horiz-adv-x="1239" 
d="M614 -18q-240 0 -375 187t-135 468q0 283 138 476q136 192 381 192q240 0 376 -187t136 -470q0 -284 -138 -474q-139 -192 -383 -192zM649 45q139 0 226 146q86 146 86 395q0 286 -105 471q-106 184 -268 184q-138 0 -224 -146q-85 -146 -85 -397q0 -284 104 -469
q103 -184 266 -184z" />
    <glyph glyph-name="one.lnum" horiz-adv-x="720" 
d="M627 0h-533v35q129 13 162 37q33 22 33 69v971q0 48 -18 62t-66 0l-103 -27v35l289 141l41 -33v-1149q0 -38 24.5 -61.5t57.5 -29.5q50 -8 96 -13q14 -2 17 -2v-35z" />
    <glyph glyph-name="two.lnum" horiz-adv-x="1124" 
d="M895 0h-795l-16 37q45 41 156 135q144 125 157 136q69 62 131 121q87 82 123 128q48 62 86 116q46 66 66 125q18 58 18 117q0 112 -73 192q-74 81 -211 81q-55 0 -114 -14q-59 -15 -130 -70q-73 -56 -113 -148l-53 27q51 157 184 239q134 83 283 83q178 0 292 -105
q113 -107 113 -270q0 -192 -181 -368q-82 -80 -173 -154q-66 -55 -204 -161q-125 -97 -191 -157h430q123 0 190 43q66 43 127 166h43l-98 -332h-43z" />
    <glyph glyph-name="three.lnum" horiz-adv-x="1062" 
d="M385 -25q-111 0 -203 27q-108 32 -108 111q0 33 23 50t55 17q59 0 123 -76q26 -33 69.5 -55t93.5 -22q128 0 249 100q122 101 122 246q0 134 -100 201t-238 67q-99 0 -211 -39l-16 47l162 70q172 73 245 130q74 59 74 148q0 83 -58 135t-165 52q-84 0 -186 -35
q-101 -35 -169 -115l-34 27q77 116 203 181q124 63 262 63q147 0 231 -72t80 -189q-2 -90 -65.5 -161.5t-192.5 -139.5q149 -11 248 -86q100 -76 100 -227q0 -200 -168 -327q-169 -128 -426 -128z" />
    <glyph glyph-name="four.lnum" horiz-adv-x="1038" 
d="M954 422l-20 -74h-174v-207q0 -57 38 -75q35 -18 117 -29q16 -2 19 -2v-35h-492v35q116 17 144 37q32 22 30 69v207h-530l-23 33l672 930h25v-889h194zM616 1065l-464 -643h464v643z" />
    <glyph glyph-name="five.lnum" horiz-adv-x="1021" 
d="M356 1149l-133 -342q223 55 378 2q153 -53 231 -159q77 -107 77 -234q0 -179 -151 -309q-152 -132 -369 -132q-111 0 -208 33t-97 105q0 33 23 50t55 17q31 0 65.5 -22t61.5 -54q26 -32 68 -54.5t87 -22.5q102 0 193 91q90 92 90 228q0 118 -64 213t-184 141
q-118 45 -291 -2l-41 39l199 553h348q60 0 100 2q28 2 60 15q31 12 51 41h33l-59 -199h-523z" />
    <glyph glyph-name="six.lnum" horiz-adv-x="1126" 
d="M580 -25q-223 0 -350 160t-126 391q1 306 226 535q225 228 504 244l26 -43q-104 -10 -206.5 -64.5t-189.5 -146.5q-88 -94 -140 -239q-54 -146 -54 -320q0 -203 83 -331t222 -128q132 0 214 109q83 109 83 266q0 172 -115 268t-356 49v41q259 102 450 -4
q191 -107 191 -336q0 -190 -130 -320q-131 -131 -332 -131z" />
    <glyph glyph-name="seven.lnum" 
d="M219 1290h717l22 -30q-398 -632 -544 -1260h-150q176 561 543 1149h-449q-45 0 -75 -2q-23 -2 -56 -15t-58 -43t-52 -85h-33l98 321h33z" />
    <glyph glyph-name="eight.lnum" horiz-adv-x="1112" 
d="M729 698q123 -44 201 -131q80 -89 80 -213q0 -160 -129 -273q-129 -114 -328 -114t-324 104t-125 261q0 108 67 200.5t187 151.5q-172 102 -172 283q0 135 97 229q95 94 270 94q169 0 263 -88q95 -89 95 -209q0 -167 -182 -295zM557 1235q-115 0 -167 -67t-52 -158
q0 -73 40 -138q40 -67 122 -94l147 -51q133 103 133 258q0 97 -51 173q-51 77 -172 77zM575 27q141 0 210 76q69 75 69 198q0 122 -62 184q-62 59 -206 109l-133 47q-6 2 -13 5t-8 3q-186 -107 -186 -309q0 -135 84 -224q83 -89 245 -89z" />
    <glyph glyph-name="nine.lnum" horiz-adv-x="1126" 
d="M547 1305q223 0 350 -160q127 -159 125 -391q-2 -308 -225 -534q-224 -229 -504 -245l-27 43q104 10 206.5 64.5t190.5 147.5q87 92 140 238q53 147 53 320q0 203 -83 331t-222 128q-131 0 -214 -108q-83 -110 -83 -267q0 -172 116 -268q115 -96 355 -49v-41
q-258 -102 -449 5q-192 107 -192 335q0 190 131 321q130 130 332 130z" />
    <glyph glyph-name="zero.tnum" horiz-adv-x="1232" 
d="M610 -18q-240 0 -375 187t-135 468q0 283 138 476q136 192 380 192q240 0 376 -187t136 -470q0 -284 -138 -474q-138 -192 -382 -192zM645 45q139 0 225 146t86 395q0 286 -105 471q-106 184 -267 184q-138 0 -224 -146q-86 -148 -86 -397q0 -284 105 -469
q103 -184 266 -184z" />
    <glyph glyph-name="one.tnum" horiz-adv-x="1232" 
d="M924 0h-615v35q163 12 201 35q35 23 35 71v971q0 49 -17 62.5t-67 -0.5l-144 -27v35l330 141l41 -33v-1149q0 -68 80 -88q34 -7 156 -18v-35z" />
    <glyph glyph-name="two.tnum" horiz-adv-x="1232" 
d="M934 0h-795l-16 37q45 41 156 135q144 125 157 136q69 62 131 121q87 82 123 128q48 62 86 116q46 66 66 125q18 58 18 117q0 112 -73 192q-73 81 -212 81q-55 0 -114 -14q-59 -15 -129 -70q-73 -56 -113 -148l-53 27q51 157 184 239q134 83 283 83q178 0 292 -105
q113 -107 113 -270q0 -192 -181 -368q-82 -80 -173 -154q-52 -43 -205 -161q-127 -98 -190 -157h430q123 0 190 43q66 43 127 166h43l-98 -332h-43z" />
    <glyph glyph-name="three.tnum" horiz-adv-x="1232" 
d="M483 -25q-108 0 -202 27q-109 31 -109 111q0 33 23 50t55 17q59 0 123 -76q26 -33 69.5 -55t94.5 -22q128 0 249 100t121 246q0 134 -100 201t-238 67q-98 0 -211 -39l-16 47l162 70q172 73 245 130q74 59 74 148q0 83 -58 135t-165 52q-84 0 -186 -35q-99 -34 -168 -115
l-35 27q77 116 203 181q124 63 262 63q147 0 231 -72t80 -189q-2 -90 -65.5 -161.5t-192.5 -139.5q149 -11 248 -86q100 -76 100 -227q0 -200 -168 -327q-169 -128 -426 -128z" />
    <glyph glyph-name="four.tnum" horiz-adv-x="1232" 
d="M1032 422l-20 -74h-174v-207q0 -57 38 -75q35 -18 117 -29q16 -2 19 -2v-35h-492v35q116 17 144 37q32 22 30 69v207h-530l-23 33l672 930h25v-889h194zM694 1065l-465 -643h465v643z" />
    <glyph glyph-name="five.tnum" horiz-adv-x="1232" 
d="M406 1149l-134 -342q223 55 378 2q153 -53 231 -159q77 -107 77 -234q0 -179 -151 -309q-151 -132 -369 -132q-110 0 -208 33q-97 33 -97 105q0 33 23 50t55 17q31 0 65.5 -22t61.5 -54q26 -32 68.5 -54.5t87.5 -22.5q102 0 192 91q90 92 90 228q0 118 -64 213
q-64 96 -183 141q-118 45 -291 -2l-41 39l198 553h348q100 0 141 10q41 9 70 48h33l-59 -199h-522z" />
    <glyph glyph-name="six.tnum" horiz-adv-x="1232" 
d="M625 -25q-223 0 -350 160q-128 161 -125 391q1 307 225 535q225 228 504 244l26 -43q-104 -10 -206.5 -64.5t-189.5 -146.5q-88 -94 -140 -239q-54 -146 -54 -320q0 -203 83 -331t223 -128q132 0 214 109q83 109 83 266q0 172 -116 268q-115 96 -356 49v41
q259 102 450 -4q191 -107 191 -336q0 -190 -130 -320q-131 -131 -332 -131z" />
    <glyph glyph-name="seven.tnum" horiz-adv-x="1232" 
d="M322 1290h716l23 -30q-400 -634 -545 -1260h-149q175 559 542 1149h-448q-46 0 -76 -2q-23 -2 -56 -15q-32 -13 -57 -42.5t-53 -85.5h-33l99 321h32z" />
    <glyph glyph-name="eight.tnum" horiz-adv-x="1232" 
d="M788 698q123 -44 201 -131q80 -89 80 -213q0 -160 -129 -273q-129 -114 -327 -114q-199 0 -324 104t-125 261q0 109 66.5 201t187.5 151q-172 102 -172 283q0 135 96 229q95 94 270 94q169 0 264 -88q95 -89 95 -209q-1 -167 -183 -295zM616 1235q-115 0 -167 -67
t-52 -158q0 -73 40 -138q40 -67 122 -94l148 -51q133 103 133 258q0 97 -51 173q-53 77 -173 77zM635 27q141 0 210 76q68 76 68 198t-62 184q-62 59 -206 109l-133 47q-6 2 -12.5 5t-7.5 3q-185 -106 -187 -309q0 -135 84 -224t246 -89z" />
    <glyph glyph-name="nine.tnum" horiz-adv-x="1232" 
d="M631 1305q223 0 350 -160q127 -159 125 -391q-2 -308 -225 -534q-224 -229 -504 -245l-27 43q104 10 206.5 64.5t190.5 147.5q87 92 140 238q53 147 53 320q0 203 -83 331t-222 128q-131 0 -214 -108q-83 -110 -83 -267q0 -172 116 -268q115 -96 355 -49v-41
q-258 -102 -449 5q-192 107 -192 335q0 190 131 321q130 130 332 130z" />
    <glyph glyph-name="zero.dnom" horiz-adv-x="610" 
d="M303 -20q-98 0 -158 74q-61 73 -61 186q0 114 62 191q62 75 161 75q97 0 159 -74q60 -73 60 -188q0 -116 -61 -189q-61 -75 -162 -75zM317 12q95 0 97 207q0 116 -32.5 185t-88.5 69q-96 0 -96 -209q0 -115 32 -183.5t88 -68.5z" />
    <glyph glyph-name="one.dnom" horiz-adv-x="444" 
d="M350 0h-256v20q46 4 62 13t16 33v337q0 23 -7.5 30t-25.5 3l-41 -10v23l158 67l16 -12v-438q0 -24 15.5 -32t62.5 -14v-20z" />
    <glyph glyph-name="two.dnom" horiz-adv-x="573" 
d="M451 0h-361l-6 23q1 1 41 35q25 20 43 36q26 23 39 35q10 10 23.5 23t16.5 16q5 5 16.5 18t17.5 19q24 27 52 75q21 36 21 74q0 43 -25 71t-71 28q-84 0 -135 -86l-23 14q25 63 78.5 99t120.5 36q72 0 119 -41t47 -102q0 -46 -35 -98q-33 -50 -71 -82q-31 -26 -93 -73
q-16 -12 -31.5 -23.5t-24 -18t-11.5 -8.5h135q56 0 83 13q26 13 46 60h26z" />
    <glyph glyph-name="three.dnom" horiz-adv-x="546" 
d="M225 -20q-55 0 -98 15t-43 46t35 31q17 0 52 -32t69 -32q48 0 86 34q39 34 39 91q0 53 -36 82t-93 29q-35 0 -74 -15l-10 25l63 25q69 26 95 47.5t26 56.5q0 66 -84 66t-131 -56l-21 17q66 96 189 96q60 0 97.5 -28.5t37.5 -76.5q0 -69 -115 -118q64 -5 109 -35
q45 -32 45 -92q0 -77 -70 -126q-71 -50 -168 -50z" />
    <glyph glyph-name="four.dnom" horiz-adv-x="555" 
d="M395 135v-69q0 -24 14.5 -32.5t61.5 -13.5v-20h-254v20q46 4 61 13t15 33v69h-221l-9 41l238 328h94v-328h76l-8 -41h-68zM293 436l-189 -260h189v260z" />
    <glyph glyph-name="five.dnom" horiz-adv-x="548" 
d="M209 416l-35 -103q167 10 230 -37q61 -46 61 -110q0 -81 -70 -133q-71 -53 -170 -53q-51 0 -96 15t-45 46t35 31q19 0 53 -32t72 -32q47 0 84 34t37 89q0 128 -232 115l-14 16l80 230h137q80 0 98 24h19l-35 -100h-209z" />
    <glyph glyph-name="six.dnom" horiz-adv-x="606" 
d="M313 -20q-96 0 -153 61q-58 60 -56 156q1 126 100 215q97 88 214 94l14 -27q-89 -7 -156 -85q-67 -76 -67 -210q0 -79 29 -126.5t79 -47.5q48 0 74.5 39t26.5 103q0 150 -156 139v26q94 29 177 -15t83 -138q0 -79 -59 -132q-59 -52 -150 -52z" />
    <glyph glyph-name="seven.dnom" horiz-adv-x="499" 
d="M164 504h272l10 -12q-164 -252 -221 -492h-67q58 193 215 436h-170q-31 0 -44 -3t-28 -16q-14 -11 -29 -40h-18l43 135z" />
    <glyph glyph-name="eight.dnom" horiz-adv-x="616" 
d="M401 270q111 -47 111 -137q0 -68 -58 -110q-58 -43 -151 -43q-86 0 -142 39q-57 37 -57 104q0 84 91 129q-56 45 -58 110q0 57 48 98q47 40 124 40q73 0 116 -37q44 -38 44 -86q0 -60 -68 -107zM309 465q-43 0 -65.5 -20.5t-22.5 -53.5q0 -57 88 -88l53 -18q42 34 44 90
q0 39 -25 64.5t-72 25.5zM309 14q106 0 107 88q0 34 -20 54q-22 19 -81 41l-55 20q-20 6 -31 14q-59 -39 -59 -102q0 -52 37 -83.5t102 -31.5z" />
    <glyph glyph-name="nine.dnom" horiz-adv-x="606" 
d="M293 498q96 0 154 -61q57 -61 55 -156q-1 -126 -99 -215t-215 -95l-14 27q89 7 157 85q66 77 66 210q0 79 -29 126.5t-79 47.5q-48 0 -74.5 -39t-26.5 -102q0 -150 156 -140v-26q-94 -28 -177 15q-83 44 -83 138q0 81 60 133q58 52 149 52z" />
    <glyph glyph-name="zero.numr" horiz-adv-x="610" 
d="M303 797q-98 0 -158 74q-61 73 -61 186q0 114 62 191q61 75 161 75q98 0 159 -73q60 -74 60 -189q0 -116 -61 -189q-61 -75 -162 -75zM317 829q95 0 97 207q0 116 -32.5 185t-88.5 69q-96 0 -96 -209q0 -115 32 -183.5t88 -68.5z" />
    <glyph glyph-name="one.numr" horiz-adv-x="444" 
d="M350 815h-256v21q46 4 62 12.5t16 32.5v338q0 23 -7.5 29.5t-25.5 2.5l-41 -10v23l158 67l16 -12v-438q0 -24 16 -32.5t62 -12.5v-21z" />
    <glyph glyph-name="two.numr" horiz-adv-x="573" 
d="M451 805h-361l-6 22q1 1 41 35q35 30 43 37q26 23 39 35q21 19 74 76q24 27 52 75q21 36 21 74q0 43 -25 70.5t-71 27.5q-84 0 -135 -86l-23 15q25 63 78.5 99t120.5 36q72 0 119 -41t47 -102q0 -46 -35 -98q-33 -50 -71 -82q-31 -26 -93 -73q-53 -39 -67 -51h135
q57 0 84 14t45 60h26z" />
    <glyph glyph-name="three.numr" horiz-adv-x="546" 
d="M225 786q-56 0 -98 16q-43 15 -43 46t35 31q17 0 52 -32t69 -32q48 0 86 34q39 35 39 91q0 53 -36 82t-93 29q-35 0 -74 -15l-10 25l63 24q68 26 94.5 47.5t26.5 57.5q0 66 -84 66q-85 -2 -131 -56l-21 17q66 96 189 96q60 0 97.5 -29t37.5 -76q0 -69 -115 -118
q64 -5 109 -35q45 -31 45 -92q0 -77 -70 -126q-71 -51 -168 -51z" />
    <glyph glyph-name="four.numr" horiz-adv-x="555" 
d="M395 936v-70q0 -24 15 -32.5t61 -12.5v-20h-254v20q46 4 61 12.5t15 32.5v70h-221l-9 41l238 328h94v-328h76l-8 -41h-68zM293 1237l-189 -260h189v260z" />
    <glyph glyph-name="five.numr" horiz-adv-x="548" 
d="M209 1235l-35 -102q167 10 230 -37q61 -46 61 -111q0 -81 -70 -133q-71 -53 -170 -53q-51 0 -96 15t-45 46t35 31q19 0 53 -32t72 -32q47 0 84 34t37 89q0 128 -232 115l-14 16l80 230h137q80 0 98 24h19l-35 -100h-209z" />
    <glyph glyph-name="six.numr" horiz-adv-x="606" 
d="M313 784q-96 0 -153 62q-58 60 -56 155q1 127 100 216q97 88 214 94l14 -27q-89 -7 -156 -85q-67 -76 -67 -210q0 -79 29 -126.5t79 -47.5q48 0 74.5 39t26.5 102q0 150 -156 140v26q94 28 177 -15q83 -44 83 -138q0 -79 -59 -132q-61 -53 -150 -53z" />
    <glyph glyph-name="seven.numr" horiz-adv-x="499" 
d="M164 1319h272l10 -12q-164 -252 -221 -492h-67q58 193 215 436h-170q-30 0 -43.5 -3.5t-28.5 -15.5t-29 -40h-18l43 135z" />
    <glyph glyph-name="eight.numr" horiz-adv-x="616" 
d="M401 1085q111 -47 111 -137q0 -68 -58 -110q-58 -43 -151 -43q-86 0 -142 39q-57 38 -57 104q0 84 91 129q-56 45 -58 111q0 56 48 97q47 40 124 40q73 0 116 -37q44 -38 44 -86q0 -60 -68 -107zM309 1280q-43 0 -65.5 -20.5t-22.5 -53.5q0 -57 88 -88l53 -18
q42 34 44 90q0 39 -25 64.5t-72 25.5zM309 829q105 0 107 89q0 35 -20 53q-22 19 -81 41l-55 20q-21 6 -31 15q-59 -39 -59 -103q0 -52 37 -83.5t102 -31.5z" />
    <glyph glyph-name="nine.numr" horiz-adv-x="606" 
d="M293 1305q96 0 154 -61q57 -61 55 -157q-1 -126 -99 -215q-97 -88 -215 -94l-14 27q89 7 157 85q66 76 66 210q0 79 -29 126.5t-79 47.5q-48 0 -74.5 -39t-26.5 -102q0 -151 156 -140v-26q-94 -29 -177 15t-83 138q0 80 60 133q58 52 149 52z" />
    </font>
</defs>
</svg>
