<?xml version="1.0" standalone="no"?>
<!DOCTYPE svg PUBLIC "-//W3C//DTD SVG 1.1//EN" "http://www.w3.org/Graphics/SVG/1.1/DTD/svg11.dtd" >
<svg xmlns="http://www.w3.org/2000/svg" xmlns:xlink="http://www.w3.org/1999/xlink" version="1.1">
<metadata>
Created by FontForge 20170731 at Tue Jul 25 21:56:15 2017
 By Aleksey,,,
Copyright (c) 2016 by Connary Fagen. All rights reserved.
</metadata>
<defs>
<font id="AddingtonCF-RegularItalic" horiz-adv-x="1042" >
  <font-face 
    font-family="Addington CF Regular Italic"
    font-weight="400"
    font-style="italic"
    font-stretch="normal"
    units-per-em="2048"
    panose-1="0 0 5 0 0 0 0 0 0 0"
    ascent="1638"
    descent="-410"
    x-height="881"
    cap-height="1290"
    bbox="-621 -653 2146 1841"
    underline-thickness="0"
    underline-position="0"
    unicode-range="U+0020-FB02"
  />
<missing-glyph horiz-adv-x="999" 
d="M186 1638h633v-1996h-633v1996zM666 1440v65h-330v-65h129v-76h-131v-66h332v66h-134v76h134zM532 1108v139h-198v-207h332v68h-134zM399 1180h66v-72h-66v72zM666 920v65h-332v-65h131v-74h-131v-66h198v140h134zM666 666v200h-66v-133h-266v-67h332zM666 397v226h-201
v-113h67v47h68v-94h-201v160h-65v-226h332zM666 51v225h-332v-225h332zM399 211h201v-94h-201v94zM666 -61v65h-332v-65h139l-139 -95v-65h332v65h-205l139 95h66z" />
    <glyph glyph-name="uniFB01" unicode="fi" horiz-adv-x="1224" 
d="M1278 1290q6 -16 6 -33q0 -47 -35 -79q-35 -33 -82 -33t-81 33q-35 32 -35 79q0 20 6 35q17 55 -3 78t-79 23q-99 0 -199 -60q-57 -34 -103.5 -102.5t-72.5 -161.5l-53 -188h217l-29 -82l-209 12l-180 -641q-78 -271 -204 -411t-289 -140q-89 0 -141 41q-50 41 -50 94
q0 39 26.5 65.5t65.5 26.5q44 0 64 -33q20 -31 18 -69q-2 -68 66 -68q70 0 120 65q49 66 99 239l237 839l-223 12l15 50h225q82 290 240 430q157 139 360 139q118 0 198.5 -44t104.5 -116zM1079 891q55 0 79 -38.5t1 -92.5l-221 -539q-41 -98 -2 -88q50 12 178 189l33 -35
q-196 -307 -334 -307q-54 0 -77.5 37.5t-2.5 93.5l219 538q36 88 7 89q-2 0 -5 -1q-50 -11 -180 -188l-31 35q196 307 336 307z" />
    <glyph glyph-name="uniFB02" unicode="fl" horiz-adv-x="1177" 
d="M1278 1290l-373 -1069q-33 -97 0 -86q47 14 176 191l31 -35q-195 -311 -340 -311q-49 0 -71.5 32t-4.5 84l414 1194q0 48 -39.5 75.5t-103.5 27.5q-96 0 -192 -56q-55 -32 -102 -102t-73 -166l-53 -188h225l-29 -82l-217 12l-180 -641q-78 -271 -204 -411t-289 -140
q-87 0 -140 41q-51 40 -51 96q0 39 26.5 64.5t65.5 25.5q44 0 64 -33q20 -31 18 -69q-2 -68 66 -68q70 0 120 65q49 66 99 239l237 839l-215 12l15 50h217q82 290 234 430q151 139 345 139q123 0 225 -50q99 -50 99 -110z" />
    <glyph glyph-name="f_f.liga" unicode="ff" horiz-adv-x="1392" 
d="M1503 1430q89 0 138 -37.5t49 -94.5q0 -41 -27 -68.5t-66 -27.5q-79 0 -77 101q0 71 -72 69q-69 0 -119 -65q-48 -64 -98 -238l-53 -188h225l-29 -82l-217 6l-180 -635q-78 -272 -203.5 -411.5t-290.5 -139.5q-90 0 -140 41t-50 94q0 39 26.5 65.5t65.5 26.5q45 0 65 -33
q19 -30 17 -69q-2 -68 65 -68q70 0 120 65q51 68 100 239l233 829l-457 12l-200 -710q-78 -272 -203.5 -411.5t-290.5 -139.5q-90 0 -140 41t-50 94q0 39 26.5 65.5t65.5 26.5q44 0 64 -33t18 -69q-2 -68 65 -68q70 0 120 65q50 66 99 238l254 899v2q2 2 2 4l-217 6l15 50
h219q80 243 201 366t278 123q88 0 137 -37.5t49 -93.5q0 -41 -26.5 -68.5t-65.5 -27.5q-78 0 -78 100q0 70 -71 70q-69 0 -119 -65q-48 -64 -98 -238l-37 -129h461q78 271 205 410t292 139z" />
    <glyph glyph-name="f_f_i.liga" unicode="ffi" horiz-adv-x="1855" 
d="M1909 1290q6 -16 6 -33q0 -47 -35 -79q-34 -33 -82 -33t-82 33q-35 32 -35 79q0 21 7 35q17 55 -3 78t-79 23q-99 0 -199 -60q-57 -34 -104 -102.5t-72 -161.5l-53 -188h225l-29 -82l-217 6l-180 -635q-78 -272 -203.5 -411.5t-290.5 -139.5q-90 0 -140 41t-50 94
q0 39 26.5 65.5t65.5 26.5q45 0 65 -33q19 -30 17 -69q-2 -68 65 -68q70 0 120 65q51 68 100 239l233 829l-457 12l-200 -710q-78 -272 -203.5 -411.5t-290.5 -139.5q-90 0 -140 41t-50 94q0 39 26.5 65.5t65.5 26.5q44 0 64 -33t18 -69q-2 -68 65 -68q70 0 120 65
q50 66 99 238l254 899v2q2 2 2 4l-217 6l15 50h219q80 243 201 366t278 123q88 0 137 -37.5t49 -93.5q0 -41 -26.5 -68.5t-65.5 -27.5q-78 0 -78 100q0 70 -71 70q-69 0 -119 -65q-48 -64 -98 -238l-37 -129h461q82 290 240 430q157 139 360 139q118 0 198.5 -44t104.5 -116
zM1710 891q55 0 78.5 -38t1.5 -93l-221 -539q-41 -98 -2 -88q50 12 178 189l33 -35q-196 -307 -334 -307q-54 0 -78.5 38t-1.5 93l219 538q36 88 7 89q-2 0 -5 -1q-50 -11 -180 -188l-31 35q196 307 336 307z" />
    <glyph glyph-name=".notdef" horiz-adv-x="999" 
d="M186 1638h633v-1996h-633v1996zM666 1440v65h-330v-65h129v-76h-131v-66h332v66h-134v76h134zM532 1108v139h-198v-207h332v68h-134zM399 1180h66v-72h-66v72zM666 920v65h-332v-65h131v-74h-131v-66h198v140h134zM666 666v200h-66v-133h-266v-67h332zM666 397v226h-201
v-113h67v47h68v-94h-201v160h-65v-226h332zM666 51v225h-332v-225h332zM399 211h201v-94h-201v94zM666 -61v65h-332v-65h139l-139 -95v-65h332v65h-205l139 95h66z" />
    <glyph glyph-name="glyph1" horiz-adv-x="0" 
 />
    <glyph glyph-name="glyph2" horiz-adv-x="681" 
 />
    <glyph glyph-name="space" unicode=" " horiz-adv-x="389" 
 />
    <glyph glyph-name="exclam" unicode="!" horiz-adv-x="454" 
d="M199 373h-45l194 839q15 69 45.5 97t81.5 28q129 0 72 -139zM210 17q-37 -37 -91 -37t-91 37q-38 36 -38 89q0 50 38 88q37 37 91 37q53 0 91 -36q38 -38 38 -89q0 -53 -38 -89z" />
    <glyph glyph-name="quotedbl" unicode="&#x22;" horiz-adv-x="524" 
d="M248 795h-27l68 393q8 47 35.5 74.5t64.5 27.5q42 0 56 -39q12 -39 -13 -88zM496 795h-27l68 393q8 47 35.5 74.5t64.5 27.5q43 0 56 -39q12 -39 -13 -88z" />
    <glyph glyph-name="numbersign" unicode="#" horiz-adv-x="968" 
d="M1065 954l-39 -96h-182l-154 -399h187l-39 -97h-185l-161 -423h-97l162 423h-229l-162 -423h-98l163 423h-184l39 97h182l154 399h-186l38 96h185l162 422h94l-162 -422h231l162 422h96l-161 -422h184zM365 459h229l154 399h-232z" />
    <glyph glyph-name="dollar" unicode="$" horiz-adv-x="985" 
d="M911 1427l-69 -172q157 -18 237 -106l-75 -236h-41q33 246 -146 279l-176 -434q1 -2 7 -5.5t7 -4.5q17 -13 43.5 -32t35.5 -26q29 -22 73 -67q88 -88 88 -205q0 -160 -156 -269q-158 -110 -374 -110h-13l-67 -166h-60l70 170q-163 17 -270 119l65 233h43
q-14 -123 35 -198.5t151 -90.5l205 506l-12 11q-65 46 -76 56q-27 22 -63 58q-72 72 -72 178q0 151 135 248q134 97 332 97h18l68 167h57zM492 975q0 -92 106 -182l162 403q-114 -2 -190 -66q-78 -64 -78 -155zM692 371q0 105 -123 209l-192 -478q132 2 223 81q92 80 92 188
z" />
    <glyph glyph-name="percent" unicode="%" horiz-adv-x="1400" 
d="M1370 1300l123 -10l-1333 -1290h-111l1165 1118q-78 -33 -157 -33q-108 0 -203 62q-1 -165 -154 -328q-153 -162 -317 -162q-74 0 -114 41.5t-40 116.5q0 165 156 322t326 157q77 0 114 -45q146 -104 256 -104q139 -1 289 155zM434 721q110 0 237 160q128 160 128 272
q0 82 -84 82q-105 0 -227 -165q-121 -164 -121 -282q-1 -67 67 -67zM1163 633q142 0 144 -146q0 -167 -154 -328q-154 -163 -317 -163q-74 0 -114 41.5t-40 116.5q0 164 156 322q154 157 325 157zM887 59q110 0 237 160t127 273q0 82 -84 81q-105 0 -227 -164
q-121 -164 -121 -282q0 -68 68 -68z" />
    <glyph glyph-name="ampersand" unicode="&#x26;" horiz-adv-x="1339" 
d="M1364 879h35q31 -94 -35 -169t-162 -75q-66 0 -143 57q25 -278 -140 -498q-165 -219 -423 -219q-197 0 -305 124q-109 124 -109 302q0 131 54 242q54 110 138 178q85 67 184.5 96t190.5 11l88 190q33 69 40 121t-8 65q-2 2 -9 11.5t-10 14t-9 14t-8.5 16t-5 15.5t-2.5 18
q0 33 18.5 52t53.5 19q68 0 78 -66.5t-44 -199.5l-466 -1022q79 -27 159 -26q158 0 279 93t171 227q50 136 25 265q-43 25 -79 25q-57 0 -93 -42q-36 -41 -34 -93h-35q-25 102 38 174q62 71 158 71q68 0 153 -60t134 -60q57 0 92 41q35 42 31 88zM147 469q0 -183 168 -272
l269 583q-61 40 -137 30q-74 -10 -142 -49q-67 -37 -112 -117q-46 -79 -46 -175z" />
    <glyph glyph-name="quotesingle" unicode="'" horiz-adv-x="276" 
d="M248 795h-27l68 393q8 47 35.5 74.5t64.5 27.5q42 0 56 -39q12 -39 -13 -88z" />
    <glyph glyph-name="parenleft" unicode="(" horiz-adv-x="561" 
d="M258 -311l-27 -8q-180 186 -180 505q0 380 219 763q219 382 561 595l33 -26q-288 -246 -481 -676q-193 -426 -193 -805q0 -207 68 -348z" />
    <glyph glyph-name="parenright" unicode=")" horiz-adv-x="561" 
d="M422 1536l27 8q180 -186 180 -506q0 -381 -219 -762q-220 -382 -562 -595l-32 26q288 246 481 676q192 427 192 805q0 210 -67 348z" />
    <glyph glyph-name="asterisk" unicode="*" horiz-adv-x="778" 
d="M549 1071l-47 117q-23 51 1 81q23 29 62 29t63 -29q22 -30 3 -81l-47 -117q-6 -14 -17.5 -14t-17.5 14zM481 1010l-123 22q-55 7 -69 46q-15 37 8 65q22 37 53.5 39t75.5 -41l74 -101q10 -12 3.5 -22t-22.5 -8zM772 1032l-123 -22q-14 -2 -21 9t3 21l76 101q76 83 129 2
q23 -28 7 -65q-17 -39 -71 -46zM295 831q-23 28 -7 65q15 39 70 46l123 23q14 2 21.5 -9.5t-2.5 -21.5l-76 -100q-76 -83 -129 -3zM836 831q-22 -37 -55.5 -39t-73.5 42l-76 100q-10 10 -3 21.5t21 9.5l123 -23q54 -7 71 -46q16 -37 -7 -65zM629 705q-23 -29 -64 -29
q-40 0 -63 29q-22 29 0 81l45 117q6 14 18.5 14.5t18.5 -14.5l45 -117q23 -52 0 -81z" />
    <glyph glyph-name="plus" unicode="+" horiz-adv-x="876" 
d="M543 575h284l-39 -120h-284l-105 -322h-118l104 322h-289l39 120h289l102 318h119z" />
    <glyph glyph-name="comma" unicode="," horiz-adv-x="436" 
d="M-113 -303l-16 53q162 56 201 174q8 26 0 40.5t-37 33.5q-63 45 -64 106q0 53 40 90t96 37q57 0 94 -41.5t37 -111.5q0 -114 -97 -229q-96 -114 -254 -152z" />
    <glyph glyph-name="hyphen" unicode="-" horiz-adv-x="839" 
d="M727 479h-614v88h614v-88z" />
    <glyph glyph-name="period" unicode="." horiz-adv-x="454" 
d="M210 17q-37 -37 -91 -37t-91 37q-38 36 -38 89q0 50 38 88q37 37 91 37q53 0 91 -36q38 -38 38 -89q0 -53 -38 -89z" />
    <glyph glyph-name="slash" unicode="/" horiz-adv-x="718" 
d="M-51 -190l-84 57l1118 1671l84 -57z" />
    <glyph glyph-name="zero" unicode="0" horiz-adv-x="1015" 
d="M350 -18q-136 0 -218 82q-83 81 -83 223q0 237 187 424q186 188 430 188q136 0 218 -82q83 -83 83 -223q0 -234 -187 -422q-187 -190 -430 -190zM387 51q104 0 199 101t144 232q50 133 50 241q0 95 -39.5 149.5t-111.5 54.5q-104 0 -198 -100q-95 -101 -146 -231
q-52 -129 -52 -240q0 -96 40 -151.5t114 -55.5z" />
    <glyph glyph-name="one" unicode="1" horiz-adv-x="696" 
d="M524 700l-176 -538q-20 -64 11 -84q30 -21 124 -33l-14 -45h-526l14 47q98 12 149 35q49 23 68 86l174 539q23 69 -8 92t-121 37l12 45h529l-15 -47q-99 -12 -148 -39q-51 -28 -73 -95z" />
    <glyph glyph-name="two" unicode="2" horiz-adv-x="837" 
d="M508 0h-555l-6 47q23 17 96 66q98 68 110 76q9 6 107 77q60 43 110 86q30 26 92 84q54 51 81 88q69 94 69 162q0 96 -120 96q-142 0 -285 -161l-29 47q79 112 186.5 171.5t223.5 59.5q98 0 154.5 -51.5t56.5 -138.5q0 -89 -60 -168q-15 -20 -61 -75q-24 -30 -82 -74
q-33 -25 -86 -64q-29 -23 -97 -62q-65 -38 -90 -51q-43 -23 -88 -48q-18 -10 -35 -19l-25.5 -13.5t-10.5 -5.5l244 6q88 1 145 30t117 111l43 -10l-166 -289h-43z" />
    <glyph glyph-name="three" unicode="3" horiz-adv-x="884" 
d="M78 -389q-93 0 -163 35q-69 34 -69 106q0 80 76 80q58 0 90 -81q13 -33 42 -57t69 -24q119 0 249 136t130 270q0 82 -57 124q-59 42 -144 42q-74 0 -182 -47l-2 55l153 72q164 77 266 156q99 76 99 177q0 55 -34.5 87t-94.5 32q-146 0 -313 -164l-23 56q203 233 424 233
q99 0 155 -50t56 -138q0 -216 -361 -379q100 -4 174 -60q74 -57 74 -166q0 -187 -198 -341q-199 -154 -416 -154z" />
    <glyph glyph-name="four" unicode="4" horiz-adv-x="937" 
d="M819 911h55l-274 -843h176l-47 -88h-158l-57 -177q-20 -61 6 -84q25 -22 92 -34l-12 -43h-461l15 47q74 12 118 35q40 24 60 86l55 170h-471l-12 40zM600 631l-582 -563h398z" />
    <glyph glyph-name="five" unicode="5" horiz-adv-x="923" 
d="M1020 948l-148 -237h-485l-174 -262q254 33 376 -53q122 -87 122 -244q0 -214 -193 -377q-194 -164 -424 -164q-96 0 -173 33q-77 35 -77 102q0 86 93 86q54 0 88 -81q14 -34 43 -57.5t71 -23.5q123 0 245 146q122 148 122 297q0 117 -93 181q-94 64 -292 25l-25 41
l336 521h316q89 0 137 13q49 14 90 54h45z" />
    <glyph glyph-name="six" unicode="6" horiz-adv-x="1056" 
d="M406 -25q-150 0 -228 89t-78 247q0 224 146 454q146 229 370 377q223 148 449 163l14 -58q-145 -13 -294 -117q-151 -104 -260 -249q-109 -143 -181 -316q-70 -168 -70 -311q0 -99 38 -153t112 -54q145 0 268 173q123 172 123 339q0 184 -182 184q-51 0 -113 -14l17 45
q89 53 198 53q122 0 193 -73t71 -203q0 -218 -182 -397t-411 -179z" />
    <glyph glyph-name="seven" unicode="7" horiz-adv-x="940" 
d="M360 881h660l8 -41q-569 -611 -881 -1235h-163q293 507 847 1106h-397q-89 0 -145 -29q-57 -29 -133 -131h-47l221 364h39z" />
    <glyph glyph-name="eight" unicode="8" horiz-adv-x="1021" 
d="M766 709q164 -95 164 -256q0 -191 -175 -330q-175 -141 -393 -141q-147 0 -233 74t-86 202q0 138 98 253t258 179q-78 85 -77 201q0 168 136 291t316 123q126 0 195 -63.5t69 -168.5q0 -106 -74 -201q-76 -96 -198 -163zM770 1241q-111 0 -189 -90q-79 -89 -79 -193
q0 -125 135 -188l61 -29q99 57 160 154q60 95 60 190q0 72 -38 114t-110 42zM377 47q141 0 250 111q108 110 108 231q0 67 -42 110t-140 93l-47 22q-33 17 -55 31q-129 -61 -202 -163q-73 -103 -73 -224q0 -98 53.5 -154.5t147.5 -56.5z" />
    <glyph glyph-name="nine" unicode="9" horiz-adv-x="1044" 
d="M645 899q150 0 227.5 -88.5t77.5 -247.5q0 -226 -145 -453q-145 -228 -370 -378q-223 -148 -449 -162l-15 57q145 13 295 117t261 249q110 148 180 316q69 169 69 312q0 99 -38.5 152.5t-110.5 53.5q-145 0 -268 -173q-123 -172 -123 -339q0 -184 182 -184q51 0 112 14
l-16 -45q-89 -53 -199 -53q-122 0 -193 73.5t-71 203.5q0 218 183 397q181 178 411 178z" />
    <glyph glyph-name="colon" unicode=":" horiz-adv-x="454" 
d="M431 692q-37 -37 -91 -37t-91 37q-38 38 -38 90q0 50 38 88q37 37 91 37t91 -36q38 -38 38 -89q0 -52 -38 -90zM210 17q-37 -37 -91 -37t-91 37q-38 36 -38 89q0 50 38 88q37 37 91 37q53 0 91 -36q38 -38 38 -89q0 -53 -38 -89z" />
    <glyph glyph-name="semicolon" unicode=";" horiz-adv-x="438" 
d="M413 690q-37 -37 -91 -37t-91 37q-38 38 -38 90q0 50 38 88q37 37 91 37t91 -37q38 -38 38 -88q0 -52 -38 -90zM-111 -303l-16 53q162 56 201 174q8 27 0.5 41.5t-37.5 32.5q-63 45 -64 106q0 53 40 90t96 37q57 0 94 -41.5t37 -111.5q0 -114 -97 -229
q-96 -114 -254 -152z" />
    <glyph glyph-name="less" unicode="&#x3c;" horiz-adv-x="911" 
d="M948 918l-41 -142q-295 -153 -676 -284q263 -103 490 -279l-35 -117q-262 196 -567 348l35 121q388 146 794 353z" />
    <glyph glyph-name="equal" unicode="=" horiz-adv-x="868" 
d="M840 639h-682l39 121h682zM721 270h-682l39 121h682z" />
    <glyph glyph-name="greater" unicode="&#x3e;" horiz-adv-x="911" 
d="M6 96l41 142q295 153 676 284q-263 103 -490 279l35 117q267 -200 568 -349l-35 -120q-387 -145 -795 -353z" />
    <glyph glyph-name="question" unicode="?" horiz-adv-x="870" 
d="M424 381h-41q-3 46 10.5 92.5t31 80.5t54.5 78.5t60 68t68 68.5q49 49 110 133q54 75 82 161q67 211 -168 211q-49 0 -107 -82q-65 -90 -104 -126q-38 -34 -76 -34q-51 0 -51 60q0 78 88 139q87 60 197 89q106 28 202 28q150 0 205 -91q55 -90 8 -231
q-29 -89 -90.5 -164.5t-136.5 -128.5q-82 -58 -139 -96q-167 -113 -203 -256zM429 14q-37 -37 -91 -37t-91 37q-38 38 -38 90q0 50 38 88q37 37 91 37t91 -36q38 -38 38 -89q0 -52 -38 -90z" />
    <glyph glyph-name="at" unicode="@" horiz-adv-x="1646" 
d="M1139 1300q237 0 371 -126q132 -128 132 -336q0 -239 -148 -432q-148 -195 -353 -195q-84 0 -127 38t-33 105q-148 -137 -305 -137q-86 0 -135 47t-49 135q0 193 171 360q172 167 357 167q166 0 166 -164l74 137h129l-259 -496q-21 -47 -26.5 -74.5t10 -45t57.5 -19.5
q154 0 277 186q123 184 123 392q0 174 -114 284q-113 109 -314 109q-163 0 -327 -81q-163 -81 -283 -208q-120 -126 -197 -289q-76 -162 -76 -323q0 -186 111 -299q110 -113 313 -113q209 0 422 111l29 -43q-218 -129 -473 -129q-246 0 -393 141q-148 141 -148 369
q0 235 149 453q148 215 384 346q235 130 485 130zM733 281q81 0 178 80q96 80 164 192l37 72q39 83 39 143q0 104 -102 104q-139 0 -275 -175q-137 -176 -137 -314q0 -102 96 -102z" />
    <glyph glyph-name="A" unicode="A" horiz-adv-x="1302" 
d="M979 1305l70 -1129q5 -72 26 -93q21 -24 88 -40l-10 -43h-483l12 45q53 12 87 23q29 8 54 36q25 26 23 72l-12 225h-482l-166 -237q-24 -35 -28.5 -54.5t11.5 -34.5q17 -14 29 -17q39 -11 52 -15l-12 -43h-344l12 45q79 17 113 38q32 19 83 89l805 1133h72zM801 1049
l-408 -586h438z" />
    <glyph glyph-name="B" unicode="B" horiz-adv-x="1210" 
d="M1241 1047q0 -125 -101 -226q-103 -103 -257 -149q231 -56 231 -262q0 -199 -190 -304q-190 -106 -473 -106h-527l13 45q61 12 93 24q30 10 65 48q34 37 55 102l276 858q32 103 2 130q-17 16 -35 22.5t-63 15.5l12 45h522q180 0 278.5 -62t98.5 -181zM504 707h162
q160 0 273 107q112 106 112 241q0 166 -226 166q-101 0 -136 -28q-37 -29 -56 -89zM909 432q0 207 -295 207h-131l-137 -422q-30 -76 -1 -111.5t124 -35.5q191 0 315 108q125 107 125 254z" />
    <glyph glyph-name="C" unicode="C" horiz-adv-x="1185" 
d="M573 -27q-211 0 -321.5 116.5t-110.5 328.5q0 224 115 432q116 210 315 340q200 131 426 131q221 0 320 -115l-66 -268h-57q12 159 -41 236t-182 77q-172 0 -318 -131q-146 -129 -223 -314q-76 -182 -76 -359t85 -275t237 -98q205 0 342 119l20 -60q-77 -69 -203 -115
q-124 -45 -262 -45z" />
    <glyph glyph-name="D" unicode="D" horiz-adv-x="1312" 
d="M342 1290h477q223 0 367 -108q143 -110 143 -332q0 -230 -126 -426q-127 -198 -341 -310q-214 -114 -465 -114h-473l13 45q61 12 93 24q30 10 65 48q34 37 55 102l276 858q32 103 2 130q-17 16 -35 22.5t-63 15.5zM467 70q177 0 331 126q154 125 241 318q87 191 87 389
q0 317 -346 318h-108l-314 -963q-35 -106 -11 -147t120 -41z" />
    <glyph glyph-name="E" unicode="E" horiz-adv-x="1130" 
d="M332 1245l12 45h903l-82 -291h-47q31 117 11 171q-21 51 -119 51h-164q-104 0 -150 -34q-47 -35 -80 -138l-118 -363h139q157 0 215 40t102 144h41l-139 -426h-41q15 60 15 86.5t-17 51.5q-17 21 -59 27.5t-136 6.5h-143l-129 -399q-13 -43 -17 -62t-2.5 -36.5
t13.5 -27.5q17 -14 41 -17.5t88 -3.5h125q106 0 186 56q81 56 178 191h54l-183 -317h-905l13 45q61 12 93 24q30 10 65 48q34 37 55 102l278 858q17 55 18.5 82.5t-15.5 47.5q-18 16 -36 22.5t-63 15.5z" />
    <glyph glyph-name="F" unicode="F" horiz-adv-x="1052" 
d="M332 1245l12 45h893l-82 -291h-47q31 117 11 171q-21 51 -118 51h-155q-104 0 -149 -33q-46 -33 -79 -139l-118 -363h118q157 0 216 40q58 40 102 144h41l-139 -426h-41q15 60 15 86.5t-17 51.5q-18 21 -60 27.5t-135 6.5h-123l-131 -403q-33 -101 -2 -130q19 -17 37 -23
q13 -5 61 -17l-10 -43h-508l13 45q61 12 93 24q30 10 65 48q34 37 55 102l278 858q17 55 18.5 82.5t-15.5 47.5q-18 16 -36 22.5t-63 15.5z" />
    <glyph glyph-name="G" unicode="G" horiz-adv-x="1347" 
d="M616 -27q-241 0 -363 119t-118 326q5 228 129 436t334 338q208 129 442 129q238 0 332 -115q-60 -204 -74 -268h-57q44 311 -240 311q-176 0 -330 -136q-155 -137 -240 -332q-84 -194 -89 -388q-4 -161 74 -256q78 -94 225 -94q107 0 166 55q60 55 100 174l31 90
q26 75 30 111.5t-12 61.5q-17 21 -47 29t-100 14l14 53h508l-18 -56q-133 -18 -180 -155l-39 -117q-38 -111 -54 -237q-55 -36 -178 -65q-116 -28 -246 -28z" />
    <glyph glyph-name="H" unicode="H" horiz-adv-x="1392" 
d="M1092 1245l12 45h506l-15 -47q-47 -7 -72 -15q-29 -8 -55 -25q-29 -18 -48.5 -48.5t-37.5 -83.5l-280 -858q-19 -61 -16 -93t31 -48q17 -11 35 -17q14 -4 50 -12l-10 -43h-502l12 45q90 17 133 47q44 32 74 127l127 391h-569l-129 -397q-17 -62 -15 -93t30 -48
q17 -11 35 -17q14 -4 50 -12l-10 -43h-502l13 45q90 17 132 47q44 32 74 127l279 858q32 103 2 130q-17 16 -35 22.5t-63 15.5l12 45h506l-15 -47q-47 -7 -72 -15q-29 -8 -55 -25q-29 -18 -48.5 -48.5t-37.5 -83.5l-126 -391h567l129 397q32 103 2 130q-18 16 -36 22.5
t-62 15.5z" />
    <glyph glyph-name="I" unicode="I" horiz-adv-x="628" 
d="M428 0h-502l13 45q90 17 132 47q44 32 74 127l279 858q32 103 2 130q-17 16 -35 22.5t-63 15.5l12 45h506l-15 -47q-47 -7 -72 -15q-29 -8 -55 -25q-29 -18 -48.5 -48.5t-37.5 -83.5l-280 -858q-17 -62 -15 -93t30 -48q17 -11 35 -17q14 -4 50 -12z" />
    <glyph glyph-name="J" unicode="J" horiz-adv-x="622" 
d="M-248 -371l19 62q137 40 197 109q59 68 112 233l338 1044q11 37 15.5 59t1.5 40t-16 30q-20 17 -40 23q-16 4 -70 16l13 45h528l-14 -47q-65 -13 -78 -17q-26 -7 -58 -24q-30 -17 -50 -48t-38 -83l-350 -1083q-102 -319 -510 -359z" />
    <glyph glyph-name="K" unicode="K" horiz-adv-x="1335" 
d="M1481 1290l-17 -45q-55 0 -107.5 -16t-84.5 -38t-76 -56l-440 -355l280 -635q25 -52 62.5 -76t109.5 -26l-12 -43h-365q25 79 -14 172l-211 487l-166 -133l-102 -313q-17 -62 -15 -93t30 -48q17 -11 35 -17q14 -4 50 -12l-10 -43h-502l13 45q90 17 132 47q44 32 74 127
l279 858q32 103 2 130q-17 16 -35 22.5t-63 15.5l12 45h506l-15 -47q-47 -7 -72 -15q-29 -8 -55 -25q-29 -18 -48.5 -48.5t-37.5 -83.5l-139 -426l627 502q54 45 41.5 71.5t-88.5 28.5l12 43h410z" />
    <glyph glyph-name="L" unicode="L" horiz-adv-x="1083" 
d="M836 0h-912l13 45q61 12 93 24q30 10 65 48q34 37 55 102l276 858q32 103 2 130q-17 16 -35 22.5t-63 15.5l12 45h528l-14 -47q-72 -13 -101 -22q-33 -10 -73 -47q-40 -38 -59 -103l-277 -854q-29 -98 -5 -122q24 -25 128 -25h131q107 0 187 58q81 58 180 204l49 -13z
" />
    <glyph glyph-name="M" unicode="M" horiz-adv-x="1632" 
d="M1593 1071l-243 -858q-28 -102 0 -129q16 -15 33.5 -21.5t60.5 -15.5l-12 -47h-504l12 47q48 10 73 18t55 24q31 16 49.5 47t33.5 83l268 926l-770 -1145h-55l-66 1040l-303 -827q-37 -99 0 -129q19 -15 39 -21.5t68 -15.5l-10 -47h-398l13 47q47 11 72 18q23 7 55 24
q51 30 90 130l315 858q19 52 20.5 80t-18.5 49q-25 19 -38 22q-12 3 -64 15l14 47h334q-4 -33 4 -168l57 -825l559 836q78 117 101 157h377l-15 -47q-52 -12 -72 -18q-21 -6 -53 -24q-31 -18 -48 -47t-34 -83z" />
    <glyph glyph-name="N" unicode="N" horiz-adv-x="1296" 
d="M1120 1247l13 43h401l-14 -45q-93 -17 -139 -48q-48 -31 -78 -126l-349 -1071h-75l-365 1094l-289 -881q-31 -94 -4 -123q28 -29 115 -47l-10 -43h-402l13 45q93 17 139 48t78 126l278 858q19 62 16 94t-30 47q-34 18 -86 27l12 45h311l326 -971l250 758q31 94 4 123
q-28 29 -115 47z" />
    <glyph glyph-name="O" unicode="O" horiz-adv-x="1378" 
d="M543 -27q-193 0 -299 118q-107 119 -107 315q0 227 116 439t312 344q195 132 412 132q193 0 299 -117q106 -116 106 -313q0 -171 -69 -337q-71 -168 -183 -295q-114 -127 -269 -207q-155 -79 -318 -79zM588 43q154 0 292 144q139 143 215 345q76 200 76 388
q0 157 -61.5 244t-177.5 87q-154 0 -292 -143q-139 -143 -215 -345q-77 -204 -77 -386q0 -159 62 -246.5t178 -87.5z" />
    <glyph glyph-name="P" unicode="P" horiz-adv-x="1169" 
d="M449 0h-525l13 45q61 12 93 24q30 10 65 48q34 37 55 102l276 858q32 103 2 130q-17 16 -35 22.5t-63 15.5l12 45h465q444 0 444 -295q0 -226 -211 -359q-212 -134 -512 -134q-19 -2 -17 29q2 32 20 40q4 2 8 2q215 0 363 135q147 134 147 316q0 197 -232 197
q-91 0 -128 -29q-36 -29 -56 -88l-289 -891q-18 -63 -15 -93.5t31 -46.5q25 -14 99 -30z" />
    <glyph glyph-name="Q" unicode="Q" horiz-adv-x="1368" 
d="M981 -240q73 0 168 50l22 -46q-173 -123 -303 -122q-104 0 -190 90l-207 215q-22 27 -65 45q-129 39 -199 147t-70 267q0 227 116 439t312 344q195 132 412 132q193 0 299 -117q106 -116 106 -313q0 -312 -208 -578q-208 -268 -500 -325q33 -18 63 -51l82 -93
q73 -84 162 -84zM932 1251q-154 0 -292 -143q-139 -143 -215 -345q-77 -204 -77 -386q0 -159 62 -246.5t178 -87.5q154 0 292 144q139 143 215 345q76 200 76 388q0 157 -61.5 244t-177.5 87z" />
    <glyph glyph-name="R" unicode="R" horiz-adv-x="1239" 
d="M1229 1018q0 -182 -138 -295q-141 -114 -366 -145q113 -32 141 -160l47 -193q55 -217 199 -174l-14 -57q-52 -27 -135 -27q-106 0 -158 53q-54 54 -82 164l-57 234q-19 83 -66 115q-46 29 -139 34l-115 -354q-16 -53 -16.5 -81.5t18.5 -48.5q21 -18 41 -23q15 -5 70 -17
l-10 -43h-525l13 45q61 12 93 24q30 10 65 48q34 37 55 102l276 858q32 103 2 130q-17 16 -35 22.5t-63 15.5l12 45h477q410 0 410 -272zM483 639h113q186 0 310 121t124 282q0 177 -215 179q-143 0 -180 -111z" />
    <glyph glyph-name="S" unicode="S" horiz-adv-x="987" 
d="M356 -23q-211 0 -340 136l66 256h43q-16 -150 46 -236t187 -86q135 0 231 87q95 87 95 208q0 83 -46 144q-48 64 -134 132q-73 60 -77 64q-26 21 -62 63q-72 79 -72 197q0 164 135 272q136 107 332 107q207 0 311 -123l-76 -258h-41q18 146 -32 228.5t-166 82.5
q-114 0 -194 -71q-79 -72 -79 -172q0 -119 164 -250q37 -31 62 -49q17 -13 59 -56q45 -45 63 -74q22 -36 39 -87.5t17 -98.5q0 -174 -157 -295t-374 -121z" />
    <glyph glyph-name="T" unicode="T" horiz-adv-x="1175" 
d="M461 1290h805l100 21l-102 -361h-39q29 154 -3 216q-31 61 -173 61h-103l-328 -1014q-31 -96 -2 -125q28 -28 140 -45l-11 -43h-569l12 45q107 17 155 47q48 31 79 127l328 1008h-103q-144 0 -220 -70q-77 -71 -146 -219h-43l135 373z" />
    <glyph glyph-name="U" unicode="U" horiz-adv-x="1333" 
d="M549 -23q-241 0 -319 165q-30 55 -27 158t43 226l178 551q32 103 2 130q-17 16 -35 22.5t-63 15.5l12 45h506l-15 -47q-64 -11 -94 -22q-31 -13 -63 -48q-30 -34 -53 -102l-193 -596q-46 -157 -36 -242.5t65 -123.5q56 -43 147 -43q135 0 261 93t198 312l197 606
q17 62 15 93.5t-29 47.5q-32 17 -89 27l12 45h402l-15 -47q-66 -12 -100 -23q-32 -12 -66 -47q-34 -36 -57 -102l-190 -586q-47 -141 -116 -245t-151 -160q-152 -103 -327 -103z" />
    <glyph glyph-name="V" unicode="V" horiz-adv-x="1323" 
d="M1212 1247l13 43h344l-13 -45q-78 -17 -112 -37q-34 -22 -84 -90l-805 -1132h-72l-69 1128q-5 71 -25 94q-23 23 -92 39l12 43h484l-13 -45q-58 -12 -86 -21q-30 -10 -55 -37t-23 -73l46 -872l614 884q25 35 29.5 55t-11.5 35q-17 12 -29 16q-15 4 -53 15z" />
    <glyph glyph-name="W" unicode="W" horiz-adv-x="1900" 
d="M502 -16h-74l-14 1116q-1 80 -22 107q-20 23 -95 40l12 43h482l-13 -45q-56 -12 -84 -21q-30 -10 -55 -37q-25 -28 -25 -71l4 -835l437 680q68 97 62 180q-7 84 -97 106l10 43h313q-32 -98 -30 -295l6 -712l510 796q35 53 42 82t-12 48q-21 16 -45 22q-19 5 -85 16l10 43
h407l-12 -45q-80 -14 -121 -41q-41 -29 -98 -117l-717 -1103h-74l-10 948z" />
    <glyph glyph-name="X" unicode="X" horiz-adv-x="1314" 
d="M1110 1247l10 43h389l-12 -45q-102 -17 -148 -41q-49 -24 -132 -106l-404 -400l150 -516q22 -73 61 -98q36 -24 135 -41l-16 -43h-545l16 45q64 12 85 20t29 16q39 39 17 101l-110 385l-385 -397q-82 -86 -32 -106q19 -9 83 -21l-16 -43h-414l14 45q109 16 157 39
q49 23 128 102l446 447l-131 463q-22 81 -59 109q-38 25 -129 42l12 43h537l-12 -45q-96 -17 -126 -45q-31 -29 -8 -106l95 -330l348 354q35 31 61 78q3 6 2 10.5t-4.5 9.5t-3.5 6q0 4 -15 8t-19 6q-50 10 -54 11z" />
    <glyph glyph-name="Y" unicode="Y" horiz-adv-x="1206" 
d="M1098 1247l12 43h373l-13 -45q-83 -13 -118 -36q-33 -22 -105 -101l-493 -555l-109 -340q-31 -96 -2 -125q28 -28 139 -45l-10 -43h-569l12 45q107 17 155 47q48 31 79 127l106 324l-139 565q-18 78 -42 102q-25 24 -98 37l13 43h497l-12 -45q-70 -14 -114 -38
q-53 -29 -35 -99l116 -479l428 487q61 70 35 94q-15 13 -31 18.5t-57 14.5q-4 1 -18 4z" />
    <glyph glyph-name="Z" unicode="Z" horiz-adv-x="1130" 
d="M889 0h-934l-12 31l1110 1206l-375 -8q-133 -1 -207 -68q-76 -70 -133 -215h-47l115 357l104 -13h831l-1138 -1237l436 21q128 6 202 72q72 64 152 214h54q-114 -228 -158 -360z" />
    <glyph glyph-name="bracketleft" unicode="[" horiz-adv-x="497" 
d="M219 -299l-12 -41l-359 21l605 1853l368 20l-12 -41l-201 -38l-565 -1735z" />
    <glyph glyph-name="backslash" unicode="\" horiz-adv-x="958" 
d="M332 1538l430 -1671l-100 -47l-433 1671z" />
    <glyph glyph-name="bracketright" unicode="]" horiz-adv-x="487" 
d="M373 1513l12 41l358 -20l-604 -1853l-368 -21l12 41l201 39l565 1735z" />
    <glyph glyph-name="asciicircum" unicode="^" horiz-adv-x="913" 
d="M567 1151l-336 -399l-28 26l364 545l365 -545l-29 -26z" />
    <glyph glyph-name="underscore" unicode="_" horiz-adv-x="1269" 
d="M1176 -119h-1084l2 78h1084z" />
    <glyph glyph-name="grave" unicode="`" horiz-adv-x="376" 
d="M573 1077l-47 -33q-142 157 -245 228q14 39 62 74q47 34 89 34q84 -118 141 -303z" />
    <glyph glyph-name="a" unicode="a" horiz-adv-x="960" 
d="M907 881l-231 -660q-30 -86 -5 -87q2 0 5 1q46 11 176 191l33 -35q-200 -311 -336 -311q-51 0 -72.5 37.5t-1.5 93.5l76 215q-310 -346 -410 -346q-46 0 -83 51q-38 52 -38 155q0 165 101 334q100 167 258 274q157 105 313 105q56 0 115 -18h100zM260 145q47 0 324 277
l125 358q-70 43 -131 43q-86 0 -179 -93q-93 -92 -152 -223q-59 -132 -59 -235q0 -127 72 -127z" />
    <glyph glyph-name="b" unicode="b" horiz-adv-x="978" 
d="M778 899q85 0 134 -59t49 -164q0 -155 -94 -316q-95 -164 -243 -270q-148 -108 -294 -108q-130 0 -192 83t-25 193l295 864q27 80 -3 108q-30 27 -135 27l17 54l334 47l20 -31l-229 -676q179 248 366 248zM356 37q94 0 195 116t162 269q61 152 61 268q0 113 -84 113
q-80 0 -174 -97q-92 -95 -176 -264l-68 -200q-29 -71 -7 -137q21 -68 91 -68z" />
    <glyph glyph-name="c" unicode="c" horiz-adv-x="772" 
d="M584 899q91 0 141.5 -50t50.5 -130q0 -56 -26 -91.5t-72 -35.5q-88 0 -78 135q6 68 -4 90.5t-43 22.5q-127 0 -231 -179q-105 -180 -105 -344q0 -91 42 -145.5t114 -54.5q62 0 135 40q74 41 123 105l22 -41q-61 -115 -172 -178q-113 -63 -211 -63q-104 0 -170 74
q-67 73 -67 202q0 144 80 296q79 150 210 249q131 98 261 98z" />
    <glyph glyph-name="d" unicode="d" horiz-adv-x="976" 
d="M1087 1327l-382 -1106q-33 -97 0 -86q47 14 176 191l30 -35q-195 -311 -340 -311q-49 0 -71 32t-4 84l96 277l-42.5 -47.5t-42.5 -47t-30 -32.5q-58 -62 -116 -120q-148 -146 -220 -146q-46 0 -83 51q-38 52 -38 155q0 165 101 334q100 167 258 274q157 105 313 105
q43 0 80 -8l80 231q27 80 -4 108q-32 27 -135 27l18 54l336 47zM260 145q56 0 363 318l106 305q-79 55 -151 55q-86 0 -179 -93q-93 -92 -152 -223q-59 -132 -59 -235q0 -127 72 -127z" />
    <glyph glyph-name="e" unicode="e" horiz-adv-x="761" 
d="M762 750q0 -254 -545 -373q-6 -38 -6 -70q0 -85 39.5 -137.5t107.5 -52.5q56 0 128 35q71 35 120 100l25 -37q-66 -116 -175 -174q-110 -59 -206 -59q-102 0 -162.5 70t-60.5 190q0 150 87 304q86 152 221 254q133 99 265 99q81 0 121.5 -40t40.5 -109zM524 829
q-80 0 -169 -123q-89 -125 -126 -272q367 78 367 295q0 100 -72 100z" />
    <glyph glyph-name="f" unicode="f" horiz-adv-x="761" 
d="M872 1430q89 0 138 -37.5t49 -94.5q0 -41 -26.5 -68.5t-65.5 -27.5q-78 0 -78 101q0 71 -72 69q-69 0 -119 -65q-48 -64 -98 -238l-53 -188h225l-29 -82l-217 12l-180 -641q-78 -271 -204 -411t-289 -140q-89 0 -141 41q-50 41 -50 94q0 39 26.5 65.5t65.5 26.5
q44 0 64 -33q20 -31 18 -69q-2 -68 66 -68q70 0 120 65q49 66 99 239l237 839l-215 12l15 50h217q78 271 205 410t292 139z" />
    <glyph glyph-name="g" unicode="g" horiz-adv-x="913" 
d="M975 850l-29 -115l-170 49q17 -38 19 -94q0 -150 -131 -261q-131 -112 -291 -112q-40 0 -82 11q-31 -11 -52.5 -32t-21.5 -36q0 -33 57 -55l175 -74q24 -11 53 -23.5t32 -13.5q32 -15 61 -30q39 -22 50 -37q35 -48 35 -95q0 -98 -86 -173q-86 -74 -205 -110
q-118 -36 -244 -36q-158 0 -232 59q-74 60 -69 146q1 37 55 87q54 49 99 78q41 27 129 76q18 12 25 15q-62 30 -88.5 57.5t-26.5 63.5q0 41 59 85q61 45 133 74q-82 55 -82 172q0 150 130 261q130 110 290 110q81 0 140 -35q43 -12 268 -12zM393 362q96 0 168 123t72 248
q0 119 -86 119q-94 0 -167 -127t-73 -250q0 -113 86 -113zM512 -141q0 45 -35 71q-35 27 -121 62l-135 53q-90 -57 -155 -125q-67 -68 -68 -123q-4 -58 41.5 -93.5t144.5 -35.5q128 0 229 54q99 56 99 137z" />
    <glyph glyph-name="h" unicode="h" horiz-adv-x="997" 
d="M854 899q158 0 147 -176q-6 -125 -90 -302q-85 -179 -199 -308q-116 -131 -202 -131q-38 0 -79 27q-40 25 -40 75q0 36 22 58t52 22q17 1 30.5 -7.5t21 -22t13 -30t9 -30t7.5 -22t9 -7.5q68 0 156 241q88 240 96 371q6 127 -64 127q-119 0 -284 -240q-165 -239 -269 -544
h-165l383 1122q27 80 -3 108q-30 27 -135 27l17 54l336 47l20 -31l-223 -670l-94 -217l14 2q134 246 266 351q133 106 248 106z" />
    <glyph glyph-name="i" unicode="i" horiz-adv-x="550" 
d="M576 1178q-24 -26 -60 -31.5t-67 7t-52.5 40.5t-19.5 63q0 44 35 79q34 34 82 34t82 -33q34 -34 34 -80q0 -48 -34 -79zM440 322l33 -35q-196 -307 -334 -307q-54 0 -77.5 37.5t-2.5 93.5l220 538q36 88 7 89q-2 0 -5 -1q-50 -11 -181 -188l-30 35q196 307 336 307
q55 0 78.5 -38.5t0.5 -92.5l-221 -539q-41 -98 -2 -88q50 13 178 189z" />
    <glyph glyph-name="j" unicode="j" horiz-adv-x="532" 
d="M625 1178q-35 -33 -82 -33t-82 33q-35 32 -35 79q0 44 35 79q34 34 82 34q47 0 82 -33q34 -34 34 -80q0 -48 -34 -79zM451 891q51 0 71.5 -38t1.5 -93l-194 -604q-83 -255 -185 -385q-102 -129 -254 -129q-91 0 -141.5 42.5t-50.5 110.5q0 50 28.5 79.5t71.5 29.5
q47 0 67.5 -38t8.5 -104q-12 -65 47 -65q62 0 96 61q35 63 95 242l211 649q29 92 3 91q-6 -1 -14 -5q-48 -26 -166 -186l-30 35q196 307 334 307z" />
    <glyph glyph-name="k" unicode="k" horiz-adv-x="995" 
d="M190 0h-165l383 1122q27 80 -3 108q-30 27 -135 27l17 54l336 47l20 -31zM1077 881l-18 -45q-134 -12 -328 -156l-168 -125l121 -393q14 -48 42.5 -65.5t63.5 -7t74 45.5l10 -43q-113 -113 -198 -112q-113 0 -158 151l-110 385l249 178q176 127 9 142l16 45h395z" />
    <glyph glyph-name="l" unicode="l" horiz-adv-x="532" 
d="M643 1327l-383 -1106q-33 -97 0 -86q47 14 176 191l31 -35q-195 -311 -340 -311q-49 0 -71.5 32t-4.5 84l357 1026q27 80 -4 108q-32 27 -136 27l19 54l336 47z" />
    <glyph glyph-name="m" unicode="m" horiz-adv-x="1533" 
d="M1427 326l31 -35q-200 -311 -342 -311q-50 0 -71 32t-1 84l175 449q45 110 50 163q3 29 -7 40.5t-35 11.5q-79 0 -246 -237q-165 -236 -281 -523h-161l194 545q41 110 45 164q2 28 -8 39.5t-35 11.5q-80 0 -245 -237q-165 -236 -281 -523h-162l234 653q32 88 5 89
q-2 0 -5 -1q-48 -11 -179 -188l-30 35q196 307 342 307q47 0 62.5 -32t-5.5 -85l-158 -397h27q292 514 508 514q101 0 103 -107q1 -107 -77 -258l-69 -149h26q292 514 506 514q187 0 39 -367l-125 -307q-39 -92 -4 -86q50 14 180 191z" />
    <glyph glyph-name="n" unicode="n" 
d="M936 326l31 -35q-200 -311 -342 -311q-50 0 -71.5 32t-0.5 84l174 449q45 110 50 163q3 29 -7 40.5t-35 11.5q-80 0 -245 -237q-165 -236 -281 -523h-162l234 653q32 88 5 89q-2 0 -5 -1q-48 -11 -179 -188l-30 35q196 307 342 307q47 0 62.5 -32t-5.5 -85l-158 -397h27
q292 514 506 514q187 0 39 -367l-125 -307q-39 -92 -4 -86q50 14 180 191z" />
    <glyph glyph-name="o" unicode="o" horiz-adv-x="897" 
d="M266 -20q-113 0 -175 63t-62 193q0 248 190 456q189 207 412 207q112 0 173.5 -62.5t61.5 -191.5q0 -161 -87 -315q-86 -155 -227 -253q-140 -97 -286 -97zM332 41q90 0 175 112q85 110 133 255q48 142 48 254q0 82 -32.5 129t-92.5 47q-91 0 -177 -110
q-83 -107 -131 -250q-46 -138 -46 -251q0 -83 32.5 -134.5t90.5 -51.5z" />
    <glyph glyph-name="p" unicode="p" horiz-adv-x="958" 
d="M217 -35l-53 -153q-14 -45 -14 -60q0 -32 27 -44t106 -21l-13 -45h-460l12 45q76 13 114 37q36 23 62 92l332 936q-100 -51 -217 -150l-21 49q134 133 270 195l93 258l170 20l-78 -223q44 4 69 4q131 0 222 -67q90 -68 90 -211q0 -223 -207 -423q-208 -200 -504 -239z
M547 811q-15 0 -33 -2l-276 -789q221 38 366 208q144 171 144 364q0 109 -52.5 164t-148.5 55z" />
    <glyph glyph-name="q" unicode="q" horiz-adv-x="886" 
d="M909 881l-374 -1069q-27 -74 -1 -95q26 -19 117 -30l-10 -45h-459l13 45q75 13 115 37q35 23 61 92l180 512q-309 -348 -410 -348q-46 0 -83 51q-38 52 -38 155q0 165 101 334q100 167 258 274q157 105 313 105q56 0 115 -18h102zM260 145q50 0 324 279l127 356
q-70 43 -133 43q-86 0 -179 -93q-93 -92 -152 -223q-59 -132 -59 -235q0 -127 72 -127z" />
    <glyph glyph-name="r" unicode="r" horiz-adv-x="827" 
d="M803 899q86 0 86 -92q0 -69 -48 -127q-48 -59 -112 -59q-39 0 -49.5 21.5t6.5 48.5q37 69 -2 69q-72 0 -210 -229q-137 -227 -261 -535q-83 -6 -162 0l234 661q28 88 4 88q-42 0 -185 -188l-30 35q196 307 340 307q47 0 62.5 -31.5t-5.5 -85.5l-156 -405h27
q135 276 252 399t209 123z" />
    <glyph glyph-name="s" unicode="s" horiz-adv-x="647" 
d="M655 770q0 -142 -217 -305q74 -103 74 -193q0 -126 -107 -209q-109 -83 -241 -83q-100 0 -150 47q-51 47 -51 108q0 69 55 115l45 -8q5 -68 59 -128q54 -63 122 -63q50 0 84 35.5t34 93.5q0 52 -32 113q-32 56 -71 105q-41 51 -70 109q-33 61 -33 122q0 118 100 194
t223 76q71 0 124 -30q52 -31 52 -99zM422 487q111 128 110 236q0 51 -25 82t-67 31q-48 0 -92 -34q-45 -34 -45 -93q0 -43 28 -90q17 -31 25 -41q7 -12 35 -48q25 -32 31 -43z" />
    <glyph glyph-name="t" unicode="t" horiz-adv-x="620" 
d="M666 799l-177 10l-245 -659q-4 -13 -1 -17.5t13 -1.5q59 13 209 166q17 17 49 51l27 -37q-269 -330 -400 -329q-48 0 -71 47t-2 102l251 690l-167 10l14 50h176l82 223l182 20l-90 -243h178z" />
    <glyph glyph-name="u" unicode="u" 
d="M104 551l-32 35q196 309 342 309q50 0 72 -33.5t1 -85.5l-174 -444q-77 -182 -33 -210q10 -7 27 -7q84 0 252 239t279 535h161l-239 -668q-32 -88 -5 -89q2 0 5 1q47 14 176 191l31 -35q-197 -309 -340 -309q-50 0 -72.5 33t-1.5 83l158 402l-17 -2q-166 -290 -282 -402
q-117 -114 -215 -114q-199 0 -43 368l127 303q36 86 8 87q-3 0 -6 -1q-55 -12 -179 -186z" />
    <glyph glyph-name="v" unicode="v" horiz-adv-x="880" 
d="M682 838l14 43h279l-729 -901h-62l82 688q12 100 -15 130q-30 30 -108 40l15 43h297l-82 -656l381 457q34 44 45 72.5t-2 45.5t-39.5 25t-75.5 13z" />
    <glyph glyph-name="w" unicode="w" horiz-adv-x="1419" 
d="M1221 838l14 43h278l-729 -901h-61l82 688v4l-559 -692h-62l82 688q12 100 -15 130q-30 30 -108 40l15 43h297l-82 -656l381 457q43 51 49 82q-11 50 -61 65q-21 5 -60 9l14 43h297l-82 -656l381 457q45 58 48 90.5t-25 45.5t-94 20z" />
    <glyph glyph-name="x" unicode="x" horiz-adv-x="888" 
d="M694 838l13 43h270l-12 -47q-51 -7 -86 -28q-32 -19 -93 -77l-262 -256l80 -332q12 -50 36.5 -70t82.5 -28l-14 -43h-396l15 47q66 9 92 31t14 69l-55 238l-250 -262q-35 -42 -36 -51q0 -6 7 -12q10 -7 39 -13q17 -4 23 -4l-12 -43h-279l14 47q60 8 94 27q37 19 89 73
l297 293l-70 295q-12 51 -34.5 72.5t-74.5 30.5l15 43h381l-15 -47q-65 -8 -90.5 -32.5t-13.5 -72.5l47 -197l213 222q45 46 32 66q-1 4 -25 10q-32 8 -36 8z" />
    <glyph glyph-name="y" unicode="y" horiz-adv-x="917" 
d="M686 838l14 43h312l-699 -895q-12 -14 -60 -78q-48 -65 -61 -79q-4 -4 -11 -12.5t-20 -23.5t-23 -26q-41 -47 -61 -60q-23 -13 -57 -39q-37 -25 -70 -32q-32 -7 -73 -7q-72 0 -119 32t-47 85q0 41 25.5 65.5t68.5 24.5t85 -43t87 -43q52 0 101 46t151 184l43 688
q6 101 -22 130q-30 29 -109 40l15 43h286l-45 -697l387 500q32 45 41.5 72.5t-6 44.5t-46 24.5t-87.5 12.5z" />
    <glyph glyph-name="z" unicode="z" horiz-adv-x="837" 
d="M603 47q23 23 61 23t61 -26t23 -62q0 -68 -65 -109t-146 -41q-78 0 -157 46q-26 15 -78.5 45.5t-79.5 46.5q-79 46 -156 46q-80 0 -148 -47l-24 33l735 739h-277q-164 0 -241 -170h-45l131 310h657l-717 -727q50 0 94 -15.5t79.5 -46t57.5 -55t50 -62.5q72 -96 131 -96
q24 0 31 14t5 38q0 8 -2.5 31t-2.5 30q0 30 23 55z" />
    <glyph glyph-name="braceleft" unicode="{" horiz-adv-x="563" 
d="M268 -297l-20 -29q-154 55 -166 173q-11 110 39 253l102 318q26 72 0 107q-25 34 -96 67l6 35q180 66 219 190l105 318q53 163 135 261q82 97 258 148l6 -45q-58 -23 -101 -84q-46 -65 -67 -120q-26 -65 -65 -185l-86 -266q-34 -109 -102 -160t-163 -74l-10 -14
q178 -46 113 -254l-88 -266q-70 -216 -68 -283q1 -62 49 -90z" />
    <glyph glyph-name="bar" unicode="|" horiz-adv-x="628" 
d="M369 -358h-82v1681h82v-1681z" />
    <glyph glyph-name="braceright" unicode="}" horiz-adv-x="563" 
d="M406 1516l20 28q154 -55 166 -172q11 -110 -39 -254l-102 -317q-25 -71 1 -107q27 -37 95 -67l-6 -35q-180 -66 -219 -191l-105 -317q-53 -164 -135 -261q-81 -96 -258 -149l-6 45q58 23 101 84q45 63 67 121q26 65 65 185l86 266q34 108 103 160q67 51 161 73l11 15
q-178 46 -113 254l88 266q70 216 68 282q-1 62 -49 91z" />
    <glyph glyph-name="asciitilde" unicode="~" horiz-adv-x="899" 
d="M571 379q-44 0 -77 15t-52 36.5t-37 42.5t-44 36t-60 15q-54 0 -100 -35q-45 -36 -56 -71l-28 24q14 93 90 151t170 58q51 0 90 -21t59 -51q19 -31 51 -52t70 -21q55 0 101 36q45 36 55 70l28 -24q-13 -92 -90 -150q-77 -59 -170 -59z" />
    <glyph glyph-name="exclamdown" unicode="&#xa1;" horiz-adv-x="454" 
d="M255 895q37 37 91 37t91 -37q38 -38 38 -90q0 -50 -38 -88q-37 -37 -91 -37t-91 37q-38 38 -38 88q0 52 38 90zM266 539h45l-194 -840q-15 -69 -45.5 -97t-81.5 -28q-129 0 -72 139z" />
    <glyph glyph-name="cent" unicode="&#xa2;" horiz-adv-x="772" 
d="M766 1063l-100 -176q111 -41 110 -168q0 -56 -26 -91.5t-72 -35.5q-88 0 -78 135q2 24 2 49l-344 -604q43 -55 115 -55q62 0 135 40q74 41 123 105l22 -41q-61 -115 -172 -178q-113 -63 -211 -63q-61 0 -106 24l-74 -129h-74l95 166q-78 73 -78 215q0 144 80 296
q79 150 210 249q131 98 261 98h14l94 164h74zM217 317q0 -41 8 -73l340 596h-12q-127 0 -231 -179q-105 -180 -105 -344z" />
    <glyph glyph-name="sterling" unicode="&#xa3;" horiz-adv-x="1118" 
d="M989 1305q187 0 189 -138q-14 -38 -56 -65t-90 -31q0 63 -36.5 103t-100.5 40q-162 0 -258 -292l-80 -246h326l-45 -92h-312l-8 -27q-67 -214 -229 -330q44 14 80 15q44 1 83.5 -19t68 -48.5t55 -57.5t57.5 -49t63 -19q49 0 83 49t34 109q0 33 -8 57l160 96
q25 -26 24 -69q0 -140 -134 -241q-132 -101 -273 -101q-59 0 -111 25t-84 61q-76 86 -158 86q-103 0 -237 -137l-45 61q154 127 241 237q88 111 144 281l6 21h-176l45 92h162l39 119q82 249 243 380q160 130 338 130z" />
    <glyph glyph-name="currency" unicode="&#xa4;" horiz-adv-x="1355" 
d="M1108 467q0 -153 -94 -268l129 -129l-66 -66l-129 129q-116 -94 -266 -94q-146 0 -262 92l-127 -127l-66 66l127 127q-94 116 -94 270q0 147 92 266l-125 123l66 68l125 -125q115 94 264 94q150 0 268 -96l127 127l66 -68l-127 -125q92 -119 92 -264zM362 467
q0 -137 95 -235q95 -99 227 -99q133 0 230 100q96 99 96 234t-96 233q-97 97 -230 97q-135 0 -228 -97q-94 -97 -94 -233z" />
    <glyph glyph-name="yen" unicode="&#xa5;" horiz-adv-x="1206" 
d="M1098 1247l12 43h373l-13 -45q-83 -13 -118 -36q-33 -22 -105 -101l-440 -496h227l-26 -77h-258l-37 -111h260l-27 -78h-258l-43 -133q-31 -96 -2 -125q28 -28 139 -45l-10 -43h-569l12 45q107 17 155 47q48 31 79 127l40 127h-299l27 78h299l35 111h-299l27 77h258
l-121 496q-18 78 -42 102q-25 24 -98 37l13 43h497l-12 -45q-70 -14 -114 -38q-53 -29 -35 -99l116 -479l428 487q61 70 35 94q-15 13 -31 18.5t-57 14.5q-4 1 -18 4z" />
    <glyph glyph-name="brokenbar" unicode="&#xa6;" horiz-adv-x="628" 
d="M369 645h-82v678h82v-678zM369 -358h-82v677h82v-677z" />
    <glyph glyph-name="section" unicode="&#xa7;" horiz-adv-x="1019" 
d="M797 1323q79 0 145 -23q65 -24 85 -40q15 -13 54 -50l-51 -186h-43q2 101 -46 169q-48 69 -150 69q-97 0 -173 -58q-77 -59 -77 -149q0 -59 39 -103q36 -43 131 -100q65 -32 117 -67q47 -33 93 -100t46 -146q0 -129 -92 -224q-94 -97 -238 -137q102 -84 102 -201
q0 -154 -134 -250q-133 -96 -324 -96q-178 0 -301 111l57 199h37q-1 -109 49 -179q51 -69 160 -69q106 0 185 55t79 148q0 59 -41 103q-43 46 -135 103q-68 33 -117 68q-47 33 -93 100q-46 65 -46 146q0 129 92 224q93 96 237 136q-98 84 -98 201q0 150 134 248t317 98z
M760 481q0 63 -45 109q-44 44 -144 106q-25 11 -51 29q-87 -28 -143 -93q-55 -64 -55 -147q0 -72 44 -119q42 -45 142 -108q34 -17 47 -27q85 34 146 106q59 71 59 144z" />
    <glyph glyph-name="dieresis" unicode="&#xa8;" horiz-adv-x="647" 
d="M466 1197q-30 -30 -75 -30t-74 30q-30 30 -30 75t30 75q29 29 74 29q44 0 75 -29q30 -30 30 -75t-30 -75zM872 1197q-30 -30 -75 -30t-75 30t-30 75t30 75q31 29 75 29t75 -29q29 -31 29 -75t-29 -75z" />
    <glyph glyph-name="copyright" unicode="&#xa9;" horiz-adv-x="1460" 
d="M803 51q-248 0 -423 175t-175 423q0 246 175 421t423 175q246 0 421 -175t175 -421q0 -248 -175 -423t-421 -175zM423 265q159 -161 380 -161t379 161q157 160 157 384q0 222 -157 382q-158 161 -379 161t-380 -161t-159 -382q0 -223 159 -384zM827 305q-161 0 -259 97
q-99 96 -99 243q0 152 101 250t264 98q134 0 210 -49l9 -141h-39q-34 147 -195 147q-105 0 -166 -73t-61 -199q0 -139 82 -227q83 -89 205 -89q114 0 163 54l21 -25q-78 -86 -236 -86z" />
    <glyph glyph-name="ordfeminine" unicode="&#xaa;" horiz-adv-x="696" 
d="M795 1290l-148 -426q-23 -60 -2 -55l6 2q33 16 109 121l20 -23q-129 -202 -215 -200q-33 0 -46 24.5t-1 61.5l47 135q-201 -221 -262 -221q-35 0 -58.5 41.5t-19.5 113.5q11 162 146 300q135 139 286 139q38 0 74 -13h64zM379 817q35 0 209 178l80 230q-46 29 -88 28
q-78 0 -158 -116q-81 -119 -88 -219q-8 -101 45 -101zM606 471h-510l27 82h510z" />
    <glyph glyph-name="guillemotleft" unicode="&#xab;" horiz-adv-x="827" 
d="M287 166l-189 283l371 282l14 -26l-252 -256l86 -256zM606 166l-188 283l370 282l15 -26l-252 -256l86 -256z" />
    <glyph glyph-name="logicalnot" unicode="&#xac;" horiz-adv-x="1034" 
d="M217 760h809l-152 -467h-131l109 346h-674z" />
    <glyph glyph-name="uni00AD" unicode="&#xad;" horiz-adv-x="839" 
d="M727 479h-614v88h614v-88z" />
    <glyph glyph-name="registered" unicode="&#xae;" horiz-adv-x="1460" 
d="M803 51q-248 0 -423 175t-175 423q0 246 175 421t423 175q246 0 421 -175t175 -421q0 -248 -175 -423t-421 -175zM423 265q159 -161 380 -161t379 161q157 160 157 384q0 222 -157 382q-158 161 -379 161t-380 -161t-159 -382q0 -223 159 -384zM1067 322q-99 0 -160 96
l-71 112q-45 68 -74 80v29q184 0 184 137q0 65 -42 102t-124 37q-42 0 -57.5 -10.5t-15.5 -36.5v-432q0 -30 11 -47.5t26 -20.5q3 -1 18 -4t26 -6v-24h-270v24q47 9 57 16q6 4 13 13q12 16 12 49v418q0 26 -4.5 38.5t-18.5 21.5q-21 10 -23 10t-13.5 3t-22.5 5v24h256
q283 0 283 -172q0 -70 -54 -113q-56 -44 -131 -57q45 -18 105 -116l31 -52q57 -89 98 -94v-24q-16 -6 -39 -6z" />
    <glyph glyph-name="overscore" unicode="&#xaf;" horiz-adv-x="600" 
d="M840 1227h-574l31 78h573z" />
    <glyph glyph-name="degree" unicode="&#xb0;" horiz-adv-x="768" 
d="M571 768q-112 0 -191 74q-79 73 -79 194q0 125 84 200t201 75q112 0 192 -74q78 -73 78 -195q0 -126 -85 -199q-85 -75 -200 -75zM588 813q63 0 104 55t41 152q0 102 -45 174t-119 72q-63 0 -104 -55t-41 -152q0 -103 46 -174q46 -72 118 -72z" />
    <glyph glyph-name="plusminus" unicode="&#xb1;" horiz-adv-x="940" 
d="M713 1100l-103 -318h285l-39 -120h-285l-104 -322h-119l105 322h-289l39 120h289l102 318h119zM705 2h-682l38 121h682z" />
    <glyph glyph-name="uni00B2" unicode="&#xb2;" horiz-adv-x="509" 
d="M524 805h-323l2 31q6 4 16.5 11.5t30.5 21.5t35 25q3 2 100 73q45 33 86 70q94 84 94 151q0 27 -17.5 48t-49.5 21q-70 0 -152 -96l-10 37q82 123 209 123q54 0 84 -30.5t30 -82.5q0 -58 -43 -114q-43 -58 -85 -88q-29 -22 -119 -80q-78 -50 -93 -60l119 8q88 0 146 87
l22 -13z" />
    <glyph glyph-name="uni00B3" unicode="&#xb3;" horiz-adv-x="477" 
d="M303 786q-45 0 -76.5 13t-31.5 37q0 19 13 31t30 12q16 0 36 -32t52 -32q59 0 109 53t50 111q0 72 -86 72q-33 0 -71 -15l-2 25l65 24q78 29 113 57t35 70q0 43 -60 43q-77 0 -135 -55l-12 17q90 96 200 96q94 0 95 -76q0 -85 -150 -147q105 -7 107 -93q0 -81 -90 -145
q-92 -66 -191 -66z" />
    <glyph glyph-name="acute" unicode="&#xb4;" horiz-adv-x="249" 
d="M264 1044l-47 33q57 185 141 303q41 0 90 -34q48 -35 62 -74q-104 -70 -246 -228z" />
    <glyph glyph-name="paragraph" unicode="&#xb6;" horiz-adv-x="1390" 
d="M887 1290h719l-13 -47q-66 -13 -79 -17q-27 -8 -60 -24q-58 -32 -90 -131l-369 -1137q-96 -294 -428 -292h-125l21 63l465 1430q17 45 0.5 63.5t-76.5 18.5q-170 0 -306 -153q-136 -152 -136 -321q0 -190 221 -190q27 0 18 -37q-8 -35 -31 -35q-196 0 -311 84
q-117 84 -117 240q0 147 101 260q102 114 257 169q159 56 339 56zM793 -43l383 1178q15 57 7 73.5t-48 16.5q-82 0 -119 -115l-457 -1403q91 6 144 69q51 65 90 181z" />
    <glyph glyph-name="middot" unicode="&#xb7;" horiz-adv-x="454" 
d="M374 520q-37 -37 -91 -37t-91 37q-38 38 -38 90q0 50 38 88q37 37 91 37q53 0 91 -36q38 -38 38 -89q0 -52 -38 -90z" />
    <glyph glyph-name="cedilla" unicode="&#xb8;" horiz-adv-x="399" 
d="M-170 -434l10 47q90 0 137.5 25.5t47.5 68.5q0 92 -224 92l103 201h88l-51 -100q91 0 152 -43t61 -117q0 -81 -81.5 -127.5t-242.5 -46.5z" />
    <glyph glyph-name="uni00B9" unicode="&#xb9;" horiz-adv-x="397" 
d="M440 815h-231l6 23q76 7 90 55l98 301q9 23 6 39t-18 14l-39 -6l8 23l162 67l13 -12l-140 -432q-8 -24 3 -34.5t48 -14.5z" />
    <glyph glyph-name="ordmasculine" unicode="&#xba;" horiz-adv-x="669" 
d="M391 707q-72 0 -112.5 44t-40.5 130q0 160 115 290q114 129 249 129q154 0 154 -172q0 -158 -114 -289q-114 -132 -251 -132zM424 748q84 0 150 140q65 141 65 255q0 54 -19.5 86.5t-50.5 32.5q-59 0 -110 -75q-52 -76 -77 -164q-26 -90 -26 -153q0 -57 18.5 -89.5
t49.5 -32.5zM610 471h-510l27 82h510z" />
    <glyph glyph-name="guillemotright" unicode="&#xbb;" horiz-adv-x="825" 
d="M219 756l189 -283l-371 -283l-14 27l251 256l-86 256zM539 756l188 -283l-371 -283l-14 27l252 256l-86 256z" />
    <glyph glyph-name="onequarter" unicode="&#xbc;" horiz-adv-x="1056" 
d="M446 838l-6 -23h-231l6 23q76 7 90 55l98 301q9 23 6 39t-18 14l-39 -6l8 23l162 67l13 -12l-140 -432q-8 -25 3 -35t48 -14zM-66 -10l1223 1313h51l-1222 -1313h-52zM565 176l320 328h86l-107 -328h68l-21 -41h-61l-23 -69q-8 -24 2.5 -32.5t51.5 -13.5l-7 -20h-229
l8 20q43 4 58.5 12.5t23.5 33.5l23 69h-199zM856 436l-254 -260h170z" />
    <glyph glyph-name="onehalf" unicode="&#xbd;" horiz-adv-x="1120" 
d="M440 815h-231l6 23q76 7 90 55l98 301q9 23 6 39t-18 14l-39 -6l8 23l162 67l13 -12l-140 -432q-8 -24 3 -34.5t48 -14.5zM-14 -10h-52l1223 1313h51zM874 0h-323l2 31l82 58q3 2 100 73q45 33 86 70q94 84 94 151q0 28 -17 49t-50 21q-70 0 -152 -97l-10 37
q82 123 209 123q54 0 84.5 -30.5t30.5 -82.5q0 -58 -43 -114q-43 -58 -85 -88q-33 -25 -120 -80q-81 -51 -92 -60l118 9q87 0 146 86l22 -13z" />
    <glyph glyph-name="threequarters" unicode="&#xbe;" horiz-adv-x="1386" 
d="M303 786q-45 0 -76.5 13t-31.5 37q0 19 13 31t30 12q16 0 36 -32t52 -32q59 0 109 53t50 111q0 72 -86 72q-33 0 -71 -15l-2 25l65 24q78 29 113 57t35 70q0 43 -60 43q-77 0 -135 -55l-12 17q90 96 200 96q94 0 95 -76q0 -85 -150 -147q105 -7 107 -93q0 -81 -90 -145
q-92 -66 -191 -66zM121 -10l1222 1313h52l-1223 -1313h-51zM866 176l320 328h86l-107 -328h68l-21 -41h-61l-23 -69q-8 -24 2.5 -32.5t51.5 -13.5l-6 -20h-230l8 20q43 4 58.5 12.5t23.5 33.5l23 69h-199zM1157 436l-254 -260h170z" />
    <glyph glyph-name="questiondown" unicode="&#xbf;" horiz-adv-x="872" 
d="M454 895q37 37 91 37t91 -37q38 -38 38 -90q0 -50 -38 -88q-37 -37 -91 -37t-91 37q-38 38 -38 88q0 52 38 90zM459 528h41q2 -34 -5 -67.5t-15.5 -59.5t-30.5 -59.5t-34.5 -52t-45 -53.5t-44.5 -47l-48 -48q-54 -56 -111 -134q-54 -75 -82 -161q-67 -211 168 -211
q49 0 106 82q66 91 105 126q38 34 76 34q51 0 51 -59q0 -79 -88 -140q-86 -60 -196 -89q-110 -27 -204 -27q-150 0 -205 91q-55 90 -8 230q29 88 90.5 164t137.5 129q75 54 139 96q164 111 203 256z" />
    <glyph glyph-name="Agrave" unicode="&#xc0;" horiz-adv-x="1302" 
d="M995 1466l-47 -32q-144 159 -246 227q14 40 63 74q47 34 89 34q84 -119 141 -303zM979 1305l70 -1129q5 -72 26 -93q21 -24 88 -40l-10 -43h-483l12 45q53 12 87 23q29 8 54 36q25 26 23 72l-12 225h-482l-166 -237q-24 -35 -28.5 -54.5t11.5 -34.5q17 -14 29 -17
q39 -11 52 -15l-12 -43h-344l12 45q79 17 113 38q32 19 83 89l805 1133h72zM801 1049l-408 -586h438z" />
    <glyph glyph-name="Aacute" unicode="&#xc1;" horiz-adv-x="1302" 
d="M1198 1661q-104 -72 -246 -227l-47 32q57 186 142 303q42 0 89 -34q48 -35 62 -74zM979 1305l70 -1129q5 -72 26 -93q21 -24 88 -40l-10 -43h-483l12 45q53 12 87 23q29 8 54 36q25 26 23 72l-12 225h-482l-166 -237q-24 -35 -28.5 -54.5t11.5 -34.5q17 -14 29 -17
q39 -11 52 -15l-12 -43h-344l12 45q79 17 113 38q32 19 83 89l805 1133h72zM801 1049l-408 -586h438z" />
    <glyph glyph-name="Acircumflex" unicode="&#xc2;" horiz-adv-x="1302" 
d="M752 1485l354 311l156 -311l-31 -25l-170 187l-291 -187zM979 1305l70 -1129q5 -72 26 -93q21 -24 88 -40l-10 -43h-483l12 45q53 12 87 23q29 8 54 36q25 26 23 72l-12 225h-482l-166 -237q-24 -35 -28.5 -54.5t11.5 -34.5q17 -14 29 -17q39 -11 52 -15l-12 -43h-344
l12 45q79 17 113 38q32 19 83 89l805 1133h72zM801 1049l-408 -586h438z" />
    <glyph glyph-name="Atilde" unicode="&#xc3;" horiz-adv-x="1302" 
d="M1346 1702l30 -25q-13 -90 -83 -147q-71 -57 -156 -57q-46 0 -81.5 21t-53.5 52q-19 30 -48 51t-63 21q-50 0 -93 -35q-42 -35 -50 -67l-31 24q13 88 85 148q70 57 154 57q46 0 82 -21t53 -51q17 -31 45 -52.5t62 -21.5q51 0 95 35q42 33 53 68zM979 1305l70 -1129
q5 -72 26 -93q21 -24 88 -40l-10 -43h-483l12 45q53 12 87 23q29 8 54 36q25 26 23 72l-12 225h-482l-166 -237q-24 -35 -28.5 -54.5t11.5 -34.5q17 -14 29 -17q39 -11 52 -15l-12 -43h-344l12 45q79 17 113 38q32 19 83 89l805 1133h72zM801 1049l-408 -586h438z" />
    <glyph glyph-name="Adieresis" unicode="&#xc4;" horiz-adv-x="1302" 
d="M859 1586q-30 -30 -75 -30q-46 0 -74 30q-30 30 -30 75t30 75q29 29 74 29q44 0 75 -29q30 -30 30 -75t-30 -75zM1115 1736q31 29 75 29t75 -29q29 -31 29 -75t-29 -75q-30 -30 -75 -30t-75 30t-30 75t30 75zM979 1305l70 -1129q5 -72 26 -93q21 -24 88 -40l-10 -43h-483
l12 45q53 12 87 23q29 8 54 36q25 26 23 72l-12 225h-482l-166 -237q-24 -35 -28.5 -54.5t11.5 -34.5q17 -14 29 -17q39 -11 52 -15l-12 -43h-344l12 45q79 17 113 38q32 19 83 89l805 1133h72zM801 1049l-408 -586h438z" />
    <glyph glyph-name="Aring" unicode="&#xc5;" horiz-adv-x="1302" 
d="M938 1789q52 52 129 52t129 -52q53 -53 53 -128t-53 -128q-52 -52 -129 -52t-129 52q-53 53 -53 128t53 128zM999 1593q27 -28 68 -28t69 28q27 27 27 68t-27 69q-28 27 -69 27t-68 -27q-28 -28 -28 -69t28 -68zM979 1305l70 -1129q5 -72 26 -93q21 -24 88 -40l-10 -43
h-483l12 45q53 12 87 23q29 8 54 36q25 26 23 72l-12 225h-482l-166 -237q-24 -35 -28.5 -54.5t11.5 -34.5q17 -14 29 -17q39 -11 52 -15l-12 -43h-344l12 45q79 17 113 38q32 19 83 89l805 1133h72zM801 1049l-408 -586h438z" />
    <glyph glyph-name="AE" unicode="&#xc6;" horiz-adv-x="1847" 
d="M1061 1290h903l-82 -291h-47q31 117 11 171q-21 51 -120 51h-163q-104 0 -150 -34q-47 -35 -80 -138l-119 -363h140q157 0 215 40q59 40 102 144h41l-139 -426h-41q15 60 15 86.5t-17 51.5q-18 21 -60 27.5t-135 6.5h-143l-129 -399q-13 -45 -17 -63t-2.5 -35.5
t13.5 -27.5q18 -15 44 -18q25 -3 85 -3h125q106 0 186 56q81 56 178 191h54l-183 -317h-905l12 45q61 12 93 24q32 11 66 48t54 102l60 182h-492l-239 -251q-54 -54 -43 -73q6 -11 11 -14q4 -4 30 -10q26 -7 32 -10l-24 -43h-310l27 47q79 17 115 37q36 19 102 88l1004 1042
q-16 16 -90 31zM500 471h448l197 606q18 60 16 90z" />
    <glyph glyph-name="Ccedilla" unicode="&#xc7;" horiz-adv-x="1185" 
d="M997 1321q221 0 320 -115l-66 -268h-57q12 159 -41 236t-182 77q-172 0 -318 -131q-146 -129 -223 -314q-76 -182 -76 -359t85 -275t237 -98q205 0 342 119l20 -60q-167 -149 -444 -160l-37 -73q91 0 152 -43t61 -117q0 -81 -81.5 -127.5t-242.5 -46.5l11 47
q90 0 137 25.5t47 68.5q0 92 -223 92l90 178q-178 18 -272.5 133t-94.5 308q0 224 115 432q116 210 315 340q200 131 426 131z" />
    <glyph glyph-name="Egrave" unicode="&#xc8;" horiz-adv-x="1130" 
d="M893 1466l-47 -32q-144 159 -246 227q14 40 63 74q47 34 89 34q84 -119 141 -303zM332 1245l12 45h903l-82 -291h-47q31 117 11 171q-21 51 -119 51h-164q-104 0 -150 -34q-47 -35 -80 -138l-118 -363h139q157 0 215 40t102 144h41l-139 -426h-41q15 60 15 86.5t-17 51.5
q-17 21 -59 27.5t-136 6.5h-143l-129 -399q-13 -43 -17 -62t-2.5 -36.5t13.5 -27.5q17 -14 41 -17.5t88 -3.5h125q106 0 186 56q81 56 178 191h54l-183 -317h-905l13 45q61 12 93 24q30 10 65 48q34 37 55 102l278 858q17 55 18.5 82.5t-15.5 47.5q-18 16 -36 22.5t-63 15.5
z" />
    <glyph glyph-name="Eacute" unicode="&#xc9;" horiz-adv-x="1130" 
d="M1096 1661q-104 -72 -246 -227l-47 32q57 184 141 303q41 0 90 -34q48 -35 62 -74zM332 1245l12 45h903l-82 -291h-47q31 117 11 171q-21 51 -119 51h-164q-104 0 -150 -34q-47 -35 -80 -138l-118 -363h139q157 0 215 40t102 144h41l-139 -426h-41q15 60 15 86.5
t-17 51.5q-17 21 -59 27.5t-136 6.5h-143l-129 -399q-13 -43 -17 -62t-2.5 -36.5t13.5 -27.5q17 -14 41 -17.5t88 -3.5h125q106 0 186 56q81 56 178 191h54l-183 -317h-905l13 45q61 12 93 24q30 10 65 48q34 37 55 102l278 858q17 55 18.5 82.5t-15.5 47.5q-18 16 -36 22.5
t-63 15.5z" />
    <glyph glyph-name="Ecircumflex" unicode="&#xca;" horiz-adv-x="1130" 
d="M1128 1460l-170 187l-290 -187l-19 25l355 311l155 -311zM332 1245l12 45h903l-82 -291h-47q31 117 11 171q-21 51 -119 51h-164q-104 0 -150 -34q-47 -35 -80 -138l-118 -363h139q157 0 215 40t102 144h41l-139 -426h-41q15 60 15 86.5t-17 51.5q-17 21 -59 27.5
t-136 6.5h-143l-129 -399q-13 -43 -17 -62t-2.5 -36.5t13.5 -27.5q17 -14 41 -17.5t88 -3.5h125q106 0 186 56q81 56 178 191h54l-183 -317h-905l13 45q61 12 93 24q30 10 65 48q34 37 55 102l278 858q17 55 18.5 82.5t-15.5 47.5q-18 16 -36 22.5t-63 15.5z" />
    <glyph glyph-name="Edieresis" unicode="&#xcb;" horiz-adv-x="1130" 
d="M757 1586q-30 -30 -75 -30q-46 0 -74 30q-30 30 -30 75t30 75q29 29 74 29q44 0 75 -29q29 -31 29 -75t-29 -75zM1163 1586q-30 -30 -75 -30q-46 0 -75 30q-30 30 -30 75t30 75q29 29 75 29q44 0 75 -29q29 -31 29 -75t-29 -75zM332 1245l12 45h903l-82 -291h-47
q31 117 11 171q-21 51 -119 51h-164q-104 0 -150 -34q-47 -35 -80 -138l-118 -363h139q157 0 215 40t102 144h41l-139 -426h-41q15 60 15 86.5t-17 51.5q-17 21 -59 27.5t-136 6.5h-143l-129 -399q-13 -43 -17 -62t-2.5 -36.5t13.5 -27.5q17 -14 41 -17.5t88 -3.5h125
q106 0 186 56q81 56 178 191h54l-183 -317h-905l13 45q61 12 93 24q30 10 65 48q34 37 55 102l278 858q17 55 18.5 82.5t-15.5 47.5q-18 16 -36 22.5t-63 15.5z" />
    <glyph glyph-name="Igrave" unicode="&#xcc;" horiz-adv-x="628" 
d="M643 1466l-47 -32q-144 159 -246 227q14 40 63 74q47 34 89 34q84 -119 141 -303zM428 0h-502l13 45q90 17 132 47q44 32 74 127l279 858q32 103 2 130q-17 16 -35 22.5t-63 15.5l12 45h506l-15 -47q-47 -7 -72 -15q-29 -8 -55 -25q-29 -18 -48.5 -48.5t-37.5 -83.5
l-280 -858q-17 -62 -15 -93t30 -48q17 -11 35 -17q14 -4 50 -12z" />
    <glyph glyph-name="Iacute" unicode="&#xcd;" horiz-adv-x="628" 
d="M600 1434l-47 32q57 184 141 303q42 0 89 -34q48 -34 63 -74q-102 -68 -246 -227zM428 0h-502l13 45q90 17 132 47q44 32 74 127l279 858q32 103 2 130q-17 16 -35 22.5t-63 15.5l12 45h506l-15 -47q-47 -7 -72 -15q-29 -8 -55 -25q-29 -18 -48.5 -48.5t-37.5 -83.5
l-280 -858q-17 -62 -15 -93t30 -48q17 -11 35 -17q14 -4 50 -12z" />
    <glyph glyph-name="Icircumflex" unicode="&#xce;" horiz-adv-x="628" 
d="M399 1485l355 311l155 -311l-30 -25l-170 187l-291 -187zM428 0h-502l13 45q90 17 132 47q44 32 74 127l279 858q32 103 2 130q-17 16 -35 22.5t-63 15.5l12 45h506l-15 -47q-47 -7 -72 -15q-29 -8 -55 -25q-29 -18 -48.5 -48.5t-37.5 -83.5l-280 -858q-17 -62 -15 -93
t30 -48q17 -11 35 -17q14 -4 50 -12z" />
    <glyph glyph-name="Idieresis" unicode="&#xcf;" horiz-adv-x="628" 
d="M507 1586q-30 -30 -75 -30q-46 0 -74 30q-30 30 -30 75t30 75q29 29 74 29q44 0 75 -29q30 -30 30 -75t-30 -75zM913 1586q-30 -30 -75 -30t-75 30t-30 75t30 75q31 29 75 29t75 -29q29 -31 29 -75t-29 -75zM428 0h-502l13 45q90 17 132 47q44 32 74 127l279 858
q32 103 2 130q-17 16 -35 22.5t-63 15.5l12 45h506l-15 -47q-47 -7 -72 -15q-29 -8 -55 -25q-29 -18 -48.5 -48.5t-37.5 -83.5l-280 -858q-17 -62 -15 -93t30 -48q17 -11 35 -17q14 -4 50 -12z" />
    <glyph glyph-name="Eth" unicode="&#xd0;" horiz-adv-x="1392" 
d="M422 1290h477q223 0 367 -108q143 -110 143 -332q0 -230 -126 -426q-127 -198 -341 -310q-214 -114 -465 -114h-473l12 45q62 12 93 24q31 11 66 48t54 102l125 387l-233 -6l20 74l234 -6l131 409q32 103 2 130q-18 16 -36 22.5t-62 15.5zM547 70q176 0 331 126
q154 125 241 318q87 191 87 389q0 317 -346 318h-108l-181 -553l226 6l-21 -74l-225 6l-113 -348q-35 -106 -11 -147t120 -41z" />
    <glyph glyph-name="Ntilde" unicode="&#xd1;" horiz-adv-x="1296" 
d="M887 1618q-50 0 -93 -35q-42 -34 -51 -67l-30 24q13 88 85 148q71 57 154 57q46 0 82 -21t53 -51q17 -31 45 -52.5t62 -21.5q50 0 94 35q42 33 53 68l31 -25q-13 -90 -83 -147q-71 -57 -156 -57q-46 0 -81.5 21t-53.5 52q-19 30 -48 51t-63 21zM1120 1247l13 43h401
l-14 -45q-93 -17 -139 -48q-48 -31 -78 -126l-349 -1071h-75l-365 1094l-289 -881q-31 -94 -4 -123q28 -29 115 -47l-10 -43h-402l13 45q93 17 139 48t78 126l278 858q19 62 16 94t-30 47q-34 18 -86 27l12 45h311l326 -971l250 758q31 94 4 123q-28 29 -115 47z" />
    <glyph glyph-name="Ograve" unicode="&#xd2;" horiz-adv-x="1378" 
d="M1018 1466l-47 -32q-144 159 -246 227q14 40 63 74q47 34 89 34q84 -119 141 -303zM543 -27q-193 0 -299 118q-107 119 -107 315q0 227 116 439t312 344q195 132 412 132q193 0 299 -117q106 -116 106 -313q0 -171 -69 -337q-71 -168 -183 -295q-114 -127 -269 -207
q-155 -79 -318 -79zM588 43q154 0 292 144q139 143 215 345q76 200 76 388q0 157 -61.5 244t-177.5 87q-154 0 -292 -143q-139 -143 -215 -345q-77 -204 -77 -386q0 -159 62 -246.5t178 -87.5z" />
    <glyph glyph-name="Oacute" unicode="&#xd3;" horiz-adv-x="1378" 
d="M975 1434l-47 32q57 184 141 303q42 0 89 -34q48 -34 63 -74q-102 -68 -246 -227zM543 -27q-193 0 -299 118q-107 119 -107 315q0 227 116 439t312 344q195 132 412 132q193 0 299 -117q106 -116 106 -313q0 -171 -69 -337q-71 -168 -183 -295q-114 -127 -269 -207
q-155 -79 -318 -79zM588 43q154 0 292 144q139 143 215 345q76 200 76 388q0 157 -61.5 244t-177.5 87q-154 0 -292 -143q-139 -143 -215 -345q-77 -204 -77 -386q0 -159 62 -246.5t178 -87.5z" />
    <glyph glyph-name="Ocircumflex" unicode="&#xd4;" horiz-adv-x="1378" 
d="M774 1485l354 311l156 -311l-31 -25l-170 187l-290 -187zM543 -27q-193 0 -299 118q-107 119 -107 315q0 227 116 439t312 344q195 132 412 132q193 0 299 -117q106 -116 106 -313q0 -171 -69 -337q-71 -168 -183 -295q-114 -127 -269 -207q-155 -79 -318 -79zM588 43
q154 0 292 144q139 143 215 345q76 200 76 388q0 157 -61.5 244t-177.5 87q-154 0 -292 -143q-139 -143 -215 -345q-77 -204 -77 -386q0 -159 62 -246.5t178 -87.5z" />
    <glyph glyph-name="Otilde" unicode="&#xd5;" horiz-adv-x="1378" 
d="M1159 1473q-46 0 -82 21.5t-53 51.5t-47 51t-64 21q-50 0 -93 -35q-42 -35 -50 -67l-31 24q13 88 85 148q70 57 155 57q46 0 82 -21t52 -51q17 -31 45.5 -52.5t62.5 -21.5q50 0 94 35q42 33 53 68l31 -25q-13 -90 -84 -147t-156 -57zM543 -27q-193 0 -299 118
q-107 119 -107 315q0 227 116 439t312 344q195 132 412 132q193 0 299 -117q106 -116 106 -313q0 -171 -69 -337q-71 -168 -183 -295q-114 -127 -269 -207q-155 -79 -318 -79zM588 43q154 0 292 144q139 143 215 345q76 200 76 388q0 157 -61.5 244t-177.5 87
q-154 0 -292 -143q-139 -143 -215 -345q-77 -204 -77 -386q0 -159 62 -246.5t178 -87.5z" />
    <glyph glyph-name="Odieresis" unicode="&#xd6;" horiz-adv-x="1378" 
d="M882 1586q-30 -30 -75 -30t-75 30t-30 75t30 75q31 29 75 29t75 -29q29 -31 29 -75t-29 -75zM1287 1586q-30 -30 -75 -30q-46 0 -74 30q-30 30 -30 75t30 75q29 29 74 29q44 0 75 -29q30 -30 30 -75t-30 -75zM543 -27q-193 0 -299 118q-107 119 -107 315q0 227 116 439
t312 344q195 132 412 132q193 0 299 -117q106 -116 106 -313q0 -171 -69 -337q-71 -168 -183 -295q-114 -127 -269 -207q-155 -79 -318 -79zM588 43q154 0 292 144q139 143 215 345q76 200 76 388q0 157 -61.5 244t-177.5 87q-154 0 -292 -143q-139 -143 -215 -345
q-77 -204 -77 -386q0 -159 62 -246.5t178 -87.5z" />
    <glyph glyph-name="multiply" unicode="&#xd7;" horiz-adv-x="804" 
d="M737 840l54 -99l-283 -231l129 -227l-107 -86l-129 227l-286 -234l-52 99l283 231l-129 228l107 86l129 -228z" />
    <glyph glyph-name="Oslash" unicode="&#xd8;" horiz-adv-x="1378" 
d="M1239 1397l-72 -115q104 -47 159.5 -149t55.5 -242q0 -171 -69 -337q-71 -168 -183 -295q-114 -127 -269 -207q-155 -79 -318 -79q-97 0 -174 31l-66 -104l-39 26l62 99q-188 107 -189 381q0 227 116 439t312 344q195 132 412 132q75 0 145 -21l78 123zM348 377
q0 -146 53 -232l666 1063q-55 43 -135 43q-154 0 -292 -143q-139 -143 -215 -345q-77 -204 -77 -386zM588 43q154 0 292 144q139 143 215 345q76 200 76 388q0 167 -71 256l-668 -1072q61 -61 156 -61z" />
    <glyph glyph-name="Ugrave" unicode="&#xd9;" horiz-adv-x="1333" 
d="M1012 1466l-47 -32q-144 159 -246 227q14 39 62 74q47 34 89 34q83 -117 142 -303zM549 -23q-241 0 -319 165q-30 55 -27 158t43 226l178 551q32 103 2 130q-17 16 -35 22.5t-63 15.5l12 45h506l-15 -47q-64 -11 -94 -22q-31 -13 -63 -48q-30 -34 -53 -102l-193 -596
q-46 -157 -36 -242.5t65 -123.5q56 -43 147 -43q135 0 261 93t198 312l197 606q17 62 15 93.5t-29 47.5q-32 17 -89 27l12 45h402l-15 -47q-66 -12 -100 -23q-32 -12 -66 -47q-34 -36 -57 -102l-190 -586q-47 -141 -116 -245t-151 -160q-152 -103 -327 -103z" />
    <glyph glyph-name="Uacute" unicode="&#xda;" horiz-adv-x="1333" 
d="M969 1434l-47 32q57 184 141 303q42 0 89 -34q48 -35 62 -74q-102 -69 -245 -227zM549 -23q-241 0 -319 165q-30 55 -27 158t43 226l178 551q32 103 2 130q-17 16 -35 22.5t-63 15.5l12 45h506l-15 -47q-64 -11 -94 -22q-31 -13 -63 -48q-30 -34 -53 -102l-193 -596
q-46 -157 -36 -242.5t65 -123.5q56 -43 147 -43q135 0 261 93t198 312l197 606q17 62 15 93.5t-29 47.5q-32 17 -89 27l12 45h402l-15 -47q-66 -12 -100 -23q-32 -12 -66 -47q-34 -36 -57 -102l-190 -586q-47 -141 -116 -245t-151 -160q-152 -103 -327 -103z" />
    <glyph glyph-name="Ucircumflex" unicode="&#xdb;" horiz-adv-x="1333" 
d="M768 1485l354 311l156 -311l-31 -25l-170 187l-291 -187zM549 -23q-241 0 -319 165q-30 55 -27 158t43 226l178 551q32 103 2 130q-17 16 -35 22.5t-63 15.5l12 45h506l-15 -47q-64 -11 -94 -22q-31 -13 -63 -48q-30 -34 -53 -102l-193 -596q-46 -157 -36 -242.5
t65 -123.5q56 -43 147 -43q135 0 261 93t198 312l197 606q17 62 15 93.5t-29 47.5q-32 17 -89 27l12 45h402l-15 -47q-66 -12 -100 -23q-32 -12 -66 -47q-34 -36 -57 -102l-190 -586q-47 -141 -116 -245t-151 -160q-152 -103 -327 -103z" />
    <glyph glyph-name="Udieresis" unicode="&#xdc;" horiz-adv-x="1333" 
d="M876 1586q-30 -30 -75 -30t-75 30t-30 75t30 75q31 29 75 29t75 -29q29 -31 29 -75t-29 -75zM1281 1586q-30 -30 -75 -30q-46 0 -74 30q-30 30 -30 75t30 75q29 29 74 29q44 0 75 -29q30 -30 30 -75t-30 -75zM549 -23q-241 0 -319 165q-30 55 -27 158t43 226l178 551
q32 103 2 130q-17 16 -35 22.5t-63 15.5l12 45h506l-15 -47q-64 -11 -94 -22q-31 -13 -63 -48q-30 -34 -53 -102l-193 -596q-46 -157 -36 -242.5t65 -123.5q56 -43 147 -43q135 0 261 93t198 312l197 606q17 62 15 93.5t-29 47.5q-32 17 -89 27l12 45h402l-15 -47
q-66 -12 -100 -23q-32 -12 -66 -47q-34 -36 -57 -102l-190 -586q-47 -141 -116 -245t-151 -160q-152 -103 -327 -103z" />
    <glyph glyph-name="Yacute" unicode="&#xdd;" horiz-adv-x="1206" 
d="M1141 1661q-104 -72 -246 -227l-47 32q57 184 141 303q41 0 90 -34q48 -35 62 -74zM1098 1247l12 43h373l-13 -45q-83 -13 -118 -36q-33 -22 -105 -101l-493 -555l-109 -340q-31 -96 -2 -125q28 -28 139 -45l-10 -43h-569l12 45q107 17 155 47q48 31 79 127l106 324
l-139 565q-18 78 -42 102q-25 24 -98 37l13 43h497l-12 -45q-70 -14 -114 -38q-53 -29 -35 -99l116 -479l428 487q61 70 35 94q-15 13 -31 18.5t-57 14.5q-4 1 -18 4z" />
    <glyph glyph-name="Thorn" unicode="&#xde;" horiz-adv-x="1095" 
d="M348 244l-10 -31q-17 -62 -15 -93t30 -48q17 -11 35 -17q14 -4 50 -12l-10 -43h-502l13 45q90 17 132 47q44 32 74 127l279 858q32 103 2 130q-17 16 -35 22.5t-63 15.5l12 45h506l-15 -47q-47 -7 -72 -15q-29 -8 -55 -25q-29 -18 -48.5 -48.5t-37.5 -83.5l-8 -29
q171 -5 278 -37q61 -19 106 -52q96 -75 96 -216q-1 -462 -742 -493zM586 969l-213 -650q228 22 371 135q141 111 141 294q0 117 -69 165q-71 49 -230 56z" />
    <glyph glyph-name="germandbls" unicode="&#xdf;" horiz-adv-x="890" 
d="M901 1087q0 -116 -83 -208q-81 -90 -220 -183l119 -188q57 -89 57 -178q0 -102 -89 -188q-89 -88 -203 -128q-117 -41 -212 -41q-133 0 -133 90q0 41 26 65t64 24q43 0 100 -48q55 -49 79 -49q62 0 126 73t64 146q0 62 -37 127l-137 232q157 134 235 236t78 227
q0 135 -110 135q-87 0 -158 -80q-70 -79 -109 -201l-309 -950h-309l12 47q76 10 116.5 36t59.5 85l262 805q50 148 170 240q122 92 281 92q127 0 193.5 -58t66.5 -160z" />
    <glyph glyph-name="agrave" unicode="&#xe0;" horiz-adv-x="960" 
d="M670 1057l-47 -33q-144 159 -246 227q14 39 62 74q49 35 89 35q83 -117 142 -303zM907 881l-231 -660q-30 -86 -5 -87q2 0 5 1q46 11 176 191l33 -35q-200 -311 -336 -311q-51 0 -72.5 37.5t-1.5 93.5l76 215q-310 -346 -410 -346q-46 0 -83 51q-38 52 -38 155
q0 165 101 334q100 167 258 274q157 105 313 105q56 0 115 -18h100zM260 145q47 0 324 277l125 358q-70 43 -131 43q-86 0 -179 -93q-93 -92 -152 -223q-59 -132 -59 -235q0 -127 72 -127z" />
    <glyph glyph-name="aacute" unicode="&#xe1;" horiz-adv-x="960" 
d="M872 1251q-106 -73 -245 -227l-47 33q57 185 141 303q40 0 89 -35q48 -35 62 -74zM907 881l-231 -660q-30 -86 -5 -87q2 0 5 1q46 11 176 191l33 -35q-200 -311 -336 -311q-51 0 -72.5 37.5t-1.5 93.5l76 215q-310 -346 -410 -346q-46 0 -83 51q-38 52 -38 155
q0 165 101 334q100 167 258 274q157 105 313 105q56 0 115 -18h100zM260 145q47 0 324 277l125 358q-70 43 -131 43q-86 0 -179 -93q-93 -92 -152 -223q-59 -132 -59 -235q0 -127 72 -127z" />
    <glyph glyph-name="acircumflex" unicode="&#xe2;" horiz-adv-x="960" 
d="M905 1051l-170 186l-291 -186l-18 24l354 311l156 -311zM807 881h100l-231 -660q-30 -86 -5 -87q2 0 5 1q46 11 176 191l33 -35q-200 -311 -336 -311q-51 0 -72.5 37.5t-1.5 93.5l76 215q-310 -346 -410 -346q-46 0 -83 51q-38 52 -38 155q0 165 101 334q100 167 258 274
q157 105 313 105q56 0 115 -18zM584 422l125 358q-70 43 -131 43q-86 0 -179 -93q-93 -92 -152 -223q-59 -132 -59 -235q0 -127 72 -127q49 2 324 277z" />
    <glyph glyph-name="atilde" unicode="&#xe3;" horiz-adv-x="960" 
d="M1020 1292l31 -24q-13 -90 -84 -147q-70 -58 -156 -58q-46 0 -81.5 21t-53.5 52q-19 30 -48 51t-63 21q-52 0 -93 -34q-42 -35 -50 -68l-31 24q13 88 85 148q70 57 155 57q46 0 82 -21t52 -51q17 -31 45 -52t62 -21q51 0 95 35q42 34 53 67zM807 881h100l-231 -660
q-30 -86 -5 -87q2 0 5 1q46 11 176 191l33 -35q-200 -311 -336 -311q-51 0 -72.5 37.5t-1.5 93.5l76 215q-310 -346 -410 -346q-46 0 -83 51q-38 52 -38 155q0 165 101 334q100 167 258 274q157 105 313 105q56 0 115 -18zM584 422l125 358q-70 43 -131 43q-86 0 -179 -93
q-93 -92 -152 -223q-59 -132 -59 -235q0 -127 72 -127q49 2 324 277z" />
    <glyph glyph-name="adieresis" unicode="&#xe4;" horiz-adv-x="960" 
d="M534 1177q-30 -30 -75 -30t-75 30q-30 29 -30 74t30 75t75 30t75 -30q29 -31 29 -75q0 -45 -29 -74zM790 1326q28 30 74 30q45 0 75 -30t30 -75t-30 -74q-30 -30 -75 -30q-46 0 -74 30q-30 29 -30 74t30 75zM807 881h100l-231 -660q-30 -86 -5 -87q2 0 5 1q46 11 176 191
l33 -35q-200 -311 -336 -311q-51 0 -72.5 37.5t-1.5 93.5l76 215q-310 -346 -410 -346q-46 0 -83 51q-38 52 -38 155q0 165 101 334q100 167 258 274q157 105 313 105q56 0 115 -18zM584 422l125 358q-70 43 -131 43q-86 0 -179 -93q-93 -92 -152 -223q-59 -132 -59 -235
q0 -127 72 -127q49 2 324 277z" />
    <glyph glyph-name="aring" unicode="&#xe5;" horiz-adv-x="960" 
d="M871 1124q-55 -53 -129 -53q-76 0 -129 53q-54 52 -54 128t54 128q52 52 129 52q76 0 129 -52q53 -53 53 -128t-53 -128zM810 1320q-28 28 -69 28t-68 -28q-28 -28 -28 -69t28 -68q27 -28 68 -28t69 28q28 27 28 68t-28 69zM807 881h100l-231 -660q-30 -86 -5 -87
q2 0 5 1q46 11 176 191l33 -35q-200 -311 -336 -311q-51 0 -72.5 37.5t-1.5 93.5l76 215q-310 -346 -410 -346q-46 0 -83 51q-38 52 -38 155q0 165 101 334q100 167 258 274q157 105 313 105q56 0 115 -18zM584 422l125 358q-70 43 -131 43q-86 0 -179 -93
q-93 -92 -152 -223q-59 -132 -59 -235q0 -127 72 -127q49 2 324 277z" />
    <glyph glyph-name="ae" unicode="&#xe6;" horiz-adv-x="1277" 
d="M1278 750q0 -254 -545 -373q-6 -37 -6 -70q0 -85 39.5 -137.5t107.5 -52.5q56 0 128 35q71 35 120 100l25 -37q-66 -116 -175 -174q-110 -59 -206 -59q-102 0 -162.5 70t-60.5 190q0 42 6 82q-305 -344 -406 -344q-50 0 -87 61q-38 63 -31 180q6 161 106 319
q102 160 253 259q152 100 304 100q93 0 215 -65q112 66 213 65q81 0 121.5 -40t40.5 -109zM1040 829q-80 0 -169 -123q-89 -125 -126 -272q367 78 367 295q0 100 -72 100zM262 147q45 0 307 259q56 182 201 323q-33 41 -89 68q-57 26 -103 26q-125 0 -252 -181t-136 -341
q-4 -69 14 -111.5t58 -42.5z" />
    <glyph glyph-name="ccedilla" unicode="&#xe7;" horiz-adv-x="772" 
d="M584 899q91 0 141.5 -50t50.5 -130q0 -56 -26 -91.5t-72 -35.5q-88 0 -78 135q6 68 -4 90.5t-43 22.5q-127 0 -231 -179q-105 -180 -105 -344q0 -91 42 -145.5t114 -54.5q62 0 135 40q74 41 123 105l22 -41q-55 -103 -153 -165q-100 -62 -195 -74l-41 -82q91 0 152 -43
t61 -117q0 -81 -81.5 -127.5t-241.5 -46.5l10 47q90 0 137 25.5t47 68.5q0 92 -223 92l94 185q-86 18 -136 89.5t-50 182.5q0 144 80 296q79 150 210 249q131 98 261 98z" />
    <glyph glyph-name="egrave" unicode="&#xe8;" horiz-adv-x="761" 
d="M584 1057l-47 -33q-144 159 -246 227q14 39 62 74q49 35 89 35q83 -117 142 -303zM762 750q0 -254 -545 -373q-6 -38 -6 -70q0 -85 39.5 -137.5t107.5 -52.5q56 0 128 35q71 35 120 100l25 -37q-66 -116 -175 -174q-110 -59 -206 -59q-102 0 -162.5 70t-60.5 190
q0 150 87 304q86 152 221 254q133 99 265 99q81 0 121.5 -40t40.5 -109zM524 829q-80 0 -169 -123q-89 -125 -126 -272q367 78 367 295q0 100 -72 100z" />
    <glyph glyph-name="eacute" unicode="&#xe9;" horiz-adv-x="761" 
d="M786 1251q-106 -73 -245 -227l-47 33q57 185 141 303q40 0 89 -35q48 -35 62 -74zM600 899q81 0 121.5 -40.5t40.5 -108.5q0 -254 -545 -373q-6 -38 -6 -70q0 -85 39.5 -137.5t107.5 -52.5q56 0 128 35q71 35 120 100l25 -37q-66 -116 -175 -174q-110 -59 -206 -59
q-102 0 -162.5 70t-60.5 190q0 150 87 304q86 152 221 254q133 99 265 99zM229 434q367 78 367 295q0 100 -72 100q-81 0 -169 -124q-89 -125 -126 -271z" />
    <glyph glyph-name="ecircumflex" unicode="&#xea;" horiz-adv-x="761" 
d="M340 1075l354 311l156 -311l-31 -24l-170 186l-291 -186zM600 899q81 0 121.5 -40.5t40.5 -108.5q0 -254 -545 -373q-6 -38 -6 -70q0 -85 39.5 -137.5t107.5 -52.5q56 0 128 35q71 35 120 100l25 -37q-66 -116 -175 -174q-110 -59 -206 -59q-102 0 -162.5 70t-60.5 190
q0 150 87 304q86 152 221 254q133 99 265 99zM229 434q367 78 367 295q0 100 -72 100q-81 0 -169 -124q-89 -125 -126 -271z" />
    <glyph glyph-name="edieresis" unicode="&#xeb;" horiz-adv-x="761" 
d="M448 1177q-30 -30 -75 -30t-75 30q-30 29 -30 74t30 75t75 30t75 -30q29 -31 29 -75q0 -45 -29 -74zM704 1326q28 30 74 30q45 0 75 -30t30 -75t-30 -74q-30 -30 -75 -30q-46 0 -74 30q-30 29 -30 74t30 75zM600 899q81 0 121.5 -40.5t40.5 -108.5q0 -254 -545 -373
q-6 -38 -6 -70q0 -85 39.5 -137.5t107.5 -52.5q56 0 128 35q71 35 120 100l25 -37q-66 -116 -175 -174q-110 -59 -206 -59q-102 0 -162.5 70t-60.5 190q0 150 87 304q86 152 221 254q133 99 265 99zM229 434q367 78 367 295q0 100 -72 100q-81 0 -169 -124
q-89 -125 -126 -271z" />
    <glyph glyph-name="igrave" unicode="&#xec;" horiz-adv-x="548" 
d="M453 1057l-47 -33q-144 159 -246 227q14 39 62 74q49 35 89 35q83 -117 142 -303zM438 322l33 -35q-196 -307 -336 -307q-49 0 -70.5 37.5t-1.5 93.5l213 538q39 99 3 88q-48 -12 -179 -188l-30 35q196 307 333 307q51 0 73 -38t1 -93l-215 -539q-39 -98 -2 -88
q50 13 178 189z" />
    <glyph glyph-name="iacute" unicode="&#xed;" horiz-adv-x="548" 
d="M410 1024l-48 33q57 186 142 303q40 0 89 -35q48 -35 62 -74q-102 -69 -245 -227zM438 322l33 -35q-196 -307 -336 -307q-49 0 -70.5 37.5t-1.5 93.5l213 538q39 99 3 88q-48 -12 -179 -188l-30 35q196 307 333 307q51 0 73 -38t1 -93l-215 -539q-39 -98 -2 -88
q50 13 178 189z" />
    <glyph glyph-name="icircumflex" unicode="&#xee;" horiz-adv-x="548" 
d="M209 1075l354 311l156 -311l-31 -24l-170 186l-291 -186zM438 322l33 -35q-196 -307 -336 -307q-49 0 -70.5 37.5t-1.5 93.5l213 538q39 99 3 88q-48 -12 -179 -188l-30 35q196 307 333 307q51 0 73 -38t1 -93l-215 -539q-39 -98 -2 -88q50 13 178 189z" />
    <glyph glyph-name="idieresis" unicode="&#xef;" horiz-adv-x="548" 
d="M317 1177q-30 -30 -75 -30t-75 30q-30 29 -30 74t30 75t75 30t75 -30q29 -31 29 -75q0 -45 -29 -74zM722 1177q-30 -30 -75 -30t-74 30q-30 29 -30 74t30 75q29 30 74 30t75 -30t30 -75t-30 -74zM438 322l33 -35q-196 -307 -336 -307q-49 0 -70.5 37.5t-1.5 93.5l213 538
q39 99 3 88q-48 -12 -179 -188l-30 35q196 307 333 307q51 0 73 -38t1 -93l-215 -539q-39 -98 -2 -88q50 13 178 189z" />
    <glyph glyph-name="eth" unicode="&#xf0;" horiz-adv-x="1040" 
d="M1159 1276l-24 -92q-246 -75 -250 -76q116 -152 114 -358q0 -296 -188 -532t-459 -236q-132 0 -215 81q-82 79 -82 222q0 245 185 441q185 194 428 194q47 0 145 -19q-12 100 -51 166q-164 -54 -356 -127l24 92q196 57 297 90q-91 112 -244 129l39 54q187 -12 318 -146
q153 54 319 117zM389 51q147 0 271 204q124 203 124 394q0 94 -40 147.5t-113 53.5q-102 0 -195 -102q-94 -103 -145 -240q-51 -136 -51 -254q0 -96 38 -149.5t111 -53.5z" />
    <glyph glyph-name="ntilde" unicode="&#xf1;" 
d="M858 1063q-46 0 -82 21.5t-53 51.5t-47 51t-64 21q-52 0 -93 -34q-42 -35 -50 -68l-31 24q13 88 85 148q71 57 155 57q46 0 82 -21t52 -51q17 -31 45.5 -52t62.5 -21q50 0 94 35q42 33 53 67l31 -24q-14 -90 -84 -147q-70 -58 -156 -58zM936 326l31 -35
q-200 -311 -342 -311q-50 0 -71.5 32t-0.5 84l174 449q45 110 50 163q3 29 -7 40.5t-35 11.5q-80 0 -245 -237q-165 -236 -281 -523h-162l234 653q32 88 5 89q-2 0 -5 -1q-48 -11 -179 -188l-30 35q196 307 342 307q47 0 62.5 -32t-5.5 -85l-158 -397h27q292 514 506 514
q187 0 39 -367l-125 -307q-39 -92 -4 -86q50 14 180 191z" />
    <glyph glyph-name="ograve" unicode="&#xf2;" horiz-adv-x="897" 
d="M668 1057l-47 -33q-144 159 -246 227q14 39 62 74q49 35 89 35q83 -117 142 -303zM266 -20q-113 0 -175 63t-62 193q0 248 190 456q189 207 412 207q112 0 173.5 -62.5t61.5 -191.5q0 -161 -87 -315q-86 -155 -227 -253q-140 -97 -286 -97zM332 41q90 0 175 112
q85 110 133 255q48 142 48 254q0 82 -32.5 129t-92.5 47q-91 0 -177 -110q-83 -107 -131 -250q-46 -138 -46 -251q0 -83 32.5 -134.5t90.5 -51.5z" />
    <glyph glyph-name="oacute" unicode="&#xf3;" horiz-adv-x="897" 
d="M625 1024l-47 33q57 185 141 303q40 0 89 -35q48 -35 62 -74q-102 -69 -245 -227zM266 -20q-113 0 -175 63t-62 193q0 248 190 456q189 207 412 207q112 0 173.5 -62.5t61.5 -191.5q0 -161 -87 -315q-86 -155 -227 -253q-140 -97 -286 -97zM332 41q90 0 175 112
q85 110 133 255q48 142 48 254q0 82 -32.5 129t-92.5 47q-91 0 -177 -110q-83 -107 -131 -250q-46 -138 -46 -251q0 -83 32.5 -134.5t90.5 -51.5z" />
    <glyph glyph-name="ocircumflex" unicode="&#xf4;" horiz-adv-x="897" 
d="M424 1075l354 311l156 -311l-31 -24l-170 186l-291 -186zM266 -20q-113 0 -175 63t-62 193q0 248 190 456q189 207 412 207q112 0 173.5 -62.5t61.5 -191.5q0 -161 -87 -315q-86 -155 -227 -253q-140 -97 -286 -97zM332 41q90 0 175 112q85 110 133 255q48 142 48 254
q0 82 -32.5 129t-92.5 47q-91 0 -177 -110q-83 -107 -131 -250q-46 -138 -46 -251q0 -83 32.5 -134.5t90.5 -51.5z" />
    <glyph glyph-name="otilde" unicode="&#xf5;" horiz-adv-x="897" 
d="M809 1063q-46 0 -81.5 21t-53.5 52q-19 30 -48 51t-63 21q-52 0 -93 -34q-42 -35 -50 -68l-31 24q13 88 85 148q70 57 155 57q46 0 82 -21t52 -51q17 -31 45 -52t62 -21q51 0 95 35q42 33 53 67l31 -24q-13 -90 -84 -147q-70 -58 -156 -58zM266 -20q-113 0 -175 63
t-62 193q0 248 190 456q189 207 412 207q112 0 173.5 -62.5t61.5 -191.5q0 -161 -87 -315q-86 -155 -227 -253q-140 -97 -286 -97zM332 41q90 0 175 112q85 110 133 255q48 142 48 254q0 82 -32.5 129t-92.5 47q-91 0 -177 -110q-83 -107 -131 -250q-46 -138 -46 -251
q0 -83 32.5 -134.5t90.5 -51.5z" />
    <glyph glyph-name="odieresis" unicode="&#xf6;" horiz-adv-x="897" 
d="M532 1177q-30 -30 -75 -30t-75 30q-30 29 -30 74t30 75t75 30t75 -30q29 -31 29 -75q0 -45 -29 -74zM937 1177q-30 -30 -75 -30q-46 0 -74 30q-30 29 -30 74t30 75q28 30 74 30q45 0 75 -30t30 -75t-30 -74zM266 -20q-113 0 -175 63t-62 193q0 248 190 456
q189 207 412 207q112 0 173.5 -62.5t61.5 -191.5q0 -161 -87 -315q-86 -155 -227 -253q-140 -97 -286 -97zM332 41q90 0 175 112q85 110 133 255q48 142 48 254q0 82 -32.5 129t-92.5 47q-91 0 -177 -110q-83 -107 -131 -250q-46 -138 -46 -251q0 -83 32.5 -134.5
t90.5 -51.5z" />
    <glyph glyph-name="divide" unicode="&#xf7;" horiz-adv-x="866" 
d="M603 763q-28 -28 -64.5 -28t-64.5 28t-28 66q0 37 28 65t65 28q36 0 64 -28t28 -65q0 -39 -28 -66zM778 455h-682l39 120h682zM419 137q-29 -28 -64.5 -28t-64.5 27.5t-28 66.5q0 37 27.5 64.5t64.5 27.5t64.5 -27.5t27.5 -64.5q0 -39 -27 -66z" />
    <glyph glyph-name="oslash" unicode="&#xf8;" horiz-adv-x="897" 
d="M807 977l-62 -100q121 -51 121 -232q0 -161 -87 -315q-86 -155 -227 -253q-139 -97 -286 -97q-42 0 -76 8l-57 -90l-39 28l49 78q-115 57 -114 232q0 248 190 456q189 207 412 207q33 0 67 -6l70 113zM209 227q0 -55 14 -94l420 672q-31 33 -80 33q-91 0 -177 -110
q-83 -107 -131 -250q-46 -138 -46 -251zM332 41q90 0 175 112q85 110 133 255q48 142 48 254q0 56 -16 98l-424 -678q35 -41 84 -41z" />
    <glyph glyph-name="ugrave" unicode="&#xf9;" 
d="M719 1057l-47 -33q-144 159 -246 227q14 40 63 74q49 35 89 35q84 -118 141 -303zM104 551l-32 35q196 309 342 309q50 0 72 -33.5t1 -85.5l-174 -444q-77 -182 -33 -210q10 -7 27 -7q84 0 252 239t279 535h161l-239 -668q-32 -88 -5 -89q2 0 5 1q47 14 176 191l31 -35
q-197 -309 -340 -309q-50 0 -72.5 33t-1.5 83l158 402l-17 -2q-166 -290 -282 -402q-117 -114 -215 -114q-199 0 -43 368l127 303q36 86 8 87q-3 0 -6 -1q-55 -12 -179 -186z" />
    <glyph glyph-name="uacute" unicode="&#xfa;" 
d="M676 1024l-47 33q57 185 141 303q40 0 89 -35q48 -34 63 -74q-102 -68 -246 -227zM104 551l-32 35q196 309 342 309q50 0 72 -33.5t1 -85.5l-174 -444q-77 -182 -33 -210q10 -7 27 -7q84 0 252 239t279 535h161l-239 -668q-32 -88 -5 -89q2 0 5 1q47 14 176 191l31 -35
q-197 -309 -340 -309q-50 0 -72.5 33t-1.5 83l158 402l-17 -2q-166 -290 -282 -402q-117 -114 -215 -114q-199 0 -43 368l127 303q36 86 8 87q-3 0 -6 -1q-55 -12 -179 -186z" />
    <glyph glyph-name="ucircumflex" unicode="&#xfb;" 
d="M475 1075l354 311l156 -311l-31 -24l-170 186l-290 -186zM104 551l-32 35q196 309 342 309q50 0 72 -33.5t1 -85.5l-174 -444q-77 -182 -33 -210q10 -7 27 -7q84 0 252 239t279 535h161l-239 -668q-32 -88 -5 -89q2 0 5 1q47 14 176 191l31 -35q-197 -309 -340 -309
q-50 0 -72.5 33t-1.5 83l158 402l-17 -2q-166 -290 -282 -402q-117 -114 -215 -114q-199 0 -43 368l127 303q36 86 8 87q-3 0 -6 -1q-55 -12 -179 -186z" />
    <glyph glyph-name="udieresis" unicode="&#xfc;" 
d="M583 1177q-30 -30 -75 -30t-75 30q-30 29 -30 74t30 75t75 30t75 -30q29 -31 29 -75q0 -45 -29 -74zM988 1177q-30 -30 -75 -30t-74 30q-30 29 -30 74t30 75q29 30 74 30t75 -30t30 -75t-30 -74zM104 551l-32 35q196 309 342 309q50 0 72 -33.5t1 -85.5l-174 -444
q-77 -182 -33 -210q10 -7 27 -7q84 0 252 239t279 535h161l-239 -668q-32 -88 -5 -89q2 0 5 1q47 14 176 191l31 -35q-197 -309 -340 -309q-50 0 -72.5 33t-1.5 83l158 402l-17 -2q-166 -290 -282 -402q-117 -114 -215 -114q-199 0 -43 368l127 303q36 86 8 87q-3 0 -6 -1
q-55 -12 -179 -186z" />
    <glyph glyph-name="yacute" unicode="&#xfd;" horiz-adv-x="917" 
d="M852 1251q-104 -72 -246 -227l-47 33q57 185 141 303q40 0 90 -35q48 -35 62 -74zM686 838l14 43h312l-699 -895q-12 -14 -60 -78q-48 -65 -61 -79q-4 -4 -11 -12.5t-20 -23.5t-23 -26q-41 -47 -61 -60q-23 -13 -57 -39q-37 -25 -70 -32q-32 -7 -73 -7q-72 0 -119 32
t-47 85q0 41 25.5 65.5t68.5 24.5t85 -43t87 -43q52 0 101 46t151 184l43 688q6 101 -22 130q-30 29 -109 40l15 43h286l-45 -697l387 500q32 45 41.5 72.5t-6 44.5t-46 24.5t-87.5 12.5z" />
    <glyph glyph-name="thorn" unicode="&#xfe;" horiz-adv-x="958" 
d="M201 -8l-64 -180q-27 -74 -1 -95q26 -19 120 -30l-12 -45h-457l12 45q75 13 115 37q37 23 61 92l334 942q-106 -45 -200 -103l-19 50q138 94 250 139l98 278q29 80 -1 108q-32 27 -136 27l16 54l332 47l21 -31l-152 -434q47 6 76 6q158 0 245 -69t87 -209
q0 -231 -210 -420q-211 -190 -515 -209zM545 813q-21 0 -58 -4l-268 -764q227 23 374 188q146 164 146 369q1 211 -194 211z" />
    <glyph glyph-name="ydieresis" unicode="&#xff;" horiz-adv-x="917" 
d="M513 1177q-30 -30 -75 -30q-46 0 -74 30q-30 29 -30 74t30 75q28 30 74 30q45 0 75 -30t30 -75t-30 -74zM919 1177q-30 -30 -75 -30t-75 30q-30 29 -30 74t30 75t75 30t75 -30q29 -31 29 -75q0 -45 -29 -74zM686 838l14 43h312l-699 -895q-12 -14 -60 -78
q-48 -65 -61 -79q-4 -4 -11 -12.5t-20 -23.5t-23 -26q-41 -47 -61 -60q-23 -13 -57 -39q-37 -25 -70 -32q-32 -7 -73 -7q-72 0 -119 32t-47 85q0 41 25.5 65.5t68.5 24.5t85 -43t87 -43q52 0 101 46t151 184l43 688q6 101 -22 130q-30 29 -109 40l15 43h286l-45 -697
l387 500q32 45 41.5 72.5t-6 44.5t-46 24.5t-87.5 12.5z" />
    <glyph glyph-name="Amacron" unicode="&#x100;" horiz-adv-x="1302" 
d="M748 1616l30 78h574l-31 -78h-573zM979 1305l70 -1129q5 -72 26 -93q21 -24 88 -40l-10 -43h-483l12 45q53 12 87 23q29 8 54 36q25 26 23 72l-12 225h-482l-166 -237q-24 -35 -28.5 -54.5t11.5 -34.5q17 -14 29 -17q39 -11 52 -15l-12 -43h-344l12 45q79 17 113 38
q32 19 83 89l805 1133h72zM801 1049l-408 -586h438z" />
    <glyph glyph-name="amacron" unicode="&#x101;" horiz-adv-x="960" 
d="M422 1206l31 78h573l-31 -78h-573zM807 881h100l-231 -660q-30 -86 -5 -87q2 0 5 1q46 11 176 191l33 -35q-200 -311 -336 -311q-51 0 -72.5 37.5t-1.5 93.5l76 215q-310 -346 -410 -346q-46 0 -83 51q-38 52 -38 155q0 165 101 334q100 167 258 274q157 105 313 105
q56 0 115 -18zM584 422l125 358q-70 43 -131 43q-86 0 -179 -93q-93 -92 -152 -223q-59 -132 -59 -235q0 -127 72 -127q49 2 324 277z" />
    <glyph glyph-name="Abreve" unicode="&#x102;" horiz-adv-x="1302" 
d="M1321 1792h39q-41 -135 -127 -208t-205 -73q-126 0 -169 79t-3 202h39q-14 -75 23 -110t129 -37q196 -3 274 147zM979 1305l70 -1129q5 -72 26 -93q21 -24 88 -40l-10 -43h-483l12 45q53 12 87 23q29 8 54 36q25 26 23 72l-12 225h-482l-166 -237q-24 -35 -28.5 -54.5
t11.5 -34.5q17 -14 29 -17q39 -11 52 -15l-12 -43h-344l12 45q79 17 113 38q32 19 83 89l805 1133h72zM801 1049l-408 -586h438z" />
    <glyph glyph-name="abreve" unicode="&#x103;" horiz-adv-x="960" 
d="M995 1382h39q-41 -135 -127 -207.5t-205 -72.5q-126 0 -169 79t-3 201h39q-14 -75 23.5 -110t128.5 -37q196 -3 274 147zM807 881h100l-231 -660q-30 -86 -5 -87q2 0 5 1q46 11 176 191l33 -35q-200 -311 -336 -311q-51 0 -72.5 37.5t-1.5 93.5l76 215
q-310 -346 -410 -346q-46 0 -83 51q-38 52 -38 155q0 165 101 334q100 167 258 274q157 105 313 105q56 0 115 -18zM584 422l125 358q-70 43 -131 43q-86 0 -179 -93q-93 -92 -152 -223q-59 -132 -59 -235q0 -127 72 -127q49 2 324 277z" />
    <glyph glyph-name="Aogonek" unicode="&#x104;" horiz-adv-x="1302" 
d="M1153 0h-178q-88 -49 -129 -96t-41 -107q0 -45 25.5 -70.5t68.5 -25.5q37 0 105 20l-15 -36q-83 -72 -188 -72q-78 0 -124 36t-46 107q0 83 61 150l154 94h-176l12 45q53 12 87 23q29 8 54 36q25 26 23 72l-12 225h-482l-166 -237q-24 -35 -28.5 -54.5t11.5 -34.5
q17 -14 29 -17q39 -11 52 -15l-12 -43h-344l12 45q79 17 113 38q32 19 83 89l805 1133h72l70 -1129q5 -72 26 -93q21 -24 88 -40zM801 1049l-408 -586h438z" />
    <glyph glyph-name="aogonek" unicode="&#x105;" horiz-adv-x="991" 
d="M688 47v-12q-65 -47 -90 -70q-31 -26 -52 -61q-24 -38 -24 -76q0 -53 30 -84t79 -31q39 0 92 21v-37q-72 -72 -178 -72q-88 0 -140.5 43.5t-52.5 126.5q0 67 43 123l115 70q-68 32 -35 123l76 215q-310 -346 -410 -346q-46 0 -83 51q-38 52 -38 155q0 165 101 334
q100 167 258 274q157 105 313 105q56 0 115 -18h100l-231 -660q-30 -86 -5 -87q2 0 5 1q46 11 176 191l33 -35q-104 -165 -197 -244zM260 145q47 0 324 277l125 358q-70 43 -131 43q-86 0 -179 -93q-93 -92 -152 -223q-59 -132 -59 -235q0 -127 72 -127z" />
    <glyph glyph-name="Cacute" unicode="&#x106;" horiz-adv-x="1185" 
d="M862 1434l-47 32q57 184 141 303q41 0 90 -34q48 -35 62 -74q-102 -68 -246 -227zM573 -27q-211 0 -321.5 116.5t-110.5 328.5q0 224 115 432q116 210 315 340q200 131 426 131q221 0 320 -115l-66 -268h-57q12 159 -41 236t-182 77q-172 0 -318 -131
q-146 -129 -223 -314q-76 -182 -76 -359t85 -275t237 -98q205 0 342 119l20 -60q-77 -69 -203 -115q-124 -45 -262 -45z" />
    <glyph glyph-name="cacute" unicode="&#x107;" horiz-adv-x="772" 
d="M551 1024l-47 33q57 185 141 303q40 0 89 -35q48 -34 63 -74q-102 -68 -246 -227zM584 899q91 0 141.5 -50t50.5 -130q0 -56 -26 -91.5t-72 -35.5q-88 0 -78 135q6 68 -4 90.5t-43 22.5q-127 0 -231 -179q-105 -180 -105 -344q0 -91 42 -145.5t114 -54.5q62 0 135 40
q74 41 123 105l22 -41q-61 -115 -172 -178q-113 -63 -211 -63q-104 0 -170 74q-67 73 -67 202q0 144 80 296q79 150 210 249q131 98 261 98z" />
    <glyph glyph-name="Cdotaccent" unicode="&#x10a;" horiz-adv-x="1185" 
d="M1045 1536q-37 -35 -86.5 -35t-85.5 35q-37 34 -37 84t37 84q36 35 85.5 35t86.5 -35q36 -34 36 -84t-36 -84zM573 -27q-211 0 -321.5 116.5t-110.5 328.5q0 224 115 432q116 210 315 340q200 131 426 131q221 0 320 -115l-66 -268h-57q12 159 -41 236t-182 77
q-172 0 -318 -131q-146 -129 -223 -314q-76 -182 -76 -359t85 -275t237 -98q205 0 342 119l20 -60q-77 -69 -203 -115q-124 -45 -262 -45z" />
    <glyph glyph-name="cdotaccent" unicode="&#x10b;" horiz-adv-x="772" 
d="M733 1127q-37 -35 -86 -35t-86 35q-37 34 -37 84t37 84q37 35 86 35t86 -35q37 -34 37 -84t-37 -84zM584 899q91 0 141.5 -50t50.5 -130q0 -56 -26 -91.5t-72 -35.5q-88 0 -78 135q6 68 -4 90.5t-43 22.5q-127 0 -231 -179q-105 -180 -105 -344q0 -91 42 -145.5
t114 -54.5q62 0 135 40q74 41 123 105l22 -41q-61 -115 -172 -178q-113 -63 -211 -63q-104 0 -170 74q-67 73 -67 202q0 144 80 296q79 150 210 249q131 98 261 98z" />
    <glyph glyph-name="Ccaron" unicode="&#x10c;" horiz-adv-x="1185" 
d="M1264 1772l-355 -312l-155 312l30 24l170 -186l291 186zM573 -27q-211 0 -321.5 116.5t-110.5 328.5q0 224 115 432q116 210 315 340q200 131 426 131q221 0 320 -115l-66 -268h-57q12 159 -41 236t-182 77q-172 0 -318 -131q-146 -129 -223 -314q-76 -182 -76 -359
t85 -275t237 -98q205 0 342 119l20 -60q-77 -69 -203 -115q-124 -45 -262 -45z" />
    <glyph glyph-name="ccaron" unicode="&#x10d;" horiz-adv-x="772" 
d="M952 1362l-354 -311l-156 311l31 24l170 -186l291 186zM584 899q91 0 141.5 -50t50.5 -130q0 -56 -26 -91.5t-72 -35.5q-88 0 -78 135q6 68 -4 90.5t-43 22.5q-127 0 -231 -179q-105 -180 -105 -344q0 -91 42 -145.5t114 -54.5q62 0 135 40q74 41 123 105l22 -41
q-61 -115 -172 -178q-113 -63 -211 -63q-104 0 -170 74q-67 73 -67 202q0 144 80 296q79 150 210 249q131 98 261 98z" />
    <glyph glyph-name="Dcaron" unicode="&#x10e;" horiz-adv-x="1312" 
d="M1321 1796l18 -24l-354 -312l-156 312l31 24l170 -186zM342 1290h477q223 0 367 -108q143 -110 143 -332q0 -230 -126 -426q-127 -198 -341 -310q-214 -114 -465 -114h-473l13 45q61 12 93 24q30 10 65 48q34 37 55 102l276 858q32 103 2 130q-17 16 -35 22.5t-63 15.5z
M467 70q177 0 331 126q154 125 241 318q87 191 87 389q0 317 -346 318h-108l-314 -963q-35 -106 -11 -147t120 -41z" />
    <glyph glyph-name="dcaron" unicode="&#x10f;" horiz-adv-x="1089" 
d="M1067 1358l20 -31l-382 -1106q-33 -97 0 -86q47 14 176 191l30 -35q-195 -311 -340 -311q-49 0 -71 32t-4 84l96 277l-42.5 -47.5t-42.5 -47t-30 -32.5q-58 -62 -116 -120q-148 -146 -220 -146q-46 0 -83 51q-38 52 -38 155q0 165 101 334q100 167 258 274
q157 105 313 105q43 0 80 -8l80 231q27 80 -4 108q-32 27 -135 27l18 54zM1163 1337q31 16 85 5q52 -10 69 -44q-44 -143 -158 -319l-43 25q47 233 47 333zM623 463l106 305q-79 55 -151 55q-86 0 -179 -93q-93 -92 -152 -223q-59 -132 -59 -235q0 -127 72 -127
q56 1 363 318z" />
    <glyph glyph-name="Dcroat" unicode="&#x110;" horiz-adv-x="1392" 
d="M422 1290h477q223 0 367 -108q143 -110 143 -332q0 -230 -126 -426q-127 -198 -341 -310q-214 -114 -465 -114h-473l12 45q62 12 93 24q31 11 66 48t54 102l125 387l-233 -6l20 74l234 -6l131 409q32 103 2 130q-18 16 -36 22.5t-62 15.5zM547 70q176 0 331 126
q154 125 241 318q87 191 87 389q0 317 -346 318h-108l-181 -553l226 6l-21 -74l-225 6l-113 -348q-35 -106 -11 -147t120 -41z" />
    <glyph glyph-name="dslash" unicode="&#x111;" horiz-adv-x="976" 
d="M977 1006l-272 -785q-33 -97 0 -86q47 14 176 191l30 -35q-195 -311 -340 -311q-49 0 -71 32t-4 84l96 277l-42.5 -47.5t-42.5 -47t-30 -32.5q-58 -62 -116 -120q-148 -146 -220 -146q-46 0 -83 51q-38 52 -38 155q0 165 101 334q100 167 258 274q157 105 313 105
q43 0 80 -8l41 117q-190 0 -352 -7l20 74q179 -6 353 -6l18 53q27 80 -4 108q-32 27 -135 27l18 54l336 47l20 -31l-88 -256q57 0 138 4l-21 -74q-105 5 -139 5zM623 463l106 305q-79 55 -151 55q-86 0 -179 -93q-93 -92 -152 -223q-59 -132 -59 -235q0 -127 72 -127
q56 1 363 318z" />
    <glyph glyph-name="Emacron" unicode="&#x112;" horiz-adv-x="1130" 
d="M676 1694h573l-30 -78h-574zM332 1245l12 45h903l-82 -291h-47q31 117 11 171q-21 51 -119 51h-164q-104 0 -150 -34q-47 -35 -80 -138l-118 -363h139q157 0 215 40t102 144h41l-139 -426h-41q15 60 15 86.5t-17 51.5q-17 21 -59 27.5t-136 6.5h-143l-129 -399
q-13 -43 -17 -62t-2.5 -36.5t13.5 -27.5q17 -14 41 -17.5t88 -3.5h125q106 0 186 56q81 56 178 191h54l-183 -317h-905l13 45q61 12 93 24q30 10 65 48q34 37 55 102l278 858q17 55 18.5 82.5t-15.5 47.5q-18 16 -36 22.5t-63 15.5z" />
    <glyph glyph-name="emacron" unicode="&#x113;" horiz-adv-x="761" 
d="M336 1206l31 78h573l-31 -78h-573zM600 899q81 0 121.5 -40.5t40.5 -108.5q0 -254 -545 -373q-6 -38 -6 -70q0 -85 39.5 -137.5t107.5 -52.5q56 0 128 35q71 35 120 100l25 -37q-66 -116 -175 -174q-110 -59 -206 -59q-102 0 -162.5 70t-60.5 190q0 150 87 304
q86 152 221 254q133 99 265 99zM229 434q367 78 367 295q0 100 -72 100q-81 0 -169 -124q-89 -125 -126 -271z" />
    <glyph glyph-name="Edotaccent" unicode="&#x116;" horiz-adv-x="1130" 
d="M1032 1536q-37 -35 -86 -35t-86 35q-37 34 -37 84t37 84q37 35 86 35t86 -35q37 -34 37 -84t-37 -84zM332 1245l12 45h903l-82 -291h-47q31 117 11 171q-21 51 -119 51h-164q-104 0 -150 -34q-47 -35 -80 -138l-118 -363h139q157 0 215 40t102 144h41l-139 -426h-41
q15 60 15 86.5t-17 51.5q-17 21 -59 27.5t-136 6.5h-143l-129 -399q-13 -43 -17 -62t-2.5 -36.5t13.5 -27.5q17 -14 41 -17.5t88 -3.5h125q106 0 186 56q81 56 178 191h54l-183 -317h-905l13 45q61 12 93 24q30 10 65 48q34 37 55 102l278 858q17 55 18.5 82.5t-15.5 47.5
q-18 16 -36 22.5t-63 15.5z" />
    <glyph glyph-name="edotaccent" unicode="&#x117;" horiz-adv-x="761" 
d="M723 1127q-37 -35 -86 -35t-86 35q-37 34 -37 84t37 84q37 35 86 35t86 -35q37 -34 37 -84t-37 -84zM762 750q0 -254 -545 -373q-6 -38 -6 -70q0 -85 39.5 -137.5t107.5 -52.5q56 0 128 35q71 35 120 100l25 -37q-66 -116 -175 -174q-110 -59 -206 -59q-102 0 -162.5 70
t-60.5 190q0 150 87 304q86 152 221 254q133 99 265 99q81 0 121.5 -40t40.5 -109zM524 829q-80 0 -169 -123q-89 -125 -126 -272q367 78 367 295q0 100 -72 100z" />
    <glyph glyph-name="Eogonek" unicode="&#x118;" horiz-adv-x="1130" 
d="M332 1245l12 45h903l-82 -291h-47q31 117 11 171q-21 51 -119 51h-164q-104 0 -150 -34q-47 -35 -80 -138l-118 -363h139q157 0 215 40t102 144h41l-139 -426h-41q15 60 15 86.5t-17 51.5q-17 21 -59 27.5t-136 6.5h-143l-129 -399q-13 -43 -17 -62t-2.5 -36.5
t13.5 -27.5q17 -14 41 -17.5t88 -3.5h125q106 0 186 56q81 56 178 191h54l-183 -317h-100q-88 -49 -129 -96t-41 -107q0 -45 25.5 -70.5t68.5 -25.5q37 0 105 20l-15 -36q-83 -72 -188 -72q-78 0 -124 36t-46 107q0 83 61 150l154 94h-676l13 45q61 12 93 24q30 10 65 48
q34 37 55 102l278 858q17 55 18.5 82.5t-15.5 47.5q-18 16 -36 22.5t-63 15.5z" />
    <glyph glyph-name="eogonek" unicode="&#x119;" horiz-adv-x="761" 
d="M762 750q0 -254 -545 -373q-6 -38 -6 -70q0 -85 39.5 -137.5t107.5 -52.5q56 0 128 35q71 35 120 100l25 -37q-79 -140 -240 -205q-97 -51 -142.5 -100.5t-45.5 -112.5q0 -45 25.5 -70.5t68.5 -25.5q38 0 104 20l-14 -36q-83 -72 -188 -72q-78 0 -124 36t-46 107
q0 83 61 150l127 78q-90 10 -140 78.5t-50 179.5q0 150 87 304q86 152 221 254q133 99 265 99q81 0 121.5 -40t40.5 -109zM524 829q-80 0 -169 -123q-89 -125 -126 -272q367 78 367 295q0 100 -72 100z" />
    <glyph glyph-name="Ecaron" unicode="&#x11a;" horiz-adv-x="1130" 
d="M1233 1796l18 -24l-354 -312l-156 312l31 24l170 -186zM332 1245l12 45h903l-82 -291h-47q31 117 11 171q-21 51 -119 51h-164q-104 0 -150 -34q-47 -35 -80 -138l-118 -363h139q157 0 215 40t102 144h41l-139 -426h-41q15 60 15 86.5t-17 51.5q-17 21 -59 27.5t-136 6.5
h-143l-129 -399q-13 -43 -17 -62t-2.5 -36.5t13.5 -27.5q17 -14 41 -17.5t88 -3.5h125q106 0 186 56q81 56 178 191h54l-183 -317h-905l13 45q61 12 93 24q30 10 65 48q34 37 55 102l278 858q17 55 18.5 82.5t-15.5 47.5q-18 16 -36 22.5t-63 15.5z" />
    <glyph glyph-name="ecaron" unicode="&#x11b;" horiz-adv-x="761" 
d="M924 1386l18 -24l-354 -311l-156 311l31 24l170 -186zM600 899q81 0 121.5 -40.5t40.5 -108.5q0 -254 -545 -373q-6 -38 -6 -70q0 -85 39.5 -137.5t107.5 -52.5q56 0 128 35q71 35 120 100l25 -37q-66 -116 -175 -174q-110 -59 -206 -59q-102 0 -162.5 70t-60.5 190
q0 150 87 304q86 152 221 254q133 99 265 99zM229 434q367 78 367 295q0 100 -72 100q-81 0 -169 -124q-89 -125 -126 -271z" />
    <glyph glyph-name="Gbreve" unicode="&#x11e;" horiz-adv-x="1347" 
d="M1036 1511q-126 0 -169 79t-3 202h39q-14 -75 23.5 -110t128.5 -37q197 -2 274 147h39q-41 -135 -127 -208t-205 -73zM616 -27q-241 0 -363 119t-118 326q5 228 129 436t334 338q208 129 442 129q238 0 332 -115q-60 -204 -74 -268h-57q44 311 -240 311q-176 0 -330 -136
q-155 -137 -240 -332q-84 -194 -89 -388q-4 -161 74 -256q78 -94 225 -94q107 0 166 55q60 55 100 174l31 90q26 75 30 111.5t-12 61.5q-17 21 -47 29t-100 14l14 53h508l-18 -56q-133 -18 -180 -155l-39 -117q-38 -111 -54 -237q-55 -36 -178 -65q-116 -28 -246 -28z" />
    <glyph glyph-name="gbreve" unicode="&#x11f;" horiz-adv-x="913" 
d="M674 1102q-126 0 -169 79t-3 201h39q-14 -75 23 -110t128 -37q197 -2 275 147h39q-41 -135 -127 -207.5t-205 -72.5zM707 862q43 -12 268 -12l-29 -115l-170 49q17 -38 19 -94q0 -150 -131 -261q-131 -112 -291 -112q-40 0 -82 11q-31 -11 -52.5 -32t-21.5 -36
q0 -33 57 -55l175 -74q24 -11 53 -23.5t32 -13.5q32 -15 61 -30q39 -22 50 -37q35 -48 35 -95q0 -98 -86 -173q-86 -74 -205 -110q-118 -36 -244 -36q-158 0 -232 59q-74 60 -69 146q1 37 55 87q54 49 99 78q41 27 129 76q18 12 25 15q-62 30 -88.5 57.5t-26.5 63.5
q0 41 59 85q61 45 133 74q-82 55 -82 172q0 150 130 261q130 110 290 110q82 0 140 -35zM393 362q96 0 168 123t72 248q0 119 -86 119q-94 0 -167 -127t-73 -250q0 -113 86 -113zM512 -141q0 45 -35 71q-35 27 -121 62l-135 53q-90 -57 -155 -125q-67 -68 -68 -123
q-4 -58 41.5 -93.5t144.5 -35.5q128 0 229 54q99 56 99 137z" />
    <glyph glyph-name="Gdotaccent" unicode="&#x120;" horiz-adv-x="1347" 
d="M1143 1536q-37 -35 -86 -35t-86 35q-37 34 -37 84t37 84q37 35 86 35t86 -35q37 -34 37 -84t-37 -84zM616 -27q-241 0 -363 119t-118 326q5 228 129 436t334 338q208 129 442 129q238 0 332 -115q-60 -204 -74 -268h-57q44 311 -240 311q-176 0 -330 -136
q-155 -137 -240 -332q-84 -194 -89 -388q-4 -161 74 -256q78 -94 225 -94q107 0 166 55q60 55 100 174l31 90q26 75 30 111.5t-12 61.5q-17 21 -47 29t-100 14l14 53h508l-18 -56q-133 -18 -180 -155l-39 -117q-38 -111 -54 -237q-55 -36 -178 -65q-116 -28 -246 -28z" />
    <glyph glyph-name="gdotaccent" unicode="&#x121;" horiz-adv-x="913" 
d="M780 1127q-37 -35 -86 -35t-86 35q-37 34 -37 84t37 84q37 35 86 35t86 -35q37 -34 37 -84t-37 -84zM975 850l-29 -115l-170 49q17 -38 19 -94q0 -150 -131 -261q-131 -112 -291 -112q-40 0 -82 11q-31 -11 -52.5 -32t-21.5 -36q0 -33 57 -55l175 -74q24 -11 53 -23.5
t32 -13.5q32 -15 61 -30q39 -22 50 -37q35 -48 35 -95q0 -98 -86 -173q-86 -74 -205 -110q-118 -36 -244 -36q-158 0 -232 59q-74 60 -69 146q1 37 55 87q54 49 99 78q41 27 129 76q18 12 25 15q-62 30 -88.5 57.5t-26.5 63.5q0 41 59 85q61 45 133 74q-82 55 -82 172
q0 150 130 261q130 110 290 110q81 0 140 -35q43 -12 268 -12zM393 362q96 0 168 123t72 248q0 119 -86 119q-94 0 -167 -127t-73 -250q0 -113 86 -113zM512 -141q0 45 -35 71q-35 27 -121 62l-135 53q-90 -57 -155 -125q-67 -68 -68 -123q-4 -58 41.5 -93.5t144.5 -35.5
q128 0 229 54q99 56 99 137z" />
    <glyph glyph-name="uni0122" unicode="&#x122;" horiz-adv-x="1347" 
d="M616 -27q-241 0 -363 119t-118 326q5 228 129 436t334 338q208 129 442 129q238 0 332 -115q-60 -204 -74 -268h-57q44 311 -240 311q-176 0 -330 -136q-155 -137 -240 -332q-84 -194 -89 -388q-4 -161 74 -256q78 -94 225 -94q107 0 166 55q60 55 100 174l31 90
q26 75 30 111.5t-12 61.5q-17 21 -47 29t-100 14l14 53h508l-18 -56q-133 -18 -180 -155l-39 -117q-38 -111 -54 -237q-55 -36 -178 -65q-116 -28 -246 -28zM221 -653l-16 53q162 56 201 174q8 26 0 40t-37 34q-63 45 -64 106q0 53 40 90t96 37q57 0 93.5 -41.5t36.5 -111.5
q0 -114 -97 -229q-97 -114 -253 -152z" />
    <glyph glyph-name="uni0123" unicode="&#x123;" horiz-adv-x="913" 
d="M685 1129q-40 -37 -95 -37t-93 41t-38 112q0 114 97 229q97 114 253 152l16 -53q-163 -56 -200 -174q-8 -27 -0.5 -41.5t37.5 -32.5q63 -45 63 -106q0 -53 -40 -90zM975 850l-29 -115l-170 49q17 -38 19 -94q0 -150 -131 -261q-131 -112 -291 -112q-40 0 -82 11
q-31 -11 -52.5 -32t-21.5 -36q0 -33 57 -55l175 -74q24 -11 53 -23.5t32 -13.5q32 -15 61 -30q39 -22 50 -37q35 -48 35 -95q0 -98 -86 -173q-86 -74 -205 -110q-118 -36 -244 -36q-158 0 -232 59q-74 60 -69 146q1 37 55 87q54 49 99 78q41 27 129 76q18 12 25 15
q-62 30 -88.5 57.5t-26.5 63.5q0 41 59 85q61 45 133 74q-82 55 -82 172q0 150 130 261q130 110 290 110q81 0 140 -35q43 -12 268 -12zM393 362q96 0 168 123t72 248q0 119 -86 119q-94 0 -167 -127t-73 -250q0 -113 86 -113zM512 -141q0 45 -35 71q-35 27 -121 62l-135 53
q-90 -57 -155 -125q-67 -68 -68 -123q-4 -58 41.5 -93.5t144.5 -35.5q128 0 229 54q99 56 99 137z" />
    <glyph glyph-name="Hbar" unicode="&#x126;" horiz-adv-x="1392" 
d="M1092 1245l12 45h506l-15 -47q-47 -7 -72 -15q-29 -8 -55 -25q-29 -18 -48.5 -48.5t-37.5 -83.5l-280 -858q-19 -61 -16 -93t31 -48q17 -11 35 -17q14 -4 50 -12l-10 -43h-502l12 45q90 17 133 47q44 32 74 127l127 391h-569l-129 -397q-17 -62 -15 -93t30 -48
q17 -11 35 -17q14 -4 50 -12l-10 -43h-502l13 45q90 17 132 47q44 32 74 127l279 858q32 103 2 130q-17 16 -35 22.5t-63 15.5l12 45h506l-15 -47q-47 -7 -72 -15q-29 -8 -55 -25q-29 -18 -48.5 -48.5t-37.5 -83.5l-55 -170h567l58 176q32 103 2 130q-18 16 -36 22.5
t-62 15.5zM541 831l-49 -151h567l49 151h-567z" />
    <glyph glyph-name="hbar" unicode="&#x127;" horiz-adv-x="999" 
d="M856 899q159 0 148 -176q-6 -125 -90 -302q-87 -181 -200 -308q-116 -131 -202 -131q-39 0 -79 27q-40 25 -40 75q0 36 22 58t52 22q17 1 30.5 -7.5t21 -22t13.5 -30t9 -30t7 -22t9 -7.5q68 0 156 241q88 240 96 371q6 127 -64 127q-119 0 -284 -240q-166 -241 -268 -544
h-166l344 1006q-45 0 -183 -5l21 74q109 -4 182 -4l19 51q27 80 -3 108q-30 27 -135 27l17 54l336 47l20 -31l-86 -258q152 0 305 6l-20 -74q-138 5 -305 7l-117 -351l-94 -217l14 2q134 246 266 351q133 106 248 106z" />
    <glyph glyph-name="Imacron" unicode="&#x12a;" horiz-adv-x="628" 
d="M969 1616h-574l31 78h573zM428 0h-502l13 45q90 17 132 47q44 32 74 127l279 858q32 103 2 130q-17 16 -35 22.5t-63 15.5l12 45h506l-15 -47q-47 -7 -72 -15q-29 -8 -55 -25q-29 -18 -48.5 -48.5t-37.5 -83.5l-280 -858q-17 -62 -15 -93t30 -48q17 -11 35 -17
q14 -4 50 -12z" />
    <glyph glyph-name="imacron" unicode="&#x12b;" horiz-adv-x="548" 
d="M778 1206h-573l31 78h573zM438 322l33 -35q-196 -307 -336 -307q-49 0 -70.5 37.5t-1.5 93.5l213 538q39 99 3 88q-48 -12 -179 -188l-30 35q196 307 333 307q51 0 73 -38t1 -93l-215 -539q-39 -98 -2 -88q50 13 178 189z" />
    <glyph glyph-name="Iogonek" unicode="&#x12e;" horiz-adv-x="628" 
d="M328 1245l12 45h506l-15 -47q-47 -7 -72 -15q-29 -8 -55 -25q-29 -18 -48.5 -48.5t-37.5 -83.5l-280 -858q-17 -62 -15 -93t30 -48q17 -11 35 -17q14 -4 50 -12l-10 -43h-174q-88 -49 -129 -96t-41 -107q0 -45 25.5 -70.5t68.5 -25.5q37 0 105 20l-15 -36
q-82 -72 -188 -72q-78 0 -124 36t-46 107q0 83 61 150l154 94h-199l13 45q90 17 132 47q44 32 74 127l279 858q32 103 2 130q-17 16 -35 22.5t-63 15.5z" />
    <glyph glyph-name="iogonek" unicode="&#x12f;" horiz-adv-x="548" 
d="M420 1295q37 35 86 35t86 -35q37 -34 37 -84t-37 -84q-37 -35 -86 -35t-86 35q-37 34 -37 84t37 84zM403 891q51 0 73 -38t1 -93l-215 -539q-39 -98 -2 -88q50 12 178 189l33 -35q-158 -249 -281 -295q-154 -92 -153 -195q0 -45 25.5 -70.5t68.5 -25.5q37 0 105 20
l-15 -36q-83 -72 -188 -72q-78 0 -124 36t-46 107q0 83 61 150l154 94q-44 39 -15 111l213 538q39 99 3 88q-48 -12 -179 -188l-30 35q196 307 333 307z" />
    <glyph glyph-name="Idot" unicode="&#x130;" horiz-adv-x="628" 
d="M782 1536q-37 -35 -86 -35t-86 35q-37 34 -37 84t37 84q37 35 86 35t86 -35q37 -34 37 -84t-37 -84zM428 0h-502l13 45q90 17 132 47q44 32 74 127l279 858q32 103 2 130q-17 16 -35 22.5t-63 15.5l12 45h506l-15 -47q-47 -7 -72 -15q-29 -8 -55 -25q-29 -18 -48.5 -48.5
t-37.5 -83.5l-280 -858q-17 -62 -15 -93t30 -48q17 -11 35 -17q14 -4 50 -12z" />
    <glyph glyph-name="dotlessi" unicode="&#x131;" horiz-adv-x="548" 
d="M438 322l33 -35q-196 -307 -336 -307q-49 0 -70.5 37.5t-1.5 93.5l213 538q39 99 3 88q-48 -12 -179 -188l-30 35q196 307 333 307q51 0 73 -38t1 -93l-215 -539q-39 -98 -2 -88q50 13 178 189z" />
    <glyph glyph-name="IJ" unicode="&#x132;" horiz-adv-x="1251" 
d="M428 0h-502l13 45q90 17 132 47q44 32 74 127l279 858q32 103 2 130q-17 16 -35 22.5t-63 15.5l12 45h506l-15 -47q-47 -7 -72 -15q-29 -8 -55 -25q-29 -18 -48.5 -48.5t-37.5 -83.5l-280 -858q-17 -62 -15 -93t30 -48q17 -11 35 -17q14 -4 50 -12zM381 -371l18 62
q138 40 198 109q57 68 112 233l338 1044q11 37 15.5 59t1.5 40t-16 30q-20 17 -40 23q-16 4 -70 16l12 45h529l-15 -47q-64 -13 -77 -17q-28 -8 -59 -24q-55 -30 -87 -131l-350 -1083q-102 -319 -510 -359z" />
    <glyph glyph-name="ij" unicode="&#x133;" horiz-adv-x="1083" 
d="M576 1178q-24 -26 -60 -31.5t-67 7t-52.5 40.5t-19.5 63q0 44 35 79q34 34 82 34t82 -33q34 -34 34 -80q0 -48 -34 -79zM1176 1178q-34 -33 -81.5 -33t-82.5 33q-35 32 -35 79q0 44 35 79q34 34 82 34t82 -33q34 -34 34 -80q0 -48 -34 -79zM440 322l33 -35
q-196 -307 -334 -307q-54 0 -77.5 37.5t-2.5 93.5l220 538q36 88 7 89q-2 0 -5 -1q-50 -11 -181 -188l-30 35q196 307 336 307q55 0 78.5 -38.5t0.5 -92.5l-221 -539q-41 -98 -2 -88q50 13 178 189zM1001 891q51 0 72 -38t2 -93l-194 -604q-83 -255 -185 -385
q-102 -129 -254 -129q-91 0 -141.5 42.5t-50.5 110.5q0 50 28.5 79.5t71.5 29.5q47 0 67.5 -38t8.5 -104q-12 -65 47 -65q62 0 96 61q35 63 95 242l210 649q29 92 3 91l-13 -5q-48 -26 -166 -186l-30 35q196 307 333 307z" />
    <glyph glyph-name="uni0136" unicode="&#x136;" horiz-adv-x="1335" 
d="M1481 1290l-17 -45q-55 0 -107.5 -16t-84.5 -38t-76 -56l-440 -355l280 -635q25 -52 62.5 -76t109.5 -26l-12 -43h-365q25 79 -14 172l-211 487l-166 -133l-102 -313q-17 -62 -15 -93t30 -48q17 -11 35 -17q14 -4 50 -12l-10 -43h-502l13 45q90 17 132 47q44 32 74 127
l279 858q32 103 2 130q-17 16 -35 22.5t-63 15.5l12 45h506l-15 -47q-47 -7 -72 -15q-29 -8 -55 -25q-29 -18 -48.5 -48.5t-37.5 -83.5l-139 -426l627 502q54 45 41.5 71.5t-88.5 28.5l12 43h410zM366 -156q40 37 95 37t93 -41t38 -112q0 -114 -97 -229q-96 -114 -253 -152
l-17 53q162 56 201 174q7 28 0 41.5t-37 32.5q-63 45 -63 106q0 53 40 90z" />
    <glyph glyph-name="uni0137" unicode="&#x137;" horiz-adv-x="995" 
d="M190 0h-165l383 1122q27 80 -3 108q-30 27 -135 27l17 54l336 47l20 -31zM1077 881l-18 -45q-134 -12 -328 -156l-168 -125l121 -393q14 -48 42.5 -65.5t63.5 -7t74 45.5l10 -43q-113 -113 -198 -112q-113 0 -158 151l-110 385l249 178q176 127 9 142l16 45h395zM72 -653
l-17 53q162 56 201 174q7 28 0 41.5t-37 32.5q-63 45 -63 106q0 53 40 90t95 37q56 0 93.5 -41.5t37.5 -111.5q0 -114 -97 -229q-97 -114 -253 -152z" />
    <glyph glyph-name="Lacute" unicode="&#x139;" horiz-adv-x="1083" 
d="M596 1434l-47 32q57 184 141 303q42 0 89 -34q48 -34 63 -74q-102 -68 -246 -227zM836 0h-912l13 45q61 12 93 24q30 10 65 48q34 37 55 102l276 858q32 103 2 130q-17 16 -35 22.5t-63 15.5l12 45h528l-14 -47q-72 -13 -101 -22q-33 -10 -73 -47q-40 -38 -59 -103
l-277 -854q-29 -98 -5 -122q24 -25 128 -25h131q107 0 187 58q81 58 180 204l49 -13z" />
    <glyph glyph-name="lacute" unicode="&#x13a;" horiz-adv-x="532" 
d="M504 1434l-47 32q57 184 141 303q42 0 89 -34q48 -34 63 -74q-102 -68 -246 -227zM643 1327l-383 -1106q-33 -97 0 -86q47 14 176 191l31 -35q-195 -311 -340 -311q-49 0 -71.5 32t-4.5 84l357 1026q27 80 -4 108q-32 27 -136 27l19 54l336 47z" />
    <glyph glyph-name="uni013B" unicode="&#x13b;" horiz-adv-x="1083" 
d="M836 0h-912l13 45q61 12 93 24q30 10 65 48q34 37 55 102l276 858q32 103 2 130q-17 16 -35 22.5t-63 15.5l12 45h528l-14 -47q-72 -13 -101 -22q-33 -10 -73 -47q-40 -38 -59 -103l-277 -854q-29 -98 -5 -122q24 -25 128 -25h131q107 0 187 58q81 58 180 204l49 -13z
M125 -653l-16 53q163 56 200 174q7 28 0 41.5t-37 32.5q-63 45 -63 106q0 53 40 90t95 37q56 0 93.5 -41.5t37.5 -111.5q0 -114 -97 -229q-97 -114 -253 -152z" />
    <glyph glyph-name="uni013C" unicode="&#x13c;" horiz-adv-x="532" 
d="M643 1327l-383 -1106q-33 -97 0 -86q47 14 176 191l31 -35q-195 -311 -340 -311q-49 0 -71.5 32t-4.5 84l357 1026q27 80 -4 108q-32 27 -136 27l19 54l336 47zM-160 -653l-16 53q162 56 201 174q8 26 0 40t-37 34q-63 45 -64 106q0 53 40 90t96 37q57 0 93.5 -41.5
t36.5 -111.5q0 -114 -97 -229q-97 -114 -253 -152z" />
    <glyph glyph-name="Lcaron" unicode="&#x13d;" horiz-adv-x="1083" 
d="M856 774l-16 53q163 56 200 174q8 26 0.5 40.5t-36.5 33.5q-62 45 -64 107q0 53 40 90t95 37q56 0 93.5 -42t37.5 -112q0 -113 -97 -228q-98 -116 -253 -153zM836 0h-912l13 45q61 12 93 24q30 10 65 48q34 37 55 102l276 858q32 103 2 130q-17 16 -35 22.5t-63 15.5
l12 45h528l-14 -47q-72 -13 -101 -22q-33 -10 -73 -47q-40 -38 -59 -103l-277 -854q-29 -98 -5 -122q24 -25 128 -25h131q107 0 187 58q81 58 180 204l49 -13z" />
    <glyph glyph-name="lcaron" unicode="&#x13e;" horiz-adv-x="579" 
d="M696 999l-45 25q49 221 49 334q30 16 85 5q52 -10 69 -44q-44 -144 -158 -320zM643 1327l-383 -1106q-33 -97 0 -86q47 14 176 191l31 -35q-195 -311 -340 -311q-49 0 -71.5 32t-4.5 84l357 1026q27 80 -4 108q-32 27 -136 27l19 54l336 47z" />
    <glyph glyph-name="Ldot" unicode="&#x13f;" horiz-adv-x="1083" 
d="M836 0h-912l13 45q61 12 93 24q30 10 65 48q34 37 55 102l276 858q32 103 2 130q-17 16 -35 22.5t-63 15.5l12 45h528l-14 -47q-72 -13 -101 -22q-33 -10 -73 -47q-40 -38 -59 -103l-277 -854q-29 -98 -5 -122q24 -25 128 -25h131q107 0 187 58q81 58 180 204l49 -13z
M865 547q-37 -37 -91 -37t-91 37q-38 38 -38 90q0 50 38 88q37 37 91 37t91 -37q38 -38 38 -88q0 -52 -38 -90z" />
    <glyph glyph-name="ldot" unicode="&#x140;" horiz-adv-x="700" 
d="M643 1327l-383 -1106q-33 -97 0 -86q47 14 176 191l31 -35q-195 -311 -340 -311q-49 0 -71.5 32t-4.5 84l357 1026q27 80 -4 108q-32 27 -136 27l19 54l336 47zM771 602q-37 -37 -91 -37t-91 37q-38 38 -38 90q0 50 38 88q37 37 91 37t91 -37q38 -38 38 -88
q0 -52 -38 -90z" />
    <glyph glyph-name="Lslash" unicode="&#x141;" horiz-adv-x="1173" 
d="M1057 332l49 -13l-180 -319h-912l13 45q61 12 93 24q32 11 66 48q33 37 54 102l139 434q-154 -55 -248 -92v84q81 22 272 82l113 350q17 55 18.5 82.5t-15.5 47.5q-18 16 -36 22.5t-63 15.5l12 45h529l-15 -47q-72 -13 -101 -22q-33 -10 -73 -47q-40 -38 -59 -103
l-86 -268q138 49 225 86v-84q-99 -29 -250 -76l-166 -512q-29 -98 -5 -122q24 -25 128 -25h131q105 0 188 59q83 60 179 203z" />
    <glyph glyph-name="lslash" unicode="&#x142;" horiz-adv-x="532" 
d="M623 1358l20 -31l-192 -557q21 8 118 49v-80q-30 -9 -79 -24.5t-66 -20.5l-164 -473q-33 -97 0 -86q47 14 176 191l31 -35q-195 -311 -340 -311q-49 0 -71.5 32t-4.5 84l185 533q-59 -22 -160 -66v80q123 37 186 57l146 422q27 80 -4 108q-32 27 -136 27l19 54z" />
    <glyph glyph-name="Nacute" unicode="&#x143;" horiz-adv-x="1296" 
d="M1194 1661q-104 -72 -246 -227l-47 32q57 184 141 303q41 0 90 -34q48 -35 62 -74zM1120 1247l13 43h401l-14 -45q-93 -17 -139 -48q-48 -31 -78 -126l-349 -1071h-75l-365 1094l-289 -881q-31 -94 -4 -123q28 -29 115 -47l-10 -43h-402l13 45q93 17 139 48t78 126
l278 858q19 62 16 94t-30 47q-34 18 -86 27l12 45h311l326 -971l250 758q31 94 4 123q-28 29 -115 47z" />
    <glyph glyph-name="nacute" unicode="&#x144;" 
d="M674 1024l-47 33q57 185 141 303q40 0 89 -35q48 -34 63 -74q-102 -68 -246 -227zM936 326l31 -35q-200 -311 -342 -311q-50 0 -71.5 32t-0.5 84l174 449q45 110 50 163q3 29 -7 40.5t-35 11.5q-80 0 -245 -237q-165 -236 -281 -523h-162l234 653q32 88 5 89q-2 0 -5 -1
q-48 -11 -179 -188l-30 35q196 307 342 307q47 0 62.5 -32t-5.5 -85l-158 -397h27q292 514 506 514q187 0 39 -367l-125 -307q-39 -92 -4 -86q50 14 180 191z" />
    <glyph glyph-name="uni0145" unicode="&#x145;" horiz-adv-x="1296" 
d="M1120 1247l13 43h401l-14 -45q-93 -17 -139 -48q-48 -31 -78 -126l-349 -1071h-75l-365 1094l-289 -881q-31 -94 -4 -123q28 -29 115 -47l-10 -43h-402l13 45q93 17 139 48t78 126l278 858q19 62 16 94t-30 47q-34 18 -86 27l12 45h311l326 -971l250 758q31 94 4 123
q-28 29 -115 47zM355 -156q40 37 96 37q55 0 93 -41t38 -112q0 -114 -97 -229q-96 -114 -254 -152l-16 53q162 56 201 174q7 28 0 41.5t-37 32.5q-63 45 -64 106q0 53 40 90z" />
    <glyph glyph-name="uni0146" unicode="&#x146;" 
d="M936 326l31 -35q-200 -311 -342 -311q-50 0 -71.5 32t-0.5 84l174 449q45 110 50 163q3 29 -7 40.5t-35 11.5q-80 0 -245 -237q-165 -236 -281 -523h-162l234 653q32 88 5 89q-2 0 -5 -1q-48 -11 -179 -188l-30 35q196 307 342 307q47 0 62.5 -32t-5.5 -85l-158 -397h27
q292 514 506 514q187 0 39 -367l-125 -307q-39 -92 -4 -86q50 14 180 191zM90 -653l-16 53q163 56 200 174q8 26 0.5 40t-36.5 34q-63 45 -64 106q0 53 40 90t96 37q57 0 93.5 -41.5t36.5 -111.5q0 -114 -97 -229q-97 -114 -253 -152z" />
    <glyph glyph-name="Ncaron" unicode="&#x147;" horiz-adv-x="1296" 
d="M1331 1796l19 -24l-355 -312l-155 312l30 24l170 -186zM1120 1247l13 43h401l-14 -45q-93 -17 -139 -48q-48 -31 -78 -126l-349 -1071h-75l-365 1094l-289 -881q-31 -94 -4 -123q28 -29 115 -47l-10 -43h-402l13 45q93 17 139 48t78 126l278 858q19 62 16 94t-30 47
q-34 18 -86 27l12 45h311l326 -971l250 758q31 94 4 123q-28 29 -115 47z" />
    <glyph glyph-name="ncaron" unicode="&#x148;" 
d="M1075 1362l-354 -311l-156 311l31 24l170 -186l291 186zM936 326l31 -35q-200 -311 -342 -311q-50 0 -71.5 32t-0.5 84l174 449q45 110 50 163q3 29 -7 40.5t-35 11.5q-80 0 -245 -237q-165 -236 -281 -523h-162l234 653q32 88 5 89q-2 0 -5 -1q-48 -11 -179 -188l-30 35
q196 307 342 307q47 0 62.5 -32t-5.5 -85l-158 -397h27q292 514 506 514q187 0 39 -367l-125 -307q-39 -92 -4 -86q50 14 180 191z" />
    <glyph glyph-name="Eng" unicode="&#x14a;" horiz-adv-x="1296" 
d="M1120 1247l13 43h401l-14 -45q-93 -17 -139 -48q-48 -31 -78 -126l-271 -831h2l-82 -252q-63 -188 -209 -267q-128 -68 -294 -92q-10 31 12 62q138 40 198 109q58 69 111 233l49 147l-305 914l-289 -881q-31 -94 -4 -123q28 -29 115 -47l-10 -43h-402l13 45q93 17 139 48
t78 126l278 858q19 62 16 94t-30 47q-34 18 -86 27l12 45h311l326 -971l250 758q31 94 4 123q-28 29 -115 47z" />
    <glyph glyph-name="eng" unicode="&#x14b;" horiz-adv-x="974" 
d="M846 895q54 0 81 -26.5t26 -78.5q-1 -98 -60 -262l-131 -372q-95 -266 -188 -391q-93 -123 -236 -123q-100 0 -152.5 42.5t-52.5 110.5q0 49 29.5 79t70.5 30q47 0 68 -38t9 -104q-14 -65 47 -65q59 0 92 58q32 60 98 245l188 545q40 106 45 164q2 28 -9 39.5t-36 11.5
q-80 0 -245 -237q-165 -236 -281 -523h-162l234 653q32 88 5 89q-2 0 -5 -1q-48 -11 -179 -188l-30 35q196 307 342 307q47 0 62.5 -32t-5.5 -85l-158 -397h27q292 514 506 514z" />
    <glyph glyph-name="Omacron" unicode="&#x14c;" horiz-adv-x="1378" 
d="M1343 1616h-573l31 78h573zM543 -27q-193 0 -299 118q-107 119 -107 315q0 227 116 439t312 344q195 132 412 132q193 0 299 -117q106 -116 106 -313q0 -171 -69 -337q-71 -168 -183 -295q-114 -127 -269 -207q-155 -79 -318 -79zM588 43q154 0 292 144q139 143 215 345
q76 200 76 388q0 157 -61.5 244t-177.5 87q-154 0 -292 -143q-139 -143 -215 -345q-77 -204 -77 -386q0 -159 62 -246.5t178 -87.5z" />
    <glyph glyph-name="omacron" unicode="&#x14d;" horiz-adv-x="897" 
d="M993 1206h-573l31 78h573zM266 -20q-113 0 -175 63t-62 193q0 248 190 456q189 207 412 207q112 0 173.5 -62.5t61.5 -191.5q0 -161 -87 -315q-86 -155 -227 -253q-140 -97 -286 -97zM332 41q90 0 175 112q85 110 133 255q48 142 48 254q0 82 -32.5 129t-92.5 47
q-91 0 -177 -110q-83 -107 -131 -250q-46 -138 -46 -251q0 -83 32.5 -134.5t90.5 -51.5z" />
    <glyph glyph-name="Ohungarumlaut" unicode="&#x150;" horiz-adv-x="1378" 
d="M848 1434l-47 32q57 184 141 303q42 0 89 -34q48 -34 63 -74q-102 -68 -246 -227zM1169 1434l-47 32q57 186 142 303q42 0 89 -34q48 -35 62 -74q-102 -68 -246 -227zM543 -27q-193 0 -299 118q-107 119 -107 315q0 227 116 439t312 344q195 132 412 132q193 0 299 -117
q106 -116 106 -313q0 -171 -69 -337q-71 -168 -183 -295q-114 -127 -269 -207q-155 -79 -318 -79zM588 43q154 0 292 144q139 143 215 345q76 200 76 388q0 157 -61.5 244t-177.5 87q-154 0 -292 -143q-139 -143 -215 -345q-77 -204 -77 -386q0 -159 62 -246.5t178 -87.5z
" />
    <glyph glyph-name="ohungarumlaut" unicode="&#x151;" horiz-adv-x="897" 
d="M498 1024l-47 33q57 185 141 303q40 0 89 -35q48 -35 62 -74q-102 -69 -245 -227zM819 1024l-47 33q57 185 141 303q40 0 90 -35q48 -35 62 -74q-102 -68 -246 -227zM266 -20q-113 0 -175 63t-62 193q0 248 190 456q189 207 412 207q112 0 173.5 -62.5t61.5 -191.5
q0 -161 -87 -315q-86 -155 -227 -253q-140 -97 -286 -97zM332 41q90 0 175 112q85 110 133 255q48 142 48 254q0 82 -32.5 129t-92.5 47q-91 0 -177 -110q-83 -107 -131 -250q-46 -138 -46 -251q0 -83 32.5 -134.5t90.5 -51.5z" />
    <glyph glyph-name="OE" unicode="&#x152;" horiz-adv-x="1937" 
d="M1151 1290h903l-82 -291h-47q31 117 11 171q-21 51 -119 51h-164q-104 0 -150 -34q-47 -35 -80 -138l-118 -363h139q157 0 215 40q59 40 102 144h41l-139 -426h-41q15 60 15 86.5t-17 51.5q-17 21 -59 27.5t-136 6.5h-143l-129 -399q-13 -45 -17 -63t-2.5 -35.5
t13.5 -27.5q17 -14 41 -17.5t88 -3.5h125q106 0 186 56q81 56 178 191h54l-183 -317h-888q-94 -25 -201 -25q-195 0 -303 118q-109 118 -109 313q0 163 71 331q71 169 185 294q117 129 272 209q156 81 318 81q98 0 170 -31zM989 317l203 625l-8 -6q18 135 -48 223
q-67 88 -200 88q-158 0 -298 -146q-141 -148 -217 -347q-77 -202 -77 -379q0 -154 65.5 -240t182.5 -86q101 0 205.5 71t191.5 197z" />
    <glyph glyph-name="oe" unicode="&#x153;" horiz-adv-x="1368" 
d="M1368 752q0 -254 -545 -373q-6 -38 -6 -70q0 -85 39.5 -137.5t108.5 -52.5q56 0 128 35q70 34 119 100l25 -37q-66 -116 -175 -174q-110 -59 -206 -59q-81 0 -136.5 44.5t-76.5 125.5q-180 -174 -377 -174q-113 0 -175 63t-62 193q0 248 190 456q189 207 412 207
q189 0 227 -170q175 172 348 172q81 0 121.5 -40t40.5 -109zM332 41q90 0 175 112q85 110 133 255q48 142 48 254q0 82 -32.5 129t-92.5 47q-91 0 -177 -110q-83 -107 -131 -250q-46 -138 -46 -251q0 -83 32.5 -134.5t90.5 -51.5zM1130 831q-80 0 -169 -123
q-90 -126 -125 -272q184 39 275.5 112.5t90.5 182.5q0 100 -72 100z" />
    <glyph glyph-name="Racute" unicode="&#x154;" horiz-adv-x="1239" 
d="M1090 1661q-104 -72 -246 -227l-47 32q57 184 141 303q41 0 90 -34q48 -35 62 -74zM1229 1018q0 -182 -138 -295q-141 -114 -366 -145q113 -32 141 -160l47 -193q55 -217 199 -174l-14 -57q-52 -27 -135 -27q-106 0 -158 53q-54 54 -82 164l-57 234q-19 83 -66 115
q-46 29 -139 34l-115 -354q-16 -53 -16.5 -81.5t18.5 -48.5q21 -18 41 -23q15 -5 70 -17l-10 -43h-525l13 45q61 12 93 24q30 10 65 48q34 37 55 102l276 858q32 103 2 130q-17 16 -35 22.5t-63 15.5l12 45h477q410 0 410 -272zM483 639h113q186 0 310 121t124 282
q0 177 -215 179q-143 0 -180 -111z" />
    <glyph glyph-name="racute" unicode="&#x155;" horiz-adv-x="827" 
d="M563 1024l-47 33q57 185 141 303q40 0 90 -35q48 -35 62 -74q-102 -68 -246 -227zM803 899q86 0 86 -92q0 -69 -48 -127q-48 -59 -112 -59q-39 0 -49.5 21.5t6.5 48.5q37 69 -2 69q-72 0 -210 -229q-137 -227 -261 -535q-83 -6 -162 0l234 661q28 88 4 88
q-42 0 -185 -188l-30 35q196 307 340 307q47 0 62.5 -31.5t-5.5 -85.5l-156 -405h27q135 276 252 399t209 123z" />
    <glyph glyph-name="uni0156" unicode="&#x156;" horiz-adv-x="1239" 
d="M1229 1018q0 -182 -138 -295q-141 -114 -366 -145q113 -32 141 -160l47 -193q55 -217 199 -174l-14 -57q-52 -27 -135 -27q-106 0 -158 53q-54 54 -82 164l-57 234q-19 83 -66 115q-46 29 -139 34l-115 -354q-16 -53 -16.5 -81.5t18.5 -48.5q21 -18 41 -23q15 -5 70 -17
l-10 -43h-525l13 45q61 12 93 24q30 10 65 48q34 37 55 102l276 858q32 103 2 130q-17 16 -35 22.5t-63 15.5l12 45h477q410 0 410 -272zM483 639h113q186 0 310 121t124 282q0 177 -215 179q-143 0 -180 -111zM312 -156q40 37 96 37q55 0 93 -41t38 -112q0 -114 -97 -229
q-96 -114 -254 -152l-16 53q162 56 201 174q7 28 0 41.5t-37 32.5q-63 45 -64 106q0 53 40 90z" />
    <glyph glyph-name="uni0157" unicode="&#x157;" horiz-adv-x="827" 
d="M803 899q86 0 86 -92q0 -69 -48 -127q-48 -59 -112 -59q-39 0 -49.5 21.5t6.5 48.5q37 69 -2 69q-72 0 -210 -229q-137 -227 -261 -535q-83 -6 -162 0l234 661q28 88 4 88q-42 0 -185 -188l-30 35q196 307 340 307q47 0 62.5 -31.5t-5.5 -85.5l-156 -405h27
q135 276 252 399t209 123zM-154 -653l-16 53q162 56 201 174q7 28 0 41.5t-37 32.5q-63 45 -64 106q0 53 40 90t96 37q57 0 94 -41.5t37 -111.5q0 -114 -97 -229q-96 -114 -254 -152z" />
    <glyph glyph-name="Rcaron" unicode="&#x158;" horiz-adv-x="1239" 
d="M1227 1796l18 -24l-354 -312l-156 312l31 24l170 -186zM342 1290h477q410 0 410 -272q0 -182 -138 -295q-141 -114 -366 -145q113 -32 141 -160l47 -193q55 -217 199 -174l-14 -57q-52 -27 -135 -27q-106 0 -158 53q-54 54 -82 164l-57 234q-19 83 -66 115
q-46 29 -139 34l-115 -354q-16 -53 -16.5 -81.5t18.5 -48.5q21 -18 41 -23q15 -5 70 -17l-10 -43h-525l13 45q61 12 93 24q30 10 65 48q34 37 55 102l276 858q32 103 2 130q-17 16 -35 22.5t-63 15.5zM483 639h113q186 0 310 121t124 282q0 177 -215 179q-143 0 -180 -111z
" />
    <glyph glyph-name="rcaron" unicode="&#x159;" horiz-adv-x="827" 
d="M965 1362l-355 -311l-155 311l30 24l170 -186l291 186zM803 899q86 0 86 -92q0 -69 -48 -127q-48 -59 -112 -59q-39 0 -49.5 21.5t6.5 48.5q37 69 -2 69q-72 0 -210 -229q-137 -227 -261 -535q-83 -6 -162 0l234 661q28 88 4 88q-42 0 -185 -188l-30 35q196 307 340 307
q47 0 62.5 -31.5t-5.5 -85.5l-156 -405h27q135 276 252 399t209 123z" />
    <glyph glyph-name="Sacute" unicode="&#x15a;" horiz-adv-x="987" 
d="M778 1434l-47 32q57 184 141 303q41 0 90 -34q48 -35 62 -74q-102 -68 -246 -227zM356 -23q-211 0 -340 136l66 256h43q-16 -150 46 -236t187 -86q135 0 231 87q95 87 95 208q0 83 -46 144q-48 64 -134 132q-73 60 -77 64q-26 21 -62 63q-72 79 -72 197q0 164 135 272
q136 107 332 107q207 0 311 -123l-76 -258h-41q18 146 -32 228.5t-166 82.5q-114 0 -194 -71q-79 -72 -79 -172q0 -119 164 -250q37 -31 62 -49q17 -13 59 -56q45 -45 63 -74q22 -36 39 -87.5t17 -98.5q0 -174 -157 -295t-374 -121z" />
    <glyph glyph-name="sacute" unicode="&#x15b;" horiz-adv-x="647" 
d="M719 1251q-104 -72 -246 -227l-47 33q57 185 141 303q40 0 90 -35q48 -35 62 -74zM479 899q71 0 124 -30q52 -31 52 -99q0 -142 -217 -305q74 -103 74 -193q0 -126 -107 -209q-109 -83 -241 -83q-100 0 -150 47q-51 47 -51 108q0 69 55 115l45 -8q5 -68 59 -128
q54 -63 122 -63q50 0 84 35.5t34 93.5q0 52 -32 113q-32 56 -71 105q-41 51 -70 109q-33 61 -33 122q0 118 100 194t223 76zM422 487q111 128 110 236q0 51 -25 82t-67 31q-48 0 -92 -34q-45 -34 -45 -93q0 -43 28 -90q17 -31 25 -41q7 -12 35 -48q25 -32 31 -43z" />
    <glyph glyph-name="Scedilla" unicode="&#x15e;" horiz-adv-x="987" 
d="M760 1321q207 0 311 -123l-76 -258h-41q18 146 -32 228.5t-166 82.5q-114 0 -194 -71q-79 -72 -79 -172q0 -119 164 -250q37 -31 62 -49q17 -13 59 -56q45 -45 63 -74q22 -36 39 -87.5t17 -98.5q0 -166 -142 -283q-142 -118 -346 -130l-41 -80q91 0 152 -43t61 -117
q0 -81 -81 -127.5t-242 -46.5l10 47q90 0 137 25.5t47 68.5q0 92 -223 92l92 181q-183 12 -295 133l66 256h43q-16 -150 46 -236t187 -86q135 0 231 87q95 87 95 208q0 83 -46 144q-48 64 -134 132q-73 60 -77 64q-26 21 -62 63q-72 79 -72 197q0 164 135 272
q136 107 332 107z" />
    <glyph glyph-name="scedilla" unicode="&#x15f;" horiz-adv-x="647" 
d="M655 770q0 -142 -217 -305q74 -103 74 -193q0 -111 -83 -188q-83 -79 -200 -98l-43 -86q91 0 152 -43t61 -117q0 -81 -81 -127.5t-242 -46.5l10 47q90 0 137 25.5t47 68.5q0 92 -223 92l92 181q-89 6 -132 52q-44 47 -44 103q0 69 55 115l45 -8q5 -68 59 -128
q54 -63 122 -63q50 0 84 35.5t34 93.5q0 52 -32 113q-32 56 -71 105q-41 51 -70 109q-33 61 -33 122q0 118 100 194t223 76q71 0 124 -30q52 -31 52 -99zM422 487q111 128 110 236q0 51 -25 82t-67 31q-48 0 -92 -34q-45 -34 -45 -93q0 -43 28 -90q17 -31 25 -41
q7 -12 35 -48q25 -32 31 -43z" />
    <glyph glyph-name="Scaron" unicode="&#x160;" horiz-adv-x="987" 
d="M1180 1772l-355 -312l-155 312l30 24l170 -186l291 186zM356 -23q-211 0 -340 136l66 256h43q-16 -150 46 -236t187 -86q135 0 231 87q95 87 95 208q0 83 -46 144q-48 64 -134 132q-73 60 -77 64q-26 21 -62 63q-72 79 -72 197q0 164 135 272q136 107 332 107
q207 0 311 -123l-76 -258h-41q18 146 -32 228.5t-166 82.5q-114 0 -194 -71q-79 -72 -79 -172q0 -119 164 -250q37 -31 62 -49q17 -13 59 -56q45 -45 63 -74q22 -36 39 -87.5t17 -98.5q0 -174 -157 -295t-374 -121z" />
    <glyph glyph-name="scaron" unicode="&#x161;" horiz-adv-x="647" 
d="M856 1386l18 -24l-354 -311l-155 311l30 24l170 -186zM479 899q71 0 124 -30q52 -31 52 -99q0 -142 -217 -305q74 -103 74 -193q0 -126 -107 -209q-109 -83 -241 -83q-100 0 -150 47q-51 47 -51 108q0 69 55 115l45 -8q5 -68 59 -128q54 -63 122 -63q50 0 84 35.5
t34 93.5q0 52 -32 113q-32 56 -71 105q-41 51 -70 109q-33 61 -33 122q0 118 100 194t223 76zM422 487q111 128 110 236q0 51 -25 82t-67 31q-48 0 -92 -34q-45 -34 -45 -93q0 -43 28 -90q17 -31 25 -41q7 -12 35 -48q25 -32 31 -43z" />
    <glyph glyph-name="uni0162" unicode="&#x162;" horiz-adv-x="1175" 
d="M461 1290h805l100 21l-102 -361h-39q29 154 -3 216q-31 61 -173 61h-103l-328 -1014q-31 -96 -2 -125q28 -28 140 -45l-11 -43h-243l-51 -100q91 0 152 -43t61 -117q0 -81 -81.5 -127.5t-242.5 -46.5l10 47q90 0 137.5 25.5t47.5 68.5q0 92 -224 92l103 201h-238l12 45
q107 17 155 47q48 31 79 127l328 1008h-103q-144 0 -220 -70q-77 -71 -146 -219h-43l135 373z" />
    <glyph glyph-name="uni0163" unicode="&#x163;" horiz-adv-x="620" 
d="M666 799l-177 10l-245 -659q-4 -13 -1 -17.5t13 -1.5q59 13 209 166q17 17 49 51l27 -37q-201 -248 -332 -311h10l-51 -100q91 0 152 -43t61 -117q0 -81 -81.5 -127.5t-242.5 -46.5l11 47q90 0 137 25.5t47 68.5q0 92 -223 92l94 185q-41 10 -57 54q-17 45 2 93l251 690
l-167 10l14 50h176l82 223l182 20l-90 -243h178z" />
    <glyph glyph-name="Tcaron" unicode="&#x164;" horiz-adv-x="1175" 
d="M1253 1796l19 -24l-354 -312l-156 312l31 24l170 -186zM461 1290h805l100 21l-102 -361h-39q29 154 -3 216q-31 61 -173 61h-103l-328 -1014q-31 -96 -2 -125q28 -28 140 -45l-11 -43h-569l12 45q107 17 155 47q48 31 79 127l328 1008h-103q-144 0 -220 -70
q-77 -71 -146 -219h-43l135 373z" />
    <glyph glyph-name="tcaron" unicode="&#x165;" horiz-adv-x="593" 
d="M805 1352q46 0 58.5 -34t-19.5 -91l-125 -207q-18 -31 -45 -31q-18 0 -26.5 15.5t-2.5 33.5l82 240q27 74 78 74zM424 1104l182 20l-90 -243h178l-28 -82l-177 10l-245 -659q-4 -13 -1 -17.5t13 -1.5q59 13 209 166q17 17 49 51l27 -37q-269 -330 -400 -329q-48 0 -71 47
t-2 102l251 690l-167 10l14 50h176z" />
    <glyph glyph-name="Tbar" unicode="&#x166;" horiz-adv-x="1175" 
d="M461 1290h805l100 21l-102 -361h-39q29 154 -3 216q-31 61 -173 61h-103l-180 -559l233 6l-20 -74l-234 6l-127 -393q-31 -96 -2 -125q28 -28 140 -45l-11 -43h-569l12 45q107 17 155 47q48 31 79 127l127 387l-225 -6l20 74l225 -6l181 559h-103q-144 0 -220 -70
q-77 -71 -146 -219h-43l135 373z" />
    <glyph glyph-name="tbar" unicode="&#x167;" horiz-adv-x="620" 
d="M694 881l-28 -82l-177 10l-34 -94h202l-28 -82l-201 12l-184 -495q-4 -13 -1 -17.5t13 -1.5q59 13 209 166q17 17 49 51l27 -37q-269 -330 -400 -329q-48 0 -71 47t-2 102l192 526l-141 9l14 49h148l38 106l-167 10l14 50h176l82 223l182 20l-90 -243h178z" />
    <glyph glyph-name="Umacron" unicode="&#x16a;" horiz-adv-x="1333" 
d="M1337 1616h-573l31 78h573zM549 -23q-241 0 -319 165q-30 55 -27 158t43 226l178 551q32 103 2 130q-17 16 -35 22.5t-63 15.5l12 45h506l-15 -47q-64 -11 -94 -22q-31 -13 -63 -48q-30 -34 -53 -102l-193 -596q-46 -157 -36 -242.5t65 -123.5q56 -43 147 -43
q135 0 261 93t198 312l197 606q17 62 15 93.5t-29 47.5q-32 17 -89 27l12 45h402l-15 -47q-66 -12 -100 -23q-32 -12 -66 -47q-34 -36 -57 -102l-190 -586q-47 -141 -116 -245t-151 -160q-152 -103 -327 -103z" />
    <glyph glyph-name="umacron" unicode="&#x16b;" 
d="M1044 1206h-573l31 78h573zM104 551l-32 35q196 309 342 309q50 0 72 -33.5t1 -85.5l-174 -444q-77 -182 -33 -210q10 -7 27 -7q84 0 252 239t279 535h161l-239 -668q-32 -88 -5 -89q2 0 5 1q47 14 176 191l31 -35q-197 -309 -340 -309q-50 0 -72.5 33t-1.5 83l158 402
l-17 -2q-166 -290 -282 -402q-117 -114 -215 -114q-199 0 -43 368l127 303q36 86 8 87q-3 0 -6 -1q-55 -12 -179 -186z" />
    <glyph glyph-name="ubreve" unicode="&#x16d;" 
d="M752 1102q-126 0 -169 79t-3 201h38q-14 -75 23.5 -110t128.5 -37q197 -2 274 147h39q-41 -135 -126.5 -207.5t-204.5 -72.5zM104 551l-32 35q196 309 342 309q50 0 72 -33.5t1 -85.5l-174 -444q-77 -182 -33 -210q10 -7 27 -7q84 0 252 239t279 535h161l-239 -668
q-32 -88 -5 -89q2 0 5 1q47 14 176 191l31 -35q-197 -309 -340 -309q-50 0 -72.5 33t-1.5 83l158 402l-17 -2q-166 -290 -282 -402q-117 -114 -215 -114q-199 0 -43 368l127 303q36 86 8 87q-3 0 -6 -1q-55 -12 -179 -186z" />
    <glyph glyph-name="Uring" unicode="&#x16e;" horiz-adv-x="1333" 
d="M1213 1533q-53 -52 -129 -52q-77 0 -129 52q-54 53 -54 128t54 128q52 52 129 52q76 0 129 -52q53 -53 53 -128t-53 -128zM1015 1593q27 -28 68 -28t69 28q28 27 28 68t-28 69q-28 27 -69 27t-68 -27q-28 -28 -28 -69t28 -68zM549 -23q-241 0 -319 165q-30 55 -27 158
t43 226l178 551q32 103 2 130q-17 16 -35 22.5t-63 15.5l12 45h506l-15 -47q-64 -11 -94 -22q-31 -13 -63 -48q-30 -34 -53 -102l-193 -596q-46 -157 -36 -242.5t65 -123.5q56 -43 147 -43q135 0 261 93t198 312l197 606q17 62 15 93.5t-29 47.5q-32 17 -89 27l12 45h402
l-15 -47q-66 -12 -100 -23q-32 -12 -66 -47q-34 -36 -57 -102l-190 -586q-47 -141 -116 -245t-151 -160q-152 -103 -327 -103z" />
    <glyph glyph-name="uring" unicode="&#x16f;" 
d="M920 1124q-55 -53 -129 -53q-76 0 -129 53q-54 52 -54 128t54 128q52 52 129 52q76 0 129 -52q53 -53 53 -128t-53 -128zM722 1183q28 -28 68.5 -28t68.5 28q28 27 28 68t-28 69t-68.5 28t-68.5 -28t-28 -69t28 -68zM104 551l-32 35q196 309 342 309q50 0 72 -33.5
t1 -85.5l-174 -444q-77 -182 -33 -210q10 -7 27 -7q84 0 252 239t279 535h161l-239 -668q-32 -88 -5 -89q2 0 5 1q47 14 176 191l31 -35q-197 -309 -340 -309q-50 0 -72.5 33t-1.5 83l158 402l-17 -2q-166 -290 -282 -402q-117 -114 -215 -114q-199 0 -43 368l127 303
q36 86 8 87q-3 0 -6 -1q-55 -12 -179 -186z" />
    <glyph glyph-name="Uhungarumlaut" unicode="&#x170;" horiz-adv-x="1333" 
d="M842 1434l-47 32q57 184 141 303q42 0 89 -34q48 -35 62 -74q-102 -69 -245 -227zM1163 1434l-47 32q57 184 141 303q41 0 90 -34q48 -35 62 -74q-102 -68 -246 -227zM549 -23q-241 0 -319 165q-30 55 -27 158t43 226l178 551q32 103 2 130q-17 16 -35 22.5t-63 15.5
l12 45h506l-15 -47q-64 -11 -94 -22q-31 -13 -63 -48q-30 -34 -53 -102l-193 -596q-46 -157 -36 -242.5t65 -123.5q56 -43 147 -43q135 0 261 93t198 312l197 606q17 62 15 93.5t-29 47.5q-32 17 -89 27l12 45h402l-15 -47q-66 -12 -100 -23q-32 -12 -66 -47
q-34 -36 -57 -102l-190 -586q-47 -141 -116 -245t-151 -160q-152 -103 -327 -103z" />
    <glyph glyph-name="uhungarumlaut" unicode="&#x171;" 
d="M549 1024l-47 33q57 185 141 303q40 0 89 -35q48 -34 63 -74q-102 -68 -246 -227zM870 1024l-47 33q57 186 142 303q40 0 89 -35q48 -35 62 -74q-102 -68 -246 -227zM104 551l-32 35q196 309 342 309q50 0 72 -33.5t1 -85.5l-174 -444q-77 -182 -33 -210q10 -7 27 -7
q84 0 252 239t279 535h161l-239 -668q-32 -88 -5 -89q2 0 5 1q47 14 176 191l31 -35q-197 -309 -340 -309q-50 0 -72.5 33t-1.5 83l158 402l-17 -2q-166 -290 -282 -402q-117 -114 -215 -114q-199 0 -43 368l127 303q36 86 8 87q-3 0 -6 -1q-55 -12 -179 -186z" />
    <glyph glyph-name="Uogonek" unicode="&#x172;" horiz-adv-x="1333" 
d="M1157 1245l12 45h402l-15 -47q-66 -12 -100 -23q-32 -12 -66 -47q-34 -36 -57 -102l-190 -586q-146 -449 -506 -501q-186 -62 -186 -172q0 -98 96 -99q40 0 100 23l-10 -41q-79 -70 -188 -70q-171 0 -173 144q0 81 62 149l147 64q-81 9 -138 39t-101 92
q-44 65 -43.5 163.5t43.5 249.5l178 551q32 103 2 130q-17 16 -35 22.5t-63 15.5l12 45h506l-15 -47q-64 -11 -94 -22q-31 -13 -63 -48q-30 -34 -53 -102l-193 -596q-46 -157 -36 -242.5t65 -123.5q56 -43 147 -43q135 0 261 93t198 312l197 606q17 62 15 93.5t-29 47.5
q-32 17 -89 27z" />
    <glyph glyph-name="uogonek" unicode="&#x173;" 
d="M999 889l-239 -668q-32 -88 -5 -89q2 0 5 1q47 14 176 191l31 -35q-161 -248 -281 -297q-156 -92 -156 -195q0 -45 26 -70.5t69 -25.5q38 0 104 20l-14 -36q-83 -72 -189 -72q-78 0 -124 36t-46 107q0 82 62 150l151 92q-43 33 -16 98l158 402l-17 -2
q-166 -290 -282 -402q-117 -114 -215 -114q-199 0 -43 368l127 303q36 86 8 87q-3 0 -6 -1q-53 -12 -179 -186l-32 35q196 309 342 309q50 0 72 -33.5t1 -85.5l-174 -444q-77 -182 -33 -210q10 -7 27 -7q84 0 252 239t279 535h161z" />
    <glyph glyph-name="Wcircumflex" unicode="&#x174;" horiz-adv-x="1900" 
d="M1036 1485l355 311l155 -311l-30 -25l-170 187l-291 -187zM502 -16h-74l-14 1116q-1 80 -22 107q-20 23 -95 40l12 43h482l-13 -45q-56 -12 -84 -21q-30 -10 -55 -37q-25 -28 -25 -71l4 -835l437 680q68 97 62 180q-7 84 -97 106l10 43h313q-32 -98 -30 -295l6 -712
l510 796q35 53 42 82t-12 48q-21 16 -45 22q-19 5 -85 16l10 43h407l-12 -45q-80 -14 -121 -41q-41 -29 -98 -117l-717 -1103h-74l-10 948z" />
    <glyph glyph-name="wcircumflex" unicode="&#x175;" horiz-adv-x="1419" 
d="M1126 1051l-170 186l-290 -186l-19 24l354 311l156 -311zM1221 838l14 43h278l-729 -901h-61l82 688v4l-559 -692h-62l82 688q12 100 -15 130q-30 30 -108 40l15 43h297l-82 -656l381 457q43 51 49 82q-11 50 -61 65q-21 5 -60 9l14 43h297l-82 -656l381 457
q45 58 48 90.5t-25 45.5t-94 20z" />
    <glyph glyph-name="Ycircumflex" unicode="&#x176;" horiz-adv-x="1206" 
d="M1174 1460l-170 187l-291 -187l-19 25l355 311l155 -311zM1098 1247l12 43h373l-13 -45q-83 -13 -118 -36q-33 -22 -105 -101l-493 -555l-109 -340q-31 -96 -2 -125q28 -28 139 -45l-10 -43h-569l12 45q107 17 155 47q48 31 79 127l106 324l-139 565q-18 78 -42 102
q-25 24 -98 37l13 43h497l-12 -45q-70 -14 -114 -38q-53 -29 -35 -99l116 -479l428 487q61 70 35 94q-15 13 -31 18.5t-57 14.5q-4 1 -18 4z" />
    <glyph glyph-name="ycircumflex" unicode="&#x177;" horiz-adv-x="917" 
d="M885 1051l-170 186l-291 -186l-18 24l354 311l155 -311zM686 838l14 43h312l-699 -895q-12 -14 -60 -78q-48 -65 -61 -79q-4 -4 -11 -12.5t-20 -23.5t-23 -26q-41 -47 -61 -60q-23 -13 -57 -39q-37 -25 -70 -32q-32 -7 -73 -7q-72 0 -119 32t-47 85q0 41 25.5 65.5
t68.5 24.5t85 -43t87 -43q52 0 101 46t151 184l43 688q6 101 -22 130q-30 29 -109 40l15 43h286l-45 -697l387 500q32 45 41.5 72.5t-6 44.5t-46 24.5t-87.5 12.5z" />
    <glyph glyph-name="Ydieresis" unicode="&#x178;" horiz-adv-x="1206" 
d="M802 1586q-30 -30 -75 -30t-74 30q-30 30 -30 75t30 75q29 29 74 29q44 0 75 -29q29 -31 29 -75t-29 -75zM1208 1586q-30 -30 -75 -30q-47 0 -75 30q-30 30 -30 75t30 75q29 29 75 29q44 0 75 -29q29 -31 29 -75t-29 -75zM1098 1247l12 43h373l-13 -45q-83 -13 -118 -36
q-33 -22 -105 -101l-493 -555l-109 -340q-31 -96 -2 -125q28 -28 139 -45l-10 -43h-569l12 45q107 17 155 47q48 31 79 127l106 324l-139 565q-18 78 -42 102q-25 24 -98 37l13 43h497l-12 -45q-70 -14 -114 -38q-53 -29 -35 -99l116 -479l428 487q61 70 35 94
q-15 13 -31 18.5t-57 14.5q-4 1 -18 4z" />
    <glyph glyph-name="Zacute" unicode="&#x179;" horiz-adv-x="1130" 
d="M858 1434l-47 32q57 184 141 303q41 0 90 -34q48 -35 62 -74q-102 -68 -246 -227zM889 0h-934l-12 31l1110 1206l-375 -8q-133 -1 -207 -68q-76 -70 -133 -215h-47l115 357l104 -13h831l-1138 -1237l436 21q128 6 202 72q72 64 152 214h54q-114 -228 -158 -360z" />
    <glyph glyph-name="zacute" unicode="&#x17a;" horiz-adv-x="837" 
d="M819 1251q-104 -72 -246 -227l-47 33q57 186 142 303q40 0 89 -35q48 -35 62 -74zM603 47q23 23 61 23t61 -26t23 -62q0 -68 -65 -109t-146 -41q-78 0 -157 46q-26 15 -78.5 45.5t-79.5 46.5q-79 46 -156 46q-80 0 -148 -47l-24 33l735 739h-277q-164 0 -241 -170h-45
l131 310h657l-717 -727q50 0 94 -15.5t79.5 -46t57.5 -55t50 -62.5q72 -96 131 -96q24 0 31 14t5 38q0 8 -2.5 31t-2.5 30q0 30 23 55z" />
    <glyph glyph-name="Zdotaccent" unicode="&#x17b;" horiz-adv-x="1130" 
d="M1041 1536q-37 -35 -86.5 -35t-86.5 35q-37 34 -37 84t37 84q37 35 86.5 35t86.5 -35q36 -34 36 -84t-36 -84zM889 0h-934l-12 31l1110 1206l-375 -8q-133 -1 -207 -68q-76 -70 -133 -215h-47l115 357l104 -13h831l-1138 -1237l436 21q128 6 202 72q72 64 152 214h54
q-114 -228 -158 -360z" />
    <glyph glyph-name="zdotaccent" unicode="&#x17c;" horiz-adv-x="837" 
d="M756 1127q-37 -35 -86 -35t-86 35q-37 34 -37 84t37 84q37 35 86 35t86 -35q37 -34 37 -84t-37 -84zM603 47q23 23 61 23t61 -26t23 -62q0 -68 -65 -109t-146 -41q-78 0 -157 46q-26 15 -78.5 45.5t-79.5 46.5q-79 46 -156 46q-80 0 -148 -47l-24 33l735 739h-277
q-164 0 -241 -170h-45l131 310h657l-717 -727q50 0 94 -15.5t79.5 -46t57.5 -55t50 -62.5q72 -96 131 -96q24 0 31 14t5 38q0 8 -2.5 31t-2.5 30q0 30 23 55z" />
    <glyph glyph-name="Zcaron" unicode="&#x17d;" horiz-adv-x="1130" 
d="M1260 1772l-355 -312l-155 312l30 24l170 -186l291 186zM889 0h-934l-12 31l1110 1206l-375 -8q-133 -1 -207 -68q-76 -70 -133 -215h-47l115 357l104 -13h831l-1138 -1237l436 21q128 6 202 72q72 64 152 214h54q-114 -228 -158 -360z" />
    <glyph glyph-name="zcaron" unicode="&#x17e;" horiz-adv-x="837" 
d="M956 1386l19 -24l-354 -311l-156 311l31 24l170 -186zM66 571l131 310h657l-717 -727q50 0 94 -15.5t79.5 -46t57.5 -55t50 -62.5q72 -96 131 -96q24 0 31 14t5 38q0 8 -2.5 31t-2.5 30q0 32 23 55t61 23q37 0 60.5 -25.5t23.5 -62.5q0 -68 -65 -109t-146 -41
q-78 0 -157 46q-26 15 -78.5 45.5t-79.5 46.5q-79 46 -156 46q-80 0 -148 -47l-24 33l735 739h-277q-164 0 -241 -170h-45z" />
    <glyph glyph-name="florin" unicode="&#x192;" horiz-adv-x="1040" 
d="M1190 1403q75 0 112 -34.5t31 -100.5q-18 -39 -65 -65q-47 -27 -97 -29q12 139 -79 139q-60 0 -137 -66q-76 -67 -146 -227l-55 -125l221 12q-23 -40 -41 -96l-213 4l-293 -672q-109 -250 -276 -376q-169 -125 -345 -125q-73 0 -110 34t-33 101q20 39 66.5 65.5
t95.5 28.5q-7 -139 80 -139q63 0 139 66q76 67 145 227l347 796l-129 2l16 47l147 31q110 248 278 374q170 128 341 128z" />
    <glyph glyph-name="uni0218" unicode="&#x218;" horiz-adv-x="987" 
d="M356 -23q-211 0 -340 136l66 256h43q-16 -150 46 -236t187 -86q135 0 231 87q95 87 95 208q0 83 -46 144q-48 64 -134 132q-73 60 -77 64q-26 21 -62 63q-72 79 -72 197q0 164 135 272q136 107 332 107q207 0 311 -123l-76 -258h-41q18 146 -32 228.5t-166 82.5
q-114 0 -194 -71q-79 -72 -79 -172q0 -119 164 -250q37 -31 62 -49q17 -13 59 -56q45 -45 63 -74q22 -36 39 -87.5t17 -98.5q0 -174 -157 -295t-374 -121zM61 -653l-16 53q162 56 201 174q7 28 0 41.5t-37 32.5q-63 45 -64 106q0 53 40 90t96 37q57 0 94 -41.5t37 -111.5
q0 -114 -97 -229q-96 -114 -254 -152z" />
    <glyph glyph-name="uni0219" unicode="&#x219;" horiz-adv-x="647" 
d="M655 770q0 -142 -217 -305q74 -103 74 -193q0 -126 -107 -209q-109 -83 -241 -83q-100 0 -150 47q-51 47 -51 108q0 69 55 115l45 -8q5 -68 59 -128q54 -63 122 -63q50 0 84 35.5t34 93.5q0 52 -32 113q-32 56 -71 105q-41 51 -70 109q-33 61 -33 122q0 118 100 194
t223 76q71 0 124 -30q52 -31 52 -99zM422 487q111 128 110 236q0 51 -25 82t-67 31q-48 0 -92 -34q-45 -34 -45 -93q0 -43 28 -90q17 -31 25 -41q7 -12 35 -48q25 -32 31 -43zM13 -156q40 37 96 37q55 0 93 -41t38 -112q0 -114 -97 -229q-96 -114 -254 -152l-16 53
q162 56 201 174q7 28 0 41.5t-37 32.5q-63 45 -64 106q0 53 40 90z" />
    <glyph glyph-name="uni021A" unicode="&#x21a;" horiz-adv-x="1175" 
d="M461 1290h805l100 21l-102 -361h-39q29 154 -3 216q-31 61 -173 61h-103l-328 -1014q-31 -96 -2 -125q28 -28 140 -45l-11 -43h-569l12 45q107 17 155 47q48 31 79 127l328 1008h-103q-144 0 -220 -70q-77 -71 -146 -219h-43l135 373zM278 -156q38 37 95 37q55 0 93 -41
t38 -112q0 -114 -97 -229q-96 -114 -253 -152l-17 53q162 56 201 174q7 28 0 41.5t-37 32.5q-63 45 -63 106q0 53 40 90z" />
    <glyph glyph-name="uni021B" unicode="&#x21b;" horiz-adv-x="620" 
d="M666 799l-177 10l-245 -659q-4 -13 -1 -17.5t13 -1.5q59 13 209 166q17 17 49 51l27 -37q-269 -330 -400 -329q-48 0 -71 47t-2 102l251 690l-167 10l14 50h176l82 223l182 20l-90 -243h178zM-5 -156q40 37 95 37t93 -41t38 -112q0 -114 -97 -229q-97 -114 -253 -152
l-16 53q163 56 200 174q7 28 0 41.5t-37 32.5q-63 45 -63 106q0 53 40 90z" />
    <glyph glyph-name="uni0237" unicode="&#x237;" horiz-adv-x="526" 
d="M446 891q51 0 72 -38t2 -93l-196 -604q-85 -264 -182 -390q-97 -124 -242 -124q-100 0 -151.5 43.5t-49.5 113.5q2 48 31.5 78.5t72.5 30.5q44 0 62 -39.5t6 -106.5q-12 -61 47 -61q61 0 97 60q36 61 94 239l210 649q29 92 3 91q-5 -1 -13 -5q-48 -26 -166 -186l-30 35
q196 307 333 307z" />
    <glyph glyph-name="circumflex" unicode="&#x2c6;" horiz-adv-x="530" 
d="M223 1096l355 311l155 -311l-31 -25l-170 186l-290 -186z" />
    <glyph glyph-name="caron" unicode="&#x2c7;" horiz-adv-x="530" 
d="M825 1382l-354 -311l-156 311l31 25l170 -186l291 186z" />
    <glyph glyph-name="breve" unicode="&#x2d8;" horiz-adv-x="524" 
d="M498 1122q-126 0 -169 79t-3 202h39q-14 -75 23 -110.5t128 -37.5q197 -2 275 148h38q-41 -135 -126.5 -208t-204.5 -73z" />
    <glyph glyph-name="dotaccent" unicode="&#x2d9;" horiz-adv-x="276" 
d="M481 1147q-37 -35 -86 -35t-86 35t-37 84t37 84t86 35t86 -35t37 -84t-37 -84z" />
    <glyph glyph-name="ring" unicode="&#x2da;" horiz-adv-x="405" 
d="M602 1144q-52 -52 -129 -52t-129 52q-53 53 -53 128t53 128q52 52 129 52t129 -52q53 -53 53 -128t-53 -128zM405 1204q27 -28 68 -28t69 28q27 27 27 68t-27 69q-28 27 -69 27t-68 -27q-28 -28 -28 -69t28 -68z" />
    <glyph glyph-name="ogonek" unicode="&#x2db;" horiz-adv-x="415" 
d="M-27 -375q-79 0 -124.5 36t-45.5 108q0 81 62 149l332 203l-13 -88q-109 -59 -158 -108t-49 -115q0 -45 26 -71t69 -26q40 0 104 21l-14 -37q-82 -72 -189 -72z" />
    <glyph glyph-name="tilde" unicode="&#x2dc;" horiz-adv-x="641" 
d="M664 1083q-46 0 -81.5 21t-53.5 52t-47.5 52t-63.5 21q-50 0 -93 -35q-42 -34 -51 -68l-30 25q13 88 85 148q71 57 154 57q46 0 82 -21.5t53 -51.5q17 -31 45 -52t62 -21q50 0 94 35q42 33 53 68l31 -25q-13 -90 -83 -147q-70 -58 -156 -58z" />
    <glyph glyph-name="hungarumlaut" unicode="&#x2dd;" horiz-adv-x="571" 
d="M264 1044l-47 33q57 185 141 303q41 0 90 -34q48 -35 62 -74q-104 -70 -246 -228zM586 1044l-47 33q57 185 141 303q42 0 89 -34q48 -35 62 -74q-103 -71 -245 -228z" />
    <glyph glyph-name="acutecomb" unicode="&#x301;" horiz-adv-x="0" 
d="M14 1044l-47 33q57 186 142 303q42 0 89 -34q48 -35 62 -74q-104 -70 -246 -228z" />
    <glyph glyph-name="uni0326" unicode="&#x326;" horiz-adv-x="0" 
d="M-604 -653l-17 53q162 56 201 174q7 28 0 41.5t-37 32.5q-63 45 -63 106q0 53 40 90t95 37q56 0 93.5 -41.5t37.5 -111.5q0 -114 -97 -229q-97 -114 -253 -152z" />
    <glyph glyph-name="uni0394" unicode="&#x394;" horiz-adv-x="1079" 
d="M930 0h-1039l938 1298zM680 1004l-612 -846h661z" />
    <glyph glyph-name="uni03A9" unicode="&#x3a9;" horiz-adv-x="1406" 
d="M918 170h55q95 0 139 10q48 11 88 49h39l-141 -229h-391l55 170q167 77 304 329q138 253 138 453q0 132 -62 205.5t-173 73.5q-149 0 -292 -132q-142 -132 -223 -316q-81 -185 -81 -349q0 -94 29 -163.5t73 -100.5l-55 -170h-391l8 229h31q13 -38 56 -49q40 -10 134 -10
h61q-56 49 -97 141q-40 90 -40 207q0 200 116 384q115 183 301 293q185 110 382 110q201 0 311 -117q109 -116 109 -297q0 -218 -139 -412q-139 -196 -344 -309z" />
    <glyph glyph-name="uni03BC" unicode="&#x3bc;" 
d="M999 889l-239 -668q-32 -88 -5 -89q2 0 5 1q47 14 176 191l31 -35q-197 -309 -340 -309q-50 0 -72.5 33t-1.5 83l158 402l-17 -2q-166 -290 -282 -402q-117 -114 -215 -114q-96 0 -109 88q-49 -138 -43 -198q6 -56 26 -101q19 -43 13 -66q-16 -49 -59 -80t-86 -31
q-45 0 -61 30t5 93l381 897l17 39q36 86 8 87q-3 0 -6 -1q-53 -12 -179 -186l-32 35q196 309 342 309q50 0 72 -33.5t1 -85.5l-174 -444q-77 -182 -33 -210q10 -7 27 -7q84 0 252 239t279 535h161z" />
    <glyph glyph-name="pi" unicode="&#x3c0;" horiz-adv-x="1271" 
d="M1233 786h-172l-203 -620q-29 -92 10 -92q21 -2 43.5 20.5t39.5 51t42 51t50 20.5q36 0 47 -38t-9 -85q-18 -59 -78 -86q-60 -28 -135 -28q-113 0 -152 82q-40 80 5 217l166 507h-250l-180 -550q-39 -121 -121 -184q-82 -64 -170 -64q-62 0 -119 28l-10 60q71 -20 145 29
q75 51 109 155l172 526h-88q-63 0 -107 -51q-46 -52 -53 -131l-37 53q-8 107 55 187q62 80 164 80h881z" />
    <glyph glyph-name="Wgrave" unicode="&#x1e80;" horiz-adv-x="1900" 
d="M1280 1466l-47 -32q-144 159 -246 227q14 40 63 74q47 34 89 34q84 -119 141 -303zM502 -16h-74l-14 1116q-1 80 -22 107q-20 23 -95 40l12 43h482l-13 -45q-56 -12 -84 -21q-30 -10 -55 -37q-25 -28 -25 -71l4 -835l437 680q68 97 62 180q-7 84 -97 106l10 43h313
q-32 -98 -30 -295l6 -712l510 796q35 53 42 82t-12 48q-21 16 -45 22q-19 5 -85 16l10 43h407l-12 -45q-80 -14 -121 -41q-41 -29 -98 -117l-717 -1103h-74l-10 948z" />
    <glyph glyph-name="wgrave" unicode="&#x1e81;" horiz-adv-x="1419" 
d="M891 1057l-47 -33q-144 159 -246 227q14 40 63 74q49 35 89 35q84 -118 141 -303zM1221 838l14 43h278l-729 -901h-61l82 688v4l-559 -692h-62l82 688q12 100 -15 130q-30 30 -108 40l15 43h297l-82 -656l381 457q43 51 49 82q-11 50 -61 65q-21 5 -60 9l14 43h297
l-82 -656l381 457q45 58 48 90.5t-25 45.5t-94 20z" />
    <glyph glyph-name="Wacute" unicode="&#x1e82;" horiz-adv-x="1900" 
d="M1237 1434l-47 32q57 184 141 303q42 0 89 -34q48 -34 63 -74q-102 -68 -246 -227zM502 -16h-74l-14 1116q-1 80 -22 107q-20 23 -95 40l12 43h482l-13 -45q-56 -12 -84 -21q-30 -10 -55 -37q-25 -28 -25 -71l4 -835l437 680q68 97 62 180q-7 84 -97 106l10 43h313
q-32 -98 -30 -295l6 -712l510 796q35 53 42 82t-12 48q-21 16 -45 22q-19 5 -85 16l10 43h407l-12 -45q-80 -14 -121 -41q-41 -29 -98 -117l-717 -1103h-74l-10 948z" />
    <glyph glyph-name="wacute" unicode="&#x1e83;" horiz-adv-x="1419" 
d="M1094 1251q-104 -72 -246 -227l-47 33q57 185 141 303q40 0 90 -35q48 -35 62 -74zM1221 838l14 43h278l-729 -901h-61l82 688v4l-559 -692h-62l82 688q12 100 -15 130q-30 30 -108 40l15 43h297l-82 -656l381 457q43 51 49 82q-11 50 -61 65q-21 5 -60 9l14 43h297
l-82 -656l381 457q45 58 48 90.5t-25 45.5t-94 20z" />
    <glyph glyph-name="Wdieresis" unicode="&#x1e84;" horiz-adv-x="1900" 
d="M1144 1586q-30 -30 -75 -30q-46 0 -74 30q-30 30 -30 75t30 75q29 29 74 29q44 0 75 -29q30 -30 30 -75t-30 -75zM1550 1586q-30 -30 -75 -30t-75 30t-30 75t30 75q31 29 75 29t75 -29q29 -31 29 -75t-29 -75zM502 -16h-74l-14 1116q-1 80 -22 107q-20 23 -95 40l12 43
h482l-13 -45q-56 -12 -84 -21q-30 -10 -55 -37q-25 -28 -25 -71l4 -835l437 680q68 97 62 180q-7 84 -97 106l10 43h313q-32 -98 -30 -295l6 -712l510 796q35 53 42 82t-12 48q-21 16 -45 22q-19 5 -85 16l10 43h407l-12 -45q-80 -14 -121 -41q-41 -29 -98 -117l-717 -1103
h-74l-10 948z" />
    <glyph glyph-name="wdieresis" unicode="&#x1e85;" horiz-adv-x="1419" 
d="M755 1177q-30 -30 -75 -30t-75 30q-30 29 -30 74t30 75t75 30t75 -30q29 -31 29 -75q0 -45 -29 -74zM1160 1177q-30 -30 -75 -30t-74 30q-30 29 -30 74t30 75q29 30 74 30t75 -30t30 -75t-30 -74zM1221 838l14 43h278l-729 -901h-61l82 688v4l-559 -692h-62l82 688
q12 100 -15 130q-30 30 -108 40l15 43h297l-82 -656l381 457q43 51 49 82q-11 50 -61 65q-21 5 -60 9l14 43h297l-82 -656l381 457q45 58 48 90.5t-25 45.5t-94 20z" />
    <glyph glyph-name="uni1E9E" unicode="&#x1e9e;" horiz-adv-x="1341" 
d="M1397 1171l-422 -466q130 -15 203 -84t73 -189q0 -186 -159 -329q-160 -144 -365 -144q-144 0 -221 86q29 105 47 242h43q5 -157 33 -209q29 -53 92 -53q129 0 229 133q99 134 99 266q0 111 -87.5 169t-250.5 58l479 535q-67 35 -174 35q-133 0 -257 -90
q-150 -108 -239 -379l-174 -539q-31 -97 -9 -125q13 -16 29.5 -24.5t51.5 -16.5l-10 -47h-484l13 47q48 10 73 18q24 8 53 24q52 31 84 130l175 531q180 555 647 555q214 0 428 -134z" />
    <glyph glyph-name="uni1EBC" unicode="&#x1ebc;" horiz-adv-x="1130" 
d="M788 1618q-50 0 -93 -35q-42 -35 -50 -67l-31 24q13 88 85 148q71 57 155 57q46 0 82 -21t53 -51q17 -31 45 -52.5t62 -21.5q50 0 94 35q42 33 53 68l31 -25q-14 -90 -84 -147t-156 -57q-46 0 -82 21.5t-53 51.5t-47 51t-64 21zM332 1245l12 45h903l-82 -291h-47
q31 117 11 171q-21 51 -119 51h-164q-104 0 -150 -34q-47 -35 -80 -138l-118 -363h139q157 0 215 40t102 144h41l-139 -426h-41q15 60 15 86.5t-17 51.5q-17 21 -59 27.5t-136 6.5h-143l-129 -399q-13 -43 -17 -62t-2.5 -36.5t13.5 -27.5q17 -14 41 -17.5t88 -3.5h125
q106 0 186 56q81 56 178 191h54l-183 -317h-905l13 45q61 12 93 24q30 10 65 48q34 37 55 102l278 858q17 55 18.5 82.5t-15.5 47.5q-18 16 -36 22.5t-63 15.5z" />
    <glyph glyph-name="uni1EBD" unicode="&#x1ebd;" horiz-adv-x="761" 
d="M934 1292l31 -24q-13 -90 -84 -147q-70 -58 -156 -58q-46 0 -81.5 21t-53.5 52q-19 30 -48 51t-63 21q-52 0 -93 -34q-42 -35 -50 -68l-31 24q13 88 85 148q71 57 155 57q46 0 82 -21t52 -51q17 -31 45 -52t62 -21q51 0 95 35q42 34 53 67zM600 899q81 0 121.5 -40.5
t40.5 -108.5q0 -254 -545 -373q-6 -38 -6 -70q0 -85 39.5 -137.5t107.5 -52.5q56 0 128 35q71 35 120 100l25 -37q-66 -116 -175 -174q-110 -59 -206 -59q-102 0 -162.5 70t-60.5 190q0 150 87 304q86 152 221 254q133 99 265 99zM229 434q367 78 367 295q0 100 -72 100
q-81 0 -169 -124q-89 -125 -126 -271z" />
    <glyph glyph-name="Ygrave" unicode="&#x1ef2;" horiz-adv-x="1206" 
d="M938 1466l-47 -32q-144 159 -246 227q14 40 63 74q47 34 89 34q84 -119 141 -303zM1098 1247l12 43h373l-13 -45q-83 -13 -118 -36q-33 -22 -105 -101l-493 -555l-109 -340q-31 -96 -2 -125q28 -28 139 -45l-10 -43h-569l12 45q107 17 155 47q48 31 79 127l106 324
l-139 565q-18 78 -42 102q-25 24 -98 37l13 43h497l-12 -45q-70 -14 -114 -38q-53 -29 -35 -99l116 -479l428 487q61 70 35 94q-15 13 -31 18.5t-57 14.5q-4 1 -18 4z" />
    <glyph glyph-name="ygrave" unicode="&#x1ef3;" horiz-adv-x="917" 
d="M649 1057l-47 -33q-144 159 -246 227q14 40 63 74q49 35 89 35q84 -118 141 -303zM686 838l14 43h312l-699 -895q-12 -14 -60 -78q-48 -65 -61 -79q-4 -4 -11 -12.5t-20 -23.5t-23 -26q-41 -47 -61 -60q-23 -13 -57 -39q-37 -25 -70 -32q-32 -7 -73 -7q-72 0 -119 32
t-47 85q0 41 25.5 65.5t68.5 24.5t85 -43t87 -43q52 0 101 46t151 184l43 688q6 101 -22 130q-30 29 -109 40l15 43h286l-45 -697l387 500q32 45 41.5 72.5t-6 44.5t-46 24.5t-87.5 12.5z" />
    <glyph glyph-name="endash" unicode="&#x2013;" horiz-adv-x="1341" 
d="M1249 496h-1157v71h1157v-71z" />
    <glyph glyph-name="emdash" unicode="&#x2014;" horiz-adv-x="1861" 
d="M1769 496h-1677v71h1677v-71z" />
    <glyph glyph-name="uni2015" unicode="&#x2015;" horiz-adv-x="1861" 
d="M1769 496h-1677v71h1677v-71z" />
    <glyph glyph-name="quoteleft" unicode="&#x2018;" horiz-adv-x="438" 
d="M600 1317l16 -53q-163 -56 -200 -174q-8 -27 -0.5 -41.5t37.5 -32.5q63 -45 63 -107q0 -53 -40 -90t-95 -37q-56 0 -93.5 42t-37.5 112q0 114 97 229q97 114 253 152z" />
    <glyph glyph-name="quoteright" unicode="&#x2019;" horiz-adv-x="436" 
d="M242 791l-17 53q162 56 201 174q7 28 0 41.5t-37 32.5q-63 45 -63 106q0 53 40 90t95 37q56 0 93.5 -42t37.5 -112q0 -113 -97 -228q-97 -114 -253 -152z" />
    <glyph glyph-name="quotesinglbase" unicode="&#x201a;" horiz-adv-x="436" 
d="M-113 -303l-16 53q162 56 201 174q8 26 0 40.5t-37 33.5q-63 45 -64 106q0 53 40 90t96 37q57 0 94 -41.5t37 -111.5q0 -114 -97 -229q-96 -114 -254 -152z" />
    <glyph glyph-name="quotedblleft" unicode="&#x201c;" horiz-adv-x="819" 
d="M600 1317l16 -53q-163 -56 -200 -174q-8 -27 -0.5 -41.5t37.5 -32.5q63 -45 63 -107q0 -53 -40 -90t-95 -37q-56 0 -93.5 42t-37.5 112q0 114 97 229q97 114 253 152zM981 1317l16 -53q-163 -56 -200 -174q-8 -27 -0.5 -41.5t37.5 -32.5q63 -45 63 -107q0 -53 -40 -90
t-95 -37q-56 0 -93.5 42t-37.5 112q0 114 97 229q97 114 253 152z" />
    <glyph glyph-name="quotedblright" unicode="&#x201d;" horiz-adv-x="819" 
d="M244 791l-17 53q162 56 201 174q7 28 0 41.5t-37 32.5q-63 45 -63 106q0 53 40 90t95 37q56 0 93.5 -42t37.5 -112q0 -113 -97 -228q-97 -114 -253 -152zM625 791l-17 53q162 56 201 174q7 28 0 41.5t-37 32.5q-63 45 -63 106q0 53 40 90q38 37 95 37t94 -42t37 -112
q0 -113 -97 -228q-97 -114 -253 -152z" />
    <glyph glyph-name="quotedblbase" unicode="&#x201e;" horiz-adv-x="819" 
d="M-109 -293l-16 53q162 56 201 174q8 27 0.5 41.5t-37.5 32.5q-62 45 -64 107q0 53 40 90t96 37q57 0 94 -42t37 -112q0 -114 -97 -229q-96 -114 -254 -152zM272 -293l-16 53q162 56 201 174q8 27 0.5 41.5t-37.5 32.5q-62 45 -64 107q0 53 40 90t96 37q57 0 94 -42
t37 -112q0 -114 -97 -229q-96 -114 -254 -152z" />
    <glyph glyph-name="dagger" unicode="&#x2020;" horiz-adv-x="866" 
d="M301 0h-22l141 678l112 127l39 110q-53 -2 -136 -47t-113 -45q-43 0 -61 40q-19 39 -1 95q12 36 48 61t75 25q31 0 87 -41q56 -42 114 -36q18 52 4 132q-15 79 0 124q10 35 46 60.5t77 25.5q43 0 60 -42q17 -43 -1 -93q-7 -30 -72 -104q-66 -75 -86 -130q54 6 138 55
q83 49 116 49q42 0 60 -39.5t0 -95.5q-12 -37 -47 -61.5t-74 -24.5q-35 0 -90 45q-56 46 -107 47l-39 -110l31 -127z" />
    <glyph glyph-name="daggerdbl" unicode="&#x2021;" horiz-adv-x="866" 
d="M291 -14q-43 0 -60 41q-18 42 -2 94q11 30 75 103q66 76 85 130q-54 -6 -137 -55t-117 -49q-43 0 -61 40q-19 40 0 95q12 36 48 61t75 25q35 0 89 -45q55 -46 105 -47l41 110l-18 168l118 148l39 110q-53 -2 -136 -47t-113 -45q-43 0 -61 40q-19 39 -1 95q12 36 48 61
t75 25q31 0 87 -41q56 -42 114 -36q18 52 4 132q-15 79 0 124q10 35 46 60.5t77 25.5q43 0 60 -42q17 -43 -1 -93q-7 -30 -72 -104q-66 -75 -86 -130q54 6 138 55q83 49 116 49q42 0 60 -39.5t0 -95.5q-12 -37 -47 -61.5t-74 -24.5q-35 0 -90 45q-56 46 -107 47l-39 -110
l25 -148l-125 -168l-39 -110q53 2 136 47q82 45 114 45q41 0 60 -40q18 -41 -1 -95q-12 -37 -47 -61.5t-74 -24.5q-32 0 -88 42q-55 42 -112 36q-20 -54 -5 -133q15 -78 1 -123q-12 -36 -47 -61t-76 -25z" />
    <glyph glyph-name="bullet" unicode="&#x2022;" horiz-adv-x="624" 
d="M488 379q-62 -62 -148 -62q-85 0 -147 62t-62 147q0 86 62 148q61 61 147 61q87 0 148 -61t61 -148q0 -86 -61 -147z" />
    <glyph glyph-name="ellipsis" unicode="&#x2026;" horiz-adv-x="1261" 
d="M210 17q-37 -37 -91 -37t-91 37q-38 36 -38 89q0 50 38 88q37 37 91 37q53 0 91 -36q38 -38 38 -89q0 -53 -38 -89zM613 17q-37 -37 -91 -37t-91 37q-38 36 -38 89q0 50 38 88q37 37 91 37t91 -36q38 -38 38 -89q0 -53 -38 -89zM1017 17q-37 -37 -91 -37t-91 37
q-38 36 -38 89q0 50 38 88q37 37 91 37t91 -36q38 -38 38 -89q0 -53 -38 -89z" />
    <glyph glyph-name="perthousand" unicode="&#x2030;" horiz-adv-x="2088" 
d="M1370 1300l123 -10l-1333 -1290h-111l1165 1118q-78 -33 -157 -33q-108 0 -203 62q-1 -165 -154 -328q-153 -162 -317 -162q-74 0 -114 41.5t-40 116.5q0 165 156 322t326 157q77 0 114 -45q146 -104 256 -104q139 -1 289 155zM434 721q110 0 237 160q128 160 128 272
q0 82 -84 82q-105 0 -227 -165q-121 -164 -121 -282q-1 -67 67 -67zM1163 633q142 0 144 -146q0 -167 -154 -328q-154 -163 -317 -163q-74 0 -114 41.5t-40 116.5q0 164 156 322q154 157 325 157zM1851 633q142 0 144 -146q0 -166 -153 -328q-154 -163 -318 -163
q-74 0 -114 41.5t-40 116.5q0 164 156 322q154 157 325 157zM887 59q110 0 237 160t127 273q0 82 -84 81q-105 0 -227 -164q-121 -164 -121 -282q0 -68 68 -68zM1575 59q110 0 237 160t127 273q0 82 -84 81q-105 0 -227 -164q-121 -164 -121 -282q0 -68 68 -68z" />
    <glyph glyph-name="guilsinglleft" unicode="&#x2039;" horiz-adv-x="507" 
d="M287 166l-189 283l371 282l14 -26l-252 -256l86 -256z" />
    <glyph glyph-name="guilsinglright" unicode="&#x203a;" horiz-adv-x="505" 
d="M215 743l188 -282l-370 -283l-15 27l252 256l-86 256z" />
    <glyph glyph-name="fraction" unicode="&#x2044;" horiz-adv-x="212" 
d="M-412 -10h-51l1223 1313h51z" />
    <glyph glyph-name="Euro" unicode="&#x20ac;" horiz-adv-x="1431" 
d="M1243 1321q221 0 320 -115l-66 -268h-57q12 159 -41 236t-182 77q-167 0 -307 -120q-141 -123 -224 -308h356l-51 -100h-344q-20 -59 -35 -143h308l-52 -101h-268v-33q0 -176 85 -274t237 -98q205 0 342 119l20 -60q-77 -69 -203 -115q-125 -45 -262 -45
q-211 0 -321.5 116.5t-110.5 328.5q0 35 2 61h-270l51 101h233q17 85 41 143h-200l49 100h196q112 219 316 359q202 139 438 139z" />
    <glyph glyph-name="trademark" unicode="&#x2122;" horiz-adv-x="1849" 
d="M784 612h-354v37q45 5 53 7q14 3 31 13q29 15 29 72v504h-64q-73 0 -105.5 -35t-45.5 -116h-29l8 196h598l10 -196h-28q-15 82 -47 116.5t-103 34.5h-67l2 -504q0 -55 23 -69q24 -16 89 -23v-37zM1249 612h-254v37l44 8q10 1 28 12q29 15 29 72v422q0 31 -6 46.5
t-24 24.5q-20 9 -27 12q-8 3 -44 9v35h222l223 -504l196 504h238v-35q-2 0 -10 -2q-46 -10 -63 -21q-25 -15 -25 -69l2 -422q0 -69 41 -81q15 -5 55 -11v-37h-322v37q30 5 35 6q9 2 25 9q16 6 21 14q16 25 16 63v445l-232 -574h-37l-235 529l-2 -400q0 -35 14 -55.5
t32 -25.5t60 -11v-37z" />
    <glyph glyph-name="oneeighth" unicode="&#x215b;" horiz-adv-x="1138" 
d="M446 838l-6 -23h-231l6 23q76 7 90 55l98 301q9 23 6 39t-18 14l-39 -6l8 23l162 67l13 -12l-140 -432q-8 -25 3 -35t48 -14zM-66 -10l1223 1313h51l-1222 -1313h-52zM897 500q64 0 92 -37t12 -86q-20 -59 -96 -107q86 -47 56 -137q-22 -70 -89 -111q-68 -42 -149 -42
q-79 0 -116.5 39t-16.5 104q32 84 123 129q-35 47 -15 110q18 58 75 98q55 40 124 40zM942 375q14 32 1 61q-14 29 -58 29q-77 0 -103 -74q-19 -57 52 -88l40 -18q51 34 68 90zM864 102q10 35 -2 53.5t-57 41.5l-45 20q-13 6 -23 14q-64 -38 -86 -102q-16 -52 7 -83.5
t81 -31.5q97 0 125 88z" />
    <glyph glyph-name="threeeighths" unicode="&#x215c;" horiz-adv-x="1441" 
d="M303 786q-45 0 -76.5 13t-31.5 37q0 19 13 31t30 12q16 0 36 -32t52 -32q59 0 109 53t50 111q0 72 -86 72q-33 0 -71 -15l-2 25l65 24q78 29 113 57t35 70q0 43 -60 43q-77 0 -135 -55l-12 17q90 96 200 96q94 0 95 -76q0 -85 -150 -147q105 -7 107 -93q0 -81 -90 -145
q-92 -66 -191 -66zM133 -10l1223 1313h51l-1223 -1313h-51zM1210 500q62 0 91.5 -36.5t13.5 -86.5q-20 -59 -96 -107q86 -47 55 -137q-22 -70 -89 -111q-67 -42 -149 -42q-79 0 -116 39t-17 104q31 84 123 129q-35 47 -14 110q18 57 74 98q55 40 124 40zM1255 375
q14 32 1 61q-14 29 -58 29q-78 0 -102 -74q-19 -57 51 -88l41 -18q50 34 67 90zM1178 102q10 35 -2 53t-58 42l-45 20q-15 7 -22 14q-64 -38 -86 -102q-16 -52 6.5 -83.5t81.5 -31.5q97 0 125 88z" />
    <glyph glyph-name="fiveeighths" unicode="&#x215d;" horiz-adv-x="1421" 
d="M307 799q-55 0 -82 12t-26 37q0 16 13 29.5t30 13.5q18 0 38 -32t54 -32q54 0 104 53q49 52 49 109q0 88 -176 76l-8 16l148 230h122q71 0 97 24h16l-63 -100h-189l-65 -102q223 13 223 -103q0 -89 -91 -159q-91 -72 -194 -72zM113 -10l1222 1313h51l-1222 -1313h-51z
M1190 500q64 0 92 -37t12 -86q-20 -59 -96 -107q86 -47 55 -137q-22 -70 -89 -111q-66 -42 -148 -42q-79 0 -116.5 39t-16.5 104q31 84 123 129q-35 47 -15 110q18 58 75 98q55 40 124 40zM1235 375q14 32 1 61q-14 29 -58 29q-77 0 -103 -74q-19 -57 51 -88l41 -18
q51 34 68 90zM1157 102q10 35 -2 53.5t-57 41.5l-45 20q-13 6 -23 14q-64 -38 -86 -102q-16 -52 7 -83.5t81 -31.5q97 0 125 88z" />
    <glyph glyph-name="seveneighths" unicode="&#x215e;" horiz-adv-x="1343" 
d="M322 815h-60q116 195 334 436h-152q-39 0 -61.5 -11t-48.5 -48h-17l82 135l31 -8h246l4 -12q-230 -255 -358 -492zM61 -10l1223 1313h51l-1222 -1313h-52zM1139 500q64 0 92 -37t12 -86q-20 -59 -96 -107q86 -47 55 -137q-22 -70 -89 -111q-66 -42 -148 -42
q-79 0 -116.5 39t-17.5 104q31 84 123 129q-35 47 -14 110q18 58 75 98q55 40 124 40zM1184 375q14 32 1 61q-14 29 -59 29q-78 0 -102 -74q-19 -57 51 -88l41 -18q51 34 68 90zM1106 102q10 35 -2 53.5t-57 41.5l-46 20q-15 7 -22 14q-64 -38 -86 -102q-16 -52 7 -83.5
t81 -31.5q97 0 125 88z" />
    <glyph glyph-name="partialdiff" unicode="&#x2202;" horiz-adv-x="1153" 
d="M451 -25q-173 0 -268 91q-97 90 -97 235q-2 163 99 295.5t253 193.5q97 42 204 39.5t200 -49.5l-8 -49q-218 47 -384 -108q-167 -156 -167 -377q0 -195 174 -195q131 0 246 127q115 128 176 300q61 171 61 331q0 199 -106 314q-107 114 -269 128l45 54q222 -12 377 -171
q154 -158 154 -399q0 -295 -204 -527q-206 -233 -486 -233z" />
    <glyph glyph-name="emptyset" unicode="&#x2205;" horiz-adv-x="1077" 
d="M1112 915l31 -45l-150 -112q72 -133 15 -307q-63 -196 -243 -332q-182 -137 -376 -137q-177 0 -268 114l-150 -112l-28 47l147 110q-76 130 -16 310q63 194 245 331q181 136 373 136q177 0 271 -115zM141 451q-49 -147 11 -263l747 566q-78 96 -227 96q-165 0 -322 -116
q-157 -118 -209 -283zM940 451q49 146 -10 258l-748 -566q82 -94 228 -94q166 0 322 117q156 118 208 285z" />
    <glyph glyph-name="product" unicode="&#x220f;" horiz-adv-x="1122" 
d="M502 1638h897l-666 -2048h-117l627 1928h-663l-629 -1928h-115z" />
    <glyph glyph-name="summation" unicode="&#x2211;" horiz-adv-x="1107" 
d="M502 1638h880l-39 -120h-729l314 -906l-879 -901h709l-39 -121h-881l39 121l887 920l-301 887z" />
    <glyph glyph-name="minus" unicode="&#x2212;" horiz-adv-x="866" 
d="M778 455h-682l39 120h682z" />
    <glyph glyph-name="radical" unicode="&#x221a;" horiz-adv-x="1507" 
d="M371 -410h-64l-100 693q-12 80 -36 110q-25 30 -93 58l18 63h246l104 -661l1215 1787h223l-20 -73q-98 -27 -144 -60q-48 -36 -110 -127z" />
    <glyph glyph-name="infinity" unicode="&#x221e;" horiz-adv-x="1300" 
d="M305 129q-95 0 -150 65t-55 181q0 194 126 376q126 181 288 181q156 0 211 -189q157 187 326 189q98 0 153.5 -63.5t55.5 -178.5q0 -197 -125 -379t-287 -182q-157 0 -213 188q-156 -188 -330 -188zM299 313q133 0 260 195l109 164q-39 116 -164 114q-132 0 -232 -114
q-102 -116 -102 -234q0 -125 129 -125zM854 274q133 0 235 115q101 116 101 236q0 63 -33 93t-88 30q-141 0 -268 -195l-109 -164q39 -115 162 -115z" />
    <glyph glyph-name="integral" unicode="&#x222b;" horiz-adv-x="1040" 
d="M-193 -358q-73 0 -110 34t-33 101q20 39 66.5 65.5t95.5 28.5q-7 -139 80 -139q63 0 139 66q76 67 145 227l377 868q109 249 279 380q169 130 344 130q75 0 112 -34.5t31 -100.5q-18 -39 -65 -65q-47 -27 -97 -29q12 139 -79 139q-60 0 -137 -66q-76 -67 -146 -227
l-381 -877q-109 -250 -277 -376q-169 -125 -344 -125z" />
    <glyph glyph-name="approxequal" unicode="&#x2248;" horiz-adv-x="956" 
d="M668 561q-56 0 -99 21t-64 52q-51 73 -130 73q-59 0 -108 -36t-60 -71l-31 25q14 93 96 151t185 58q55 0 97 -21.5t64 -51.5q51 -73 132 -73q58 0 108 36q49 36 60 71l30 -25q-14 -92 -96 -150q-83 -59 -184 -59zM553 213q-55 0 -97.5 21t-64.5 52q-52 72 -131 72
q-58 0 -108 -35q-49 -36 -60 -71l-31 24q14 92 97 151q82 58 184 58q55 0 97 -21t64 -51q51 -73 132 -73q59 0 109 36q48 35 59 70l31 -24q-14 -92 -96 -150q-83 -59 -185 -59z" />
    <glyph glyph-name="notequal" unicode="&#x2260;" horiz-adv-x="868" 
d="M879 760l-39 -121h-262l-103 -248h285l-39 -121h-297l-113 -270h-129l113 270h-256l39 121h268l103 248h-291l39 121h303l106 256h129l-106 -256h250z" />
    <glyph glyph-name="lessequal" unicode="&#x2264;" horiz-adv-x="1363" 
d="M999 406l41 -142q-410 209 -794 352l-35 121q305 151 567 348l35 -116q-225 -174 -489 -279q391 -135 675 -284zM1069 123l39 -121h-682l-39 121h682z" />
    <glyph glyph-name="greaterequal" unicode="&#x2265;" horiz-adv-x="931" 
d="M61 264l41 142q295 153 676 284q-264 104 -489 279l35 116q262 -197 567 -348l-35 -121q-383 -142 -795 -352zM676 2h-682l39 121h682z" />
    <glyph glyph-name="lozenge" unicode="&#x25ca;" horiz-adv-x="1224" 
d="M1196 635l-739 -672l-301 672l739 674zM266 635l236 -533l583 533l-235 534z" />
    <glyph glyph-name="M.aalt" horiz-adv-x="1556" 
d="M1393 1290h379l-13 -47q-60 -11 -93 -23q-28 -11 -61 -47q-33 -38 -55 -102l-278 -858q-11 -35 -15.5 -58t-1.5 -41t16 -28q18 -16 36 -22q13 -6 59 -17l-10 -47h-504l12 47q48 10 73 18q24 7 54 24q52 31 84 130l287 887l-752 -1106h-55l-66 1028l-264 -815
q-11 -37 -15.5 -59t-1 -40t17.5 -28q19 -16 39 -22q12 -5 65 -17l-11 -47h-397l15 47q62 12 94 24q29 10 64 47q33 35 55 101l286 877q20 70 14 87q-2 5 -4.5 12.5t-3.5 11t-6 8t-13 8.5q-4 2 -9.5 4.5t-8.5 4t-4 1.5q-18 4 -34 7q-19 3 -35 7l12 43h336q-4 -26 6 -168
l55 -821l555 832q69 100 97 157z" />
    <glyph glyph-name="W.aalt" horiz-adv-x="1751" 
d="M1642 1247l11 43h346l-14 -47q-79 -17 -114 -36q-34 -21 -81 -89l-797 -1132h-78l-26 489l-344 -489h-72l-59 1132q-2 68 -23 91q-21 21 -92 38l10 43h1241l-12 -47q-82 -16 -115 -36t-82 -89l-256 -362l27 -494l594 866q45 64 19 88q-11 12 -42 20q-13 2 -41 11z
M625 1118l45 -848l215 314l-29 534q-4 71 -24 98t-70 27q-55 0 -97 -30q-41 -31 -40 -95zM1208 1243q-63 0 -103 -32t-38 -93l12 -250l181 260q79 115 -52 115z" />
    <glyph glyph-name="i.aalt" horiz-adv-x="548" 
d="M592 1127q-37 -35 -86 -35t-86 35q-37 34 -37 84t37 84q37 35 86 35t86 -35q37 -34 37 -84t-37 -84zM438 322l33 -35q-196 -307 -336 -307q-49 0 -70.5 37.5t-1.5 93.5l213 538q39 99 3 88q-48 -12 -179 -188l-30 35q196 307 333 307q51 0 73 -38t1 -93l-215 -539
q-39 -98 -2 -88q50 13 178 189z" />
    <glyph glyph-name="T_h.dlig" horiz-adv-x="2035" 
d="M1892 899q156 0 148 -176q-6 -125 -90 -302t-200 -308t-202 -131q-39 0 -78 27q-40 25 -40 75q0 35 22 57.5t51 22.5q17 1 30.5 -7.5t21 -22t13.5 -30t9 -30t7 -22t9 -7.5q68 0 156 241q88 240 96 371q6 127 -63 127q-118 0 -285 -240q-166 -241 -268 -544h-162l336 985
q66 240 -170 240h-211l-328 -1012q-31 -96 -2 -125q28 -28 139 -45l-10 -43h-569l12 45q107 17 155 47q48 31 79 127l327 1006h-178q-143 0 -220 -69t-146 -218h-43l135 373l88 -21h889l311 68l20 -31l-223 -670l-94 -217l14 2q134 246 266 351q133 106 248 106z" />
    <glyph glyph-name="f_b.dlig" horiz-adv-x="1628" 
d="M1427 899q85 0 134 -59t49 -164q0 -151 -95 -315q-97 -165 -246 -271q-151 -108 -296 -108q-130 0 -192 83t-25 193l354 1032q0 48 -39.5 75.5t-103.5 27.5q-96 0 -192 -56q-55 -32 -102 -102t-73 -166l-53 -188h225l-29 -82l-217 12l-180 -641q-78 -271 -204 -411
t-289 -140q-87 0 -140 41q-51 40 -51 96q0 39 26.5 64.5t65.5 25.5q44 0 64 -33q20 -31 18 -69q-2 -68 66 -68q70 0 120 65q49 66 99 239l237 839l-215 12l15 50h217q82 290 234 430q151 139 345 139q125 0 223 -50q97 -49 97 -110l-219 -639q179 248 372 248zM999 37
q93 0 197 116q103 116 165 269q62 154 62 268q0 113 -84 113q-80 0 -177 -97t-177 -262l-70 -202q-29 -71 -7 -137q21 -68 91 -68z" />
    <glyph glyph-name="f_h.dlig" horiz-adv-x="1642" 
d="M1499 899q156 0 148 -176q-6 -125 -90 -302t-200 -308t-202 -131q-39 0 -79 27q-40 25 -40 75q0 36 22 58t52 22q17 1 30.5 -7.5t21 -22t13.5 -30t9 -30t7 -22t9 -7.5q68 0 156 241q88 240 96 371q6 127 -63 127q-119 0 -285 -240q-166 -241 -268 -544h-166l440 1290
q0 48 -39.5 75.5t-103.5 27.5q-96 0 -192 -56q-55 -32 -102 -102t-73 -166l-53 -188h225l-29 -82l-217 12l-180 -641q-78 -271 -204 -411t-289 -140q-89 0 -141 41q-50 41 -50 94q0 39 26.5 65.5t65.5 26.5q44 0 64 -33q20 -31 18 -69q-2 -68 66 -68q70 0 120 65
q49 66 99 239l237 839l-215 12l15 50h217q82 290 234 430q151 139 345 139q123 0 225 -50q99 -50 99 -110l-213 -633l-94 -217l14 2q134 246 266 351q133 106 248 106z" />
    <glyph glyph-name="f_j.dlig" horiz-adv-x="1157" 
d="M1278 1290q6 -16 6 -33q0 -47 -35 -79q-35 -33 -82 -33t-81 33q-35 32 -35 79q0 20 6 35q17 55 -3 78t-79 23q-99 0 -199 -60q-57 -34 -103.5 -102.5t-72.5 -161.5l-53 -188h217l-29 -82l-209 12l-180 -641q-78 -271 -204 -411t-289 -140q-89 0 -141 41q-50 41 -50 94
q0 39 26.5 65.5t65.5 26.5q44 0 64 -33q20 -31 18 -69q-2 -68 66 -68q70 0 120 65q49 66 99 239l237 839l-223 12l15 50h225q82 290 240 430q157 139 360 139q118 0 198.5 -44t104.5 -116zM1075 891q51 0 71.5 -38t2.5 -93l-195 -604q-83 -255 -185 -385
q-100 -129 -253 -129q-91 0 -141.5 42.5t-50.5 110.5q0 50 28.5 79.5t71.5 29.5q47 0 67.5 -38t8.5 -104q-14 -65 47 -65q62 0 96 61q36 65 94 242l211 649q29 92 3 91l-13 -5q-48 -26 -166 -186l-31 35q196 307 334 307z" />
    <glyph glyph-name="f_k.dlig" horiz-adv-x="1646" 
d="M954 1450q123 0 225 -50q99 -50 99 -110l-440 -1290h-166l438 1290q0 48 -39.5 75.5t-103.5 27.5q-96 0 -192 -56q-55 -32 -100.5 -102t-72.5 -166l-53 -188h223l-29 -82l-215 12l-180 -641q-78 -271 -204.5 -411t-290.5 -140q-87 0 -140 41q-51 40 -51 96
q0 39 26.5 64.5t65.5 25.5q44 0 64 -33q20 -31 18 -69q-2 -68 66 -68q70 0 121 65q50 65 100 239l237 839l-217 12l15 50h219q80 285 228.5 427t348.5 142zM1724 881l-18 -45q-134 -12 -328 -156l-170 -125l121 -393q22 -71 77 -76q54 -4 112 51l10 -43q-115 -115 -205 -114
q-113 0 -158 151l-110 385l250 178q57 41 77.5 71t3 48t-72.5 23l16 45h395z" />
    <glyph glyph-name="t_t.dlig" horiz-adv-x="1251" 
d="M1296 799l-176 10l-246 -659q-4 -13 -0.5 -17.5t13.5 -1.5q59 13 209 166q17 17 49 51l26 -37q-269 -330 -399 -329q-48 0 -71 47t-3 102l244 668h-457l-241 -649q-4 -13 -1 -17.5t13 -1.5q59 13 209 166q17 17 49 51l27 -37q-269 -330 -400 -329q-48 0 -71 47t-2 102
l251 690l-167 10l14 50h176l82 223l182 20l-90 -243h457l82 223l182 20l-90 -243h178z" />
    <glyph glyph-name="z_z.dlig" horiz-adv-x="1568" 
d="M1334 47q23 23 61 23q39 0 62 -26q22 -25 22 -62q0 -69 -64 -109q-65 -41 -147 -41q-78 0 -157 46q-27 16 -79 46t-79 46q-79 46 -156 46h-9q-1 -79 -82 -132q-80 -52 -169 -52q-71 0 -150 46q-32 19 -162 92q-168 94 -305 -1l-24 31l733 741h-277q-164 0 -241 -170h-45
l131 310h657l-717 -727q85 0 153 -43q70 -45 106 -94q35 -49 84 -95q46 -43 87 -43q43 0 60 38q16 37 -2 85l735 739h-277q-164 0 -241 -170h-45l131 310h657l-717 -727q50 0 94 -15.5t79.5 -46t58 -55.5t49.5 -62q72 -96 131 -96q24 0 31 14t5 38q0 8 -2.5 31t-2.5 30
q0 30 23 55z" />
    <glyph glyph-name="zero.lnum" horiz-adv-x="1169" 
d="M440 -18q-154 0 -234 99q-81 99 -81 269q0 217 100 436q99 220 274 370q176 149 367 149q154 0 235 -99q81 -100 81 -270q1 -191 -83.5 -394.5t-221.5 -347.5q-93 -99 -206.5 -155.5t-230.5 -56.5zM485 53q125 0 245 171q121 173 188 388q67 216 67 377q0 244 -162 244
q-125 0 -245 -171q-120 -168 -188 -387q-68 -218 -68 -378q-1 -244 163 -244z" />
    <glyph glyph-name="one.lnum" horiz-adv-x="702" 
d="M477 0h-534l12 47q98 12 149 35q49 23 68 86l291 899q16 51 5.5 68.5t-54.5 7.5l-101 -23l15 45l364 158l27 -33l-365 -1128q-20 -63 11 -85q29 -22 122 -34z" />
    <glyph glyph-name="two.lnum" horiz-adv-x="1085" 
d="M670 0h-733v55q9 6 55.5 40.5t84.5 62.5q33 24 86 62.5t72 52.5q71 54 152 117q96 75 154 127q63 58 129 124q71 73 110 128q94 136 94 241q0 71 -41.5 112t-121.5 41q-84 0 -192 -53q-107 -53 -206 -180l-37 53q102 158 250 240t289 82q127 0 199 -72q71 -73 71 -191
q0 -227 -233 -429q-110 -96 -216 -172q-111 -79 -249 -167q-150 -98 -213 -145l344 8q116 0 193 43q79 45 166 164l47 -10l-213 -371h-49z" />
    <glyph glyph-name="three.lnum" horiz-adv-x="983" 
d="M221 -25q-103 0 -180 34q-78 35 -78 102q0 86 92 86q58 0 94 -79q15 -33 49.5 -56t82.5 -23q141 0 288 144q146 143 146 284q0 88 -62 132q-64 44 -157 44q-80 0 -203 -43l-4 57l164 68q175 72 285 151q106 76 106 177q0 60 -40 95.5t-108 35.5q-76 0 -175 -42
q-101 -43 -191 -124l-25 53q111 119 239 176q129 58 249 58q113 0 173 -53t60 -148q0 -126 -96 -208q-97 -83 -281 -167q114 4 192 -52q77 -56 77 -173q0 -140 -104 -265q-103 -123 -266 -194q-159 -70 -327 -70z" />
    <glyph glyph-name="four.lnum" horiz-adv-x="991" 
d="M971 1311h57l-283 -865h177l-48 -88h-157l-64 -196q-19 -58 7 -82t110 -37l-12 -43h-498l12 47q87 12 134 36q45 23 65 85l61 190h-469l-14 41zM752 1026l-586 -580h395z" />
    <glyph glyph-name="five.lnum" horiz-adv-x="940" 
d="M1169 1358l-147 -238h-485l-201 -305q269 41 398 -47q130 -88 130 -252q0 -214 -200 -378q-200 -163 -443 -163q-101 0 -179 35q-77 35 -77 107q0 36 22 58t58 22q34 0 60 -23.5t41 -57.5q13 -33 46 -57t78 -24q133 0 259 136q126 137 126 296q0 129 -98 197
q-97 67 -313 22l-25 41l363 563h315q86 0 137 14q50 14 90 54h45z" />
    <glyph glyph-name="six.lnum" horiz-adv-x="1056" 
d="M406 -25q-150 0 -228 89t-78 247q0 224 146 454q146 229 370 377q223 148 449 163l14 -58q-145 -13 -294 -117q-151 -104 -260 -249q-109 -143 -181 -316q-70 -168 -70 -311q0 -99 38 -153t112 -54q145 0 268 173q123 172 123 339q0 184 -182 184q-51 0 -113 -14l17 45
q89 53 198 53q122 0 193 -73t71 -203q0 -218 -182 -397t-411 -179z" />
    <glyph glyph-name="seven.lnum" horiz-adv-x="940" 
d="M494 1290h659l8 -41q-570 -614 -887 -1249h-163q304 525 854 1120h-398q-90 0 -145 -28q-54 -28 -133 -131h-47l221 364h39z" />
    <glyph glyph-name="eight.lnum" horiz-adv-x="1021" 
d="M766 709q164 -95 164 -256q0 -191 -175 -330q-175 -141 -393 -141q-147 0 -233 74t-86 202q0 138 98 253t258 179q-78 85 -77 201q0 168 136 291t316 123q126 0 195 -63.5t69 -168.5q0 -106 -74 -201q-76 -96 -198 -163zM770 1241q-111 0 -189 -90q-79 -89 -79 -193
q0 -125 135 -188l61 -29q99 57 160 154q60 95 60 190q0 72 -38 114t-110 42zM377 47q141 0 250 111q108 110 108 231q0 67 -42 110t-140 93l-47 22q-33 17 -55 31q-129 -61 -202 -163q-73 -103 -73 -224q0 -98 53.5 -154.5t147.5 -56.5z" />
    <glyph glyph-name="nine.lnum" horiz-adv-x="1044" 
d="M776 1305q150 0 227.5 -89t77.5 -247q0 -226 -145 -453q-144 -228 -369 -377q-226 -149 -450 -164l-15 58q143 13 295 118q150 103 261 249q110 146 180 315q69 169 69 311q0 99 -38.5 153t-110.5 54q-145 0 -268 -173q-123 -172 -123 -339q0 -184 182 -184q51 0 113 14
l-17 -45q-89 -53 -199 -53q-122 0 -193 73t-71 203q0 219 183 398q181 178 411 178z" />
    <glyph glyph-name="zero.tnum" horiz-adv-x="1208" 
d="M471 -18q-155 0 -234 99q-81 99 -81 269q0 216 99 436q98 219 275 370q176 149 367 149q154 0 235 -99q80 -101 80 -270q2 -191 -83 -394.5t-222 -347.5q-92 -99 -205.5 -155.5t-230.5 -56.5zM516 53q125 0 245 171q121 173 188 388q67 216 67 377q0 244 -162 244
q-124 0 -246 -171q-120 -168 -188 -387q-68 -218 -68 -378q0 -244 164 -244z" />
    <glyph glyph-name="one.tnum" horiz-adv-x="1208" 
d="M729 0h-534l12 47q98 12 148 35q48 23 69 86l291 899q16 51 5.5 68.5t-54.5 7.5l-101 -23l15 45l364 158l27 -33l-365 -1128q-20 -63 11 -85q29 -22 122 -34z" />
    <glyph glyph-name="two.tnum" horiz-adv-x="1208" 
d="M764 0h-733v55q9 6 55.5 40.5t84.5 62.5q33 24 86 62.5t72 52.5q55 42 153 117q100 78 153 127q63 58 129 124q71 71 111 128q94 138 94 241q0 71 -42 112t-122 41q-84 0 -192 -53t-205 -180l-37 53q102 158 250 240q146 82 288 82q127 0 199 -72t72 -191
q0 -226 -233 -429q-110 -96 -216 -172q-111 -79 -249 -167q-157 -102 -214 -145l344 8q116 0 193 43q78 44 166 164l47 -10l-213 -371h-49z" />
    <glyph glyph-name="three.tnum" horiz-adv-x="1208" 
d="M338 -25q-103 0 -180 34q-78 35 -78 102q0 86 92 86q58 0 94 -79q15 -33 49 -56t82 -23q141 0 288 144q146 143 146 284q0 88 -62 132t-157 44q-79 0 -202 -43l-4 57l163 68q175 72 285 151q107 77 107 177q0 60 -40 95.5t-108 35.5q-76 0 -175 -42q-100 -42 -192 -124
l-24 53q111 119 239 176q129 58 248 58q113 0 173.5 -53t60.5 -148q0 -126 -96 -208q-100 -85 -281 -167q114 4 192 -52q76 -55 76 -173q0 -140 -104 -265q-104 -123 -265 -194q-159 -70 -327 -70z" />
    <glyph glyph-name="four.tnum" horiz-adv-x="1208" 
d="M1063 1311h57l-282 -865h176l-47 -88h-158l-64 -196q-19 -58 7 -82t110 -37l-12 -43h-498l13 47q88 12 133 36q45 23 65 85l62 190h-469l-15 41zM844 1026l-586 -580h395z" />
    <glyph glyph-name="five.tnum" horiz-adv-x="1208" 
d="M1282 1358l-147 -238h-486l-200 -305q269 41 398 -47q130 -88 130 -252q0 -214 -201 -378q-200 -163 -442 -163q-101 0 -179 35q-77 35 -77 107q0 36 22 58t58 22q34 0 60 -24t40 -57q13 -33 47 -57t78 -24q133 0 259 136q126 137 126 296q0 129 -98 197q-99 67 -314 22
l-24 41l362 563h316q86 0 137 14q49 14 90 54h45z" />
    <glyph glyph-name="six.tnum" horiz-adv-x="1208" 
d="M479 -25q-150 0 -227.5 89t-77.5 247q0 224 146 454q146 229 369 377t450 163l14 -58q-145 -13 -294 -117q-150 -104 -261 -249q-110 -144 -180 -316q-70 -168 -70 -311q0 -99 38 -153t112 -54q145 0 268 173q123 172 123 339q0 184 -182 184q-51 0 -113 -14l16 45
q89 53 199 53q122 0 193 -73t71 -203q0 -218 -182 -397q-184 -179 -412 -179z" />
    <glyph glyph-name="seven.tnum" horiz-adv-x="1208" 
d="M612 1290h660l8 -41q-570 -614 -887 -1249h-164q304 525 854 1120h-397q-90 0 -145 -28q-57 -29 -133 -131h-48l222 364h39z" />
    <glyph glyph-name="eight.tnum" horiz-adv-x="1208" 
d="M850 709q164 -95 164 -256q0 -191 -175 -330q-175 -141 -393 -141q-147 0 -233 74t-86 202q0 138 98 253t258 179q-78 85 -77 201q0 168 136 291t316 123q126 0 195 -63.5t69 -168.5q0 -106 -74 -201q-76 -96 -198 -163zM854 1241q-111 0 -189 -90q-79 -89 -79 -193
q0 -125 135 -188l61 -29q99 57 160 154q59 95 59 190q0 72 -37.5 114t-109.5 42zM461 47q141 0 250 111q108 110 108 231q0 67 -42 110t-140 93l-47 22q-33 17 -55 31q-129 -61 -202 -163q-73 -103 -73 -224q0 -98 53.5 -154.5t147.5 -56.5z" />
    <glyph glyph-name="nine.tnum" horiz-adv-x="1208" 
d="M889 1305q150 0 227.5 -89t77.5 -247q0 -226 -145 -453q-144 -227 -370 -377q-224 -149 -450 -164l-14 58q143 13 295 118q150 104 260 249q110 144 181 315q69 169 69 311q0 99 -38 153t-112 54q-145 0 -268 -173q-123 -172 -123 -339q0 -184 183 -184q51 0 112 14
l-16 -45q-89 -53 -199 -53q-122 0 -193 73t-71 203q0 219 183 398q181 178 411 178z" />
    <glyph glyph-name="zero.dnom" horiz-adv-x="544" 
d="M125 -20q-62 0 -97.5 42.5t-35.5 114.5q0 136 88 252q89 117 209 117q63 0 98 -42.5t35 -117.5q0 -134 -88 -249q-88 -117 -209 -117zM139 12q70 0 133 141q62 141 62 236q0 84 -58 84q-70 0 -132 -138q-62 -139 -62 -239q0 -84 57 -84z" />
    <glyph glyph-name="one.dnom" horiz-adv-x="395" 
d="M174 0h-231l6 23q76 7 90 55l98 301q9 23 5.5 39t-17.5 14l-39 -6l8 23l162 67l12 -12l-139 -432q-8 -25 3 -35t48 -14z" />
    <glyph glyph-name="two.dnom" horiz-adv-x="509" 
d="M264 0h-323l2 31q2 2 29.5 21.5t52.5 36.5q3 2 100 73q45 33 86 70q94 84 94 151q0 27 -17.5 48.5t-49.5 21.5q-70 0 -152 -97l-10 37q82 123 209 123q54 0 84 -30.5t30 -82.5q0 -58 -43 -114q-43 -58 -85 -88q-29 -22 -119 -80q-78 -49 -93 -60l119 9q87 0 146 86
l22 -13z" />
    <glyph glyph-name="three.dnom" horiz-adv-x="477" 
d="M41 -20q-46 0 -77.5 12.5t-31.5 36.5q0 19 13 31t30 12q16 0 37 -32q20 -32 51 -32q59 0 110 53q50 53 50 111q0 72 -86 72q-33 0 -71 -15l-3 25l66 25q78 29 112.5 56.5t34.5 70.5t-59 43q-76 0 -135 -56l-12 17q90 96 200 96q94 0 95 -76q0 -86 -150 -147
q105 -7 107 -93q0 -81 -90 -145q-92 -65 -191 -65z" />
    <glyph glyph-name="four.dnom" horiz-adv-x="446" 
d="M274 504h86l-106 -328h68l-21 -41h-61l-23 -69q-8 -24 2.5 -32.5t50.5 -13.5l-6 -20h-229l8 20q43 4 58.5 12.5t23.5 33.5l22 69h-198l6 41zM246 436l-254 -260h170z" />
    <glyph glyph-name="five.dnom" horiz-adv-x="477" 
d="M420 516l-64 -100h-188l-66 -103q223 13 224 -102q0 -89 -91 -159q-91 -72 -194 -72q-109 0 -109 49q0 16 13.5 29.5t29.5 13.5q18 0 38 -32t55 -32q54 0 104 53q49 52 49 109q0 88 -176 76l-8 16l147 230h123q72 0 96 24h17z" />
    <glyph glyph-name="six.dnom" horiz-adv-x="550" 
d="M143 -20q-65 0 -99 34t-34 95q0 135 128 261q127 125 270 136l4 -27q-118 -12 -216 -140t-98 -251q0 -78 60 -78t103 72q44 73 44 135q0 81 -106 74l8 26q78 22 136 -3q58 -27 58 -95q0 -90 -81 -164q-81 -75 -177 -75z" />
    <glyph glyph-name="seven.dnom" horiz-adv-x="440" 
d="M166 504h246l4 -12q-232 -258 -359 -492h-59q116 195 334 436h-152q-39 0 -61.5 -11t-48.5 -48h-17l82 135z" />
    <glyph glyph-name="eight.dnom" horiz-adv-x="528" 
d="M391 377q-20 -59 -96 -107q86 -47 55 -137q-22 -70 -89 -111q-66 -42 -148 -42q-79 0 -116.5 39t-16.5 104q32 85 122 129q-35 47 -14 110q18 58 75 98q55 40 124 40q62 0 91 -36.5t13 -86.5zM332 375q14 32 1 61q-14 29 -59 29q-78 0 -102 -74q-19 -57 51 -88l41 -18
q51 34 68 90zM254 102q10 35 -2 53.5t-57 41.5l-45 20q-13 6 -23 14q-64 -38 -86 -102q-16 -52 7 -83.5t81 -31.5q97 0 125 88z" />
    <glyph glyph-name="nine.dnom" horiz-adv-x="540" 
d="M272 498q65 0 99.5 -34.5t34.5 -94.5q0 -135 -128 -261q-128 -127 -270 -137l-4 27q118 12 216 140q97 127 97 251q0 78 -59 78t-103 -71q-44 -73 -44 -136q0 -81 106 -74l-8 -26q-78 -23 -136 4q-59 26 -59 94q0 90 81 165t177 75z" />
    <glyph glyph-name="zero.numr" horiz-adv-x="544" 
d="M391 797q-62 0 -97.5 42.5t-35.5 114.5q0 136 88 252q88 117 209 117q63 0 98 -42.5t35 -117.5q0 -134 -88 -249q-88 -117 -209 -117zM406 829q70 0 132 141t62 236q0 84 -57 84q-71 0 -132 -138q-63 -138 -63 -239q2 -84 58 -84z" />
    <glyph glyph-name="one.numr" horiz-adv-x="397" 
d="M440 815h-231l6 23q76 7 90 55l98 301q9 23 6 39t-18 14l-39 -6l8 23l162 67l13 -12l-140 -432q-8 -24 3 -34.5t48 -14.5z" />
    <glyph glyph-name="two.numr" horiz-adv-x="509" 
d="M524 805h-323l2 31q6 4 16.5 11.5t30.5 21.5t35 25q3 2 100 73q45 33 86 70q94 84 94 151q0 27 -17.5 48t-49.5 21q-70 0 -152 -96l-10 37q82 123 209 123q54 0 84 -30.5t30 -82.5q0 -58 -43 -114q-43 -58 -85 -88q-29 -22 -119 -80q-78 -50 -93 -60l119 8q88 0 146 87
l22 -13z" />
    <glyph glyph-name="three.numr" horiz-adv-x="477" 
d="M303 786q-45 0 -76.5 13t-31.5 37q0 19 13 31t30 12q16 0 36 -32t52 -32q59 0 109 53t50 111q0 72 -86 72q-33 0 -71 -15l-2 25l65 24q78 29 113 57t35 70q0 43 -60 43q-77 0 -135 -55l-12 17q90 96 200 96q94 0 95 -76q0 -85 -150 -147q105 -7 107 -93q0 -81 -90 -145
q-92 -66 -191 -66z" />
    <glyph glyph-name="four.numr" horiz-adv-x="446" 
d="M535 1305h86l-107 -328h68l-21 -41h-61l-23 -70q-8 -24 3 -32.5t50 -12.5l-6 -20h-229l8 20q43 4 58.5 12.5t23.5 32.5l23 70h-199l6 41zM506 1237l-254 -260h170z" />
    <glyph glyph-name="five.numr" horiz-adv-x="477" 
d="M686 1335l-63 -100h-189l-65 -102q223 13 223 -103q0 -89 -91 -159q-91 -72 -194 -72q-55 0 -82 12t-26 37q0 16 13 29.5t30 13.5q18 0 38 -32t54 -32q54 0 104 53q49 52 49 109q0 88 -176 76l-8 16l148 230h122q71 0 97 24h16z" />
    <glyph glyph-name="six.numr" horiz-adv-x="550" 
d="M406 784q-65 0 -99.5 34.5t-34.5 94.5q0 135 128 261q128 127 270 137l4 -27q-118 -12 -216 -140t-98 -251q0 -78 60 -78t103 72q44 71 44 135q0 81 -106 74l8 26q78 23 137 -3q58 -27 58 -95q0 -90 -81 -165t-177 -75z" />
    <glyph glyph-name="seven.numr" horiz-adv-x="440" 
d="M430 1319h246l4 -12q-230 -255 -358 -492h-60q116 195 334 436h-152q-39 0 -61.5 -11t-48.5 -48h-17l82 135z" />
    <glyph glyph-name="eight.numr" horiz-adv-x="530" 
d="M657 1192q-20 -59 -96 -107q86 -47 55 -137q-22 -70 -89 -111q-66 -42 -148 -42q-79 0 -116.5 39t-16.5 104q32 84 123 129q-35 47 -15 111q18 56 75 97q55 40 124 40q62 0 91 -36.5t13 -86.5zM598 1190q14 32 1 61q-14 29 -58 29q-77 0 -103 -74q-19 -57 51 -88l41 -18
q51 34 68 90zM520 918q10 35 -1.5 52.5t-57.5 41.5l-45 20q-15 7 -23 15q-64 -38 -86 -103q-16 -52 7 -83.5t81 -31.5q97 2 125 89z" />
    <glyph glyph-name="nine.numr" horiz-adv-x="540" 
d="M535 1305q65 0 99 -34.5t34 -94.5q0 -135 -128 -261q-126 -126 -270 -137l-4 27q119 12 217 140q97 127 97 251q0 78 -59 78q-60 0 -104 -72q-44 -73 -44 -135q0 -81 106 -74l-8 -26q-78 -23 -136 4q-59 26 -59 94q0 90 82 165q81 75 177 75z" />
    </font>
</defs>
</svg>
