<?xml version="1.0" standalone="no"?>
<!DOCTYPE svg PUBLIC "-//W3C//DTD SVG 1.1//EN" "http://www.w3.org/Graphics/SVG/1.1/DTD/svg11.dtd" >
<svg xmlns="http://www.w3.org/2000/svg" xmlns:xlink="http://www.w3.org/1999/xlink" version="1.1">
<metadata>
Created by FontForge 20170731 at Tue Dec 27 15:46:15 2022
 By Aleksey,,,
Copyright (c) 2008 by TypeTogether. All rights reserved.
</metadata>
<defs>
<font id="Bree-Bold" horiz-adv-x="1095" >
  <font-face 
    font-family="Bree Rg"
    font-weight="700"
    font-stretch="normal"
    units-per-em="2048"
    panose-1="2 0 8 6 0 0 0 2 0 4"
    ascent="1475"
    descent="-573"
    x-height="1049"
    cap-height="1362"
    bbox="-229 -592 2048 1921"
    underline-thickness="102"
    underline-position="-307"
    unicode-range="U+000D-FB04"
  />
<missing-glyph horiz-adv-x="1024" 
 />
    <glyph glyph-name="ff" unicode="ff" horiz-adv-x="1312" 
d="M451 780v-1210h-342v1499q0 67 6.5 118.5t30.5 108.5t64.5 94.5t114 62t173.5 24.5q69 0 154 -21t151 -53q98 74 268 74q76 0 168.5 -22t155.5 -56l-76 -221q-41 21 -96.5 35t-89.5 14q-53 0 -79 -28.5t-26 -92.5v-57h283v-269h-283v-1210h-342v1210h-235zM451 1106v-57
h235v20q0 73 10 127q-91 31 -137 31q-55 0 -81.5 -28t-26.5 -93z" />
    <glyph glyph-name="fi" unicode="fi" horiz-adv-x="1112" 
d="M451 780v-1210h-342v1499q0 64 9 118t36.5 109.5t72 93.5t120.5 62.5t177 24.5q106 0 223 -28.5t187 -64.5l-78 -221q-60 26 -135 45t-121 19q-74 0 -111.5 -28t-37.5 -93v-57h567v-1049h-344v780h-223z" />
    <glyph glyph-name="fl" unicode="fl" horiz-adv-x="1290" 
d="M451 780v-1210h-342v1499q0 65 9 118t37.5 109t74.5 94t126.5 62.5t188.5 24.5q207 0 481 -82v-1026q0 -70 19.5 -101.5t66.5 -31.5q46 0 121 32l74 -227q-55 -34 -135 -54t-150 -20q-54 0 -98.5 8t-77.5 21t-59 35.5t-43 44t-29 54.5t-18.5 59.5t-10 66t-4 66.5t-0.5 69
v389h-231zM451 1106v-57h231v155q-68 23 -123 23t-81.5 -28t-26.5 -93z" />
    <glyph glyph-name="ffi" unicode="ffi" horiz-adv-x="1679" 
d="M1018 780v-1210h-342v1210h-225v-1210h-342v1499q0 67 6.5 118.5t30.5 108.5t64.5 94.5t114 62t173.5 24.5q177 0 323 -68q101 68 271 68q106 0 222.5 -28.5t186.5 -64.5l-78 -221q-60 26 -135 45t-121 19q-74 0 -111.5 -28t-37.5 -93v-57h567v-1049h-344v780h-223z
M451 1106v-57h225v20q0 77 12 129q-89 29 -129 29q-55 0 -81.5 -28t-26.5 -93z" />
    <glyph glyph-name="ffl" unicode="ffl" horiz-adv-x="1863" 
d="M1024 780v-1210h-342v1210h-231v-1210h-342v1499q0 67 6.5 118.5t30.5 108.5t64.5 94.5t114 62t173.5 24.5q173 0 331 -70q107 70 289 70q207 0 481 -82v-1026q0 -70 20 -101.5t67 -31.5q45 0 120 32l74 -227q-55 -34 -135 -54t-150 -20q-54 0 -98.5 8t-77.5 21t-59 35.5
t-43 44t-29 54.5t-18.5 59.5t-10 66t-4 66.5t-0.5 69v389h-231zM451 1106v-57h231v20q0 74 10 125q-90 33 -133 33q-55 0 -81.5 -28t-26.5 -93zM1024 1106v-57h231v155q-68 23 -122 23q-55 0 -82 -28t-27 -93z" />
    <glyph glyph-name="tt" unicode="tt" horiz-adv-x="1349" 
d="M705 1423h346v-374h256v-269h-256v-413q0 -79 32.5 -110.5t90.5 -31.5q46 0 110 33l74 -215q-50 -32 -129 -54t-162 -22q-57 0 -104 7.5t-82 20t-62.5 33.5t-46 41.5t-31.5 51.5t-20 57t-10.5 63.5t-4.5 65t-1 68.5v405h-256v-430q0 -66 16.5 -98.5t60.5 -32.5
q43 0 103 25l73 -215q-44 -26 -118 -44t-140 -18q-67 0 -120 12.5t-88.5 32t-61 52t-39.5 64t-21.5 77.5t-9.5 82.5t-2 87.5v1048h347v-374h256v374z" />
    <glyph glyph-name=".notdef" horiz-adv-x="1024" 
 />
    <glyph glyph-name=".null" horiz-adv-x="0" 
 />
    <glyph glyph-name=".null" horiz-adv-x="0" 
 />
    <glyph glyph-name="nonmarkingreturn" horiz-adv-x="682" 
 />
    <glyph glyph-name="CR" unicode="&#xd;" horiz-adv-x="450" 
 />
    <glyph glyph-name="space" unicode=" " horiz-adv-x="409" 
 />
    <glyph glyph-name="exclam" unicode="!" horiz-adv-x="544" 
d="M123 1083v217q0 55 36 89t111 34q79 0 115.5 -34t36.5 -91v-215l-49 -682h-199zM96 129q0 65 47 112.5t121 47.5q82 0 128 -44.5t46 -115.5q0 -67 -45 -115.5t-123 -48.5q-83 0 -128.5 46.5t-45.5 117.5z" />
    <glyph glyph-name="quotedbl" unicode="&#x22;" horiz-adv-x="712" 
d="M92 1362h230l-23 -483h-186zM391 1362h230l-23 -483h-186z" />
    <glyph glyph-name="numbersign" unicode="#" horiz-adv-x="1083" 
d="M575 0l27 311h-194l-27 -311h-176l26 311h-182v164h195l26 285h-182v164h197l28 315h176l-28 -315h192l31 315h176l-29 -315h185v-164h-199l-24 -285h184v-164h-199l-26 -311h-177zM446 760l-24 -285h192l27 285h-195z" />
    <glyph glyph-name="dollar" unicode="$" 
d="M729 1530v-203q182 -45 318 -178l-183 -211q-91 67 -159 100t-134 33q-50 0 -79 -25.5t-29 -72.5q0 -28 13.5 -50t46 -41t65 -32.5t92.5 -34.5q57 -19 99.5 -38t91.5 -52t80.5 -72.5t53 -99t21.5 -131.5q0 -152 -80 -252.5t-217 -142.5v-228h-317v209q-112 18 -212.5 56
t-158.5 79l119 269q79 -50 184.5 -88.5t187.5 -38.5q61 0 94 29t33 79q0 30 -12.5 53t-40.5 40.5t-56.5 29.5t-76.5 27q-46 14 -72.5 23.5t-70.5 28.5t-71 38t-60 49.5t-51 65.5t-31 84t-13 106q0 145 82.5 247.5t225.5 139.5v205h317z" />
    <glyph glyph-name="percent" unicode="%" horiz-adv-x="1677" 
d="M1284 713q149 0 236.5 -91.5t87.5 -275.5q0 -192 -88.5 -285.5t-247.5 -93.5q-322 0 -322 373q0 185 91 279t243 94zM1274 127q49 0 74.5 46.5t25.5 166.5q0 118 -24 164.5t-70 46.5q-49 0 -73.5 -49t-24.5 -172q0 -203 92 -203zM406 1346q149 0 236 -92t87 -277
q0 -191 -88.5 -284t-247.5 -93q-321 0 -321 373q0 185 91 279t243 94zM395 760q49 0 75 47t26 166q0 117 -24.5 164t-70.5 47q-49 0 -73.5 -49t-24.5 -172q0 -203 92 -203zM645 -29l-211 90l598 1282l215 -88z" />
    <glyph glyph-name="ampersand" unicode="&#x26;" horiz-adv-x="1701" 
d="M1630 1219q-65 -217 -162 -366.5t-247 -240.5h374v-258h-200q-66 -125 -152.5 -208t-215.5 -130t-296 -47q-132 0 -237.5 32t-176 87t-117 132.5t-67 165t-20.5 187.5q0 90 19 173t61.5 159t104.5 132t154.5 89t204.5 33q156 0 247 -66t91 -180q0 -103 -69 -196
q96 62 177 164.5t132 207.5t88 222zM770 254q41 0 85 11t90.5 35.5t85 59.5t67.5 88t39 117q-248 -115 -660 -112q40 -199 293 -199zM623 909q-66 0 -114 -72t-48 -186q106 7 175 57t69 115q0 86 -82 86z" />
    <glyph glyph-name="quotesingle" unicode="'" horiz-adv-x="413" 
d="M92 1362h230l-23 -483h-186z" />
    <glyph glyph-name="parenleft" unicode="(" horiz-adv-x="673" 
d="M100 532q0 245 76 502t213 484l268 -117q-217 -436 -217 -846q0 -215 54.5 -412t164.5 -422l-264 -131q-295 463 -295 942z" />
    <glyph glyph-name="parenright" unicode=")" horiz-adv-x="673" 
d="M573 594q0 -245 -76 -501.5t-212 -483.5l-269 117q217 436 217 845q0 215 -54.5 412t-164.5 422l265 131q294 -462 294 -942z" />
    <glyph glyph-name="asterisk" unicode="*" horiz-adv-x="917" 
d="M498 1110q60 -3 126 -28.5t103 -69.5q45 -53 45 -94t-45 -80q-91 -77 -178 30q-66 79 -51 242zM512 1161q23 55 69.5 108.5t100.5 73.5q64 24 103.5 10.5t60.5 -69.5q39 -110 -90 -156q-96 -36 -244 33zM424 1110q15 -163 -51 -242q-85 -105 -178 -30q-45 40 -45 80.5
t45 93.5q37 44 103 69.5t126 28.5zM406 1161q-148 -69 -244 -33q-129 46 -90 156q21 56 60.5 69.5t103.5 -10.5q54 -20 100.5 -73.5t69.5 -108.5zM459 1204q-113 113 -113 217q0 138 115 138q59 0 85.5 -32t26.5 -102q0 -57 -35 -119.5t-79 -101.5z" />
    <glyph glyph-name="plus" unicode="+" 
d="M408 772v301h280v-301h277v-274h-277v-297h-280v297h-277v274h277z" />
    <glyph glyph-name="comma" unicode="," horiz-adv-x="479" 
d="M451 154l-252 -516l-162 51q30 339 65 467q16 54 46 81t85 27q58 0 121.5 -36.5t96.5 -73.5z" />
    <glyph glyph-name="hyphen" unicode="-" horiz-adv-x="659" 
d="M61 455v252h537v-252h-537z" />
    <glyph glyph-name="period" unicode="." horiz-adv-x="475" 
d="M68 129q0 70 44.5 116t120.5 46q84 0 129.5 -43t45.5 -117q0 -72 -44 -118t-124 -46q-84 0 -128 44.5t-44 117.5z" />
    <glyph glyph-name="slash" unicode="/" horiz-adv-x="946" 
d="M317 -244l-288 105l598 1712l293 -103z" />
    <glyph glyph-name="zero" unicode="0" 
d="M555 1346q492 0 492 -674q0 -360 -127.5 -525t-376.5 -165q-251 0 -372.5 166t-121.5 518q0 344 135 512t371 168zM547 252q37 0 64 19t49 64.5t33.5 129t11.5 203.5q0 114 -11 193t-32 123.5t-48 63.5t-63 19q-52 0 -85 -36t-53 -131.5t-20 -254.5q0 -393 154 -393z" />
    <glyph glyph-name="one" unicode="1" horiz-adv-x="1005" 
d="M186 258h224v686l-215 -108l-127 225l421 258h285l-20 -252v-809h213v-258h-781v258z" />
    <glyph glyph-name="two" unicode="2" horiz-adv-x="1067" 
d="M231 893l-188 227q104 104 234.5 165t265.5 61q206 0 315 -103.5t109 -279.5q0 -111 -43.5 -204t-137.5 -198l-254 -285h476v-276h-955v207l424 479q72 82 99.5 129t27.5 109q0 55 -33 83.5t-82 28.5q-53 0 -121.5 -39t-136.5 -104z" />
    <glyph glyph-name="three" unicode="3" horiz-adv-x="1056" 
d="M211 928l-164 221q33 30 75 58.5t108 62.5t153 55t180 21q178 0 279.5 -90.5t101.5 -231.5q0 -179 -160 -291q85 -69 132 -158.5t47 -183.5q0 -82 -28 -154t-84.5 -130t-151 -91.5t-216.5 -33.5q-118 0 -237.5 31t-200.5 75l92 270q72 -37 169.5 -63.5t158.5 -26.5
q69 0 110 27t41 80q0 78 -81 178q-100 -33 -222 -55l-80 247q85 18 141.5 33.5t112 39.5t82.5 56.5t27 73.5q0 54 -30.5 78.5t-78.5 24.5q-54 0 -129.5 -35.5t-146.5 -87.5z" />
    <glyph glyph-name="four" unicode="4" horiz-adv-x="1138" 
d="M727 883h195v-328h170v-270h-170v-285h-344v289h-504v221l395 850l272 -135l-317 -670h182z" />
    <glyph glyph-name="five" unicode="5" horiz-adv-x="1071" 
d="M154 594l90 725h712v-281h-448l-25 -213q106 -13 190.5 -42.5t151.5 -79t103.5 -126.5t36.5 -176q0 -62 -17 -121t-54.5 -113.5t-93.5 -95t-139.5 -65t-185.5 -24.5q-123 0 -238.5 29t-201.5 73l102 266q176 -88 316 -88q76 0 116.5 36.5t40.5 104.5q0 191 -456 191z" />
    <glyph glyph-name="six" unicode="6" horiz-adv-x="1093" 
d="M791 1382l67 -254q-363 -53 -422 -333q39 24 105.5 40.5t120.5 16.5q170 0 261 -105t91 -294q0 -219 -119 -346t-346 -127q-124 0 -215 42t-145.5 122t-80.5 185.5t-26 241.5q0 79 9.5 153t32.5 152t58.5 145.5t91.5 129.5t128 108.5t171.5 79t217.5 43.5zM680 436
q0 87 -30.5 132.5t-86.5 45.5q-36 0 -78 -12.5t-69 -28.5q-2 -166 29 -248.5t104 -82.5q60 0 95.5 48t35.5 146z" />
    <glyph glyph-name="seven" unicode="7" horiz-adv-x="1007" 
d="M66 1038v281h933v-225q-84 -68 -151 -149.5t-109.5 -155t-73 -160t-45.5 -149.5t-23.5 -141t-9.5 -117t-1 -93v-129h-361v145q0 82 5.5 153t25.5 170t54 187t97.5 190t149.5 193h-491z" />
    <glyph glyph-name="eight" unicode="8" horiz-adv-x="1101" 
d="M82 340q0 193 213 354q-174 123 -174 291q0 160 120.5 260.5t327.5 100.5q108 0 190 -26t129 -72t70 -101.5t23 -120.5q0 -154 -164 -307q219 -151 219 -348q0 -80 -29 -149t-87 -123.5t-154 -85.5t-221 -31q-106 0 -188.5 21.5t-133.5 56.5t-83.5 83t-45 96t-12.5 101z
M674 365q0 90 -154 186q-112 -92 -112 -193q0 -53 33.5 -89t97.5 -36q63 0 99 36t36 96zM559 1112q-46 0 -80.5 -28t-34.5 -76q0 -52 32.5 -89.5t94.5 -78.5q105 93 105 172q0 55 -34 77.5t-83 22.5z" />
    <glyph glyph-name="nine" unicode="9" 
d="M303 -27l-67 256q89 14 157 36t125 57.5t93 89.5t51 125q-101 -62 -230 -62q-170 0 -261 104.5t-91 292.5q0 218 122.5 346t350.5 128q122 0 211.5 -42t143 -121.5t79 -185t25.5 -241.5q0 -114 -18 -212.5t-67 -198.5t-126.5 -173.5t-204.5 -127.5t-293 -71zM412 889
q0 -87 31 -134.5t87 -47.5q31 0 76.5 14.5t71.5 32.5q1 109 -11.5 180.5t-42.5 111t-79 39.5q-60 0 -96.5 -49t-36.5 -147z" />
    <glyph glyph-name="colon" unicode=":" horiz-adv-x="475" 
d="M68 129q0 70 44.5 116t120.5 46q84 0 129.5 -43t45.5 -117q0 -72 -44 -118t-124 -46q-84 0 -128 44.5t-44 117.5zM68 856q0 70 44.5 116t120.5 46q84 0 129.5 -43t45.5 -117q0 -72 -44 -118t-124 -46q-84 0 -128 44.5t-44 117.5z" />
    <glyph glyph-name="semicolon" unicode=";" horiz-adv-x="479" 
d="M111 856q0 70 44.5 116t120.5 46q84 0 129.5 -43t45.5 -117q0 -72 -44 -118t-124 -46q-84 0 -128 44.5t-44 117.5zM451 154l-252 -516l-162 51q30 339 65 467q16 54 46 81t85 27q58 0 121.5 -36.5t96.5 -73.5z" />
    <glyph glyph-name="less" unicode="&#x3c;" 
d="M891 1139l115 -252l-496 -228l498 -245l-117 -256l-768 393v201z" />
    <glyph glyph-name="equal" unicode="=" 
d="M963 971v-273h-830v273h830zM963 537v-273h-830v273h830z" />
    <glyph glyph-name="greater" unicode="&#x3e;" 
d="M240 158l-115 252l496 227l-498 246l117 256l768 -394v-200z" />
    <glyph glyph-name="question" unicode="?" horiz-adv-x="829" 
d="M96 129q0 65 47 112.5t121 47.5q82 0 128 -44.5t46 -115.5q0 -67 -45 -115.5t-123 -48.5q-83 0 -128.5 46.5t-45.5 117.5zM424 1067q0 113 -121 113q-63 0 -176 -31l-47 225q43 19 126.5 34t160.5 15q98 0 171.5 -22.5t114 -55.5t65.5 -78t32.5 -80.5t7.5 -72.5
q0 -62 -14 -114t-34.5 -88t-60.5 -74t-74 -63t-94 -64q-46 -30 -66 -68.5t-20 -95.5v-146h-256q-20 147 -20 228q0 62 12.5 106.5t42 78t51.5 49.5t68 45q11 7 16 10q60 37 87.5 68t27.5 81z" />
    <glyph glyph-name="at" unicode="@" horiz-adv-x="1945" 
d="M1585 567q0 258 -141 402.5t-424 144.5q-161 0 -287 -51t-204 -141.5t-118 -210t-40 -260.5q0 -137 36 -254t104.5 -204.5t175.5 -137.5t241 -50q164 0 291 54l59 -193q-148 -63 -356 -63q-164 0 -298 45.5t-225.5 123.5t-153.5 185.5t-90 228.5t-28 256
q0 207 70.5 375.5t192.5 278.5t285 169.5t351 59.5q135 0 254 -29t218 -89.5t170.5 -147.5t111 -207.5t39.5 -265.5q0 -278 -138.5 -432t-361.5 -154h-168l-16 102l-11 2q-23 -31 -44.5 -50.5t-66.5 -37.5t-102 -18q-315 0 -315 410q0 222 115 351.5t329 129.5
q62 0 151.5 -15.5t166.5 -46.5v-637q98 3 162.5 95t64.5 282zM1087 686q-33 10 -77 10q-42 0 -72.5 -27t-45.5 -70.5t-21.5 -86t-6.5 -86.5q0 -229 121 -229q30 0 50.5 10t30.5 21.5t15 36.5t5.5 38.5t0.5 44.5v338z" />
    <glyph glyph-name="A" unicode="A" horiz-adv-x="1325" 
d="M346 0h-338l443 1362h395l471 -1362h-375l-92 291h-412zM639 1034l-141 -485h286l-137 485h-8z" />
    <glyph glyph-name="B" unicode="B" horiz-adv-x="1214" 
d="M115 1362h522q78 0 142.5 -9.5t125 -33.5t101.5 -63t65.5 -101t24.5 -143q0 -86 -42 -157.5t-112 -121.5q221 -88 221 -313q0 -204 -143 -312t-412 -108h-493v1362zM467 575v-307h131q103 0 148 41t45 119q0 74 -47.5 110.5t-135.5 36.5h-141zM467 1106v-281h100
q85 0 128.5 40t43.5 104q0 137 -159 137h-113z" />
    <glyph glyph-name="C" unicode="C" horiz-adv-x="1214" 
d="M719 264q142 0 287 135l178 -229q-110 -101 -226.5 -148t-257.5 -47q-293 0 -461.5 179t-168.5 516q0 131 26 240t72.5 185.5t107 134t134 91t148 49.5t153.5 16q145 0 272 -68t221 -214l-250 -180q-123 170 -260 170q-119 0 -190.5 -104t-71.5 -300q0 -201 71 -313.5
t216 -112.5z" />
    <glyph glyph-name="D" unicode="D" horiz-adv-x="1323" 
d="M115 0v1362h477q314 0 487.5 -158.5t173.5 -476.5q0 -155 -35.5 -279.5t-95.5 -207t-144.5 -137.5t-178 -79t-199.5 -24h-485zM467 1087v-815h137q140 0 218.5 107t78.5 313q0 114 -25 194t-71.5 122.5t-100.5 60.5t-122 18h-115z" />
    <glyph glyph-name="E" unicode="E" horiz-adv-x="1081" 
d="M115 0v1362h891v-307h-539v-207h463v-307h-463v-234h553v-307h-905z" />
    <glyph glyph-name="F" unicode="F" horiz-adv-x="1103" 
d="M115 1362h940v-307h-588v-224h487v-307h-487v-524h-352v1362z" />
    <glyph glyph-name="G" unicode="G" horiz-adv-x="1310" 
d="M1206 702v-587q-89 -64 -223 -102t-285 -38q-295 0 -461.5 178t-166.5 525q0 153 37 276.5t98 202.5t143.5 132t168.5 75t179 22q72 0 134.5 -11.5t130 -39.5t131.5 -83t120 -136l-256 -188q-67 88 -130 126t-134 38q-122 0 -191 -101t-69 -293q0 -440 277 -440
q34 0 77 7.5t66 17.5v419h354z" />
    <glyph glyph-name="H" unicode="H" horiz-adv-x="1366" 
d="M897 1362h354v-1362h-354v528h-430v-528h-352v1362h352v-524h430v524z" />
    <glyph glyph-name="I" unicode="I" horiz-adv-x="598" 
d="M475 0h-352v1362h352v-1362z" />
    <glyph glyph-name="J" unicode="J" horiz-adv-x="907" 
d="M4 76l98 260q110 -66 201 -66q146 0 146 162v930h352v-899q0 -135 -13 -199q-29 -134 -139 -211.5t-270 -77.5q-100 0 -204 29.5t-171 71.5z" />
    <glyph glyph-name="K" unicode="K" horiz-adv-x="1220" 
d="M1227 1362l-391 -563l397 -799h-402l-245 504l-121 -166v-338h-350v1362h350v-549l373 549h389z" />
    <glyph glyph-name="L" unicode="L" horiz-adv-x="1054" 
d="M115 0v1362h354v-1053h543v-309h-897z" />
    <glyph glyph-name="M" unicode="M" horiz-adv-x="1603" 
d="M813 588l277 774h362l72 -1362h-336l-39 719h-6l-219 -582h-246l-217 561h-8l-39 -698h-334l78 1362h366l281 -774h8z" />
    <glyph glyph-name="N" unicode="N" horiz-adv-x="1357" 
d="M893 1362h350v-1362h-311l-463 756h-6v-756h-348v1362h325l449 -741h4v741z" />
    <glyph glyph-name="O" unicode="O" horiz-adv-x="1363" 
d="M1292 678q0 -341 -165.5 -522t-450.5 -181q-289 0 -447.5 180t-158.5 523q0 152 37.5 274.5t99 202t145 133t170.5 76t180 22.5q98 0 183 -23.5t160.5 -76.5t129.5 -133.5t85.5 -201.5t31.5 -273zM432 692q0 -63 5.5 -118t23 -113.5t45 -100t75 -68t109.5 -26.5
q68 0 117 33.5t76 92.5t39 128t12 152q0 57 -6 110.5t-23.5 112t-44.5 101t-73 70.5t-105 28q-66 0 -116 -33.5t-78.5 -92t-42 -127.5t-13.5 -149z" />
    <glyph glyph-name="P" unicode="P" horiz-adv-x="1171" 
d="M467 453v-453h-352v1362h499q244 0 380 -111t136 -321q0 -231 -152.5 -354t-406.5 -123h-104zM467 725h80q109 0 165 41t56 141t-50 139t-153 39h-98v-360z" />
    <glyph glyph-name="Q" unicode="Q" horiz-adv-x="1372" 
d="M655 721l-53 -182q-137 -14 -251.5 26t-184.5 133.5t-70 225.5q0 213 148.5 337.5t384.5 124.5q102 0 192.5 -23t169 -73.5t135 -125t89 -183t32.5 -242.5q0 -145 -39 -282.5t-106 -247.5q136 -128 255 -203t265 -96l-66 -264q-168 22 -339 120.5t-302 237.5
q-192 -162 -417 -162q-105 0 -182.5 26t-120.5 71t-63.5 98t-20.5 115q0 135 101 223t280 88q81 0 169 -23t156 -59q31 66 50.5 157t19.5 169q0 82 -14.5 150t-45 123.5t-83 86.5t-123.5 31q-87 0 -137 -46t-50 -132q0 -88 55.5 -134.5t165.5 -64.5zM684 174q-38 28 -86 45
t-86 17q-44 0 -70 -20t-26 -56q0 -29 22.5 -50.5t71.5 -21.5t96 23.5t78 62.5z" />
    <glyph glyph-name="R" unicode="R" horiz-adv-x="1245" 
d="M467 510v-510h-352v1362h487q123 0 216 -20t164.5 -64t108.5 -120t37 -183q0 -121 -61 -211.5t-149 -134.5q58 -28 90 -107l229 -522h-377l-188 432q-35 78 -109 78h-96zM467 780h133q80 0 124 41.5t44 124.5q0 81 -47 111t-148 30h-106v-307z" />
    <glyph glyph-name="S" unicode="S" horiz-adv-x="1114" 
d="M25 117l118 289q76 -48 191 -86.5t198 -38.5q142 0 142 118q0 25 -11 45t-26.5 33.5t-46 27t-55.5 21.5t-68 21q-44 13 -77 25t-76 32t-74.5 41t-64 53t-53 68t-33.5 85.5t-13 106.5q0 200 138.5 314t356.5 114q142 0 274 -55.5t226 -146.5l-182 -232q-191 140 -318 140
q-54 0 -91.5 -27t-37.5 -80q0 -25 12 -46t28 -34.5t50.5 -29t58.5 -24t73 -24.5q47 -15 81 -27.5t77 -32.5t73 -41.5t61.5 -53.5t51 -68.5t31.5 -85.5t12 -106q0 -208 -143.5 -322.5t-377.5 -114.5q-141 0 -284 45t-221 97z" />
    <glyph glyph-name="T" unicode="T" horiz-adv-x="1153" 
d="M33 1362h1089v-307h-377v-1055h-350v1055h-362v307z" />
    <glyph glyph-name="U" unicode="U" horiz-adv-x="1288" 
d="M104 1362h353v-891q0 -111 50 -157t142 -46q82 0 132 49.5t50 143.5v901h353v-942q0 -205 -149.5 -325t-393.5 -120q-269 0 -403 115t-134 361v911z" />
    <glyph glyph-name="V" unicode="V" horiz-adv-x="1271" 
d="M815 0h-371l-438 1362h359l268 -932h12l275 932h346z" />
    <glyph glyph-name="W" unicode="W" horiz-adv-x="1667" 
d="M1016 0l-164 719h-8l-170 -719h-375l-289 1362h352l162 -842h11l147 740h342l143 -742h11l127 844h352l-273 -1362h-368z" />
    <glyph glyph-name="X" unicode="X" horiz-adv-x="1333" 
d="M924 1362h395l-436 -645l465 -717h-406l-270 430l-277 -430h-411l479 715l-424 647h405l236 -387z" />
    <glyph glyph-name="Y" unicode="Y" horiz-adv-x="1216" 
d="M864 1362h367l-455 -838v-524h-350v522l-440 840h387l235 -492h8z" />
    <glyph glyph-name="Z" unicode="Z" horiz-adv-x="1075" 
d="M1018 1157l-563 -887h583v-270h-993v217l551 877h-541v268h963v-205z" />
    <glyph glyph-name="bracketleft" unicode="[" horiz-adv-x="620" 
d="M121 -367v1856h487v-215h-176v-1426h176v-215h-487z" />
    <glyph glyph-name="backslash" unicode="\" horiz-adv-x="946" 
d="M35 1473l289 104l602 -1714l-293 -101z" />
    <glyph glyph-name="bracketright" unicode="]" horiz-adv-x="620" 
d="M500 1489v-1856h-488v215h176v1426h-176v215h488z" />
    <glyph glyph-name="asciicircum" unicode="^" horiz-adv-x="1177" 
d="M1094 604l-279 -41l-219 477l-219 -477l-279 43l389 799h222z" />
    <glyph glyph-name="underscore" unicode="_" horiz-adv-x="1024" 
d="M0 -336v184h1024v-184h-1024z" />
    <glyph glyph-name="grave" unicode="`" horiz-adv-x="1024" 
d="M481 1679l254 -419l-98 -84q-192 140 -277 227q-69 69 -69 119q0 33 19 60.5t50 46t60.5 30.5t60.5 20z" />
    <glyph glyph-name="a" unicode="a" horiz-adv-x="1107" 
d="M1004 997v-776l22 -221h-291l-14 96l-12 2q-82 -129 -265 -129q-91 0 -161 28.5t-113 76t-70.5 114.5t-38 137t-10.5 152q0 278 141.5 440t413.5 162q69 0 177.5 -19.5t220.5 -62.5zM664 330v493q-43 15 -95 15q-48 0 -83.5 -27t-55.5 -75.5t-29.5 -106.5t-9.5 -127
q0 -86 11.5 -146.5t45.5 -101.5t91 -41t91 35t34 82z" />
    <glyph glyph-name="b" unicode="b" 
d="M102 53v1370h344v-393q82 49 197 49q195 0 303.5 -129t108.5 -381q0 -297 -135 -449.5t-388 -152.5q-115 0 -238 25t-192 61zM446 739v-514q52 -20 103 -20q49 0 81.5 21.5t50.5 65.5t25 99t7 133q0 68 -6.5 120t-23.5 98.5t-50 71t-82 24.5q-44 0 -74.5 -28t-30.5 -71z
" />
    <glyph glyph-name="c" unicode="c" horiz-adv-x="946" 
d="M600 240q54 0 103 19t112 63l121 -232q-154 -121 -385 -121q-234 0 -367 140t-133 403q0 118 29 214.5t78 161t115 108.5t137 63.5t147 19.5q266 0 401 -213l-208 -178q-42 58 -84 89.5t-95 31.5q-85 0 -130.5 -73.5t-45.5 -209.5q0 -138 51.5 -212t153.5 -74z" />
    <glyph glyph-name="d" unicode="d" horiz-adv-x="1107" 
d="M565 1079q57 0 99 -10v354h340v-1200l22 -223h-287l-18 98h-12q-79 -129 -254 -129q-99 0 -173.5 30.5t-117.5 78t-69.5 117t-35 135t-8.5 143.5q0 177 60 313.5t177.5 214.5t276.5 78zM664 326v495q-43 15 -80 15q-57 0 -97 -29.5t-60 -81.5t-28 -106.5t-8 -118.5
q0 -287 144 -287q57 0 93 35t36 78z" />
    <glyph glyph-name="e" unicode="e" horiz-adv-x="962" 
d="M578 1079q166 0 262 -81t96 -238q0 -62 -19.5 -113.5t-51.5 -87.5t-77.5 -65t-92.5 -46.5t-102.5 -30t-100.5 -18t-93 -8.5q6 -73 59.5 -120.5t143.5 -47.5q122 0 254 86l90 -225q-5 -5 -22.5 -16.5t-54.5 -29t-81 -33t-107.5 -27t-127.5 -11.5q-132 0 -230 38.5
t-156.5 110t-87 166t-28.5 214.5q0 113 34 216.5t97.5 186t166 131.5t229.5 49zM639 756q0 38 -21.5 61t-58.5 23q-76 0 -123.5 -67.5t-52.5 -174.5q60 3 116 20.5t98 54t42 83.5z" />
    <glyph glyph-name="f" unicode="f" horiz-adv-x="733" 
d="M451 780v-1210h-342v1497q0 46 3 83t12.5 80.5t26 77t46 66.5t69 54t97.5 34t131 13q76 0 173 -20t154 -50l-80 -225q-37 19 -95 32t-93 13q-51 0 -76.5 -28.5t-25.5 -92.5v-55h282v-269h-282z" />
    <glyph glyph-name="g" unicode="g" horiz-adv-x="1099" 
d="M516 -543q-181 0 -275 78t-94 217q0 108 54.5 194t160.5 163q-131 20 -222 137t-91 297q0 257 147 396.5t390 139.5q98 0 213.5 -21.5t206.5 -60.5v-796q0 -140 -7 -240q-18 -242 -137.5 -373t-345.5 -131zM666 418v407q-46 11 -84 11q-51 0 -89 -24.5t-59.5 -66.5
t-32 -91.5t-10.5 -106.5t5 -98.5t19 -84t45.5 -65.5t78.5 -23q54 0 90.5 38t36.5 104zM455 -195q0 -102 94 -102q39 0 63.5 18.5t37 60t16.5 90t4 126.5v104q-97 -56 -156 -135t-59 -162z" />
    <glyph glyph-name="h" unicode="h" 
d="M436 0h-342v1423h342v-432q98 88 234 88q331 0 331 -368v-711h-342v666q0 75 -20 113t-74 38q-61 0 -95 -40.5t-34 -104.5v-672z" />
    <glyph glyph-name="i" unicode="i" horiz-adv-x="546" 
d="M453 0h-344v1049h344v-1049zM98 1348q0 72 50 121t133 49q80 0 131 -49t51 -121q0 -74 -50.5 -122t-131.5 -48q-83 0 -133 47.5t-50 122.5z" />
    <glyph glyph-name="j" unicode="j" horiz-adv-x="544" 
d="M109 -29v1078h342v-1098q0 -50 -2 -86t-10 -81.5t-22 -78t-39.5 -65.5t-61.5 -53t-89 -33t-121 -13q-77 0 -165 22t-150 58l86 236q72 -37 131 -37q50 0 75.5 35t25.5 116zM104 1348q0 72 50 121t133 49q80 0 131 -49t51 -121q0 -74 -51 -122t-133 -48t-131.5 47.5
t-49.5 122.5z" />
    <glyph glyph-name="k" unicode="k" horiz-adv-x="1083" 
d="M698 -4l-198 455q-9 -3 -51 -9v-442h-347v1423h347v-585h8q114 241 342 241q107 0 178.5 -61.5t71.5 -183.5q0 -107 -63 -192.5t-155 -137.5l265 -508h-398zM707 758q0 37 -19.5 56.5t-54.5 19.5q-67 0 -119 -78t-61 -178q102 8 178 60.5t76 119.5z" />
    <glyph glyph-name="l" unicode="l" horiz-adv-x="710" 
d="M104 1423h342v-1052q0 -71 20.5 -103t68.5 -32q38 0 118 34l74 -227q-52 -34 -134 -55t-153 -21q-66 0 -118 11t-87 28.5t-60 47.5t-38.5 58.5t-21 71t-9.5 77t-2 83.5v1079z" />
    <glyph glyph-name="m" unicode="m" horiz-adv-x="1640" 
d="M451 0h-342v838l-25 211h283l22 -111q103 141 283 141q191 0 270 -135q98 135 281 135q155 0 239 -89.5t84 -272.5v-717h-342v657q0 38 -3.5 64t-13 49.5t-28.5 35t-49 11.5q-58 0 -85.5 -40.5t-27.5 -110.5v-666h-342v657q0 39 -3 64t-11.5 49t-28 35.5t-49.5 11.5
q-112 0 -112 -153v-664z" />
    <glyph glyph-name="n" unicode="n" horiz-adv-x="1110" 
d="M449 0h-340v838l-25 211h285l20 -113q107 143 299 143q156 0 242 -90t86 -272v-717h-344v657q0 81 -17.5 120.5t-72.5 39.5q-62 0 -97.5 -42.5t-35.5 -110.5v-664z" />
    <glyph glyph-name="o" unicode="o" horiz-adv-x="1067" 
d="M537 217q74 0 106.5 73.5t32.5 227.5q0 162 -31.5 239t-107.5 77q-70 0 -105 -73.5t-35 -205.5q0 -58 3 -103t11.5 -91t23.5 -76t41 -49t61 -19zM49 516q0 124 31 223t81 161.5t117 104t134.5 58t138.5 16.5q41 0 78.5 -4t87.5 -17.5t91.5 -35.5t84 -62.5t71.5 -94.5
t47.5 -135.5t18.5 -180.5q0 -141 -39.5 -253t-108.5 -183t-161 -108.5t-199 -37.5q-225 0 -349 137.5t-124 411.5z" />
    <glyph glyph-name="p" unicode="p" horiz-adv-x="1107" 
d="M446 -4v-426h-344v1431q116 39 241 58.5t216 19.5q247 0 372.5 -138.5t125.5 -410.5q0 -271 -122 -417t-337 -146q-81 0 -152 29zM713 516q0 47 -3.5 84.5t-15 81t-30.5 73t-54 49t-82 19.5q-41 0 -82 -12v-559q52 -27 97 -27q49 0 84 26.5t53 71.5t25.5 92.5t7.5 100.5z
" />
    <glyph glyph-name="q" unicode="q" horiz-adv-x="1103" 
d="M999 1004v-1434h-342v473h-6q-78 -74 -198 -74q-190 0 -296 133t-106 394q0 172 61 302t183.5 205.5t292.5 75.5q220 0 411 -75zM659 334v489q-42 11 -73 11q-69 0 -114 -49t-62 -119t-17 -158q0 -46 1 -76t5.5 -68t14 -62t25 -46t40.5 -32.5t58 -10.5q54 0 88 36t34 85z
" />
    <glyph glyph-name="r" unicode="r" horiz-adv-x="796" 
d="M453 641v-641h-342v848l-27 201h278l27 -146q38 90 105.5 133t140.5 43q93 0 170 -39l-55 -284q-65 35 -148 35q-67 0 -107.5 -40t-41.5 -110z" />
    <glyph glyph-name="s" unicode="s" horiz-adv-x="892" 
d="M20 82l89 242q63 -41 152 -74t153 -33q98 0 98 78q0 18 -7.5 32.5t-17.5 24t-30 19t-35 14.5t-43 14q-59 19 -97 33.5t-86 42.5t-75 60t-46.5 83t-19.5 115q0 163 115.5 254.5t294.5 91.5q120 0 227.5 -41t184.5 -112l-156 -197q-138 107 -238 107q-44 0 -69 -19t-25 -55
q0 -41 34.5 -65.5t106.5 -47.5q56 -18 93 -32.5t84.5 -42.5t76 -60.5t48.5 -83t20 -113.5q0 -169 -112.5 -259.5t-305.5 -90.5q-128 0 -241.5 36.5t-172.5 78.5z" />
    <glyph glyph-name="t" unicode="t" horiz-adv-x="759" 
d="M102 1423h347v-374h256v-269h-256v-413q0 -79 32 -110.5t90 -31.5q47 0 111 33l74 -215q-50 -32 -129 -54t-162 -22q-73 0 -129.5 12.5t-94.5 31.5t-65 52.5t-41 64t-22 77.5t-9.5 82t-1.5 88v1048z" />
    <glyph glyph-name="u" unicode="u" horiz-adv-x="1116" 
d="M668 1049h342v-850l22 -199h-289l-14 98h-8q-94 -125 -270 -125q-349 0 -349 371v705h344v-660q0 -79 19 -117.5t78 -38.5q54 0 89.5 39.5t35.5 100.5v676z" />
    <glyph glyph-name="v" unicode="v" horiz-adv-x="1075" 
d="M608 1049h336q31 -105 50.5 -232.5t19.5 -238.5q0 -297 -132.5 -451t-387.5 -154q-199 0 -295.5 92t-96.5 281v703h344v-662q0 -81 16.5 -115t69.5 -34q146 0 146 329q0 200 -70 482z" />
    <glyph glyph-name="w" unicode="w" horiz-adv-x="1595" 
d="M1128 1049h336q70 -242 70 -471q0 -288 -118 -446.5t-345 -158.5q-197 0 -280 136q-117 -136 -318 -136q-182 0 -276.5 92.5t-94.5 278.5v705h344v-674q0 -75 16 -107t64 -32q52 0 81.5 34.5t29.5 94.5v684h342v-656q0 -36 1 -55t5 -42t12 -34t23.5 -18.5t38.5 -7.5
q135 0 135 335q0 212 -66 478z" />
    <glyph glyph-name="x" unicode="x" horiz-adv-x="1032" 
d="M688 1049h352l-333 -510l348 -539h-373l-166 283l-168 -283h-371l357 535l-324 514h365l151 -267z" />
    <glyph glyph-name="y" unicode="y" horiz-adv-x="1105" 
d="M1012 231q0 -225 -6 -286q-46 -490 -494 -490q-172 0 -264 75t-92 208q0 201 202 348q-127 24 -191.5 109.5t-64.5 216.5v637h344v-590q0 -38 1.5 -61.5t7.5 -49t17 -39t30.5 -22t48.5 -8.5q52 0 84.5 37t32.5 100v633h344v-818zM463 -205q0 -42 23 -70t69 -28
q67 0 94 58t27 167v174q-44 -26 -78.5 -53.5t-67 -64.5t-50 -83.5t-17.5 -99.5z" />
    <glyph glyph-name="z" unicode="z" horiz-adv-x="878" 
d="M307 -170q0 -55 26.5 -88t82.5 -33q68 0 106.5 59t38.5 150q0 117 -74 176q-80 -48 -130 -118.5t-50 -145.5zM868 1049v-191l-413 -412l110 -47q155 -66 232 -175.5t80 -254.5q0 -79 -15 -149q-38 -173 -170 -268t-301 -95q-191 0 -289 88.5t-98 245.5q0 270 299 432
q-21 12 -47 24.5t-43.5 19.5t-48.5 19t-43 17v178l313 303h-401v265h835z" />
    <glyph glyph-name="braceleft" unicode="{" horiz-adv-x="694" 
d="M360 575q79 -25 111.5 -78.5t32.5 -160.5q0 -53 -13.5 -178.5t-13.5 -167.5q0 -78 19.5 -115t81.5 -37q30 0 77 8l25 -206q-102 -21 -193 -21q-130 0 -207 57.5t-98 159.5q-8 33 -8 78q0 52 21 322q11 121 -18 175.5t-116 57.5v213q86 3 116 57t24 176q-17 266 -17 291
q0 42 9 80q22 99 99.5 155t205.5 56q98 0 190 -20l-24 -203q-47 8 -78 8q-62 0 -81.5 -36.5t-19.5 -112.5q0 -42 10.5 -147t10.5 -159q0 -188 -146 -252z" />
    <glyph glyph-name="bar" unicode="|" horiz-adv-x="679" 
d="M195 -180v1710h290v-1710h-290z" />
    <glyph glyph-name="braceright" unicode="}" horiz-adv-x="694" 
d="M334 575q-146 64 -146 252q0 54 10.5 159t10.5 147q0 76 -19 112.5t-81 36.5q-31 0 -78 -8l-25 203q92 20 191 20q128 0 205.5 -56t99.5 -155q8 -33 8 -80q0 -41 -16 -291q-6 -122 23.5 -176t115.5 -57v-213q-87 -3 -115.5 -57.5t-17.5 -175.5q20 -257 20 -322
q0 -45 -8 -78q-21 -102 -98 -159.5t-207 -57.5q-91 0 -193 21l25 206q47 -8 78 -8q62 0 81 37t19 115q0 42 -13.5 167.5t-13.5 178.5q0 107 32.5 160.5t111.5 78.5z" />
    <glyph glyph-name="asciitilde" unicode="~" horiz-adv-x="1280" 
d="M881 438q-67 0 -136.5 23t-118 51t-102 51t-90.5 23q-52 0 -98 -36.5t-105 -107.5l-194 166q38 55 71 94t78 78t97.5 59.5t111.5 20.5q58 0 123 -24t113 -52.5t108 -52.5t109 -24q102 0 196 141l199 -162q-63 -119 -155 -183.5t-207 -64.5z" />
    <glyph glyph-name="uni00A0" unicode="&#xa0;" horiz-adv-x="442" 
 />
    <glyph glyph-name="exclamdown" unicode="&#xa1;" horiz-adv-x="546" 
d="M430 -70v-217q0 -55 -36 -89t-111 -34q-79 0 -115.5 34t-36.5 91v215l49 682h199zM457 885q0 -65 -47 -112.5t-121 -47.5q-82 0 -128 44.5t-46 115.5q0 67 45 115.5t123 48.5q83 0 128.5 -46.5t45.5 -117.5z" />
    <glyph glyph-name="cent" unicode="&#xa2;" 
d="M463 -123v258q-155 41 -247.5 165.5t-92.5 340.5q0 395 340 520v242h317v-246q72 -22 138.5 -73t111.5 -121l-209 -175q-84 119 -178 119q-77 0 -125.5 -68.5t-48.5 -187.5q0 -125 45.5 -191.5t132.5 -66.5q55 0 97.5 27t86.5 76l195 -187q-56 -72 -114 -112.5
t-132 -61.5v-258h-317z" />
    <glyph glyph-name="sterling" unicode="&#xa3;" horiz-adv-x="1200" 
d="M94 262v230h178l88 421q48 231 153.5 332t315.5 101q121 0 222.5 -53.5t158.5 -116.5l-166 -197q-111 100 -200 100q-71 0 -103 -41.5t-55 -146.5l-84 -399h285v-228h-328l-22 -96q-36 -159 -162 -266l4 -6q99 36 176 36q65 0 180 -21.5t176 -21.5q94 0 166 29l-35 -274
q-81 -19 -151 -19q-98 0 -291.5 36t-294.5 36q-154 0 -301 -70v262q74 31 121 82t70 146l34 145h-135z" />
    <glyph glyph-name="yen" unicode="&#xa5;" horiz-adv-x="1142" 
d="M385 256h-276v201h276v127h-276v200h165l-260 535h351l204 -471h9l213 471h342l-279 -535h162v-200h-281v-127h281v-201h-281v-256h-350v256z" />
    <glyph glyph-name="brokenbar" unicode="&#xa6;" horiz-adv-x="681" 
d="M195 -180v762h290v-762h-290zM195 821v709h290v-709h-290z" />
    <glyph glyph-name="section" unicode="&#xa7;" horiz-adv-x="1153" 
d="M84 752l252 71q0 -105 30.5 -190.5t78.5 -143.5t106.5 -108t117.5 -96.5t107 -97t78.5 -122t30.5 -159.5q0 -40 -9 -80t-35 -85t-66.5 -79.5t-110 -57t-158.5 -22.5q-63 0 -139.5 14t-120.5 31l45 226q93 -33 155 -33q61 0 95 26.5t34 75.5q0 34 -28.5 70t-73 72.5
t-98.5 80t-107.5 102t-96.5 127.5t-67.5 167t-19.5 211zM1069 197l-252 -72q0 105 -30.5 190.5t-78.5 143.5t-107 108t-117.5 96.5t-106.5 97t-78.5 122t-30.5 159.5q0 40 9 80t35 85t66.5 79.5t110 57t158.5 22.5q63 0 139.5 -14t120.5 -31l-45 -225q-91 32 -155 32
q-61 0 -95 -26.5t-34 -75.5q0 -34 28.5 -70t73 -72.5t98.5 -80t107.5 -101.5t96.5 -127t67.5 -167t19.5 -211z" />
    <glyph glyph-name="dieresis" unicode="&#xa8;" horiz-adv-x="1024" 
d="M578 1386q0 62 44 105t115 43q69 0 113.5 -43.5t44.5 -104.5q0 -65 -45 -107t-115 -42q-72 0 -114.5 41.5t-42.5 107.5zM131 1386q0 62 43.5 105t114.5 43q69 0 113 -43t44 -105q0 -65 -43.5 -107t-113.5 -42q-72 0 -115 41.5t-43 107.5z" />
    <glyph glyph-name="copyright" unicode="&#xa9;" horiz-adv-x="1669" 
d="M1161 934l-147 -117q-29 37 -75 66.5t-97 29.5q-75 0 -118.5 -65t-43.5 -174q0 -115 46.5 -179.5t123.5 -64.5q60 0 101.5 21t92.5 65l107 -135q-55 -59 -133 -97t-170 -38q-87 0 -156 26.5t-112 69t-71.5 99.5t-40 113t-11.5 114q0 206 107.5 320t283.5 114
q103 0 188.5 -50t124.5 -118zM1567 680q0 -208 -94.5 -373t-264 -256.5t-383.5 -91.5q-220 0 -385.5 92t-251.5 252t-86 365q0 153 54 285.5t148.5 227.5t229 149t291.5 54q161 0 299.5 -54t235.5 -148t152 -224t55 -278zM1395 668q0 123 -43 229.5t-118 180.5t-180 116.5
t-227 42.5q-250 0 -400.5 -158t-150.5 -411q0 -249 154 -405.5t397 -156.5q251 0 409.5 154.5t158.5 407.5z" />
    <glyph glyph-name="ordfeminine" unicode="&#xaa;" horiz-adv-x="897" 
d="M768 1198v-504l16 -153h-211l-12 82h-8q-70 -99 -182 -99q-75 0 -130.5 27.5t-86.5 76t-45.5 106t-14.5 126.5q0 178 103.5 284.5t287.5 106.5q134 0 283 -53zM520 764v307q-32 8 -61 8q-60 0 -88.5 -56t-28.5 -144q0 -183 98 -183q37 0 58.5 20t21.5 48z" />
    <glyph glyph-name="guillemotleft" unicode="&#xab;" horiz-adv-x="1216" 
d="M645 840l-227 -303l213 -326l-123 -115q-103 76 -226 191t-163 186q-23 39 -23 74q0 58 68 119q175 167 356 297zM1151 840l-227 -303l213 -326l-123 -115q-103 76 -226 191t-163 186q-23 39 -23 74q0 58 68 119q175 167 356 297z" />
    <glyph glyph-name="logicalnot" unicode="&#xac;" 
d="M721 287v307h-615v270h879v-577h-264z" />
    <glyph glyph-name="uni00AD" unicode="&#xad;" horiz-adv-x="659" 
d="M70 455v254h520v-254h-520z" />
    <glyph glyph-name="registered" unicode="&#xae;" horiz-adv-x="948" 
d="M588 940l74 -166h-113l-64 144q-12 28 -32 28h-19v-172h-102v432h155q68 0 106 -29t38 -87q0 -87 -70 -119q18 -8 27 -31zM434 1024h12q38 0 56 12.5t18 44.5q0 29 -18 38t-56 9h-12v-104zM887 989q0 -177 -117 -290t-301 -113q-186 0 -297 111.5t-111 287.5
q0 173 114.5 287t293.5 114q183 0 300.5 -113.5t117.5 -283.5zM770 985q0 129 -86 213t-215 84q-131 0 -211 -83.5t-80 -213.5q0 -131 82 -215t209 -84q132 0 216.5 82.5t84.5 216.5z" />
    <glyph glyph-name="macron" unicode="&#xaf;" horiz-adv-x="1024" 
d="M184 1266v231h652v-231h-652z" />
    <glyph glyph-name="degree" unicode="&#xb0;" horiz-adv-x="610" 
d="M55 1227q0 109 71 182.5t179 73.5q114 0 182 -71t68 -173q0 -116 -71.5 -192t-184.5 -76t-178.5 73t-65.5 183zM207 1227q0 -49 26 -82t72 -33q45 0 71.5 33.5t26.5 81.5q0 52 -25 83t-73 31q-49 0 -73.5 -31t-24.5 -83z" />
    <glyph glyph-name="plusminus" unicode="&#xb1;" 
d="M406 750v299h282v-299h275v-275h-275v-203h275v-272h-830v272h273v203h-273v275h273z" />
    <glyph glyph-name="twosuperior" unicode="&#xb2;" horiz-adv-x="772" 
d="M190 1227l-122 147q156 135 327 135q135 0 207 -60.5t72 -160.5q0 -73 -29.5 -132t-91.5 -124l-133 -141h274v-193h-594v146l250 276q37 46 52.5 72.5t15.5 56.5t-17.5 46t-46.5 16q-59 0 -164 -84z" />
    <glyph glyph-name="threesuperior" unicode="&#xb3;" horiz-adv-x="772" 
d="M193 1253l-103 144q51 40 138.5 76t193.5 36q117 0 183.5 -55.5t66.5 -142.5q0 -49 -22 -94.5t-64 -75.5q96 -107 96 -205q0 -106 -77.5 -177t-233.5 -71q-135 0 -283 66l66 172q46 -25 108 -42.5t100 -17.5q36 0 60 16t24 48q0 29 -43 98q-39 -14 -153 -33l-51 150
q58 12 153 41q25 10 38.5 17t28.5 25t15 42q0 25 -17 37t-42 12q-32 0 -84 -19.5t-98 -46.5z" />
    <glyph glyph-name="acute" unicode="&#xb4;" horiz-adv-x="1024" 
d="M287 1260l254 419q31 -8 60 -20t59.5 -30.5t49.5 -46.5t19 -60q0 -49 -67 -119q-102 -100 -277 -227z" />
    <glyph glyph-name="mu" unicode="&#xb5;" horiz-adv-x="1183" 
d="M1057 1049v-783q0 -34 12 -49.5t39 -15.5q20 0 57 12l29 -190q-103 -50 -207 -50q-154 0 -186 146q-23 -69 -77 -109.5t-126 -40.5q-52 0 -95.5 21.5t-70.5 58.5v-491h-305v1491h322v-603q0 -53 2.5 -86.5t10.5 -65t23 -48.5t39.5 -27t61.5 -10q78 0 111.5 69.5
t33.5 213.5v557h326z" />
    <glyph glyph-name="paragraph" unicode="&#xb6;" horiz-adv-x="1157" 
d="M715 154v968h-142v-690q-102 1 -189 26.5t-158 77.5t-111.5 141t-40.5 206q0 125 39.5 218.5t111 149.5t164.5 83.5t207 27.5h446v-1172q0 -80 -5.5 -139.5t-20.5 -119t-41.5 -103.5t-68.5 -85t-101 -71t-139.5 -55t-184.5 -43l-67 285q120 23 185.5 60.5t90.5 91.5
t25 143z" />
    <glyph glyph-name="periodcentered" unicode="&#xb7;" horiz-adv-x="645" 
d="M152 629q0 71 44.5 116.5t122.5 45.5q83 0 128 -43t45 -117q0 -71 -43.5 -117.5t-122.5 -46.5q-85 0 -129.5 45t-44.5 117z" />
    <glyph glyph-name="cedilla" unicode="&#xb8;" horiz-adv-x="1024" 
d="M434 6h141l-34 -123q91 -9 145.5 -56t54.5 -122q0 -51 -17.5 -90t-45 -62.5t-65 -38.5t-72.5 -20.5t-72 -5.5q-106 0 -203 37l41 139q75 -26 137 -26q103 0 103 63q0 23 -15 38t-43.5 22t-58.5 9.5t-72 2.5z" />
    <glyph glyph-name="onesuperior" unicode="&#xb9;" horiz-adv-x="772" 
d="M152 883h145v372l-147 -61l-72 147l270 156h199l-12 -162v-452h133v-185h-516v185z" />
    <glyph glyph-name="ordmasculine" unicode="&#xba;" horiz-adv-x="847" 
d="M428 700q50 0 72 43t22 142q0 103 -21 147.5t-73 44.5q-92 0 -92 -166q0 -49 3.5 -84t13 -65.5t28.5 -46t47 -15.5zM82 881q0 81 22.5 146.5t58 106.5t83.5 68t95 38t95 11q44 0 84 -6.5t89 -28.5t84 -58t59 -101t24 -152q0 -181 -100.5 -281t-255.5 -100
q-157 0 -247.5 91.5t-90.5 265.5z" />
    <glyph glyph-name="guillemotright" unicode="&#xbb;" horiz-adv-x="1218" 
d="M295 537l-229 303l127 123q189 -137 356 -297q67 -60 67 -119q0 -37 -22 -74q-40 -71 -163 -186t-226 -191l-123 115zM801 537l-230 303l127 123q194 -140 357 -297q67 -60 67 -119q0 -37 -22 -74q-40 -71 -163 -186t-226 -191l-123 115z" />
    <glyph glyph-name="onequarter" unicode="&#xbc;" horiz-adv-x="1740" 
d="M106 719h146v373l-148 -62l-71 148l270 155h199l-13 -162v-452h134v-184h-517v184zM688 -29l-211 90l598 1282l215 -88zM1434 532h143v-202h106v-168h-108v-164h-234v168h-317v127l248 534l186 -90l-194 -407h96z" />
    <glyph glyph-name="onehalf" unicode="&#xbd;" horiz-adv-x="1740" 
d="M123 719h145v373l-147 -62l-72 148l270 155h199l-12 -162v-452h133v-184h-516v184zM694 -29l-211 90l598 1282l215 -88zM1198 528l-123 148q156 135 328 135q135 0 206.5 -60.5t71.5 -160.5q0 -73 -29 -132t-91 -124l-134 -141h275v-193h-594v145l250 277q37 45 52 72
t15 57t-17 45.5t-46 15.5q-59 0 -164 -84z" />
    <glyph glyph-name="threequarters" unicode="&#xbe;" horiz-adv-x="1740" 
d="M145 1090l-102 143q52 40 139 76.5t193 36.5q117 0 183.5 -56t66.5 -143q0 -49 -22 -94.5t-64 -75.5q96 -107 96 -205q0 -106 -77.5 -177t-233.5 -71q-135 0 -283 66l65 172q46 -25 108 -42.5t101 -17.5q36 0 60 16t24 48q0 29 -43 98q-40 -14 -153 -33l-51 150
q58 12 153 41q25 10 38.5 17t28.5 25t15 42q0 25 -17 37t-42 12q-32 0 -85 -19.5t-98 -45.5zM678 -29l-211 90l598 1282l215 -88zM1452 532h143v-202h107v-168h-109v-164h-233v168h-318v127l248 534l187 -90l-195 -407h96z" />
    <glyph glyph-name="questiondown" unicode="&#xbf;" horiz-adv-x="772" 
d="M702 885q0 -65 -46.5 -112.5t-120.5 -47.5q-83 0 -129 44.5t-46 115.5q0 67 45 115.5t123 48.5q83 0 128.5 -46.5t45.5 -117.5zM375 -53q0 50 27.5 81t86.5 68q84 52 109 75q81 78 82 214q0 72 -21 227h-256v-145q0 -57 -20 -95.5t-66 -68.5q-60 -39 -94 -64t-74 -63
t-60 -74t-34 -88t-14 -114q0 -37 7.5 -73t32.5 -80.5t65.5 -77.5t114 -56t171.5 -23q77 0 160.5 15.5t126.5 34.5l-47 225q-113 -31 -176 -31q-121 0 -121 113z" />
    <glyph glyph-name="Agrave" unicode="&#xc0;" horiz-adv-x="1325" 
d="M346 0h-338l443 1362h395l471 -1362h-375l-92 291h-412zM639 1034l-141 -485h286l-137 485h-8zM535 1878l356 -340l-76 -104q-243 106 -323 153q-55 32 -77 60t-22 65q0 44 40.5 88t101.5 78z" />
    <glyph glyph-name="Aacute" unicode="&#xc1;" horiz-adv-x="1325" 
d="M346 0h-338l443 1362h395l471 -1362h-375l-92 291h-412zM639 1034l-141 -485h286l-137 485h-8zM422 1538l356 344q60 -34 101 -79t41 -89q0 -38 -22.5 -66t-76.5 -61q-129 -74 -323 -151z" />
    <glyph glyph-name="Acircumflex" unicode="&#xc2;" horiz-adv-x="1325" 
d="M346 0h-338l443 1362h395l471 -1362h-375l-92 291h-412zM639 1034l-141 -485h286l-137 485h-8zM403 1432l-102 88q10 12 37.5 46t40.5 49.5t38 44.5t41.5 47t37.5 39.5t39 37.5q57 51 106 51q52 0 102 -47q139 -132 242 -264l-100 -92l-244 174z" />
    <glyph glyph-name="Atilde" unicode="&#xc3;" horiz-adv-x="1325" 
d="M346 0h-338l443 1362h395l471 -1362h-375l-92 291h-412zM639 1034l-141 -485h286l-137 485h-8zM358 1487l-20 182q81 64 178 64q57 0 149 -28t138 -28q67 0 133 39l18 -192q-68 -41 -143 -41q-48 0 -150.5 24.5t-144.5 24.5q-81 0 -158 -45z" />
    <glyph glyph-name="Adieresis" unicode="&#xc4;" horiz-adv-x="1325" 
d="M346 0h-338l443 1362h395l471 -1362h-375l-92 291h-412zM639 1034l-141 -485h286l-137 485h-8zM707 1606q0 63 43.5 105t115.5 42q69 0 113.5 -42.5t44.5 -104.5q0 -64 -45 -106t-115 -42q-72 0 -114.5 41.5t-42.5 106.5zM258 1606q0 63 43 105t115 42q69 0 113 -42
t44 -105q0 -64 -43.5 -106t-113.5 -42q-72 0 -115 42t-43 106z" />
    <glyph glyph-name="Aring" unicode="&#xc5;" horiz-adv-x="1325" 
d="M446 1417q0 86 57.5 144.5t145.5 58.5q96 0 149.5 -56.5t53.5 -138.5q0 -37 -8 -61l473 -1364h-375l-92 291h-412l-92 -291h-338l445 1362q-7 32 -7 55zM639 1034l-141 -485h286l-137 485h-8zM584 1417q0 -34 17 -55t48 -21t47.5 21t16.5 55q0 76 -64 76q-65 0 -65 -76z
" />
    <glyph glyph-name="AE" unicode="&#xc6;" horiz-adv-x="1712" 
d="M938 0l-107 326h-387l-102 -326h-338l455 1362h1177v-307h-639l72 -207h492v-307h-428l79 -234h439v-307h-713zM637 1022l-131 -438h266l-127 438h-8z" />
    <glyph glyph-name="Ccedilla" unicode="&#xc7;" horiz-adv-x="1214" 
d="M719 264q142 0 287 135l178 -229q-107 -98 -220 -145t-249 -50l-25 -92q91 -9 146 -56t55 -122q0 -51 -18 -90t-45.5 -62.5t-65 -38.5t-72.5 -20.5t-72 -5.5q-105 0 -202 37l41 139q75 -26 137 -26q102 0 102 63q0 23 -15 38t-43.5 22t-58 9.5t-71.5 2.5l67 213
q-238 34 -371.5 209.5t-133.5 474.5q0 131 26 240t72.5 185.5t107 134t134 91t148 49.5t153.5 16q145 0 272 -68t221 -214l-250 -180q-123 170 -260 170q-119 0 -190.5 -104t-71.5 -300q0 -201 71 -313.5t216 -112.5z" />
    <glyph glyph-name="Egrave" unicode="&#xc8;" horiz-adv-x="1081" 
d="M115 0v1362h891v-307h-539v-207h463v-307h-463v-234h553v-307h-905zM416 1878l356 -340l-76 -104q-243 106 -323 153q-55 32 -77 60t-22 65q0 44 40.5 88t101.5 78z" />
    <glyph glyph-name="Eacute" unicode="&#xc9;" horiz-adv-x="1081" 
d="M115 0v1362h891v-307h-539v-207h463v-307h-463v-234h553v-307h-905zM342 1538l356 344q60 -34 101 -79t41 -89q0 -38 -22.5 -66t-76.5 -61q-129 -74 -323 -151z" />
    <glyph glyph-name="Ecircumflex" unicode="&#xca;" horiz-adv-x="1081" 
d="M115 0v1362h891v-307h-539v-207h463v-307h-463v-234h553v-307h-905zM315 1432l-102 88q11 13 44.5 54t50 61t44 51.5t50 55t44.5 42.5q57 51 107 51q52 0 102 -47q139 -132 242 -264l-100 -92l-244 174z" />
    <glyph glyph-name="Edieresis" unicode="&#xcb;" horiz-adv-x="1081" 
d="M115 0v1362h891v-307h-539v-207h463v-307h-463v-234h553v-307h-905zM614 1606q0 63 44 105t116 42q69 0 113.5 -42.5t44.5 -104.5q0 -64 -45 -106t-115 -42q-72 0 -115 42t-43 106zM166 1606q0 63 43 105t115 42q69 0 113 -42t44 -105q0 -64 -43.5 -106t-113.5 -42
q-72 0 -115 42t-43 106z" />
    <glyph glyph-name="Igrave" unicode="&#xcc;" horiz-adv-x="598" 
d="M475 0h-352v1362h352v-1362zM166 1878l356 -340l-76 -104q-243 106 -323 153q-55 32 -76.5 60t-21.5 65q0 44 40.5 88t100.5 78z" />
    <glyph glyph-name="Iacute" unicode="&#xcd;" horiz-adv-x="598" 
d="M475 0h-352v1362h352v-1362zM72 1538l356 344q60 -34 100.5 -79t40.5 -89q0 -38 -22 -66.5t-76 -60.5q-127 -73 -324 -151z" />
    <glyph glyph-name="Icircumflex" unicode="&#xce;" horiz-adv-x="598" 
d="M475 0h-352v1362h352v-1362zM59 1432l-102 88q11 13 44.5 54t50 61t44 51.5t50 55t44.5 42.5q57 51 107 51q52 0 102 -47q139 -132 242 -264l-100 -92l-244 174z" />
    <glyph glyph-name="Idieresis" unicode="&#xcf;" horiz-adv-x="598" 
d="M475 0h-352v1362h352v-1362zM367 1606q0 63 43.5 105t115.5 42q69 0 113.5 -42.5t44.5 -104.5q0 -64 -45 -106t-115 -42q-72 0 -114.5 41.5t-42.5 106.5zM-82 1606q0 63 43 105t115 42q69 0 113 -42t44 -105q0 -64 -43.5 -106t-113.5 -42q-72 0 -115 42t-43 106z" />
    <glyph glyph-name="Eth" unicode="&#xd0;" horiz-adv-x="1345" 
d="M10 561v236h127v565h477q314 0 488 -158.5t174 -476.5q0 -155 -35.5 -279.5t-95.5 -207t-144.5 -137.5t-178 -79t-199.5 -24h-486v561h-127zM489 1087v-290h273v-236h-273v-289h138q140 0 218.5 107t78.5 313q0 395 -320 395h-115z" />
    <glyph glyph-name="Ntilde" unicode="&#xd1;" horiz-adv-x="1357" 
d="M893 1362h350v-1362h-311l-463 756h-6v-756h-348v1362h325l449 -741h4v741zM399 1487l-20 182q81 64 178 64q57 0 149 -28t138 -28q67 0 133 39l18 -192q-68 -41 -143 -41q-48 0 -150.5 24.5t-144.5 24.5q-81 0 -158 -45z" />
    <glyph glyph-name="Ograve" unicode="&#xd2;" horiz-adv-x="1363" 
d="M1292 678q0 -341 -165.5 -522t-450.5 -181q-289 0 -447.5 180t-158.5 523q0 152 37.5 274.5t99 202t145 133t170.5 76t180 22.5q98 0 183 -23.5t160.5 -76.5t129.5 -133.5t85.5 -201.5t31.5 -273zM432 692q0 -63 5.5 -118t23 -113.5t45 -100t75 -68t109.5 -26.5
q68 0 117 33.5t76 92.5t39 128t12 152q0 57 -6 110.5t-23.5 112t-44.5 101t-73 70.5t-105 28q-66 0 -116 -33.5t-78.5 -92t-42 -127.5t-13.5 -149zM555 1878l356 -340l-75 -104q-247 107 -324 153q-55 32 -76.5 60t-21.5 65q0 44 40.5 88t100.5 78z" />
    <glyph glyph-name="Oacute" unicode="&#xd3;" horiz-adv-x="1363" 
d="M1292 678q0 -341 -165.5 -522t-450.5 -181q-289 0 -447.5 180t-158.5 523q0 152 37.5 274.5t99 202t145 133t170.5 76t180 22.5q98 0 183 -23.5t160.5 -76.5t129.5 -133.5t85.5 -201.5t31.5 -273zM432 692q0 -63 5.5 -118t23 -113.5t45 -100t75 -68t109.5 -26.5
q68 0 117 33.5t76 92.5t39 128t12 152q0 57 -6 110.5t-23.5 112t-44.5 101t-73 70.5t-105 28q-66 0 -116 -33.5t-78.5 -92t-42 -127.5t-13.5 -149zM463 1538l356 344q60 -34 101 -79t41 -89q0 -38 -22.5 -66t-76.5 -61q-129 -74 -323 -151z" />
    <glyph glyph-name="Ocircumflex" unicode="&#xd4;" horiz-adv-x="1363" 
d="M1292 678q0 -341 -165.5 -522t-450.5 -181q-289 0 -447.5 180t-158.5 523q0 152 37.5 274.5t99 202t145 133t170.5 76t180 22.5q98 0 183 -23.5t160.5 -76.5t129.5 -133.5t85.5 -201.5t31.5 -273zM432 692q0 -63 5.5 -118t23 -113.5t45 -100t75 -68t109.5 -26.5
q68 0 117 33.5t76 92.5t39 128t12 152q0 57 -6 110.5t-23.5 112t-44.5 101t-73 70.5t-105 28q-66 0 -116 -33.5t-78.5 -92t-42 -127.5t-13.5 -149zM449 1432l-103 88q10 12 37.5 46t40.5 49.5t38 44.5t41.5 47t37.5 39.5t39 37.5q57 51 106 51q52 0 102 -47
q139 -132 242 -264l-100 -92l-244 174z" />
    <glyph glyph-name="Otilde" unicode="&#xd5;" horiz-adv-x="1363" 
d="M1292 678q0 -341 -165.5 -522t-450.5 -181q-289 0 -447.5 180t-158.5 523q0 152 37.5 274.5t99 202t145 133t170.5 76t180 22.5q98 0 183 -23.5t160.5 -76.5t129.5 -133.5t85.5 -201.5t31.5 -273zM432 692q0 -63 5.5 -118t23 -113.5t45 -100t75 -68t109.5 -26.5
q68 0 117 33.5t76 92.5t39 128t12 152q0 57 -6 110.5t-23.5 112t-44.5 101t-73 70.5t-105 28q-66 0 -116 -33.5t-78.5 -92t-42 -127.5t-13.5 -149zM393 1487l-20 182q81 64 178 64q57 0 149 -28t138 -28q67 0 133 39l18 -192q-68 -41 -143 -41q-48 0 -150.5 24.5
t-144.5 24.5q-81 0 -158 -45z" />
    <glyph glyph-name="Odieresis" unicode="&#xd6;" horiz-adv-x="1363" 
d="M1292 678q0 -341 -165.5 -522t-450.5 -181q-289 0 -447.5 180t-158.5 523q0 152 37.5 274.5t99 202t145 133t170.5 76t180 22.5q98 0 183 -23.5t160.5 -76.5t129.5 -133.5t85.5 -201.5t31.5 -273zM432 692q0 -63 5.5 -118t23 -113.5t45 -100t75 -68t109.5 -26.5
q68 0 117 33.5t76 92.5t39 128t12 152q0 57 -6 110.5t-23.5 112t-44.5 101t-73 70.5t-105 28q-66 0 -116 -33.5t-78.5 -92t-42 -127.5t-13.5 -149zM750 1606q0 63 43.5 105t115.5 42q69 0 113.5 -42.5t44.5 -104.5q0 -64 -45 -106t-115 -42q-72 0 -114.5 41.5t-42.5 106.5z
M301 1606q0 63 43 105t115 42q69 0 113 -42t44 -105q0 -64 -43.5 -106t-113.5 -42q-72 0 -115 42t-43 106z" />
    <glyph glyph-name="multiply" unicode="&#xd7;" 
d="M352 633l-213 213l199 198l215 -210l205 206l194 -194l-204 -209l208 -209l-200 -199l-209 209l-211 -211l-195 195z" />
    <glyph glyph-name="Oslash" unicode="&#xd8;" horiz-adv-x="1363" 
d="M500 -236l-285 115l80 211q-225 175 -225 588q0 152 37.5 274.5t99 202t145 133t170.5 76t180 22.5q42 0 86 -6l78 205l289 -112l-82 -207q219 -179 219 -588q0 -341 -165.5 -522t-450.5 -181q-38 0 -92 7zM432 692q0 -63 5.5 -118t23 -113.5t45 -100t75 -68t109.5 -26.5
q68 0 117 33.5t76 92.5t39 128t12 152q0 57 -6 110.5t-23.5 112t-44.5 101t-73 70.5t-105 28q-66 0 -116 -33.5t-78.5 -92t-42 -127.5t-13.5 -149z" />
    <glyph glyph-name="Ugrave" unicode="&#xd9;" horiz-adv-x="1288" 
d="M104 1362h353v-891q0 -111 50 -157t142 -46q82 0 132 49.5t50 143.5v901h353v-942q0 -205 -149.5 -325t-393.5 -120q-269 0 -403 115t-134 361v911zM524 1878l357 -340l-76 -104q-247 107 -324 153q-55 32 -76.5 60t-21.5 65q0 44 40.5 88t100.5 78z" />
    <glyph glyph-name="Uacute" unicode="&#xda;" horiz-adv-x="1288" 
d="M104 1362h353v-891q0 -111 50 -157t142 -46q82 0 132 49.5t50 143.5v901h353v-942q0 -205 -149.5 -325t-393.5 -120q-269 0 -403 115t-134 361v911zM420 1538l356 344q60 -34 101 -79t41 -89q0 -38 -22.5 -66t-76.5 -61q-129 -74 -323 -151z" />
    <glyph glyph-name="Ucircumflex" unicode="&#xdb;" horiz-adv-x="1288" 
d="M104 1362h353v-891q0 -111 50 -157t142 -46q82 0 132 49.5t50 143.5v901h353v-942q0 -205 -149.5 -325t-393.5 -120q-269 0 -403 115t-134 361v911zM410 1432l-103 88q10 12 37.5 46t40.5 49.5t38 44.5t41.5 47t37.5 39.5t39 37.5q57 51 106 51q53 0 103 -47
q136 -128 241 -264l-100 -92l-244 174z" />
    <glyph glyph-name="Udieresis" unicode="&#xdc;" horiz-adv-x="1288" 
d="M104 1362h353v-891q0 -111 50 -157t142 -46q82 0 132 49.5t50 143.5v901h353v-942q0 -205 -149.5 -325t-393.5 -120q-269 0 -403 115t-134 361v911zM711 1606q0 63 43.5 105t115.5 42q69 0 113.5 -42.5t44.5 -104.5q0 -64 -45 -106t-115 -42q-72 0 -114.5 41.5
t-42.5 106.5zM262 1606q0 63 43 105t115 42q69 0 113.5 -42.5t44.5 -104.5q0 -64 -44 -106t-114 -42q-72 0 -115 42t-43 106z" />
    <glyph glyph-name="Yacute" unicode="&#xdd;" horiz-adv-x="1216" 
d="M864 1362h367l-455 -838v-524h-350v522l-440 840h387l235 -492h8zM395 1538l357 344q60 -34 100.5 -79t40.5 -89q0 -38 -22 -66.5t-76 -60.5q-127 -73 -324 -151z" />
    <glyph glyph-name="Thorn" unicode="&#xde;" horiz-adv-x="1173" 
d="M467 248v-248h-352v1362h352v-205h147q243 0 379.5 -110.5t136.5 -321.5q0 -154 -72.5 -263t-197 -161.5t-289.5 -52.5h-104zM467 522h80q109 0 165 40t56 140q0 101 -50 141t-153 40h-98v-361z" />
    <glyph glyph-name="germandbls" unicode="&#xdf;" horiz-adv-x="1265" 
d="M809 -33q-152 0 -277 49l70 248q106 -47 184 -47q99 0 99 84q0 29 -17 52.5t-44.5 42t-61 37t-67 41.5t-61 51.5t-44.5 71.5t-17 97q0 61 25.5 117t62 98t73 80t62 78.5t25.5 77.5q0 112 -180 112q-190 0 -190 -176v-1511h-342v1503q0 68 12 125t47 116.5t92.5 100
t156.5 66.5t230 26q244 0 370 -88t126 -233q0 -62 -26 -118t-63.5 -96.5t-75 -77t-63.5 -73.5t-26 -71q0 -32 25 -60t62 -49t81 -51.5t81 -63t62 -87.5t25 -122q0 -164 -114 -257t-302 -93z" />
    <glyph glyph-name="agrave" unicode="&#xe0;" horiz-adv-x="1107" 
d="M1004 997v-776l22 -221h-291l-14 96l-12 2q-82 -129 -265 -129q-91 0 -161 28.5t-113 76t-70.5 114.5t-38 137t-10.5 152q0 278 141.5 440t413.5 162q69 0 177.5 -19.5t220.5 -62.5zM664 330v493q-43 15 -95 15q-48 0 -83.5 -27t-55.5 -75.5t-29.5 -106.5t-9.5 -127
q0 -86 11.5 -146.5t45.5 -101.5t91 -41t91 35t34 82zM506 1679l254 -419l-98 -84q-192 140 -277 227q-70 70 -70 119q0 33 19 60.5t50.5 46t61 30.5t60.5 20z" />
    <glyph glyph-name="aacute" unicode="&#xe1;" horiz-adv-x="1107" 
d="M1004 997v-776l22 -221h-291l-14 96l-12 2q-82 -129 -265 -129q-91 0 -161 28.5t-113 76t-70.5 114.5t-38 137t-10.5 152q0 278 141.5 440t413.5 162q69 0 177.5 -19.5t220.5 -62.5zM664 330v493q-43 15 -95 15q-48 0 -83.5 -27t-55.5 -75.5t-29.5 -106.5t-9.5 -127
q0 -86 11.5 -146.5t45.5 -101.5t91 -41t91 35t34 82zM403 1260l254 419q31 -8 60 -20t60 -30.5t50 -46.5t19 -60q0 -48 -68 -119q-105 -103 -276 -227z" />
    <glyph glyph-name="acircumflex" unicode="&#xe2;" horiz-adv-x="1107" 
d="M1004 997v-776l22 -221h-291l-14 96l-12 2q-82 -129 -265 -129q-91 0 -161 28.5t-113 76t-70.5 114.5t-38 137t-10.5 152q0 278 141.5 440t413.5 162q69 0 177.5 -19.5t220.5 -62.5zM664 330v493q-43 15 -95 15q-48 0 -83.5 -27t-55.5 -75.5t-29.5 -106.5t-9.5 -127
q0 -86 11.5 -146.5t45.5 -101.5t91 -41t91 35t34 82zM328 1184l-111 88q105 158 225 299q41 47 68.5 63.5t67.5 16.5q42 0 69 -16.5t66 -63.5q111 -127 231 -299l-110 -88l-256 215z" />
    <glyph glyph-name="atilde" unicode="&#xe3;" horiz-adv-x="1107" 
d="M1004 997v-776l22 -221h-291l-14 96l-12 2q-82 -129 -265 -129q-91 0 -161 28.5t-113 76t-70.5 114.5t-38 137t-10.5 152q0 278 141.5 440t413.5 162q69 0 177.5 -19.5t220.5 -62.5zM664 330v493q-43 15 -95 15q-48 0 -83.5 -27t-55.5 -75.5t-29.5 -106.5t-9.5 -127
q0 -86 11.5 -146.5t45.5 -101.5t91 -41t91 35t34 82zM287 1274l-21 182q81 64 178 64q57 0 149 -28t138 -28q67 0 133 39l19 -192q-68 -41 -144 -41q-48 0 -150.5 24.5t-144.5 24.5q-80 0 -157 -45z" />
    <glyph glyph-name="adieresis" unicode="&#xe4;" horiz-adv-x="1107" 
d="M1004 997v-776l22 -221h-291l-14 96l-12 2q-82 -129 -265 -129q-91 0 -161 28.5t-113 76t-70.5 114.5t-38 137t-10.5 152q0 278 141.5 440t413.5 162q69 0 177.5 -19.5t220.5 -62.5zM664 330v493q-43 15 -95 15q-48 0 -83.5 -27t-55.5 -75.5t-29.5 -106.5t-9.5 -127
q0 -86 11.5 -146.5t45.5 -101.5t91 -41t91 35t34 82zM641 1386q0 62 44 105t116 43q69 0 113 -43t44 -105q0 -65 -44.5 -107t-114.5 -42q-72 0 -115 41.5t-43 107.5zM195 1386q0 62 43 105t114 43q69 0 113.5 -43.5t44.5 -104.5q0 -65 -44 -107t-114 -42q-72 0 -114.5 41.5
t-42.5 107.5z" />
    <glyph glyph-name="aring" unicode="&#xe5;" horiz-adv-x="1107" 
d="M1004 997v-776l22 -221h-291l-14 96l-12 2q-82 -129 -265 -129q-91 0 -161 28.5t-113 76t-70.5 114.5t-38 137t-10.5 152q0 278 141.5 440t413.5 162q69 0 177.5 -19.5t220.5 -62.5zM664 330v493q-43 15 -95 15q-48 0 -83.5 -27t-55.5 -75.5t-29.5 -106.5t-9.5 -127
q0 -86 11.5 -146.5t45.5 -101.5t91 -41t91 35t34 82zM383 1333q0 85 57 141t146 56q96 0 149 -53.5t53 -135.5q0 -90 -56.5 -146t-149.5 -56q-95 0 -147 54t-52 140zM520 1333q0 -67 66 -67q31 0 47 19t16 48q0 70 -63 70q-66 0 -66 -70z" />
    <glyph glyph-name="ae" unicode="&#xe6;" horiz-adv-x="1523" 
d="M1139 1079q166 0 262 -81t96 -238q0 -85 -37.5 -151t-92.5 -104t-132 -64t-140.5 -36t-133.5 -14q5 -74 58 -121t142 -47q122 0 254 86l92 -225q-7 -6 -24.5 -17t-55.5 -29t-82 -33.5t-107.5 -26.5t-127.5 -11q-236 0 -358 125q-137 -127 -303 -127q-90 0 -160 28.5
t-114 76t-72.5 115t-40 139.5t-11.5 155q0 181 61.5 314.5t187 209.5t304.5 76q145 0 287 -59q112 59 248 59zM567 840q-47 0 -82 -27.5t-55 -75t-29.5 -105t-9.5 -124.5q0 -295 150 -295q69 0 108 53q-37 101 -37 230q0 176 78 317q-70 27 -123 27zM1200 756q0 38 -22 61
t-58 23q-77 0 -124 -67t-52 -175q60 3 116 20.5t98 54t42 83.5z" />
    <glyph glyph-name="ccedilla" unicode="&#xe7;" horiz-adv-x="946" 
d="M600 240q54 0 103 19t112 63l121 -232q-144 -115 -363 -121l-24 -86q91 -9 146 -56t55 -122q0 -51 -18 -90t-45.5 -62.5t-65 -38.5t-72.5 -20.5t-72 -5.5q-106 0 -203 37l41 139q75 -26 138 -26q102 0 102 63q0 23 -15 38t-43.5 22t-58 9.5t-71.5 2.5l67 207
q-183 33 -283 168.5t-100 363.5q0 118 29 214.5t78 161t115 108.5t137 63.5t147 19.5q266 0 401 -213l-208 -178q-42 58 -84 89.5t-95 31.5q-85 0 -130.5 -73.5t-45.5 -209.5q0 -138 51.5 -212t153.5 -74z" />
    <glyph glyph-name="egrave" unicode="&#xe8;" horiz-adv-x="962" 
d="M578 1079q166 0 262 -81t96 -238q0 -62 -19.5 -113.5t-51.5 -87.5t-77.5 -65t-92.5 -46.5t-102.5 -30t-100.5 -18t-93 -8.5q6 -73 59.5 -120.5t143.5 -47.5q122 0 254 86l90 -225q-5 -5 -22.5 -16.5t-54.5 -29t-81 -33t-107.5 -27t-127.5 -11.5q-132 0 -230 38.5
t-156.5 110t-87 166t-28.5 214.5q0 113 34 216.5t97.5 186t166 131.5t229.5 49zM639 756q0 38 -21.5 61t-58.5 23q-76 0 -123.5 -67.5t-52.5 -174.5q60 3 116 20.5t98 54t42 83.5zM451 1679l254 -419l-99 -84q-189 138 -276 227q-70 70 -70 119q0 33 19 60.5t50.5 46
t61 30.5t60.5 20z" />
    <glyph glyph-name="eacute" unicode="&#xe9;" horiz-adv-x="962" 
d="M578 1079q166 0 262 -81t96 -238q0 -62 -19.5 -113.5t-51.5 -87.5t-77.5 -65t-92.5 -46.5t-102.5 -30t-100.5 -18t-93 -8.5q6 -73 59.5 -120.5t143.5 -47.5q122 0 254 86l90 -225q-5 -5 -22.5 -16.5t-54.5 -29t-81 -33t-107.5 -27t-127.5 -11.5q-132 0 -230 38.5
t-156.5 110t-87 166t-28.5 214.5q0 113 34 216.5t97.5 186t166 131.5t229.5 49zM639 756q0 38 -21.5 61t-58.5 23q-76 0 -123.5 -67.5t-52.5 -174.5q60 3 116 20.5t98 54t42 83.5zM338 1260l254 419q31 -8 60 -20t59.5 -30.5t49.5 -46.5t19 -60q0 -49 -67 -119
q-102 -100 -277 -227z" />
    <glyph glyph-name="ecircumflex" unicode="&#xea;" horiz-adv-x="962" 
d="M578 1079q166 0 262 -81t96 -238q0 -62 -19.5 -113.5t-51.5 -87.5t-77.5 -65t-92.5 -46.5t-102.5 -30t-100.5 -18t-93 -8.5q6 -73 59.5 -120.5t143.5 -47.5q122 0 254 86l90 -225q-5 -5 -22.5 -16.5t-54.5 -29t-81 -33t-107.5 -27t-127.5 -11.5q-132 0 -230 38.5
t-156.5 110t-87 166t-28.5 214.5q0 113 34 216.5t97.5 186t166 131.5t229.5 49zM639 756q0 38 -21.5 61t-58.5 23q-76 0 -123.5 -67.5t-52.5 -174.5q60 3 116 20.5t98 54t42 83.5zM287 1184l-111 88q105 158 225 299q41 47 68.5 63.5t67.5 16.5q42 0 69 -16.5t66 -63.5
q111 -127 231 -299l-110 -88l-256 215z" />
    <glyph glyph-name="edieresis" unicode="&#xeb;" horiz-adv-x="962" 
d="M578 1079q166 0 262 -81t96 -238q0 -62 -19.5 -113.5t-51.5 -87.5t-77.5 -65t-92.5 -46.5t-102.5 -30t-100.5 -18t-93 -8.5q6 -73 59.5 -120.5t143.5 -47.5q122 0 254 86l90 -225q-5 -5 -22.5 -16.5t-54.5 -29t-81 -33t-107.5 -27t-127.5 -11.5q-132 0 -230 38.5
t-156.5 110t-87 166t-28.5 214.5q0 113 34 216.5t97.5 186t166 131.5t229.5 49zM639 756q0 38 -21.5 61t-58.5 23q-76 0 -123.5 -67.5t-52.5 -174.5q60 3 116 20.5t98 54t42 83.5zM600 1386q0 62 44 105t116 43q69 0 113.5 -43.5t44.5 -104.5q0 -65 -45 -107t-115 -42
q-72 0 -115 41.5t-43 107.5zM154 1386q0 62 43 105t114 43q69 0 113.5 -43.5t44.5 -104.5q0 -65 -44 -107t-114 -42q-72 0 -114.5 41.5t-42.5 107.5z" />
    <glyph glyph-name="igrave" unicode="&#xec;" horiz-adv-x="546" 
d="M453 0h-344v1049h344v-1049zM231 1679l254 -419l-98 -84q-189 138 -276 227q-70 70 -70 119q0 33 19 60.5t50 46t60.5 30.5t60.5 20z" />
    <glyph glyph-name="iacute" unicode="&#xed;" horiz-adv-x="546" 
d="M453 0h-344v1049h344v-1049zM84 1260l254 419q31 -8 60 -20t59.5 -30.5t49.5 -46.5t19 -60q0 -49 -67 -119q-102 -100 -277 -227z" />
    <glyph glyph-name="icircumflex" unicode="&#xee;" horiz-adv-x="546" 
d="M453 0h-344v1049h344v-1049zM29 1184l-111 88q105 158 225 299q41 47 68.5 63.5t67.5 16.5q42 0 69 -16.5t66 -63.5q111 -127 231 -299l-110 -88l-256 215z" />
    <glyph glyph-name="idieresis" unicode="&#xef;" horiz-adv-x="546" 
d="M453 0h-344v1049h344v-1049zM346 1386q0 62 44 105t116 43q69 0 113.5 -43.5t44.5 -104.5q0 -65 -45 -107t-115 -42q-72 0 -115 41.5t-43 107.5zM-100 1386q0 62 43 105t114 43q69 0 113.5 -43.5t44.5 -104.5q0 -65 -44 -107t-114 -42q-72 0 -114.5 41.5t-42.5 107.5z
" />
    <glyph glyph-name="eth" unicode="&#xf0;" horiz-adv-x="1085" 
d="M254 1217l68 256q206 -23 344 -111l192 133l141 -207l-137 -94q89 -126 130.5 -291.5t41.5 -331.5q0 -135 -29 -243t-88 -189.5t-156 -125.5t-226 -44q-240 0 -357 122t-117 335q0 117 33.5 211.5t91.5 154.5t134 91.5t163 31.5q114 0 191 -51q-51 296 -420 353zM414 430
q0 -197 127 -197q74 0 107.5 74t33.5 219q0 65 -2 90q-71 39 -129 39q-137 0 -137 -225z" />
    <glyph glyph-name="ntilde" unicode="&#xf1;" horiz-adv-x="1110" 
d="M449 0h-340v838l-25 211h285l20 -113q107 143 299 143q156 0 242 -90t86 -272v-717h-344v657q0 81 -17.5 120.5t-72.5 39.5q-62 0 -97.5 -42.5t-35.5 -110.5v-664zM274 1274l-20 182q81 64 178 64q57 0 149 -28t138 -28q67 0 133 39l18 -192q-68 -41 -143 -41
q-48 0 -150.5 24.5t-144.5 24.5q-81 0 -158 -45z" />
    <glyph glyph-name="ograve" unicode="&#xf2;" horiz-adv-x="1067" 
d="M537 217q74 0 106.5 73.5t32.5 227.5q0 162 -31.5 239t-107.5 77q-70 0 -105 -73.5t-35 -205.5q0 -58 3 -103t11.5 -91t23.5 -76t41 -49t61 -19zM49 516q0 124 31 223t81 161.5t117 104t134.5 58t138.5 16.5q41 0 78.5 -4t87.5 -17.5t91.5 -35.5t84 -62.5t71.5 -94.5
t47.5 -135.5t18.5 -180.5q0 -141 -39.5 -253t-108.5 -183t-161 -108.5t-199 -37.5q-225 0 -349 137.5t-124 411.5zM481 1679l254 -419l-98 -84q-192 140 -277 227q-69 69 -69 119q0 33 19 60.5t50 46t60.5 30.5t60.5 20z" />
    <glyph glyph-name="oacute" unicode="&#xf3;" horiz-adv-x="1067" 
d="M537 217q74 0 106.5 73.5t32.5 227.5q0 162 -31.5 239t-107.5 77q-70 0 -105 -73.5t-35 -205.5q0 -58 3 -103t11.5 -91t23.5 -76t41 -49t61 -19zM49 516q0 124 31 223t81 161.5t117 104t134.5 58t138.5 16.5q41 0 78.5 -4t87.5 -17.5t91.5 -35.5t84 -62.5t71.5 -94.5
t47.5 -135.5t18.5 -180.5q0 -141 -39.5 -253t-108.5 -183t-161 -108.5t-199 -37.5q-225 0 -349 137.5t-124 411.5zM352 1260l254 419q31 -8 60 -20t60 -30.5t50 -46.5t19 -60q0 -48 -68 -119q-105 -103 -276 -227z" />
    <glyph glyph-name="ocircumflex" unicode="&#xf4;" horiz-adv-x="1067" 
d="M537 217q74 0 106.5 73.5t32.5 227.5q0 162 -31.5 239t-107.5 77q-70 0 -105 -73.5t-35 -205.5q0 -58 3 -103t11.5 -91t23.5 -76t41 -49t61 -19zM49 516q0 124 31 223t81 161.5t117 104t134.5 58t138.5 16.5q41 0 78.5 -4t87.5 -17.5t91.5 -35.5t84 -62.5t71.5 -94.5
t47.5 -135.5t18.5 -180.5q0 -141 -39.5 -253t-108.5 -183t-161 -108.5t-199 -37.5q-225 0 -349 137.5t-124 411.5zM285 1184l-111 88q105 158 225 299q41 47 68.5 63.5t67.5 16.5q42 0 69 -16.5t66 -63.5q111 -127 231 -299l-110 -88l-256 215z" />
    <glyph glyph-name="otilde" unicode="&#xf5;" horiz-adv-x="1067" 
d="M537 217q74 0 106.5 73.5t32.5 227.5q0 162 -31.5 239t-107.5 77q-70 0 -105 -73.5t-35 -205.5q0 -58 3 -103t11.5 -91t23.5 -76t41 -49t61 -19zM49 516q0 124 31 223t81 161.5t117 104t134.5 58t138.5 16.5q41 0 78.5 -4t87.5 -17.5t91.5 -35.5t84 -62.5t71.5 -94.5
t47.5 -135.5t18.5 -180.5q0 -141 -39.5 -253t-108.5 -183t-161 -108.5t-199 -37.5q-225 0 -349 137.5t-124 411.5zM248 1274l-21 182q81 64 179 64q57 0 148.5 -28t137.5 -28q67 0 133 39l19 -192q-68 -41 -144 -41q-48 0 -150 24.5t-144 24.5q-81 0 -158 -45z" />
    <glyph glyph-name="odieresis" unicode="&#xf6;" horiz-adv-x="1067" 
d="M537 217q74 0 106.5 73.5t32.5 227.5q0 162 -31.5 239t-107.5 77q-70 0 -105 -73.5t-35 -205.5q0 -58 3 -103t11.5 -91t23.5 -76t41 -49t61 -19zM49 516q0 124 31 223t81 161.5t117 104t134.5 58t138.5 16.5q41 0 78.5 -4t87.5 -17.5t91.5 -35.5t84 -62.5t71.5 -94.5
t47.5 -135.5t18.5 -180.5q0 -141 -39.5 -253t-108.5 -183t-161 -108.5t-199 -37.5q-225 0 -349 137.5t-124 411.5zM608 1386q0 62 44 105t116 43q69 0 113.5 -43.5t44.5 -104.5q0 -65 -45 -107t-115 -42q-72 0 -115 41.5t-43 107.5zM162 1386q0 62 43 105t114 43
q69 0 113.5 -43.5t44.5 -104.5q0 -65 -44 -107t-114 -42q-72 0 -114.5 41.5t-42.5 107.5z" />
    <glyph glyph-name="divide" unicode="&#xf7;" 
d="M395 236q0 66 41.5 113.5t112.5 47.5q72 0 114 -43.5t42 -115.5q0 -69 -43.5 -116.5t-112.5 -47.5q-73 0 -113.5 44.5t-40.5 117.5zM395 1047q0 65 42 113t112 48q72 0 114 -44.5t42 -114.5t-43.5 -118t-112.5 -48q-73 0 -113.5 45t-40.5 119zM963 770v-272h-830v272h830
z" />
    <glyph glyph-name="oslash" unicode="&#xf8;" horiz-adv-x="1067" 
d="M348 -223l-246 108l88 201q-141 138 -141 430q0 124 31 223t81 161.5t117 104t134.5 58t138.5 16.5q56 0 108 -8l84 189l248 -109l-90 -201q129 -136 129 -401q0 -141 -39.5 -253t-108.5 -183t-161 -108.5t-199 -37.5q-44 0 -88 6zM537 217q74 0 106.5 73.5t32.5 227.5
q0 162 -31.5 239t-107.5 77q-70 0 -105 -73.5t-35 -205.5q0 -58 3 -103t11.5 -91t23.5 -76t41 -49t61 -19z" />
    <glyph glyph-name="ugrave" unicode="&#xf9;" horiz-adv-x="1116" 
d="M668 1049h342v-850l22 -199h-289l-14 98h-8q-94 -125 -270 -125q-349 0 -349 371v705h344v-660q0 -79 19 -117.5t78 -38.5q54 0 89.5 39.5t35.5 100.5v676zM500 1679l254 -419l-99 -84q-189 138 -276 227q-70 70 -70 119q0 33 19 60.5t50.5 46t61 30.5t60.5 20z" />
    <glyph glyph-name="uacute" unicode="&#xfa;" horiz-adv-x="1116" 
d="M668 1049h342v-850l22 -199h-289l-14 98h-8q-94 -125 -270 -125q-349 0 -349 371v705h344v-660q0 -79 19 -117.5t78 -38.5q54 0 89.5 39.5t35.5 100.5v676zM362 1260l254 419q31 -8 60 -20t60 -30.5t50 -46.5t19 -60q0 -48 -68 -119q-105 -103 -276 -227z" />
    <glyph glyph-name="ucircumflex" unicode="&#xfb;" horiz-adv-x="1116" 
d="M668 1049h342v-850l22 -199h-289l-14 98h-8q-94 -125 -270 -125q-349 0 -349 371v705h344v-660q0 -79 19 -117.5t78 -38.5q54 0 89.5 39.5t35.5 100.5v676zM297 1184l-111 88q102 153 226 299q41 47 68 63.5t67 16.5q42 0 69 -16.5t66 -63.5q111 -127 231 -299l-110 -88
l-256 215z" />
    <glyph glyph-name="udieresis" unicode="&#xfc;" horiz-adv-x="1116" 
d="M668 1049h342v-850l22 -199h-289l-14 98h-8q-94 -125 -270 -125q-349 0 -349 371v705h344v-660q0 -79 19 -117.5t78 -38.5q54 0 89.5 39.5t35.5 100.5v676zM616 1386q0 62 44 105t116 43q69 0 113.5 -43.5t44.5 -104.5q0 -65 -45 -107t-115 -42q-72 0 -115 41.5
t-43 107.5zM170 1386q0 62 43.5 105t114.5 43q69 0 113 -43t44 -105q0 -65 -43.5 -107t-113.5 -42q-72 0 -115 41.5t-43 107.5z" />
    <glyph glyph-name="yacute" unicode="&#xfd;" horiz-adv-x="1105" 
d="M1012 231q0 -225 -6 -286q-46 -490 -494 -490q-172 0 -264 75t-92 208q0 201 202 348q-127 24 -191.5 109.5t-64.5 216.5v637h344v-590q0 -38 1.5 -61.5t7.5 -49t17 -39t30.5 -22t48.5 -8.5q52 0 84.5 37t32.5 100v633h344v-818zM463 -205q0 -42 23 -70t69 -28
q67 0 94 58t27 167v174q-44 -26 -78.5 -53.5t-67 -64.5t-50 -83.5t-17.5 -99.5zM356 1260l254 419q31 -8 60 -20t60 -30.5t50 -46.5t19 -60q0 -48 -68 -119q-105 -103 -276 -227z" />
    <glyph glyph-name="thorn" unicode="&#xfe;" horiz-adv-x="1091" 
d="M436 -2v-428h-342v1853h342v-368q105 24 191 24q206 0 314 -141.5t108 -407.5q0 -269 -122 -415t-337 -146q-91 0 -154 29zM702 518q0 72 -7 124t-25.5 95.5t-53.5 65.5t-88 22q-46 0 -92 -12v-559q56 -35 113 -35q55 0 90.5 42.5t49 106.5t13.5 150z" />
    <glyph glyph-name="ydieresis" unicode="&#xff;" horiz-adv-x="1105" 
d="M1012 231q0 -225 -6 -286q-46 -490 -494 -490q-172 0 -264 75t-92 208q0 201 202 348q-127 24 -191.5 109.5t-64.5 216.5v637h344v-590q0 -38 1.5 -61.5t7.5 -49t17 -39t30.5 -22t48.5 -8.5q52 0 84.5 37t32.5 100v633h344v-818zM463 -205q0 -42 23 -70t69 -28
q67 0 94 58t27 167v174q-44 -26 -78.5 -53.5t-67 -64.5t-50 -83.5t-17.5 -99.5zM623 1386q0 62 44 105t115 43q69 0 113.5 -43.5t44.5 -104.5q0 -65 -45 -107t-115 -42q-72 0 -114.5 41.5t-42.5 107.5zM176 1386q0 62 43.5 105t114.5 43q69 0 113.5 -43.5t44.5 -104.5
q0 -65 -44 -107t-114 -42q-72 0 -115 41.5t-43 107.5z" />
    <glyph glyph-name="Amacron" unicode="&#x100;" horiz-adv-x="1325" 
d="M346 0h-338l443 1362h395l471 -1362h-375l-92 291h-412zM639 1034l-141 -485h286l-137 485h-8zM319 1487v229h652v-229h-652z" />
    <glyph glyph-name="amacron" unicode="&#x101;" horiz-adv-x="1107" 
d="M1004 997v-776l22 -221h-291l-14 96l-12 2q-82 -129 -265 -129q-91 0 -161 28.5t-113 76t-70.5 114.5t-38 137t-10.5 152q0 278 141.5 440t413.5 162q69 0 177.5 -19.5t220.5 -62.5zM664 330v493q-43 15 -95 15q-48 0 -83.5 -27t-55.5 -75.5t-29.5 -106.5t-9.5 -127
q0 -86 11.5 -146.5t45.5 -101.5t91 -41t91 35t34 82zM248 1266v231h651v-231h-651z" />
    <glyph glyph-name="Abreve" unicode="&#x102;" horiz-adv-x="1325" 
d="M346 0h-338l443 1362h395l471 -1362h-375l-92 291h-412zM639 1034l-141 -485h286l-137 485h-8zM836 1833l184 -82q-16 -41 -35.5 -76.5t-52.5 -74t-72.5 -65.5t-96.5 -44.5t-124 -17.5t-124.5 17.5t-97.5 45.5t-71 65.5t-49 73t-29 72.5l189 86q34 -78 77 -118t113 -40
q69 0 109.5 36t79.5 122z" />
    <glyph glyph-name="abreve" unicode="&#x103;" horiz-adv-x="1107" 
d="M1004 997v-776l22 -221h-291l-14 96l-12 2q-82 -129 -265 -129q-91 0 -161 28.5t-113 76t-70.5 114.5t-38 137t-10.5 152q0 278 141.5 440t413.5 162q69 0 177.5 -19.5t220.5 -62.5zM664 330v493q-43 15 -95 15q-48 0 -83.5 -27t-55.5 -75.5t-29.5 -106.5t-9.5 -127
q0 -86 11.5 -146.5t45.5 -101.5t91 -41t91 35t34 82zM760 1579l178 -47q-41 -142 -131 -228.5t-238 -86.5q-84 0 -150.5 27t-109 75t-68 99.5t-40.5 113.5l186 47q35 -88 77 -124t111 -36q64 0 107 36t78 124z" />
    <glyph glyph-name="Aogonek" unicode="&#x104;" horiz-adv-x="1325" 
d="M346 0h-338l443 1362h395l471 -1362q-87 -42 -150 -117.5t-63 -134.5q0 -70 72 -70q40 0 98 23l55 -170q-82 -47 -207 -47q-127 0 -187.5 58.5t-60.5 148.5q0 91 48.5 173t107.5 136h-88l-92 291h-412zM639 1034l-141 -485h286l-137 485h-8z" />
    <glyph glyph-name="aogonek" unicode="&#x105;" horiz-adv-x="1107" 
d="M1004 997v-776l22 -221q-69 -49 -123.5 -120t-54.5 -132q0 -70 72 -70q41 0 98 23l55 -170q-82 -47 -207 -47q-127 0 -187.5 58.5t-60.5 148.5q0 91 50 172t110 137h-43l-14 96l-12 2q-82 -129 -265 -129q-91 0 -161 28.5t-113 76t-70.5 114.5t-38 137t-10.5 152
q0 278 141.5 440t413.5 162q69 0 177.5 -19.5t220.5 -62.5zM664 330v493q-43 15 -95 15q-48 0 -83.5 -27t-55.5 -75.5t-29.5 -106.5t-9.5 -127q0 -86 11.5 -146.5t45.5 -101.5t91 -41t91 35t34 82z" />
    <glyph glyph-name="Cacute" unicode="&#x106;" horiz-adv-x="1214" 
d="M719 264q142 0 287 135l178 -229q-110 -101 -226.5 -148t-257.5 -47q-293 0 -461.5 179t-168.5 516q0 131 26 240t72.5 185.5t107 134t134 91t148 49.5t153.5 16q145 0 272 -68t221 -214l-250 -180q-123 170 -260 170q-119 0 -190.5 -104t-71.5 -300q0 -201 71 -313.5
t216 -112.5zM467 1538l356 344q60 -34 101 -79t41 -89q0 -38 -22.5 -66t-76.5 -61q-129 -74 -323 -151z" />
    <glyph glyph-name="cacute" unicode="&#x107;" horiz-adv-x="946" 
d="M600 240q54 0 103 19t112 63l121 -232q-154 -121 -385 -121q-234 0 -367 140t-133 403q0 118 29 214.5t78 161t115 108.5t137 63.5t147 19.5q266 0 401 -213l-208 -178q-42 58 -84 89.5t-95 31.5q-85 0 -130.5 -73.5t-45.5 -209.5q0 -138 51.5 -212t153.5 -74zM365 1260
l253 419q31 -8 60 -20t60 -30.5t50 -46.5t19 -60q0 -48 -68 -119q-105 -103 -276 -227z" />
    <glyph glyph-name="Ccircumflex" unicode="&#x108;" horiz-adv-x="1214" 
d="M719 264q142 0 287 135l178 -229q-110 -101 -226.5 -148t-257.5 -47q-293 0 -461.5 179t-168.5 516q0 131 26 240t72.5 185.5t107 134t134 91t148 49.5t153.5 16q145 0 272 -68t221 -214l-250 -180q-123 170 -260 170q-119 0 -190.5 -104t-71.5 -300q0 -201 71 -313.5
t216 -112.5zM455 1432l-103 88q10 12 37.5 46t40.5 49.5t38 44.5t41.5 47t37.5 39.5t39 37.5q57 51 106 51q53 0 103 -47q136 -128 241 -264l-100 -92l-244 174z" />
    <glyph glyph-name="ccircumflex" unicode="&#x109;" horiz-adv-x="946" 
d="M600 240q54 0 103 19t112 63l121 -232q-154 -121 -385 -121q-234 0 -367 140t-133 403q0 118 29 214.5t78 161t115 108.5t137 63.5t147 19.5q266 0 401 -213l-208 -178q-42 58 -84 89.5t-95 31.5q-85 0 -130.5 -73.5t-45.5 -209.5q0 -138 51.5 -212t153.5 -74zM287 1184
l-111 88q105 158 225 299q41 47 68.5 63.5t67.5 16.5q42 0 69 -16.5t66 -63.5q111 -127 231 -299l-110 -88l-256 215z" />
    <glyph glyph-name="Cdotaccent" unicode="&#x10a;" horiz-adv-x="1214" 
d="M719 264q142 0 287 135l178 -229q-110 -101 -226.5 -148t-257.5 -47q-293 0 -461.5 179t-168.5 516q0 131 26 240t72.5 185.5t107 134t134 91t148 49.5t153.5 16q145 0 272 -68t221 -214l-250 -180q-123 170 -260 170q-119 0 -190.5 -104t-71.5 -300q0 -201 71 -313.5
t216 -112.5zM498 1640q0 73 49.5 121.5t132.5 48.5q80 0 131 -49t51 -121q0 -74 -50.5 -122t-131.5 -48q-83 0 -132.5 47.5t-49.5 122.5z" />
    <glyph glyph-name="cdotaccent" unicode="&#x10b;" horiz-adv-x="946" 
d="M600 240q54 0 103 19t112 63l121 -232q-154 -121 -385 -121q-234 0 -367 140t-133 403q0 118 29 214.5t78 161t115 108.5t137 63.5t147 19.5q266 0 401 -213l-208 -178q-42 58 -84 89.5t-95 31.5q-85 0 -130.5 -73.5t-45.5 -209.5q0 -138 51.5 -212t153.5 -74zM356 1348
q0 72 50 121t133 49q80 0 131 -49t51 -121q0 -74 -50.5 -122t-131.5 -48q-83 0 -133 47.5t-50 122.5z" />
    <glyph glyph-name="Ccaron" unicode="&#x10c;" horiz-adv-x="1214" 
d="M719 264q142 0 287 135l178 -229q-110 -101 -226.5 -148t-257.5 -47q-293 0 -461.5 179t-168.5 516q0 131 26 240t72.5 185.5t107 134t134 91t148 49.5t153.5 16q145 0 272 -68t221 -214l-250 -180q-123 170 -260 170q-119 0 -190.5 -104t-71.5 -300q0 -201 71 -313.5
t216 -112.5zM332 1747l102 88l238 -174l243 174l101 -92q-103 -132 -242 -264q-50 -47 -102 -47q-50 0 -107 51q-22 19 -44.5 42.5t-50 55t-44 51.5t-50 61t-44.5 54z" />
    <glyph glyph-name="ccaron" unicode="&#x10d;" horiz-adv-x="946" 
d="M600 240q54 0 103 19t112 63l121 -232q-154 -121 -385 -121q-234 0 -367 140t-133 403q0 118 29 214.5t78 161t115 108.5t137 63.5t147 19.5q266 0 401 -213l-208 -178q-42 58 -84 89.5t-95 31.5q-85 0 -130.5 -73.5t-45.5 -209.5q0 -138 51.5 -212t153.5 -74zM791 1651
l110 -88q-46 -69 -110.5 -155.5t-114.5 -143.5q-72 -80 -135 -80q-68 0 -135 80q-108 123 -232 297l111 90l256 -215z" />
    <glyph glyph-name="Dcaron" unicode="&#x10e;" horiz-adv-x="1323" 
d="M115 0v1362h477q314 0 487.5 -158.5t173.5 -476.5q0 -155 -35.5 -279.5t-95.5 -207t-144.5 -137.5t-178 -79t-199.5 -24h-485zM467 1087v-815h137q140 0 218.5 107t78.5 313q0 114 -25 194t-71.5 122.5t-100.5 60.5t-122 18h-115zM240 1747l102 88l238 -174l243 174
l101 -92q-103 -132 -242 -264q-50 -47 -102 -47q-50 0 -107 51q-22 19 -44.5 42.5t-50 55t-44 51.5t-50 61t-44.5 54z" />
    <glyph glyph-name="dcaron" unicode="&#x10f;" horiz-adv-x="1294" 
d="M565 1079q57 0 99 -10v354h340v-1200l22 -223h-287l-18 98h-12q-79 -129 -254 -129q-99 0 -173.5 30.5t-117.5 78t-69.5 117t-35 135t-8.5 143.5q0 177 60 313.5t177.5 214.5t276.5 78zM664 326v495q-43 15 -80 15q-57 0 -97 -29.5t-60 -81.5t-28 -106.5t-8 -118.5
q0 -287 144 -287q57 0 93 35t36 78zM1149 1409v-459l123 -24q61 139 106 303q19 74 19 104q0 49 -29.5 69.5t-87.5 20.5q-70 0 -131 -14z" />
    <glyph glyph-name="Dcroat" unicode="&#x110;" horiz-adv-x="1345" 
d="M10 561v236h127v565h477q314 0 488 -158.5t174 -476.5q0 -155 -35.5 -279.5t-95.5 -207t-144.5 -137.5t-178 -79t-199.5 -24h-486v561h-127zM489 1087v-290h273v-236h-273v-289h138q140 0 218.5 107t78.5 313q0 395 -320 395h-115z" />
    <glyph glyph-name="dcroat" unicode="&#x111;" horiz-adv-x="1107" 
d="M379 1104v211h285v108h340v-108h98v-211h-98v-881l22 -223h-287l-18 98h-12q-79 -129 -254 -129q-404 0 -404 473q0 252 134 411t356 159q78 0 123 -11v103h-285zM664 326v428q-40 14 -80 14q-57 0 -97 -27t-60 -73.5t-28 -94.5t-8 -104q0 -256 144 -256q57 0 93 35
t36 78z" />
    <glyph glyph-name="Emacron" unicode="&#x112;" horiz-adv-x="1081" 
d="M115 0v1362h891v-307h-539v-207h463v-307h-463v-234h553v-307h-905zM223 1487v229h651v-229h-651z" />
    <glyph glyph-name="emacron" unicode="&#x113;" horiz-adv-x="962" 
d="M578 1079q166 0 262 -81t96 -238q0 -62 -19.5 -113.5t-51.5 -87.5t-77.5 -65t-92.5 -46.5t-102.5 -30t-100.5 -18t-93 -8.5q6 -73 59.5 -120.5t143.5 -47.5q122 0 254 86l90 -225q-5 -5 -22.5 -16.5t-54.5 -29t-81 -33t-107.5 -27t-127.5 -11.5q-132 0 -230 38.5
t-156.5 110t-87 166t-28.5 214.5q0 113 34 216.5t97.5 186t166 131.5t229.5 49zM639 756q0 38 -21.5 61t-58.5 23q-76 0 -123.5 -67.5t-52.5 -174.5q60 3 116 20.5t98 54t42 83.5zM223 1266v231h651v-231h-651z" />
    <glyph glyph-name="Ebreve" unicode="&#x114;" horiz-adv-x="1081" 
d="M115 0v1362h891v-307h-539v-207h463v-307h-463v-234h553v-307h-905zM754 1833l184 -82q-16 -41 -35.5 -76.5t-52.5 -74t-72.5 -65.5t-96.5 -44.5t-124 -17.5t-124.5 17.5t-97.5 45.5t-71 65.5t-49 73t-29 72.5l189 86q34 -78 77 -118t113 -40q69 0 109.5 36t79.5 122z
" />
    <glyph glyph-name="ebreve" unicode="&#x115;" horiz-adv-x="962" 
d="M578 1079q166 0 262 -81t96 -238q0 -62 -19.5 -113.5t-51.5 -87.5t-77.5 -65t-92.5 -46.5t-102.5 -30t-100.5 -18t-93 -8.5q6 -73 59.5 -120.5t143.5 -47.5q122 0 254 86l90 -225q-5 -5 -22.5 -16.5t-54.5 -29t-81 -33t-107.5 -27t-127.5 -11.5q-132 0 -230 38.5
t-156.5 110t-87 166t-28.5 214.5q0 113 34 216.5t97.5 186t166 131.5t229.5 49zM639 756q0 38 -21.5 61t-58.5 23q-76 0 -123.5 -67.5t-52.5 -174.5q60 3 116 20.5t98 54t42 83.5zM739 1579l179 -47q-41 -142 -131 -228.5t-238 -86.5q-68 0 -125 18.5t-96 48.5t-69.5 72.5
t-48.5 85t-30 90.5l187 47q35 -88 77 -124t111 -36q64 0 106.5 36t77.5 124z" />
    <glyph glyph-name="Edotaccent" unicode="&#x116;" horiz-adv-x="1081" 
d="M115 0v1362h891v-307h-539v-207h463v-307h-463v-234h553v-307h-905zM379 1640q0 73 49.5 121.5t132.5 48.5q80 0 131 -49t51 -121q0 -74 -50.5 -122t-131.5 -48q-83 0 -132.5 47.5t-49.5 122.5z" />
    <glyph glyph-name="edotaccent" unicode="&#x117;" horiz-adv-x="962" 
d="M578 1079q166 0 262 -81t96 -238q0 -62 -19.5 -113.5t-51.5 -87.5t-77.5 -65t-92.5 -46.5t-102.5 -30t-100.5 -18t-93 -8.5q6 -73 59.5 -120.5t143.5 -47.5q122 0 254 86l90 -225q-5 -5 -22.5 -16.5t-54.5 -29t-81 -33t-107.5 -27t-127.5 -11.5q-132 0 -230 38.5
t-156.5 110t-87 166t-28.5 214.5q0 113 34 216.5t97.5 186t166 131.5t229.5 49zM639 756q0 38 -21.5 61t-58.5 23q-76 0 -123.5 -67.5t-52.5 -174.5q60 3 116 20.5t98 54t42 83.5zM379 1348q0 73 49.5 121.5t132.5 48.5q80 0 131 -49t51 -121q0 -74 -50.5 -122t-131.5 -48
q-83 0 -132.5 47.5t-49.5 122.5z" />
    <glyph glyph-name="Eogonek" unicode="&#x118;" horiz-adv-x="1081" 
d="M115 0v1362h891v-307h-539v-207h463v-307h-463v-234h553v-307q-103 -43 -168.5 -113.5t-65.5 -138.5q0 -70 72 -70q40 0 98 23l56 -170q-82 -47 -207 -47q-127 0 -187.5 58.5t-60.5 148.5q0 94 52 175.5t122 133.5h-616z" />
    <glyph glyph-name="eogonek" unicode="&#x119;" horiz-adv-x="962" 
d="M578 1079q166 0 262 -81t96 -238q0 -62 -19.5 -113.5t-51.5 -87.5t-77.5 -65t-92.5 -46.5t-102.5 -30t-100.5 -18t-93 -8.5q6 -73 59.5 -120.5t143.5 -47.5q122 0 254 86l90 -225q-18 -18 -170 -102q-65 -35 -118.5 -102.5t-53.5 -131.5q0 -70 72 -70q40 0 98 23l55 -170
q-82 -47 -206 -47q-127 0 -187.5 58.5t-60.5 148.5q0 140 129 278q-233 14 -343 153.5t-110 373.5q0 113 34 216.5t97.5 186t166 131.5t229.5 49zM639 756q0 38 -21.5 61t-58.5 23q-76 0 -123.5 -67.5t-52.5 -174.5q60 3 116 20.5t98 54t42 83.5z" />
    <glyph glyph-name="Ecaron" unicode="&#x11a;" horiz-adv-x="1081" 
d="M115 0v1362h891v-307h-539v-207h463v-307h-463v-234h553v-307h-905zM205 1747l102 88l238 -174l243 174l101 -92q-103 -132 -242 -264q-50 -47 -102 -47q-50 0 -107 51q-22 19 -44.5 42.5t-50 55t-44 51.5t-50 61t-44.5 54z" />
    <glyph glyph-name="ecaron" unicode="&#x11b;" horiz-adv-x="962" 
d="M578 1079q166 0 262 -81t96 -238q0 -62 -19.5 -113.5t-51.5 -87.5t-77.5 -65t-92.5 -46.5t-102.5 -30t-100.5 -18t-93 -8.5q6 -73 59.5 -120.5t143.5 -47.5q122 0 254 86l90 -225q-5 -5 -22.5 -16.5t-54.5 -29t-81 -33t-107.5 -27t-127.5 -11.5q-132 0 -230 38.5
t-156.5 110t-87 166t-28.5 214.5q0 113 34 216.5t97.5 186t166 131.5t229.5 49zM639 756q0 38 -21.5 61t-58.5 23q-76 0 -123.5 -67.5t-52.5 -174.5q60 3 116 20.5t98 54t42 83.5zM807 1651l111 -88q-111 -168 -226 -299q-72 -80 -135 -80q-68 0 -135 80q-108 123 -232 297
l111 90l256 -215z" />
    <glyph glyph-name="Gcircumflex" unicode="&#x11c;" horiz-adv-x="1310" 
d="M1206 702v-587q-89 -64 -223 -102t-285 -38q-295 0 -461.5 178t-166.5 525q0 153 37 276.5t98 202.5t143.5 132t168.5 75t179 22q72 0 134.5 -11.5t130 -39.5t131.5 -83t120 -136l-256 -188q-67 88 -130 126t-134 38q-122 0 -191 -101t-69 -293q0 -440 277 -440
q34 0 77 7.5t66 17.5v419h354zM461 1432l-103 88q10 12 37.5 46t40.5 49.5t38 44.5t41.5 47t37.5 39.5t39 37.5q57 51 106 51q53 0 103 -47q136 -128 241 -264l-100 -92l-244 174z" />
    <glyph glyph-name="gcircumflex" unicode="&#x11d;" horiz-adv-x="1099" 
d="M516 -543q-181 0 -275 78t-94 217q0 108 54.5 194t160.5 163q-131 20 -222 137t-91 297q0 257 147 396.5t390 139.5q98 0 213.5 -21.5t206.5 -60.5v-796q0 -140 -7 -240q-18 -242 -137.5 -373t-345.5 -131zM666 418v407q-46 11 -84 11q-51 0 -89 -24.5t-59.5 -66.5
t-32 -91.5t-10.5 -106.5t5 -98.5t19 -84t45.5 -65.5t78.5 -23q54 0 90.5 38t36.5 104zM455 -195q0 -102 94 -102q39 0 63.5 18.5t37 60t16.5 90t4 126.5v104q-97 -56 -156 -135t-59 -162zM315 1184l-110 88q105 158 225 299q41 47 68 63.5t67 16.5q42 0 69 -16.5t66 -63.5
q116 -132 232 -299l-111 -88l-256 215z" />
    <glyph glyph-name="Gbreve" unicode="&#x11e;" horiz-adv-x="1310" 
d="M1206 702v-587q-89 -64 -223 -102t-285 -38q-295 0 -461.5 178t-166.5 525q0 153 37 276.5t98 202.5t143.5 132t168.5 75t179 22q72 0 134.5 -11.5t130 -39.5t131.5 -83t120 -136l-256 -188q-67 88 -130 126t-134 38q-122 0 -191 -101t-69 -293q0 -440 277 -440
q34 0 77 7.5t66 17.5v419h354zM885 1833l184 -82q-16 -41 -35.5 -76.5t-52.5 -74t-72.5 -65.5t-96.5 -44.5t-124 -17.5t-124.5 17.5t-97.5 45.5t-71 65.5t-49 73t-29 72.5l189 86q34 -78 77 -118t113 -40q69 0 109.5 36t79.5 122z" />
    <glyph glyph-name="gbreve" unicode="&#x11f;" horiz-adv-x="1099" 
d="M516 -543q-181 0 -275 78t-94 217q0 108 54.5 194t160.5 163q-131 20 -222 137t-91 297q0 257 147 396.5t390 139.5q98 0 213.5 -21.5t206.5 -60.5v-796q0 -140 -7 -240q-18 -242 -137.5 -373t-345.5 -131zM666 418v407q-46 11 -84 11q-51 0 -89 -24.5t-59.5 -66.5
t-32 -91.5t-10.5 -106.5t5 -98.5t19 -84t45.5 -65.5t78.5 -23q54 0 90.5 38t36.5 104zM455 -195q0 -102 94 -102q39 0 63.5 18.5t37 60t16.5 90t4 126.5v104q-97 -56 -156 -135t-59 -162zM768 1579l178 -47q-19 -68 -49 -122.5t-73.5 -99t-106 -69t-139.5 -24.5
q-68 0 -125 18.5t-96 48.5t-69.5 72.5t-48.5 85t-30 90.5l186 47q35 -88 77.5 -124t111.5 -36q64 0 106.5 36t77.5 124z" />
    <glyph glyph-name="Gdotaccent" unicode="&#x120;" horiz-adv-x="1310" 
d="M1206 702v-587q-89 -64 -223 -102t-285 -38q-295 0 -461.5 178t-166.5 525q0 153 37 276.5t98 202.5t143.5 132t168.5 75t179 22q72 0 134.5 -11.5t130 -39.5t131.5 -83t120 -136l-256 -188q-67 88 -130 126t-134 38q-122 0 -191 -101t-69 -293q0 -440 277 -440
q34 0 77 7.5t66 17.5v419h354zM512 1640q0 73 49.5 121.5t132.5 48.5q80 0 131.5 -49t51.5 -121q0 -74 -51 -122t-132 -48q-83 0 -132.5 47.5t-49.5 122.5z" />
    <glyph glyph-name="gdotaccent" unicode="&#x121;" horiz-adv-x="1099" 
d="M516 -543q-181 0 -275 78t-94 217q0 108 54.5 194t160.5 163q-131 20 -222 137t-91 297q0 257 147 396.5t390 139.5q98 0 213.5 -21.5t206.5 -60.5v-796q0 -140 -7 -240q-18 -242 -137.5 -373t-345.5 -131zM666 418v407q-46 11 -84 11q-51 0 -89 -24.5t-59.5 -66.5
t-32 -91.5t-10.5 -106.5t5 -98.5t19 -84t45.5 -65.5t78.5 -23q54 0 90.5 38t36.5 104zM455 -195q0 -102 94 -102q39 0 63.5 18.5t37 60t16.5 90t4 126.5v104q-97 -56 -156 -135t-59 -162zM406 1348q0 73 49.5 121.5t132.5 48.5q80 0 131 -49t51 -121q0 -74 -50.5 -122
t-131.5 -48q-83 0 -132.5 47.5t-49.5 122.5z" />
    <glyph glyph-name="Gcommaaccent" unicode="&#x122;" horiz-adv-x="1310" 
d="M1206 702v-587q-89 -64 -223 -102t-285 -38q-295 0 -461.5 178t-166.5 525q0 153 37 276.5t98 202.5t143.5 132t168.5 75t179 22q72 0 134.5 -11.5t130 -39.5t131.5 -83t120 -136l-256 -188q-67 88 -130 126t-134 38q-122 0 -191 -101t-69 -293q0 -440 277 -440
q34 0 77 7.5t66 17.5v419h354zM588 -104l-125 -428l121 -60q131 170 184 262q41 65 41 115q0 35 -21 58.5t-59 34t-68.5 14t-72.5 4.5z" />
    <glyph glyph-name="gcommaaccent" unicode="&#x123;" horiz-adv-x="1099" 
d="M776 1595l-125 -428q-42 1 -72.5 4.5t-68.5 14t-59 34t-21 58.5q0 50 41 115q53 92 184 262zM516 -543q-181 0 -275 78t-94 217q0 108 54.5 194t160.5 163q-131 20 -222 137t-91 297q0 257 147 396.5t390 139.5q98 0 213.5 -21.5t206.5 -60.5v-796q0 -140 -7 -240
q-18 -242 -137.5 -373t-345.5 -131zM666 418v407q-46 11 -84 11q-51 0 -89 -24.5t-59.5 -66.5t-32 -91.5t-10.5 -106.5t5 -98.5t19 -84t45.5 -65.5t78.5 -23q54 0 90.5 38t36.5 104zM455 -195q0 -102 94 -102q39 0 63.5 18.5t37 60t16.5 90t4 126.5v104q-97 -56 -156 -135
t-59 -162z" />
    <glyph glyph-name="Hcircumflex" unicode="&#x124;" horiz-adv-x="1366" 
d="M897 1362h354v-1362h-354v528h-430v-528h-352v1362h352v-524h430v524zM436 1432l-102 88q11 13 44.5 54t50 61t44 51.5t50 55t44.5 42.5q57 51 107 51q52 0 102 -47q139 -132 242 -264l-100 -92l-244 174z" />
    <glyph glyph-name="hcircumflex" unicode="&#x125;" 
d="M436 0h-342v1423h342v-432q98 88 234 88q331 0 331 -368v-711h-342v666q0 75 -20 113t-74 38q-61 0 -95 -40.5t-34 -104.5v-672zM195 1473l-103 88q10 12 37.5 46t40.5 49.5t38 44.5t41.5 47t37.5 39.5t39 37.5q57 51 106 51q53 0 103 -47q136 -128 241 -264l-100 -92
l-244 174z" />
    <glyph glyph-name="Hbar" unicode="&#x126;" horiz-adv-x="1366" 
d="M897 1362h354v-164h111v-209h-111v-989h-354v528h-430v-528h-352v989h-111v209h111v164h352v-164h430v164zM467 838h430v151h-430v-151z" />
    <glyph glyph-name="hbar" unicode="&#x127;" 
d="M-4 1104v211h98v108h342v-108h283v-211h-283v-168q92 76 232 76q163 0 248 -92.5t85 -276.5v-643h-344v598q0 76 -19.5 114t-74.5 38q-57 0 -92 -41.5t-35 -104.5v-604h-342v1104h-98z" />
    <glyph glyph-name="Itilde" unicode="&#x128;" horiz-adv-x="598" 
d="M475 0h-352v1362h352v-1362zM14 1487l-20 182q81 64 178 64q57 0 149 -28t138 -28q67 0 133 39l18 -192q-68 -41 -143 -41q-48 0 -150.5 24.5t-144.5 24.5q-81 0 -158 -45z" />
    <glyph glyph-name="itilde" unicode="&#x129;" horiz-adv-x="546" 
d="M453 0h-344v1049h344v-1049zM-8 1274l-21 182q81 64 179 64q57 0 148.5 -28t137.5 -28q67 0 133 39l19 -192q-68 -41 -144 -41q-48 0 -150 24.5t-144 24.5q-81 0 -158 -45z" />
    <glyph glyph-name="Imacron" unicode="&#x12a;" horiz-adv-x="598" 
d="M475 0h-352v1362h352v-1362zM-29 1487v229h652v-229h-652z" />
    <glyph glyph-name="imacron" unicode="&#x12b;" horiz-adv-x="546" 
d="M453 0h-344v1049h344v-1049zM-47 1266v231h651v-231h-651z" />
    <glyph glyph-name="Ibreve" unicode="&#x12c;" horiz-adv-x="598" 
d="M475 0h-352v1362h352v-1362zM487 1833l185 -82q-16 -41 -35.5 -76.5t-52.5 -74t-72.5 -65.5t-96.5 -44.5t-124 -17.5t-124.5 17.5t-97.5 45.5t-71 65.5t-49 73t-29 72.5l189 86q34 -78 77 -118t113 -40q69 0 109 36t79 122z" />
    <glyph glyph-name="ibreve" unicode="&#x12d;" horiz-adv-x="546" 
d="M453 0h-344v1049h344v-1049zM475 1579l178 -47q-19 -68 -49 -122.5t-73.5 -99t-106 -69t-139.5 -24.5q-68 0 -125 18.5t-96 48.5t-69.5 72.5t-48.5 85t-30 90.5l186 47q35 -88 77.5 -124t111.5 -36q64 0 106.5 36t77.5 124z" />
    <glyph glyph-name="Iogonek" unicode="&#x12e;" horiz-adv-x="598" 
d="M475 0q-69 -46 -127.5 -122t-58.5 -132q0 -70 71 -70q42 0 99 23l55 -170q-82 -47 -207 -47q-127 0 -187.5 58.5t-60.5 148.5q0 92 50 173.5t110 137.5h-96v1362h352v-1362z" />
    <glyph glyph-name="iogonek" unicode="&#x12f;" horiz-adv-x="546" 
d="M453 0q-69 -47 -125 -120t-56 -132q0 -70 72 -70q40 0 98 23l56 -170q-82 -47 -207 -47q-127 0 -187.5 58.5t-60.5 148.5q0 91 48.5 173t107.5 136h-90v1049h344v-1049zM98 1348q0 72 50 121t133 49q80 0 131 -49t51 -121q0 -74 -50.5 -122t-131.5 -48q-83 0 -133 47.5
t-50 122.5z" />
    <glyph glyph-name="Idotaccent" unicode="&#x130;" horiz-adv-x="598" 
d="M475 0h-352v1362h352v-1362zM121 1640q0 73 49.5 121.5t132.5 48.5q80 0 131 -49t51 -121q0 -74 -50.5 -122t-131.5 -48q-83 0 -132.5 47.5t-49.5 122.5z" />
    <glyph glyph-name="dotlessi" unicode="&#x131;" horiz-adv-x="546" 
d="M453 0h-344v1049h344v-1049z" />
    <glyph glyph-name="IJ" unicode="&#x132;" horiz-adv-x="1505" 
d="M475 0h-352v1362h352v-1362zM602 76l98 260q110 -66 201 -66q146 0 146 162v930h352v-899q0 -135 -13 -199q-29 -134 -139 -211.5t-270 -77.5q-100 0 -204 29.5t-171 71.5z" />
    <glyph glyph-name="ij" unicode="&#x133;" horiz-adv-x="1091" 
d="M453 0h-344v1049h344v-1049zM98 1348q0 72 50 121t133 49q80 0 131 -49t51 -121q0 -74 -50.5 -122t-131.5 -48q-83 0 -133 47.5t-50 122.5zM655 -29v1078h342v-1098q0 -50 -2 -86t-9.5 -82t-21.5 -77.5t-39.5 -65t-61.5 -53.5t-89 -33t-121 -13q-77 0 -165 22t-150 58
l86 236q72 -37 131 -37q50 0 75 35t25 116zM651 1348q0 72 50 121t133 49q80 0 131 -49t51 -121q0 -74 -51.5 -122t-133.5 -48t-131 47.5t-49 122.5z" />
    <glyph glyph-name="Jcircumflex" unicode="&#x134;" horiz-adv-x="907" 
d="M4 76l98 260q110 -66 201 -66q146 0 146 162v930h352v-899q0 -135 -13 -199q-29 -134 -139 -211.5t-270 -77.5q-100 0 -204 29.5t-171 71.5zM369 1432l-103 88q10 12 37.5 46t40.5 49.5t38 44.5t41.5 47t37.5 39.5t39 37.5q57 51 106 51q53 0 103 -47q136 -128 241 -264
l-100 -92l-244 174z" />
    <glyph glyph-name="jcircumflex" unicode="&#x135;" horiz-adv-x="520" 
d="M88 -29v1078h342v-1098q0 -50 -2 -86t-9.5 -82t-21.5 -77.5t-39.5 -65t-61.5 -53.5t-89 -33t-121 -13q-77 0 -165 22t-150 58l86 236q69 -37 131 -37q50 0 75 35t25 116zM-2 1184l-111 88q102 153 226 299q41 47 68 63.5t67 16.5q42 0 69 -16.5t66 -63.5
q111 -127 231 -299l-110 -88l-256 215z" />
    <glyph glyph-name="Kcommaaccent" unicode="&#x136;" horiz-adv-x="1220" 
d="M1227 1362l-391 -563l397 -799h-402l-245 504l-121 -166v-338h-350v1362h350v-549l373 549h389zM508 -104l-125 -428l121 -60q131 170 184 262q41 65 41 115q0 35 -21 58.5t-59 34t-68.5 14t-72.5 4.5z" />
    <glyph glyph-name="kcommaaccent" unicode="&#x137;" horiz-adv-x="1083" 
d="M698 -4l-198 455q-9 -3 -51 -9v-442h-347v1423h347v-585h8q114 241 342 241q107 0 178.5 -61.5t71.5 -183.5q0 -107 -63 -192.5t-155 -137.5l265 -508h-398zM707 758q0 37 -19.5 56.5t-54.5 19.5q-67 0 -119 -78t-61 -178q102 8 178 60.5t76 119.5zM446 -104l-124 -428
l120 -60q135 175 185 262q41 65 41 115q0 35 -21 58.5t-59.5 34t-69 14t-72.5 4.5z" />
    <glyph glyph-name="kgreenlandic" unicode="&#x138;" horiz-adv-x="1083" 
d="M698 -4l-198 455q-9 -3 -51 -9v-442h-347v1049h347v-211h8q114 241 342 241q107 0 178.5 -61.5t71.5 -183.5q0 -107 -63 -192.5t-155 -137.5l265 -508h-398zM707 758q0 37 -19.5 56.5t-54.5 19.5q-67 0 -119 -78t-61 -178q102 8 178 60.5t76 119.5z" />
    <glyph glyph-name="Lacute" unicode="&#x139;" horiz-adv-x="1054" 
d="M115 0v1362h354v-1053h543v-309h-897zM57 1538l357 344q60 -34 100.5 -79t40.5 -89q0 -38 -22 -66.5t-76 -60.5q-127 -73 -324 -151z" />
    <glyph glyph-name="lacute" unicode="&#x13a;" horiz-adv-x="710" 
d="M104 1423h342v-1052q0 -71 20.5 -103t68.5 -32q38 0 118 34l74 -227q-52 -34 -134 -55t-153 -21q-66 0 -118 11t-87 28.5t-60 47.5t-38.5 58.5t-21 71t-9.5 77t-2 83.5v1079zM51 1577l357 344q60 -34 100.5 -79t40.5 -89q0 -38 -22 -66.5t-76 -60.5q-127 -73 -324 -151z
" />
    <glyph glyph-name="Lcommaaccent" unicode="&#x13b;" horiz-adv-x="1054" 
d="M115 0v1362h354v-1053h543v-309h-897zM434 -104l-125 -428l121 -60q131 170 184 262q41 65 41 115q0 35 -21 58.5t-59 34t-68.5 14t-72.5 4.5z" />
    <glyph glyph-name="lcommaaccent" unicode="&#x13c;" horiz-adv-x="710" 
d="M104 1423h342v-1052q0 -71 20.5 -103t68.5 -32q38 0 118 34l74 -227q-52 -34 -134 -55t-153 -21q-66 0 -118 11t-87 28.5t-60 47.5t-38.5 58.5t-21 71t-9.5 77t-2 83.5v1079zM270 -104l-125 -428l121 -60q135 175 185 262q41 65 41 115q0 35 -21 58.5t-59.5 34t-69 14
t-72.5 4.5z" />
    <glyph glyph-name="Lcaron" unicode="&#x13d;" horiz-adv-x="1054" 
d="M115 0v1362h354v-1053h543v-309h-897zM688 1348v-459l123 -25q64 145 107 303q18 70 18 105q0 49 -29.5 69.5t-87.5 20.5q-70 0 -131 -14z" />
    <glyph glyph-name="lcaron" unicode="&#x13e;" horiz-adv-x="757" 
d="M104 1423h342v-1052q0 -71 20.5 -103t68.5 -32q38 0 118 34l74 -227q-52 -34 -134 -55t-153 -21q-66 0 -118 11t-87 28.5t-60 47.5t-38.5 58.5t-21 71t-9.5 77t-2 83.5v1079zM612 1409v-459l123 -24q64 145 107 303q18 70 18 104q0 49 -29.5 69.5t-87.5 20.5
q-70 0 -131 -14z" />
    <glyph glyph-name="Ldot" unicode="&#x13f;" horiz-adv-x="1054" 
d="M115 0v1362h354v-1053h543v-309h-897zM641 748q0 73 49.5 121.5t132.5 48.5q80 0 131.5 -49t51.5 -121q0 -74 -51 -122t-132 -48q-83 0 -132.5 47.5t-49.5 122.5z" />
    <glyph glyph-name="ldot" unicode="&#x140;" horiz-adv-x="901" 
d="M104 1423h342v-1052q0 -71 20.5 -103t68.5 -32q38 0 118 34l74 -227q-52 -34 -134 -55t-153 -21q-66 0 -118 11t-87 28.5t-60 47.5t-38.5 58.5t-21 71t-9.5 77t-2 83.5v1079zM549 750q0 73 49.5 121.5t132.5 48.5q80 0 131 -49t51 -121q0 -74 -50.5 -122t-131.5 -48
q-83 0 -132.5 47.5t-49.5 122.5z" />
    <glyph glyph-name="Lslash" unicode="&#x141;" horiz-adv-x="1054" 
d="M-31 444l-94 215l240 111v592h354v-457l293 133l94 -215l-387 -176v-338h543v-309h-897v510z" />
    <glyph glyph-name="lslash" unicode="&#x142;" horiz-adv-x="835" 
d="M104 449l-104 210l213 115v649h342v-481l164 92l104 -211l-268 -143v-309q0 -71 20 -103t68 -32q39 0 119 34l74 -227q-52 -34 -134 -55t-153 -21q-66 0 -118 11t-87 28.5t-60 47.5t-38.5 58.5t-21 71t-9.5 77t-2 83.5v168z" />
    <glyph glyph-name="Nacute" unicode="&#x143;" horiz-adv-x="1357" 
d="M893 1362h350v-1362h-311l-463 756h-6v-756h-348v1362h325l449 -741h4v741zM459 1538l356 344q60 -34 100.5 -79t40.5 -89q0 -38 -22 -66.5t-76 -60.5q-129 -74 -323 -151z" />
    <glyph glyph-name="nacute" unicode="&#x144;" horiz-adv-x="1110" 
d="M449 0h-340v838l-25 211h285l20 -113q107 143 299 143q156 0 242 -90t86 -272v-717h-344v657q0 81 -17.5 120.5t-72.5 39.5q-62 0 -97.5 -42.5t-35.5 -110.5v-664zM373 1260l254 419q31 -8 60 -20t59.5 -30.5t49.5 -46.5t19 -60q0 -49 -67 -119q-102 -100 -277 -227z" />
    <glyph glyph-name="Ncommaaccent" unicode="&#x145;" horiz-adv-x="1357" 
d="M893 1362h350v-1362h-311l-463 756h-6v-756h-348v1362h325l449 -741h4v741zM614 -104l-125 -428l121 -60q135 175 185 262q41 65 41 115q0 35 -21 58.5t-59.5 34t-69 14t-72.5 4.5z" />
    <glyph glyph-name="ncommaaccent" unicode="&#x146;" horiz-adv-x="1110" 
d="M449 0h-340v838l-25 211h285l20 -113q107 143 299 143q156 0 242 -90t86 -272v-717h-344v657q0 81 -17.5 120.5t-72.5 39.5q-62 0 -97.5 -42.5t-35.5 -110.5v-664zM481 -104l-125 -428l121 -60q135 175 185 262q40 64 40 115q0 35 -21 58.5t-59 34t-68.5 14t-72.5 4.5z
" />
    <glyph glyph-name="Ncaron" unicode="&#x147;" horiz-adv-x="1357" 
d="M893 1362h350v-1362h-311l-463 756h-6v-756h-348v1362h325l449 -741h4v741zM330 1747l102 88l238 -174l243 174l101 -92q-103 -132 -242 -264q-50 -47 -102 -47q-50 0 -107 51q-22 19 -44.5 42.5t-50 55t-44 51.5t-50 61t-44.5 54z" />
    <glyph glyph-name="ncaron" unicode="&#x148;" horiz-adv-x="1110" 
d="M449 0h-340v838l-25 211h285l20 -113q107 143 299 143q156 0 242 -90t86 -272v-717h-344v657q0 81 -17.5 120.5t-72.5 39.5q-62 0 -97.5 -42.5t-35.5 -110.5v-664zM823 1651l111 -88q-46 -69 -110.5 -155.5t-114.5 -143.5q-72 -80 -136 -80q-68 0 -135 80
q-103 117 -231 297l110 90l256 -215z" />
    <glyph glyph-name="napostrophe" unicode="&#x149;" horiz-adv-x="1202" 
d="M541 0h-340v838l-25 211h285l20 -113q107 143 299 143q156 0 242 -90t86 -272v-717h-344v657q0 81 -17.5 120.5t-72.5 39.5q-62 0 -97.5 -42.5t-35.5 -110.5v-664zM-23 1059l70 452q61 9 80 9q131 0 131 -99q0 -103 -170 -397z" />
    <glyph glyph-name="Eng" unicode="&#x14a;" horiz-adv-x="1355" 
d="M893 1362h348v-1411q0 -49 -2.5 -86.5t-11 -81.5t-23.5 -76.5t-41.5 -64.5t-63 -52t-90 -32.5t-120.5 -12.5q-83 0 -175 25.5t-155 64.5l90 234q68 -43 142 -43q56 0 82 36t26 115v74l-432 705h-6v-756h-348v1362h325l449 -741h6v741z" />
    <glyph glyph-name="eng" unicode="&#x14b;" horiz-adv-x="1105" 
d="M446 0h-340v838l-24 211h283l22 -113q107 143 299 143q155 0 240.5 -89.5t85.5 -272.5v-768q0 -50 -2 -86t-9.5 -81.5t-21.5 -77t-39.5 -65t-61 -53.5t-88.5 -32.5t-120 -12.5q-78 0 -167 22t-151 58l86 236q72 -37 133 -37q49 0 74 34.5t25 114.5v688q0 81 -17.5 119.5
t-74.5 38.5q-59 0 -95.5 -42t-36.5 -109v-664z" />
    <glyph glyph-name="Omacron" unicode="&#x14c;" horiz-adv-x="1363" 
d="M1292 678q0 -341 -165.5 -522t-450.5 -181q-289 0 -447.5 180t-158.5 523q0 152 37.5 274.5t99 202t145 133t170.5 76t180 22.5q98 0 183 -23.5t160.5 -76.5t129.5 -133.5t85.5 -201.5t31.5 -273zM432 692q0 -63 5.5 -118t23 -113.5t45 -100t75 -68t109.5 -26.5
q68 0 117 33.5t76 92.5t39 128t12 152q0 57 -6 110.5t-23.5 112t-44.5 101t-73 70.5t-105 28q-66 0 -116 -33.5t-78.5 -92t-42 -127.5t-13.5 -149zM356 1487v229h652v-229h-652z" />
    <glyph glyph-name="omacron" unicode="&#x14d;" horiz-adv-x="1067" 
d="M537 217q74 0 106.5 73.5t32.5 227.5q0 162 -31.5 239t-107.5 77q-70 0 -105 -73.5t-35 -205.5q0 -58 3 -103t11.5 -91t23.5 -76t41 -49t61 -19zM49 516q0 124 31 223t81 161.5t117 104t134.5 58t138.5 16.5q41 0 78.5 -4t87.5 -17.5t91.5 -35.5t84 -62.5t71.5 -94.5
t47.5 -135.5t18.5 -180.5q0 -141 -39.5 -253t-108.5 -183t-161 -108.5t-199 -37.5q-225 0 -349 137.5t-124 411.5zM211 1266v231h651v-231h-651z" />
    <glyph glyph-name="Obreve" unicode="&#x14e;" horiz-adv-x="1363" 
d="M1292 678q0 -341 -165.5 -522t-450.5 -181q-289 0 -447.5 180t-158.5 523q0 152 37.5 274.5t99 202t145 133t170.5 76t180 22.5q98 0 183 -23.5t160.5 -76.5t129.5 -133.5t85.5 -201.5t31.5 -273zM432 692q0 -63 5.5 -118t23 -113.5t45 -100t75 -68t109.5 -26.5
q68 0 117 33.5t76 92.5t39 128t12 152q0 57 -6 110.5t-23.5 112t-44.5 101t-73 70.5t-105 28q-66 0 -116 -33.5t-78.5 -92t-42 -127.5t-13.5 -149zM870 1833l185 -82q-16 -41 -35.5 -76.5t-52.5 -74t-72.5 -65.5t-96.5 -44.5t-124 -17.5t-124.5 17.5t-97.5 45.5t-71 65.5
t-49 73t-29 72.5l189 86q34 -78 77 -118t113 -40q69 0 109 36t79 122z" />
    <glyph glyph-name="obreve" unicode="&#x14f;" horiz-adv-x="1067" 
d="M537 217q74 0 106.5 73.5t32.5 227.5q0 162 -31.5 239t-107.5 77q-70 0 -105 -73.5t-35 -205.5q0 -58 3 -103t11.5 -91t23.5 -76t41 -49t61 -19zM49 516q0 124 31 223t81 161.5t117 104t134.5 58t138.5 16.5q41 0 78.5 -4t87.5 -17.5t91.5 -35.5t84 -62.5t71.5 -94.5
t47.5 -135.5t18.5 -180.5q0 -141 -39.5 -253t-108.5 -183t-161 -108.5t-199 -37.5q-225 0 -349 137.5t-124 411.5zM725 1579l178 -47q-19 -68 -49 -122.5t-73.5 -99t-106 -69t-139.5 -24.5q-68 0 -125 18.5t-96 48.5t-69.5 72.5t-48.5 85t-30 90.5l186 47q35 -88 77.5 -124
t111.5 -36q64 0 106.5 36t77.5 124z" />
    <glyph glyph-name="Ohungarumlaut" unicode="&#x150;" horiz-adv-x="1363" 
d="M1292 678q0 -341 -165.5 -522t-450.5 -181q-289 0 -447.5 180t-158.5 523q0 152 37.5 274.5t99 202t145 133t170.5 76t180 22.5q98 0 183 -23.5t160.5 -76.5t129.5 -133.5t85.5 -201.5t31.5 -273zM432 692q0 -63 5.5 -118t23 -113.5t45 -100t75 -68t109.5 -26.5
q68 0 117 33.5t76 92.5t39 128t12 152q0 57 -6 110.5t-23.5 112t-44.5 101t-73 70.5t-105 28q-66 0 -116 -33.5t-78.5 -92t-42 -127.5t-13.5 -149zM297 1536l362 340q138 -95 138 -168q0 -37 -22.5 -65t-78.5 -60q-115 -68 -323 -151zM774 1536l363 338q137 -89 137 -166
q0 -37 -22.5 -66t-77.5 -59q-127 -73 -324 -151z" />
    <glyph glyph-name="ohungarumlaut" unicode="&#x151;" horiz-adv-x="1067" 
d="M537 217q74 0 106.5 73.5t32.5 227.5q0 162 -31.5 239t-107.5 77q-70 0 -105 -73.5t-35 -205.5q0 -58 3 -103t11.5 -91t23.5 -76t41 -49t61 -19zM49 516q0 124 31 223t81 161.5t117 104t134.5 58t138.5 16.5q41 0 78.5 -4t87.5 -17.5t91.5 -35.5t84 -62.5t71.5 -94.5
t47.5 -135.5t18.5 -180.5q0 -141 -39.5 -253t-108.5 -183t-161 -108.5t-199 -37.5q-225 0 -349 137.5t-124 411.5zM193 1260l253 419q189 -51 189 -157q0 -48 -68 -119q-105 -103 -276 -227zM594 1260l256 419q31 -8 60.5 -20t60 -31t49 -46.5t18.5 -59.5q0 -50 -69 -119
q-93 -93 -277 -227z" />
    <glyph glyph-name="OE" unicode="&#x152;" horiz-adv-x="1843" 
d="M709 1384q110 0 209 -22h849v-307h-536v-207h461v-307h-461v-234h551v-307h-858q-131 -31 -250 -31q-289 0 -446.5 182t-157.5 527q0 152 38 274t100 201.5t146.5 132.5t172.5 75.5t182 22.5zM432 692q0 -434 283 -434q102 0 162 35v760q-90 39 -168 39
q-75 0 -130.5 -33.5t-86.5 -91.5t-45.5 -126.5t-14.5 -148.5z" />
    <glyph glyph-name="oe" unicode="&#x153;" horiz-adv-x="1579" 
d="M1194 1079q166 0 262 -81t96 -238q0 -85 -37.5 -151t-92.5 -104t-132 -64t-140.5 -36t-133.5 -14q6 -73 59.5 -120.5t143.5 -47.5q125 0 251 86l93 -225q-7 -6 -23.5 -16.5t-54.5 -29t-81.5 -33.5t-107 -26.5t-127.5 -11.5q-219 0 -346 148q-55 -69 -141 -108.5
t-180 -39.5q-213 0 -333 138t-120 411q0 124 30 223t78 161.5t112.5 104t128.5 58t130 16.5q228 0 328 -164q138 164 338 164zM537 217q74 0 106.5 73.5t32.5 227.5q0 162 -31.5 239t-107.5 77q-70 0 -105 -73.5t-35 -205.5q0 -58 3 -103t11.5 -91t23.5 -76t41 -49t61 -19z
M1255 756q0 38 -21 61t-58 23q-76 0 -124 -67.5t-53 -174.5q60 3 116 20.5t98 54t42 83.5z" />
    <glyph glyph-name="Racute" unicode="&#x154;" horiz-adv-x="1245" 
d="M467 510v-510h-352v1362h487q123 0 216 -20t164.5 -64t108.5 -120t37 -183q0 -121 -61 -211.5t-149 -134.5q58 -28 90 -107l229 -522h-377l-188 432q-35 78 -109 78h-96zM467 780h133q80 0 124 41.5t44 124.5q0 81 -47 111t-148 30h-106v-307zM389 1538l356 344
q60 -34 101 -79t41 -89q0 -38 -22.5 -66t-76.5 -61q-129 -74 -323 -151z" />
    <glyph glyph-name="racute" unicode="&#x155;" horiz-adv-x="796" 
d="M453 641v-641h-342v848l-27 201h278l27 -146q38 90 105.5 133t140.5 43q93 0 170 -39l-55 -284q-65 35 -148 35q-67 0 -107.5 -40t-41.5 -110zM287 1260l254 419q31 -8 60 -20t59.5 -30.5t49.5 -46.5t19 -60q0 -49 -67 -119q-102 -100 -277 -227z" />
    <glyph glyph-name="Rcommaaccent" unicode="&#x156;" horiz-adv-x="1245" 
d="M467 510v-510h-352v1362h487q123 0 216 -20t164.5 -64t108.5 -120t37 -183q0 -121 -61 -211.5t-149 -134.5q58 -28 90 -107l229 -522h-377l-188 432q-35 78 -109 78h-96zM467 780h133q80 0 124 41.5t44 124.5q0 81 -47 111t-148 30h-106v-307zM520 -104l-125 -428
l121 -60q131 170 184 262q41 65 41 115q0 35 -21 58.5t-59 34t-68.5 14t-72.5 4.5z" />
    <glyph glyph-name="rcommaaccent" unicode="&#x157;" horiz-adv-x="796" 
d="M453 641v-641h-342v848l-27 201h278l27 -146q38 90 105.5 133t140.5 43q93 0 170 -39l-55 -284q-65 35 -148 35q-67 0 -107.5 -40t-41.5 -110zM205 -104l-125 -428l121 -60q131 170 184 262q41 65 41 115q0 35 -21 58.5t-59 34t-68.5 14t-72.5 4.5z" />
    <glyph glyph-name="Rcaron" unicode="&#x158;" horiz-adv-x="1245" 
d="M467 510v-510h-352v1362h487q123 0 216 -20t164.5 -64t108.5 -120t37 -183q0 -121 -61 -211.5t-149 -134.5q58 -28 90 -107l229 -522h-377l-188 432q-35 78 -109 78h-96zM467 780h133q80 0 124 41.5t44 124.5q0 81 -47 111t-148 30h-106v-307zM207 1747l102 88l238 -174
l244 174l100 -92q-103 -132 -242 -264q-50 -47 -102 -47q-50 0 -107 51q-22 19 -44.5 42.5t-50 55t-44 51.5t-50 61t-44.5 54z" />
    <glyph glyph-name="rcaron" unicode="&#x159;" horiz-adv-x="796" 
d="M453 641v-641h-342v848l-27 201h278l27 -146q38 90 105.5 133t140.5 43q93 0 170 -39l-55 -284q-65 35 -148 35q-67 0 -107.5 -40t-41.5 -110zM678 1651l110 -88q-46 -69 -110.5 -155.5t-114.5 -143.5q-72 -80 -135 -80q-68 0 -135 80q-108 123 -232 297l111 90l256 -215
z" />
    <glyph glyph-name="Sacute" unicode="&#x15a;" horiz-adv-x="1114" 
d="M25 117l118 289q76 -48 191 -86.5t198 -38.5q142 0 142 118q0 25 -11 45t-26.5 33.5t-46 27t-55.5 21.5t-68 21q-44 13 -77 25t-76 32t-74.5 41t-64 53t-53 68t-33.5 85.5t-13 106.5q0 200 138.5 314t356.5 114q142 0 274 -55.5t226 -146.5l-182 -232q-191 140 -318 140
q-54 0 -91.5 -27t-37.5 -80q0 -25 12 -46t28 -34.5t50.5 -29t58.5 -24t73 -24.5q47 -15 81 -27.5t77 -32.5t73 -41.5t61.5 -53.5t51 -68.5t31.5 -85.5t12 -106q0 -208 -143.5 -322.5t-377.5 -114.5q-141 0 -284 45t-221 97zM338 1538l356 344q60 -34 101 -79t41 -89
q0 -38 -22.5 -66t-76.5 -61q-129 -74 -323 -151z" />
    <glyph glyph-name="sacute" unicode="&#x15b;" horiz-adv-x="892" 
d="M20 82l89 242q63 -41 152 -74t153 -33q98 0 98 78q0 18 -7.5 32.5t-17.5 24t-30 19t-35 14.5t-43 14q-59 19 -97 33.5t-86 42.5t-75 60t-46.5 83t-19.5 115q0 163 115.5 254.5t294.5 91.5q120 0 227.5 -41t184.5 -112l-156 -197q-138 107 -238 107q-44 0 -69 -19t-25 -55
q0 -41 34.5 -65.5t106.5 -47.5q56 -18 93 -32.5t84.5 -42.5t76 -60.5t48.5 -83t20 -113.5q0 -169 -112.5 -259.5t-305.5 -90.5q-128 0 -241.5 36.5t-172.5 78.5zM279 1260l253 419q31 -8 60 -20t60 -30.5t50 -46.5t19 -60q0 -48 -68 -119q-105 -103 -276 -227z" />
    <glyph glyph-name="Scircumflex" unicode="&#x15c;" horiz-adv-x="1114" 
d="M25 117l118 289q76 -48 191 -86.5t198 -38.5q142 0 142 118q0 25 -11 45t-26.5 33.5t-46 27t-55.5 21.5t-68 21q-44 13 -77 25t-76 32t-74.5 41t-64 53t-53 68t-33.5 85.5t-13 106.5q0 200 138.5 314t356.5 114q142 0 274 -55.5t226 -146.5l-182 -232q-191 140 -318 140
q-54 0 -91.5 -27t-37.5 -80q0 -25 12 -46t28 -34.5t50.5 -29t58.5 -24t73 -24.5q47 -15 81 -27.5t77 -32.5t73 -41.5t61.5 -53.5t51 -68.5t31.5 -85.5t12 -106q0 -208 -143.5 -322.5t-377.5 -114.5q-141 0 -284 45t-221 97zM332 1432l-103 88q10 12 37.5 46t40.5 49.5
t38 44.5t41.5 47t37.5 39.5t39 37.5q57 51 106 51q53 0 103 -47q136 -128 241 -264l-100 -92l-244 174z" />
    <glyph glyph-name="scircumflex" unicode="&#x15d;" horiz-adv-x="892" 
d="M20 82l89 242q63 -41 152 -74t153 -33q98 0 98 78q0 18 -7.5 32.5t-17.5 24t-30 19t-35 14.5t-43 14q-59 19 -97 33.5t-86 42.5t-75 60t-46.5 83t-19.5 115q0 163 115.5 254.5t294.5 91.5q120 0 227.5 -41t184.5 -112l-156 -197q-138 107 -238 107q-44 0 -69 -19t-25 -55
q0 -41 34.5 -65.5t106.5 -47.5q56 -18 93 -32.5t84.5 -42.5t76 -60.5t48.5 -83t20 -113.5q0 -169 -112.5 -259.5t-305.5 -90.5q-128 0 -241.5 36.5t-172.5 78.5zM213 1184l-111 88q102 153 226 299q41 47 68 63.5t67 16.5q42 0 69 -16.5t66 -63.5q111 -127 231 -299
l-110 -88l-256 215z" />
    <glyph glyph-name="Scedilla" unicode="&#x15e;" horiz-adv-x="1114" 
d="M25 117l118 289q76 -48 191 -86.5t198 -38.5q142 0 142 118q0 25 -11 45t-26.5 33.5t-46 27t-55.5 21.5t-68 21q-44 13 -77 25t-76 32t-74.5 41t-64 53t-53 68t-33.5 85.5t-13 106.5q0 200 138.5 314t356.5 114q142 0 274 -55.5t226 -146.5l-182 -232q-191 140 -318 140
q-54 0 -91.5 -27t-37.5 -80q0 -25 12 -46t28 -34.5t50.5 -29t58.5 -24t73 -24.5q47 -15 81 -27.5t77 -32.5t73 -41.5t61.5 -53.5t51 -68.5t31.5 -85.5t12 -106q0 -190 -120.5 -302t-322.5 -130l-26 -97q91 -9 145.5 -56t54.5 -122q0 -51 -17.5 -90t-45 -62.5t-65 -38.5
t-72.5 -20.5t-72 -5.5q-106 0 -203 37l41 139q75 -26 137 -26q103 0 103 63q0 23 -15 38t-43.5 22t-58.5 9.5t-72 2.5l66 204q-126 10 -249.5 52.5t-190.5 87.5z" />
    <glyph glyph-name="scedilla" unicode="&#x15f;" horiz-adv-x="892" 
d="M20 82l89 242q63 -41 152 -74t153 -33q98 0 98 78q0 18 -7.5 32.5t-17.5 24t-30 19t-35 14.5t-43 14q-59 19 -97 33.5t-86 42.5t-75 60t-46.5 83t-19.5 115q0 163 115.5 254.5t294.5 91.5q120 0 227.5 -41t184.5 -112l-156 -197q-138 107 -238 107q-44 0 -69 -19t-25 -55
q0 -41 34.5 -65.5t106.5 -47.5q56 -18 93 -32.5t84.5 -42.5t76 -60.5t48.5 -83t20 -113.5q0 -149 -88.5 -237t-245.5 -107l-24 -90q91 -9 145.5 -56t54.5 -122q0 -51 -17.5 -90t-45 -62.5t-65 -38.5t-72.5 -20.5t-72 -5.5q-106 0 -203 37l41 139q75 -26 137 -26
q103 0 103 63q0 23 -15 38t-43.5 22t-58.5 9.5t-72 2.5l64 196q-112 8 -209 42.5t-146 70.5z" />
    <glyph glyph-name="Scaron" unicode="&#x160;" horiz-adv-x="1114" 
d="M25 117l118 289q76 -48 191 -86.5t198 -38.5q142 0 142 118q0 25 -11 45t-26.5 33.5t-46 27t-55.5 21.5t-68 21q-44 13 -77 25t-76 32t-74.5 41t-64 53t-53 68t-33.5 85.5t-13 106.5q0 200 138.5 314t356.5 114q142 0 274 -55.5t226 -146.5l-182 -232q-191 140 -318 140
q-54 0 -91.5 -27t-37.5 -80q0 -25 12 -46t28 -34.5t50.5 -29t58.5 -24t73 -24.5q47 -15 81 -27.5t77 -32.5t73 -41.5t61.5 -53.5t51 -68.5t31.5 -85.5t12 -106q0 -208 -143.5 -322.5t-377.5 -114.5q-141 0 -284 45t-221 97zM231 1747l103 88l237 -174l244 174l100 -92
q-105 -136 -241 -264q-50 -47 -103 -47q-49 0 -106 51q-18 16 -39 37.5t-37.5 39.5t-41.5 47t-38 44.5t-40.5 49.5t-37.5 46z" />
    <glyph glyph-name="scaron" unicode="&#x161;" horiz-adv-x="892" 
d="M20 82l89 242q63 -41 152 -74t153 -33q98 0 98 78q0 18 -7.5 32.5t-17.5 24t-30 19t-35 14.5t-43 14q-59 19 -97 33.5t-86 42.5t-75 60t-46.5 83t-19.5 115q0 163 115.5 254.5t294.5 91.5q120 0 227.5 -41t184.5 -112l-156 -197q-138 107 -238 107q-44 0 -69 -19t-25 -55
q0 -41 34.5 -65.5t106.5 -47.5q56 -18 93 -32.5t84.5 -42.5t76 -60.5t48.5 -83t20 -113.5q0 -169 -112.5 -259.5t-305.5 -90.5q-128 0 -241.5 36.5t-172.5 78.5zM717 1651l110 -88q-46 -69 -110.5 -155.5t-114.5 -143.5q-72 -80 -135 -80q-68 0 -135 80q-108 123 -232 297
l111 90l256 -215z" />
    <glyph glyph-name="uni0162" unicode="&#x162;" horiz-adv-x="1101" 
d="M33 1362h1089v-307h-377v-1055h-135l-32 -117q91 -9 145.5 -56t54.5 -122q0 -51 -17.5 -90t-45 -62.5t-65 -38.5t-72.5 -20.5t-72 -5.5q-106 0 -203 37l41 139q75 -26 137 -26q103 0 103 63q0 23 -15 38t-43.5 22t-58.5 9.5t-72 2.5l74 227h-74v1055h-362v307z" />
    <glyph glyph-name="uni0163" unicode="&#x163;" horiz-adv-x="716" 
d="M102 1423h347v-374h256v-269h-256v-413q0 -79 32 -110.5t90 -31.5q47 0 111 33l74 -215q-44 -29 -113 -49.5t-143 -24.5l-25 -86q91 -9 146 -56t55 -122q0 -51 -18 -90t-45.5 -62.5t-65 -38.5t-72.5 -20.5t-72 -5.5q-105 0 -202 37l41 139q75 -26 137 -26q102 0 102 63
q0 23 -15 38t-43.5 22t-58 9.5t-71.5 2.5l65 202q-51 8 -91.5 25.5t-67 38.5t-45.5 53t-29 60.5t-15.5 71t-6.5 73.5t-1 78v1048z" />
    <glyph glyph-name="Tcaron" unicode="&#x164;" horiz-adv-x="1153" 
d="M33 1362h1089v-307h-377v-1055h-350v1055h-362v307zM231 1747l103 88l237 -174l244 174l100 -92q-105 -136 -241 -264q-50 -47 -103 -47q-49 0 -106 51q-18 16 -39 37.5t-37.5 39.5t-41.5 47t-38 44.5t-40.5 49.5t-37.5 46z" />
    <glyph glyph-name="tcaron" unicode="&#x165;" horiz-adv-x="788" 
d="M102 1423h347v-374h256v-269h-256v-413q0 -79 32 -110.5t90 -31.5q47 0 111 33l74 -215q-50 -32 -129 -54t-162 -22q-73 0 -129.5 12.5t-94.5 31.5t-65 52.5t-41 64t-22 77.5t-9.5 82t-1.5 88v1048zM602 1178v458q66 15 131 15q58 0 87.5 -20.5t29.5 -69.5
q0 -31 -19 -105q-45 -164 -106 -303z" />
    <glyph glyph-name="Tbar" unicode="&#x166;" horiz-adv-x="1144" 
d="M33 1362h1087v-307h-375v-373h185v-209h-185v-473h-350v473h-182v209h182v373h-362v307z" />
    <glyph glyph-name="tbar" unicode="&#x167;" horiz-adv-x="759" 
d="M102 1423h347v-374h256v-269h-256v-114h256v-252h-256v-47q0 -79 32 -110.5t90 -31.5q47 0 111 33l74 -215q-50 -32 -129 -54t-162 -22q-73 0 -129.5 12.5t-94.5 31.5t-65 52.5t-41 64t-22 77.5t-9.5 82t-1.5 88v1048z" />
    <glyph glyph-name="Utilde" unicode="&#x168;" horiz-adv-x="1288" 
d="M104 1362h353v-891q0 -111 50 -157t142 -46q82 0 132 49.5t50 143.5v901h353v-942q0 -205 -149.5 -325t-393.5 -120q-269 0 -403 115t-134 361v911zM352 1487l-20 182q81 64 178 64q57 0 149 -28t138 -28q67 0 133 39l18 -192q-68 -41 -143 -41q-48 0 -150.5 24.5
t-144.5 24.5q-81 0 -158 -45z" />
    <glyph glyph-name="utilde" unicode="&#x169;" horiz-adv-x="1116" 
d="M668 1049h342v-850l22 -199h-289l-14 98h-8q-94 -125 -270 -125q-349 0 -349 371v705h344v-660q0 -79 19 -117.5t78 -38.5q54 0 89.5 39.5t35.5 100.5v676zM279 1274l-21 182q81 64 178 64q57 0 149 -28t138 -28q67 0 133 39l18 -192q-68 -41 -143 -41q-48 0 -150.5 24.5
t-144.5 24.5q-80 0 -157 -45z" />
    <glyph glyph-name="Umacron" unicode="&#x16a;" horiz-adv-x="1288" 
d="M104 1362h353v-891q0 -111 50 -157t142 -46q82 0 132 49.5t50 143.5v901h353v-942q0 -205 -149.5 -325t-393.5 -120q-269 0 -403 115t-134 361v911zM322 1487v229h651v-229h-651z" />
    <glyph glyph-name="umacron" unicode="&#x16b;" horiz-adv-x="1116" 
d="M668 1049h342v-850l22 -199h-289l-14 98h-8q-94 -125 -270 -125q-349 0 -349 371v705h344v-660q0 -79 19 -117.5t78 -38.5q54 0 89.5 39.5t35.5 100.5v676zM233 1266v231h652v-231h-652z" />
    <glyph glyph-name="Ubreve" unicode="&#x16c;" horiz-adv-x="1288" 
d="M104 1362h353v-891q0 -111 50 -157t142 -46q82 0 132 49.5t50 143.5v901h353v-942q0 -205 -149.5 -325t-393.5 -120q-269 0 -403 115t-134 361v911zM834 1833l184 -82q-16 -41 -35.5 -76.5t-52.5 -74t-72.5 -65.5t-96.5 -44.5t-124 -17.5t-124.5 17.5t-97.5 45.5
t-71 65.5t-49 73t-29 72.5l189 86q34 -78 77 -118t113 -40q69 0 109.5 36t79.5 122z" />
    <glyph glyph-name="ubreve" unicode="&#x16d;" horiz-adv-x="1116" 
d="M668 1049h342v-850l22 -199h-289l-14 98h-8q-94 -125 -270 -125q-349 0 -349 371v705h344v-660q0 -79 19 -117.5t78 -38.5q54 0 89.5 39.5t35.5 100.5v676zM750 1579l178 -47q-41 -142 -131 -228.5t-238 -86.5q-68 0 -125 18.5t-96 48.5t-69.5 72.5t-48.5 85t-30 90.5
l187 47q35 -88 77 -124t111 -36q64 0 107 36t78 124z" />
    <glyph glyph-name="Uring" unicode="&#x16e;" horiz-adv-x="1288" 
d="M104 1362h353v-891q0 -111 50 -157t142 -46q82 0 132 49.5t50 143.5v901h353v-942q0 -205 -149.5 -325t-393.5 -120q-269 0 -403 115t-134 361v911zM446 1634q0 86 57.5 144.5t145.5 58.5q96 0 149.5 -56.5t53.5 -138.5q0 -91 -57.5 -150.5t-149.5 -59.5q-95 0 -147 57.5
t-52 144.5zM584 1634q0 -33 17 -54t48 -21t47.5 20.5t16.5 54.5q0 76 -64 76q-65 0 -65 -76z" />
    <glyph glyph-name="uring" unicode="&#x16f;" horiz-adv-x="1116" 
d="M668 1049h342v-850l22 -199h-289l-14 98h-8q-94 -125 -270 -125q-349 0 -349 371v705h344v-660q0 -79 19 -117.5t78 -38.5q54 0 89.5 39.5t35.5 100.5v676zM362 1333q0 85 57 141t146 56q96 0 149.5 -53.5t53.5 -135.5q0 -90 -57 -146t-150 -56q-95 0 -147 54t-52 140z
M500 1333q0 -67 65 -67q31 0 47.5 19t16.5 48q0 70 -64 70q-65 0 -65 -70z" />
    <glyph glyph-name="Uhungarumlaut" unicode="&#x170;" horiz-adv-x="1288" 
d="M104 1362h353v-891q0 -111 50 -157t142 -46q82 0 132 49.5t50 143.5v901h353v-942q0 -205 -149.5 -325t-393.5 -120q-269 0 -403 115t-134 361v911zM207 1536l362 340q138 -95 138 -168q0 -37 -22.5 -65t-78.5 -60q-115 -68 -323 -151zM684 1536l363 338
q137 -89 137 -166q0 -37 -23 -65.5t-78 -59.5q-129 -74 -323 -151z" />
    <glyph glyph-name="uhungarumlaut" unicode="&#x171;" horiz-adv-x="1116" 
d="M668 1049h342v-850l22 -199h-289l-14 98h-8q-94 -125 -270 -125q-349 0 -349 371v705h344v-660q0 -79 19 -117.5t78 -38.5q54 0 89.5 39.5t35.5 100.5v676zM207 1260l254 419q188 -51 188 -157q0 -49 -67 -119q-102 -100 -277 -227zM608 1260l256 419q43 -11 82 -28.5
t73 -52t34 -76.5q0 -49 -70 -119q-95 -95 -276 -227z" />
    <glyph glyph-name="Uogonek" unicode="&#x172;" horiz-adv-x="1288" 
d="M104 1362h353v-891q0 -111 50 -157t142 -46q82 0 132 49.5t50 143.5v901h353v-942q0 -76 -22.5 -140t-66.5 -114.5t-97 -90.5t-126 -79q-74 -41 -125 -113.5t-51 -134.5q0 -70 72 -70q40 0 98 23l56 -170q-82 -47 -207 -47q-127 0 -187.5 58.5t-60.5 148.5q0 144 133 286
q-249 8 -372.5 123t-123.5 351v911z" />
    <glyph glyph-name="uogonek" unicode="&#x173;" horiz-adv-x="1116" 
d="M668 1049h342v-850l22 -199q-60 -50 -114 -125.5t-54 -128.5q0 -70 72 -70q40 0 98 23l56 -170q-82 -47 -207 -47q-127 0 -187.5 58.5t-60.5 148.5q0 92 50 173.5t110 137.5h-52l-14 98h-8q-94 -125 -270 -125q-349 0 -349 371v705h344v-660q0 -79 19 -117.5t78 -38.5
q54 0 89.5 39.5t35.5 100.5v676z" />
    <glyph glyph-name="Wcircumflex" unicode="&#x174;" horiz-adv-x="1667" 
d="M1016 0l-164 719h-8l-170 -719h-375l-289 1362h352l162 -842h11l147 740h342l143 -742h11l127 844h352l-273 -1362h-368zM608 1432l-102 88q11 13 44.5 54t50 61t44 51.5t50 55t44.5 42.5q57 51 107 51q52 0 102 -47q139 -132 242 -264l-100 -92l-244 174z" />
    <glyph glyph-name="wcircumflex" unicode="&#x175;" horiz-adv-x="1595" 
d="M1128 1049h336q70 -242 70 -471q0 -288 -118 -446.5t-345 -158.5q-197 0 -280 136q-117 -136 -318 -136q-182 0 -276.5 92.5t-94.5 278.5v705h344v-674q0 -75 16 -107t64 -32q52 0 81.5 34.5t29.5 94.5v684h342v-656q0 -36 1 -55t5 -42t12 -34t23.5 -18.5t38.5 -7.5
q135 0 135 335q0 212 -66 478zM547 1184l-111 88q102 153 226 299q41 47 68 63.5t67 16.5q42 0 69 -16.5t66 -63.5q111 -127 231 -299l-110 -88l-256 215z" />
    <glyph glyph-name="Ycircumflex" unicode="&#x176;" horiz-adv-x="1216" 
d="M1231 1362h-367l-248 -492h-8l-235 492h-387l440 -840v-522h350v524zM369 1432l-103 88q10 12 37.5 46t40.5 49.5t38 44.5t41.5 47t37.5 39.5t39 37.5q57 51 106 51q53 0 103 -47q136 -128 241 -264l-100 -92l-244 174z" />
    <glyph glyph-name="ycircumflex" unicode="&#x177;" horiz-adv-x="1105" 
d="M1012 231q0 -225 -6 -286q-46 -490 -494 -490q-172 0 -264 75t-92 208q0 201 202 348q-127 24 -191.5 109.5t-64.5 216.5v637h344v-590q0 -38 1.5 -61.5t7.5 -49t17 -39t30.5 -22t48.5 -8.5q52 0 84.5 37t32.5 100v633h344v-818zM463 -205q0 -42 23 -70t69 -28
q67 0 94 58t27 167v174q-44 -26 -78.5 -53.5t-67 -64.5t-50 -83.5t-17.5 -99.5zM309 1184l-110 88q105 158 225 299q41 47 68 63.5t67 16.5q42 0 69 -16.5t66 -63.5q116 -132 232 -299l-111 -88l-256 215z" />
    <glyph glyph-name="Ydieresis" unicode="&#x178;" horiz-adv-x="1216" 
d="M1231 1362h-367l-248 -492h-8l-235 492h-387l440 -840v-522h350v524zM680 1606q0 63 44 105t116 42q69 0 113 -42t44 -105q0 -64 -44.5 -106t-114.5 -42q-72 0 -115 42t-43 106zM231 1606q0 63 43 105t115 42q69 0 113.5 -42.5t44.5 -104.5q0 -64 -44 -106t-114 -42
q-72 0 -115 42t-43 106z" />
    <glyph glyph-name="Zacute" unicode="&#x179;" horiz-adv-x="1075" 
d="M1018 1157l-563 -887h583v-270h-993v217l551 877h-541v268h963v-205zM336 1538l356 344q60 -34 101 -79t41 -89q0 -38 -22.5 -66t-76.5 -61q-129 -74 -323 -151z" />
    <glyph glyph-name="zacute" unicode="&#x17a;" horiz-adv-x="878" 
d="M307 -170q0 -55 26.5 -88t82.5 -33q68 0 106.5 59t38.5 150q0 117 -74 176q-80 -48 -130 -118.5t-50 -145.5zM868 1049v-191l-413 -412l110 -47q155 -66 232 -175.5t80 -254.5q0 -79 -15 -149q-38 -173 -170 -268t-301 -95q-191 0 -289 88.5t-98 245.5q0 270 299 432
q-21 12 -47 24.5t-43.5 19.5t-48.5 19t-43 17v178l313 303h-401v265h835zM295 1260l254 419q31 -8 60 -20t59.5 -30.5t49.5 -46.5t19 -60q0 -49 -67 -119q-102 -100 -277 -227z" />
    <glyph glyph-name="Zdotaccent" unicode="&#x17b;" horiz-adv-x="1075" 
d="M1018 1157l-563 -887h583v-270h-993v217l551 877h-541v268h963v-205zM367 1640q0 73 49.5 121.5t132.5 48.5q80 0 131 -49t51 -121q0 -74 -50.5 -122t-131.5 -48q-83 0 -132.5 47.5t-49.5 122.5z" />
    <glyph glyph-name="zdotaccent" unicode="&#x17c;" horiz-adv-x="878" 
d="M307 -170q0 -55 26.5 -88t82.5 -33q68 0 106.5 59t38.5 150q0 117 -74 176q-80 -48 -130 -118.5t-50 -145.5zM868 1049v-191l-413 -412l110 -47q155 -66 232 -175.5t80 -254.5q0 -79 -15 -149q-38 -173 -170 -268t-301 -95q-191 0 -289 88.5t-98 245.5q0 270 299 432
q-21 12 -47 24.5t-43.5 19.5t-48.5 19t-43 17v178l313 303h-401v265h835zM276 1348q0 72 50 121t133 49q80 0 131 -49t51 -121q0 -74 -50.5 -122t-131.5 -48q-83 0 -133 47.5t-50 122.5z" />
    <glyph glyph-name="Zcaron" unicode="&#x17d;" horiz-adv-x="1075" 
d="M1018 1157l-563 -887h583v-270h-993v217l551 877h-541v268h963v-205zM199 1747l102 88l238 -174l243 174l101 -92q-103 -132 -242 -264q-50 -47 -102 -47q-50 0 -107 51q-22 19 -44.5 42.5t-50 55t-44 51.5t-50 61t-44.5 54z" />
    <glyph glyph-name="zcaron" unicode="&#x17e;" horiz-adv-x="878" 
d="M307 -170q0 -55 26.5 -88t82.5 -33q68 0 106.5 59t38.5 150q0 117 -74 176q-80 -48 -130 -118.5t-50 -145.5zM868 1049v-191l-413 -412l110 -47q155 -66 232 -175.5t80 -254.5q0 -79 -15 -149q-38 -173 -170 -268t-301 -95q-191 0 -289 88.5t-98 245.5q0 270 299 432
q-21 12 -47 24.5t-43.5 19.5t-48.5 19t-43 17v178l313 303h-401v265h835zM700 1651l111 -88q-46 -69 -110.5 -155.5t-114.5 -143.5q-72 -80 -135 -80q-69 0 -136 80q-103 117 -231 297l111 90l256 -215z" />
    <glyph glyph-name="longs" unicode="&#x17f;" horiz-adv-x="731" 
d="M449 1137v-1567h-343v1530q0 66 6 116.5t29.5 108t63 95t112 62.5t172.5 25q72 0 165.5 -25t160.5 -61l-78 -221q-105 57 -186 57q-52 0 -77 -27.5t-25 -92.5z" />
    <glyph glyph-name="florin" unicode="&#x192;" horiz-adv-x="1204" 
d="M137 528l41 269h240l22 137q12 72 27.5 126.5t47 111t75 92.5t113.5 59t161 23q94 0 186 -24t156 -62l-112 -220q-44 26 -95.5 41t-85.5 15q-51 0 -79.5 -26t-40.5 -89l-35 -184h282l-47 -269h-280l-95 -546q-9 -50 -19 -89t-27.5 -83.5t-40.5 -78t-57 -65t-77 -52
t-101.5 -32.5t-129.5 -12q-74 0 -162.5 24.5t-150.5 61.5l112 219q44 -26 95 -40.5t85 -14.5q50 0 79.5 26t41.5 88l105 594h-234z" />
    <glyph glyph-name="Scommaaccent" unicode="&#x218;" horiz-adv-x="1114" 
d="M25 117l118 289q76 -48 191 -86.5t198 -38.5q142 0 142 118q0 25 -11 45t-26.5 33.5t-46 27t-55.5 21.5t-68 21q-44 13 -77 25t-76 32t-74.5 41t-64 53t-53 68t-33.5 85.5t-13 106.5q0 200 138.5 314t356.5 114q142 0 274 -55.5t226 -146.5l-182 -232q-191 140 -318 140
q-54 0 -91.5 -27t-37.5 -80q0 -25 12 -46t28 -34.5t50.5 -29t58.5 -24t73 -24.5q47 -15 81 -27.5t77 -32.5t73 -41.5t61.5 -53.5t51 -68.5t31.5 -85.5t12 -106q0 -208 -143.5 -322.5t-377.5 -114.5q-141 0 -284 45t-221 97zM449 -104l-125 -428l120 -60q135 175 185 262
q41 65 41 115q0 35 -21 58.5t-59 34t-68.5 14t-72.5 4.5z" />
    <glyph glyph-name="scommaaccent" unicode="&#x219;" horiz-adv-x="892" 
d="M20 82l89 242q63 -41 152 -74t153 -33q98 0 98 78q0 18 -7.5 32.5t-17.5 24t-30 19t-35 14.5t-43 14q-59 19 -97 33.5t-86 42.5t-75 60t-46.5 83t-19.5 115q0 163 115.5 254.5t294.5 91.5q120 0 227.5 -41t184.5 -112l-156 -197q-138 107 -238 107q-44 0 -69 -19t-25 -55
q0 -41 34.5 -65.5t106.5 -47.5q56 -18 93 -32.5t84.5 -42.5t76 -60.5t48.5 -83t20 -113.5q0 -169 -112.5 -259.5t-305.5 -90.5q-128 0 -241.5 36.5t-172.5 78.5zM352 -104l-125 -428l121 -60q131 170 184 262q41 65 41 115q0 35 -21 58.5t-59 34t-68.5 14t-72.5 4.5z" />
    <glyph glyph-name="uni021A" unicode="&#x21a;" horiz-adv-x="1101" 
d="M33 1362h1089v-307h-377v-1055h-350v1055h-362v307zM424 -104l-125 -428l121 -60q131 170 184 262q41 65 41 115q0 35 -21 58.5t-59 34t-68.5 14t-72.5 4.5z" />
    <glyph glyph-name="uni021B" unicode="&#x21b;" horiz-adv-x="716" 
d="M102 1423h347v-374h256v-269h-256v-413q0 -79 32 -110.5t90 -31.5q47 0 111 33l74 -215q-50 -32 -129 -54t-162 -22q-73 0 -129.5 12.5t-94.5 31.5t-65 52.5t-41 64t-22 77.5t-9.5 82t-1.5 88v1048zM301 -104l-125 -428l121 -60q131 170 184 262q41 65 41 115
q0 35 -21 58.5t-59 34t-68.5 14t-72.5 4.5z" />
    <glyph glyph-name="dotlessj" unicode="&#x237;" horiz-adv-x="520" 
d="M88 -29v1078h342v-1098q0 -50 -2 -86t-9.5 -82t-21.5 -77.5t-39.5 -65t-61.5 -53.5t-89 -33t-121 -13q-77 0 -165 22t-150 58l86 236q69 -37 131 -37q50 0 75 35t25 116z" />
    <glyph glyph-name="apostrophe" unicode="&#x2bc;" horiz-adv-x="516" 
d="M150 995l69 453q54 8 80 8q131 0 131 -98q0 -103 -170 -397z" />
    <glyph glyph-name="circumflex" unicode="&#x2c6;" horiz-adv-x="1024" 
d="M258 1184l-111 88q102 153 226 299q41 47 68 63.5t67 16.5q42 0 69 -16.5t66 -63.5q111 -127 231 -299l-110 -88l-256 215z" />
    <glyph glyph-name="caron" unicode="&#x2c7;" horiz-adv-x="1024" 
d="M760 1651l110 -88q-46 -69 -110.5 -155.5t-114.5 -143.5q-72 -80 -135 -80q-68 0 -135 80q-108 123 -232 297l111 90l256 -215z" />
    <glyph glyph-name="uni02C9" unicode="&#x2c9;" horiz-adv-x="1024" 
d="M184 1266v231h652v-231h-652z" />
    <glyph glyph-name="breve" unicode="&#x2d8;" horiz-adv-x="1024" 
d="M700 1579l179 -47q-41 -142 -131 -228.5t-238 -86.5q-68 0 -125 18.5t-96 48.5t-69.5 72.5t-48.5 85t-30 90.5l187 47q35 -88 77 -124t111 -36q64 0 106.5 36t77.5 124z" />
    <glyph glyph-name="dotaccent" unicode="&#x2d9;" horiz-adv-x="1024" 
d="M332 1348q0 73 49.5 121.5t132.5 48.5q80 0 131 -49t51 -121q0 -74 -50.5 -122t-131.5 -48q-83 0 -132.5 47.5t-49.5 122.5z" />
    <glyph glyph-name="ring" unicode="&#x2da;" horiz-adv-x="1024" 
d="M309 1333q0 85 57 141t146 56q96 0 149.5 -53.5t53.5 -135.5q0 -90 -57 -146t-150 -56q-95 0 -147 54t-52 140zM446 1333q0 -67 66 -67q31 0 47 19t16 48q0 70 -63 70q-66 0 -66 -70z" />
    <glyph glyph-name="ogonek" unicode="&#x2db;" horiz-adv-x="1024" 
d="M426 6l233 -4q-60 -50 -113.5 -125t-53.5 -129q0 -70 71 -70q41 0 99 23l55 -170q-82 -47 -207 -47q-127 0 -187.5 58.5t-60.5 148.5q0 50 17 100.5t45 92t52.5 70.5t49.5 52z" />
    <glyph glyph-name="tilde" unicode="&#x2dc;" horiz-adv-x="1024" 
d="M221 1274l-20 182q81 64 178 64q57 0 149 -28t138 -28q67 0 133 39l18 -192q-68 -41 -143 -41q-48 0 -150.5 24.5t-144.5 24.5q-81 0 -158 -45z" />
    <glyph glyph-name="hungarumlaut" unicode="&#x2dd;" horiz-adv-x="1024" 
d="M98 1260l254 419q189 -51 189 -157q0 -48 -68 -119q-105 -103 -276 -227zM500 1260l256 419q31 -8 60.5 -20t60 -31t49 -46.5t18.5 -59.5q0 -49 -70 -119q-95 -95 -276 -227z" />
    <glyph glyph-name="uni0394" unicode="&#x394;" horiz-adv-x="1380" 
d="M1368 0h-1356l506 1346h348zM696 975h-12l-240 -711h494z" />
    <glyph glyph-name="uni03A9" unicode="&#x3a9;" horiz-adv-x="1570" 
d="M115 729q0 144 52 262t142.5 195.5t212.5 119.5t262 42q317 0 495.5 -150.5t178.5 -433.5q0 -133 -64 -256t-157 -199h256v-309h-596v240q40 33 70.5 67.5t62.5 86.5t50 123.5t18 156.5q0 181 -83.5 280t-223.5 99q-63 0 -117 -19t-99.5 -60.5t-71.5 -116.5t-26 -177
q0 -149 60 -261.5t163 -180.5v-238h-620v309h246q-211 173 -211 420z" />
    <glyph glyph-name="uni03BC" unicode="&#x3bc;" horiz-adv-x="1183" 
d="M1057 1049v-783q0 -34 12 -49.5t39 -15.5q20 0 57 12l29 -190q-103 -50 -207 -50q-154 0 -186 146q-23 -69 -77 -109.5t-126 -40.5q-52 0 -95.5 21.5t-70.5 58.5v-491h-305v1491h322v-603q0 -53 2.5 -86.5t10.5 -65t23 -48.5t39.5 -27t61.5 -10q78 0 111.5 69.5
t33.5 213.5v557h326z" />
    <glyph glyph-name="pi" unicode="&#x3c0;" horiz-adv-x="1306" 
d="M1241 778h-147v-477q0 -50 11.5 -70t43.5 -20q22 0 72 12l41 -196q-99 -52 -236 -52q-254 0 -254 256v547h-217v-778h-319v778h-150v271h1155v-271z" />
    <glyph glyph-name="Wgrave" unicode="&#x1e80;" horiz-adv-x="1667" 
d="M1016 0l-164 719h-8l-170 -719h-375l-289 1362h352l162 -842h11l147 740h342l143 -742h11l127 844h352l-273 -1362h-368zM709 1878l356 -340l-76 -104q-243 106 -323 153q-55 32 -77 60t-22 65q0 44 40.5 88t101.5 78z" />
    <glyph glyph-name="wgrave" unicode="&#x1e81;" horiz-adv-x="1595" 
d="M1128 1049h336q70 -242 70 -471q0 -288 -118 -446.5t-345 -158.5q-197 0 -280 136q-117 -136 -318 -136q-182 0 -276.5 92.5t-94.5 278.5v705h344v-674q0 -75 16 -107t64 -32q52 0 81.5 34.5t29.5 94.5v684h342v-656q0 -36 1 -55t5 -42t12 -34t23.5 -18.5t38.5 -7.5
q135 0 135 335q0 212 -66 478zM743 1679l254 -419l-98 -84q-189 138 -276 227q-70 70 -70 119q0 33 19 60.5t50 46t60.5 30.5t60.5 20z" />
    <glyph glyph-name="Wacute" unicode="&#x1e82;" horiz-adv-x="1667" 
d="M1016 0l-164 719h-8l-170 -719h-375l-289 1362h352l162 -842h11l147 740h342l143 -742h11l127 844h352l-273 -1362h-368zM625 1538l356 344q60 -34 100.5 -79t40.5 -89q0 -38 -22 -66.5t-76 -60.5q-127 -73 -324 -151z" />
    <glyph glyph-name="wacute" unicode="&#x1e83;" horiz-adv-x="1595" 
d="M1128 1049h336q70 -242 70 -471q0 -288 -118 -446.5t-345 -158.5q-197 0 -280 136q-117 -136 -318 -136q-182 0 -276.5 92.5t-94.5 278.5v705h344v-674q0 -75 16 -107t64 -32q52 0 81.5 34.5t29.5 94.5v684h342v-656q0 -36 1 -55t5 -42t12 -34t23.5 -18.5t38.5 -7.5
q135 0 135 335q0 212 -66 478zM590 1260l254 419q31 -8 60 -20t59.5 -30.5t49.5 -46.5t19 -60q0 -49 -67 -119q-102 -100 -277 -227z" />
    <glyph glyph-name="Wdieresis" unicode="&#x1e84;" horiz-adv-x="1667" 
d="M1016 0l-164 719h-8l-170 -719h-375l-289 1362h352l162 -842h11l147 740h342l143 -742h11l127 844h352l-273 -1362h-368zM913 1606q0 63 44 105t116 42q69 0 113.5 -42.5t44.5 -104.5q0 -64 -45 -106t-115 -42q-72 0 -115 42t-43 106zM465 1606q0 63 43 105t115 42
q69 0 113 -42t44 -105q0 -64 -43.5 -106t-113.5 -42q-72 0 -115 42t-43 106z" />
    <glyph glyph-name="wdieresis" unicode="&#x1e85;" horiz-adv-x="1595" 
d="M1128 1049h336q70 -242 70 -471q0 -288 -118 -446.5t-345 -158.5q-197 0 -280 136q-117 -136 -318 -136q-182 0 -276.5 92.5t-94.5 278.5v705h344v-674q0 -75 16 -107t64 -32q52 0 81.5 34.5t29.5 94.5v684h342v-656q0 -36 1 -55t5 -42t12 -34t23.5 -18.5t38.5 -7.5
q135 0 135 335q0 212 -66 478zM864 1368q0 62 44 105t116 43q69 0 113.5 -43.5t44.5 -104.5q0 -65 -45 -107t-115 -42q-72 0 -115 41.5t-43 107.5zM418 1368q0 62 43 105t114 43q69 0 113.5 -43.5t44.5 -104.5q0 -65 -44 -107t-114 -42q-72 0 -114.5 41.5t-42.5 107.5z" />
    <glyph glyph-name="Ygrave" unicode="&#x1ef2;" horiz-adv-x="1216" 
d="M1231 1362h-367l-248 -492h-8l-235 492h-387l440 -840v-522h350v524zM455 1878l356 -340l-76 -104q-243 106 -323 153q-55 32 -77 60t-22 65q0 44 40.5 88t101.5 78z" />
    <glyph glyph-name="ygrave" unicode="&#x1ef3;" horiz-adv-x="1105" 
d="M1012 231q0 -225 -6 -286q-46 -490 -494 -490q-172 0 -264 75t-92 208q0 201 202 348q-127 24 -191.5 109.5t-64.5 216.5v637h344v-590q0 -38 1.5 -61.5t7.5 -49t17 -39t30.5 -22t48.5 -8.5q52 0 84.5 37t32.5 100v633h344v-818zM463 -205q0 -42 23 -70t69 -28
q67 0 94 58t27 167v174q-44 -26 -78.5 -53.5t-67 -64.5t-50 -83.5t-17.5 -99.5zM481 1679l254 -419l-98 -84q-192 140 -277 227q-69 69 -69 119q0 33 19 60.5t50 46t60.5 30.5t60.5 20z" />
    <glyph glyph-name="endash" unicode="&#x2013;" horiz-adv-x="1024" 
d="M0 455v219h1024v-219h-1024z" />
    <glyph glyph-name="emdash" unicode="&#x2014;" horiz-adv-x="2048" 
d="M0 455v219h2048v-219h-2048z" />
    <glyph glyph-name="quoteleft" unicode="&#x2018;" horiz-adv-x="512" 
d="M358 938q-38 -6 -90 -6q-82 0 -138 30.5t-56 102.5q0 82 67 208.5t150 242.5l178 -64z" />
    <glyph glyph-name="quoteright" unicode="&#x2019;" horiz-adv-x="518" 
d="M172 1487q38 10 121 10q174 -4 174 -127q0 -132 -207 -457l-178 56z" />
    <glyph glyph-name="quotesinglbase" unicode="&#x201a;" horiz-adv-x="466" 
d="M438 147l-225 -485l-176 57q31 280 69 426q25 105 125 105q53 0 110.5 -33t96.5 -70z" />
    <glyph glyph-name="quotedblleft" unicode="&#x201c;" horiz-adv-x="921" 
d="M350 938q-38 -6 -90 -6q-82 0 -138 30.5t-56 102.5q0 82 67 208.5t150 242.5l178 -64zM760 938q-37 -6 -90 -6q-82 0 -138.5 30.5t-56.5 102.5q0 82 67 208.5t150 242.5l178 -64z" />
    <glyph glyph-name="quotedblright" unicode="&#x201d;" horiz-adv-x="927" 
d="M172 1487q38 10 121 10q174 -4 174 -127q0 -132 -207 -457l-178 56zM582 1487q38 10 120 10q175 -4 175 -127q0 -132 -207 -457l-178 56z" />
    <glyph glyph-name="quotedblbase" unicode="&#x201e;" horiz-adv-x="876" 
d="M438 147l-225 -485l-176 57q31 280 69 426q25 105 125 105q53 0 110.5 -33t96.5 -70zM848 147l-225 -485l-177 57q30 274 70 426q25 105 125 105q53 0 110.5 -33t96.5 -70z" />
    <glyph glyph-name="dagger" unicode="&#x2020;" horiz-adv-x="995" 
d="M498 909q-61 -42 -91 -107.5t-30 -135.5v-746q0 -82 30 -153.5t91 -116.5q50 43 85 115t35 149v752q0 67 -28 134t-92 109zM498 995q-48 38 -84.5 106.5t-36.5 127.5q0 76 28 113.5t91 37.5q122 0 122 -151q0 -56 -32 -122.5t-88 -111.5zM539 952q60 55 127.5 85
t124.5 30q62 0 97.5 -31t35.5 -92q0 -119 -144 -119q-60 0 -137 39.5t-104 87.5zM457 952q-41 -57 -116.5 -92t-129.5 -35q-139 0 -139 119q0 62 36.5 92.5t102.5 30.5q58 0 125.5 -29t120.5 -86z" />
    <glyph glyph-name="daggerdbl" unicode="&#x2021;" horiz-adv-x="995" 
d="M498 2q-48 -38 -84.5 -106t-36.5 -127q0 -76 28 -114t91 -38q122 0 122 152q0 56 -32 122t-88 111zM539 45q60 -55 127.5 -85t124.5 -30q62 0 97.5 31t35.5 92q0 119 -144 119q-60 0 -137 -39.5t-104 -87.5zM457 45q-41 57 -116.5 92t-129.5 35q-139 0 -139 -119
q0 -62 36.5 -92.5t102.5 -30.5q58 0 125.5 29t120.5 86zM498 909q-61 -42 -91 -107.5t-30 -135.5v-326q0 -159 121 -250q120 104 120 244v332q0 67 -28 134t-92 109zM498 995q-48 38 -84.5 106.5t-36.5 127.5q0 76 28 113.5t91 37.5q122 0 122 -151q0 -56 -32 -122.5
t-88 -111.5zM539 952q60 55 127.5 85t124.5 30q62 0 97.5 -31t35.5 -92q0 -119 -144 -119q-60 0 -137 39.5t-104 87.5zM457 952q-41 -57 -116.5 -92t-129.5 -35q-139 0 -139 119q0 62 36.5 92.5t102.5 30.5q58 0 125.5 -29t120.5 -86z" />
    <glyph glyph-name="bullet" unicode="&#x2022;" horiz-adv-x="1024" 
d="M248 643q0 125 74.5 203t189.5 78q116 0 190 -78t74 -203t-74 -201.5t-190 -76.5t-190 75.5t-74 202.5z" />
    <glyph glyph-name="ellipsis" unicode="&#x2026;" horiz-adv-x="1783" 
d="M725 129q0 70 45 116t121 46q84 0 129 -43t45 -117q0 -72 -44 -118t-124 -46q-84 0 -128 44.5t-44 117.5zM1300 129q0 70 45 116t121 46q84 0 129 -43t45 -117q0 -72 -43.5 -118t-123.5 -46q-84 0 -128.5 44.5t-44.5 117.5zM143 129q0 70 45 116t121 46q84 0 129 -43
t45 -117q0 -72 -44 -118t-124 -46q-84 0 -128 44.5t-44 117.5z" />
    <glyph glyph-name="perthousand" unicode="&#x2030;" horiz-adv-x="1961" 
d="M1618 598q127 0 205 -78.5t78 -232.5q0 -160 -80 -240t-215 -80q-136 0 -209.5 79t-73.5 237q0 155 82.5 235t212.5 80zM1610 113q84 0 84 172q0 92 -20.5 129t-59.5 37q-42 0 -62 -39t-20 -138q0 -87 19.5 -124t58.5 -37zM983 598q128 0 206.5 -78t78.5 -233
q0 -160 -80 -240t-215 -80q-136 0 -209.5 79t-73.5 237q0 155 82 235t211 80zM975 113q41 0 63.5 38t22.5 134q0 93 -21 129.5t-61 36.5q-41 0 -61.5 -39.5t-20.5 -137.5q0 -161 78 -161zM356 1346q127 0 206 -79t79 -233q0 -161 -80.5 -240t-216.5 -79t-209.5 78.5
t-73.5 236.5q0 154 82.5 235t212.5 81zM348 858q84 0 84 174q0 166 -80 166q-41 0 -61.5 -39t-20.5 -137q0 -164 78 -164zM281 190l-146 177l901 753l150 -178z" />
    <glyph glyph-name="guilsinglleft" unicode="&#x2039;" horiz-adv-x="710" 
d="M645 840l-227 -303l213 -326l-123 -115q-103 76 -226 191t-163 186q-23 39 -23 74q0 58 68 119q175 167 356 297z" />
    <glyph glyph-name="guilsinglright" unicode="&#x203a;" horiz-adv-x="710" 
d="M293 537l-230 303l127 123q194 -140 357 -297q67 -60 67 -119q0 -37 -22 -74q-40 -71 -163 -186t-226 -191l-123 115z" />
    <glyph glyph-name="fraction" unicode="&#x2044;" horiz-adv-x="403" 
d="M6 -29l-211 90l598 1282l215 -88z" />
    <glyph glyph-name="zerosuperior" unicode="&#x2070;" horiz-adv-x="772" 
d="M391 1509q73 0 132 -22t106 -68t72.5 -126t25.5 -189q0 -207 -91.5 -311.5t-254.5 -104.5q-161 0 -249.5 99.5t-88.5 310.5q0 203 95 307t253 104zM385 870q113 0 113 232q0 227 -113 227q-58 0 -86.5 -56.5t-28.5 -180.5q0 -117 28 -169.5t87 -52.5z" />
    <glyph glyph-name="foursuperior" unicode="&#x2074;" horiz-adv-x="772" 
d="M467 1231h143v-203h107v-168h-109v-164h-233v168h-318v127l248 535l187 -90l-195 -408h96z" />
    <glyph glyph-name="fivesuperior" unicode="&#x2075;" horiz-adv-x="772" 
d="M158 1047l59 450h434v-174h-282l-19 -121q73 -2 131.5 -15t106.5 -40.5t74 -75.5t26 -113q0 -52 -16 -97t-51 -85.5t-100.5 -64t-155.5 -23.5q-81 0 -161.5 24.5t-105.5 45.5l64 168q38 -22 91 -39t101 -17q101 0 101 78q0 28 -15.5 47t-38 29t-63.5 15t-76 6t-92 2h-12z
" />
    <glyph glyph-name="sixsuperior" unicode="&#x2076;" horiz-adv-x="772" 
d="M524 1538l47 -166q-230 -28 -266 -186q71 41 164 41q106 0 169.5 -66.5t63.5 -185.5q0 -127 -80.5 -207t-230.5 -80t-231.5 95t-81.5 268q0 69 13.5 132t46 124.5t82.5 108t127.5 79.5t176.5 43zM492 958q0 53 -22 79t-73 26q-47 0 -100 -33q0 -170 106 -170
q39 0 64 24.5t25 73.5z" />
    <glyph glyph-name="sevensuperior" unicode="&#x2077;" horiz-adv-x="772" 
d="M117 1323v174h590v-141q-133 -114 -193.5 -265.5t-60.5 -349.5v-43h-226v54q0 171 45.5 311.5t157.5 259.5h-313z" />
    <glyph glyph-name="eightsuperior" unicode="&#x2078;" horiz-adv-x="772" 
d="M84 897q0 85 46 141t110 84q-127 60 -127 181q0 83 75 144.5t205 61.5q77 0 134 -17.5t87 -47t44 -61t14 -64.5q0 -64 -30 -105.5t-83 -78.5q143 -79 143 -217q0 -96 -74 -163t-239 -67q-70 0 -124.5 12t-88 32t-55 47.5t-29.5 56t-8 61.5zM481 918q0 31 -27 56.5
t-65 41.5q-32 -15 -58 -44t-26 -59q0 -69 86 -69q43 0 66.5 22t23.5 52zM389 1368q-35 0 -52.5 -17t-17.5 -42q0 -23 21 -47t59 -41q27 16 45.5 41t18.5 51q0 22 -17 38.5t-57 16.5z" />
    <glyph glyph-name="ninesuperior" unicode="&#x2079;" horiz-adv-x="772" 
d="M238 657l-48 168q232 35 269 187q-74 -41 -164 -41q-107 0 -171.5 66.5t-64.5 185.5q0 128 81.5 207t232.5 79q150 0 231.5 -95t81.5 -267q0 -70 -12 -131.5t-43.5 -123t-80.5 -107.5t-129 -80.5t-183 -47.5zM270 1237q0 -51 23 -76.5t74 -25.5q48 0 100 32
q0 70 -24.5 120t-82.5 50q-39 0 -64.5 -25t-25.5 -75z" />
    <glyph glyph-name="zeroinferior" unicode="&#x2080;" horiz-adv-x="772" 
d="M391 647q73 0 132 -22t106 -68t72.5 -126t25.5 -189q0 -207 -91.5 -311.5t-254.5 -104.5q-161 0 -249.5 99.5t-88.5 310.5q0 203 95 307t253 104zM385 8q113 0 113 232q0 227 -113 227q-58 0 -86.5 -57t-28.5 -181q0 -117 28 -169t87 -52z" />
    <glyph glyph-name="oneinferior" unicode="&#x2081;" horiz-adv-x="772" 
d="M152 20h145v373l-147 -61l-72 147l270 156h199l-12 -162v-453h133v-184h-516v184z" />
    <glyph glyph-name="twoinferior" unicode="&#x2082;" horiz-adv-x="772" 
d="M190 365l-122 147q156 135 327 135q135 0 207 -60.5t72 -160.5q0 -73 -29.5 -132t-91.5 -124l-133 -141h274v-193h-594v146l250 276q37 46 52.5 72.5t15.5 56.5t-17.5 46t-46.5 16q-59 0 -164 -84z" />
    <glyph glyph-name="threeinferior" unicode="&#x2083;" horiz-adv-x="772" 
d="M193 391l-103 144q51 40 138.5 76t193.5 36q117 0 183.5 -55.5t66.5 -142.5q0 -49 -22 -94.5t-64 -75.5q96 -107 96 -205q0 -106 -77.5 -177t-233.5 -71q-137 0 -283 65l66 172q45 -25 107 -42t101 -17q36 0 60 16t24 48q0 29 -43 98q-39 -14 -153 -33l-51 150
q58 12 153 41q25 10 38.5 17t28.5 25t15 42q0 25 -17 37t-42 12q-32 0 -84 -19.5t-98 -46.5z" />
    <glyph glyph-name="fourinferior" unicode="&#x2084;" horiz-adv-x="772" 
d="M467 369h143v-203h107v-168h-109v-164h-233v168h-318v127l248 535l187 -91l-195 -407h96z" />
    <glyph glyph-name="fiveinferior" unicode="&#x2085;" horiz-adv-x="772" 
d="M158 184l59 451h434v-174h-282l-19 -121q73 -2 131.5 -15t106.5 -40.5t74 -75.5t26 -113q0 -52 -16 -97t-51 -85.5t-100.5 -64t-155.5 -23.5q-81 0 -161.5 24.5t-105.5 45.5l64 167q95 -55 192 -55q101 0 101 78q0 28 -15 46.5t-38 28.5t-62 15t-75 6t-90 2h-17z" />
    <glyph glyph-name="sixinferior" unicode="&#x2086;" horiz-adv-x="772" 
d="M524 676l47 -166q-230 -28 -266 -186q71 41 164 41q106 0 169.5 -66.5t63.5 -185.5q0 -127 -80.5 -207t-230.5 -80t-231.5 95t-81.5 267q0 69 13.5 132.5t46 124.5t82.5 108t127.5 80t176.5 43zM492 96q0 53 -22 79t-73 26q-47 0 -100 -33q0 -170 106 -170q39 0 64 24.5
t25 73.5z" />
    <glyph glyph-name="seveninferior" unicode="&#x2087;" horiz-adv-x="772" 
d="M117 461v174h590v-141q-133 -114 -193.5 -265.5t-60.5 -349.5v-43h-226v53q0 171 45.5 312t157.5 260h-313z" />
    <glyph glyph-name="eightinferior" unicode="&#x2088;" horiz-adv-x="772" 
d="M84 35q0 85 46 141t110 84q-127 60 -127 180q0 83 75 145t205 62q77 0 134 -17.5t87 -47t44 -61t14 -64.5q0 -65 -30.5 -106.5t-82.5 -78.5q143 -79 143 -217q0 -96 -74 -162.5t-239 -66.5q-70 0 -124.5 12t-88 32t-55 47.5t-29.5 56t-8 61.5zM481 55q0 31 -27.5 57
t-64.5 42q-32 -15 -58 -44t-26 -59q0 -69 86 -69q43 0 66.5 21.5t23.5 51.5zM389 506q-35 0 -52.5 -17.5t-17.5 -42.5q0 -23 21 -47t59 -41q27 16 45.5 41.5t18.5 51.5q0 22 -17 38.5t-57 16.5z" />
    <glyph glyph-name="nineinferior" unicode="&#x2089;" horiz-adv-x="772" 
d="M238 -205l-48 168q232 35 269 187q-74 -41 -164 -41q-107 0 -171.5 66t-64.5 185q0 128 82 207.5t232 79.5t231.5 -95t81.5 -267q0 -70 -12 -131.5t-43.5 -123t-80.5 -107.5t-129 -80.5t-183 -47.5zM270 375q0 -103 97 -103q47 0 100 33q0 70 -24.5 120t-82.5 50
q-39 0 -64.5 -25t-25.5 -75z" />
    <glyph glyph-name="Euro" unicode="&#x20ac;" 
d="M57 539v254h213q-48 25 -79 83t-31 123q0 159 120.5 253t344.5 94q110 0 228.5 -44.5t203.5 -127.5l-152 -207q-127 102 -266 102q-70 0 -116 -35.5t-46 -97.5q0 -59 41 -101t135 -42h265v-254h-259q-89 0 -137.5 -38t-48.5 -108q0 -68 51 -111.5t140 -43.5
q162 0 317 106l117 -223q-113 -83 -232.5 -119.5t-261.5 -36.5q-95 0 -172 18t-129 49t-87 74.5t-50.5 92.5t-15.5 104q0 149 120 236h-213z" />
    <glyph glyph-name="trademark" unicode="&#x2122;" horiz-adv-x="1437" 
d="M37 1362h571v-178h-186v-510h-207v510h-178v178zM1145 1362h209l37 -688h-185l-14 346h-8l-90 -287h-150l-92 287h-6l-21 -346h-180l41 688h211l123 -404h6z" />
    <glyph glyph-name="Omega" unicode="&#x2126;" horiz-adv-x="1570" 
d="M115 729q0 144 52 262t142.5 195.5t212.5 119.5t262 42q317 0 495.5 -150.5t178.5 -433.5q0 -133 -64 -256t-157 -199h256v-309h-596v240q40 33 70.5 67.5t62.5 86.5t50 123.5t18 156.5q0 181 -83.5 280t-223.5 99q-63 0 -117 -19t-99.5 -60.5t-71.5 -116.5t-26 -177
q0 -149 60 -261.5t163 -180.5v-238h-620v309h246q-211 173 -211 420z" />
    <glyph glyph-name="onethird" unicode="&#x2153;" horiz-adv-x="1740" 
d="M119 719h145v373l-147 -62l-72 148l270 155h199l-12 -162v-452h133v-184h-516v184zM705 -29l-211 90l598 1282l215 -88zM1208 555l-102 143q52 40 139 76.5t193 36.5q117 0 183.5 -56t66.5 -143q0 -49 -22 -94.5t-64 -75.5q96 -107 96 -204q0 -106 -78 -177t-234 -71
q-136 0 -282 65l65 172q45 -25 107.5 -42t101.5 -17q37 0 60.5 15.5t23.5 47.5q0 30 -43 99q-39 -14 -153 -33l-52 149q61 13 154 41q25 10 38.5 17t28.5 25t15 42q0 25 -17 37.5t-42 12.5q-32 0 -84.5 -19.5t-98.5 -46.5z" />
    <glyph glyph-name="twothirds" unicode="&#x2154;" horiz-adv-x="1740" 
d="M143 1063l-123 147q157 136 328 136q135 0 207 -61t72 -161q0 -73 -29.5 -132t-91.5 -124l-133 -141h274v-192h-594v145l250 276q37 46 52.5 72.5t15.5 56.5t-17.5 46t-46.5 16q-59 0 -164 -84zM702 -29l-210 90l598 1282l215 -88zM1212 555l-102 143q52 40 139 76.5
t193 36.5q117 0 183.5 -56t66.5 -143q0 -49 -22 -94.5t-64 -75.5q96 -107 96 -204q0 -106 -77.5 -177t-233.5 -71q-137 0 -283 65l66 172q45 -25 107 -42t101 -17q37 0 60.5 15.5t23.5 47.5q0 30 -43 99q-39 -14 -153 -33l-51 149q58 12 153 41q25 10 38.5 17t28.5 25t15 42
q0 25 -17 37.5t-42 12.5q-32 0 -84.5 -19.5t-98.5 -46.5z" />
    <glyph glyph-name="oneeighth" unicode="&#x215b;" horiz-adv-x="1740" 
d="M94 719h146v373l-148 -62l-72 148l271 155h198l-12 -162v-452h133v-184h-516v184zM668 -29l-211 90l598 1282l215 -88zM1081 199q0 85 46 141t110 84q-127 60 -127 180q0 83 75.5 145t205.5 62q77 0 133.5 -17.5t86.5 -47t44 -61t14 -64.5q0 -65 -30.5 -106.5
t-82.5 -78.5q144 -80 144 -217q0 -44 -16 -83t-50.5 -73t-98 -53.5t-149.5 -19.5q-70 0 -124.5 12t-88 32t-55 47.5t-29.5 56t-8 61.5zM1479 219q0 31 -27.5 56.5t-65.5 41.5q-32 -15 -57.5 -43.5t-25.5 -58.5q0 -70 86 -70q43 0 66.5 22t23.5 52zM1386 670q-35 0 -52 -17.5
t-17 -42.5q0 -23 21 -47t59 -41q27 16 45 41t18 51q0 22 -17 39t-57 17z" />
    <glyph glyph-name="threeeighths" unicode="&#x215c;" horiz-adv-x="1740" 
d="M147 1090l-102 143q52 40 139 76.5t193 36.5q117 0 183.5 -56t66.5 -143q0 -49 -22 -94.5t-64 -75.5q96 -107 96 -205q0 -106 -77.5 -177t-233.5 -71q-135 0 -283 66l66 172q46 -25 108 -42.5t100 -17.5q36 0 60 16t24 48q0 29 -43 98q-40 -14 -153 -33l-51 150
q58 12 153 41q25 10 38.5 17t28.5 25t15 42q0 25 -17 37t-42 12q-32 0 -85 -19.5t-98 -45.5zM670 -29l-211 90l598 1282l215 -88zM1077 199q0 85 46 141t110 84q-127 60 -127 180q0 83 75 145t205 62q77 0 134 -17.5t87 -47t44 -61t14 -64.5q0 -65 -30.5 -106.5t-82.5 -78.5
q144 -80 144 -217q0 -44 -16 -83t-50.5 -73t-98 -53.5t-149.5 -19.5q-70 0 -124.5 12t-88 32t-55 47.5t-29.5 56t-8 61.5zM1475 219q0 31 -27.5 56.5t-65.5 41.5q-32 -16 -58 -44t-26 -58q0 -70 86 -70q43 0 67 22t24 52zM1382 670q-35 0 -52 -17.5t-17 -42.5q0 -23 21 -47
t59 -41q27 16 45 41t18 51q0 22 -17 39t-57 17z" />
    <glyph glyph-name="fiveeighths" unicode="&#x215d;" horiz-adv-x="1740" 
d="M106 883l60 450h434v-174h-283l-18 -121q338 -7 338 -243q0 -52 -16 -97.5t-51.5 -86t-101 -64t-155.5 -23.5q-80 0 -160.5 24.5t-105.5 45.5l64 168q95 -55 192 -55q100 0 100 77q0 28 -15.5 47t-38 29t-63.5 15t-76 6t-92 2h-12zM676 -29l-211 90l598 1282l215 -88z
M1077 199q0 85 46 141t110 84q-127 60 -127 180q0 83 75 145t205 62q77 0 134 -17.5t87 -47t44 -61t14 -64.5q0 -65 -30.5 -106.5t-82.5 -78.5q144 -80 144 -217q0 -44 -16 -83t-50.5 -73t-98 -53.5t-149.5 -19.5q-70 0 -124.5 12t-88 32t-55 47.5t-29.5 56t-8 61.5z
M1475 219q0 31 -27.5 56.5t-65.5 41.5q-32 -16 -58 -44t-26 -58q0 -70 86 -70q43 0 67 22t24 52zM1382 670q-35 0 -52 -17.5t-17 -42.5q0 -23 21 -47t59 -41q27 16 45 41t18 51q0 22 -17 39t-57 17z" />
    <glyph glyph-name="seveneighths" unicode="&#x215e;" horiz-adv-x="1740" 
d="M86 1159v174h590v-141q-133 -114 -193.5 -265.5t-60.5 -348.5v-43h-225v53q0 171 45 311.5t157 259.5h-313zM618 -29l-210 90l598 1282l215 -88zM1034 199q0 85 46 141t110 84q-127 60 -127 180q0 83 75 145t205 62q77 0 134 -17.5t87 -47t44 -61t14 -64.5
q0 -65 -30.5 -106.5t-82.5 -78.5q144 -80 144 -217q0 -44 -16 -83t-50.5 -73t-98 -53.5t-149.5 -19.5q-70 0 -124.5 12t-88 32t-55 47.5t-29.5 56t-8 61.5zM1432 219q0 31 -27.5 56.5t-65.5 41.5q-32 -16 -58 -44t-26 -58q0 -70 86 -70q43 0 67 22t24 52zM1339 670
q-35 0 -52 -17.5t-17 -42.5q0 -23 21 -47t59 -41q27 16 45 41t18 51q0 22 -17 39t-57 17z" />
    <glyph glyph-name="partialdiff" unicode="&#x2202;" horiz-adv-x="1150" 
d="M248 1133l67 241q162 -28 285 -81.5t205.5 -125t134 -167.5t74 -204t22.5 -239q0 -98 -14.5 -182.5t-49.5 -160.5t-88.5 -129t-136 -84.5t-186.5 -31.5q-123 0 -215 36t-146 100t-80 144.5t-26 176.5q0 200 113.5 322t294.5 122q114 0 217 -59l4 6q-24 74 -99.5 141
t-173.5 111.5t-202 63.5zM711 578q-64 49 -146 49q-69 0 -105 -54.5t-36 -150.5q0 -209 143 -209q146 0 146 295q0 45 -2 70z" />
    <glyph glyph-name="Delta" unicode="&#x2206;" horiz-adv-x="1380" 
d="M1368 0h-1356l506 1346h348zM696 975h-12l-240 -711h494z" />
    <glyph glyph-name="product" unicode="&#x220f;" horiz-adv-x="1443" 
d="M1325 -270h-360v1304h-484v-1304h-360v1616h1204v-1616z" />
    <glyph glyph-name="summation" unicode="&#x2211;" horiz-adv-x="1161" 
d="M1143 -270h-1112v262l489 547l-473 544v263h1055v-312h-574l404 -499l-424 -494h635v-311z" />
    <glyph glyph-name="minus" unicode="&#x2212;" 
d="M963 770v-272h-830v272h830z" />
    <glyph glyph-name="uni2215" unicode="&#x2215;" horiz-adv-x="974" 
d="M340 -248l-289 103l588 1710l293 -101z" />
    <glyph glyph-name="uni2219" unicode="&#x2219;" horiz-adv-x="645" 
d="M152 629q0 71 44.5 116.5t122.5 45.5q83 0 128 -43t45 -117q0 -71 -43.5 -117.5t-122.5 -46.5q-85 0 -129.5 45t-44.5 117z" />
    <glyph glyph-name="radical" unicode="&#x221a;" horiz-adv-x="1396" 
d="M1464 1497l-536 -1526h-316l-260 748l-184 -92l-96 233l473 232l225 -674l360 1079h334z" />
    <glyph glyph-name="infinity" unicode="&#x221e;" horiz-adv-x="1564" 
d="M1493 731q0 -156 -91.5 -253t-238.5 -97q-203 0 -377 186q-177 -190 -362 -190q-167 0 -256.5 92t-89.5 238q0 91 40 168t120.5 126.5t185.5 49.5q115 0 197 -48.5t167 -158.5q102 110 188 159.5t200 49.5q79 0 141.5 -27t100 -73.5t56.5 -102.5t19 -119zM1219 715
q0 45 -23 71.5t-66 26.5q-40 0 -73 -25t-76 -75q74 -99 149 -99q41 0 65 30t24 71zM588 709q-67 102 -142 102q-49 0 -72.5 -27.5t-23.5 -70.5q0 -45 23.5 -72t68.5 -27q78 0 146 95z" />
    <glyph glyph-name="integral" unicode="&#x222b;" horiz-adv-x="798" 
d="M756 1169q-98 25 -135 25q-48 0 -66 -30.5t-14 -112.5q4 -116 8 -168l47 -768q6 -111 6 -138q5 -134 -76.5 -214t-226.5 -80q-142 0 -270 45l32 192q94 -24 134 -24q48 0 65.5 26.5t13.5 100.5q-6 96 -6 104l-49 846q-4 70 -4 135q0 137 78 217t223 80q144 0 272 -45z
" />
    <glyph glyph-name="approxequal" unicode="&#x2248;" horiz-adv-x="1390" 
d="M936 207q-67 0 -137 22.5t-118 49t-101.5 49t-90.5 22.5q-53 0 -99 -35.5t-107 -105.5l-195 164q40 56 73 94t78.5 77.5t99 60t112.5 20.5q57 0 121 -23.5t112.5 -51.5t108.5 -51.5t110 -23.5q102 0 205 139l195 -163q-64 -115 -157 -179.5t-210 -64.5zM934 721
q-67 0 -137 22t-117.5 48.5t-101 48.5t-91.5 22q-53 0 -100 -35.5t-106 -105.5l-193 166q38 55 71.5 93.5t78.5 77.5t98.5 59t112.5 20q57 0 121.5 -23.5t113 -51.5t108.5 -51.5t109 -23.5q56 0 104.5 34.5t100.5 106.5l194 -165q-137 -242 -366 -242z" />
    <glyph glyph-name="notequal" unicode="&#x2260;" 
d="M963 537v-273h-388l-40 -158h-275l41 158h-168v273h244l45 161h-289v273h365l45 164h262l-43 -164h201v-273h-273l-43 -161h316z" />
    <glyph glyph-name="lessequal" unicode="&#x2264;" 
d="M958 272v-272h-821v272h821zM981 1014l-457 -213l461 -221l-117 -256l-727 358v217l725 367z" />
    <glyph glyph-name="greaterequal" unicode="&#x2265;" 
d="M164 0v272h821v-272h-821zM598 801l-457 213l115 252l725 -367v-217l-727 -358l-117 256z" />
    <glyph glyph-name="lozenge" unicode="&#x25ca;" horiz-adv-x="1191" 
d="M1116 676l-383 -676h-266l-383 672l385 674h264zM784 676l-184 342l-180 -346l186 -350z" />
    <glyph glyph-name="onefifth" unicode="&#xf500;" horiz-adv-x="1740" 
d="M106 719h146v373l-148 -62l-71 148l270 155h199l-13 -162v-452h134v-184h-517v184zM692 -29l-211 90l598 1282l215 -88zM1161 348l60 451h434v-174h-283l-18 -121q73 -2 131.5 -15t106.5 -40.5t74 -75.5t26 -113q0 -52 -16 -97.5t-51.5 -85.5t-101 -63.5t-155.5 -23.5
q-81 0 -161 24t-105 45l63 168q37 -21 91 -38t102 -17q100 0 100 78q0 28 -15 46.5t-38 28.5t-62 15t-75 6t-90 2h-17z" />
    <glyph glyph-name="twofifths" unicode="&#xf501;" horiz-adv-x="1740" 
d="M154 1063l-123 147q157 136 327 136q135 0 207 -61t72 -161q0 -73 -29.5 -132t-91.5 -124l-133 -141h274v-192h-594v145l250 276q37 46 52.5 72.5t15.5 56.5t-17.5 46t-46.5 16q-58 0 -163 -84zM741 -29l-211 90l598 1282l215 -88zM1171 348l60 451h434v-174h-283
l-18 -121q73 -2 131.5 -15t106.5 -40.5t74 -75.5t26 -113q0 -52 -16 -97.5t-51.5 -85.5t-101 -63.5t-155.5 -23.5q-81 0 -161 24t-105 45l64 168q95 -55 192 -55q100 0 100 78q0 28 -15 46.5t-38 28.5t-62 15t-75 6t-90 2h-17z" />
    <glyph glyph-name="threefifths" unicode="&#xf502;" horiz-adv-x="1740" 
d="M145 1090l-102 143q52 40 139 76.5t193 36.5q117 0 183.5 -56t66.5 -143q0 -49 -22 -94.5t-64 -75.5q96 -107 96 -205q0 -106 -77.5 -177t-233.5 -71q-135 0 -283 66l65 172q46 -25 108 -42.5t101 -17.5q36 0 60 16t24 48q0 29 -43 98q-40 -14 -153 -33l-51 150
q58 12 153 41q25 10 38.5 17t28.5 25t15 42q0 25 -17 37t-42 12q-32 0 -85 -19.5t-98 -45.5zM678 -29l-211 90l598 1282l215 -88zM1143 348l59 451h434v-174h-282l-19 -121q73 -2 131.5 -15t106.5 -40.5t74 -75.5t26 -113q0 -52 -16 -97t-51 -85.5t-100.5 -64t-155.5 -23.5
q-81 0 -161.5 24t-105.5 45l64 168q95 -55 192 -55q101 0 101 78q0 28 -15 46.5t-38 28.5t-62 15t-75 6t-90 2h-17z" />
    <glyph glyph-name="fourfifths" unicode="&#xf503;" horiz-adv-x="1740" 
d="M449 1067h143v-203h106v-168h-108v-164h-234v168h-317v127l248 535l186 -90l-194 -408h96zM723 -29l-211 90l598 1282l215 -88zM1153 348l59 451h435v-174h-283l-18 -121q337 -7 337 -244q0 -52 -16 -97t-51 -85.5t-100.5 -64t-155.5 -23.5q-81 0 -161 24t-105 45l63 168
q37 -21 91 -38t102 -17q100 0 100 78q0 28 -15 46.5t-38 28.5t-62 15t-75 6t-90 2h-17z" />
    <glyph glyph-name="onesixth" unicode="&#xf504;" horiz-adv-x="1740" 
d="M104 719h146v373l-148 -62l-71 148l270 155h199l-13 -162v-452h134v-184h-517v184zM678 -29l-211 90l598 1282l215 -88zM1518 840l47 -166q-231 -29 -267 -187q71 41 164 41q106 0 170 -66.5t64 -185.5q0 -127 -81 -206.5t-231 -79.5t-231.5 95t-81.5 267
q0 69 13.5 132.5t46.5 124.5t82.5 108t127.5 80t177 43zM1485 260q0 53 -21.5 79t-72.5 26q-48 0 -101 -33q0 -170 107 -170q39 0 63.5 24.5t24.5 73.5z" />
    <glyph glyph-name="fivesixths" unicode="&#xf505;" horiz-adv-x="1740" 
d="M674 -29l-211 90l598 1282l215 -88zM1518 840l47 -166q-231 -29 -267 -187q71 41 164 41q106 0 170 -66.5t64 -185.5q0 -127 -81 -206.5t-231 -79.5t-231.5 95t-81.5 267q0 69 13.5 132.5t46.5 124.5t82.5 108t127.5 80t177 43zM1485 260q0 53 -21.5 79t-72.5 26
q-48 0 -101 -33q0 -170 107 -170q39 0 63.5 24.5t24.5 73.5zM106 883l60 450h434v-174h-283l-18 -121q338 -7 338 -243q0 -52 -16 -97.5t-51.5 -86t-101 -64t-155.5 -23.5q-80 0 -160.5 24.5t-105.5 45.5l64 168q95 -55 192 -55q100 0 100 77q0 28 -15.5 47t-38 29t-63.5 15
t-76 6t-92 2h-12z" />
    <glyph glyph-name="oneseventh" unicode="&#xf506;" horiz-adv-x="1740" 
d="M106 719h146v373l-148 -62l-71 148l270 155h199l-13 -162v-452h134v-184h-517v184zM686 -29l-211 90l598 1282l215 -88zM1126 625v174h590v-142q-133 -114 -193.5 -265.5t-60.5 -348.5v-43h-225v53q0 171 45.5 312t157.5 260h-314z" />
    <glyph glyph-name="twosevenths" unicode="&#xf507;" horiz-adv-x="1740" 
d="M158 1063l-123 147q157 136 327 136q135 0 207 -61t72 -161q0 -73 -29.5 -132t-91.5 -124l-133 -141h275v-192h-594v145l249 276q37 46 52.5 72.5t15.5 56.5t-17 46t-46 16q-59 0 -164 -84zM717 -29l-211 90l598 1282l215 -88zM1137 625v174h589v-142
q-133 -114 -193 -265t-60 -349v-43h-226v53q0 171 45.5 312t157.5 260h-313z" />
    <glyph glyph-name="threesevenths" unicode="&#xf508;" horiz-adv-x="1740" 
d="M160 1090l-103 143q52 40 139 76.5t193 36.5q117 0 183.5 -56t66.5 -143q0 -49 -22 -94.5t-64 -75.5q96 -107 96 -205q0 -106 -77.5 -177t-233.5 -71q-135 0 -283 66l66 172q45 -25 108 -42.5t101 -17.5q36 0 60 16t24 48q0 29 -43 98q-38 -13 -154 -33l-51 150
q58 12 153 41q25 10 38.5 17t28.5 25t15 42q0 25 -17 37t-42 12q-32 0 -84 -19.5t-98 -45.5zM674 -29l-211 90l598 1282l215 -88zM1128 625v174h590v-142q-133 -114 -193.5 -265.5t-60.5 -348.5v-43h-225v53q0 171 45.5 312t157.5 260h-314z" />
    <glyph glyph-name="foursevenths" unicode="&#xf509;" horiz-adv-x="1740" 
d="M432 1067h143v-203h107v-168h-109v-164h-233v168h-317v127l247 535l187 -90l-195 -408h96zM698 -29l-211 90l598 1282l215 -88zM1133 625v174h589v-142q-133 -114 -193.5 -265.5t-60.5 -348.5v-43h-225v53q0 171 45.5 312t157.5 260h-313z" />
    <glyph glyph-name="fivesevenths" unicode="&#xf50a;" horiz-adv-x="1740" 
d="M113 883l59 450h434v-174h-282l-19 -121q338 -7 338 -243q0 -52 -16 -97.5t-51.5 -86t-101 -64t-155.5 -23.5q-80 0 -160.5 24.5t-105.5 45.5l64 168q95 -55 192 -55q101 0 101 77q0 28 -15.5 47t-38 29t-63.5 15t-76 6t-92 2h-12zM668 -29l-211 90l598 1282l215 -88z
M1106 625v174h590v-142q-133 -114 -193.5 -265.5t-60.5 -348.5v-43h-225v53q0 171 45.5 312t156.5 260h-313z" />
    <glyph glyph-name="sixsevenths" unicode="&#xf50b;" horiz-adv-x="1740" 
d="M494 1374l47 -166q-232 -29 -267 -186q71 41 164 41q106 0 170 -66.5t64 -185.5q0 -127 -81 -207t-231 -80t-231.5 95t-81.5 268q0 88 23 165.5t72.5 147t139.5 115.5t212 59zM461 795q0 53 -21.5 78.5t-72.5 25.5q-48 0 -101 -33q0 -170 107 -170q39 0 63.5 25t24.5 74z
M690 -29l-211 90l598 1282l215 -88zM1137 625v174h589v-142q-133 -114 -193 -265t-60 -349v-43h-226v53q0 171 45.5 312t157.5 260h-313z" />
    <glyph glyph-name="oneninth" unicode="&#xf50c;" horiz-adv-x="1740" 
d="M109 719h145v373l-148 -62l-71 148l270 155h199l-12 -162v-452h133v-184h-516v184zM674 -29l-211 90l598 1282l215 -88zM1251 -41l-47 168q232 35 269 186q-74 -41 -164 -41q-107 0 -171.5 66.5t-64.5 185.5q0 128 81.5 207.5t231.5 79.5t232 -95t82 -267
q0 -70 -12 -131.5t-43.5 -123t-81 -107.5t-129.5 -80.5t-183 -47.5zM1284 539q0 -51 22.5 -77t73.5 -26q48 0 101 33q0 70 -24.5 120t-82.5 50q-39 0 -64.5 -25t-25.5 -75z" />
    <glyph glyph-name="twoninths" unicode="&#xf50d;" horiz-adv-x="1740" 
d="M143 1063l-123 147q157 136 328 136q135 0 207 -61t72 -161q0 -73 -29.5 -132t-91.5 -124l-133 -141h274v-192h-594v145l250 276q37 46 52.5 72.5t15.5 56.5t-17.5 46t-46.5 16q-59 0 -164 -84zM680 -29l-211 90l598 1282l215 -88zM1260 -41l-48 168q232 35 269 186
q-74 -41 -164 -41q-107 0 -171.5 66.5t-64.5 185.5q0 128 82 207.5t232 79.5t231.5 -95t81.5 -267q0 -70 -12 -131.5t-43.5 -123t-80.5 -107.5t-129 -80.5t-183 -47.5zM1292 539q0 -103 97 -103q47 0 100 33q0 70 -24.5 120t-82.5 50q-39 0 -64.5 -25t-25.5 -75z" />
    <glyph glyph-name="fourninths" unicode="&#xf50e;" horiz-adv-x="1740" 
d="M428 1067h143v-203h107v-168h-109v-164h-233v168h-318v127l248 535l187 -90l-195 -408h96zM672 -29l-211 90l598 1282l215 -88zM1257 -41l-47 168q232 35 269 186q-74 -41 -164 -41q-107 0 -171.5 66.5t-64.5 185.5q0 128 82 207.5t232 79.5t231.5 -95t81.5 -267
q0 -70 -12 -131.5t-43.5 -123t-81 -107.5t-129.5 -80.5t-183 -47.5zM1290 539q0 -51 22.5 -77t73.5 -26q48 0 101 33q0 70 -24.5 120t-82.5 50q-39 0 -64.5 -25t-25.5 -75z" />
    <glyph glyph-name="fiveninths" unicode="&#xf50f;" horiz-adv-x="1740" 
d="M104 883l60 450h434v-174h-283l-18 -121q338 -7 338 -243q0 -52 -16 -97.5t-51.5 -86t-101 -64t-155.5 -23.5q-80 0 -160.5 24.5t-105.5 45.5l64 168q95 -55 192 -55q100 0 100 77q0 28 -15.5 47t-38 29t-63.5 15t-76 6t-92 2h-12zM651 -29l-211 90l598 1282l215 -88z
M1243 -41l-47 168q231 35 268 186q-74 -41 -164 -41q-106 0 -170.5 66.5t-64.5 185.5q0 128 81.5 207.5t231.5 79.5t232 -95t82 -267q0 -70 -12 -131.5t-43.5 -123t-81 -107.5t-129.5 -80.5t-183 -47.5zM1276 539q0 -51 22.5 -77t73.5 -26q48 0 101 33q0 70 -24.5 120
t-82.5 50q-39 0 -64.5 -25t-25.5 -75z" />
    <glyph glyph-name="sevenninths" unicode="&#xf510;" horiz-adv-x="1740" 
d="M94 1159v174h590v-141q-133 -114 -193.5 -265.5t-60.5 -348.5v-43h-225v53q0 171 45.5 311.5t157.5 259.5h-314zM596 -29l-211 90l598 1282l215 -88zM1212 -41l-47 168q232 35 269 186q-74 -41 -164 -41q-107 0 -171.5 66.5t-64.5 185.5q0 128 82 207.5t232 79.5
t231.5 -95t81.5 -267q0 -70 -12 -131.5t-43.5 -123t-81 -107.5t-129.5 -80.5t-183 -47.5zM1245 539q0 -51 22.5 -77t73.5 -26q48 0 101 33q0 70 -24.5 120t-82.5 50q-39 0 -64.5 -25t-25.5 -75z" />
    <glyph glyph-name="eightninths" unicode="&#xf511;" horiz-adv-x="1740" 
d="M39 733q0 85 46 141t110 84q-127 60 -127 181q0 83 75 145t205 62q77 0 134 -18t87 -47.5t44 -61t14 -64.5q0 -64 -30 -105.5t-83 -78.5q143 -79 143 -217q0 -96 -74 -163t-239 -67q-70 0 -124.5 12t-88 32t-55 47.5t-29.5 56t-8 61.5zM436 754q0 31 -27 56.5t-65 41.5
q-32 -16 -58 -44t-26 -58q0 -70 86 -70q43 0 66.5 22t23.5 52zM344 1204q-36 0 -53 -17t-17 -42q0 -23 21 -47t59 -41q27 16 45.5 41t18.5 51q0 22 -17 38.5t-57 16.5zM678 -29l-211 90l598 1282l215 -88zM1249 -41l-47 168q231 35 268 186q-74 -41 -163 -41
q-107 0 -171.5 66.5t-64.5 185.5q0 128 81.5 207.5t231.5 79.5t232 -95t82 -267q0 -70 -12 -131.5t-43.5 -123t-81 -107.5t-129.5 -80.5t-183 -47.5zM1282 539q0 -51 22.5 -77t73.5 -26q48 0 101 33q0 70 -24.5 120t-82.5 50q-39 0 -64.5 -25t-25.5 -75z" />
    <glyph glyph-name="zero.tosf" unicode="&#xf81e;" 
d="M573 1079q236 0 371 -138.5t135 -401.5q0 -272 -137.5 -423t-380.5 -151q-164 0 -280 71.5t-172 193t-56 282.5q0 267 144 417t376 150zM565 219q75 0 120.5 76t45.5 240q0 148 -43.5 217t-118.5 69q-168 0 -168 -313q0 -142 44 -215.5t120 -73.5z" />
    <glyph glyph-name="one.tosf" unicode="&#xf81f;" 
d="M227 258h240v414l-213 -107l-125 226l420 258h285l-21 -252v-539h231v-258h-817v258z" />
    <glyph glyph-name="two.tosf" unicode="&#xf820;" 
d="M258 633l-182 219q104 109 231.5 168t257.5 59q205 0 317.5 -95t112.5 -255q0 -61 -15.5 -112t-49.5 -96.5t-74 -83.5t-102 -85l-121 -90h414v-262h-961v193l391 290q80 61 119 110.5t39 102.5q0 48 -25.5 75.5t-72.5 27.5q-98 0 -279 -166z" />
    <glyph glyph-name="three.tosf" unicode="&#xf821;" 
d="M809 459q176 -176 176 -338q0 -74 -24 -136.5t-80.5 -119.5t-144.5 -101t-221.5 -78t-307.5 -53l-60 261q258 35 374 90t116 143q0 75 -82 164q-122 -40 -221 -58l-82 242q192 38 280.5 85.5t88.5 129.5q0 98 -107 98q-49 0 -126 -31.5t-152 -78.5l-154 217
q36 29 82.5 57.5t111.5 58.5t146 49t162 19q178 0 279.5 -89.5t101.5 -227.5q0 -190 -156 -303z" />
    <glyph glyph-name="four.tosf" unicode="&#xf822;" 
d="M715 606h203v-336h167v-270h-170v-330h-342v336h-536v197l391 878l289 -135l-311 -676h192z" />
    <glyph glyph-name="five.tosf" unicode="&#xf823;" 
d="M162 336l92 713h719v-265h-438l-25 -206q473 -35 473 -396q0 -222 -199 -367t-612 -188l-66 262q276 39 397.5 107.5t121.5 177.5q0 166 -293 170q-30 1 -61.5 -0.5t-63.5 -4t-45 -3.5z" />
    <glyph glyph-name="six.tosf" unicode="&#xf824;" 
d="M813 1382l68 -254q-363 -53 -422 -333q39 24 105 40.5t120 16.5q170 0 261 -105t91 -294q0 -219 -119 -346t-346 -127q-124 0 -215 42t-145.5 122t-80.5 185.5t-26 241.5q0 79 9.5 153t32.5 152t58.5 145.5t91.5 129.5t128 108.5t171.5 79t217.5 43.5zM702 436
q0 87 -30 132.5t-86 45.5q-36 0 -78.5 -12.5t-69.5 -28.5q-2 -166 29 -248.5t104 -82.5q60 0 95.5 48t35.5 146z" />
    <glyph glyph-name="seven.tosf" unicode="&#xf825;" 
d="M102 766v283h951v-228l-580 -1151h-360l553 1096h-564z" />
    <glyph glyph-name="eight.tosf" unicode="&#xf826;" 
d="M94 340q0 193 213 354q-174 123 -174 291q0 160 121 260.5t328 100.5q108 0 189.5 -26t128.5 -72t70 -101.5t23 -120.5q0 -154 -164 -307q220 -152 220 -348q0 -80 -29 -149t-87 -123.5t-154.5 -85.5t-221.5 -31q-106 0 -188.5 21.5t-133.5 56.5t-83.5 83t-45 96
t-12.5 101zM686 365q0 90 -154 186q-112 -92 -112 -193q0 -53 33.5 -89t97.5 -36q63 0 99 36t36 96zM571 1112q-46 0 -80 -28t-34 -76q0 -52 32.5 -89.5t94.5 -78.5q104 92 104 172q0 55 -34 77.5t-83 22.5z" />
    <glyph glyph-name="nine.tosf" unicode="&#xf827;" 
d="M324 -293l-68 256q184 28 290.5 98.5t135.5 208.5q-99 -61 -229 -61q-170 0 -261.5 104.5t-91.5 292.5q0 217 122.5 345t350.5 128q122 0 211.5 -42t143 -121.5t79 -185t25.5 -241.5q0 -80 -9 -152t-31.5 -147t-57.5 -139t-91 -123t-128 -102.5t-171.5 -75t-219.5 -43.5z
M432 623q0 -87 31.5 -135t87.5 -48q31 0 76 14t71 33q1 109 -11.5 180.5t-42.5 111.5t-79 40q-60 0 -96.5 -49t-36.5 -147z" />
    <glyph glyph-name="hyphen.case" horiz-adv-x="659" 
d="M61 526v252h537v-252h-537z" />
    <glyph glyph-name="zero.num" horiz-adv-x="772" 
d="M391 1346q73 0 132 -22t106 -68.5t72.5 -126.5t25.5 -189q0 -207 -91.5 -311.5t-254.5 -104.5q-161 0 -249.5 99.5t-88.5 310.5q0 203 95 307.5t253 104.5zM385 707q113 0 113 231q0 227 -113 227q-58 0 -86.5 -56.5t-28.5 -180.5q0 -117 28 -169t87 -52z" />
    <glyph glyph-name="one.num" horiz-adv-x="772" 
d="M152 719h145v373l-147 -62l-72 148l270 155h199l-12 -162v-452h133v-184h-516v184z" />
    <glyph glyph-name="two.num" horiz-adv-x="772" 
d="M190 1063l-122 147q157 136 327 136q135 0 207 -61t72 -161q0 -73 -29.5 -132t-91.5 -124l-133 -141h274v-192h-594v145l250 276q37 46 52.5 72.5t15.5 56.5t-17.5 46t-46.5 16q-59 0 -164 -84z" />
    <glyph glyph-name="three.num" horiz-adv-x="772" 
d="M193 1090l-103 143q52 40 139 76.5t193 36.5q117 0 183.5 -56t66.5 -143q0 -49 -22 -94.5t-64 -75.5q96 -107 96 -205q0 -106 -77.5 -177t-233.5 -71q-135 0 -283 66l66 172q46 -25 108 -42.5t100 -17.5q36 0 60 16t24 48q0 29 -43 98q-39 -14 -153 -33l-51 150
q58 12 153 41q25 10 38.5 17t28.5 25t15 42q0 25 -17 37t-42 12q-32 0 -84 -19.5t-98 -45.5z" />
    <glyph glyph-name="four.num" horiz-adv-x="772" 
d="M467 1067h143v-203h107v-168h-109v-164h-233v168h-318v127l248 535l187 -90l-195 -408h96z" />
    <glyph glyph-name="five.num" horiz-adv-x="772" 
d="M158 883l59 450h434v-174h-282l-19 -121q338 -7 338 -243q0 -52 -16 -97.5t-51 -86t-100.5 -64t-155.5 -23.5q-81 0 -161.5 24.5t-105.5 45.5l64 168q95 -55 192 -55q101 0 101 77q0 28 -15.5 47t-38 29t-63.5 15t-76 6t-92 2h-12z" />
    <glyph glyph-name="six.num" horiz-adv-x="772" 
d="M524 1374l47 -166q-230 -28 -266 -186q71 41 164 41q106 0 169.5 -66.5t63.5 -185.5q0 -127 -80.5 -207t-230.5 -80t-231.5 95t-81.5 268q0 69 13.5 132t46 124.5t82.5 108t127.5 79.5t176.5 43zM492 795q0 53 -22 78.5t-73 25.5q-47 0 -100 -33q0 -170 106 -170
q39 0 64 25t25 74z" />
    <glyph glyph-name="seven.num" horiz-adv-x="772" 
d="M117 1159v174h590v-141q-133 -114 -193.5 -265.5t-60.5 -348.5v-43h-226v53q0 171 45.5 311.5t157.5 259.5h-313z" />
    <glyph glyph-name="eight.num" horiz-adv-x="772" 
d="M84 733q0 85 46 141t110 84q-127 60 -127 181q0 83 75 145t205 62q77 0 134 -18t87 -47.5t44 -61t14 -64.5q0 -64 -30 -105.5t-83 -78.5q143 -79 143 -217q0 -96 -74 -163t-239 -67q-70 0 -124.5 12t-88 32t-55 47.5t-29.5 56t-8 61.5zM481 754q0 31 -27 56.5t-65 41.5
q-32 -16 -58 -44t-26 -58q0 -70 86 -70q43 0 66.5 22t23.5 52zM389 1204q-35 0 -52.5 -17t-17.5 -42q0 -23 21 -47t59 -41q27 16 45.5 41t18.5 51q0 22 -17 38.5t-57 16.5z" />
    <glyph glyph-name="nine.num" horiz-adv-x="772" 
d="M238 494l-48 168q232 35 269 186q-74 -41 -164 -41q-107 0 -171.5 66.5t-64.5 185.5q0 128 82 207.5t232 79.5t231.5 -95t81.5 -268q0 -70 -12 -131.5t-43.5 -122.5t-80.5 -107t-129 -80.5t-183 -47.5zM270 1073q0 -51 23 -76.5t74 -25.5q47 0 100 33q0 70 -24.5 120
t-82.5 50q-39 0 -64.5 -25.5t-25.5 -75.5z" />
    <glyph glyph-name="zero.denom" horiz-adv-x="772" 
d="M391 811q73 0 132 -22t106 -68t72.5 -126t25.5 -189q0 -207 -91.5 -311.5t-254.5 -104.5q-161 0 -249.5 99t-88.5 310q0 203 95 307.5t253 104.5zM385 172q113 0 113 231q0 228 -113 228q-58 0 -86.5 -57t-28.5 -181q0 -117 28 -169t87 -52z" />
    <glyph glyph-name="one.denom" horiz-adv-x="772" 
d="M152 184h145v373l-147 -61l-72 147l270 156h199l-12 -162v-453h133v-184h-516v184z" />
    <glyph glyph-name="two.denom" horiz-adv-x="772" 
d="M190 528l-122 148q156 135 327 135q135 0 207 -60.5t72 -160.5q0 -73 -29.5 -132t-91.5 -124l-133 -141h274v-193h-594v145l250 277q37 46 52.5 72.5t15.5 56.5t-17.5 45.5t-46.5 15.5q-59 0 -164 -84z" />
    <glyph glyph-name="three.denom" horiz-adv-x="772" 
d="M193 555l-103 143q52 40 139 76.5t193 36.5q117 0 183.5 -56t66.5 -143q0 -49 -22 -94.5t-64 -75.5q96 -107 96 -204q0 -106 -77.5 -177t-233.5 -71q-137 0 -283 65l66 172q45 -25 107 -42t101 -17q37 0 60.5 15.5t23.5 47.5q0 30 -43 99q-39 -14 -153 -33l-51 149
q58 12 153 41q25 10 38.5 17t28.5 25t15 42q0 25 -17 37.5t-42 12.5q-32 0 -84 -19.5t-98 -46.5z" />
    <glyph glyph-name="four.denom" horiz-adv-x="772" 
d="M467 532h143v-202h107v-168h-109v-164h-233v168h-318v127l248 534l187 -90l-195 -407h96z" />
    <glyph glyph-name="five.denom" horiz-adv-x="772" 
d="M158 348l59 451h434v-174h-282l-19 -121q73 -2 131.5 -15t106.5 -40.5t74 -75.5t26 -113q0 -52 -16 -97t-51 -85.5t-100.5 -64t-155.5 -23.5q-81 0 -161.5 24t-105.5 45l64 168q95 -55 192 -55q101 0 101 78q0 28 -15 46.5t-38 28.5t-62 15t-75 6t-90 2h-17z" />
    <glyph glyph-name="six.denom" horiz-adv-x="772" 
d="M524 840l47 -166q-230 -28 -266 -187q71 41 164 41q106 0 169.5 -66.5t63.5 -185.5q0 -127 -80.5 -206.5t-230.5 -79.5t-231.5 95t-81.5 267q0 69 13.5 132.5t46 124.5t82.5 108t127.5 80t176.5 43zM492 260q0 53 -22 79t-73 26q-47 0 -100 -33q0 -170 106 -170
q39 0 64 24.5t25 73.5z" />
    <glyph glyph-name="seven.denom" horiz-adv-x="772" 
d="M117 625v174h590v-142q-133 -114 -193.5 -265.5t-60.5 -348.5v-43h-226v53q0 171 45.5 312t157.5 260h-313z" />
    <glyph glyph-name="eight.denom" horiz-adv-x="772" 
d="M84 199q0 85 46 141t110 84q-127 60 -127 180q0 83 75 145t205 62q77 0 134 -17.5t87 -47t44 -61t14 -64.5q0 -65 -30.5 -106.5t-82.5 -78.5q143 -79 143 -217q0 -96 -74 -162.5t-239 -66.5q-70 0 -124.5 12t-88 32t-55 47.5t-29.5 56t-8 61.5zM481 219q0 31 -27 56.5
t-65 41.5q-32 -16 -58 -44t-26 -58q0 -70 86 -70q43 0 66.5 22t23.5 52zM389 670q-35 0 -52.5 -17.5t-17.5 -42.5q0 -23 21 -47t59 -41q27 16 45.5 41t18.5 51q0 22 -17 39t-57 17z" />
    <glyph glyph-name="nine.denom" horiz-adv-x="772" 
d="M238 -41l-48 168q232 35 269 186q-74 -41 -164 -41q-107 0 -171.5 66.5t-64.5 185.5q0 128 82 207.5t232 79.5t231.5 -95t81.5 -267q0 -70 -12 -131.5t-43.5 -123t-80.5 -107.5t-129 -80.5t-183 -47.5zM270 539q0 -103 97 -103q47 0 100 33q0 70 -24.5 120t-82.5 50
q-39 0 -64.5 -25t-25.5 -75z" />
    <glyph glyph-name="commaaccent" horiz-adv-x="1024" 
d="M279 -532l124 428q42 -1 72.5 -4.5t69 -14t59.5 -34t21 -58.5q0 -50 -41 -115q-50 -87 -185 -262z" />
    <glyph glyph-name="revcommaaccent" horiz-adv-x="1024" 
d="M680 1597l-121 -432q-49 4 -83 9.5t-69 17t-53 34t-18 54.5q0 36 43 113q19 34 47 74.5t45 63t53.5 68.5t40.5 52z" />
    <glyph glyph-name="tilde.cap" horiz-adv-x="1024" 
d="M221 1487l-20 182q81 64 178 64q57 0 149 -28t138 -28q67 0 133 39l18 -192q-68 -41 -143 -41q-48 0 -150.5 24.5t-144.5 24.5q-81 0 -158 -45z" />
    <glyph glyph-name="ring.cap" horiz-adv-x="1024" 
d="M309 1559q0 86 57.5 144t145.5 58q96 0 149.5 -56t53.5 -138q0 -91 -57.5 -151t-149.5 -60q-94 0 -146.5 58t-52.5 145zM446 1559q0 -33 17.5 -54.5t48.5 -21.5t47 21t16 55q0 75 -63 75q-66 0 -66 -75z" />
    <glyph glyph-name="circumflex.cap" horiz-adv-x="1024" 
d="M270 1432l-102 88q11 13 44.5 54t50 61t44 51.5t50 55t44.5 42.5q57 51 107 51q52 0 102 -47q139 -132 242 -264l-100 -92l-244 174z" />
    <glyph glyph-name="acute.cap" horiz-adv-x="1024" 
d="M281 1538l356 344q60 -34 100.5 -79t40.5 -89q0 -38 -22 -66.5t-76 -60.5q-127 -73 -324 -151z" />
    <glyph glyph-name="grave.cap" horiz-adv-x="1024" 
d="M422 1878l356 -340l-76 -104q-243 106 -323 153q-55 32 -76.5 60t-21.5 65q0 44 40.5 88t100.5 78z" />
    <glyph glyph-name="dieresis.cap" horiz-adv-x="1024" 
d="M578 1606q0 63 43.5 105t115.5 42q69 0 113.5 -42.5t44.5 -104.5q0 -64 -45 -106t-115 -42q-72 0 -114.5 41.5t-42.5 106.5zM129 1606q0 63 43 105t115 42q69 0 113 -42t44 -105q0 -64 -43.5 -106t-113.5 -42q-72 0 -115 42t-43 106z" />
    <glyph glyph-name="caron.cap" horiz-adv-x="1024" 
d="M168 1747l102 88l238 -174l244 174l100 -92q-103 -132 -242 -264q-50 -47 -102 -47q-50 0 -107 51q-22 19 -44.5 42.5t-50 55t-44 51.5t-50 61t-44.5 54z" />
    <glyph glyph-name="macron.cap" horiz-adv-x="1024" 
d="M184 1487v229h652v-229h-652z" />
    <glyph glyph-name="dotaccent.cap" horiz-adv-x="1024" 
d="M332 1640q0 73 49.5 121.5t132.5 48.5q80 0 131 -49t51 -121q0 -74 -50.5 -122t-131.5 -48q-83 0 -132.5 47.5t-49.5 122.5z" />
    <glyph glyph-name="cedilla.cap" horiz-adv-x="1024" 
d="M434 6h141l-34 -123q91 -9 145.5 -56t54.5 -122q0 -51 -17.5 -90t-45 -62.5t-65 -38.5t-72.5 -20.5t-72 -5.5q-106 0 -203 37l41 139q75 -26 137 -26q103 0 103 63q0 23 -15 38t-43.5 22t-58.5 9.5t-72 2.5z" />
    <glyph glyph-name="hungarumlaut.cap" horiz-adv-x="1024" 
d="M76 1536l362 340q137 -95 137 -168q0 -37 -22.5 -65t-77.5 -60q-115 -68 -323 -151zM553 1536l362 338q138 -90 138 -166q0 -37 -23 -65.5t-78 -59.5q-129 -74 -323 -151z" />
    <glyph glyph-name="commaaccent.cap" horiz-adv-x="1024" 
d="M279 -532l124 428q42 -1 72.5 -4.5t69 -14t59.5 -34t21 -58.5q0 -50 -41 -115q-50 -87 -185 -262z" />
    <glyph glyph-name="breve.cap" horiz-adv-x="1024" 
d="M705 1833l184 -82q-16 -41 -35.5 -76.5t-52.5 -74t-72.5 -65.5t-96.5 -44.5t-124 -17.5t-124.5 17.5t-97.5 45.5t-71 65.5t-49 73t-29 72.5l189 86q34 -78 77 -118t113 -40q69 0 109.5 36t79.5 122z" />
    <glyph glyph-name="caron.alt" horiz-adv-x="516" 
d="M158 950v459q61 14 131 14q58 0 87.5 -20.5t29.5 -69.5q0 -30 -19 -104q-45 -164 -106 -303z" />
    <glyph glyph-name="ogonek.cap" horiz-adv-x="1024" 
d="M426 6l233 -4q-60 -50 -113.5 -125t-53.5 -129q0 -70 71 -70q41 0 99 23l55 -170q-82 -47 -207 -47q-127 0 -187.5 58.5t-60.5 148.5q0 50 17 100.5t45 92t52.5 70.5t49.5 52z" />
    <glyph glyph-name="zero.tf" 
d="M555 1346q492 0 492 -674q0 -360 -127.5 -525t-376.5 -165q-251 0 -372.5 166t-121.5 518q0 344 135 512t371 168zM547 252q37 0 64 19t49 64.5t33.5 129t11.5 203.5q0 114 -11 193t-32 123.5t-48 63.5t-63 19q-52 0 -85 -36t-53 -131.5t-20 -254.5q0 -393 154 -393z" />
    <glyph glyph-name="one.tf" 
d="M207 258h223v686l-215 -108l-127 225l422 258h285l-21 -252v-809h213v-258h-780v258z" />
    <glyph glyph-name="two.tf" 
d="M256 893l-188 227q104 104 234 165t265 61q206 0 315 -103.5t109 -279.5q0 -111 -43 -204t-137 -198l-254 -285h475v-276h-954v207l424 479q72 82 99.5 129t27.5 109q0 55 -33 83.5t-82 28.5q-53 0 -121.5 -39t-136.5 -104z" />
    <glyph glyph-name="three.tf" 
d="M231 928l-163 221q33 30 75 58.5t108 62.5t153 55t180 21q178 0 279.5 -90.5t101.5 -231.5q0 -179 -160 -291q85 -69 131.5 -158.5t46.5 -183.5q0 -82 -28 -154t-84 -130t-150.5 -91.5t-216.5 -33.5q-118 0 -237.5 31t-200.5 75l92 270q72 -38 169 -64t158 -26
q69 0 110.5 27t41.5 80q0 77 -82 178q-101 -33 -221 -55l-80 247q85 18 141.5 33.5t111.5 39.5t82 56.5t27 73.5q0 54 -30 78.5t-78 24.5q-54 0 -130.5 -35.5t-146.5 -87.5z" />
    <glyph glyph-name="four.tf" 
d="M688 883h195v-328h170v-270h-170v-285h-344v289h-504v221l395 850l272 -135l-317 -670h182z" />
    <glyph glyph-name="five.tf" 
d="M160 594l90 725h713v-281h-449l-25 -213q106 -13 190.5 -42.5t151.5 -79t103.5 -126.5t36.5 -176q0 -62 -17 -121t-54.5 -113.5t-93.5 -95t-139.5 -65t-185.5 -24.5q-123 0 -238.5 29t-201.5 73l102 266q176 -88 316 -88q76 0 116.5 36.5t40.5 104.5q0 191 -456 191z" />
    <glyph glyph-name="six.tf" 
d="M793 1382l67 -254q-363 -53 -422 -333q39 24 105.5 40.5t120.5 16.5q170 0 261 -105t91 -294q0 -219 -119 -346t-346 -127q-124 0 -215 42t-145.5 122t-80.5 185.5t-26 241.5q0 79 9.5 153t32.5 152t58.5 145.5t91.5 129.5t128 108.5t171.5 79t217.5 43.5zM682 436
q0 87 -30.5 132.5t-86.5 45.5q-36 0 -78 -12.5t-69 -28.5q-2 -166 29 -248.5t104 -82.5q60 0 95.5 48t35.5 146z" />
    <glyph glyph-name="seven.tf" 
d="M125 1038v281h934v-225q-84 -68 -151 -149.5t-109.5 -155t-73.5 -159.5t-46 -150t-23 -141t-9.5 -117t-1.5 -93v-129h-360v145q0 83 5 153t25 169.5t54 187.5t97.5 190t149.5 193h-491z" />
    <glyph glyph-name="eight.tf" 
d="M74 340q0 193 213 354q-174 123 -174 291q0 160 120.5 260.5t327.5 100.5q108 0 190 -26t129 -72t70 -101.5t23 -120.5q0 -154 -164 -307q219 -151 219 -348q0 -80 -29 -149t-87 -123.5t-154 -85.5t-221 -31q-106 0 -188.5 21.5t-133.5 56.5t-83.5 83t-45 96t-12.5 101z
M666 365q0 90 -154 186q-113 -92 -113 -193q0 -53 33.5 -89t97.5 -36t100 36.5t36 95.5zM551 1112q-46 0 -80.5 -28t-34.5 -76q0 -52 32.5 -89.5t94.5 -78.5q105 93 105 172q0 55 -34 77.5t-83 22.5z" />
    <glyph glyph-name="nine.tf" 
d="M303 -27l-67 256q89 14 157 36t125 57.5t93 89.5t51 125q-101 -62 -230 -62q-170 0 -261 104.5t-91 292.5q0 218 122.5 346t350.5 128q122 0 211.5 -42t143 -121.5t79 -185t25.5 -241.5q0 -114 -18 -212.5t-67 -198.5t-126.5 -173.5t-204.5 -127.5t-293 -71zM412 889
q0 -87 31 -134.5t87 -47.5q31 0 76.5 14.5t71.5 32.5q1 109 -11.5 180.5t-42.5 111t-79 39.5q-60 0 -96.5 -49t-36.5 -147z" />
    <glyph glyph-name="dollar.tf" 
d="M721 1530v-203q181 -45 317 -178l-182 -211q-91 67 -159 100t-134 33q-50 0 -79 -25.5t-29 -72.5q0 -28 13.5 -50t46 -41t65 -32.5t92.5 -34.5q57 -19 99.5 -38t91.5 -52t80.5 -72.5t53 -99t21.5 -131.5q0 -152 -80 -252.5t-217 -142.5v-228h-318v209q-112 18 -212 56
t-158 79l119 269q79 -50 184.5 -88.5t187.5 -38.5q61 0 94 29t33 79q0 30 -12.5 53t-40.5 40.5t-56.5 29.5t-76.5 27q-46 14 -72.5 23.5t-70.5 28.5t-71 38t-60 49.5t-51 65.5t-31 84t-13 106q0 145 82 247.5t225 139.5v205h318z" />
    <glyph glyph-name="Euro.tf" 
d="M74 539v254h213q-48 25 -79.5 83t-31.5 123q0 159 120.5 253t344.5 94q110 0 228.5 -44.5t203.5 -127.5l-151 -207q-128 102 -267 102q-70 0 -115.5 -35.5t-45.5 -97.5q0 -59 41 -101t135 -42h264v-254h-258q-90 0 -138.5 -38t-48.5 -108q0 -68 51 -111.5t140 -43.5
q162 0 317 106l117 -223q-113 -83 -232 -119.5t-261 -36.5q-118 0 -208 27t-142.5 75t-78.5 107t-26 129q0 148 121 236h-213z" />
    <glyph glyph-name="cent.tf" 
d="M457 -123v258q-155 41 -247.5 165.5t-92.5 340.5q0 395 340 520v242h317v-246q72 -22 138.5 -73t111.5 -121l-209 -175q-84 119 -178 119q-77 0 -125.5 -68.5t-48.5 -187.5q0 -125 45.5 -191.5t132.5 -66.5q55 0 97.5 27t86.5 76l195 -187q-56 -72 -114 -112.5
t-132 -61.5v-258h-317z" />
    <glyph glyph-name="sterling.tf" 
d="M39 262v230h178l88 421q48 231 153.5 332t315.5 101q121 0 222.5 -53.5t158.5 -116.5l-166 -197q-111 100 -201 100q-70 0 -102 -41.5t-55 -146.5l-84 -399h284v-228h-327l-23 -96q-36 -159 -162 -266l5 -6q99 36 176 36q65 0 180 -21.5t176 -21.5q94 0 166 29l-35 -274
q-81 -19 -151 -19q-98 0 -291.5 36t-294.5 36q-154 0 -301 -70v262q74 30 120.5 81.5t69.5 146.5l35 145h-135z" />
    <glyph glyph-name="yen.tf" 
d="M360 256h-276v201h276v127h-276v200h166l-260 535h350l205 -471h8l213 471h342l-279 -535h162v-200h-280v-127h280v-201h-280v-256h-351v256z" />
    <glyph glyph-name="florin.tf" horiz-adv-x="991" 
d="M94 528l41 269h240l22 137q12 72 27.5 126.5t47 111t75 92.5t113.5 59t161 23q94 0 186 -24t156 -62l-112 -220q-44 26 -95.5 41t-85.5 15q-51 0 -79.5 -26t-40.5 -89l-35 -184h282l-47 -269h-280l-95 -546q-9 -50 -19 -89t-27.5 -83.5t-40.5 -78t-57 -65t-77 -52
t-101.5 -32.5t-129.5 -12q-74 0 -162.5 24.5t-150.5 61.5l112 219q44 -26 95 -40.5t85 -14.5q50 0 79.5 26t41.5 88l105 594h-234z" />
    <glyph glyph-name="zero.osf" horiz-adv-x="1114" 
d="M563 1079q236 0 371 -138.5t135 -401.5q0 -272 -137.5 -423t-380.5 -151q-164 0 -280 71.5t-172 193t-56 282.5q0 267 144 417t376 150zM555 219q75 0 120.5 76t45.5 240q0 148 -43.5 217t-118.5 69q-168 0 -168 -313q0 -142 44 -215.5t120 -73.5z" />
    <glyph glyph-name="one.osf" horiz-adv-x="1019" 
d="M164 258h239v414l-213 -107l-124 226l419 258h285l-20 -252v-539h231v-258h-817v258z" />
    <glyph glyph-name="two.osf" horiz-adv-x="1044" 
d="M209 633l-182 219q104 109 231.5 168t257.5 59q205 0 317.5 -95t112.5 -255q0 -61 -15.5 -112t-49.5 -96.5t-74 -83.5t-102 -85l-121 -90h413v-262h-960v193l391 290q80 61 119 110.5t39 102.5q0 48 -26 75.5t-73 27.5q-57 0 -125 -44.5t-153 -121.5z" />
    <glyph glyph-name="three.osf" horiz-adv-x="1007" 
d="M758 459q176 -176 176 -338q0 -74 -24 -136.5t-80.5 -119.5t-144.5 -101t-221.5 -78t-307.5 -53l-60 261q258 35 374 90t116 143q0 75 -82 164q-122 -40 -221 -58l-82 242q192 38 280 85.5t88 129.5q0 98 -106 98q-50 0 -127 -32t-152 -78l-153 217q36 29 82.5 57.5
t111.5 58.5t145.5 49t161.5 19q178 0 279.5 -89.5t101.5 -227.5q0 -93 -35 -167.5t-120 -135.5z" />
    <glyph glyph-name="four.osf" horiz-adv-x="1128" 
d="M725 606h203v-336h168v-270h-170v-330h-342v336h-537v197l391 878l289 -135l-311 -676h192z" />
    <glyph glyph-name="five.osf" horiz-adv-x="993" 
d="M111 336l92 713h719v-265h-439l-24 -206q473 -35 473 -396q0 -222 -199 -367t-612 -188l-66 262q275 39 396.5 107.5t121.5 177.5q0 166 -292 170q-30 1 -61.5 -0.5t-63.5 -4t-45 -3.5z" />
    <glyph glyph-name="six.osf" horiz-adv-x="1122" 
d="M805 1382l67 -254q-362 -53 -421 -333q39 24 105 40.5t120 16.5q170 0 261 -105t91 -294q0 -219 -119 -346t-346 -127q-124 0 -215 42t-145.5 122t-80.5 185.5t-26 241.5q0 79 9.5 153t32.5 152t58.5 145.5t91.5 129.5t128 108.5t171.5 79t217.5 43.5zM694 436
q0 87 -30 132.5t-86 45.5q-36 0 -78.5 -12.5t-69.5 -28.5q-2 -166 29 -248.5t104 -82.5q60 0 95.5 48t35.5 146z" />
    <glyph glyph-name="seven.osf" horiz-adv-x="1060" 
d="M61 766v283h951v-228l-580 -1151h-360l553 1096h-564z" />
    <glyph glyph-name="eight.osf" horiz-adv-x="1124" 
d="M82 340q0 193 213 354q-174 123 -174 291q0 160 120.5 260.5t327.5 100.5q108 0 190 -26t129 -72t70 -101.5t23 -120.5q0 -154 -164 -307q219 -151 219 -348q0 -80 -29 -149t-87 -123.5t-154 -85.5t-221 -31q-106 0 -188.5 21.5t-133.5 56.5t-83.5 83t-45 96t-12.5 101z
M674 365q0 90 -154 186q-112 -92 -112 -193q0 -53 33.5 -89t97.5 -36q63 0 99 36t36 96zM559 1112q-46 0 -80.5 -28t-34.5 -76q0 -52 32.5 -89.5t94.5 -78.5q105 93 105 172q0 55 -34 77.5t-83 22.5z" />
    <glyph glyph-name="nine.osf" horiz-adv-x="1120" 
d="M315 -293l-67 256q184 28 290.5 98.5t135.5 208.5q-99 -61 -230 -61q-170 0 -261 104.5t-91 292.5q0 217 122.5 345t350.5 128q122 0 211.5 -42t143 -121.5t79 -185t25.5 -241.5q0 -114 -18 -212.5t-67 -198t-126.5 -173.5t-204.5 -127.5t-293 -70.5zM424 623
q0 -87 31.5 -135t87.5 -48q31 0 76 14t71 33q1 109 -11.5 180.5t-42.5 111.5t-79 40q-60 0 -96.5 -49t-36.5 -147z" />
    <glyph glyph-name="dollar.osf" 
d="M709 1530v-203q181 -45 317 -178l-182 -211q-91 67 -159 100t-134 33q-50 0 -79.5 -25.5t-29.5 -72.5q0 -28 13.5 -50t46 -41t65 -32.5t92.5 -34.5q57 -19 99.5 -38t92 -52t81 -72.5t53 -99t21.5 -131.5q0 -152 -80 -252.5t-217 -142.5v-228h-318v209q-112 18 -212.5 56
t-158.5 79l119 269q79 -50 185 -88.5t188 -38.5q61 0 94 29t33 79q0 30 -12.5 53t-40.5 40.5t-56.5 29.5t-76.5 27q-46 14 -72.5 23.5t-70.5 28.5t-71 38t-60 49.5t-51 65.5t-31 84t-13 106q0 145 82 247.5t225 139.5v205h318z" />
    <glyph glyph-name="Euro.osf" horiz-adv-x="1124" 
d="M74 539v254h213q-48 25 -79.5 83t-31.5 123q0 159 120.5 253t344.5 94q110 0 228.5 -44.5t203.5 -127.5l-151 -207q-128 102 -267 102q-70 0 -115.5 -35.5t-45.5 -97.5q0 -59 41 -101t135 -42h264v-254h-258q-90 0 -138.5 -38t-48.5 -108q0 -68 51 -111.5t140 -43.5
q162 0 317 106l117 -223q-113 -83 -232 -119.5t-261 -36.5q-118 0 -208 27t-142.5 75t-78.5 107t-26 129q0 148 121 236h-213z" />
    <glyph glyph-name="cent.osf" 
d="M465 -266v258q-155 41 -247.5 165.5t-92.5 340.5q0 395 340 520v242h317v-246q72 -22 138 -73.5t112 -121.5l-209 -174q-84 119 -178 119q-77 0 -125.5 -68.5t-48.5 -187.5q0 -125 45.5 -191.5t132.5 -66.5q94 0 185 102l194 -186q-56 -72 -114 -112.5t-132 -61.5v-258
h-317z" />
    <glyph glyph-name="sterling.osf" horiz-adv-x="1114" 
d="M106 262v230h179l88 421q48 231 153.5 332t315.5 101q121 0 222.5 -53.5t158.5 -116.5l-166 -197q-111 100 -201 100q-71 0 -103 -41.5t-55 -146.5l-84 -399h285v-228h-328l-22 -96q-36 -159 -162 -266l4 -6q99 36 176 36q65 0 180.5 -21.5t176.5 -21.5q94 0 166 29
l-35 -274q-81 -19 -152 -19q-98 0 -291.5 36t-294.5 36q-154 0 -301 -70v262q74 31 121 82t70 146l35 145h-136z" />
    <glyph glyph-name="yen.osf" horiz-adv-x="1058" 
d="M385 256h-276v201h276v127h-276v200h165l-260 535h351l204 -471h9l213 471h342l-279 -535h162v-200h-281v-127h281v-201h-281v-256h-350v256z" />
    <glyph glyph-name="florin.osf" horiz-adv-x="1054" 
d="M82 528l41 269h239l23 137q12 72 27.5 126.5t47 111t75 92.5t113.5 59t161 23q94 0 186 -24t156 -62l-113 -220q-44 26 -95 41t-85 15q-51 0 -80 -26t-41 -89l-35 -184h283l-47 -269h-281l-94 -546q-9 -50 -19 -89t-27.5 -83.5t-40.5 -78t-57 -65t-77 -52t-101.5 -32.5
t-129.5 -12q-74 0 -163 24.5t-151 61.5l113 219q44 -26 95 -40.5t85 -14.5q50 0 79.5 26t41.5 88l104 594h-233z" />
    <glyph glyph-name="dollar.tosf" 
d="M702 1530v-203q182 -45 318 -178l-182 -211q-91 67 -159 100t-134 33q-50 0 -79.5 -25.5t-29.5 -72.5q0 -28 13.5 -50t46 -41t65 -32.5t92.5 -34.5q57 -19 99.5 -38t91.5 -52t80.5 -72.5t53 -99t21.5 -131.5q0 -152 -80 -252.5t-217 -142.5v-228h-317v209
q-112 18 -212.5 56t-158.5 79l119 269q79 -50 185 -88.5t188 -38.5q61 0 94 29t33 79q0 57 -45 88t-142 62q-45 14 -72 23.5t-71 28.5t-71 38t-59.5 49.5t-50.5 65.5t-31 84t-13 106q0 145 82 247.5t225 139.5v205h317z" />
    <glyph glyph-name="Euro.tosf" 
d="M74 539v254h213q-48 25 -79.5 83t-31.5 123q0 159 120.5 253t344.5 94q110 0 228.5 -44.5t203.5 -127.5l-151 -207q-128 102 -267 102q-70 0 -115.5 -35.5t-45.5 -97.5q0 -59 41 -101t135 -42h264v-254h-258q-90 0 -138.5 -38t-48.5 -108q0 -68 51 -111.5t140 -43.5
q162 0 317 106l117 -223q-113 -83 -232 -119.5t-261 -36.5q-118 0 -208 27t-142.5 75t-78.5 107t-26 129q0 148 121 236h-213z" />
    <glyph glyph-name="cent.tosf" 
d="M477 -266v258q-155 41 -247.5 165.5t-92.5 340.5q0 395 340 520v242h318v-246q72 -22 137.5 -73.5t111.5 -121.5l-208 -174q-84 119 -179 119q-77 0 -125.5 -68.5t-48.5 -187.5q0 -125 46 -191.5t133 -66.5q55 0 98 27t86 75l194 -186q-56 -72 -114 -112.5t-131 -61.5
v-258h-318z" />
    <glyph glyph-name="sterling.tosf" 
d="M104 262v230h179l88 421q48 231 153.5 332t315.5 101q121 0 222.5 -53.5t158.5 -116.5l-166 -197q-111 100 -201 100q-71 0 -103 -41.5t-55 -146.5l-84 -399h285v-228h-328l-22 -96q-36 -159 -162 -266l4 -6q99 36 176 36q65 0 180.5 -21.5t176.5 -21.5q93 0 165 29
l-34 -274q-81 -19 -152 -19q-98 0 -291.5 36t-294.5 36q-154 0 -301 -70v262q74 31 121 82t70 146l35 145h-136z" />
    <glyph glyph-name="yen.tosf" 
d="M408 256h-277v201h277v127h-277v200h166l-260 535h350l205 -471h8l213 471h342l-278 -535h161v-200h-280v-127h280v-201h-280v-256h-350v256z" />
    <glyph glyph-name="florin.tosf" 
d="M119 528l41 269h239l23 137q12 72 27.5 126.5t47 111t75 92.5t113.5 59t161 23q94 0 186 -24t156 -62l-113 -220q-44 26 -95 41t-85 15q-51 0 -80 -26t-41 -89l-35 -184h283l-47 -269h-281l-94 -546q-10 -58 -23 -103.5t-35.5 -95.5t-55.5 -86t-79 -66t-112 -45.5
t-148 -15.5q-74 0 -162.5 24.5t-150.5 61.5l113 219q44 -26 95 -40.5t85 -14.5q50 0 79.5 26t41.5 88l104 594h-233z" />
    <glyph glyph-name="a.alt" horiz-adv-x="1075" 
d="M168 750l-57 249q74 30 195.5 55t230.5 25t182 -19t123 -65.5t72 -123.5t22 -193v-410q0 -37 11.5 -54t39.5 -17q17 0 57 16l31 -190q-97 -50 -207 -50q-137 0 -194 121q-132 -121 -318 -121q-155 0 -231 88t-76 240q0 96 29.5 161.5t89.5 102.5t137.5 52.5t186.5 15.5
q60 0 112 -10v71q0 73 -29.5 102t-89.5 29q-58 0 -151.5 -21.5t-165.5 -53.5zM604 260v180q-45 9 -88 9q-137 0 -137 -121q0 -113 96 -113q69 0 129 45z" />
    <glyph glyph-name="e.alt" horiz-adv-x="1005" 
d="M571 1079q178 0 286 -101t108 -282q0 -65 -13 -137t-28 -115h-541q4 -109 63.5 -165t159.5 -56q135 0 258 86l99 -231q-2 -2 -18.5 -12.5t-53.5 -27.5t-81.5 -32.5t-109.5 -27t-131 -11.5q-136 0 -237.5 41t-162.5 115.5t-90.5 172.5t-29.5 218q0 90 20 172.5t62 154.5
t102.5 124.5t147 83t190.5 30.5zM553 840q-73 0 -118.5 -56.5t-53.5 -148.5h278q9 46 9 84q-3 121 -115 121z" />
    <glyph glyph-name="g.alt" horiz-adv-x="1046" 
d="M905 672q0 -86 -32.5 -152.5t-87.5 -106t-123 -59.5t-144 -20q-51 0 -76 4l-26 -84l202 -33q64 -10 108.5 -19t94 -23t82 -30t64 -39.5t49 -52.5t28.5 -68.5t11 -88.5q0 -74 -33 -138t-97 -114t-169 -78.5t-238 -28.5q-471 0 -471 262q0 40 13 75t39.5 65t46.5 48t55 44
q-74 30 -74 106q0 32 35 111l63 139q-82 49 -122 131t-40 180q0 172 114.5 274.5t299.5 102.5q144 0 240 -49l325 37v-225l-186 14l-4 -10q53 -68 53 -174zM555 -33l-147 21q-37 -33 -55.5 -61.5t-18.5 -67.5q0 -107 186 -107q95 0 150 32t55 93q0 40 -41.5 60.5
t-128.5 29.5zM492 522q50 0 78 44t28 128q0 197 -109 197q-49 0 -78.5 -42t-29.5 -132q0 -195 111 -195z" />
    <glyph glyph-name="k.alt" horiz-adv-x="1089" 
d="M444 1423v-899h9l274 525h363l-277 -498l258 -551h-366l-136 307l-186 -307h-274v1423h335z" />
    <glyph glyph-name="v.alt" horiz-adv-x="1116" 
d="M731 1049h367l-299 -1049h-459l-322 1049h375l170 -725h8z" />
    <glyph glyph-name="w.alt" horiz-adv-x="1519" 
d="M1143 1049h362l-235 -1049h-396l-112 551h-4l-125 -551h-377l-242 1049h367l127 -621h8l115 621h272l129 -627h6z" />
    <glyph glyph-name="y.alt" horiz-adv-x="1038" 
d="M684 1049h352l-342 -1051q-77 -238 -189 -347.5t-296 -109.5q-81 0 -164 24t-137 58l76 240q100 -47 178 -47q60 0 95 27t62 91l37 95l-358 1020h362l162 -590h8z" />
    <glyph glyph-name="z.alt" horiz-adv-x="950" 
d="M913 0h-862v217l430 563h-405v269h819v-209l-436 -570h454v-270z" />
    <glyph glyph-name="ae.alt" horiz-adv-x="1552" 
d="M471 215q76 0 158 66q-25 77 -31 159q-46 4 -72 4q-70 0 -108.5 -25t-38.5 -91q0 -113 92 -113zM1100 840q-75 0 -121 -59t-51 -158h278q8 41 8 88q-2 61 -30.5 95t-83.5 34zM1118 1079q178 0 285.5 -101t107.5 -282q0 -65 -13 -137t-28 -115h-538q3 -109 62 -165
t159 -56q135 0 258 86l98 -231q-2 -2 -18 -12t-53 -27.5t-81 -33t-109 -27t-132 -11.5q-263 0 -395 154q-178 -148 -365 -148q-155 0 -231 88t-76 240q0 186 112.5 262t332.5 76q54 0 110 -6v61q0 73 -29.5 102t-89.5 29q-58 0 -151.5 -21.5t-165.5 -53.5l-57 249
q74 30 195.5 55t230.5 25q204 0 280 -116q126 116 301 116z" />
    <glyph glyph-name="oe.alt" horiz-adv-x="1626" 
d="M1204 1079q177 0 279 -100.5t102 -282.5q0 -65 -13 -137t-28 -115h-540q4 -109 63.5 -165t159.5 -56q135 0 258 86l98 -231q-3 -3 -18 -12.5t-50.5 -27t-78 -33t-106.5 -27t-130 -11.5q-231 0 -358 152q-55 -70 -143 -111t-187 -41q-224 0 -343.5 137t-119.5 412
q0 124 29.5 223t77.5 161.5t113 103.5t131 58t137 17q86 0 177.5 -34.5t151.5 -112.5q127 147 338 147zM537 217q74 0 106.5 73.5t32.5 227.5q0 162 -31.5 239t-107.5 77q-70 0 -105 -73.5t-35 -205.5q0 -58 3 -103t11.5 -91t23.5 -76t41 -49t61 -19zM1174 840
q-75 0 -121.5 -59t-51.5 -158h279q8 41 8 88q-2 60 -31 94.5t-83 34.5z" />
    <glyph glyph-name="ampersand.alt" horiz-adv-x="1417" 
d="M928 801h305q6 -47 6 -139q-3 -178 -68 -316q148 -117 246 -186l-194 -258q-118 81 -256 192q-69 -60 -173 -93.5t-229 -33.5q-103 0 -188.5 24.5t-143 65t-97 95.5t-57.5 114.5t-18 122.5q0 256 230 416q-62 94 -62 213q0 163 115.5 264.5t314.5 101.5q146 0 247 -56
t173 -161l-243 -170q-80 129 -158 129q-56 0 -83.5 -31.5t-27.5 -86.5q0 -51 30 -108.5t89.5 -121.5t104.5 -106t118 -105q25 92 19 234zM729 297q-154 132 -266 264q-68 -61 -68 -151q0 -74 45 -121t131 -47q100 0 158 55z" />
    <glyph glyph-name="Q.alt" horiz-adv-x="1366" 
d="M1294 678q0 -249 -90 -412.5t-254 -234.5q33 -13 106 -50t136 -59t131 -26q81 -19 143 -7l-39 -268q-57 -3 -108 0q-80 3 -156 24t-135 49t-116 56t-122.5 48t-130.5 22q-56 3 -133 -13l27 179q-233 34 -358 209.5t-125 482.5q0 152 37.5 274.5t99 202t145 133t170.5 76
t180 22.5q98 0 183 -23t161 -76.5t130.5 -134t86 -201.5t31.5 -273zM434 684q0 -62 5.5 -117.5t22.5 -115.5t44.5 -103t74.5 -70.5t109 -27.5q67 0 116 36t75.5 98.5t38.5 133.5t12 154q0 56 -6 109t-23 111t-44 100.5t-72.5 70t-104.5 27.5q-66 0 -115.5 -34.5t-77.5 -93.5
t-41.5 -129t-13.5 -149z" />
    <glyph glyph-name="Euro.alt" 
d="M711 264q118 0 225 90l151 -223q-170 -156 -415 -156q-230 0 -362 139.5t-158 411.5h-142v262h142q15 151 67 263t130 174.5t165.5 91.5t187.5 29q115 0 222 -56.5t186 -169.5l-215 -180q-91 113 -195 113q-99 0 -147.5 -61t-58.5 -204h335v-262h-329q14 -130 63 -196
t148 -66z" />
    <glyph glyph-name="Euro_tf.alt" 
d="M711 264q118 0 225 90l151 -223q-170 -156 -415 -156q-230 0 -362 139.5t-158 411.5h-142v262h142q15 151 67 263t130 174.5t165.5 91.5t187.5 29q115 0 222 -56.5t186 -169.5l-215 -180q-91 113 -195 113q-99 0 -147.5 -61t-58.5 -204h335v-262h-329q14 -130 63 -196
t148 -66z" />
    <glyph glyph-name="agrave.alt" horiz-adv-x="1075" 
d="M168 750l-57 249q74 30 195.5 55t230.5 25t182 -19t123 -65.5t72 -123.5t22 -193v-410q0 -37 11.5 -54t39.5 -17q17 0 57 16l31 -190q-97 -50 -207 -50q-137 0 -194 121q-132 -121 -318 -121q-155 0 -231 88t-76 240q0 96 29.5 161.5t89.5 102.5t137.5 52.5t186.5 15.5
q60 0 112 -10v71q0 73 -29.5 102t-89.5 29q-58 0 -151.5 -21.5t-165.5 -53.5zM604 260v180q-45 9 -88 9q-137 0 -137 -121q0 -113 96 -113q69 0 129 45zM428 1679l254 -419l-98 -84q-192 140 -277 227q-69 69 -69 119q0 33 19 60.5t50 46t60.5 30.5t60.5 20z" />
    <glyph glyph-name="aacute.alt" horiz-adv-x="1075" 
d="M168 750l-57 249q74 30 195.5 55t230.5 25t182 -19t123 -65.5t72 -123.5t22 -193v-410q0 -37 11.5 -54t39.5 -17q17 0 57 16l31 -190q-97 -50 -207 -50q-137 0 -194 121q-132 -121 -318 -121q-155 0 -231 88t-76 240q0 96 29.5 161.5t89.5 102.5t137.5 52.5t186.5 15.5
q60 0 112 -10v71q0 73 -29.5 102t-89.5 29q-58 0 -151.5 -21.5t-165.5 -53.5zM604 260v180q-45 9 -88 9q-137 0 -137 -121q0 -113 96 -113q69 0 129 45zM311 1260l254 419q31 -8 60 -20t60 -30.5t50 -46.5t19 -60q0 -48 -68 -119q-105 -103 -276 -227z" />
    <glyph glyph-name="acircumflex.alt" horiz-adv-x="1075" 
d="M168 750l-57 249q74 30 195.5 55t230.5 25t182 -19t123 -65.5t72 -123.5t22 -193v-410q0 -37 11.5 -54t39.5 -17q17 0 57 16l31 -190q-97 -50 -207 -50q-137 0 -194 121q-132 -121 -318 -121q-155 0 -231 88t-76 240q0 96 29.5 161.5t89.5 102.5t137.5 52.5t186.5 15.5
q60 0 112 -10v71q0 73 -29.5 102t-89.5 29q-58 0 -151.5 -21.5t-165.5 -53.5zM604 260v180q-45 9 -88 9q-137 0 -137 -121q0 -113 96 -113q69 0 129 45zM258 1184l-111 88q102 153 226 299q41 47 68 63.5t67 16.5q42 0 69 -16.5t66 -63.5q111 -127 231 -299l-110 -88
l-256 215z" />
    <glyph glyph-name="atilde.alt" horiz-adv-x="1075" 
d="M168 750l-57 249q74 30 195.5 55t230.5 25t182 -19t123 -65.5t72 -123.5t22 -193v-410q0 -37 11.5 -54t39.5 -17q17 0 57 16l31 -190q-97 -50 -207 -50q-137 0 -194 121q-132 -121 -318 -121q-155 0 -231 88t-76 240q0 96 29.5 161.5t89.5 102.5t137.5 52.5t186.5 15.5
q60 0 112 -10v71q0 73 -29.5 102t-89.5 29q-58 0 -151.5 -21.5t-165.5 -53.5zM604 260v180q-45 9 -88 9q-137 0 -137 -121q0 -113 96 -113q69 0 129 45zM223 1274l-20 182q81 64 178 64q57 0 149 -28t138 -28q67 0 133 39l18 -192q-68 -41 -143 -41q-48 0 -150.5 24.5
t-144.5 24.5q-81 0 -158 -45z" />
    <glyph glyph-name="adieresis.alt" horiz-adv-x="1075" 
d="M168 750l-57 249q74 30 195.5 55t230.5 25t182 -19t123 -65.5t72 -123.5t22 -193v-410q0 -37 11.5 -54t39.5 -17q17 0 57 16l31 -190q-97 -50 -207 -50q-137 0 -194 121q-132 -121 -318 -121q-155 0 -231 88t-76 240q0 96 29.5 161.5t89.5 102.5t137.5 52.5t186.5 15.5
q60 0 112 -10v71q0 73 -29.5 102t-89.5 29q-58 0 -151.5 -21.5t-165.5 -53.5zM604 260v180q-45 9 -88 9q-137 0 -137 -121q0 -113 96 -113q69 0 129 45zM569 1386q0 62 44 105t116 43q69 0 113.5 -43.5t44.5 -104.5q0 -65 -45 -107t-115 -42q-72 0 -115 41.5t-43 107.5z
M123 1386q0 62 43.5 105t114.5 43q69 0 113 -43t44 -105q0 -65 -43.5 -107t-113.5 -42q-72 0 -115 41.5t-43 107.5z" />
    <glyph glyph-name="aring.alt" horiz-adv-x="1075" 
d="M168 750l-57 249q74 30 195.5 55t230.5 25t182 -19t123 -65.5t72 -123.5t22 -193v-410q0 -37 11.5 -54t39.5 -17q17 0 57 16l31 -190q-97 -50 -207 -50q-137 0 -194 121q-132 -121 -318 -121q-155 0 -231 88t-76 240q0 96 29.5 161.5t89.5 102.5t137.5 52.5t186.5 15.5
q60 0 112 -10v71q0 73 -29.5 102t-89.5 29q-58 0 -151.5 -21.5t-165.5 -53.5zM604 260v180q-45 9 -88 9q-137 0 -137 -121q0 -113 96 -113q69 0 129 45zM328 1333q0 85 56.5 141t145.5 56q96 0 149.5 -53.5t53.5 -135.5q0 -90 -57 -146t-150 -56q-95 0 -146.5 54t-51.5 140z
M465 1333q0 -67 65 -67q31 0 47.5 19t16.5 48q0 70 -64 70q-65 0 -65 -70z" />
    <glyph glyph-name="egrave.alt" horiz-adv-x="1005" 
d="M571 1079q178 0 286 -101t108 -282q0 -65 -13 -137t-28 -115h-541q4 -109 63.5 -165t159.5 -56q135 0 258 86l99 -231q-2 -2 -18.5 -12.5t-53.5 -27.5t-81.5 -32.5t-109.5 -27t-131 -11.5q-136 0 -237.5 41t-162.5 115.5t-90.5 172.5t-29.5 218q0 90 20 172.5t62 154.5
t102.5 124.5t147 83t190.5 30.5zM553 840q-73 0 -118.5 -56.5t-53.5 -148.5h278q9 46 9 84q-3 121 -115 121zM481 1679l254 -419l-98 -84q-192 140 -277 227q-69 69 -69 119q0 33 19 60.5t50 46t60.5 30.5t60.5 20z" />
    <glyph glyph-name="eacute.alt" horiz-adv-x="1005" 
d="M571 1079q178 0 286 -101t108 -282q0 -65 -13 -137t-28 -115h-541q4 -109 63.5 -165t159.5 -56q135 0 258 86l99 -231q-2 -2 -18.5 -12.5t-53.5 -27.5t-81.5 -32.5t-109.5 -27t-131 -11.5q-136 0 -237.5 41t-162.5 115.5t-90.5 172.5t-29.5 218q0 90 20 172.5t62 154.5
t102.5 124.5t147 83t190.5 30.5zM553 840q-73 0 -118.5 -56.5t-53.5 -148.5h278q9 46 9 84q-3 121 -115 121zM369 1260l254 419q31 -8 60 -20t59.5 -30.5t49.5 -46.5t19 -60q0 -48 -68 -119q-105 -103 -276 -227z" />
    <glyph glyph-name="ecircumflex.alt" horiz-adv-x="1005" 
d="M571 1079q178 0 286 -101t108 -282q0 -65 -13 -137t-28 -115h-541q4 -109 63.5 -165t159.5 -56q135 0 258 86l99 -231q-2 -2 -18.5 -12.5t-53.5 -27.5t-81.5 -32.5t-109.5 -27t-131 -11.5q-136 0 -237.5 41t-162.5 115.5t-90.5 172.5t-29.5 218q0 90 20 172.5t62 154.5
t102.5 124.5t147 83t190.5 30.5zM553 840q-73 0 -118.5 -56.5t-53.5 -148.5h278q9 46 9 84q-3 121 -115 121zM305 1184l-110 88q105 158 225 299q41 47 68 63.5t67 16.5q42 0 69 -16.5t66 -63.5q116 -132 232 -299l-111 -88l-256 215z" />
    <glyph glyph-name="edieresis.alt" horiz-adv-x="1005" 
d="M571 1079q178 0 286 -101t108 -282q0 -65 -13 -137t-28 -115h-541q4 -109 63.5 -165t159.5 -56q135 0 258 86l99 -231q-2 -2 -18.5 -12.5t-53.5 -27.5t-81.5 -32.5t-109.5 -27t-131 -11.5q-136 0 -237.5 41t-162.5 115.5t-90.5 172.5t-29.5 218q0 90 20 172.5t62 154.5
t102.5 124.5t147 83t190.5 30.5zM553 840q-73 0 -118.5 -56.5t-53.5 -148.5h278q9 46 9 84q-3 121 -115 121zM614 1386q0 62 44 105t116 43q69 0 113.5 -43.5t44.5 -104.5q0 -65 -45 -107t-115 -42q-72 0 -115 41.5t-43 107.5zM168 1386q0 62 43.5 105t114.5 43
q69 0 113 -43t44 -105q0 -65 -43.5 -107t-113.5 -42q-72 0 -115 41.5t-43 107.5z" />
    <glyph glyph-name="yacute.alt" horiz-adv-x="1038" 
d="M684 1049h352l-342 -1051q-77 -238 -189 -347.5t-296 -109.5q-81 0 -164 24t-137 58l76 240q100 -47 178 -47q60 0 95 27t62 91l37 95l-358 1020h362l162 -590h8zM328 1260l254 419q31 -8 60 -20t59.5 -30.5t49.5 -46.5t19 -60q0 -48 -68 -119q-105 -103 -276 -227z" />
    <glyph glyph-name="ydieresis.alt" horiz-adv-x="1038" 
d="M684 1049h352l-342 -1051q-77 -238 -189 -347.5t-296 -109.5q-81 0 -164 24t-137 58l76 240q100 -47 178 -47q60 0 95 27t62 91l37 95l-358 1020h362l162 -590h8zM598 1386q0 62 44 105t116 43q69 0 113 -43t44 -105q0 -65 -44.5 -107t-114.5 -42q-72 0 -115 41.5
t-43 107.5zM152 1386q0 62 43 105t114 43q69 0 113.5 -43.5t44.5 -104.5q0 -65 -44 -107t-114 -42q-72 0 -114.5 41.5t-42.5 107.5z" />
    <glyph glyph-name="amacron.alt" horiz-adv-x="1075" 
d="M168 750l-57 249q74 30 195.5 55t230.5 25t182 -19t123 -65.5t72 -123.5t22 -193v-410q0 -37 11.5 -54t39.5 -17q17 0 57 16l31 -190q-97 -50 -207 -50q-137 0 -194 121q-132 -121 -318 -121q-155 0 -231 88t-76 240q0 96 29.5 161.5t89.5 102.5t137.5 52.5t186.5 15.5
q60 0 112 -10v71q0 73 -29.5 102t-89.5 29q-58 0 -151.5 -21.5t-165.5 -53.5zM604 260v180q-45 9 -88 9q-137 0 -137 -121q0 -113 96 -113q69 0 129 45zM164 1266v231h651v-231h-651z" />
    <glyph glyph-name="abreve.alt" horiz-adv-x="1075" 
d="M168 750l-57 249q74 30 195.5 55t230.5 25t182 -19t123 -65.5t72 -123.5t22 -193v-410q0 -37 11.5 -54t39.5 -17q17 0 57 16l31 -190q-97 -50 -207 -50q-137 0 -194 121q-132 -121 -318 -121q-155 0 -231 88t-76 240q0 96 29.5 161.5t89.5 102.5t137.5 52.5t186.5 15.5
q60 0 112 -10v71q0 73 -29.5 102t-89.5 29q-58 0 -151.5 -21.5t-165.5 -53.5zM604 260v180q-45 9 -88 9q-137 0 -137 -121q0 -113 96 -113q69 0 129 45zM672 1579l178 -47q-41 -142 -131 -228.5t-238 -86.5q-84 0 -150.5 27t-109 75t-68 99.5t-40.5 113.5l186 47
q35 -88 77 -124t111 -36q64 0 107 36t78 124z" />
    <glyph glyph-name="aogonek.alt" horiz-adv-x="1075" 
d="M168 750l-57 249q74 30 195.5 55t230.5 25t182 -19t123 -65.5t72 -123.5t22 -193v-410q0 -37 11.5 -54t39.5 -17q17 0 57 16l31 -190q-88 -61 -150.5 -139.5t-62.5 -135.5q0 -70 72 -70q40 0 98 23l55 -170q-82 -47 -206 -47q-127 0 -187.5 58.5t-60.5 148.5q0 86 44 164
t101 135q-72 30 -104 104q-132 -121 -318 -121q-155 0 -231 88t-76 240q0 96 29.5 161.5t89.5 102.5t137.5 52.5t186.5 15.5q60 0 112 -10v71q0 73 -29.5 102t-89.5 29q-58 0 -151.5 -21.5t-165.5 -53.5zM604 260v180q-45 9 -88 9q-137 0 -137 -121q0 -113 96 -113
q69 0 129 45z" />
    <glyph glyph-name="emacron.alt" horiz-adv-x="1005" 
d="M571 1079q178 0 286 -101t108 -282q0 -65 -13 -137t-28 -115h-541q4 -109 63.5 -165t159.5 -56q135 0 258 86l99 -231q-2 -2 -18.5 -12.5t-53.5 -27.5t-81.5 -32.5t-109.5 -27t-131 -11.5q-136 0 -237.5 41t-162.5 115.5t-90.5 172.5t-29.5 218q0 90 20 172.5t62 154.5
t102.5 124.5t147 83t190.5 30.5zM553 840q-73 0 -118.5 -56.5t-53.5 -148.5h278q9 46 9 84q-3 121 -115 121zM225 1266v231h652v-231h-652z" />
    <glyph glyph-name="ebreve.alt" horiz-adv-x="1005" 
d="M571 1079q178 0 286 -101t108 -282q0 -65 -13 -137t-28 -115h-541q4 -109 63.5 -165t159.5 -56q135 0 258 86l99 -231q-2 -2 -18.5 -12.5t-53.5 -27.5t-81.5 -32.5t-109.5 -27t-131 -11.5q-136 0 -237.5 41t-162.5 115.5t-90.5 172.5t-29.5 218q0 90 20 172.5t62 154.5
t102.5 124.5t147 83t190.5 30.5zM553 840q-73 0 -118.5 -56.5t-53.5 -148.5h278q9 46 9 84q-3 121 -115 121zM741 1579l179 -47q-41 -142 -131 -228.5t-238 -86.5q-68 0 -125 18.5t-96 48.5t-69.5 72.5t-48.5 85t-30 90.5l187 47q35 -88 77 -124t111 -36q64 0 106.5 36
t77.5 124z" />
    <glyph glyph-name="edotaccent.alt" horiz-adv-x="1005" 
d="M571 1079q178 0 286 -101t108 -282q0 -65 -13 -137t-28 -115h-541q4 -109 63.5 -165t159.5 -56q135 0 258 86l99 -231q-2 -2 -18.5 -12.5t-53.5 -27.5t-81.5 -32.5t-109.5 -27t-131 -11.5q-136 0 -237.5 41t-162.5 115.5t-90.5 172.5t-29.5 218q0 90 20 172.5t62 154.5
t102.5 124.5t147 83t190.5 30.5zM553 840q-73 0 -118.5 -56.5t-53.5 -148.5h278q9 46 9 84q-3 121 -115 121zM371 1348q0 73 49.5 121.5t132.5 48.5q80 0 131 -49t51 -121q0 -74 -50.5 -122t-131.5 -48q-83 0 -132.5 47.5t-49.5 122.5z" />
    <glyph glyph-name="eogonek.alt" horiz-adv-x="1005" 
d="M805 -10q-72 -45 -123 -115t-51 -127q0 -70 71 -70q42 0 99 23l55 -170q-82 -47 -207 -47q-127 0 -187.5 58.5t-60.5 148.5q0 135 125 278q-100 5 -180 34t-135 77.5t-92 116t-53.5 146.5t-16.5 171q0 90 20 172.5t62 154.5t102.5 124.5t147 83t190.5 30.5
q178 0 286 -101t108 -282q0 -65 -13 -137t-28 -115h-541q4 -109 63.5 -165t159.5 -56q135 0 258 86l99 -231l-20 -10q-20 -11 -59 -32.5t-79 -45.5zM553 840q-73 0 -118.5 -56.5t-53.5 -148.5h278q9 46 9 84q-3 121 -115 121z" />
    <glyph glyph-name="ecaron.alt" horiz-adv-x="1005" 
d="M571 1079q178 0 286 -101t108 -282q0 -65 -13 -137t-28 -115h-541q4 -109 63.5 -165t159.5 -56q135 0 258 86l99 -231q-2 -2 -18.5 -12.5t-53.5 -27.5t-81.5 -32.5t-109.5 -27t-131 -11.5q-136 0 -237.5 41t-162.5 115.5t-90.5 172.5t-29.5 218q0 90 20 172.5t62 154.5
t102.5 124.5t147 83t190.5 30.5zM553 840q-73 0 -118.5 -56.5t-53.5 -148.5h278q9 46 9 84q-3 121 -115 121zM801 1651l110 -88q-46 -69 -110.5 -155.5t-114.5 -143.5q-72 -80 -135 -80q-68 0 -135 80q-108 123 -232 297l111 90l256 -215z" />
    <glyph glyph-name="gcircumflex.alt" horiz-adv-x="1046" 
d="M905 672q0 -86 -32.5 -152.5t-87.5 -106t-123 -59.5t-144 -20q-51 0 -76 4l-26 -84l202 -33q64 -10 108.5 -19t94 -23t82 -30t64 -39.5t49 -52.5t28.5 -68.5t11 -88.5q0 -74 -33 -138t-97 -114t-169 -78.5t-238 -28.5q-471 0 -471 262q0 40 13 75t39.5 65t46.5 48t55 44
q-74 30 -74 106q0 32 35 111l63 139q-82 49 -122 131t-40 180q0 172 114.5 274.5t299.5 102.5q144 0 240 -49l325 37v-225l-186 14l-4 -10q53 -68 53 -174zM555 -33l-147 21q-37 -33 -55.5 -61.5t-18.5 -67.5q0 -107 186 -107q95 0 150 32t55 93q0 40 -41.5 60.5
t-128.5 29.5zM492 522q50 0 78 44t28 128q0 197 -109 197q-49 0 -78.5 -42t-29.5 -132q0 -195 111 -195zM229 1184l-110 88q105 158 225 299q41 47 68 63.5t67 16.5q42 0 69 -16.5t66 -63.5q116 -132 232 -299l-111 -88l-256 215z" />
    <glyph glyph-name="gbreve.alt" horiz-adv-x="1046" 
d="M905 672q0 -86 -32.5 -152.5t-87.5 -106t-123 -59.5t-144 -20q-51 0 -76 4l-26 -84l202 -33q64 -10 108.5 -19t94 -23t82 -30t64 -39.5t49 -52.5t28.5 -68.5t11 -88.5q0 -74 -33 -138t-97 -114t-169 -78.5t-238 -28.5q-471 0 -471 262q0 40 13 75t39.5 65t46.5 48t55 44
q-74 30 -74 106q0 32 35 111l63 139q-82 49 -122 131t-40 180q0 172 114.5 274.5t299.5 102.5q144 0 240 -49l325 37v-225l-186 14l-4 -10q53 -68 53 -174zM555 -33l-147 21q-37 -33 -55.5 -61.5t-18.5 -67.5q0 -107 186 -107q95 0 150 32t55 93q0 40 -41.5 60.5
t-128.5 29.5zM492 522q50 0 78 44t28 128q0 197 -109 197q-49 0 -78.5 -42t-29.5 -132q0 -195 111 -195zM659 1579l179 -47q-41 -142 -131 -228.5t-238 -86.5q-68 0 -125 18.5t-96 48.5t-69.5 72.5t-48.5 85t-30 90.5l187 47q35 -88 77 -124t111 -36q64 0 106.5 36t77.5 124
z" />
    <glyph glyph-name="gdotaccent.alt" horiz-adv-x="1046" 
d="M905 672q0 -86 -32.5 -152.5t-87.5 -106t-123 -59.5t-144 -20q-51 0 -76 4l-26 -84l202 -33q64 -10 108.5 -19t94 -23t82 -30t64 -39.5t49 -52.5t28.5 -68.5t11 -88.5q0 -74 -33 -138t-97 -114t-169 -78.5t-238 -28.5q-471 0 -471 262q0 40 13 75t39.5 65t46.5 48t55 44
q-74 30 -74 106q0 32 35 111l63 139q-82 49 -122 131t-40 180q0 172 114.5 274.5t299.5 102.5q144 0 240 -49l325 37v-225l-186 14l-4 -10q53 -68 53 -174zM555 -33l-147 21q-37 -33 -55.5 -61.5t-18.5 -67.5q0 -107 186 -107q95 0 150 32t55 93q0 40 -41.5 60.5
t-128.5 29.5zM492 522q50 0 78 44t28 128q0 197 -109 197q-49 0 -78.5 -42t-29.5 -132q0 -195 111 -195zM287 1348q0 73 49.5 121.5t132.5 48.5q80 0 131 -49t51 -121q0 -74 -50.5 -122t-131.5 -48q-83 0 -132.5 47.5t-49.5 122.5z" />
    <glyph glyph-name="gcommaaccent.alt" horiz-adv-x="1046" 
d="M905 672q0 -86 -32.5 -152.5t-87.5 -106t-123 -59.5t-144 -20q-51 0 -76 4l-26 -84l202 -33q64 -10 108.5 -19t94 -23t82 -30t64 -39.5t49 -52.5t28.5 -68.5t11 -88.5q0 -74 -33 -138t-97 -114t-169 -78.5t-238 -28.5q-471 0 -471 262q0 40 13 75t39.5 65t46.5 48t55 44
q-74 30 -74 106q0 32 35 111l63 139q-82 49 -122 131t-40 180q0 172 114.5 274.5t299.5 102.5q144 0 240 -49l325 37v-225l-186 14l-4 -10q53 -68 53 -174zM555 -33l-147 21q-37 -33 -55.5 -61.5t-18.5 -67.5q0 -107 186 -107q95 0 150 32t55 93q0 40 -41.5 60.5
t-128.5 29.5zM492 522q50 0 78 44t28 128q0 197 -109 197q-49 0 -78.5 -42t-29.5 -132q0 -195 111 -195zM664 1597l-121 -432q-49 4 -83 9.5t-69.5 17t-53.5 34t-18 54.5q0 36 43 113q19 34 47 74t46.5 64.5t52 67t41.5 52.5z" />
    <glyph glyph-name="kcommaaccent.alt" horiz-adv-x="1089" 
d="M444 1423v-899h9l274 525h363l-277 -498l258 -551h-366l-136 307l-186 -307h-274v1423h335zM424 -104l-125 -428l121 -60q131 170 184 262q41 65 41 115q0 35 -21 58.5t-59 34t-68.5 14t-72.5 4.5z" />
    <glyph glyph-name="wcircumflex.alt" horiz-adv-x="1519" 
d="M1143 1049h362l-235 -1049h-396l-112 551h-4l-125 -551h-377l-242 1049h367l127 -621h8l115 621h272l129 -627h6zM463 1184l-111 88q102 153 226 299q41 47 68 63.5t67 16.5q42 0 69 -16.5t66 -63.5q111 -127 231 -299l-110 -88l-256 215z" />
    <glyph glyph-name="wgrave.alt" horiz-adv-x="1519" 
d="M1143 1049h362l-235 -1049h-396l-112 551h-4l-125 -551h-377l-242 1049h367l127 -621h8l115 621h272l129 -627h6zM645 1679l254 -419l-98 -84q-192 140 -277 227q-69 69 -69 119q0 33 19 60.5t50 46t60.5 30.5t60.5 20z" />
    <glyph glyph-name="wacute.alt" horiz-adv-x="1519" 
d="M1143 1049h362l-235 -1049h-396l-112 551h-4l-125 -551h-377l-242 1049h367l127 -621h8l115 621h272l129 -627h6zM512 1260l254 419q31 -8 60 -20t59.5 -30.5t49.5 -46.5t19 -60q0 -49 -67 -119q-102 -100 -277 -227z" />
    <glyph glyph-name="wdieresis.alt" horiz-adv-x="1519" 
d="M1143 1049h362l-235 -1049h-396l-112 551h-4l-125 -551h-377l-242 1049h367l127 -621h8l115 621h272l129 -627h6zM811 1386q0 62 44 105t116 43q69 0 113 -43t44 -105q0 -65 -44.5 -107t-114.5 -42q-72 0 -115 41.5t-43 107.5zM365 1386q0 62 43 105t114 43
q69 0 113.5 -43.5t44.5 -104.5q0 -65 -44 -107t-114 -42q-72 0 -114.5 41.5t-42.5 107.5z" />
    <glyph glyph-name="ygrave.alt" horiz-adv-x="1038" 
d="M684 1049h352l-342 -1051q-77 -238 -189 -347.5t-296 -109.5q-81 0 -164 24t-137 58l76 240q100 -47 178 -47q60 0 95 27t62 91l37 95l-358 1020h362l162 -590h8zM358 1679l254 -419l-98 -84q-189 138 -276 227q-70 70 -70 119q0 33 19 60.5t50 46t60.5 30.5t60.5 20z
" />
    <glyph glyph-name="ycircumflex.alt" horiz-adv-x="1038" 
d="M684 1049h352l-342 -1051q-77 -238 -189 -347.5t-296 -109.5q-81 0 -164 24t-137 58l76 240q100 -47 178 -47q60 0 95 27t62 91l37 95l-358 1020h362l162 -590h8zM225 1184l-110 88q105 158 225 299q41 47 68 63.5t67 16.5q42 0 69 -16.5t66 -63.5q116 -132 232 -299
l-111 -88l-256 215z" />
    <glyph glyph-name="zacute.alt" horiz-adv-x="950" 
d="M913 0h-862v217l430 563h-405v269h819v-209l-436 -570h454v-270zM328 1260l254 419q31 -8 60 -20t59.5 -30.5t49.5 -46.5t19 -60q0 -48 -68 -119q-105 -103 -276 -227z" />
    <glyph glyph-name="zdotaccent.alt" horiz-adv-x="950" 
d="M913 0h-862v217l430 563h-405v269h819v-209l-436 -570h454v-270zM293 1348q0 73 49.5 121.5t132.5 48.5q80 0 131 -49t51 -121q0 -74 -50.5 -122t-131.5 -48q-83 0 -132.5 47.5t-49.5 122.5z" />
    <glyph glyph-name="zcaron.alt" horiz-adv-x="950" 
d="M913 0h-862v217l430 563h-405v269h819v-209l-436 -570h454v-270zM733 1651l111 -88q-111 -168 -226 -299q-72 -80 -135 -80q-68 0 -135 80q-103 117 -231 297l110 90l256 -215z" />
    </font>
</defs>
</svg>
